<?xml version="1.0" standalone="no"?><!DOCTYPE svg PUBLIC "-//W3C//DTD SVG 1.1//EN" "http://www.w3.org/Graphics/SVG/1.1/DTD/svg11.dtd" ><svg xmlns="http://www.w3.org/2000/svg"><metadata></metadata><defs><font id="SF UI Text Bold; 12.0d0e2; 2016-05-11" horiz-adv-x="2924"><font-face font-family="SF UI Text" font-weight="700" font-stretch="normal" units-per-em="2048" panose-1="0 0 8 0 0 0 0 0 0 0" ascent="1950" descent="-494" x-height="0" bbox="-611 -570 2789 2229" underline-thickness="197" underline-position="-277" unicode-range="U+0020-f189" /><missing-glyph horiz-adv-x="2048" d="M100 -494 l1848 0 l0 198 l-1848 0 l0 -198 ZM100 -45 l1848 0 l0 198 l-1848 0 l0 -198 ZM100 404 l1848 0 l0 199 l-1848 0 l0 -199 ZM100 853 l1848 0 l0 199 l-1848 0 l0 -199 ZM100 1303 l1848 0 l0 198 l-1848 0 l0 -198 ZM100 1752 l1848 0 l0 198 l-1848 0 l0 -198 Z" /><glyph glyph-name="" unicode=" " d="" /><glyph glyph-name="" unicode="a" d="M1102 0 l327 0 l-501 1443 l-355 0 l-501 -1443 l303 0 l111 344 l507 0 l109 -344 ZM732 1143 l18 0 l179 -566 l-378 0 l181 566 Z" /><glyph glyph-name="" unicode="à" d="M1102 0 l327 0 l-501 1443 l-355 0 l-501 -1443 l303 0 l111 344 l507 0 l109 -344 ZM732 1143 l18 0 l179 -566 l-378 0 l181 566 ZM623 1590 l277 0 l-276 318 l-315 0 l314 -318 Z" /><glyph glyph-name="" unicode="á" d="M1102 0 l327 0 l-501 1443 l-355 0 l-501 -1443 l303 0 l111 344 l507 0 l109 -344 ZM732 1143 l18 0 l179 -566 l-378 0 l181 566 ZM887 1590 l314 318 l-315 0 l-277 -318 l278 0 Z" /><glyph glyph-name="" unicode="ä" d="M1102 0 l327 0 l-501 1443 l-355 0 l-501 -1443 l303 0 l111 344 l507 0 l109 -344 ZM732 1143 l18 0 l179 -566 l-378 0 l181 566 ZM516 1579 q69 1 111 43 q43 42 44 109 q-1 67 -44 109 q-42 41 -111 42 q-69 -1 -111 -42 q-43 -42 -44 -109 q1 -67 44 -109 q42 -42 111 -43 l0 0 ZM984 1579 q69 1 112 43 q43 42 44 109 q-1 67 -44 109 q-43 41 -112 42 q-68 -1 -111 -42 q-43 -42 -44 -109 q1 -67 44 -109 q43 -42 111 -43 l0 0 Z" /><glyph glyph-name="" unicode="&#x1de;" d="M1102 0 l327 0 l-501 1443 l-355 0 l-501 -1443 l303 0 l111 344 l507 0 l109 -344 ZM732 1143 l18 0 l179 -566 l-378 0 l181 566 ZM516 1879 q-68 -1 -110 -42 q-43 -42 -44 -108 q1 -66 44 -108 q42 -41 110 -42 q67 1 110 42 q42 42 43 108 q-1 66 -43 108 q-43 41 -110 42 l0 0 ZM377 2164 l0 -168 l746 0 l0 168 l-746 0 ZM984 1879 q-67 -1 -109 -42 q-43 -42 -44 -108 q1 -66 44 -108 q42 -41 109 -42 q68 1 110 42 q43 42 44 108 q-1 66 -44 108 q-42 41 -110 42 l0 0 Z" /><glyph glyph-name="" unicode="å" d="M1102 0 l327 0 l-501 1443 l-355 0 l-501 -1443 l303 0 l111 344 l507 0 l109 -344 ZM732 1143 l18 0 l179 -566 l-378 0 l181 566 ZM751 1546 q89 2 146 57 q56 54 58 143 q-2 88 -58 143 q-57 54 -146 56 q-90 -2 -147 -56 q-57 -55 -59 -143 q2 -89 59 -143 q57 -55 147 -57 l0 0 ZM750 1652 q-42 1 -68 27 q-26 25 -27 66 q1 41 27 67 q26 26 68 27 q42 -1 68 -27 q26 -26 27 -67 q-1 -41 -26 -66 q-26 -26 -69 -27 l0 0 Z" /><glyph glyph-name="" unicode="&#x1fa;" d="M1102 0 l327 0 l-501 1443 l-355 0 l-501 -1443 l303 0 l111 344 l507 0 l109 -344 ZM732 1143 l18 0 l179 -566 l-378 0 l181 566 ZM751 1531 q94 2 153 60 q60 58 62 151 q-2 92 -62 149 q-59 57 -153 59 q-95 -2 -155 -59 q-60 -57 -62 -149 q2 -93 62 -151 q61 -58 155 -60 l0 0 ZM664 1740 q1 37 24 61 q24 23 62 24 q38 -1 61 -24 q24 -24 25 -61 q-1 -37 -24 -60 q-24 -24 -62 -25 q-38 1 -62 25 q-23 23 -24 60 l0 0 ZM741 2214 l-108 -191 l237 0 l135 191 l-264 0 Z" /><glyph glyph-name="" unicode="ã" d="M1102 0 l327 0 l-501 1443 l-355 0 l-501 -1443 l303 0 l111 344 l507 0 l109 -344 ZM732 1143 l18 0 l179 -566 l-378 0 l181 566 ZM909 1577 q110 1 178 81 q67 79 69 224 l-183 0 q-4 -69 -28 -97 q-24 -28 -59 -27 q-58 9 -116 69 q-58 60 -179 69 q-110 -1 -177 -80 q-68 -80 -70 -229 l184 0 q3 69 25 99 q23 30 61 29 q66 -9 122 -69 q57 -60 173 -69 l0 0 Z" /><glyph glyph-name="" unicode="&#x1eb0;" d="M1102 0 l327 0 l-501 1443 l-355 0 l-501 -1443 l303 0 l111 344 l507 0 l109 -344 ZM732 1143 l18 0 l179 -566 l-378 0 l181 566 ZM1150 1910 l-208 0 q-2 -72 -53 -115 q-51 -43 -139 -44 q-88 1 -139 44 q-51 43 -53 115 l-208 0 q2 -147 107 -238 q106 -90 293 -93 q187 3 293 93 q105 91 107 238 l0 0 ZM881 1925 l-184 254 l-270 0 l229 -254 l225 0 Z" /><glyph glyph-name="" unicode="&#x1e0;" d="M1102 0 l327 0 l-501 1443 l-355 0 l-501 -1443 l303 0 l111 344 l507 0 l109 -344 ZM732 1143 l18 0 l179 -566 l-378 0 l181 566 ZM750 1575 q69 1 112 43 q43 41 44 107 q-1 65 -44 106 q-43 41 -112 42 q-69 -1 -112 -42 q-43 -41 -44 -106 q1 -66 44 -107 q43 -42 112 -43 l0 0 ZM1123 2164 l-746 0 l0 -168 l746 0 l0 168 Z" /><glyph glyph-name="" unicode="&#x1e00;" d="M1102 0 l327 0 l-501 1443 l-355 0 l-501 -1443 l303 0 l111 344 l507 0 l109 -344 ZM732 1143 l18 0 l179 -566 l-378 0 l181 566 ZM739 -570 q107 2 175 68 q68 67 70 173 q-2 105 -70 170 q-68 66 -175 68 q-107 -2 -175 -68 q-69 -65 -71 -170 q2 -106 71 -173 q68 -66 175 -68 l0 0 ZM739 -434 q-47 1 -76 29 q-29 28 -30 75 q1 45 30 74 q29 28 76 29 q46 -1 75 -29 q29 -29 30 -74 q-1 -46 -30 -74 q-28 -29 -75 -30 l0 0 Z" /><glyph glyph-name="" unicode="â" d="M1102 0 l327 0 l-501 1443 l-355 0 l-501 -1443 l303 0 l111 344 l507 0 l109 -344 ZM732 1143 l18 0 l179 -566 l-378 0 l181 566 ZM614 1925 l-284 -335 l265 0 l146 187 l18 0 l146 -187 l265 0 l-284 335 l-272 0 Z" /><glyph glyph-name="" unicode="&#x1eac;" d="M1102 0 l327 0 l-501 1443 l-355 0 l-501 -1443 l303 0 l111 344 l507 0 l109 -344 ZM732 1143 l18 0 l179 -566 l-378 0 l181 566 ZM739 -419 q72 1 114 40 q42 38 43 100 q-1 61 -43 100 q-42 38 -114 39 q-72 -1 -114 -39 q-42 -39 -43 -100 q1 -62 43 -100 q42 -39 114 -40 l0 0 ZM614 1925 l-284 -335 l265 0 l146 187 l18 0 l146 -187 l265 0 l-284 335 l-272 0 Z" /><glyph glyph-name="" unicode="&#x1ea4;" d="M1102 0 l327 0 l-501 1443 l-355 0 l-501 -1443 l303 0 l111 344 l507 0 l109 -344 ZM732 1143 l18 0 l179 -566 l-378 0 l181 566 ZM605 1848 l-278 -269 l272 0 l141 143 l20 0 l141 -143 l272 0 l-278 269 l-290 0 ZM987 1885 l243 0 l212 294 l-272 0 l-183 -294 Z" /><glyph glyph-name="" unicode="&#x1eaa;" d="M1102 0 l327 0 l-501 1443 l-355 0 l-501 -1443 l303 0 l111 344 l507 0 l109 -344 ZM732 1143 l18 0 l179 -566 l-378 0 l181 566 ZM899 1898 q108 1 174 75 q66 74 68 206 l-173 0 q-4 -57 -28 -83 q-24 -26 -59 -26 q-66 8 -116 62 q-50 53 -164 61 q-108 -1 -174 -73 q-66 -73 -68 -206 l174 0 q3 53 25 80 q23 27 61 27 q66 -8 116 -61 q50 -54 164 -62 l0 0 ZM605 1843 l-278 -264 l272 0 l141 143 l20 0 l141 -143 l272 0 l-278 264 l-290 0 Z" /><glyph glyph-name="" unicode="&#x1ea6;" d="M1102 0 l327 0 l-501 1443 l-355 0 l-501 -1443 l303 0 l111 344 l507 0 l109 -344 ZM732 1143 l18 0 l179 -566 l-378 0 l181 566 ZM605 1848 l-278 -269 l272 0 l141 143 l20 0 l141 -143 l272 0 l-278 269 l-290 0 ZM1277 1885 l-182 294 l-273 0 l212 -294 l243 0 Z" /><glyph glyph-name="" unicode="&#x1ea8;" d="M1102 0 l327 0 l-501 1443 l-355 0 l-501 -1443 l303 0 l111 344 l507 0 l109 -344 ZM732 1143 l18 0 l179 -566 l-378 0 l181 566 ZM605 1848 l-278 -269 l272 0 l141 143 l20 0 l141 -143 l272 0 l-278 269 l-290 0 ZM895 2028 q17 7 41 11 q25 4 52 4 q43 0 68 -19 q25 -20 26 -53 q0 -31 -22 -58 q-22 -26 -67 -44 l105 -103 q81 33 125 92 q43 59 43 139 q-1 91 -64 144 q-62 52 -170 53 q-43 0 -79 -5 q-36 -6 -58 -14 l0 -147 Z" /><glyph glyph-name="" unicode="&#x102;" d="M1102 0 l327 0 l-501 1443 l-355 0 l-501 -1443 l303 0 l111 344 l507 0 l109 -344 ZM732 1143 l18 0 l179 -566 l-378 0 l181 566 ZM350 1915 q2 -151 107 -242 q106 -92 293 -94 q187 2 293 94 q105 91 107 242 l-208 0 q-2 -76 -53 -119 q-51 -44 -139 -45 q-88 1 -139 45 q-51 43 -53 119 l-208 0 Z" /><glyph glyph-name="" unicode="&#x1eae;" d="M1102 0 l327 0 l-501 1443 l-355 0 l-501 -1443 l303 0 l111 344 l507 0 l109 -344 ZM732 1143 l18 0 l179 -566 l-378 0 l181 566 ZM350 1910 q2 -147 107 -238 q106 -90 293 -93 q187 3 293 93 q105 91 107 238 l-208 0 q-2 -72 -53 -115 q-51 -43 -139 -44 q-88 1 -139 44 q-51 43 -53 115 l-208 0 ZM619 1925 l225 0 l229 254 l-270 0 l-184 -254 Z" /><glyph glyph-name="" unicode="&#x1eb4;" d="M1102 0 l327 0 l-501 1443 l-355 0 l-501 -1443 l303 0 l111 344 l507 0 l109 -344 ZM732 1143 l18 0 l179 -566 l-378 0 l181 566 ZM368 1858 q2 -115 102 -195 q101 -80 280 -84 q179 4 280 84 q100 80 102 195 l-197 0 q-2 -45 -50 -80 q-49 -34 -135 -36 q-86 2 -134 36 q-49 35 -51 80 l-197 0 ZM904 1912 q104 1 166 71 q61 69 63 188 l-173 0 q-3 -49 -26 -71 q-22 -23 -56 -23 q-64 7 -118 58 q-55 51 -164 58 q-104 -1 -165 -69 q-62 -69 -64 -187 l174 0 q2 43 23 67 q22 25 58 25 q64 -7 119 -58 q54 -52 163 -59 l0 0 Z" /><glyph glyph-name="" unicode="&#x1eb2;" d="M1102 0 l327 0 l-501 1443 l-355 0 l-501 -1443 l303 0 l111 344 l507 0 l109 -344 ZM732 1143 l18 0 l179 -566 l-378 0 l181 566 ZM551 2065 q20 8 46 13 q25 5 52 5 q46 0 73 -21 q26 -20 27 -54 q0 -31 -24 -58 q-23 -27 -70 -45 l86 -105 q90 35 138 94 q47 60 47 138 q-1 92 -66 144 q-65 52 -177 53 q-39 0 -73 -7 q-34 -6 -59 -16 l0 -141 ZM361 1874 q2 -139 105 -224 q102 -84 284 -86 q182 2 285 86 q102 85 104 224 l-188 0 q-4 -67 -56 -106 q-52 -38 -145 -39 q-93 1 -145 39 q-52 39 -56 106 l-188 0 Z" /><glyph glyph-name="" unicode="&#x1eb6;" d="M1102 0 l327 0 l-501 1443 l-355 0 l-501 -1443 l303 0 l111 344 l507 0 l109 -344 ZM732 1143 l18 0 l179 -566 l-378 0 l181 566 ZM739 -419 q72 1 114 40 q42 38 43 100 q-1 61 -43 100 q-42 38 -114 39 q-72 -1 -114 -39 q-42 -39 -43 -100 q1 -62 43 -100 q42 -39 114 -40 l0 0 ZM350 1915 q2 -151 107 -242 q106 -92 293 -94 q187 2 293 94 q105 91 107 242 l-208 0 q-2 -76 -53 -119 q-51 -44 -139 -45 q-88 1 -139 45 q-51 43 -53 119 l-208 0 Z" /><glyph glyph-name="" unicode="&#x202;" d="M1102 0 l327 0 l-501 1443 l-355 0 l-501 -1443 l303 0 l111 344 l507 0 l109 -344 ZM732 1143 l18 0 l179 -566 l-378 0 l181 566 ZM350 1579 l208 0 q2 77 53 120 q51 44 139 45 q88 -1 139 -45 q51 -43 53 -120 l208 0 q-2 152 -107 243 q-106 91 -293 93 q-187 -2 -293 -93 q-105 -91 -107 -243 l0 0 Z" /><glyph glyph-name="" unicode="&#x1cd;" d="M1102 0 l327 0 l-501 1443 l-355 0 l-501 -1443 l303 0 l111 344 l507 0 l109 -344 ZM732 1143 l18 0 l179 -566 l-378 0 l181 566 ZM623 1590 l254 0 l281 318 l-253 0 l-145 -173 l-20 0 l-145 173 l-253 0 l281 -318 Z" /><glyph glyph-name="" unicode="&#x226;" d="M1102 0 l327 0 l-501 1443 l-355 0 l-501 -1443 l303 0 l111 344 l507 0 l109 -344 ZM732 1143 l18 0 l179 -566 l-378 0 l181 566 ZM750 1579 q70 1 113 45 q43 44 44 113 q-1 69 -44 113 q-43 44 -113 45 q-71 -1 -114 -45 q-43 -44 -44 -113 q1 -69 44 -113 q43 -44 114 -45 l0 0 Z" /><glyph glyph-name="" unicode="&#x1ea0;" d="M1102 0 l327 0 l-501 1443 l-355 0 l-501 -1443 l303 0 l111 344 l507 0 l109 -344 ZM732 1143 l18 0 l179 -566 l-378 0 l181 566 ZM739 -419 q72 1 114 40 q42 38 43 100 q-1 61 -43 100 q-42 38 -114 39 q-72 -1 -114 -39 q-42 -39 -43 -100 q1 -62 43 -100 q42 -39 114 -40 l0 0 Z" /><glyph glyph-name="" unicode="&#x1ea2;" d="M1102 0 l327 0 l-501 1443 l-355 0 l-501 -1443 l303 0 l111 344 l507 0 l109 -344 ZM732 1143 l18 0 l179 -566 l-378 0 l181 566 ZM543 1826 q20 8 49 14 q29 5 62 5 q50 -1 79 -22 q29 -21 30 -56 q-1 -33 -30 -60 q-29 -28 -77 -46 l92 -114 q94 36 147 100 q52 64 53 148 q-2 96 -69 153 q-68 56 -181 57 q-48 0 -88 -8 q-40 -8 -67 -17 l0 -154 Z" /><glyph glyph-name="" unicode="&#x200;" d="M1102 0 l327 0 l-501 1443 l-355 0 l-501 -1443 l303 0 l111 344 l507 0 l109 -344 ZM732 1143 l18 0 l179 -566 l-378 0 l181 566 ZM854 1590 l244 0 l-251 318 l-271 0 l278 -318 ZM417 1590 l244 0 l-252 318 l-270 0 l278 -318 Z" /><glyph glyph-name="" unicode="&#x100;" d="M1102 0 l327 0 l-501 1443 l-355 0 l-501 -1443 l303 0 l111 344 l507 0 l109 -344 ZM732 1143 l18 0 l179 -566 l-378 0 l181 566 ZM1123 1813 l-746 0 l0 -181 l746 0 l0 181 Z" /><glyph glyph-name="" unicode="&#x104;" d="M732 1143 l18 0 l179 -566 l-378 0 l181 566 ZM1359 -445 l0 167 q-9 -3 -27 -5 q-18 -3 -42 -3 q-55 0 -86 26 q-31 25 -32 70 q4 68 66 117 q63 49 141 67 l50 6 l-501 1443 l-355 0 l-501 -1443 l303 0 l111 344 l507 0 l111 -351 q-70 -39 -113 -101 q-44 -63 -45 -134 q2 -99 75 -160 q74 -62 200 -64 q56 0 89 7 q32 7 49 14 l0 0 Z" /><glyph glyph-name="" unicode="b" d="M823 0 q233 2 365 112 q132 109 134 301 q-3 142 -93 237 q-91 94 -237 107 l0 18 q113 19 186 105 q73 85 75 203 q-2 169 -118 264 q-117 94 -329 96 l-631 0 l0 -1443 l648 0 ZM477 1212 l252 0 q109 -1 168 -49 q58 -48 59 -135 q0 -88 -65 -135 q-64 -47 -187 -48 l-227 0 l0 367 ZM477 231 l0 410 l262 0 q134 0 204 -51 q71 -52 71 -151 q0 -102 -69 -155 q-68 -53 -199 -53 l-269 0 Z" /><glyph glyph-name="" unicode="&#x1e06;" d="M823 0 q233 2 365 112 q132 109 134 301 q-3 142 -93 237 q-91 94 -237 107 l0 18 q113 19 186 105 q73 85 75 203 q-2 169 -118 264 q-117 94 -329 96 l-631 0 l0 -1443 l648 0 ZM477 1212 l252 0 q109 -1 168 -49 q58 -48 59 -135 q0 -88 -65 -135 q-64 -47 -187 -48 l-227 0 l0 367 ZM477 231 l0 410 l262 0 q134 0 204 -51 q71 -52 71 -151 q0 -102 -69 -155 q-68 -53 -199 -53 l-269 0 ZM1016 -220 l-746 0 l0 -181 l746 0 l0 181 Z" /><glyph glyph-name="" unicode="&#x1e04;" d="M643 -419 q72 1 114 40 q42 38 43 100 q-1 61 -43 100 q-42 38 -114 39 q-72 -1 -114 -39 q-42 -39 -43 -100 q1 -62 43 -100 q42 -39 114 -40 l0 0 ZM823 0 q233 2 365 112 q132 109 134 301 q-3 142 -93 237 q-91 94 -237 107 l0 18 q113 19 186 105 q73 85 75 203 q-2 169 -118 264 q-117 94 -329 96 l-631 0 l0 -1443 l648 0 ZM477 1212 l252 0 q109 -1 168 -49 q58 -48 59 -135 q0 -88 -65 -135 q-64 -47 -187 -48 l-227 0 l0 367 ZM477 231 l0 410 l262 0 q134 0 204 -51 q71 -52 71 -151 q0 -102 -69 -155 q-68 -53 -199 -53 l-269 0 Z" /><glyph glyph-name="" unicode="&#x1e02;" d="M643 1579 q70 1 113 45 q43 44 44 113 q-1 69 -44 113 q-43 44 -113 45 q-71 -1 -114 -45 q-43 -44 -44 -113 q1 -69 44 -113 q43 -44 114 -45 l0 0 ZM823 0 q233 2 365 112 q132 109 134 301 q-3 142 -93 237 q-91 94 -237 107 l0 18 q113 19 186 105 q73 85 75 203 q-2 169 -118 264 q-117 94 -329 96 l-631 0 l0 -1443 l648 0 ZM477 1212 l252 0 q109 -1 168 -49 q58 -48 59 -135 q0 -88 -65 -135 q-64 -47 -187 -48 l-227 0 l0 367 ZM477 231 l0 410 l262 0 q134 0 204 -51 q71 -52 71 -151 q0 -102 -69 -155 q-68 -53 -199 -53 l-269 0 Z" /><glyph glyph-name="" unicode="c" d="M788 -37 q265 4 435 147 q169 142 192 380 l-294 0 q-24 -121 -112 -190 q-88 -70 -220 -71 q-173 2 -270 133 q-97 130 -99 360 q2 230 99 360 q97 130 269 132 q131 -2 220 -75 q88 -74 112 -200 l294 0 q-21 240 -193 388 q-171 149 -433 153 q-317 -3 -496 -203 q-178 -200 -181 -555 q3 -356 182 -556 q178 -200 495 -203 l0 0 Z" /><glyph glyph-name="" unicode="&#x106;" d="M925 1591 l314 318 l-315 0 l-277 -318 l278 0 ZM788 -37 q265 4 435 147 q169 142 192 380 l-294 0 q-24 -121 -112 -190 q-88 -70 -220 -71 q-173 2 -270 133 q-97 130 -99 360 q2 230 99 360 q97 130 269 132 q131 -2 220 -75 q88 -74 112 -200 l294 0 q-21 240 -193 388 q-171 149 -433 153 q-317 -3 -496 -203 q-178 -200 -181 -555 q3 -356 182 -556 q178 -200 495 -203 l0 0 Z" /><glyph glyph-name="" unicode="&#x10c;" d="M788 -37 q265 4 435 147 q169 142 192 380 l-294 0 q-24 -121 -112 -190 q-88 -70 -220 -71 q-173 2 -270 133 q-97 130 -99 360 q2 230 99 360 q97 130 269 132 q131 -2 220 -75 q88 -74 112 -200 l294 0 q-21 240 -193 388 q-171 149 -433 153 q-317 -3 -496 -203 q-178 -200 -181 -555 q3 -356 182 -556 q178 -200 495 -203 l0 0 ZM661 1591 l254 0 l281 318 l-253 0 l-145 -173 l-20 0 l-145 173 l-253 0 l281 -318 Z" /><glyph glyph-name="" unicode="&#x108;" d="M788 -37 q265 4 435 147 q169 142 192 380 l-294 0 q-24 -121 -112 -190 q-88 -70 -220 -71 q-173 2 -270 133 q-97 130 -99 360 q2 230 99 360 q97 130 269 132 q131 -2 220 -75 q88 -74 112 -200 l294 0 q-21 240 -193 388 q-171 149 -433 153 q-317 -3 -496 -203 q-178 -200 -181 -555 q3 -356 182 -556 q178 -200 495 -203 l0 0 ZM652 1926 l-284 -335 l265 0 l146 187 l18 0 l146 -187 l265 0 l-284 335 l-272 0 Z" /><glyph glyph-name="" unicode="&#x10a;" d="M788 1580 q70 1 113 45 q43 44 44 113 q-1 69 -44 113 q-43 44 -113 45 q-71 -1 -114 -45 q-43 -44 -44 -113 q1 -69 44 -113 q43 -44 114 -45 l0 0 ZM788 -37 q265 4 435 147 q169 142 192 380 l-294 0 q-24 -121 -112 -190 q-88 -70 -220 -71 q-173 2 -270 133 q-97 130 -99 360 q2 230 99 360 q97 130 269 132 q131 -2 220 -75 q88 -74 112 -200 l294 0 q-21 240 -193 388 q-171 149 -433 153 q-317 -3 -496 -203 q-178 -200 -181 -555 q3 -356 182 -556 q178 -200 495 -203 l0 0 Z" /><glyph glyph-name="" unicode="ç" d="M1121 490 q-24 -121 -112 -190 q-88 -70 -220 -71 q-173 2 -270 133 q-97 130 -99 360 q2 230 99 360 q97 130 269 132 q131 -2 220 -75 q88 -74 112 -200 l294 0 q-21 240 -193 388 q-171 149 -433 153 q-317 -3 -496 -203 q-178 -200 -181 -555 q2 -328 156 -525 q153 -196 428 -229 l-37 -88 l0 -116 l60 0 q69 0 100 -13 q31 -13 30 -43 q0 -29 -28 -44 q-28 -15 -84 -15 q-31 0 -65 4 q-34 5 -51 10 l0 -134 q28 -8 66 -13 q37 -5 81 -5 q129 1 198 55 q68 53 69 150 q0 81 -51 126 q-50 45 -145 51 l31 74 q233 26 379 166 q146 139 167 357 l-294 0 Z" /><glyph glyph-name="" unicode="&#x1e08;" d="M1239 1909 l-315 0 l-277 -318 l278 0 l314 318 ZM1121 490 q-24 -121 -112 -190 q-88 -70 -220 -71 q-173 2 -270 133 q-97 130 -99 360 q2 230 99 360 q97 130 269 132 q131 -2 220 -75 q88 -74 112 -200 l294 0 q-21 240 -193 388 q-171 149 -433 153 q-317 -3 -496 -203 q-178 -200 -181 -555 q2 -328 156 -525 q153 -196 428 -229 l-37 -88 l0 -116 l60 0 q69 0 100 -13 q31 -13 30 -43 q0 -29 -28 -44 q-28 -15 -84 -15 q-31 0 -65 4 q-34 5 -51 10 l0 -134 q28 -8 66 -13 q37 -5 81 -5 q129 1 198 55 q68 53 69 150 q0 81 -51 126 q-50 45 -145 51 l31 74 q233 26 379 166 q146 139 167 357 l-294 0 Z" /><glyph glyph-name="" unicode="d" d="M175 1444 l0 -1444 l568 0 q326 2 501 190 q174 188 176 542 q-2 341 -178 526 q-175 184 -499 186 l-568 0 ZM477 1186 l218 0 q198 -1 307 -120 q109 -119 110 -339 q-1 -229 -108 -349 q-108 -119 -309 -120 l-218 0 l0 928 Z" /><glyph glyph-name="" unicode="&#x1e0a;" d="M639 1579 q70 1 113 45 q43 44 44 113 q-1 69 -44 113 q-43 44 -113 45 q-71 -1 -114 -45 q-43 -44 -44 -113 q1 -69 44 -113 q43 -44 114 -45 l0 0 ZM175 1444 l0 -1444 l568 0 q326 2 501 190 q174 188 176 542 q-2 341 -178 526 q-175 184 -499 186 l-568 0 ZM477 1186 l218 0 q198 -1 307 -120 q109 -119 110 -339 q-1 -229 -108 -349 q-108 -119 -309 -120 l-218 0 l0 928 Z" /><glyph glyph-name="" unicode="&#x1e12;" d="M175 1444 l0 -1444 l568 0 q326 2 501 190 q174 188 176 542 q-2 341 -178 526 q-175 184 -499 186 l-568 0 ZM477 1186 l218 0 q198 -1 307 -120 q109 -119 110 -339 q-1 -229 -108 -349 q-108 -119 -309 -120 l-218 0 l0 928 ZM787 -152 l-296 0 l-286 -280 l284 0 l141 153 l18 0 l141 -153 l284 0 l-286 280 Z" /><glyph glyph-name="" unicode="&#x1e10;" d="M633 -509 l166 358 l-292 0 l-132 -358 l258 0 ZM175 1444 l0 -1444 l568 0 q326 2 501 190 q174 188 176 542 q-2 341 -178 526 q-175 184 -499 186 l-568 0 ZM477 1186 l218 0 q198 -1 307 -120 q109 -119 110 -339 q-1 -229 -108 -349 q-108 -119 -309 -120 l-218 0 l0 928 Z" /><glyph glyph-name="" unicode="&#x1e0e;" d="M1012 -220 l-746 0 l0 -181 l746 0 l0 181 ZM175 1444 l0 -1444 l568 0 q326 2 501 190 q174 188 176 542 q-2 341 -178 526 q-175 184 -499 186 l-568 0 ZM477 1186 l218 0 q198 -1 307 -120 q109 -119 110 -339 q-1 -229 -108 -349 q-108 -119 -309 -120 l-218 0 l0 928 Z" /><glyph glyph-name="" unicode="&#x10e;" d="M512 1590 l254 0 l281 318 l-253 0 l-145 -173 l-20 0 l-145 173 l-253 0 l281 -318 ZM175 1444 l0 -1444 l568 0 q326 2 501 190 q174 188 176 542 q-2 341 -178 526 q-175 184 -499 186 l-568 0 ZM477 1186 l218 0 q198 -1 307 -120 q109 -119 110 -339 q-1 -229 -108 -349 q-108 -119 -309 -120 l-218 0 l0 928 Z" /><glyph glyph-name="" unicode="&#x1e0c;" d="M639 -419 q72 1 114 40 q42 38 43 100 q-1 61 -43 100 q-42 38 -114 39 q-72 -1 -114 -39 q-42 -39 -43 -100 q1 -62 43 -100 q42 -39 114 -40 l0 0 ZM175 1444 l0 -1444 l568 0 q326 2 501 190 q174 188 176 542 q-2 341 -178 526 q-175 184 -499 186 l-568 0 ZM477 1186 l218 0 q198 -1 307 -120 q109 -119 110 -339 q-1 -229 -108 -349 q-108 -119 -309 -120 l-218 0 l0 928 Z" /><glyph glyph-name="" unicode="&#x110;" d="M480 258 l0 360 l225 0 l0 227 l-225 0 l0 341 l218 0 q198 -1 307 -120 q109 -119 110 -339 q-1 -229 -108 -349 q-108 -119 -309 -120 l-218 0 ZM178 1444 l0 -599 l-128 0 l0 -227 l128 0 l0 -618 l568 0 q326 2 501 190 q174 188 176 542 q-2 341 -178 526 q-175 184 -499 186 l-568 0 Z" /><glyph glyph-name="" unicode="e" d="M1131 258 l-654 0 l0 351 l617 0 l0 239 l-617 0 l0 337 l654 0 l0 258 l-956 0 l0 -1443 l956 0 l0 258 Z" /><glyph glyph-name="" unicode="è" d="M526 1590 l277 0 l-276 318 l-315 0 l314 -318 ZM1131 258 l-654 0 l0 351 l617 0 l0 239 l-617 0 l0 337 l654 0 l0 258 l-956 0 l0 -1443 l956 0 l0 258 Z" /><glyph glyph-name="" unicode="&#x204;" d="M757 1590 l244 0 l-251 318 l-271 0 l278 -318 ZM320 1590 l244 0 l-252 318 l-270 0 l278 -318 ZM1131 258 l-654 0 l0 351 l617 0 l0 239 l-617 0 l0 337 l654 0 l0 258 l-956 0 l0 -1443 l956 0 l0 258 Z" /><glyph glyph-name="" unicode="é" d="M790 1590 l314 318 l-315 0 l-277 -318 l278 0 ZM1131 258 l-654 0 l0 351 l617 0 l0 239 l-617 0 l0 337 l654 0 l0 258 l-956 0 l0 -1443 l956 0 l0 258 Z" /><glyph glyph-name="" unicode="ê" d="M517 1925 l-284 -335 l265 0 l146 187 l18 0 l146 -187 l265 0 l-284 335 l-272 0 ZM1131 258 l-654 0 l0 351 l617 0 l0 239 l-617 0 l0 337 l654 0 l0 258 l-956 0 l0 -1443 l956 0 l0 258 Z" /><glyph glyph-name="" unicode="&#x1ec2;" d="M1131 258 l-654 0 l0 351 l617 0 l0 239 l-617 0 l0 337 l654 0 l0 258 l-956 0 l0 -1443 l956 0 l0 258 ZM508 1848 l-278 -269 l272 0 l141 143 l20 0 l141 -143 l272 0 l-278 269 l-290 0 ZM798 2028 q17 7 41 11 q25 4 52 4 q43 0 68 -19 q25 -20 26 -53 q0 -31 -22 -58 q-22 -26 -67 -44 l105 -103 q81 33 125 92 q43 59 43 139 q-1 91 -64 144 q-62 52 -170 53 q-43 0 -79 -5 q-36 -6 -58 -14 l0 -147 Z" /><glyph glyph-name="" unicode="&#x1ec0;" d="M1131 258 l-654 0 l0 351 l617 0 l0 239 l-617 0 l0 337 l654 0 l0 258 l-956 0 l0 -1443 l956 0 l0 258 ZM508 1848 l-278 -269 l272 0 l141 143 l20 0 l141 -143 l272 0 l-278 269 l-290 0 ZM1180 1885 l-182 294 l-273 0 l212 -294 l243 0 Z" /><glyph glyph-name="" unicode="&#x1ec4;" d="M802 1898 q108 1 174 75 q66 74 68 206 l-173 0 q-4 -57 -28 -83 q-24 -26 -59 -26 q-66 8 -116 62 q-50 53 -164 61 q-108 -1 -174 -73 q-66 -73 -68 -206 l174 0 q3 53 25 80 q23 27 61 27 q66 -8 116 -61 q50 -54 164 -62 l0 0 ZM508 1843 l-278 -264 l272 0 l141 143 l20 0 l141 -143 l272 0 l-278 264 l-290 0 ZM1131 258 l-654 0 l0 351 l617 0 l0 239 l-617 0 l0 337 l654 0 l0 258 l-956 0 l0 -1443 l956 0 l0 258 Z" /><glyph glyph-name="" unicode="&#x1ec6;" d="M653 -419 q72 1 114 40 q42 38 43 100 q-1 61 -43 100 q-42 38 -114 39 q-72 -1 -114 -39 q-42 -39 -43 -100 q1 -62 43 -100 q42 -39 114 -40 l0 0 ZM517 1925 l-284 -335 l265 0 l146 187 l18 0 l146 -187 l265 0 l-284 335 l-272 0 ZM1131 258 l-654 0 l0 351 l617 0 l0 239 l-617 0 l0 337 l654 0 l0 258 l-956 0 l0 -1443 l956 0 l0 258 Z" /><glyph glyph-name="" unicode="&#x1ebe;" d="M1131 258 l-654 0 l0 351 l617 0 l0 239 l-617 0 l0 337 l654 0 l0 258 l-956 0 l0 -1443 l956 0 l0 258 ZM508 1848 l-278 -269 l272 0 l141 143 l20 0 l141 -143 l272 0 l-278 269 l-290 0 ZM890 1885 l243 0 l212 294 l-272 0 l-183 -294 Z" /><glyph glyph-name="" unicode="ë" d="M419 1579 q69 1 111 43 q43 42 44 109 q-1 67 -44 109 q-42 41 -111 42 q-69 -1 -111 -42 q-43 -42 -44 -109 q1 -67 44 -109 q42 -42 111 -43 l0 0 ZM887 1579 q69 1 112 43 q43 42 44 109 q-1 67 -44 109 q-43 41 -112 42 q-68 -1 -111 -42 q-43 -42 -44 -109 q1 -67 44 -109 q43 -42 111 -43 l0 0 ZM1131 258 l-654 0 l0 351 l617 0 l0 239 l-617 0 l0 337 l654 0 l0 258 l-956 0 l0 -1443 l956 0 l0 258 Z" /><glyph glyph-name="" unicode="&#x1eb8;" d="M653 -419 q72 1 114 40 q42 38 43 100 q-1 61 -43 100 q-42 38 -114 39 q-72 -1 -114 -39 q-42 -39 -43 -100 q1 -62 43 -100 q42 -39 114 -40 l0 0 ZM1131 258 l-654 0 l0 351 l617 0 l0 239 l-617 0 l0 337 l654 0 l0 258 l-956 0 l0 -1443 l956 0 l0 258 Z" /><glyph glyph-name="" unicode="&#x206;" d="M1131 258 l-654 0 l0 351 l617 0 l0 239 l-617 0 l0 337 l654 0 l0 258 l-956 0 l0 -1443 l956 0 l0 258 ZM253 1579 l208 0 q2 77 53 120 q51 44 139 45 q88 -1 139 -45 q51 -43 53 -120 l208 0 q-2 152 -107 243 q-106 91 -293 93 q-187 -2 -293 -93 q-105 -91 -107 -243 l0 0 Z" /><glyph glyph-name="" unicode="&#x1eba;" d="M1131 258 l-654 0 l0 351 l617 0 l0 239 l-617 0 l0 337 l654 0 l0 258 l-956 0 l0 -1443 l956 0 l0 258 ZM446 1826 q20 8 49 14 q29 5 62 5 q50 -1 79 -22 q29 -21 30 -56 q-1 -33 -30 -60 q-29 -28 -77 -46 l92 -114 q94 36 147 100 q52 64 53 148 q-2 96 -69 153 q-68 56 -181 57 q-48 0 -88 -8 q-40 -8 -67 -17 l0 -154 Z" /><glyph glyph-name="" unicode="&#x11a;" d="M526 1590 l254 0 l281 318 l-253 0 l-145 -173 l-20 0 l-145 173 l-253 0 l281 -318 ZM1131 258 l-654 0 l0 351 l617 0 l0 239 l-617 0 l0 337 l654 0 l0 258 l-956 0 l0 -1443 l956 0 l0 258 Z" /><glyph glyph-name="" unicode="&#x112;" d="M1131 258 l-654 0 l0 351 l617 0 l0 239 l-617 0 l0 337 l654 0 l0 258 l-956 0 l0 -1443 l956 0 l0 258 ZM1026 1813 l-746 0 l0 -181 l746 0 l0 181 Z" /><glyph glyph-name="" unicode="&#x1e14;" d="M280 1611 l746 0 l0 178 l-746 0 l0 -178 ZM775 1915 l-159 264 l-285 0 l189 -264 l255 0 ZM1131 258 l-654 0 l0 351 l617 0 l0 239 l-617 0 l0 337 l654 0 l0 258 l-956 0 l0 -1443 l956 0 l0 258 Z" /><glyph glyph-name="" unicode="&#x1e16;" d="M1026 1611 l0 178 l-746 0 l0 -178 l746 0 ZM531 1915 l255 0 l189 264 l-285 0 l-159 -264 ZM1131 258 l-654 0 l0 351 l617 0 l0 239 l-617 0 l0 337 l654 0 l0 258 l-956 0 l0 -1443 l956 0 l0 258 Z" /><glyph glyph-name="" unicode="&#x1ebc;" d="M1131 258 l-654 0 l0 351 l617 0 l0 239 l-617 0 l0 337 l654 0 l0 258 l-956 0 l0 -1443 l956 0 l0 258 ZM812 1577 q110 1 178 81 q67 79 69 224 l-183 0 q-4 -69 -28 -97 q-24 -28 -59 -27 q-58 9 -116 69 q-58 60 -179 69 q-110 -1 -177 -80 q-68 -80 -70 -229 l184 0 q3 69 25 99 q23 30 61 29 q66 -9 122 -69 q57 -60 173 -69 l0 0 Z" /><glyph glyph-name="" unicode="&#x1e18;" d="M1131 258 l-654 0 l0 351 l617 0 l0 239 l-617 0 l0 337 l654 0 l0 258 l-956 0 l0 -1443 l956 0 l0 258 ZM801 -152 l-296 0 l-286 -280 l284 0 l141 153 l18 0 l141 -153 l284 0 l-286 280 Z" /><glyph glyph-name="" unicode="&#x114;" d="M1131 258 l-654 0 l0 351 l617 0 l0 239 l-617 0 l0 337 l654 0 l0 258 l-956 0 l0 -1443 l956 0 l0 258 ZM253 1915 q2 -151 107 -242 q106 -92 293 -94 q187 2 293 94 q105 91 107 242 l-208 0 q-2 -76 -53 -119 q-51 -44 -139 -45 q-88 1 -139 45 q-51 43 -53 119 l-208 0 Z" /><glyph glyph-name="" unicode="&#x1e1a;" d="M812 -428 q110 1 178 74 q67 74 69 215 l-182 0 q-3 -65 -28 -90 q-24 -24 -58 -23 q-61 8 -119 66 q-58 58 -178 66 q-110 0 -177 -74 q-68 -74 -70 -218 l183 0 q2 65 26 92 q23 26 59 25 q68 -8 125 -66 q57 -59 172 -67 l0 0 ZM1131 258 l-654 0 l0 351 l617 0 l0 239 l-617 0 l0 337 l654 0 l0 258 l-956 0 l0 -1443 l956 0 l0 258 Z" /><glyph glyph-name="" unicode="&#x116;" d="M653 1579 q70 1 113 45 q43 44 44 113 q-1 69 -44 113 q-43 44 -113 45 q-71 -1 -114 -45 q-43 -44 -44 -113 q1 -69 44 -113 q43 -44 114 -45 l0 0 ZM1131 258 l-654 0 l0 351 l617 0 l0 239 l-617 0 l0 337 l654 0 l0 258 l-956 0 l0 -1443 l956 0 l0 258 Z" /><glyph glyph-name="" unicode="&#x228;" d="M1131 1185 l0 258 l-956 0 l0 -1443 l398 0 l-50 -120 l0 -116 l60 0 q69 0 100 -13 q31 -13 30 -43 q0 -29 -28 -44 q-28 -15 -84 -15 q-31 0 -65 4 q-34 5 -51 10 l0 -134 q28 -8 66 -13 q37 -5 81 -5 q129 1 198 55 q68 53 69 150 q0 81 -51 126 q-50 45 -145 51 l45 107 l383 0 l0 258 l-654 0 l0 351 l617 0 l0 239 l-617 0 l0 337 l654 0 Z" /><glyph glyph-name="" unicode="&#x1e1c;" d="M845 1915 q-2 -76 -53 -119 q-51 -44 -139 -45 q-88 1 -139 45 q-51 43 -53 119 l-208 0 q2 -151 107 -242 q106 -92 293 -94 q187 2 293 94 q105 91 107 242 l-208 0 ZM1131 1185 l0 258 l-956 0 l0 -1443 l398 0 l-50 -120 l0 -116 l60 0 q69 0 100 -13 q31 -13 30 -43 q0 -29 -28 -44 q-28 -15 -84 -15 q-31 0 -65 4 q-34 5 -51 10 l0 -134 q28 -8 66 -13 q37 -5 81 -5 q129 1 198 55 q68 53 69 150 q0 81 -51 126 q-50 45 -145 51 l45 107 l383 0 l0 258 l-654 0 l0 351 l617 0 l0 239 l-617 0 l0 337 l654 0 Z" /><glyph glyph-name="" unicode="&#x118;" d="M942 -466 q56 0 89 7 q32 7 49 14 l0 167 q-8 -3 -26 -5 q-19 -3 -43 -3 q-54 0 -86 26 q-31 25 -32 70 q4 68 62 116 q59 49 130 68 l46 11 l0 253 l-654 0 l0 351 l617 0 l0 239 l-617 0 l0 337 l654 0 l0 258 l-956 0 l0 -1443 l634 0 l0 -18 q-63 -36 -102 -95 q-38 -60 -39 -129 q2 -99 75 -160 q74 -62 199 -64 l0 0 Z" /><glyph glyph-name="" unicode="f" d="M477 0 l0 562 l587 0 l0 247 l-587 0 l0 376 l643 0 l0 258 l-945 0 l0 -1443 l302 0 Z" /><glyph glyph-name="" unicode="&#x1e1e;" d="M648 1579 q70 1 113 45 q43 44 44 113 q-1 69 -44 113 q-43 44 -113 45 q-71 -1 -114 -45 q-43 -44 -44 -113 q1 -69 44 -113 q43 -44 114 -45 l0 0 ZM477 0 l0 562 l587 0 l0 247 l-587 0 l0 376 l643 0 l0 258 l-945 0 l0 -1443 l302 0 Z" /><glyph glyph-name="" unicode="g" d="M1443 589 l0 184 l-606 0 l0 -227 l313 0 l-1 -26 q-7 -132 -98 -211 q-92 -78 -243 -80 q-180 2 -283 133 q-103 130 -105 364 q2 229 101 358 q99 128 275 130 q127 -1 213 -61 q86 -60 121 -170 l300 0 q-35 228 -205 361 q-170 133 -429 136 q-318 -4 -500 -204 q-182 -201 -185 -553 q3 -357 185 -557 q182 -200 507 -203 q299 3 468 168 q169 166 172 458 l0 0 Z" /><glyph glyph-name="" unicode="&#x1f4;" d="M933 1591 l314 318 l-315 0 l-277 -318 l278 0 ZM1443 589 l0 184 l-606 0 l0 -227 l313 0 l-1 -26 q-7 -132 -98 -211 q-92 -78 -243 -80 q-180 2 -283 133 q-103 130 -105 364 q2 229 101 358 q99 128 275 130 q127 -1 213 -61 q86 -60 121 -170 l300 0 q-35 228 -205 361 q-170 133 -429 136 q-318 -4 -500 -204 q-182 -201 -185 -553 q3 -357 185 -557 q182 -200 507 -203 q299 3 468 168 q169 166 172 458 l0 0 Z" /><glyph glyph-name="" unicode="&#x1e6;" d="M669 1591 l254 0 l281 318 l-253 0 l-145 -173 l-20 0 l-145 173 l-253 0 l281 -318 ZM1443 589 l0 184 l-606 0 l0 -227 l313 0 l-1 -26 q-7 -132 -98 -211 q-92 -78 -243 -80 q-180 2 -283 133 q-103 130 -105 364 q2 229 101 358 q99 128 275 130 q127 -1 213 -61 q86 -60 121 -170 l300 0 q-35 228 -205 361 q-170 133 -429 136 q-318 -4 -500 -204 q-182 -201 -185 -553 q3 -357 185 -557 q182 -200 507 -203 q299 3 468 168 q169 166 172 458 l0 0 Z" /><glyph glyph-name="" unicode="&#x11c;" d="M660 1926 l-284 -335 l265 0 l146 187 l18 0 l146 -187 l265 0 l-284 335 l-272 0 ZM1443 589 l0 184 l-606 0 l0 -227 l313 0 l-1 -26 q-7 -132 -98 -211 q-92 -78 -243 -80 q-180 2 -283 133 q-103 130 -105 364 q2 229 101 358 q99 128 275 130 q127 -1 213 -61 q86 -60 121 -170 l300 0 q-35 228 -205 361 q-170 133 -429 136 q-318 -4 -500 -204 q-182 -201 -185 -553 q3 -357 185 -557 q182 -200 507 -203 q299 3 468 168 q169 166 172 458 l0 0 Z" /><glyph glyph-name="" unicode="&#x11e;" d="M1443 589 l0 184 l-606 0 l0 -227 l313 0 l-1 -26 q-7 -132 -98 -211 q-92 -78 -243 -80 q-180 2 -283 133 q-103 130 -105 364 q2 229 101 358 q99 128 275 130 q127 -1 213 -61 q86 -60 121 -170 l300 0 q-35 228 -205 361 q-170 133 -429 136 q-318 -4 -500 -204 q-182 -201 -185 -553 q3 -357 185 -557 q182 -200 507 -203 q299 3 468 168 q169 166 172 458 l0 0 ZM396 1916 q2 -151 107 -242 q106 -92 293 -94 q187 2 293 94 q105 91 107 242 l-208 0 q-2 -76 -53 -119 q-51 -44 -139 -45 q-88 1 -139 45 q-51 43 -53 119 l-208 0 Z" /><glyph glyph-name="" unicode="&#x1e20;" d="M1443 589 l0 184 l-606 0 l0 -227 l313 0 l-1 -26 q-7 -132 -98 -211 q-92 -78 -243 -80 q-180 2 -283 133 q-103 130 -105 364 q2 229 101 358 q99 128 275 130 q127 -1 213 -61 q86 -60 121 -170 l300 0 q-35 228 -205 361 q-170 133 -429 136 q-318 -4 -500 -204 q-182 -201 -185 -553 q3 -357 185 -557 q182 -200 507 -203 q299 3 468 168 q169 166 172 458 l0 0 ZM1169 1814 l-746 0 l0 -181 l746 0 l0 181 Z" /><glyph glyph-name="" unicode="&#x120;" d="M796 1580 q70 1 113 45 q43 44 44 113 q-1 69 -44 113 q-43 44 -113 45 q-71 -1 -114 -45 q-43 -44 -44 -113 q1 -69 44 -113 q43 -44 114 -45 l0 0 ZM1443 589 l0 184 l-606 0 l0 -227 l313 0 l-1 -26 q-7 -132 -98 -211 q-92 -78 -243 -80 q-180 2 -283 133 q-103 130 -105 364 q2 229 101 358 q99 128 275 130 q127 -1 213 -61 q86 -60 121 -170 l300 0 q-35 228 -205 361 q-170 133 -429 136 q-318 -4 -500 -204 q-182 -201 -185 -553 q3 -357 185 -557 q182 -200 507 -203 q299 3 468 168 q169 166 172 458 l0 0 Z" /><glyph glyph-name="" unicode="&#x122;" d="M807 -509 l166 358 l-292 0 l-132 -358 l258 0 ZM1443 589 l0 184 l-606 0 l0 -227 l313 0 l-1 -26 q-7 -132 -98 -211 q-92 -78 -243 -80 q-180 2 -283 133 q-103 130 -105 364 q2 229 101 358 q99 128 275 130 q127 -1 213 -61 q86 -60 121 -170 l300 0 q-35 228 -205 361 q-170 133 -429 136 q-318 -4 -500 -204 q-182 -201 -185 -553 q3 -357 185 -557 q182 -200 507 -203 q299 3 468 168 q169 166 172 458 l0 0 Z" /><glyph glyph-name="" unicode="h" d="M1429 0 l0 1443 l-302 0 l0 -582 l-650 0 l0 582 l-302 0 l0 -1443 l302 0 l0 603 l650 0 l0 -603 l302 0 Z" /><glyph glyph-name="" unicode="&#x1e26;" d="M1429 0 l0 1443 l-302 0 l0 -582 l-650 0 l0 582 l-302 0 l0 -1443 l302 0 l0 603 l650 0 l0 -603 l302 0 ZM568 1579 q69 1 111 43 q43 42 44 109 q-1 67 -44 109 q-42 41 -111 42 q-69 -1 -111 -42 q-43 -42 -44 -109 q1 -67 44 -109 q42 -42 111 -43 l0 0 ZM1036 1579 q69 1 112 43 q43 42 44 109 q-1 67 -44 109 q-43 41 -112 42 q-68 -1 -111 -42 q-43 -42 -44 -109 q1 -67 44 -109 q43 -42 111 -43 l0 0 Z" /><glyph glyph-name="" unicode="&#x21e;" d="M1429 0 l0 1443 l-302 0 l0 -582 l-650 0 l0 582 l-302 0 l0 -1443 l302 0 l0 603 l650 0 l0 -603 l302 0 ZM675 1590 l254 0 l281 318 l-253 0 l-145 -173 l-20 0 l-145 173 l-253 0 l281 -318 Z" /><glyph glyph-name="" unicode="&#x124;" d="M1429 0 l0 1443 l-302 0 l0 -582 l-650 0 l0 582 l-302 0 l0 -1443 l302 0 l0 603 l650 0 l0 -603 l302 0 ZM666 1925 l-284 -335 l265 0 l146 187 l18 0 l146 -187 l265 0 l-284 335 l-272 0 Z" /><glyph glyph-name="" unicode="&#x1e24;" d="M1429 0 l0 1443 l-302 0 l0 -582 l-650 0 l0 582 l-302 0 l0 -1443 l302 0 l0 603 l650 0 l0 -603 l302 0 ZM802 -419 q72 1 114 40 q42 38 43 100 q-1 61 -43 100 q-42 38 -114 39 q-72 -1 -114 -39 q-42 -39 -43 -100 q1 -62 43 -100 q42 -39 114 -40 l0 0 Z" /><glyph glyph-name="" unicode="&#x1e22;" d="M1429 0 l0 1443 l-302 0 l0 -582 l-650 0 l0 582 l-302 0 l0 -1443 l302 0 l0 603 l650 0 l0 -603 l302 0 ZM802 1579 q70 1 113 45 q43 44 44 113 q-1 69 -44 113 q-43 44 -113 45 q-71 -1 -114 -45 q-43 -44 -44 -113 q1 -69 44 -113 q43 -44 114 -45 l0 0 Z" /><glyph glyph-name="" unicode="&#x1e2a;" d="M402 -105 q1 -138 105 -227 q104 -89 295 -92 q191 3 295 92 q104 89 105 227 l-210 0 q-1 -69 -50 -112 q-50 -42 -140 -43 q-90 1 -140 43 q-49 43 -50 112 l-210 0 ZM1429 0 l0 1443 l-302 0 l0 -582 l-650 0 l0 582 l-302 0 l0 -1443 l302 0 l0 603 l650 0 l0 -603 l302 0 Z" /><glyph glyph-name="" unicode="&#x1e28;" d="M358 -494 q128 1 197 54 q69 54 70 150 q0 81 -51 127 q-51 45 -146 50 l49 119 l0 597 l650 0 l0 -603 l302 0 l0 1443 l-302 0 l0 -582 l-650 0 l0 582 l-302 0 l0 -1443 l126 0 l-53 -126 l0 -115 l60 0 q69 0 100 -13 q31 -14 30 -43 q0 -59 -111 -59 q-32 0 -65 4 q-34 4 -51 10 l0 -135 q27 -8 65 -12 q37 -5 82 -5 l0 0 Z" /><glyph glyph-name="" unicode="&#x126;" d="M1127 861 l-650 0 l0 194 l650 0 l0 -194 ZM1557 1261 l-128 0 l0 182 l-302 0 l0 -182 l-650 0 l0 182 l-302 0 l0 -182 l-128 0 l0 -206 l128 0 l0 -1055 l302 0 l0 603 l650 0 l0 -603 l302 0 l0 1055 l128 0 l0 206 Z" /><glyph glyph-name="" unicode="i" d="M477 0 l0 1443 l-302 0 l0 -1443 l302 0 Z" /><glyph glyph-name="" unicode="&#x130;" d="M477 0 l0 1443 l-302 0 l0 -1443 l302 0 ZM326 1579 q70 1 113 45 q43 44 44 113 q-1 69 -44 113 q-43 44 -113 45 q-71 -1 -114 -45 q-43 -44 -44 -113 q1 -69 44 -113 q43 -44 114 -45 l0 0 Z" /><glyph glyph-name="" unicode="ì" d="M477 0 l0 1443 l-302 0 l0 -1443 l302 0 ZM199 1590 l277 0 l-276 318 l-315 0 l314 -318 Z" /><glyph glyph-name="" unicode="&#x208;" d="M477 0 l0 1443 l-302 0 l0 -1443 l302 0 ZM430 1590 l244 0 l-251 318 l-271 0 l278 -318 ZM-7 1590 l244 0 l-252 318 l-270 0 l278 -318 Z" /><glyph glyph-name="" unicode="í" d="M477 0 l0 1443 l-302 0 l0 -1443 l302 0 ZM463 1590 l314 318 l-315 0 l-277 -318 l278 0 Z" /><glyph glyph-name="" unicode="î" d="M477 0 l0 1443 l-302 0 l0 -1443 l302 0 ZM190 1925 l-284 -335 l265 0 l146 187 l18 0 l146 -187 l265 0 l-284 335 l-272 0 Z" /><glyph glyph-name="" unicode="&#x1cf;" d="M477 0 l0 1443 l-302 0 l0 -1443 l302 0 ZM199 1590 l254 0 l281 318 l-253 0 l-145 -173 l-20 0 l-145 173 l-253 0 l281 -318 Z" /><glyph glyph-name="" unicode="ï" d="M477 0 l0 1443 l-302 0 l0 -1443 l302 0 ZM92 1579 q69 1 111 43 q43 42 44 109 q-1 67 -44 109 q-42 41 -111 42 q-69 -1 -111 -42 q-43 -42 -44 -109 q1 -67 44 -109 q42 -42 111 -43 l0 0 ZM560 1579 q69 1 112 43 q43 42 44 109 q-1 67 -44 109 q-43 41 -112 42 q-68 -1 -111 -42 q-43 -42 -44 -109 q1 -67 44 -109 q43 -42 111 -43 l0 0 Z" /><glyph glyph-name="" unicode="&#x1e2e;" d="M477 0 l0 1443 l-302 0 l0 -1443 l302 0 ZM206 1937 l240 0 l218 242 l-292 0 l-166 -242 ZM92 1579 q68 1 111 43 q43 42 44 109 q-1 67 -44 109 q-43 42 -111 43 q-69 -1 -112 -43 q-43 -42 -44 -109 q1 -67 44 -109 q43 -42 112 -43 l0 0 ZM560 1579 q69 1 112 43 q43 42 44 109 q-1 67 -44 109 q-43 42 -112 43 q-68 -1 -111 -43 q-43 -42 -44 -109 q1 -67 44 -109 q43 -42 111 -43 l0 0 Z" /><glyph glyph-name="" unicode="&#x12c;" d="M477 0 l0 1443 l-302 0 l0 -1443 l302 0 ZM-74 1915 q2 -151 107 -242 q106 -92 293 -94 q187 2 293 94 q105 91 107 242 l-208 0 q-2 -76 -53 -119 q-51 -44 -139 -45 q-88 1 -139 45 q-51 43 -53 119 l-208 0 Z" /><glyph glyph-name="" unicode="&#x1eca;" d="M477 0 l0 1443 l-302 0 l0 -1443 l302 0 ZM326 -419 q72 1 114 40 q42 38 43 100 q-1 61 -43 100 q-42 38 -114 39 q-72 -1 -114 -39 q-42 -39 -43 -100 q1 -62 43 -100 q42 -39 114 -40 l0 0 Z" /><glyph glyph-name="" unicode="&#x20a;" d="M477 0 l0 1443 l-302 0 l0 -1443 l302 0 ZM-74 1579 l208 0 q2 77 53 120 q51 44 139 45 q88 -1 139 -45 q51 -43 53 -120 l208 0 q-2 152 -107 243 q-106 91 -293 93 q-187 -2 -293 -93 q-105 -91 -107 -243 l0 0 Z" /><glyph glyph-name="" unicode="&#x12a;" d="M477 0 l0 1443 l-302 0 l0 -1443 l302 0 ZM699 1813 l-746 0 l0 -181 l746 0 l0 181 Z" /><glyph glyph-name="" unicode="&#x1e2c;" d="M477 0 l0 1443 l-302 0 l0 -1443 l302 0 ZM485 -428 q110 1 178 74 q67 74 69 215 l-182 0 q-3 -65 -28 -90 q-24 -24 -58 -23 q-61 8 -119 66 q-58 58 -178 66 q-110 0 -177 -74 q-68 -74 -70 -218 l183 0 q2 65 26 92 q23 26 59 25 q68 -8 125 -66 q57 -59 172 -67 l0 0 Z" /><glyph glyph-name="" unicode="&#x1ec8;" d="M477 0 l0 1443 l-302 0 l0 -1443 l302 0 ZM119 1826 q20 8 49 14 q29 5 62 5 q50 -1 79 -22 q29 -21 30 -56 q-1 -33 -30 -60 q-29 -28 -77 -46 l92 -114 q94 36 147 100 q52 64 53 148 q-2 96 -69 153 q-68 56 -181 57 q-48 0 -88 -8 q-40 -8 -67 -17 l0 -154 Z" /><glyph glyph-name="" unicode="&#x128;" d="M477 0 l0 1443 l-302 0 l0 -1443 l302 0 ZM485 1577 q110 1 178 81 q67 79 69 224 l-183 0 q-4 -69 -28 -97 q-24 -28 -59 -27 q-58 9 -116 69 q-58 60 -179 69 q-110 -1 -177 -80 q-68 -80 -70 -229 l184 0 q3 69 25 99 q23 30 61 29 q66 -9 122 -69 q57 -60 173 -69 l0 0 Z" /><glyph glyph-name="" unicode="&#x12e;" d="M175 -33 q-53 -35 -84 -89 q-31 -54 -32 -120 q2 -100 76 -161 q75 -61 198 -63 q53 0 87 6 q33 6 56 15 l0 167 q-13 -4 -31 -6 q-19 -2 -38 -2 q-59 1 -91 28 q-32 27 -32 73 q2 60 51 106 q49 46 120 73 l22 6 l0 1443 l-302 0 l0 -1476 Z" /><glyph glyph-name="" unicode="j" d="M76 424 q3 -215 134 -337 q131 -122 356 -124 q231 1 360 126 q128 125 130 359 l0 995 l-302 0 l0 -993 q0 -107 -49 -162 q-50 -55 -143 -55 q-88 1 -140 52 q-51 51 -54 139 l-292 0 Z" /><glyph glyph-name="" unicode="&#x134;" d="M76 424 q3 -215 134 -337 q131 -122 356 -124 q231 1 360 126 q128 125 130 359 l0 995 l-302 0 l0 -993 q0 -107 -49 -162 q-50 -55 -143 -55 q-88 1 -140 52 q-51 51 -54 139 l-292 0 ZM769 1925 l-284 -335 l265 0 l146 187 l18 0 l146 -187 l265 0 l-284 335 l-272 0 Z" /><glyph glyph-name="" unicode="k" d="M477 0 l0 435 l143 169 l419 -604 l362 0 l-563 810 l526 633 l-336 0 l-533 -643 l-18 0 l0 643 l-302 0 l0 -1443 l302 0 Z" /><glyph glyph-name="" unicode="&#x1e30;" d="M839 1590 l314 318 l-315 0 l-277 -318 l278 0 ZM477 0 l0 435 l143 169 l419 -604 l362 0 l-563 810 l526 633 l-336 0 l-533 -643 l-18 0 l0 643 l-302 0 l0 -1443 l302 0 Z" /><glyph glyph-name="" unicode="&#x1e8;" d="M477 0 l0 435 l143 169 l419 -604 l362 0 l-563 810 l526 633 l-336 0 l-533 -643 l-18 0 l0 643 l-302 0 l0 -1443 l302 0 ZM575 1590 l254 0 l281 318 l-253 0 l-145 -173 l-20 0 l-145 173 l-253 0 l281 -318 Z" /><glyph glyph-name="" unicode="&#x1e32;" d="M702 -419 q72 1 114 40 q42 38 43 100 q-1 61 -43 100 q-42 38 -114 39 q-72 -1 -114 -39 q-42 -39 -43 -100 q1 -62 43 -100 q42 -39 114 -40 l0 0 ZM477 0 l0 435 l143 169 l419 -604 l362 0 l-563 810 l526 633 l-336 0 l-533 -643 l-18 0 l0 643 l-302 0 l0 -1443 l302 0 Z" /><glyph glyph-name="" unicode="&#x1e34;" d="M477 0 l0 435 l143 169 l419 -604 l362 0 l-563 810 l526 633 l-336 0 l-533 -643 l-18 0 l0 643 l-302 0 l0 -1443 l302 0 ZM1075 -220 l-746 0 l0 -181 l746 0 l0 181 Z" /><glyph glyph-name="" unicode="&#x136;" d="M477 0 l0 435 l143 169 l419 -604 l362 0 l-563 810 l526 633 l-336 0 l-533 -643 l-18 0 l0 643 l-302 0 l0 -1443 l302 0 ZM696 -509 l166 358 l-292 0 l-132 -358 l258 0 Z" /><glyph glyph-name="" unicode="l" d="M1119 263 l-642 0 l0 1180 l-302 0 l0 -1443 l944 0 l0 263 Z" /><glyph glyph-name="" unicode="&#x139;" d="M463 1590 l314 318 l-315 0 l-277 -318 l278 0 ZM1119 263 l-642 0 l0 1180 l-302 0 l0 -1443 l944 0 l0 263 Z" /><glyph glyph-name="" unicode="&#x1e3c;" d="M1119 263 l-642 0 l0 1180 l-302 0 l0 -1443 l944 0 l0 263 ZM790 -152 l-296 0 l-286 -280 l284 0 l141 153 l18 0 l141 -153 l284 0 l-286 280 Z" /><glyph glyph-name="" unicode="&#x1e36;" d="M642 -419 q72 1 114 40 q42 38 43 100 q-1 61 -43 100 q-42 38 -114 39 q-72 -1 -114 -39 q-42 -39 -43 -100 q1 -62 43 -100 q42 -39 114 -40 l0 0 ZM1119 263 l-642 0 l0 1180 l-302 0 l0 -1443 l944 0 l0 263 Z" /><glyph glyph-name="" unicode="&#x1e38;" d="M642 -419 q72 1 114 40 q42 38 43 100 q-1 61 -43 100 q-42 38 -114 39 q-72 -1 -114 -39 q-42 -39 -43 -100 q1 -62 43 -100 q42 -39 114 -40 l0 0 ZM1119 263 l-642 0 l0 1180 l-302 0 l0 -1443 l944 0 l0 263 ZM699 1813 l-746 0 l0 -181 l746 0 l0 181 Z" /><glyph glyph-name="" unicode="&#x1e3a;" d="M1015 -220 l-746 0 l0 -181 l746 0 l0 181 ZM1119 263 l-642 0 l0 1180 l-302 0 l0 -1443 l944 0 l0 263 Z" /><glyph glyph-name="" unicode="&#x13b;" d="M636 -509 l166 358 l-292 0 l-132 -358 l258 0 ZM1119 263 l-642 0 l0 1180 l-302 0 l0 -1443 l944 0 l0 263 Z" /><glyph glyph-name="" unicode="&#x13d;" d="M675 1443 l0 -504 l196 0 l50 504 l-246 0 ZM1119 263 l-642 0 l0 1180 l-302 0 l0 -1443 l944 0 l0 263 Z" /><glyph glyph-name="" unicode="&#x141;" d="M477 263 l0 552 l238 122 l0 205 l-238 -122 l0 423 l-302 0 l0 -577 l-152 -78 l0 -205 l152 78 l0 -661 l944 0 l0 263 l-642 0 Z" /><glyph glyph-name="" unicode="m" d="M1703 0 l0 1443 l-355 0 l-400 -970 l-18 0 l-399 970 l-356 0 l0 -1443 l280 0 l0 965 l16 0 l368 -882 l201 0 l367 882 l16 0 l0 -965 l280 0 Z" /><glyph glyph-name="" unicode="&#x1e3e;" d="M1077 1590 l314 318 l-315 0 l-277 -318 l278 0 ZM1703 0 l0 1443 l-355 0 l-400 -970 l-18 0 l-399 970 l-356 0 l0 -1443 l280 0 l0 965 l16 0 l368 -882 l201 0 l367 882 l16 0 l0 -965 l280 0 Z" /><glyph glyph-name="" unicode="&#x1e40;" d="M940 1579 q70 1 113 45 q43 44 44 113 q-1 69 -44 113 q-43 44 -113 45 q-71 -1 -114 -45 q-43 -44 -44 -113 q1 -69 44 -113 q43 -44 114 -45 l0 0 ZM1703 0 l0 1443 l-355 0 l-400 -970 l-18 0 l-399 970 l-356 0 l0 -1443 l280 0 l0 965 l16 0 l368 -882 l201 0 l367 882 l16 0 l0 -965 l280 0 Z" /><glyph glyph-name="" unicode="&#x1e42;" d="M940 -419 q72 1 114 40 q42 38 43 100 q-1 61 -43 100 q-42 38 -114 39 q-72 -1 -114 -39 q-42 -39 -43 -100 q1 -62 43 -100 q42 -39 114 -40 l0 0 ZM1703 0 l0 1443 l-355 0 l-400 -970 l-18 0 l-399 970 l-356 0 l0 -1443 l280 0 l0 965 l16 0 l368 -882 l201 0 l367 882 l16 0 l0 -965 l280 0 Z" /><glyph glyph-name="" unicode="n" d="M464 0 l0 903 l18 0 l666 -903 l250 0 l0 1443 l-289 0 l0 -899 l-18 0 l-664 899 l-252 0 l0 -1443 l289 0 Z" /><glyph glyph-name="" unicode="&#x1f8;" d="M656 1590 l277 0 l-276 318 l-315 0 l314 -318 ZM464 0 l0 903 l18 0 l666 -903 l250 0 l0 1443 l-289 0 l0 -899 l-18 0 l-664 899 l-252 0 l0 -1443 l289 0 Z" /><glyph glyph-name="" unicode="&#x143;" d="M920 1590 l314 318 l-315 0 l-277 -318 l278 0 ZM464 0 l0 903 l18 0 l666 -903 l250 0 l0 1443 l-289 0 l0 -899 l-18 0 l-664 899 l-252 0 l0 -1443 l289 0 Z" /><glyph glyph-name="" unicode="ñ" d="M942 1577 q110 1 178 81 q67 79 69 224 l-183 0 q-4 -69 -28 -97 q-24 -28 -59 -27 q-58 9 -116 69 q-58 60 -179 69 q-110 -1 -177 -80 q-68 -80 -70 -229 l184 0 q3 69 25 99 q23 30 61 29 q66 -9 122 -69 q57 -60 173 -69 l0 0 ZM464 0 l0 903 l18 0 l666 -903 l250 0 l0 1443 l-289 0 l0 -899 l-18 0 l-664 899 l-252 0 l0 -1443 l289 0 Z" /><glyph glyph-name="" unicode="&#x1e46;" d="M783 -419 q72 1 114 40 q42 38 43 100 q-1 61 -43 100 q-42 38 -114 39 q-72 -1 -114 -39 q-42 -39 -43 -100 q1 -62 43 -100 q42 -39 114 -40 l0 0 ZM464 0 l0 903 l18 0 l666 -903 l250 0 l0 1443 l-289 0 l0 -899 l-18 0 l-664 899 l-252 0 l0 -1443 l289 0 Z" /><glyph glyph-name="" unicode="&#x1e44;" d="M783 1579 q70 1 113 45 q43 44 44 113 q-1 69 -44 113 q-43 44 -113 45 q-71 -1 -114 -45 q-43 -44 -44 -113 q1 -69 44 -113 q43 -44 114 -45 l0 0 ZM464 0 l0 903 l18 0 l666 -903 l250 0 l0 1443 l-289 0 l0 -899 l-18 0 l-664 899 l-252 0 l0 -1443 l289 0 Z" /><glyph glyph-name="" unicode="&#x147;" d="M656 1590 l254 0 l281 318 l-253 0 l-145 -173 l-20 0 l-145 173 l-253 0 l281 -318 ZM464 0 l0 903 l18 0 l666 -903 l250 0 l0 1443 l-289 0 l0 -899 l-18 0 l-664 899 l-252 0 l0 -1443 l289 0 Z" /><glyph glyph-name="" unicode="&#x1e4a;" d="M464 0 l0 903 l18 0 l666 -903 l250 0 l0 1443 l-289 0 l0 -899 l-18 0 l-664 899 l-252 0 l0 -1443 l289 0 ZM931 -152 l-296 0 l-286 -280 l284 0 l141 153 l18 0 l141 -153 l284 0 l-286 280 Z" /><glyph glyph-name="" unicode="&#x1e48;" d="M1156 -220 l-746 0 l0 -181 l746 0 l0 181 ZM464 0 l0 903 l18 0 l666 -903 l250 0 l0 1443 l-289 0 l0 -899 l-18 0 l-664 899 l-252 0 l0 -1443 l289 0 Z" /><glyph glyph-name="" unicode="&#x145;" d="M777 -509 l166 358 l-292 0 l-132 -358 l258 0 ZM464 0 l0 903 l18 0 l666 -903 l250 0 l0 1443 l-289 0 l0 -899 l-18 0 l-664 899 l-252 0 l0 -1443 l289 0 Z" /><glyph glyph-name="" unicode="o" d="M806 1480 q-322 -3 -506 -203 q-185 -200 -189 -555 q3 -355 187 -555 q184 -200 508 -204 q324 4 507 204 q183 200 186 555 q-3 354 -187 554 q-183 200 -506 204 l0 0 ZM806 1215 q178 -2 281 -133 q102 -131 104 -360 q-2 -228 -104 -360 q-103 -131 -281 -134 q-180 3 -282 134 q-102 132 -104 360 q2 229 105 360 q103 131 281 133 l0 0 Z" /><glyph glyph-name="" unicode="ö" d="M572 1579 q69 1 111 43 q43 42 44 109 q-1 67 -44 109 q-42 41 -111 42 q-69 -1 -111 -42 q-43 -42 -44 -109 q1 -67 44 -109 q42 -42 111 -43 l0 0 ZM1040 1579 q69 1 112 43 q43 42 44 109 q-1 67 -44 109 q-43 41 -112 42 q-68 -1 -111 -42 q-43 -42 -44 -109 q1 -67 44 -109 q43 -42 111 -43 l0 0 ZM806 1480 q-322 -3 -506 -203 q-185 -200 -189 -555 q3 -355 187 -555 q184 -200 508 -204 q324 4 507 204 q183 200 186 555 q-3 354 -187 554 q-183 200 -506 204 l0 0 ZM806 1215 q178 -2 281 -133 q102 -131 104 -360 q-2 -228 -104 -360 q-103 -131 -281 -134 q-180 3 -282 134 q-102 132 -104 360 q2 229 105 360 q103 131 281 133 l0 0 Z" /><glyph glyph-name="" unicode="ø" d="M1097 1067 q46 -63 70 -150 q24 -87 24 -195 q-2 -228 -104 -360 q-103 -131 -281 -134 q-64 0 -119 18 q-55 18 -100 53 l510 768 ZM503 392 q-41 63 -62 146 q-21 83 -21 184 q2 229 105 360 q103 131 281 133 q59 0 109 -15 q51 -16 94 -45 l-506 -763 ZM1350 1448 l-108 59 l-76 -115 q-76 44 -166 66 q-90 22 -194 22 q-322 -3 -506 -203 q-185 -200 -189 -555 q1 -192 57 -341 q57 -148 164 -248 l-90 -135 l102 -66 l85 128 q78 -47 173 -72 q94 -25 204 -25 q324 4 507 204 q183 200 186 555 q-1 197 -61 349 q-60 152 -172 250 l84 127 Z" /><glyph glyph-name="" unicode="õ" d="M806 1480 q-322 -3 -506 -203 q-185 -200 -189 -555 q3 -355 187 -555 q184 -200 508 -204 q324 4 507 204 q183 200 186 555 q-3 354 -187 554 q-183 200 -506 204 l0 0 ZM806 1215 q178 -2 281 -133 q102 -131 104 -360 q-2 -228 -104 -360 q-103 -131 -281 -134 q-180 3 -282 134 q-102 132 -104 360 q2 229 105 360 q103 131 281 133 l0 0 ZM965 1577 q110 1 178 81 q67 79 69 224 l-183 0 q-4 -69 -28 -97 q-24 -28 -59 -27 q-58 9 -116 69 q-58 60 -179 69 q-110 -1 -177 -80 q-68 -80 -70 -229 l184 0 q3 69 25 99 q23 30 61 29 q66 -9 122 -69 q57 -60 173 -69 l0 0 Z" /><glyph glyph-name="" unicode="ó" d="M943 1590 l314 318 l-315 0 l-277 -318 l278 0 ZM806 1480 q-322 -3 -506 -203 q-185 -200 -189 -555 q3 -355 187 -555 q184 -200 508 -204 q324 4 507 204 q183 200 186 555 q-3 354 -187 554 q-183 200 -506 204 l0 0 ZM806 1215 q178 -2 281 -133 q102 -131 104 -360 q-2 -228 -104 -360 q-103 -131 -281 -134 q-180 3 -282 134 q-102 132 -104 360 q2 229 105 360 q103 131 281 133 l0 0 Z" /><glyph glyph-name="" unicode="ô" d="M670 1925 l-284 -335 l265 0 l146 187 l18 0 l146 -187 l265 0 l-284 335 l-272 0 ZM806 1480 q-322 -3 -506 -203 q-185 -200 -189 -555 q3 -355 187 -555 q184 -200 508 -204 q324 4 507 204 q183 200 186 555 q-3 354 -187 554 q-183 200 -506 204 l0 0 ZM806 1215 q178 -2 281 -133 q102 -131 104 -360 q-2 -228 -104 -360 q-103 -131 -281 -134 q-180 3 -282 134 q-102 132 -104 360 q2 229 105 360 q103 131 281 133 l0 0 Z" /><glyph glyph-name="" unicode="ò" d="M679 1590 l277 0 l-276 318 l-315 0 l314 -318 ZM806 1480 q-322 -3 -506 -203 q-185 -200 -189 -555 q3 -355 187 -555 q184 -200 508 -204 q324 4 507 204 q183 200 186 555 q-3 354 -187 554 q-183 200 -506 204 l0 0 ZM806 1215 q178 -2 281 -133 q102 -131 104 -360 q-2 -228 -104 -360 q-103 -131 -281 -134 q-180 3 -282 134 q-102 132 -104 360 q2 229 105 360 q103 131 281 133 l0 0 Z" /><glyph glyph-name="" unicode="&#x1ed4;" d="M661 1848 l-278 -269 l272 0 l141 143 l20 0 l141 -143 l272 0 l-278 269 l-290 0 ZM951 2028 q17 7 41 11 q25 4 52 4 q43 0 68 -19 q25 -20 26 -53 q0 -31 -22 -58 q-22 -26 -67 -44 l105 -103 q81 33 125 92 q43 59 43 139 q-1 91 -64 144 q-62 52 -170 53 q-43 0 -79 -5 q-36 -6 -58 -14 l0 -147 ZM806 1480 q-322 -3 -506 -203 q-185 -200 -189 -555 q3 -355 187 -555 q184 -200 508 -204 q324 4 507 204 q183 200 186 555 q-3 354 -187 554 q-183 200 -506 204 l0 0 ZM806 1215 q178 -2 281 -133 q102 -131 104 -360 q-2 -228 -104 -360 q-103 -131 -281 -134 q-180 3 -282 134 q-102 132 -104 360 q2 229 105 360 q103 131 281 133 l0 0 Z" /><glyph glyph-name="" unicode="&#x1ed2;" d="M661 1848 l-278 -269 l272 0 l141 143 l20 0 l141 -143 l272 0 l-278 269 l-290 0 ZM1333 1885 l-182 294 l-273 0 l212 -294 l243 0 ZM806 1480 q-322 -3 -506 -203 q-185 -200 -189 -555 q3 -355 187 -555 q184 -200 508 -204 q324 4 507 204 q183 200 186 555 q-3 354 -187 554 q-183 200 -506 204 l0 0 ZM806 1215 q178 -2 281 -133 q102 -131 104 -360 q-2 -228 -104 -360 q-103 -131 -281 -134 q-180 3 -282 134 q-102 132 -104 360 q2 229 105 360 q103 131 281 133 l0 0 Z" /><glyph glyph-name="" unicode="&#x1ecc;" d="M806 -419 q72 1 114 40 q42 38 43 100 q-1 61 -43 100 q-42 38 -114 39 q-72 -1 -114 -39 q-42 -39 -43 -100 q1 -62 43 -100 q42 -39 114 -40 l0 0 ZM806 1480 q-322 -3 -506 -203 q-185 -200 -189 -555 q3 -355 187 -555 q184 -200 508 -204 q324 4 507 204 q183 200 186 555 q-3 354 -187 554 q-183 200 -506 204 l0 0 ZM806 1215 q178 -2 281 -133 q102 -131 104 -360 q-2 -228 -104 -360 q-103 -131 -281 -134 q-180 3 -282 134 q-102 132 -104 360 q2 229 105 360 q103 131 281 133 l0 0 Z" /><glyph glyph-name="" unicode="&#x20c;" d="M910 1590 l244 0 l-251 318 l-271 0 l278 -318 ZM473 1590 l244 0 l-252 318 l-270 0 l278 -318 ZM806 1480 q-322 -3 -506 -203 q-185 -200 -189 -555 q3 -355 187 -555 q184 -200 508 -204 q324 4 507 204 q183 200 186 555 q-3 354 -187 554 q-183 200 -506 204 l0 0 ZM806 1215 q178 -2 281 -133 q102 -131 104 -360 q-2 -228 -104 -360 q-103 -131 -281 -134 q-180 3 -282 134 q-102 132 -104 360 q2 229 105 360 q103 131 281 133 l0 0 Z" /><glyph glyph-name="" unicode="&#x1e4c;" d="M806 1480 q-322 -3 -506 -203 q-185 -200 -189 -555 q3 -355 187 -555 q184 -200 508 -204 q324 4 507 204 q183 200 186 555 q-3 354 -187 554 q-183 200 -506 204 l0 0 ZM806 1215 q178 -2 281 -133 q102 -131 104 -360 q-2 -228 -104 -360 q-103 -131 -281 -134 q-180 3 -282 134 q-102 132 -104 360 q2 229 105 360 q103 131 281 133 l0 0 ZM960 1579 q109 1 177 75 q68 74 70 207 l-183 0 q-4 -57 -28 -82 q-24 -26 -59 -25 q-66 8 -118 60 q-53 53 -167 60 q-109 -1 -177 -74 q-68 -74 -70 -210 l184 0 q3 56 25 83 q23 27 61 27 q66 -8 119 -60 q52 -53 166 -61 l0 0 ZM710 1937 l254 0 l190 242 l-285 0 l-159 -242 Z" /><glyph glyph-name="" unicode="&#x1e52;" d="M1179 1611 l0 178 l-746 0 l0 -178 l746 0 ZM684 1915 l255 0 l189 264 l-285 0 l-159 -264 ZM806 1480 q-322 -3 -506 -203 q-185 -200 -189 -555 q3 -355 187 -555 q184 -200 508 -204 q324 4 507 204 q183 200 186 555 q-3 354 -187 554 q-183 200 -506 204 l0 0 ZM806 1215 q178 -2 281 -133 q102 -131 104 -360 q-2 -228 -104 -360 q-103 -131 -281 -134 q-180 3 -282 134 q-102 132 -104 360 q2 229 105 360 q103 131 281 133 l0 0 Z" /><glyph glyph-name="" unicode="&#x1ed6;" d="M955 1898 q108 1 174 75 q66 74 68 206 l-173 0 q-4 -57 -28 -83 q-24 -26 -59 -26 q-66 8 -116 62 q-50 53 -164 61 q-108 -1 -174 -73 q-66 -73 -68 -206 l174 0 q3 53 25 80 q23 27 61 27 q66 -8 116 -61 q50 -54 164 -62 l0 0 ZM661 1843 l-278 -264 l272 0 l141 143 l20 0 l141 -143 l272 0 l-278 264 l-290 0 ZM806 1480 q-322 -3 -506 -203 q-185 -200 -189 -555 q3 -355 187 -555 q184 -200 508 -204 q324 4 507 204 q183 200 186 555 q-3 354 -187 554 q-183 200 -506 204 l0 0 ZM806 1215 q178 -2 281 -133 q102 -131 104 -360 q-2 -228 -104 -360 q-103 -131 -281 -134 q-180 3 -282 134 q-102 132 -104 360 q2 229 105 360 q103 131 281 133 l0 0 Z" /><glyph glyph-name="" unicode="&#x230;" d="M806 1575 q69 1 112 43 q43 41 44 107 q-1 65 -44 106 q-43 41 -112 42 q-69 -1 -112 -42 q-43 -41 -44 -106 q1 -66 44 -107 q43 -42 112 -43 l0 0 ZM1179 2164 l-746 0 l0 -168 l746 0 l0 168 ZM806 1480 q-322 -3 -506 -203 q-185 -200 -189 -555 q3 -355 187 -555 q184 -200 508 -204 q324 4 507 204 q183 200 186 555 q-3 354 -187 554 q-183 200 -506 204 l0 0 ZM806 1215 q178 -2 281 -133 q102 -131 104 -360 q-2 -228 -104 -360 q-103 -131 -281 -134 q-180 3 -282 134 q-102 132 -104 360 q2 229 105 360 q103 131 281 133 l0 0 Z" /><glyph glyph-name="" unicode="&#x1e50;" d="M433 1611 l746 0 l0 178 l-746 0 l0 -178 ZM928 1915 l-159 264 l-285 0 l189 -264 l255 0 ZM806 1480 q-322 -3 -506 -203 q-185 -200 -189 -555 q3 -355 187 -555 q184 -200 508 -204 q324 4 507 204 q183 200 186 555 q-3 354 -187 554 q-183 200 -506 204 l0 0 ZM806 1215 q178 -2 281 -133 q102 -131 104 -360 q-2 -228 -104 -360 q-103 -131 -281 -134 q-180 3 -282 134 q-102 132 -104 360 q2 229 105 360 q103 131 281 133 l0 0 Z" /><glyph glyph-name="" unicode="&#x1d1;" d="M679 1590 l254 0 l281 318 l-253 0 l-145 -173 l-20 0 l-145 173 l-253 0 l281 -318 ZM806 1480 q-322 -3 -506 -203 q-185 -200 -189 -555 q3 -355 187 -555 q184 -200 508 -204 q324 4 507 204 q183 200 186 555 q-3 354 -187 554 q-183 200 -506 204 l0 0 ZM806 1215 q178 -2 281 -133 q102 -131 104 -360 q-2 -228 -104 -360 q-103 -131 -281 -134 q-180 3 -282 134 q-102 132 -104 360 q2 229 105 360 q103 131 281 133 l0 0 Z" /><glyph glyph-name="" unicode="&#x1fe;" d="M1270 1908 l-315 0 l-277 -318 l278 0 l314 318 ZM1097 1067 q46 -63 70 -150 q24 -87 24 -195 q-2 -228 -104 -360 q-103 -131 -281 -134 q-64 0 -119 18 q-55 18 -100 53 l510 768 ZM503 392 q-41 63 -62 146 q-21 83 -21 184 q2 229 105 360 q103 131 281 133 q59 0 109 -15 q51 -16 94 -45 l-506 -763 ZM1350 1448 l-108 59 l-76 -115 q-76 44 -166 66 q-90 22 -194 22 q-322 -3 -506 -203 q-185 -200 -189 -555 q1 -192 57 -341 q57 -148 164 -248 l-90 -135 l102 -66 l85 128 q78 -47 173 -72 q94 -25 204 -25 q324 4 507 204 q183 200 186 555 q-1 197 -61 349 q-60 152 -172 250 l84 127 Z" /><glyph glyph-name="" unicode="&#x150;" d="M1119 1590 l278 318 l-270 0 l-252 -318 l244 0 ZM682 1590 l278 318 l-271 0 l-251 -318 l244 0 ZM806 1480 q-322 -3 -506 -203 q-185 -200 -189 -555 q3 -355 187 -555 q184 -200 508 -204 q324 4 507 204 q183 200 186 555 q-3 354 -187 554 q-183 200 -506 204 l0 0 ZM806 1215 q178 -2 281 -133 q102 -131 104 -360 q-2 -228 -104 -360 q-103 -131 -281 -134 q-180 3 -282 134 q-102 132 -104 360 q2 229 105 360 q103 131 281 133 l0 0 Z" /><glyph glyph-name="" unicode="&#x14e;" d="M806 1480 q-322 -3 -506 -203 q-185 -200 -189 -555 q3 -355 187 -555 q184 -200 508 -204 q324 4 507 204 q183 200 186 555 q-3 354 -187 554 q-183 200 -506 204 l0 0 ZM806 1215 q178 -2 281 -133 q102 -131 104 -360 q-2 -228 -104 -360 q-103 -131 -281 -134 q-180 3 -282 134 q-102 132 -104 360 q2 229 105 360 q103 131 281 133 l0 0 ZM406 1915 q2 -151 107 -242 q106 -92 293 -94 q187 2 293 94 q105 91 107 242 l-208 0 q-2 -76 -53 -119 q-51 -44 -139 -45 q-88 1 -139 45 q-51 43 -53 119 l-208 0 Z" /><glyph glyph-name="" unicode="&#x20e;" d="M406 1579 l208 0 q2 77 53 120 q51 44 139 45 q88 -1 139 -45 q51 -43 53 -120 l208 0 q-2 152 -107 243 q-106 91 -293 93 q-187 -2 -293 -93 q-105 -91 -107 -243 l0 0 ZM806 1480 q-322 -3 -506 -203 q-185 -200 -189 -555 q3 -355 187 -555 q184 -200 508 -204 q324 4 507 204 q183 200 186 555 q-3 354 -187 554 q-183 200 -506 204 l0 0 ZM806 1215 q178 -2 281 -133 q102 -131 104 -360 q-2 -228 -104 -360 q-103 -131 -281 -134 q-180 3 -282 134 q-102 132 -104 360 q2 229 105 360 q103 131 281 133 l0 0 Z" /><glyph glyph-name="" unicode="&#x1ece;" d="M599 1826 q20 8 49 14 q29 5 62 5 q50 -1 79 -22 q29 -21 30 -56 q-1 -33 -30 -60 q-29 -28 -77 -46 l92 -114 q94 36 147 100 q52 64 53 148 q-2 96 -69 153 q-68 56 -181 57 q-48 0 -88 -8 q-40 -8 -67 -17 l0 -154 ZM806 1480 q-322 -3 -506 -203 q-185 -200 -189 -555 q3 -355 187 -555 q184 -200 508 -204 q324 4 507 204 q183 200 186 555 q-3 354 -187 554 q-183 200 -506 204 l0 0 ZM806 1215 q178 -2 281 -133 q102 -131 104 -360 q-2 -228 -104 -360 q-103 -131 -281 -134 q-180 3 -282 134 q-102 132 -104 360 q2 229 105 360 q103 131 281 133 l0 0 Z" /><glyph glyph-name="" unicode="&#x22a;" d="M806 1480 q-322 -3 -506 -203 q-185 -200 -189 -555 q3 -355 187 -555 q184 -200 508 -204 q324 4 507 204 q183 200 186 555 q-3 354 -187 554 q-183 200 -506 204 l0 0 ZM806 1215 q178 -2 281 -133 q102 -131 104 -360 q-2 -228 -104 -360 q-103 -131 -281 -134 q-180 3 -282 134 q-102 132 -104 360 q2 229 105 360 q103 131 281 133 l0 0 ZM572 1879 q-68 -1 -110 -42 q-43 -42 -44 -108 q1 -66 44 -108 q42 -41 110 -42 q67 1 110 42 q42 42 43 108 q-1 66 -43 108 q-43 41 -110 42 l0 0 ZM433 2164 l0 -168 l746 0 l0 168 l-746 0 ZM1040 1879 q-67 -1 -109 -42 q-43 -42 -44 -108 q1 -66 44 -108 q42 -41 109 -42 q68 1 110 42 q43 42 44 108 q-1 66 -44 108 q-42 41 -110 42 l0 0 Z" /><glyph glyph-name="" unicode="&#x22c;" d="M960 1579 q109 1 177 75 q68 74 70 207 l-183 0 q-4 -57 -28 -82 q-24 -26 -59 -25 q-66 8 -118 60 q-53 53 -167 60 q-109 -1 -177 -74 q-68 -74 -70 -210 l184 0 q3 56 25 83 q23 27 61 27 q66 -8 119 -60 q52 -53 166 -61 l0 0 ZM1179 2164 l-746 0 l0 -178 l746 0 l0 178 ZM806 1480 q-322 -3 -506 -203 q-185 -200 -189 -555 q3 -355 187 -555 q184 -200 508 -204 q324 4 507 204 q183 200 186 555 q-3 354 -187 554 q-183 200 -506 204 l0 0 ZM806 1215 q178 -2 281 -133 q102 -131 104 -360 q-2 -228 -104 -360 q-103 -131 -281 -134 q-180 3 -282 134 q-102 132 -104 360 q2 229 105 360 q103 131 281 133 l0 0 Z" /><glyph glyph-name="" unicode="&#x22e;" d="M806 1579 q70 1 113 45 q43 44 44 113 q-1 69 -44 113 q-43 44 -113 45 q-71 -1 -114 -45 q-43 -44 -44 -113 q1 -69 44 -113 q43 -44 114 -45 l0 0 ZM806 1480 q-322 -3 -506 -203 q-185 -200 -189 -555 q3 -355 187 -555 q184 -200 508 -204 q324 4 507 204 q183 200 186 555 q-3 354 -187 554 q-183 200 -506 204 l0 0 ZM806 1215 q178 -2 281 -133 q102 -131 104 -360 q-2 -228 -104 -360 q-103 -131 -281 -134 q-180 3 -282 134 q-102 132 -104 360 q2 229 105 360 q103 131 281 133 l0 0 Z" /><glyph glyph-name="" unicode="&#x1ed8;" d="M806 -419 q72 1 114 40 q42 38 43 100 q-1 61 -43 100 q-42 38 -114 39 q-72 -1 -114 -39 q-42 -39 -43 -100 q1 -62 43 -100 q42 -39 114 -40 l0 0 ZM670 1925 l-284 -335 l265 0 l146 187 l18 0 l146 -187 l265 0 l-284 335 l-272 0 ZM806 1480 q-322 -3 -506 -203 q-185 -200 -189 -555 q3 -355 187 -555 q184 -200 508 -204 q324 4 507 204 q183 200 186 555 q-3 354 -187 554 q-183 200 -506 204 l0 0 ZM806 1215 q178 -2 281 -133 q102 -131 104 -360 q-2 -228 -104 -360 q-103 -131 -281 -134 q-180 3 -282 134 q-102 132 -104 360 q2 229 105 360 q103 131 281 133 l0 0 Z" /><glyph glyph-name="" unicode="&#x1ed0;" d="M661 1848 l-278 -269 l272 0 l141 143 l20 0 l141 -143 l272 0 l-278 269 l-290 0 ZM1043 1885 l243 0 l212 294 l-272 0 l-183 -294 ZM806 1480 q-322 -3 -506 -203 q-185 -200 -189 -555 q3 -355 187 -555 q184 -200 508 -204 q324 4 507 204 q183 200 186 555 q-3 354 -187 554 q-183 200 -506 204 l0 0 ZM806 1215 q178 -2 281 -133 q102 -131 104 -360 q-2 -228 -104 -360 q-103 -131 -281 -134 q-180 3 -282 134 q-102 132 -104 360 q2 229 105 360 q103 131 281 133 l0 0 Z" /><glyph glyph-name="" unicode="&#x1e4e;" d="M960 1575 q109 1 177 75 q68 74 70 207 l-183 0 q-4 -57 -28 -82 q-24 -26 -59 -25 q-66 8 -118 60 q-53 53 -167 60 q-109 -1 -177 -74 q-68 -74 -70 -210 l184 0 q3 56 25 83 q23 27 61 27 q66 -8 119 -60 q52 -53 166 -61 l0 0 ZM587 2185 q-62 -1 -100 -34 q-37 -32 -38 -88 q1 -55 38 -88 q38 -33 100 -34 q62 1 100 34 q37 33 38 88 q-1 56 -38 88 q-38 33 -100 34 l0 0 ZM1025 2185 q-62 -1 -100 -34 q-37 -32 -38 -88 q1 -55 38 -88 q38 -33 100 -34 q62 1 100 34 q37 33 38 88 q-1 56 -38 88 q-38 33 -100 34 l0 0 ZM806 1480 q-322 -3 -506 -203 q-185 -200 -189 -555 q3 -355 187 -555 q184 -200 508 -204 q324 4 507 204 q183 200 186 555 q-3 354 -187 554 q-183 200 -506 204 l0 0 ZM806 1215 q178 -2 281 -133 q102 -131 104 -360 q-2 -228 -104 -360 q-103 -131 -281 -134 q-180 3 -282 134 q-102 132 -104 360 q2 229 105 360 q103 131 281 133 l0 0 Z" /><glyph glyph-name="" unicode="&#x14c;" d="M806 1480 q-322 -3 -506 -203 q-185 -200 -189 -555 q3 -355 187 -555 q184 -200 508 -204 q324 4 507 204 q183 200 186 555 q-3 354 -187 554 q-183 200 -506 204 l0 0 ZM806 1215 q178 -2 281 -133 q102 -131 104 -360 q-2 -228 -104 -360 q-103 -131 -281 -134 q-180 3 -282 134 q-102 132 -104 360 q2 229 105 360 q103 131 281 133 l0 0 ZM1179 1813 l-746 0 l0 -181 l746 0 l0 181 Z" /><glyph glyph-name="" unicode="&#x1ea;" d="M1063 -466 q53 0 86 7 q32 6 52 14 l0 167 q-9 -4 -28 -6 q-18 -2 -41 -2 q-57 1 -87 29 q-31 28 -31 72 q0 49 37 103 q37 54 108 108 q174 134 257 305 q84 170 83 391 q-3 354 -187 554 q-183 200 -506 204 q-323 -4 -507 -205 q-184 -200 -188 -553 q3 -355 187 -555 q184 -200 508 -204 q32 0 66 6 q33 6 48 14 l0 -18 q-57 -33 -93 -89 q-37 -56 -38 -124 q2 -98 76 -157 q75 -59 198 -61 l0 0 ZM806 1215 q178 -3 281 -134 q102 -131 104 -359 q-2 -228 -104 -360 q-103 -131 -281 -134 q-179 3 -281 134 q-103 131 -105 360 q2 228 105 359 q103 131 281 134 l0 0 Z" /><glyph glyph-name="" unicode="&#x1ec;" d="M1063 -466 q53 0 86 7 q32 6 52 14 l0 167 q-9 -4 -28 -6 q-18 -2 -41 -2 q-57 1 -87 29 q-31 28 -31 72 q0 49 37 103 q37 54 108 108 q174 134 257 305 q84 170 83 391 q-3 354 -187 554 q-183 200 -506 204 q-323 -4 -507 -205 q-184 -200 -188 -553 q3 -355 187 -555 q184 -200 508 -204 q32 0 66 6 q33 6 48 14 l0 -18 q-57 -33 -93 -89 q-37 -56 -38 -124 q2 -98 76 -157 q75 -59 198 -61 l0 0 ZM806 1215 q178 -3 281 -134 q102 -131 104 -359 q-2 -228 -104 -360 q-103 -131 -281 -134 q-179 3 -281 134 q-103 131 -105 360 q2 228 105 359 q103 131 281 134 l0 0 ZM1179 1813 l-746 0 l0 -181 l746 0 l0 181 Z" /><glyph glyph-name="" unicode="&#x1a0;" d="M806 -37 q324 4 507 204 q183 200 186 555 q-1 165 -53 300 q-52 134 -137 201 l0 16 q10 0 27 0 q17 0 34 0 q97 1 152 55 q54 54 55 154 l0 235 l-231 0 l0 -165 q0 -44 -25 -67 q-26 -22 -83 -22 q-116 3 -211 26 q-95 22 -221 25 q-322 -3 -506 -203 q-185 -200 -189 -555 q3 -355 187 -555 q184 -200 508 -204 l0 0 ZM806 228 q-180 3 -282 134 q-102 132 -104 360 q2 229 105 360 q103 131 281 133 q178 -2 281 -133 q102 -131 104 -360 q-2 -228 -104 -360 q-103 -131 -281 -134 l0 0 Z" /><glyph glyph-name="" unicode="&#x1ee2;" d="M800 -419 q72 1 114 40 q42 38 43 100 q-1 61 -43 100 q-42 38 -114 39 q-72 -1 -114 -39 q-42 -39 -43 -100 q1 -62 43 -100 q42 -39 114 -40 l0 0 ZM806 -37 q324 4 507 204 q183 200 186 555 q-1 165 -53 300 q-52 134 -137 201 l0 16 q10 0 27 0 q17 0 34 0 q97 1 152 55 q54 54 55 154 l0 235 l-231 0 l0 -165 q0 -44 -25 -67 q-26 -22 -83 -22 q-116 3 -211 26 q-95 22 -221 25 q-322 -3 -506 -203 q-185 -200 -189 -555 q3 -355 187 -555 q184 -200 508 -204 l0 0 ZM806 228 q-180 3 -282 134 q-102 132 -104 360 q2 229 105 360 q103 131 281 133 q178 -2 281 -133 q102 -131 104 -360 q-2 -228 -104 -360 q-103 -131 -281 -134 l0 0 Z" /><glyph glyph-name="" unicode="&#x1ede;" d="M593 1826 q20 8 49 14 q29 5 62 5 q50 -1 79 -22 q29 -21 30 -56 q-1 -33 -30 -60 q-29 -28 -77 -46 l92 -114 q94 36 147 100 q52 64 53 148 q-2 96 -69 153 q-68 56 -181 57 q-48 0 -88 -8 q-40 -8 -67 -17 l0 -154 ZM806 -37 q324 4 507 204 q183 200 186 555 q-1 165 -53 300 q-52 134 -137 201 l0 16 q10 0 27 0 q17 0 34 0 q97 1 152 55 q54 54 55 154 l0 235 l-231 0 l0 -165 q0 -44 -25 -67 q-26 -22 -83 -22 q-116 3 -211 26 q-95 22 -221 25 q-322 -3 -506 -203 q-185 -200 -189 -555 q3 -355 187 -555 q184 -200 508 -204 l0 0 ZM806 228 q-180 3 -282 134 q-102 132 -104 360 q2 229 105 360 q103 131 281 133 q178 -2 281 -133 q102 -131 104 -360 q-2 -228 -104 -360 q-103 -131 -281 -134 l0 0 Z" /><glyph glyph-name="" unicode="&#x1ee0;" d="M806 -37 q324 4 507 204 q183 200 186 555 q-1 165 -53 300 q-52 134 -137 201 l0 16 q10 0 27 0 q17 0 34 0 q97 1 152 55 q54 54 55 154 l0 235 l-231 0 l0 -165 q0 -44 -25 -67 q-26 -22 -83 -22 q-116 3 -211 26 q-95 22 -221 25 q-322 -3 -506 -203 q-185 -200 -189 -555 q3 -355 187 -555 q184 -200 508 -204 l0 0 ZM806 228 q-180 3 -282 134 q-102 132 -104 360 q2 229 105 360 q103 131 281 133 q178 -2 281 -133 q102 -131 104 -360 q-2 -228 -104 -360 q-103 -131 -281 -134 l0 0 ZM959 1577 q110 1 178 81 q67 79 69 224 l-183 0 q-4 -69 -28 -97 q-24 -28 -59 -27 q-58 9 -116 69 q-58 60 -179 69 q-110 -1 -177 -80 q-68 -80 -70 -229 l184 0 q3 69 25 99 q23 30 61 29 q66 -9 122 -69 q57 -60 173 -69 l0 0 Z" /><glyph glyph-name="" unicode="&#x1edc;" d="M673 1590 l277 0 l-276 318 l-315 0 l314 -318 ZM806 -37 q324 4 507 204 q183 200 186 555 q-1 165 -53 300 q-52 134 -137 201 l0 16 q10 0 27 0 q17 0 34 0 q97 1 152 55 q54 54 55 154 l0 235 l-231 0 l0 -165 q0 -44 -25 -67 q-26 -22 -83 -22 q-116 3 -211 26 q-95 22 -221 25 q-322 -3 -506 -203 q-185 -200 -189 -555 q3 -355 187 -555 q184 -200 508 -204 l0 0 ZM806 228 q-180 3 -282 134 q-102 132 -104 360 q2 229 105 360 q103 131 281 133 q178 -2 281 -133 q102 -131 104 -360 q-2 -228 -104 -360 q-103 -131 -281 -134 l0 0 Z" /><glyph glyph-name="" unicode="&#x1eda;" d="M937 1590 l314 318 l-315 0 l-277 -318 l278 0 ZM806 -37 q324 4 507 204 q183 200 186 555 q-1 165 -53 300 q-52 134 -137 201 l0 16 q10 0 27 0 q17 0 34 0 q97 1 152 55 q54 54 55 154 l0 235 l-231 0 l0 -165 q0 -44 -25 -67 q-26 -22 -83 -22 q-116 3 -211 26 q-95 22 -221 25 q-322 -3 -506 -203 q-185 -200 -189 -555 q3 -355 187 -555 q184 -200 508 -204 l0 0 ZM806 228 q-180 3 -282 134 q-102 132 -104 360 q2 229 105 360 q103 131 281 133 q178 -2 281 -133 q102 -131 104 -360 q-2 -228 -104 -360 q-103 -131 -281 -134 l0 0 Z" /><glyph glyph-name="" unicode="p" d="M175 1443 l0 -1443 l302 0 l0 448 l285 0 q232 3 372 137 q139 133 143 359 q-3 228 -139 362 q-135 134 -361 137 l-602 0 ZM477 1195 l220 0 q131 0 202 -64 q70 -65 71 -188 q-1 -122 -72 -186 q-71 -64 -202 -64 l-219 0 l0 502 Z" /><glyph glyph-name="" unicode="&#x1e56;" d="M175 1443 l0 -1443 l302 0 l0 448 l285 0 q232 3 372 137 q139 133 143 359 q-3 228 -139 362 q-135 134 -361 137 l-602 0 ZM477 1195 l220 0 q131 0 202 -64 q70 -65 71 -188 q-1 -122 -72 -186 q-71 -64 -202 -64 l-219 0 l0 502 ZM601 1579 q70 1 113 45 q43 44 44 113 q-1 69 -44 113 q-43 44 -113 45 q-71 -1 -114 -45 q-43 -44 -44 -113 q1 -69 44 -113 q43 -44 114 -45 l0 0 Z" /><glyph glyph-name="" unicode="&#x1e54;" d="M738 1590 l314 318 l-315 0 l-277 -318 l278 0 ZM175 1443 l0 -1443 l302 0 l0 448 l285 0 q232 3 372 137 q139 133 143 359 q-3 228 -139 362 q-135 134 -361 137 l-602 0 ZM477 1195 l220 0 q131 0 202 -64 q70 -65 71 -188 q-1 -122 -72 -186 q-71 -64 -202 -64 l-219 0 l0 502 Z" /><glyph glyph-name="" unicode="q" d="M1451 -141 l-179 272 q110 95 168 245 q59 151 59 346 q-4 355 -187 555 q-184 200 -506 203 q-322 -3 -506 -203 q-185 -200 -189 -555 q3 -357 187 -556 q184 -200 508 -203 q68 0 132 10 q64 9 121 28 l100 -142 l292 0 ZM807 228 q-179 2 -282 133 q-103 131 -105 361 q2 229 105 360 q103 131 281 133 q177 -2 280 -133 q103 -131 105 -360 q0 -105 -27 -186 q-26 -82 -76 -136 l-67 81 l-274 0 l164 -240 q-25 -6 -51 -9 q-26 -4 -53 -4 l0 0 Z" /><glyph glyph-name="" unicode="r" d="M477 1199 l262 0 q114 -1 178 -60 q65 -59 66 -163 q-1 -105 -63 -163 q-63 -57 -178 -58 l-265 0 l0 444 ZM477 523 l247 0 l0 0 l269 -523 l342 0 l-304 570 q125 52 193 161 q68 109 69 249 q-2 217 -137 339 q-135 122 -375 124 l-606 0 l0 -1443 l302 0 l0 523 Z" /><glyph glyph-name="" unicode="&#x158;" d="M477 1199 l262 0 q114 -1 178 -60 q65 -59 66 -163 q-1 -105 -63 -163 q-63 -57 -178 -58 l-265 0 l0 444 ZM477 523 l247 0 l0 0 l269 -523 l342 0 l-304 570 q125 52 193 161 q68 109 69 249 q-2 217 -137 339 q-135 122 -375 124 l-606 0 l0 -1443 l302 0 l0 523 ZM525 1590 l254 0 l281 318 l-253 0 l-145 -173 l-20 0 l-145 173 l-253 0 l281 -318 Z" /><glyph glyph-name="" unicode="&#x1e5e;" d="M477 1199 l262 0 q114 -1 178 -60 q65 -59 66 -163 q-1 -105 -63 -163 q-63 -57 -178 -58 l-265 0 l0 444 ZM477 523 l247 0 l0 0 l269 -523 l342 0 l-304 570 q125 52 193 161 q68 109 69 249 q-2 217 -137 339 q-135 122 -375 124 l-606 0 l0 -1443 l302 0 l0 523 ZM1025 -220 l-746 0 l0 -181 l746 0 l0 181 Z" /><glyph glyph-name="" unicode="&#x1e5c;" d="M652 -419 q72 1 114 40 q42 38 43 100 q-1 61 -43 100 q-42 38 -114 39 q-72 -1 -114 -39 q-42 -39 -43 -100 q1 -62 43 -100 q42 -39 114 -40 l0 0 ZM477 1199 l262 0 q114 -1 178 -60 q65 -59 66 -163 q-1 -105 -63 -163 q-63 -57 -178 -58 l-265 0 l0 444 ZM477 523 l247 0 l0 0 l269 -523 l342 0 l-304 570 q125 52 193 161 q68 109 69 249 q-2 217 -137 339 q-135 122 -375 124 l-606 0 l0 -1443 l302 0 l0 523 ZM1025 1813 l-746 0 l0 -181 l746 0 l0 181 Z" /><glyph glyph-name="" unicode="&#x210;" d="M756 1590 l244 0 l-251 318 l-271 0 l278 -318 ZM319 1590 l244 0 l-252 318 l-270 0 l278 -318 ZM477 1199 l262 0 q114 -1 178 -60 q65 -59 66 -163 q-1 -105 -63 -163 q-63 -57 -178 -58 l-265 0 l0 444 ZM477 523 l247 0 l0 0 l269 -523 l342 0 l-304 570 q125 52 193 161 q68 109 69 249 q-2 217 -137 339 q-135 122 -375 124 l-606 0 l0 -1443 l302 0 l0 523 Z" /><glyph glyph-name="" unicode="&#x212;" d="M477 1199 l262 0 q114 -1 178 -60 q65 -59 66 -163 q-1 -105 -63 -163 q-63 -57 -178 -58 l-265 0 l0 444 ZM477 523 l247 0 l0 0 l269 -523 l342 0 l-304 570 q125 52 193 161 q68 109 69 249 q-2 217 -137 339 q-135 122 -375 124 l-606 0 l0 -1443 l302 0 l0 523 ZM252 1579 l208 0 q2 77 53 120 q51 44 139 45 q88 -1 139 -45 q51 -43 53 -120 l208 0 q-2 152 -107 243 q-106 91 -293 93 q-187 -2 -293 -93 q-105 -91 -107 -243 l0 0 Z" /><glyph glyph-name="" unicode="&#x154;" d="M789 1590 l314 318 l-315 0 l-277 -318 l278 0 ZM477 1199 l262 0 q114 -1 178 -60 q65 -59 66 -163 q-1 -105 -63 -163 q-63 -57 -178 -58 l-265 0 l0 444 ZM477 523 l247 0 l0 0 l269 -523 l342 0 l-304 570 q125 52 193 161 q68 109 69 249 q-2 217 -137 339 q-135 122 -375 124 l-606 0 l0 -1443 l302 0 l0 523 Z" /><glyph glyph-name="" unicode="&#x1e5a;" d="M652 -419 q72 1 114 40 q42 38 43 100 q-1 61 -43 100 q-42 38 -114 39 q-72 -1 -114 -39 q-42 -39 -43 -100 q1 -62 43 -100 q42 -39 114 -40 l0 0 ZM477 1199 l262 0 q114 -1 178 -60 q65 -59 66 -163 q-1 -105 -63 -163 q-63 -57 -178 -58 l-265 0 l0 444 ZM477 523 l247 0 l0 0 l269 -523 l342 0 l-304 570 q125 52 193 161 q68 109 69 249 q-2 217 -137 339 q-135 122 -375 124 l-606 0 l0 -1443 l302 0 l0 523 Z" /><glyph glyph-name="" unicode="&#x1e58;" d="M652 1579 q70 1 113 45 q43 44 44 113 q-1 69 -44 113 q-43 44 -113 45 q-71 -1 -114 -45 q-43 -44 -44 -113 q1 -69 44 -113 q43 -44 114 -45 l0 0 ZM477 1199 l262 0 q114 -1 178 -60 q65 -59 66 -163 q-1 -105 -63 -163 q-63 -57 -178 -58 l-265 0 l0 444 ZM477 523 l247 0 l0 0 l269 -523 l342 0 l-304 570 q125 52 193 161 q68 109 69 249 q-2 217 -137 339 q-135 122 -375 124 l-606 0 l0 -1443 l302 0 l0 523 Z" /><glyph glyph-name="" unicode="&#x156;" d="M477 1199 l262 0 q114 -1 178 -60 q65 -59 66 -163 q-1 -105 -63 -163 q-63 -57 -178 -58 l-265 0 l0 444 ZM477 523 l247 0 l0 0 l269 -523 l342 0 l-304 570 q125 52 193 161 q68 109 69 249 q-2 217 -137 339 q-135 122 -375 124 l-606 0 l0 -1443 l302 0 l0 523 ZM646 -509 l166 358 l-292 0 l-132 -358 l258 0 Z" /><glyph glyph-name="" unicode="s" d="M110 401 q11 -204 164 -320 q153 -116 414 -118 q274 2 428 125 q154 124 157 344 q1 167 -99 266 q-100 99 -316 144 l-174 37 q-126 26 -182 68 q-57 42 -56 108 q2 83 69 131 q67 48 182 49 q111 -1 183 -52 q71 -51 83 -138 l284 0 q-11 196 -160 314 q-150 118 -392 121 q-253 -3 -401 -123 q-148 -121 -151 -328 q0 -165 97 -268 q98 -103 295 -144 l188 -40 q132 -28 191 -71 q59 -44 58 -112 q-2 -83 -75 -133 q-73 -51 -193 -52 q-129 1 -209 52 q-81 51 -93 140 l-292 0 Z" /><glyph glyph-name="" unicode="&#x160;" d="M110 401 q11 -204 164 -320 q153 -116 414 -118 q274 2 428 125 q154 124 157 344 q1 167 -99 266 q-100 99 -316 144 l-174 37 q-126 26 -182 68 q-57 42 -56 108 q2 83 69 131 q67 48 182 49 q111 -1 183 -52 q71 -51 83 -138 l284 0 q-11 196 -160 314 q-150 118 -392 121 q-253 -3 -401 -123 q-148 -121 -151 -328 q0 -165 97 -268 q98 -103 295 -144 l188 -40 q132 -28 191 -71 q59 -44 58 -112 q-2 -83 -75 -133 q-73 -51 -193 -52 q-129 1 -209 52 q-81 51 -93 140 l-292 0 ZM569 1590 l254 0 l281 318 l-253 0 l-145 -173 l-20 0 l-145 173 l-253 0 l281 -318 Z" /><glyph glyph-name="" unicode="&#x15e;" d="M684 879 q-126 26 -182 68 q-57 42 -56 108 q2 83 69 131 q67 48 182 49 q111 -1 183 -52 q71 -51 83 -138 l284 0 q-11 196 -160 314 q-150 118 -392 121 q-253 -3 -401 -123 q-148 -121 -151 -328 q0 -165 97 -268 q98 -103 295 -144 l188 -40 q132 -28 191 -71 q59 -44 58 -112 q-2 -83 -75 -133 q-73 -51 -193 -52 q-129 1 -209 52 q-81 51 -93 140 l-292 0 q10 -185 137 -298 q128 -113 348 -136 l-37 -88 l0 -116 l60 0 q69 0 100 -13 q31 -13 30 -43 q0 -29 -28 -44 q-28 -15 -84 -15 q-31 0 -65 4 q-34 5 -51 10 l0 -134 q28 -8 66 -13 q37 -5 81 -5 q129 1 198 55 q68 53 69 150 q0 81 -51 126 q-50 45 -145 51 l31 74 q238 20 370 142 q132 121 134 324 q1 167 -99 266 q-100 99 -316 144 l-174 37 Z" /><glyph glyph-name="" unicode="&#x1e60;" d="M696 1579 q70 1 113 45 q43 44 44 113 q-1 69 -44 113 q-43 44 -113 45 q-71 -1 -114 -45 q-43 -44 -44 -113 q1 -69 44 -113 q43 -44 114 -45 l0 0 ZM110 401 q11 -204 164 -320 q153 -116 414 -118 q274 2 428 125 q154 124 157 344 q1 167 -99 266 q-100 99 -316 144 l-174 37 q-126 26 -182 68 q-57 42 -56 108 q2 83 69 131 q67 48 182 49 q111 -1 183 -52 q71 -51 83 -138 l284 0 q-11 196 -160 314 q-150 118 -392 121 q-253 -3 -401 -123 q-148 -121 -151 -328 q0 -165 97 -268 q98 -103 295 -144 l188 -40 q132 -28 191 -71 q59 -44 58 -112 q-2 -83 -75 -133 q-73 -51 -193 -52 q-129 1 -209 52 q-81 51 -93 140 l-292 0 Z" /><glyph glyph-name="" unicode="&#x1e62;" d="M688 -419 q72 1 114 40 q42 38 43 100 q-1 61 -43 100 q-42 38 -114 39 q-72 -1 -114 -39 q-42 -39 -43 -100 q1 -62 43 -100 q42 -39 114 -40 l0 0 ZM110 401 q11 -204 164 -320 q153 -116 414 -118 q274 2 428 125 q154 124 157 344 q1 167 -99 266 q-100 99 -316 144 l-174 37 q-126 26 -182 68 q-57 42 -56 108 q2 83 69 131 q67 48 182 49 q111 -1 183 -52 q71 -51 83 -138 l284 0 q-11 196 -160 314 q-150 118 -392 121 q-253 -3 -401 -123 q-148 -121 -151 -328 q0 -165 97 -268 q98 -103 295 -144 l188 -40 q132 -28 191 -71 q59 -44 58 -112 q-2 -83 -75 -133 q-73 -51 -193 -52 q-129 1 -209 52 q-81 51 -93 140 l-292 0 Z" /><glyph glyph-name="" unicode="&#x218;" d="M110 401 q11 -204 164 -320 q153 -116 414 -118 q274 2 428 125 q154 124 157 344 q1 167 -99 266 q-100 99 -316 144 l-174 37 q-126 26 -182 68 q-57 42 -56 108 q2 83 69 131 q67 48 182 49 q111 -1 183 -52 q71 -51 83 -138 l284 0 q-11 196 -160 314 q-150 118 -392 121 q-253 -3 -401 -123 q-148 -121 -151 -328 q0 -165 97 -268 q98 -103 295 -144 l188 -40 q132 -28 191 -71 q59 -44 58 -112 q-2 -83 -75 -133 q-73 -51 -193 -52 q-129 1 -209 52 q-81 51 -93 140 l-292 0 ZM682 -509 l166 358 l-292 0 l-132 -358 l258 0 Z" /><glyph glyph-name="" unicode="&#x1e68;" d="M688 -419 q72 1 114 40 q42 38 43 100 q-1 61 -43 100 q-42 38 -114 39 q-72 -1 -114 -39 q-42 -39 -43 -100 q1 -62 43 -100 q42 -39 114 -40 l0 0 ZM110 401 q11 -204 164 -320 q153 -116 414 -118 q274 2 428 125 q154 124 157 344 q1 167 -99 266 q-100 99 -316 144 l-174 37 q-126 26 -182 68 q-57 42 -56 108 q2 83 69 131 q67 48 182 49 q111 -1 183 -52 q71 -51 83 -138 l284 0 q-11 196 -160 314 q-150 118 -392 121 q-253 -3 -401 -123 q-148 -121 -151 -328 q0 -165 97 -268 q98 -103 295 -144 l188 -40 q132 -28 191 -71 q59 -44 58 -112 q-2 -83 -75 -133 q-73 -51 -193 -52 q-129 1 -209 52 q-81 51 -93 140 l-292 0 ZM696 1579 q70 1 113 45 q43 44 44 113 q-1 69 -44 113 q-43 44 -113 45 q-71 -1 -114 -45 q-43 -44 -44 -113 q1 -69 44 -113 q43 -44 114 -45 l0 0 Z" /><glyph glyph-name="" unicode="&#x1e66;" d="M551 1579 l290 0 l278 269 l-272 0 l-141 -143 l-20 0 l-141 143 l-272 0 l278 -269 ZM696 1913 q69 1 112 43 q43 41 44 106 q-1 65 -44 106 q-43 42 -112 43 q-69 -1 -112 -43 q-43 -41 -44 -106 q1 -65 44 -106 q43 -42 112 -43 l0 0 ZM110 401 q11 -204 164 -320 q153 -116 414 -118 q274 2 428 125 q154 124 157 344 q1 167 -99 266 q-100 99 -316 144 l-174 37 q-126 26 -182 68 q-57 42 -56 108 q2 83 69 131 q67 48 182 49 q111 -1 183 -52 q71 -51 83 -138 l284 0 q-11 196 -160 314 q-150 118 -392 121 q-253 -3 -401 -123 q-148 -121 -151 -328 q0 -165 97 -268 q98 -103 295 -144 l188 -40 q132 -28 191 -71 q59 -44 58 -112 q-2 -83 -75 -133 q-73 -51 -193 -52 q-129 1 -209 52 q-81 51 -93 140 l-292 0 Z" /><glyph glyph-name="" unicode="&#x15c;" d="M110 401 q11 -204 164 -320 q153 -116 414 -118 q274 2 428 125 q154 124 157 344 q1 167 -99 266 q-100 99 -316 144 l-174 37 q-126 26 -182 68 q-57 42 -56 108 q2 83 69 131 q67 48 182 49 q111 -1 183 -52 q71 -51 83 -138 l284 0 q-11 196 -160 314 q-150 118 -392 121 q-253 -3 -401 -123 q-148 -121 -151 -328 q0 -165 97 -268 q98 -103 295 -144 l188 -40 q132 -28 191 -71 q59 -44 58 -112 q-2 -83 -75 -133 q-73 -51 -193 -52 q-129 1 -209 52 q-81 51 -93 140 l-292 0 ZM560 1925 l-284 -335 l265 0 l146 187 l18 0 l146 -187 l265 0 l-284 335 l-272 0 Z" /><glyph glyph-name="" unicode="&#x1e64;" d="M952 1590 l314 318 l-315 0 l-277 -318 l278 0 ZM469 1607 q70 1 113 45 q43 44 44 113 q-1 69 -44 113 q-43 44 -113 45 q-71 -1 -114 -45 q-43 -44 -44 -113 q1 -69 44 -113 q43 -44 114 -45 l0 0 ZM110 401 q11 -204 164 -320 q153 -116 414 -118 q274 2 428 125 q154 124 157 344 q1 167 -99 266 q-100 99 -316 144 l-174 37 q-126 26 -182 68 q-57 42 -56 108 q2 83 69 131 q67 48 182 49 q111 -1 183 -52 q71 -51 83 -138 l284 0 q-11 196 -160 314 q-150 118 -392 121 q-253 -3 -401 -123 q-148 -121 -151 -328 q0 -165 97 -268 q98 -103 295 -144 l188 -40 q132 -28 191 -71 q59 -44 58 -112 q-2 -83 -75 -133 q-73 -51 -193 -52 q-129 1 -209 52 q-81 51 -93 140 l-292 0 Z" /><glyph glyph-name="" unicode="&#x15a;" d="M833 1590 l314 318 l-315 0 l-277 -318 l278 0 ZM110 401 q11 -204 164 -320 q153 -116 414 -118 q274 2 428 125 q154 124 157 344 q1 167 -99 266 q-100 99 -316 144 l-174 37 q-126 26 -182 68 q-57 42 -56 108 q2 83 69 131 q67 48 182 49 q111 -1 183 -52 q71 -51 83 -138 l284 0 q-11 196 -160 314 q-150 118 -392 121 q-253 -3 -401 -123 q-148 -121 -151 -328 q0 -165 97 -268 q98 -103 295 -144 l188 -40 q132 -28 191 -71 q59 -44 58 -112 q-2 -83 -75 -133 q-73 -51 -193 -52 q-129 1 -209 52 q-81 51 -93 140 l-292 0 Z" /><glyph glyph-name="" unicode="t" d="M827 0 l0 1185 l433 0 l0 258 l-1168 0 l0 -258 l433 0 l0 -1185 l302 0 Z" /><glyph glyph-name="" unicode="&#x1e70;" d="M827 0 l0 1185 l433 0 l0 258 l-1168 0 l0 -258 l433 0 l0 -1185 l302 0 ZM821 -152 l-296 0 l-286 -280 l284 0 l141 153 l18 0 l141 -153 l284 0 l-286 280 Z" /><glyph glyph-name="" unicode="&#x1e6c;" d="M673 -419 q72 1 114 40 q42 38 43 100 q-1 61 -43 100 q-42 38 -114 39 q-72 -1 -114 -39 q-42 -39 -43 -100 q1 -62 43 -100 q42 -39 114 -40 l0 0 ZM827 0 l0 1185 l433 0 l0 258 l-1168 0 l0 -258 l433 0 l0 -1185 l302 0 Z" /><glyph glyph-name="" unicode="&#x21a;" d="M667 -509 l166 358 l-292 0 l-132 -358 l258 0 ZM827 0 l0 1185 l433 0 l0 258 l-1168 0 l0 -258 l433 0 l0 -1185 l302 0 Z" /><glyph glyph-name="" unicode="&#x1e6a;" d="M673 1579 q70 1 113 45 q43 44 44 113 q-1 69 -44 113 q-43 44 -113 45 q-71 -1 -114 -45 q-43 -44 -44 -113 q1 -69 44 -113 q43 -44 114 -45 l0 0 ZM827 0 l0 1185 l433 0 l0 258 l-1168 0 l0 -258 l433 0 l0 -1185 l302 0 Z" /><glyph glyph-name="" unicode="&#x162;" d="M827 0 l0 1 l0 10 l0 1174 l433 0 l0 258 l-1168 0 l0 -258 l433 0 l0 -1185 l127 0 l-50 -120 l0 -116 l60 0 q69 0 100 -13 q31 -13 30 -43 q0 -29 -28 -44 q-28 -15 -84 -15 q-31 0 -65 4 q-34 5 -51 10 l0 -134 q28 -8 66 -13 q37 -5 81 -5 q129 1 198 55 q68 53 69 150 q0 81 -51 126 q-50 45 -145 51 l45 107 Z" /><glyph glyph-name="" unicode="&#x1e6e;" d="M1046 -220 l-746 0 l0 -181 l746 0 l0 181 ZM827 0 l0 1185 l433 0 l0 258 l-1168 0 l0 -258 l433 0 l0 -1185 l302 0 Z" /><glyph glyph-name="" unicode="&#x164;" d="M546 1590 l254 0 l281 318 l-253 0 l-145 -173 l-20 0 l-145 173 l-253 0 l281 -318 ZM827 0 l0 1185 l433 0 l0 258 l-1168 0 l0 -258 l433 0 l0 -1185 l302 0 Z" /><glyph glyph-name="" unicode="&#x166;" d="M1260 1185 l0 258 l-1168 0 l0 -258 l433 0 l0 -384 l-286 0 l0 -218 l286 0 l0 -583 l302 0 l0 583 l281 0 l0 218 l-281 0 l0 384 l433 0 Z" /><glyph glyph-name="" unicode="u" d="M480 1443 l-302 0 l0 -945 q3 -243 164 -387 q160 -145 440 -148 q281 3 441 148 q161 144 164 387 l0 945 l-302 0 l0 -914 q-1 -138 -79 -217 q-78 -79 -224 -81 q-146 2 -223 81 q-78 79 -79 217 l0 914 Z" /><glyph glyph-name="" unicode="ù" d="M655 1590 l277 0 l-276 318 l-315 0 l314 -318 ZM480 1443 l-302 0 l0 -945 q3 -243 164 -387 q160 -145 440 -148 q281 3 441 148 q161 144 164 387 l0 945 l-302 0 l0 -914 q-1 -138 -79 -217 q-78 -79 -224 -81 q-146 2 -223 81 q-78 79 -79 217 l0 914 Z" /><glyph glyph-name="" unicode="&#x214;" d="M886 1590 l244 0 l-251 318 l-271 0 l278 -318 ZM449 1590 l244 0 l-252 318 l-270 0 l278 -318 ZM480 1443 l-302 0 l0 -945 q3 -243 164 -387 q160 -145 440 -148 q281 3 441 148 q161 144 164 387 l0 945 l-302 0 l0 -914 q-1 -138 -79 -217 q-78 -79 -224 -81 q-146 2 -223 81 q-78 79 -79 217 l0 914 Z" /><glyph glyph-name="" unicode="ú" d="M919 1590 l314 318 l-315 0 l-277 -318 l278 0 ZM480 1443 l-302 0 l0 -945 q3 -243 164 -387 q160 -145 440 -148 q281 3 441 148 q161 144 164 387 l0 945 l-302 0 l0 -914 q-1 -138 -79 -217 q-78 -79 -224 -81 q-146 2 -223 81 q-78 79 -79 217 l0 914 Z" /><glyph glyph-name="" unicode="&#x170;" d="M480 1443 l-302 0 l0 -945 q3 -243 164 -387 q160 -145 440 -148 q281 3 441 148 q161 144 164 387 l0 945 l-302 0 l0 -914 q-1 -138 -79 -217 q-78 -79 -224 -81 q-146 2 -223 81 q-78 79 -79 217 l0 914 ZM1095 1590 l278 318 l-270 0 l-252 -318 l244 0 ZM658 1590 l278 318 l-271 0 l-251 -318 l244 0 Z" /><glyph glyph-name="" unicode="û" d="M646 1925 l-284 -335 l265 0 l146 187 l18 0 l146 -187 l265 0 l-284 335 l-272 0 ZM480 1443 l-302 0 l0 -945 q3 -243 164 -387 q160 -145 440 -148 q281 3 441 148 q161 144 164 387 l0 945 l-302 0 l0 -914 q-1 -138 -79 -217 q-78 -79 -224 -81 q-146 2 -223 81 q-78 79 -79 217 l0 914 Z" /><glyph glyph-name="" unicode="&#x1d3;" d="M655 1590 l254 0 l281 318 l-253 0 l-145 -173 l-20 0 l-145 173 l-253 0 l281 -318 ZM480 1443 l-302 0 l0 -945 q3 -243 164 -387 q160 -145 440 -148 q281 3 441 148 q161 144 164 387 l0 945 l-302 0 l0 -914 q-1 -138 -79 -217 q-78 -79 -224 -81 q-146 2 -223 81 q-78 79 -79 217 l0 914 Z" /><glyph glyph-name="" unicode="&#x1e76;" d="M480 1443 l-302 0 l0 -945 q3 -243 164 -387 q160 -145 440 -148 q281 3 441 148 q161 144 164 387 l0 945 l-302 0 l0 -914 q-1 -138 -79 -217 q-78 -79 -224 -81 q-146 2 -223 81 q-78 79 -79 217 l0 914 ZM930 -152 l-296 0 l-286 -280 l284 0 l141 153 l18 0 l141 -153 l284 0 l-286 280 Z" /><glyph glyph-name="" unicode="ü" d="M548 1579 q69 1 111 43 q43 42 44 109 q-1 67 -44 109 q-42 41 -111 42 q-69 -1 -111 -42 q-43 -42 -44 -109 q1 -67 44 -109 q42 -42 111 -43 l0 0 ZM1016 1579 q69 1 112 43 q43 42 44 109 q-1 67 -44 109 q-43 41 -112 42 q-68 -1 -111 -42 q-43 -42 -44 -109 q1 -67 44 -109 q43 -42 111 -43 l0 0 ZM480 1443 l-302 0 l0 -945 q3 -243 164 -387 q160 -145 440 -148 q281 3 441 148 q161 144 164 387 l0 945 l-302 0 l0 -914 q-1 -138 -79 -217 q-78 -79 -224 -81 q-146 2 -223 81 q-78 79 -79 217 l0 914 Z" /><glyph glyph-name="" unicode="&#x1db;" d="M911 1937 l-166 242 l-292 0 l218 -242 l240 0 ZM548 1579 q68 1 111 43 q43 42 44 109 q-1 67 -44 109 q-43 42 -111 43 q-69 -1 -112 -43 q-43 -42 -44 -109 q1 -67 44 -109 q43 -42 112 -43 l0 0 ZM1016 1579 q69 1 112 43 q43 42 44 109 q-1 67 -44 109 q-43 42 -112 43 q-68 -1 -111 -43 q-43 -42 -44 -109 q1 -67 44 -109 q43 -42 111 -43 l0 0 ZM480 1443 l-302 0 l0 -945 q3 -243 164 -387 q160 -145 440 -148 q281 3 441 148 q161 144 164 387 l0 945 l-302 0 l0 -914 q-1 -138 -79 -217 q-78 -79 -224 -81 q-146 2 -223 81 q-78 79 -79 217 l0 914 Z" /><glyph glyph-name="" unicode="&#x1d7;" d="M662 1937 l240 0 l218 242 l-292 0 l-166 -242 ZM548 1579 q68 1 111 43 q43 42 44 109 q-1 67 -44 109 q-43 42 -111 43 q-69 -1 -112 -43 q-43 -42 -44 -109 q1 -67 44 -109 q43 -42 112 -43 l0 0 ZM1016 1579 q69 1 112 43 q43 42 44 109 q-1 67 -44 109 q-43 42 -112 43 q-68 -1 -111 -43 q-43 -42 -44 -109 q1 -67 44 -109 q43 -42 111 -43 l0 0 ZM480 1443 l-302 0 l0 -945 q3 -243 164 -387 q160 -145 440 -148 q281 3 441 148 q161 144 164 387 l0 945 l-302 0 l0 -914 q-1 -138 -79 -217 q-78 -79 -224 -81 q-146 2 -223 81 q-78 79 -79 217 l0 914 Z" /><glyph glyph-name="" unicode="&#x1d5;" d="M480 1443 l-302 0 l0 -945 q3 -243 164 -387 q160 -145 440 -148 q281 3 441 148 q161 144 164 387 l0 945 l-302 0 l0 -914 q-1 -138 -79 -217 q-78 -79 -224 -81 q-146 2 -223 81 q-78 79 -79 217 l0 914 ZM548 1879 q-68 -1 -110 -42 q-43 -42 -44 -108 q1 -66 44 -108 q42 -41 110 -42 q67 1 110 42 q42 42 43 108 q-1 66 -43 108 q-43 41 -110 42 l0 0 ZM409 2164 l0 -168 l746 0 l0 168 l-746 0 ZM1016 1879 q-67 -1 -109 -42 q-43 -42 -44 -108 q1 -66 44 -108 q42 -41 109 -42 q68 1 110 42 q43 42 44 108 q-1 66 -44 108 q-42 41 -110 42 l0 0 Z" /><glyph glyph-name="" unicode="&#x1d9;" d="M647 1910 l270 0 l278 300 l-263 0 l-140 -166 l-20 0 l-140 166 l-263 0 l278 -300 ZM548 1853 q-68 -1 -109 -41 q-42 -40 -43 -103 q1 -64 43 -104 q41 -40 109 -41 q67 1 109 41 q41 40 42 104 q-1 63 -42 103 q-42 40 -109 41 l0 0 ZM1016 1853 q-67 -1 -108 -41 q-42 -40 -43 -103 q1 -64 43 -104 q41 -40 108 -41 q68 1 109 41 q42 40 43 104 q-1 63 -43 103 q-41 40 -109 41 l0 0 ZM480 1443 l-302 0 l0 -945 q3 -243 164 -387 q160 -145 440 -148 q281 3 441 148 q161 144 164 387 l0 945 l-302 0 l0 -914 q-1 -138 -79 -217 q-78 -79 -224 -81 q-146 2 -223 81 q-78 79 -79 217 l0 914 Z" /><glyph glyph-name="" unicode="&#x1e72;" d="M480 1443 l-302 0 l0 -945 q3 -243 164 -387 q160 -145 440 -148 q281 3 441 148 q161 144 164 387 l0 945 l-302 0 l0 -914 q-1 -138 -79 -217 q-78 -79 -224 -81 q-146 2 -223 81 q-78 79 -79 217 l0 914 ZM548 -432 q72 1 114 39 q42 38 43 100 q-1 62 -43 100 q-42 38 -114 39 q-71 -1 -113 -39 q-42 -38 -43 -100 q1 -62 43 -100 q42 -38 113 -39 l0 0 ZM1016 -432 q71 1 113 39 q42 38 43 100 q-1 62 -43 100 q-42 38 -113 39 q-72 -1 -114 -39 q-42 -38 -43 -100 q1 -62 43 -100 q42 -38 114 -39 l0 0 Z" /><glyph glyph-name="" unicode="&#x1e74;" d="M941 -428 q110 1 178 74 q67 74 69 215 l-182 0 q-3 -65 -28 -90 q-24 -24 -58 -23 q-61 8 -119 66 q-58 58 -178 66 q-110 0 -177 -74 q-68 -74 -70 -218 l183 0 q2 65 26 92 q23 26 59 25 q68 -8 125 -66 q57 -59 172 -67 l0 0 ZM480 1443 l-302 0 l0 -945 q3 -243 164 -387 q160 -145 440 -148 q281 3 441 148 q161 144 164 387 l0 945 l-302 0 l0 -914 q-1 -138 -79 -217 q-78 -79 -224 -81 q-146 2 -223 81 q-78 79 -79 217 l0 914 Z" /><glyph glyph-name="" unicode="&#x1ee6;" d="M480 1443 l-302 0 l0 -945 q3 -243 164 -387 q160 -145 440 -148 q281 3 441 148 q161 144 164 387 l0 945 l-302 0 l0 -914 q-1 -138 -79 -217 q-78 -79 -224 -81 q-146 2 -223 81 q-78 79 -79 217 l0 914 ZM575 1826 q20 8 49 14 q29 5 62 5 q50 -1 79 -22 q29 -21 30 -56 q-1 -33 -30 -60 q-29 -28 -77 -46 l92 -114 q94 36 147 100 q52 64 53 148 q-2 96 -69 153 q-68 56 -181 57 q-48 0 -88 -8 q-40 -8 -67 -17 l0 -154 Z" /><glyph glyph-name="" unicode="&#x16c;" d="M480 1443 l-302 0 l0 -945 q3 -243 164 -387 q160 -145 440 -148 q281 3 441 148 q161 144 164 387 l0 945 l-302 0 l0 -914 q-1 -138 -79 -217 q-78 -79 -224 -81 q-146 2 -223 81 q-78 79 -79 217 l0 914 ZM382 1915 q2 -151 107 -242 q106 -92 293 -94 q187 2 293 94 q105 91 107 242 l-208 0 q-2 -76 -53 -119 q-51 -44 -139 -45 q-88 1 -139 45 q-51 43 -53 119 l-208 0 Z" /><glyph glyph-name="" unicode="&#x216;" d="M480 1443 l-302 0 l0 -945 q3 -243 164 -387 q160 -145 440 -148 q281 3 441 148 q161 144 164 387 l0 945 l-302 0 l0 -914 q-1 -138 -79 -217 q-78 -79 -224 -81 q-146 2 -223 81 q-78 79 -79 217 l0 914 ZM382 1579 l208 0 q2 77 53 120 q51 44 139 45 q88 -1 139 -45 q51 -43 53 -120 l208 0 q-2 152 -107 243 q-106 91 -293 93 q-187 -2 -293 -93 q-105 -91 -107 -243 l0 0 Z" /><glyph glyph-name="" unicode="&#x1e78;" d="M480 1443 l-302 0 l0 -945 q3 -243 164 -387 q160 -145 440 -148 q281 3 441 148 q161 144 164 387 l0 945 l-302 0 l0 -914 q-1 -138 -79 -217 q-78 -79 -224 -81 q-146 2 -223 81 q-78 79 -79 217 l0 914 ZM936 1579 q109 1 177 75 q68 74 70 207 l-183 0 q-4 -57 -28 -82 q-24 -26 -59 -25 q-66 8 -118 60 q-53 53 -167 60 q-109 -1 -177 -74 q-68 -74 -70 -210 l184 0 q3 56 25 83 q23 27 61 27 q66 -8 119 -60 q52 -53 166 -61 l0 0 ZM686 1937 l254 0 l190 242 l-285 0 l-159 -242 Z" /><glyph glyph-name="" unicode="&#x1ee4;" d="M782 -419 q72 1 114 40 q42 38 43 100 q-1 61 -43 100 q-42 38 -114 39 q-72 -1 -114 -39 q-42 -39 -43 -100 q1 -62 43 -100 q42 -39 114 -40 l0 0 ZM480 1443 l-302 0 l0 -945 q3 -243 164 -387 q160 -145 440 -148 q281 3 441 148 q161 144 164 387 l0 945 l-302 0 l0 -914 q-1 -138 -79 -217 q-78 -79 -224 -81 q-146 2 -223 81 q-78 79 -79 217 l0 914 Z" /><glyph glyph-name="" unicode="&#x168;" d="M480 1443 l-302 0 l0 -945 q3 -243 164 -387 q160 -145 440 -148 q281 3 441 148 q161 144 164 387 l0 945 l-302 0 l0 -914 q-1 -138 -79 -217 q-78 -79 -224 -81 q-146 2 -223 81 q-78 79 -79 217 l0 914 ZM941 1577 q110 1 178 81 q67 79 69 224 l-183 0 q-4 -69 -28 -97 q-24 -28 -59 -27 q-58 9 -116 69 q-58 60 -179 69 q-110 -1 -177 -80 q-68 -80 -70 -229 l184 0 q3 69 25 99 q23 30 61 29 q66 -9 122 -69 q57 -60 173 -69 l0 0 Z" /><glyph glyph-name="" unicode="&#x16a;" d="M480 1443 l-302 0 l0 -945 q3 -243 164 -387 q160 -145 440 -148 q281 3 441 148 q161 144 164 387 l0 945 l-302 0 l0 -914 q-1 -138 -79 -217 q-78 -79 -224 -81 q-146 2 -223 81 q-78 79 -79 217 l0 914 ZM1155 1813 l-746 0 l0 -181 l746 0 l0 181 Z" /><glyph glyph-name="" unicode="&#x1e7a;" d="M1155 1611 l0 178 l-746 0 l0 -178 l746 0 ZM561 1895 q65 1 104 42 q40 41 41 103 q-1 63 -41 103 q-39 41 -104 42 q-66 -1 -106 -42 q-40 -40 -41 -103 q1 -62 41 -103 q40 -41 106 -42 l0 0 ZM1003 1895 q66 1 106 42 q40 41 41 103 q-1 63 -41 103 q-40 41 -106 42 q-65 -1 -104 -42 q-40 -40 -41 -103 q1 -62 41 -103 q39 -41 104 -42 l0 0 ZM480 1443 l-302 0 l0 -945 q3 -243 164 -387 q160 -145 440 -148 q281 3 441 148 q161 144 164 387 l0 945 l-302 0 l0 -914 q-1 -138 -79 -217 q-78 -79 -224 -81 q-146 2 -223 81 q-78 79 -79 217 l0 914 Z" /><glyph glyph-name="" unicode="&#x16e;" d="M783 1546 q89 2 146 57 q56 54 58 143 q-2 88 -58 143 q-57 54 -146 56 q-90 -2 -147 -56 q-57 -55 -59 -143 q2 -89 59 -143 q57 -55 147 -57 l0 0 ZM782 1652 q-42 1 -68 27 q-26 25 -27 66 q1 41 27 67 q26 26 68 27 q42 -1 68 -27 q26 -26 27 -67 q-1 -41 -26 -66 q-26 -26 -69 -27 l0 0 ZM480 1443 l-302 0 l0 -945 q3 -243 164 -387 q160 -145 440 -148 q281 3 441 148 q161 144 164 387 l0 945 l-302 0 l0 -914 q-1 -138 -79 -217 q-78 -79 -224 -81 q-146 2 -223 81 q-78 79 -79 217 l0 914 Z" /><glyph glyph-name="" unicode="&#x172;" d="M1056 -466 q56 0 89 7 q32 7 49 14 l0 167 q-9 -3 -27 -5 q-18 -3 -42 -3 q-55 1 -86 27 q-31 27 -32 74 q0 49 34 103 q34 53 105 114 q118 99 179 213 q62 114 62 253 l0 945 l-302 0 l0 -914 q-1 -141 -81 -219 q-80 -78 -222 -79 q-142 1 -221 79 q-80 78 -81 219 l0 914 l-302 0 l0 -945 q4 -247 166 -389 q163 -143 438 -146 q38 0 75 6 q36 6 56 14 l0 -18 q-52 -29 -91 -84 q-39 -56 -41 -129 q2 -96 75 -156 q74 -60 200 -62 l0 0 Z" /><glyph glyph-name="" unicode="&#x1af;" d="M782 -37 q277 3 439 146 q162 143 166 389 l0 745 l94 0 q105 0 165 56 q61 55 62 160 l0 244 l-231 0 l0 -184 q0 -38 -20 -57 q-20 -19 -59 -19 l-313 0 l0 -914 q-1 -141 -81 -219 q-80 -78 -222 -79 q-142 1 -221 79 q-80 78 -81 219 l0 914 l-302 0 l0 -945 q4 -246 166 -389 q161 -143 438 -146 l0 0 Z" /><glyph glyph-name="" unicode="&#x1eea;" d="M655 1590 l277 0 l-276 318 l-315 0 l314 -318 ZM782 -37 q277 3 439 146 q162 143 166 389 l0 745 l94 0 q105 0 165 56 q61 55 62 160 l0 244 l-231 0 l0 -184 q0 -38 -20 -57 q-20 -19 -59 -19 l-313 0 l0 -914 q-1 -141 -81 -219 q-80 -78 -222 -79 q-142 1 -221 79 q-80 78 -81 219 l0 914 l-302 0 l0 -945 q4 -246 166 -389 q161 -143 438 -146 l0 0 Z" /><glyph glyph-name="" unicode="&#x1ee8;" d="M919 1590 l314 318 l-315 0 l-277 -318 l278 0 ZM782 -37 q277 3 439 146 q162 143 166 389 l0 745 l94 0 q105 0 165 56 q61 55 62 160 l0 244 l-231 0 l0 -184 q0 -38 -20 -57 q-20 -19 -59 -19 l-313 0 l0 -914 q-1 -141 -81 -219 q-80 -78 -222 -79 q-142 1 -221 79 q-80 78 -81 219 l0 914 l-302 0 l0 -945 q4 -246 166 -389 q161 -143 438 -146 l0 0 Z" /><glyph glyph-name="" unicode="&#x1ef0;" d="M782 -419 q72 1 114 40 q42 38 43 100 q-1 61 -43 100 q-42 38 -114 39 q-72 -1 -114 -39 q-42 -39 -43 -100 q1 -62 43 -100 q42 -39 114 -40 l0 0 ZM782 -37 q277 3 439 146 q162 143 166 389 l0 745 l94 0 q105 0 165 56 q61 55 62 160 l0 244 l-231 0 l0 -184 q0 -38 -20 -57 q-20 -19 -59 -19 l-313 0 l0 -914 q-1 -141 -81 -219 q-80 -78 -222 -79 q-142 1 -221 79 q-80 78 -81 219 l0 914 l-302 0 l0 -945 q4 -246 166 -389 q161 -143 438 -146 l0 0 Z" /><glyph glyph-name="" unicode="&#x1eec;" d="M575 1826 q20 8 49 14 q29 5 62 5 q50 -1 79 -22 q29 -21 30 -56 q-1 -33 -30 -60 q-29 -28 -77 -46 l92 -114 q94 36 147 100 q52 64 53 148 q-2 96 -69 153 q-68 56 -181 57 q-48 0 -88 -8 q-40 -8 -67 -17 l0 -154 ZM782 -37 q277 3 439 146 q162 143 166 389 l0 745 l94 0 q105 0 165 56 q61 55 62 160 l0 244 l-231 0 l0 -184 q0 -38 -20 -57 q-20 -19 -59 -19 l-313 0 l0 -914 q-1 -141 -81 -219 q-80 -78 -222 -79 q-142 1 -221 79 q-80 78 -81 219 l0 914 l-302 0 l0 -945 q4 -246 166 -389 q161 -143 438 -146 l0 0 Z" /><glyph glyph-name="" unicode="&#x1eee;" d="M941 1577 q110 1 178 81 q67 79 69 224 l-183 0 q-4 -69 -28 -97 q-24 -28 -59 -27 q-58 9 -116 69 q-58 60 -179 69 q-110 -1 -177 -80 q-68 -80 -70 -229 l184 0 q3 69 25 99 q23 30 61 29 q66 -9 122 -69 q57 -60 173 -69 l0 0 ZM782 -37 q277 3 439 146 q162 143 166 389 l0 745 l94 0 q105 0 165 56 q61 55 62 160 l0 244 l-231 0 l0 -184 q0 -38 -20 -57 q-20 -19 -59 -19 l-313 0 l0 -914 q-1 -141 -81 -219 q-80 -78 -222 -79 q-142 1 -221 79 q-80 78 -81 219 l0 914 l-302 0 l0 -945 q4 -246 166 -389 q161 -143 438 -146 l0 0 Z" /><glyph glyph-name="" unicode="v" d="M925 0 l481 1443 l-325 0 l-322 -1103 l-18 0 l-328 1103 l-341 0 l488 -1443 l365 0 Z" /><glyph glyph-name="" unicode="&#x1e7c;" d="M896 1577 q110 1 178 81 q67 79 69 224 l-183 0 q-4 -69 -28 -97 q-24 -28 -59 -27 q-58 9 -116 69 q-58 60 -179 69 q-110 -1 -177 -80 q-68 -80 -70 -229 l184 0 q3 69 25 99 q23 30 61 29 q66 -9 122 -69 q57 -60 173 -69 l0 0 ZM925 0 l481 1443 l-325 0 l-322 -1103 l-18 0 l-328 1103 l-341 0 l488 -1443 l365 0 Z" /><glyph glyph-name="" unicode="&#x1e7e;" d="M737 -419 q72 1 114 40 q42 38 43 100 q-1 61 -43 100 q-42 38 -114 39 q-72 -1 -114 -39 q-42 -39 -43 -100 q1 -62 43 -100 q42 -39 114 -40 l0 0 ZM925 0 l481 1443 l-325 0 l-322 -1103 l-18 0 l-328 1103 l-341 0 l488 -1443 l365 0 Z" /><glyph glyph-name="" unicode="w" d="M1025 955 l16 0 l273 -955 l283 0 l383 1443 l-312 0 l-223 -1017 l-16 0 l-268 1017 l-255 0 l-263 -1017 l-16 0 l-225 1017 l-314 0 l382 -1443 l285 0 l270 955 Z" /><glyph glyph-name="" unicode="&#x1e80;" d="M907 1590 l277 0 l-276 318 l-315 0 l314 -318 ZM1025 955 l16 0 l273 -955 l283 0 l383 1443 l-312 0 l-223 -1017 l-16 0 l-268 1017 l-255 0 l-263 -1017 l-16 0 l-225 1017 l-314 0 l382 -1443 l285 0 l270 955 Z" /><glyph glyph-name="" unicode="&#x1e82;" d="M1171 1590 l314 318 l-315 0 l-277 -318 l278 0 ZM1025 955 l16 0 l273 -955 l283 0 l383 1443 l-312 0 l-223 -1017 l-16 0 l-268 1017 l-255 0 l-263 -1017 l-16 0 l-225 1017 l-314 0 l382 -1443 l285 0 l270 955 Z" /><glyph glyph-name="" unicode="&#x1e86;" d="M1034 1579 q70 1 113 45 q43 44 44 113 q-1 69 -44 113 q-43 44 -113 45 q-71 -1 -114 -45 q-43 -44 -44 -113 q1 -69 44 -113 q43 -44 114 -45 l0 0 ZM1025 955 l16 0 l273 -955 l283 0 l383 1443 l-312 0 l-223 -1017 l-16 0 l-268 1017 l-255 0 l-263 -1017 l-16 0 l-225 1017 l-314 0 l382 -1443 l285 0 l270 955 Z" /><glyph glyph-name="" unicode="&#x1e88;" d="M1034 -419 q72 1 114 40 q42 38 43 100 q-1 61 -43 100 q-42 38 -114 39 q-72 -1 -114 -39 q-42 -39 -43 -100 q1 -62 43 -100 q42 -39 114 -40 l0 0 ZM1025 955 l16 0 l273 -955 l283 0 l383 1443 l-312 0 l-223 -1017 l-16 0 l-268 1017 l-255 0 l-263 -1017 l-16 0 l-225 1017 l-314 0 l382 -1443 l285 0 l270 955 Z" /><glyph glyph-name="" unicode="&#x1e84;" d="M800 1579 q69 1 111 43 q43 42 44 109 q-1 67 -44 109 q-42 41 -111 42 q-69 -1 -111 -42 q-43 -42 -44 -109 q1 -67 44 -109 q42 -42 111 -43 l0 0 ZM1268 1579 q69 1 112 43 q43 42 44 109 q-1 67 -44 109 q-43 41 -112 42 q-68 -1 -111 -42 q-43 -42 -44 -109 q1 -67 44 -109 q43 -42 111 -43 l0 0 ZM1025 955 l16 0 l273 -955 l283 0 l383 1443 l-312 0 l-223 -1017 l-16 0 l-268 1017 l-255 0 l-263 -1017 l-16 0 l-225 1017 l-314 0 l382 -1443 l285 0 l270 955 Z" /><glyph glyph-name="" unicode="&#x174;" d="M898 1925 l-284 -335 l265 0 l146 187 l18 0 l146 -187 l265 0 l-284 335 l-272 0 ZM1025 955 l16 0 l273 -955 l283 0 l383 1443 l-312 0 l-223 -1017 l-16 0 l-268 1017 l-255 0 l-263 -1017 l-16 0 l-225 1017 l-314 0 l382 -1443 l285 0 l270 955 Z" /><glyph glyph-name="" unicode="x" d="M88 0 l326 0 l314 489 l18 0 l310 -489 l344 0 l-468 722 l0 0 l475 721 l-338 0 l-304 -505 l-18 0 l-301 505 l-355 0 l458 -716 l0 0 l-461 -727 Z" /><glyph glyph-name="" unicode="&#x1e8a;" d="M88 0 l326 0 l314 489 l18 0 l310 -489 l344 0 l-468 722 l0 0 l475 721 l-338 0 l-304 -505 l-18 0 l-301 505 l-355 0 l458 -716 l0 0 l-461 -727 ZM753 1579 q70 1 113 45 q43 44 44 113 q-1 69 -44 113 q-43 44 -113 45 q-71 -1 -114 -45 q-43 -44 -44 -113 q1 -69 44 -113 q43 -44 114 -45 l0 0 Z" /><glyph glyph-name="" unicode="&#x1e8c;" d="M88 0 l326 0 l314 489 l18 0 l310 -489 l344 0 l-468 722 l0 0 l475 721 l-338 0 l-304 -505 l-18 0 l-301 505 l-355 0 l458 -716 l0 0 l-461 -727 ZM519 1579 q69 1 111 43 q43 42 44 109 q-1 67 -44 109 q-42 41 -111 42 q-69 -1 -111 -42 q-43 -42 -44 -109 q1 -67 44 -109 q42 -42 111 -43 l0 0 ZM987 1579 q69 1 112 43 q43 42 44 109 q-1 67 -44 109 q-43 41 -112 42 q-68 -1 -111 -42 q-43 -42 -44 -109 q1 -67 44 -109 q43 -42 111 -43 l0 0 Z" /><glyph glyph-name="" unicode="y" d="M877 0 l0 531 l502 912 l-327 0 l-317 -604 l-18 0 l-318 604 l-327 0 l503 -912 l0 -531 l302 0 Z" /><glyph glyph-name="" unicode="&#x1ef2;" d="M877 0 l0 531 l502 912 l-327 0 l-317 -604 l-18 0 l-318 604 l-327 0 l503 -912 l0 -531 l302 0 ZM599 1590 l277 0 l-276 318 l-315 0 l314 -318 Z" /><glyph glyph-name="" unicode="ý" d="M877 0 l0 531 l502 912 l-327 0 l-317 -604 l-18 0 l-318 604 l-327 0 l503 -912 l0 -531 l302 0 ZM863 1590 l314 318 l-315 0 l-277 -318 l278 0 Z" /><glyph glyph-name="" unicode="&#x1e8e;" d="M877 0 l0 531 l502 912 l-327 0 l-317 -604 l-18 0 l-318 604 l-327 0 l503 -912 l0 -531 l302 0 ZM726 1579 q70 1 113 45 q43 44 44 113 q-1 69 -44 113 q-43 44 -113 45 q-71 -1 -114 -45 q-43 -44 -44 -113 q1 -69 44 -113 q43 -44 114 -45 l0 0 Z" /><glyph glyph-name="" unicode="&#x1ef4;" d="M877 0 l0 531 l502 912 l-327 0 l-317 -604 l-18 0 l-318 604 l-327 0 l503 -912 l0 -531 l302 0 ZM726 -419 q72 1 114 40 q42 38 43 100 q-1 61 -43 100 q-42 38 -114 39 q-72 -1 -114 -39 q-42 -39 -43 -100 q1 -62 43 -100 q42 -39 114 -40 l0 0 Z" /><glyph glyph-name="" unicode="&#x178;" d="M877 0 l0 531 l502 912 l-327 0 l-317 -604 l-18 0 l-318 604 l-327 0 l503 -912 l0 -531 l302 0 ZM492 1579 q69 1 111 43 q43 42 44 109 q-1 67 -44 109 q-42 41 -111 42 q-69 -1 -111 -42 q-43 -42 -44 -109 q1 -67 44 -109 q42 -42 111 -43 l0 0 ZM960 1579 q69 1 112 43 q43 42 44 109 q-1 67 -44 109 q-43 41 -112 42 q-68 -1 -111 -42 q-43 -42 -44 -109 q1 -67 44 -109 q43 -42 111 -43 l0 0 Z" /><glyph glyph-name="" unicode="&#x1ef8;" d="M877 0 l0 531 l502 912 l-327 0 l-317 -604 l-18 0 l-318 604 l-327 0 l503 -912 l0 -531 l302 0 ZM885 1577 q110 1 178 81 q67 79 69 224 l-183 0 q-4 -69 -28 -97 q-24 -28 -59 -27 q-58 9 -116 69 q-58 60 -179 69 q-110 -1 -177 -80 q-68 -80 -70 -229 l184 0 q3 69 25 99 q23 30 61 29 q66 -9 122 -69 q57 -60 173 -69 l0 0 Z" /><glyph glyph-name="" unicode="&#x176;" d="M877 0 l0 531 l502 912 l-327 0 l-317 -604 l-18 0 l-318 604 l-327 0 l503 -912 l0 -531 l302 0 ZM590 1925 l-284 -335 l265 0 l146 187 l18 0 l146 -187 l265 0 l-284 335 l-272 0 Z" /><glyph glyph-name="" unicode="&#x232;" d="M877 0 l0 531 l502 912 l-327 0 l-317 -604 l-18 0 l-318 604 l-327 0 l503 -912 l0 -531 l302 0 ZM1099 1813 l-746 0 l0 -181 l746 0 l0 181 Z" /><glyph glyph-name="" unicode="&#x1ef6;" d="M877 0 l0 531 l502 912 l-327 0 l-317 -604 l-18 0 l-318 604 l-327 0 l503 -912 l0 -531 l302 0 ZM519 1826 q20 8 49 14 q29 5 62 5 q50 -1 79 -22 q29 -21 30 -56 q-1 -33 -30 -60 q-29 -28 -77 -46 l92 -114 q94 36 147 100 q52 64 53 148 q-2 96 -69 153 q-68 56 -181 57 q-48 0 -88 -8 q-40 -8 -67 -17 l0 -154 Z" /><glyph glyph-name="" unicode="z" d="M135 0 l1114 0 l0 258 l-744 0 l0 18 l724 964 l0 203 l-1077 0 l0 -258 l709 0 l0 -18 l-726 -963 l0 -204 Z" /><glyph glyph-name="" unicode="&#x179;" d="M829 1590 l314 318 l-315 0 l-277 -318 l278 0 ZM135 0 l1114 0 l0 258 l-744 0 l0 18 l724 964 l0 203 l-1077 0 l0 -258 l709 0 l0 -18 l-726 -963 l0 -204 Z" /><glyph glyph-name="" unicode="&#x17d;" d="M135 0 l1114 0 l0 258 l-744 0 l0 18 l724 964 l0 203 l-1077 0 l0 -258 l709 0 l0 -18 l-726 -963 l0 -204 ZM565 1590 l254 0 l281 318 l-253 0 l-145 -173 l-20 0 l-145 173 l-253 0 l281 -318 Z" /><glyph glyph-name="" unicode="&#x1e90;" d="M135 0 l1114 0 l0 258 l-744 0 l0 18 l724 964 l0 203 l-1077 0 l0 -258 l709 0 l0 -18 l-726 -963 l0 -204 ZM556 1925 l-284 -335 l265 0 l146 187 l18 0 l146 -187 l265 0 l-284 335 l-272 0 Z" /><glyph glyph-name="" unicode="&#x1e94;" d="M135 0 l1114 0 l0 258 l-744 0 l0 18 l724 964 l0 203 l-1077 0 l0 -258 l709 0 l0 -18 l-726 -963 l0 -204 ZM1065 -220 l-746 0 l0 -181 l746 0 l0 181 Z" /><glyph glyph-name="" unicode="&#x1e92;" d="M692 -419 q72 1 114 40 q42 38 43 100 q-1 61 -43 100 q-42 38 -114 39 q-72 -1 -114 -39 q-42 -39 -43 -100 q1 -62 43 -100 q42 -39 114 -40 l0 0 ZM135 0 l1114 0 l0 258 l-744 0 l0 18 l724 964 l0 203 l-1077 0 l0 -258 l709 0 l0 -18 l-726 -963 l0 -204 Z" /><glyph glyph-name="" unicode="&#x17b;" d="M692 1579 q70 1 113 45 q43 44 44 113 q-1 69 -44 113 q-43 44 -113 45 q-71 -1 -114 -45 q-43 -44 -44 -113 q1 -69 44 -113 q43 -44 114 -45 l0 0 ZM135 0 l1114 0 l0 258 l-744 0 l0 18 l724 964 l0 203 l-1077 0 l0 -258 l709 0 l0 -18 l-726 -963 l0 -204 Z" /><glyph glyph-name="" unicode="æ" d="M861 1202 l129 0 l0 -604 l-378 0 l249 604 ZM990 0 l927 0 l0 258 l-651 0 l0 347 l614 0 l0 239 l-614 0 l0 341 l651 0 l0 258 l-1250 0 l-595 -1443 l299 0 l154 364 l465 0 l0 -364 Z" /><glyph glyph-name="" unicode="&#x1e2;" d="M861 1202 l129 0 l0 -604 l-378 0 l249 604 ZM990 0 l927 0 l0 258 l-651 0 l0 347 l614 0 l0 239 l-614 0 l0 341 l651 0 l0 258 l-1250 0 l-595 -1443 l299 0 l154 364 l465 0 l0 -364 ZM1896 1813 l-746 0 l0 -181 l746 0 l0 181 Z" /><glyph glyph-name="" unicode="&#x1fc;" d="M1660 1590 l314 318 l-315 0 l-277 -318 l278 0 ZM861 1202 l129 0 l0 -604 l-378 0 l249 604 ZM990 0 l927 0 l0 258 l-651 0 l0 347 l614 0 l0 239 l-614 0 l0 341 l651 0 l0 258 l-1250 0 l-595 -1443 l299 0 l154 364 l465 0 l0 -364 Z" /><glyph glyph-name="" unicode="&#x152;" d="M821 1215 q177 -2 278 -133 q101 -131 103 -360 q-2 -229 -103 -360 q-101 -131 -278 -134 q-182 2 -285 133 q-104 131 -106 361 q2 228 106 359 q104 131 285 134 l0 0 ZM1254 0 l916 0 l0 258 l-663 0 l0 351 l626 0 l0 239 l-626 0 l0 337 l663 0 l0 258 l-916 0 l0 -225 l-18 0 q-55 117 -182 188 q-127 72 -283 74 q-308 -3 -478 -200 q-170 -198 -172 -558 q2 -360 172 -558 q170 -198 478 -201 q157 2 282 74 q125 73 183 195 l18 0 l0 -232 Z" /><glyph glyph-name="" unicode="ð" d="M477 258 l0 360 l228 0 l0 227 l-228 0 l0 341 l218 0 q198 -1 307 -120 q109 -119 110 -339 q-1 -229 -108 -349 q-108 -119 -309 -120 l-218 0 ZM175 1444 l0 -599 l-125 0 l0 -227 l125 0 l0 -618 l568 0 q326 2 501 190 q174 188 176 542 q-2 341 -178 526 q-175 184 -499 186 l-568 0 Z" /><glyph glyph-name="" unicode="þ" d="M175 1443 l0 -1443 l302 0 l0 288 l294 0 q214 2 350 123 q136 122 140 338 q-4 219 -135 339 q-132 121 -340 123 l-307 0 l0 232 l-304 0 ZM477 963 l227 0 q115 0 182 -54 q67 -53 68 -160 q-1 -107 -68 -162 q-67 -54 -183 -54 l-226 0 l0 430 Z" /><glyph glyph-name="" unicode="&#x391;" d="M1102 0 l327 0 l-501 1443 l-355 0 l-501 -1443 l303 0 l111 344 l507 0 l109 -344 ZM732 1143 l18 0 l179 -566 l-378 0 l181 566 Z" /><glyph glyph-name="" unicode="&#x392;" d="M823 0 q233 2 365 112 q132 109 134 301 q-3 142 -93 237 q-91 94 -237 107 l0 18 q113 19 186 105 q73 85 75 203 q-2 169 -118 264 q-117 94 -329 96 l-631 0 l0 -1443 l648 0 ZM477 1212 l252 0 q109 -1 168 -49 q58 -48 59 -135 q0 -88 -65 -135 q-64 -47 -187 -48 l-227 0 l0 367 ZM477 231 l0 410 l262 0 q134 0 204 -51 q71 -52 71 -151 q0 -102 -69 -155 q-68 -53 -199 -53 l-269 0 Z" /><glyph glyph-name="" unicode="&#x393;" d="M477 0 l0 1185 l623 0 l0 258 l-925 0 l0 -1443 l302 0 Z" /><glyph glyph-name="" unicode="&#x394;&#x2206;" d="M1393 0 l0 177 l-462 1266 l-355 0 l-462 -1266 l0 -177 l1279 0 ZM430 276 l305 877 l18 0 l302 -877 l0 -18 l-625 0 l0 18 Z" /><glyph glyph-name="" unicode="&#x395;" d="M1131 258 l-654 0 l0 351 l617 0 l0 239 l-617 0 l0 337 l654 0 l0 258 l-956 0 l0 -1443 l956 0 l0 258 Z" /><glyph glyph-name="" unicode="&#x396;" d="M135 0 l1114 0 l0 258 l-744 0 l0 18 l724 964 l0 203 l-1077 0 l0 -258 l709 0 l0 -18 l-726 -963 l0 -204 Z" /><glyph glyph-name="" unicode="&#x397;" d="M1429 0 l0 1443 l-302 0 l0 -582 l-650 0 l0 582 l-302 0 l0 -1443 l302 0 l0 603 l650 0 l0 -603 l302 0 Z" /><glyph glyph-name="" unicode="&#x398;" d="M1090 591 l0 252 l-511 0 l0 -252 l511 0 ZM836 1480 q-341 -2 -532 -197 q-190 -196 -193 -561 q3 -362 193 -559 q191 -198 532 -200 q341 3 530 200 q190 197 193 559 q-3 365 -192 561 q-189 195 -531 197 l0 0 ZM836 1220 q193 -1 302 -130 q109 -129 111 -368 q-2 -239 -111 -368 q-109 -129 -302 -131 q-195 2 -303 131 q-109 129 -111 368 q2 239 112 368 q109 129 302 130 l0 0 Z" /><glyph glyph-name="" unicode="&#x399;" d="M477 0 l0 1443 l-302 0 l0 -1443 l302 0 Z" /><glyph glyph-name="" unicode="&#x39a;" d="M477 0 l0 435 l143 169 l419 -604 l362 0 l-563 810 l526 633 l-336 0 l-533 -643 l-18 0 l0 643 l-302 0 l0 -1443 l302 0 Z" /><glyph glyph-name="" unicode="&#x39b;" d="M1064 0 l332 0 l-481 1443 l-355 0 l-481 -1443 l308 0 l334 1128 l18 0 l325 -1128 Z" /><glyph glyph-name="" unicode="&#x39c;" d="M1703 0 l0 1443 l-355 0 l-400 -970 l-18 0 l-399 970 l-356 0 l0 -1443 l280 0 l0 965 l16 0 l368 -882 l201 0 l367 882 l16 0 l0 -965 l280 0 Z" /><glyph glyph-name="" unicode="&#x39d;" d="M464 0 l0 903 l18 0 l666 -903 l250 0 l0 1443 l-289 0 l0 -899 l-18 0 l-664 899 l-252 0 l0 -1443 l289 0 Z" /><glyph glyph-name="" unicode="&#x39e;" d="M143 1443 l0 -265 l1087 0 l0 265 l-1087 0 ZM1143 604 l0 246 l-913 0 l0 -246 l913 0 ZM143 265 l0 -265 l1087 0 l0 265 l-1087 0 Z" /><glyph glyph-name="" unicode="&#x39f;" d="M806 1480 q-322 -3 -506 -203 q-185 -200 -189 -555 q3 -355 187 -555 q184 -200 508 -204 q324 4 507 204 q183 200 186 555 q-3 354 -187 554 q-183 200 -506 204 l0 0 ZM806 1215 q178 -2 281 -133 q102 -131 104 -360 q-2 -228 -104 -360 q-103 -131 -281 -134 q-180 3 -282 134 q-102 132 -104 360 q2 229 105 360 q103 131 281 133 l0 0 Z" /><glyph glyph-name="" unicode="&#x3a0;" d="M1409 0 l0 1443 l-1234 0 l0 -1443 l302 0 l0 1185 l630 0 l0 -1185 l302 0 Z" /><glyph glyph-name="" unicode="&#x3a1;" d="M175 1443 l0 -1443 l302 0 l0 448 l285 0 q232 3 372 137 q139 133 143 359 q-3 228 -139 362 q-135 134 -361 137 l-602 0 ZM477 1195 l220 0 q131 0 202 -64 q70 -65 71 -188 q-1 -122 -72 -186 q-71 -64 -202 -64 l-219 0 l0 502 Z" /><glyph glyph-name="" unicode="&#x3a3;" d="M516 276 l315 440 l0 36 l-292 415 l0 18 l669 0 l0 258 l-1052 0 l0 -225 l356 -495 l-377 -532 l0 -191 l1094 0 l0 258 l-713 0 l0 18 Z" /><glyph glyph-name="" unicode="&#x3a4;" d="M827 0 l0 1185 l433 0 l0 258 l-1168 0 l0 -258 l433 0 l0 -1185 l302 0 Z" /><glyph glyph-name="" unicode="&#x3a5;" d="M877 0 l0 531 l502 912 l-327 0 l-317 -604 l-18 0 l-318 604 l-327 0 l503 -912 l0 -531 l302 0 Z" /><glyph glyph-name="" unicode="&#x3a6;" d="M1468 714 q-2 -193 -108 -302 q-105 -108 -289 -124 l0 851 q184 -15 289 -124 q106 -108 108 -301 l0 0 ZM398 714 q2 193 107 302 q105 108 289 123 l0 -851 q-184 16 -289 124 q-105 108 -107 302 l0 0 ZM1071 -110 l0 151 q313 19 501 198 q187 180 192 475 q-5 295 -192 474 q-188 179 -501 198 l0 153 l-277 0 l0 -153 q-312 -19 -500 -198 q-188 -179 -193 -474 q5 -295 193 -475 q188 -179 500 -198 l0 -151 l277 0 Z" /><glyph glyph-name="" unicode="&#x3a7;" d="M88 0 l326 0 l314 489 l18 0 l310 -489 l344 0 l-468 722 l0 0 l475 721 l-338 0 l-304 -505 l-18 0 l-301 505 l-355 0 l458 -716 l0 0 l-461 -727 Z" /><glyph glyph-name="" unicode="&#x3a8;" d="M1033 0 l0 306 q280 8 438 166 q158 158 161 432 l0 539 l-287 0 l0 -543 q0 -158 -79 -244 q-79 -86 -233 -97 l0 884 l-287 0 l0 -884 q-153 11 -232 97 q-79 86 -79 244 l0 543 l-287 0 l0 -539 q3 -274 161 -432 q158 -158 437 -166 l0 -306 l287 0 Z" /><glyph glyph-name="" unicode="&#x3a9;&#x2126;" d="M1208 787 q0 -161 -67 -277 q-67 -116 -206 -196 l0 -314 l577 0 l0 247 l-282 0 l0 18 q133 80 207 224 q74 143 75 322 q-5 302 -194 483 q-190 181 -505 186 q-315 -5 -504 -186 q-189 -181 -194 -483 q1 -179 75 -322 q74 -144 207 -224 l0 -18 l-282 0 l0 -247 l577 0 l0 314 q-139 80 -207 196 q-67 116 -67 277 q2 199 107 313 q105 113 288 115 q184 -2 289 -115 q104 -114 106 -313 l0 0 Z" /><glyph glyph-name="" unicode="&#x386;" d="M1169 0 l327 0 l-501 1443 l-355 0 l-501 -1443 l303 0 l111 344 l507 0 l109 -344 ZM799 1143 l18 0 l179 -566 l-378 0 l181 566 ZM69 1065 l237 0 l145 378 l-299 0 l-83 -378 Z" /><glyph glyph-name="" unicode="&#x388;" d="M77 1065 l237 0 l145 378 l-299 0 l-83 -378 ZM1571 258 l-654 0 l0 351 l617 0 l0 239 l-617 0 l0 337 l654 0 l0 258 l-956 0 l0 -1443 l956 0 l0 258 Z" /><glyph glyph-name="" unicode="&#x389;" d="M77 1065 l237 0 l145 378 l-299 0 l-83 -378 ZM1869 0 l0 1443 l-302 0 l0 -582 l-650 0 l0 582 l-302 0 l0 -1443 l302 0 l0 603 l650 0 l0 -603 l302 0 Z" /><glyph glyph-name="" unicode="&#x38a;" d="M917 0 l0 1443 l-302 0 l0 -1443 l302 0 ZM77 1065 l237 0 l145 378 l-299 0 l-83 -378 Z" /><glyph glyph-name="" unicode="&#x3aa;" d="M477 0 l0 1443 l-302 0 l0 -1443 l302 0 ZM92 1579 q69 1 111 43 q43 42 44 109 q-1 67 -44 109 q-42 41 -111 42 q-69 -1 -111 -42 q-43 -42 -44 -109 q1 -67 44 -109 q42 -42 111 -43 l0 0 ZM560 1579 q69 1 112 43 q43 42 44 109 q-1 67 -44 109 q-43 41 -112 42 q-68 -1 -111 -42 q-43 -42 -44 -109 q1 -67 44 -109 q43 -42 111 -43 l0 0 Z" /><glyph glyph-name="" unicode="&#x38c;" d="M1121 1480 q-322 -3 -506 -203 q-185 -200 -189 -555 q3 -355 187 -555 q184 -200 508 -204 q324 4 507 204 q183 200 186 555 q-3 354 -187 554 q-183 200 -506 204 l0 0 ZM1121 1215 q178 -2 281 -133 q102 -131 104 -360 q-2 -228 -104 -360 q-103 -131 -281 -134 q-180 3 -282 134 q-102 132 -104 360 q2 229 105 360 q103 131 281 133 l0 0 ZM77 1065 l237 0 l145 378 l-299 0 l-83 -378 Z" /><glyph glyph-name="" unicode="&#x38e;" d="M77 1065 l237 0 l145 378 l-299 0 l-83 -378 ZM1342 0 l0 531 l502 912 l-327 0 l-317 -604 l-18 0 l-318 604 l-327 0 l503 -912 l0 -531 l302 0 Z" /><glyph glyph-name="" unicode="&#x3ab;" d="M877 0 l0 531 l502 912 l-327 0 l-317 -604 l-18 0 l-318 604 l-327 0 l503 -912 l0 -531 l302 0 ZM492 1579 q69 1 111 43 q43 42 44 109 q-1 67 -44 109 q-42 41 -111 42 q-69 -1 -111 -42 q-43 -42 -44 -109 q1 -67 44 -109 q42 -42 111 -43 l0 0 ZM960 1579 q69 1 112 43 q43 42 44 109 q-1 67 -44 109 q-43 41 -112 42 q-68 -1 -111 -42 q-43 -42 -44 -109 q1 -67 44 -109 q43 -42 111 -43 l0 0 Z" /><glyph glyph-name="" unicode="&#x38f;" d="M1535 787 q0 -161 -67 -277 q-67 -116 -206 -196 l0 -314 l577 0 l0 247 l-282 0 l0 18 q133 80 207 224 q74 143 75 322 q-5 302 -194 483 q-190 181 -505 186 q-315 -5 -504 -186 q-189 -181 -194 -483 q1 -179 75 -322 q74 -144 207 -224 l0 -18 l-282 0 l0 -247 l577 0 l0 314 q-139 80 -207 196 q-67 116 -67 277 q2 199 107 313 q105 113 288 115 q184 -2 289 -115 q104 -114 106 -313 l0 0 ZM77 1065 l237 0 l145 378 l-299 0 l-83 -378 Z" /><glyph glyph-name="" unicode="&#x410;" d="M1112 0 l327 0 l-501 1443 l-355 0 l-501 -1443 l303 0 l111 344 l507 0 l109 -344 ZM742 1143 l18 0 l179 -566 l-378 0 l181 566 Z" /><glyph glyph-name="" unicode="&#x4d0;" d="M1112 0 l327 0 l-501 1443 l-355 0 l-501 -1443 l303 0 l111 344 l507 0 l109 -344 ZM742 1143 l18 0 l179 -566 l-378 0 l181 566 ZM367 1915 q2 -149 103 -235 q101 -85 274 -87 q173 2 275 87 q102 86 104 235 l-218 0 q-3 -73 -47 -115 q-43 -41 -114 -42 q-69 1 -112 42 q-44 42 -47 115 l-218 0 Z" /><glyph glyph-name="" unicode="&#x4d2;" d="M1112 0 l327 0 l-501 1443 l-355 0 l-501 -1443 l303 0 l111 344 l507 0 l109 -344 ZM742 1143 l18 0 l179 -566 l-378 0 l181 566 ZM526 1579 q69 1 111 43 q43 42 44 109 q-1 67 -44 109 q-42 41 -111 42 q-69 -1 -111 -42 q-43 -42 -44 -109 q1 -67 44 -109 q42 -42 111 -43 l0 0 ZM994 1579 q69 1 112 43 q43 42 44 109 q-1 67 -44 109 q-43 41 -112 42 q-68 -1 -111 -42 q-43 -42 -44 -109 q1 -67 44 -109 q43 -42 111 -43 l0 0 Z" /><glyph glyph-name="" unicode="&#x411;" d="M1277 457 q-4 204 -142 324 q-139 120 -368 123 l-280 0 l0 281 l657 0 l0 258 l-959 0 l0 -1443 l592 0 q226 3 361 125 q136 123 139 332 l0 0 ZM487 249 l0 418 l214 0 q128 0 197 -54 q69 -53 70 -156 q-1 -102 -70 -155 q-69 -53 -196 -53 l-215 0 Z" /><glyph glyph-name="" unicode="&#x412;" d="M833 0 q233 2 365 112 q132 109 134 301 q-3 142 -93 237 q-91 94 -237 107 l0 18 q113 19 186 105 q73 85 75 203 q-2 169 -118 264 q-117 94 -329 96 l-631 0 l0 -1443 l648 0 ZM487 1212 l252 0 q109 -1 168 -49 q58 -48 59 -135 q0 -88 -65 -135 q-64 -47 -187 -48 l-227 0 l0 367 ZM487 231 l0 410 l262 0 q134 0 204 -51 q71 -52 71 -151 q0 -102 -69 -155 q-68 -53 -199 -53 l-269 0 Z" /><glyph glyph-name="" unicode="&#x413;" d="M488 0 l0 1184 l627 0 l0 259 l-930 0 l0 -1443 l303 0 Z" /><glyph glyph-name="" unicode="&#x403;" d="M755 1573 l314 318 l-315 0 l-277 -318 l278 0 ZM488 0 l0 1184 l627 0 l0 259 l-930 0 l0 -1443 l303 0 Z" /><glyph glyph-name="" unicode="&#x490;" d="M488 1184 l627 0 l0 544 l-273 0 l0 -285 l-657 0 l0 -1443 l303 0 l0 1184 Z" /><glyph glyph-name="" unicode="&#x4f6;" d="M1115 1184 l0 259 l-930 0 l0 -1185 l0 -258 l209 0 l0 -285 l274 0 l0 543 l-180 0 l0 926 l627 0 Z" /><glyph glyph-name="" unicode="&#x492;" d="M1159 1184 l0 259 l-930 0 l0 -632 l-127 0 l0 -217 l127 0 l0 -594 l303 0 l0 594 l418 0 l0 217 l-418 0 l0 373 l627 0 Z" /><glyph glyph-name="" unicode="&#x4fa;" d="M1162 1184 l0 259 l-930 0 l0 -632 l-127 0 l0 -217 l127 0 l0 -235 l0 -359 l0 -11 q1 -66 -32 -96 q-32 -30 -108 -29 q-8 0 -20 0 q-12 1 -17 2 l0 -226 q11 -1 36 -2 q24 -1 42 -1 q196 0 299 86 q102 86 103 257 l0 20 l0 359 l0 235 l418 0 l0 217 l-418 0 l0 373 l627 0 Z" /><glyph glyph-name="" unicode="&#x414;" d="M561 612 l38 574 l455 0 l0 -928 l-584 0 l0 18 q44 54 64 137 q20 82 27 199 l0 0 ZM314 0 l949 0 l0 -285 l273 0 l0 543 l-180 0 l0 1185 l-1023 0 l-50 -806 q-7 -146 -38 -236 q-30 -91 -104 -143 l-101 0 l0 -543 l274 0 l0 285 Z" /><glyph glyph-name="" unicode="&#x415;" d="M1141 258 l-654 0 l0 351 l617 0 l0 239 l-617 0 l0 337 l654 0 l0 258 l-956 0 l0 -1443 l956 0 l0 258 Z" /><glyph glyph-name="" unicode="&#x401;" d="M429 1579 q69 1 111 43 q43 42 44 109 q-1 67 -44 109 q-42 41 -111 42 q-69 -1 -111 -42 q-43 -42 -44 -109 q1 -67 44 -109 q42 -42 111 -43 l0 0 ZM897 1579 q69 1 112 43 q43 42 44 109 q-1 67 -44 109 q-43 41 -112 42 q-68 -1 -111 -42 q-43 -42 -44 -109 q1 -67 44 -109 q43 -42 111 -43 l0 0 ZM1141 258 l-654 0 l0 351 l617 0 l0 239 l-617 0 l0 337 l654 0 l0 258 l-956 0 l0 -1443 l956 0 l0 258 Z" /><glyph glyph-name="" unicode="&#x4d6;" d="M288 1915 q2 -149 103 -235 q101 -85 274 -87 q173 2 275 87 q102 86 104 235 l-218 0 q-3 -73 -47 -115 q-43 -41 -114 -42 q-69 1 -112 42 q-44 42 -47 115 l-218 0 ZM1141 258 l-654 0 l0 351 l617 0 l0 239 l-617 0 l0 337 l654 0 l0 258 l-956 0 l0 -1443 l956 0 l0 258 Z" /><glyph glyph-name="" unicode="&#x400;" d="M536 1590 l277 0 l-276 318 l-315 0 l314 -318 ZM1141 258 l-654 0 l0 351 l617 0 l0 239 l-617 0 l0 337 l654 0 l0 258 l-956 0 l0 -1443 l956 0 l0 258 Z" /><glyph glyph-name="" unicode="&#x416;" d="M1227 828 l0 615 l-297 0 l0 -615 l-49 0 l-455 615 l-331 0 l538 -715 l0 0 l-571 -728 l354 0 l464 593 l50 0 l0 -593 l297 0 l0 593 l50 0 l464 -593 l358 0 l-575 734 l0 0 l534 709 l-328 0 l-455 -615 l-48 0 Z" /><glyph glyph-name="" unicode="&#x4c1;" d="M1227 828 l0 615 l-297 0 l0 -615 l-49 0 l-455 615 l-331 0 l538 -715 l0 0 l-571 -728 l354 0 l464 593 l50 0 l0 -593 l297 0 l0 593 l50 0 l464 -593 l358 0 l-575 734 l0 0 l534 709 l-328 0 l-455 -615 l-48 0 ZM677 1915 q2 -151 107 -242 q106 -92 293 -94 q187 2 293 94 q105 91 107 242 l-208 0 q-2 -76 -53 -119 q-51 -44 -139 -45 q-88 1 -139 45 q-51 43 -53 119 l-208 0 Z" /><glyph glyph-name="" unicode="&#x4dc;" d="M1227 828 l0 615 l-297 0 l0 -615 l-49 0 l-455 615 l-331 0 l538 -715 l0 0 l-571 -728 l354 0 l464 593 l50 0 l0 -593 l297 0 l0 593 l50 0 l464 -593 l358 0 l-575 734 l0 0 l534 709 l-328 0 l-455 -615 l-48 0 ZM843 1579 q69 1 111 43 q43 42 44 109 q-1 67 -44 109 q-42 41 -111 42 q-69 -1 -111 -42 q-43 -42 -44 -109 q1 -67 44 -109 q42 -42 111 -43 l0 0 ZM1311 1579 q69 1 112 43 q43 42 44 109 q-1 67 -44 109 q-43 41 -112 42 q-68 -1 -111 -42 q-43 -42 -44 -109 q1 -67 44 -109 q43 -42 111 -43 l0 0 Z" /><glyph glyph-name="" unicode="&#x496;" d="M1897 258 l-373 476 l534 709 l-328 0 l-455 -615 l-48 0 l0 615 l-297 0 l0 -615 l-49 0 l-455 615 l-331 0 l538 -715 l-571 -728 l354 0 l464 593 l50 0 l0 -593 l297 0 l0 593 l50 0 l464 -593 l5 0 l99 0 l0 -285 l274 0 l0 543 l-222 0 Z" /><glyph glyph-name="" unicode="&#x417;" d="M479 611 l194 0 q129 -1 199 -51 q70 -49 71 -138 q-2 -93 -72 -149 q-71 -56 -192 -58 q-125 1 -200 54 q-75 52 -83 144 l-289 0 q13 -207 165 -327 q152 -120 403 -123 q253 3 413 122 q160 118 165 314 q-2 147 -90 237 q-87 90 -233 106 l0 18 q120 27 193 116 q72 89 74 212 q-4 179 -145 284 q-142 106 -375 108 q-246 -2 -389 -120 q-143 -119 -153 -325 l279 0 q7 94 74 148 q68 54 181 55 q114 -1 176 -51 q62 -51 63 -138 q-2 -89 -66 -142 q-64 -53 -172 -54 l-191 0 l0 -242 Z" /><glyph glyph-name="" unicode="&#x4de;" d="M445 1579 q69 1 111 43 q43 42 44 109 q-1 67 -44 109 q-42 41 -111 42 q-69 -1 -111 -42 q-43 -42 -44 -109 q1 -67 44 -109 q42 -42 111 -43 l0 0 ZM913 1579 q69 1 112 43 q43 42 44 109 q-1 67 -44 109 q-43 41 -112 42 q-68 -1 -111 -42 q-43 -42 -44 -109 q1 -67 44 -109 q43 -42 111 -43 l0 0 ZM479 611 l194 0 q129 -1 199 -51 q70 -49 71 -138 q-2 -93 -72 -149 q-71 -56 -192 -58 q-125 1 -200 54 q-75 52 -83 144 l-289 0 q13 -207 165 -327 q152 -120 403 -123 q253 3 413 122 q160 118 165 314 q-2 147 -90 237 q-87 90 -233 106 l0 18 q120 27 193 116 q72 89 74 212 q-4 179 -145 284 q-142 106 -375 108 q-246 -2 -389 -120 q-143 -119 -153 -325 l279 0 q7 94 74 148 q68 54 181 55 q114 -1 176 -51 q62 -51 63 -138 q-2 -89 -66 -142 q-64 -53 -172 -54 l-191 0 l0 -242 Z" /><glyph glyph-name="" unicode="&#x498;" d="M930 760 q120 27 193 116 q72 89 74 212 q-4 179 -145 284 q-142 106 -375 108 q-246 -2 -389 -120 q-143 -119 -153 -325 l279 0 q7 94 74 148 q68 54 181 55 q114 -1 176 -51 q62 -51 63 -138 q-2 -89 -66 -142 q-64 -53 -172 -54 l-191 0 l0 -242 l194 0 q129 -1 199 -51 q70 -49 71 -138 q-2 -93 -72 -149 q-71 -56 -192 -58 q-125 1 -200 54 q-75 52 -83 144 l-289 0 q10 -179 128 -294 q117 -115 315 -147 l0 -257 l273 0 l0 261 q194 36 310 147 q117 111 120 276 q-2 147 -90 237 q-87 90 -233 106 l0 18 Z" /><glyph glyph-name="" unicode="&#x418;" d="M1143 0 l301 0 l0 1443 l-291 0 l-649 -957 l-18 0 l0 957 l-301 0 l0 -1443 l291 0 l649 956 l18 0 l0 -956 Z" /><glyph glyph-name="" unicode="&#x419;" d="M437 1915 q2 -149 103 -235 q101 -85 274 -87 q173 2 275 87 q102 86 104 235 l-218 0 q-3 -73 -47 -115 q-43 -41 -114 -42 q-69 1 -112 42 q-44 42 -47 115 l-218 0 ZM1143 0 l301 0 l0 1443 l-291 0 l-649 -957 l-18 0 l0 957 l-301 0 l0 -1443 l291 0 l649 956 l18 0 l0 -956 Z" /><glyph glyph-name="" unicode="&#x40d;" d="M706 1590 l277 0 l-276 318 l-315 0 l314 -318 ZM1143 0 l301 0 l0 1443 l-291 0 l-649 -957 l-18 0 l0 957 l-301 0 l0 -1443 l291 0 l649 956 l18 0 l0 -956 Z" /><glyph glyph-name="" unicode="&#x4e2;" d="M1143 0 l301 0 l0 1443 l-291 0 l-649 -957 l-18 0 l0 957 l-301 0 l0 -1443 l291 0 l649 956 l18 0 l0 -956 ZM1203 1813 l-746 0 l0 -181 l746 0 l0 181 Z" /><glyph glyph-name="" unicode="&#x4e4;" d="M602 1579 q69 1 111 43 q43 42 44 109 q-1 67 -44 109 q-42 41 -111 42 q-69 -1 -111 -42 q-43 -42 -44 -109 q1 -67 44 -109 q42 -42 111 -43 l0 0 ZM1070 1579 q69 1 112 43 q43 42 44 109 q-1 67 -44 109 q-43 41 -112 42 q-68 -1 -111 -42 q-43 -42 -44 -109 q1 -67 44 -109 q43 -42 111 -43 l0 0 ZM1143 0 l301 0 l0 1443 l-291 0 l-649 -957 l-18 0 l0 957 l-301 0 l0 -1443 l291 0 l649 956 l18 0 l0 -956 Z" /><glyph glyph-name="" unicode="&#x48a;" d="M975 1915 q-3 -73 -47 -115 q-43 -41 -114 -42 q-69 1 -112 42 q-44 42 -47 115 l-218 0 q2 -149 103 -235 q101 -85 274 -87 q173 2 275 87 q102 86 104 235 l-218 0 ZM1444 258 l0 1185 l-291 0 l-649 -957 l-18 0 l0 957 l-301 0 l0 -1443 l291 0 l649 956 l18 0 l0 -698 l0 -258 l173 0 l-80 -285 l267 0 l120 479 l0 64 l-179 0 Z" /><glyph glyph-name="" unicode="&#x41a;" d="M487 830 l0 613 l-302 0 l0 -1443 l302 0 l0 591 l48 0 l514 -591 l365 0 l-626 737 l0 0 l586 706 l-336 0 l-505 -613 l-46 0 Z" /><glyph glyph-name="" unicode="&#x40c;" d="M850 1573 l314 318 l-315 0 l-277 -318 l278 0 ZM492 830 l0 613 l-302 0 l0 -1443 l302 0 l0 591 l48 0 l514 -591 l365 0 l-626 737 l0 0 l586 706 l-336 0 l-505 -613 l-46 0 Z" /><glyph glyph-name="" unicode="&#x49a;" d="M1195 258 l-407 479 l586 706 l-336 0 l-505 -613 l-46 0 l0 613 l-302 0 l0 -1443 l302 0 l0 591 l48 0 l514 -591 l7 0 l105 0 l0 -285 l273 0 l0 543 l-239 0 Z" /><glyph glyph-name="" unicode="&#x49c;" d="M1073 737 l412 706 l-312 0 l-363 -618 l-30 0 l0 303 l-185 0 l0 -303 l-108 0 l0 618 l-302 0 l0 -1443 l302 0 l0 596 l108 0 l0 -286 l185 0 l0 286 l31 0 l373 -596 l345 0 l-456 737 Z" /><glyph glyph-name="" unicode="&#x49e;" d="M808 737 l581 706 l-336 0 l-500 -613 l-66 0 l0 268 l211 0 l0 216 l-211 0 l0 129 l-302 0 l0 -129 l-156 0 l0 -216 l156 0 l0 -1098 l302 0 l0 591 l68 0 l509 -591 l365 0 l-621 737 Z" /><glyph glyph-name="" unicode="&#x4a0;" d="M1338 737 l586 706 l-336 0 l-505 -613 l-46 0 l0 356 l0 257 l-302 0 l-628 0 l0 -257 l628 0 l0 -1186 l302 0 l0 591 l48 0 l514 -591 l365 0 l-626 737 Z" /><glyph glyph-name="" unicode="&#x4c3;" d="M724 -420 q264 5 422 175 q158 169 162 438 q-2 211 -130 368 q-129 156 -353 220 l1 0 l548 662 l-336 0 l-505 -613 l-20 0 l-26 0 l0 613 l-302 0 l0 -1443 l302 0 l0 573 l27 0 q225 -3 356 -107 q130 -105 133 -281 q-1 -151 -85 -249 q-84 -99 -233 -103 q-25 0 -46 2 q-20 1 -37 4 l0 -248 q21 -5 53 -8 q32 -3 69 -3 l0 0 Z" /><glyph glyph-name="" unicode="&#x41b;" d="M1344 0 l0 1443 l-993 0 l-43 -849 q-5 -143 -44 -234 q-40 -90 -147 -93 q-20 0 -38 3 q-18 3 -29 5 l0 -275 q15 -5 43 -9 q29 -4 66 -4 q221 3 319 160 q97 156 108 426 l35 612 l421 0 l0 -1185 l302 0 Z" /><glyph glyph-name="" unicode="&#x4c5;" d="M1344 258 l0 1185 l-993 0 l-43 -849 q-5 -143 -44 -234 q-40 -90 -147 -93 q-20 0 -38 3 q-18 3 -29 5 l0 -275 q15 -5 43 -9 q29 -4 66 -4 q221 3 319 160 q97 156 108 426 l35 612 l421 0 l0 -927 l0 -258 l173 0 l-80 -285 l267 0 l120 479 l0 64 l-178 0 Z" /><glyph glyph-name="" unicode="&#x52e;" d="M1344 258 l0 1185 l-993 0 l-43 -849 q-5 -143 -44 -234 q-40 -90 -147 -93 q-20 0 -38 3 q-18 3 -29 5 l0 -275 q15 -5 43 -9 q29 -4 66 -4 q221 3 319 160 q97 156 108 426 l35 612 l421 0 l0 -1185 l1 0 l208 0 l0 -285 l274 0 l0 543 l-181 0 Z" /><glyph glyph-name="" unicode="&#x512;" d="M351 1443 l-43 -849 q-5 -143 -44 -234 q-40 -90 -147 -93 q-20 0 -38 3 q-18 3 -29 5 l0 -275 q15 -5 43 -9 q29 -4 66 -4 q221 3 319 160 q97 156 108 426 l35 612 l421 0 l0 -818 l0 -367 l0 -11 q1 -66 -32 -96 q-33 -30 -109 -29 q-7 0 -19 0 q-12 1 -17 2 l0 -226 q11 -1 36 -2 q24 -1 41 -1 q198 0 300 86 q102 86 102 257 l0 20 l0 367 l0 1076 l-993 0 Z" /><glyph glyph-name="" unicode="&#x41c;" d="M1713 0 l0 1443 l-355 0 l-400 -970 l-18 0 l-399 970 l-356 0 l0 -1443 l280 0 l0 965 l16 0 l368 -882 l201 0 l367 882 l16 0 l0 -965 l280 0 Z" /><glyph glyph-name="" unicode="&#x4cd;" d="M1713 258 l0 1185 l-355 0 l-400 -970 l-18 0 l-399 970 l-356 0 l0 -1443 l280 0 l0 965 l16 0 l368 -882 l201 0 l367 882 l16 0 l0 -965 l1 0 l172 0 l-79 -285 l266 0 l121 479 l0 64 l-201 0 Z" /><glyph glyph-name="" unicode="&#x41d;" d="M1439 0 l0 1443 l-302 0 l0 -582 l-650 0 l0 582 l-302 0 l0 -1443 l302 0 l0 603 l650 0 l0 -603 l302 0 Z" /><glyph glyph-name="" unicode="&#x4c7;" d="M1137 1443 l0 -582 l-650 0 l0 582 l-302 0 l0 -1443 l302 0 l0 603 l650 0 l0 -244 l0 -359 l0 -11 q1 -66 -32 -96 q-32 -30 -108 -29 q-8 0 -20 0 q-12 1 -17 2 l0 -226 q11 -1 36 -2 q24 -1 42 -1 q198 0 300 86 q101 86 101 257 l0 20 l0 359 l0 1084 l-302 0 Z" /><glyph glyph-name="" unicode="&#x4a2;" d="M1439 258 l0 1185 l-302 0 l0 -582 l-650 0 l0 582 l-302 0 l0 -1443 l302 0 l0 603 l650 0 l0 -345 l0 -258 l209 0 l0 -285 l273 0 l0 543 l-180 0 Z" /><glyph glyph-name="" unicode="&#x4c9;" d="M1439 258 l0 1185 l-302 0 l0 -582 l-650 0 l0 582 l-302 0 l0 -1443 l302 0 l0 603 l650 0 l0 -603 l2 0 l172 0 l-79 -285 l266 0 l121 479 l0 64 l-180 0 Z" /><glyph glyph-name="" unicode="&#x4a4;" d="M2067 1443 l-628 0 l-302 0 l0 -257 l0 -325 l-650 0 l0 582 l-302 0 l0 -1443 l302 0 l0 603 l650 0 l0 -603 l302 0 l0 1186 l628 0 l0 257 Z" /><glyph glyph-name="" unicode="&#x41e;" d="M816 1480 q-322 -3 -506 -203 q-185 -200 -189 -555 q3 -355 187 -555 q184 -200 508 -204 q324 4 507 204 q183 200 186 555 q-3 354 -187 554 q-183 200 -506 204 l0 0 ZM816 1215 q178 -2 281 -133 q102 -131 104 -360 q-2 -228 -104 -360 q-103 -131 -281 -134 q-180 3 -282 134 q-102 132 -104 360 q2 229 105 360 q103 131 281 133 l0 0 Z" /><glyph glyph-name="" unicode="&#x4e6;" d="M582 1579 q69 1 111 43 q43 42 44 109 q-1 67 -44 109 q-42 41 -111 42 q-69 -1 -111 -42 q-43 -42 -44 -109 q1 -67 44 -109 q42 -42 111 -43 l0 0 ZM1050 1579 q69 1 112 43 q43 42 44 109 q-1 67 -44 109 q-43 41 -112 42 q-68 -1 -111 -42 q-43 -42 -44 -109 q1 -67 44 -109 q43 -42 111 -43 l0 0 ZM816 1480 q-322 -3 -506 -203 q-185 -200 -189 -555 q3 -355 187 -555 q184 -200 508 -204 q324 4 507 204 q183 200 186 555 q-3 354 -187 554 q-183 200 -506 204 l0 0 ZM816 1215 q178 -2 281 -133 q102 -131 104 -360 q-2 -228 -104 -360 q-103 -131 -281 -134 q-180 3 -282 134 q-102 132 -104 360 q2 229 105 360 q103 131 281 133 l0 0 Z" /><glyph glyph-name="" unicode="&#x4e8;" d="M1196 613 q-25 -181 -124 -284 q-99 -102 -256 -104 q-158 2 -257 104 q-100 103 -125 284 l762 0 ZM437 851 q30 173 129 269 q99 96 250 98 q151 -2 250 -98 q98 -96 127 -269 l-756 0 ZM816 1480 q-322 -3 -506 -203 q-185 -200 -189 -555 q3 -355 187 -555 q184 -200 508 -204 q324 4 507 204 q183 200 186 555 q-3 354 -187 554 q-183 200 -506 204 l0 0 Z" /><glyph glyph-name="" unicode="&#x4ea;" d="M1044 1579 q69 1 112 43 q43 42 44 109 q-1 67 -44 109 q-43 41 -112 42 q-68 -1 -111 -42 q-43 -42 -44 -109 q1 -67 44 -109 q43 -42 111 -43 l0 0 ZM576 1579 q69 1 111 43 q43 42 44 109 q-1 67 -44 109 q-42 41 -111 42 q-69 -1 -111 -42 q-43 -42 -44 -109 q1 -67 44 -109 q42 -42 111 -43 l0 0 ZM1196 613 q-25 -181 -124 -284 q-99 -102 -256 -104 q-158 2 -257 104 q-100 103 -125 284 l762 0 ZM437 851 q30 173 129 269 q99 96 250 98 q151 -2 250 -98 q98 -96 127 -269 l-756 0 ZM816 1480 q-322 -3 -506 -203 q-185 -200 -189 -555 q3 -355 187 -555 q184 -200 508 -204 q324 4 507 204 q183 200 186 555 q-3 354 -187 554 q-183 200 -506 204 l0 0 Z" /><glyph glyph-name="" unicode="&#x472;" d="M816 225 q-154 2 -253 100 q-98 98 -127 272 q21 24 60 40 q40 16 101 17 q102 -5 195 -44 q93 -38 225 -44 q52 0 98 15 q46 15 83 46 q-23 -187 -123 -294 q-99 -106 -259 -108 l0 0 ZM816 1218 q151 -2 249 -97 q98 -96 128 -267 q-21 -25 -62 -41 q-40 -16 -102 -17 q-107 6 -200 44 q-93 39 -224 44 q-50 0 -94 -15 q-43 -15 -78 -44 q25 184 125 288 q100 103 258 105 l0 0 ZM816 1480 q-322 -3 -506 -203 q-185 -200 -189 -555 q3 -355 187 -555 q184 -200 508 -204 q324 4 507 204 q183 200 186 555 q-3 354 -187 554 q-183 200 -506 204 l0 0 Z" /><glyph glyph-name="" unicode="&#x41f;" d="M1424 0 l0 1443 l-1239 0 l0 -1443 l303 0 l0 1184 l635 0 l0 -1184 l301 0 Z" /><glyph glyph-name="" unicode="&#x524;" d="M1424 258 l0 1185 l-1239 0 l0 -1443 l303 0 l0 1184 l635 0 l0 -926 l0 -258 l207 0 l0 -285 l274 0 l0 543 l-180 0 Z" /><glyph glyph-name="" unicode="&#x40f;" d="M663 0 l0 -285 l283 0 l0 285 l478 0 l0 1443 l-302 0 l0 -1185 l-635 0 l0 1185 l-302 0 l0 -1443 l478 0 Z" /><glyph glyph-name="" unicode="&#x420;" d="M185 1443 l0 -1443 l302 0 l0 448 l285 0 q232 3 372 137 q139 133 143 359 q-3 228 -139 362 q-135 134 -361 137 l-602 0 ZM487 1195 l220 0 q131 0 202 -64 q70 -65 71 -188 q-1 -122 -72 -186 q-71 -64 -202 -64 l-219 0 l0 502 Z" /><glyph glyph-name="" unicode="&#x48e;" d="M487 690 l0 505 l220 0 q132 0 204 -64 q71 -65 72 -188 q0 -60 -17 -106 q-18 -46 -51 -78 l-129 196 l-145 -94 l108 -169 q-10 -1 -21 -1 q-11 -1 -22 -1 l-219 0 ZM185 1443 l0 -1443 l302 0 l0 450 l249 0 q72 0 135 12 l151 -237 l185 130 l-126 191 q98 66 152 168 q53 102 54 230 q-3 228 -139 362 q-135 134 -361 137 l-602 0 Z" /><glyph glyph-name="" unicode="&#x421;" d="M798 -37 q265 4 435 147 q169 142 192 380 l-294 0 q-24 -121 -112 -190 q-88 -70 -220 -71 q-173 2 -270 133 q-97 130 -99 360 q2 230 99 360 q97 130 269 132 q131 -2 220 -75 q88 -74 112 -200 l294 0 q-21 240 -193 388 q-171 149 -433 153 q-317 -3 -496 -203 q-178 -200 -181 -555 q3 -356 182 -556 q178 -200 495 -203 l0 0 Z" /><glyph glyph-name="" unicode="&#x4aa;" d="M1131 490 q-24 -121 -112 -190 q-88 -70 -220 -71 q-173 2 -270 133 q-97 130 -99 360 q2 230 99 360 q97 130 269 132 q131 -2 220 -75 q88 -74 112 -200 l294 0 q-21 240 -193 388 q-171 149 -433 153 q-317 -3 -496 -203 q-178 -200 -181 -555 q2 -328 156 -525 q153 -196 428 -229 l-37 -88 l0 -116 l60 0 q69 0 100 -13 q31 -13 30 -43 q0 -29 -28 -44 q-28 -15 -84 -15 q-31 0 -65 4 q-34 5 -51 10 l0 -134 q28 -8 66 -13 q37 -5 81 -5 q129 1 198 55 q68 53 69 150 q0 81 -51 126 q-50 45 -145 51 l31 74 q233 26 379 166 q146 139 167 357 l-294 0 Z" /><glyph glyph-name="" unicode="&#x422;" d="M837 0 l0 1185 l433 0 l0 258 l-1168 0 l0 -258 l433 0 l0 -1185 l302 0 Z" /><glyph glyph-name="" unicode="&#x4ac;" d="M1270 1185 l0 258 l-1168 0 l0 -258 l433 0 l0 -927 l0 -258 l209 0 l0 -285 l273 0 l0 543 l-180 0 l0 927 l433 0 Z" /><glyph glyph-name="" unicode="&#x423;" d="M389 -13 q200 1 315 112 q114 110 197 314 l442 1030 l-318 0 l-299 -789 l-18 0 l-310 789 l-321 0 l479 -1095 q-37 -57 -87 -79 q-50 -23 -116 -22 q-43 0 -63 4 q-21 3 -25 5 l0 -255 q6 -2 40 -8 q34 -5 84 -6 l0 0 Z" /><glyph glyph-name="" unicode="&#x40e;" d="M326 1915 q2 -149 103 -235 q101 -85 274 -87 q173 2 275 87 q102 86 104 235 l-218 0 q-3 -73 -47 -115 q-43 -41 -114 -42 q-69 1 -112 42 q-44 42 -47 115 l-218 0 ZM389 -13 q200 1 315 112 q114 110 197 314 l442 1030 l-318 0 l-299 -789 l-18 0 l-310 789 l-321 0 l479 -1095 q-37 -57 -87 -79 q-50 -23 -116 -22 q-43 0 -63 4 q-21 3 -25 5 l0 -255 q6 -2 40 -8 q34 -5 84 -6 l0 0 Z" /><glyph glyph-name="" unicode="&#x4ee;" d="M389 -13 q200 1 315 112 q114 110 197 314 l442 1030 l-318 0 l-299 -789 l-18 0 l-310 789 l-321 0 l479 -1095 q-37 -57 -87 -79 q-50 -23 -116 -22 q-43 0 -63 4 q-21 3 -25 5 l0 -255 q6 -2 40 -8 q34 -5 84 -6 l0 0 ZM1103 1813 l-746 0 l0 -181 l746 0 l0 181 Z" /><glyph glyph-name="" unicode="&#x4f0;" d="M487 1579 q69 1 111 43 q43 42 44 109 q-1 67 -44 109 q-42 41 -111 42 q-69 -1 -111 -42 q-43 -42 -44 -109 q1 -67 44 -109 q42 -42 111 -43 l0 0 ZM955 1579 q69 1 112 43 q43 42 44 109 q-1 67 -44 109 q-43 41 -112 42 q-68 -1 -111 -42 q-43 -42 -44 -109 q1 -67 44 -109 q43 -42 111 -43 l0 0 ZM389 -13 q200 1 315 112 q114 110 197 314 l442 1030 l-318 0 l-299 -789 l-18 0 l-310 789 l-321 0 l479 -1095 q-37 -57 -87 -79 q-50 -23 -116 -22 q-43 0 -63 4 q-21 3 -25 5 l0 -255 q6 -2 40 -8 q34 -5 84 -6 l0 0 Z" /><glyph glyph-name="" unicode="&#x4f2;" d="M389 -13 q200 1 315 112 q114 110 197 314 l442 1030 l-318 0 l-299 -789 l-18 0 l-310 789 l-321 0 l479 -1095 q-37 -57 -87 -79 q-50 -23 -116 -22 q-43 0 -63 4 q-21 3 -25 5 l0 -255 q6 -2 40 -8 q34 -5 84 -6 l0 0 ZM1038 1590 l278 318 l-270 0 l-252 -318 l244 0 ZM601 1590 l278 318 l-271 0 l-251 -318 l244 0 Z" /><glyph glyph-name="" unicode="&#x424;" d="M786 374 q-166 9 -263 100 q-97 91 -99 250 q2 159 100 250 q97 91 262 100 l0 -700 ZM1439 723 q-2 -159 -99 -250 q-98 -90 -262 -99 l0 700 q166 -9 262 -100 q97 -92 99 -251 l0 0 ZM782 123 l0 -154 l299 0 l0 154 q299 12 479 166 q179 154 184 434 q-4 280 -183 435 q-179 155 -480 166 l0 150 l-299 0 l0 -150 q-299 -11 -479 -166 q-179 -154 -184 -434 q4 -280 183 -435 q179 -155 480 -166 l0 0 Z" /><glyph glyph-name="" unicode="&#x425;" d="M98 0 l326 0 l314 489 l18 0 l310 -489 l344 0 l-468 722 l0 0 l475 721 l-338 0 l-304 -505 l-18 0 l-301 505 l-355 0 l458 -716 l0 0 l-461 -727 Z" /><glyph glyph-name="" unicode="&#x4b2;" d="M1243 258 l-301 464 l475 721 l-338 0 l-304 -505 l-18 0 l-301 505 l-355 0 l458 -716 l-461 -727 l326 0 l314 489 l18 0 l310 -489 l116 0 l0 -285 l273 0 l0 543 l-212 0 Z" /><glyph glyph-name="" unicode="&#x4fe;" d="M1308 629 l0 195 l-299 0 l408 619 l-338 0 l-304 -505 l-18 0 l-301 505 l-355 0 l396 -619 l-300 0 l0 -195 l300 0 l-399 -629 l326 0 l314 489 l18 0 l310 -489 l344 0 l-408 629 l306 0 Z" /><glyph glyph-name="" unicode="&#x4fc;" d="M101 1443 l458 -716 l-461 -727 l326 0 l314 489 l18 0 l184 -290 q30 -46 52 -84 q21 -38 37 -69 q15 -30 21 -56 q6 -25 6 -50 q-1 -49 -36 -77 q-35 -28 -92 -29 q-21 0 -37 1 q-17 2 -32 4 l0 -239 q20 -4 52 -6 q32 -3 74 -3 q169 2 269 95 q101 92 103 248 q0 51 -12 102 q-13 51 -43 112 q-23 46 -53 96 q-29 51 -68 111 l-239 367 l475 721 l-338 0 l-304 -505 l-18 0 l-301 505 l-355 0 Z" /><glyph glyph-name="" unicode="&#x426;" d="M1604 -285 l0 543 l-180 0 l0 1185 l-302 0 l0 -1185 l-635 0 l0 1185 l-302 0 l0 -1443 l1146 0 l0 -285 l273 0 Z" /><glyph glyph-name="" unicode="&#x4b4;" d="M1769 258 l0 1185 l-302 0 l0 -1185 l-645 0 l0 927 l413 0 l0 258 l-413 0 l-302 0 l-418 0 l0 -258 l418 0 l0 -1185 l1155 0 l0 -285 l274 0 l0 543 l-180 0 Z" /><glyph glyph-name="" unicode="&#x427;" d="M1339 0 l0 1443 l-302 0 l0 -573 q-44 -45 -119 -76 q-75 -30 -175 -31 q-147 1 -224 77 q-76 76 -77 215 l0 388 l-302 0 l0 -414 q2 -239 144 -385 q141 -146 399 -150 q103 0 189 26 q86 25 147 71 l18 0 l0 -591 l302 0 Z" /><glyph glyph-name="" unicode="&#x4f4;" d="M1339 0 l0 1443 l-302 0 l0 -573 q-44 -45 -119 -76 q-75 -30 -175 -31 q-147 1 -224 77 q-76 76 -77 215 l0 388 l-302 0 l0 -414 q2 -239 144 -385 q141 -146 399 -150 q103 0 189 26 q86 25 147 71 l18 0 l0 -591 l302 0 ZM506 1579 q69 1 111 43 q43 42 44 109 q-1 67 -44 109 q-42 41 -111 42 q-69 -1 -111 -42 q-43 -42 -44 -109 q1 -67 44 -109 q42 -42 111 -43 l0 0 ZM974 1579 q69 1 112 43 q43 42 44 109 q-1 67 -44 109 q-43 41 -112 42 q-68 -1 -111 -42 q-43 -42 -44 -109 q1 -67 44 -109 q43 -42 111 -43 l0 0 Z" /><glyph glyph-name="" unicode="&#x4b6;" d="M1339 258 l0 1185 l-302 0 l0 -573 q-44 -45 -119 -76 q-75 -30 -175 -31 q-147 1 -224 77 q-76 76 -77 215 l0 388 l-302 0 l0 -414 q2 -239 144 -385 q141 -146 399 -150 q103 0 189 26 q86 25 147 71 l18 0 l0 -333 l0 -258 l209 0 l0 -285 l273 0 l0 543 l-180 0 Z" /><glyph glyph-name="" unicode="&#x4cb;" d="M1037 1443 l0 -573 q-44 -45 -119 -76 q-75 -30 -175 -31 q-147 1 -224 77 q-76 76 -77 215 l0 388 l-302 0 l0 -414 q2 -239 144 -385 q141 -146 399 -150 q103 0 189 26 q86 25 147 71 l18 0 l0 -333 l-180 0 l0 -543 l274 0 l0 285 l208 0 l0 258 l0 1185 l-302 0 Z" /><glyph glyph-name="" unicode="&#x4b8;" d="M1057 1443 l0 -573 q-32 -33 -82 -59 q-51 -25 -116 -38 l0 286 l-201 0 l0 -288 q-109 22 -162 94 q-54 73 -54 190 l0 388 l-302 0 l0 -414 q2 -231 138 -375 q136 -145 380 -159 l0 -215 l201 0 l0 232 q53 12 98 32 q46 20 82 47 l18 0 l0 -591 l302 0 l0 1443 l-302 0 Z" /><glyph glyph-name="" unicode="&#x4ba;" d="M185 1443 l0 -1443 l302 0 l0 543 q39 76 119 118 q80 41 188 42 q135 -1 211 -76 q76 -76 77 -217 l0 -410 l302 0 l0 450 q-4 243 -145 381 q-141 137 -376 140 q-113 -1 -203 -32 q-90 -32 -155 -86 l-18 0 l0 590 l-302 0 Z" /><glyph glyph-name="" unicode="&#x526;" d="M1384 258 l0 192 q-4 243 -145 381 q-141 137 -376 140 q-113 -1 -203 -32 q-90 -32 -155 -86 l-18 0 l0 590 l-302 0 l0 -1443 l302 0 l0 543 q39 76 119 118 q80 41 188 42 q135 -1 211 -76 q76 -76 77 -217 l0 -152 l0 -258 l209 0 l0 -285 l273 0 l0 543 l-180 0 Z" /><glyph glyph-name="" unicode="&#x40b;" d="M1123 640 q128 -2 191 -76 q62 -74 62 -198 l0 -366 l302 0 l0 385 q0 227 -123 372 q-123 144 -371 149 q-111 -1 -193 -33 q-82 -33 -137 -85 l-17 0 l0 397 l433 0 l0 258 l-1168 0 l0 -258 l433 0 l0 -1185 l302 0 l0 482 q22 47 89 100 q67 53 197 58 l0 0 Z" /><glyph glyph-name="" unicode="&#x428;" d="M185 0 l1726 0 l0 1443 l-302 0 l0 -1185 l-410 0 l0 1185 l-302 0 l0 -1185 l-410 0 l0 1185 l-302 0 l0 -1443 Z" /><glyph glyph-name="" unicode="&#x429;" d="M2091 -285 l0 543 l-180 0 l0 1185 l-302 0 l0 -1185 l-410 0 l0 1185 l-302 0 l0 -1185 l-410 0 l0 1185 l-302 0 l0 -1443 l1633 0 l0 -285 l273 0 Z" /><glyph glyph-name="" unicode="&#x42a;" d="M1041 0 q226 3 361 132 q136 130 139 350 q-4 220 -143 349 q-140 130 -372 133 l-280 0 l0 479 l-637 0 l0 -257 l335 0 l0 -1186 l597 0 ZM746 249 l0 469 l214 0 q130 0 201 -60 q70 -60 71 -175 q-1 -114 -71 -174 q-70 -60 -200 -60 l-215 0 Z" /><glyph glyph-name="" unicode="&#x42b;" d="M1747 0 l0 1443 l-302 0 l0 -1443 l302 0 ZM185 0 l597 0 q226 3 361 132 q136 130 139 350 q-4 220 -143 349 q-140 130 -372 133 l-280 0 l0 479 l-302 0 l0 -1443 ZM487 249 l0 469 l214 0 q130 0 201 -60 q70 -60 71 -175 q-1 -114 -71 -174 q-70 -60 -200 -60 l-215 0 Z" /><glyph glyph-name="" unicode="&#x4f8;" d="M1747 0 l0 1443 l-302 0 l0 -1443 l302 0 ZM185 0 l597 0 q226 3 361 132 q136 130 139 350 q-4 220 -143 349 q-140 130 -372 133 l-280 0 l0 479 l-302 0 l0 -1443 ZM487 249 l0 469 l214 0 q130 0 201 -60 q70 -60 71 -175 q-1 -114 -71 -174 q-70 -60 -200 -60 l-215 0 ZM721 1579 q69 1 111 43 q43 42 44 109 q-1 67 -44 109 q-42 41 -111 42 q-69 -1 -111 -42 q-43 -42 -44 -109 q1 -67 44 -109 q42 -42 111 -43 l0 0 ZM1189 1579 q69 1 112 43 q43 42 44 109 q-1 67 -44 109 q-43 41 -112 42 q-68 -1 -111 -42 q-43 -42 -44 -109 q1 -67 44 -109 q43 -42 111 -43 l0 0 Z" /><glyph glyph-name="" unicode="&#x48c;" d="M655 249 l0 447 l219 0 q128 0 197 -58 q69 -57 70 -166 q-1 -109 -70 -166 q-68 -57 -196 -57 l-220 0 ZM655 942 l0 196 l404 0 l0 222 l-404 0 l0 164 l-302 0 l0 -164 l-335 0 l0 -222 l335 0 l0 -1138 l602 0 q223 3 357 129 q135 127 138 342 q-4 215 -142 341 q-139 127 -368 130 l-285 0 Z" /><glyph glyph-name="" unicode="&#x462;" d="M655 249 l0 447 l219 0 q128 0 197 -58 q69 -57 70 -166 q-1 -109 -70 -166 q-68 -57 -196 -57 l-220 0 ZM655 942 l0 196 l404 0 l0 222 l-404 0 l0 164 l-302 0 l0 -164 l-335 0 l0 -222 l335 0 l0 -1138 l602 0 q223 3 357 129 q135 127 138 342 q-4 215 -142 341 q-139 127 -368 130 l-285 0 Z" /><glyph glyph-name="" unicode="&#x42c;" d="M185 0 l597 0 q226 3 361 132 q136 130 139 350 q-4 220 -143 349 q-140 130 -372 133 l-280 0 l0 479 l-302 0 l0 -1443 ZM487 249 l0 469 l214 0 q130 0 201 -60 q70 -60 71 -175 q-1 -114 -71 -174 q-70 -60 -200 -60 l-215 0 Z" /><glyph glyph-name="" unicode="&#x409;" d="M596 573 l35 612 l421 0 l0 -1185 l597 0 q225 3 361 132 q135 130 138 350 q-4 220 -143 349 q-140 130 -372 133 l-279 0 l0 479 l-993 0 l-43 -849 q-5 -143 -44 -234 q-40 -90 -147 -93 q-20 0 -38 3 q-18 3 -29 5 l0 -275 q15 -5 43 -9 q29 -4 66 -4 q221 3 319 160 q97 156 108 426 l0 0 ZM1354 249 l0 469 l213 0 q130 0 201 -60 q71 -60 72 -175 q-1 -114 -71 -174 q-71 -60 -200 -60 l-215 0 Z" /><glyph glyph-name="" unicode="&#x40a;" d="M487 620 l620 0 l0 -620 l597 0 q226 3 361 121 q136 119 139 321 q-4 196 -143 312 q-140 115 -372 118 l-280 0 l0 571 l-302 0 l0 -571 l-620 0 l0 571 l-302 0 l0 -1443 l302 0 l0 620 ZM1409 249 l0 377 l229 0 q124 0 192 -47 q68 -47 69 -137 q-1 -94 -68 -143 q-68 -50 -192 -50 l-230 0 Z" /><glyph glyph-name="" unicode="&#x42d;" d="M744 -37 q318 3 497 203 q179 200 182 557 q-3 356 -182 555 q-179 199 -496 202 q-269 -5 -444 -151 q-175 -146 -196 -379 l294 0 q24 120 117 191 q93 71 230 73 q151 -1 249 -96 q97 -95 116 -267 l-570 0 l0 -241 l571 0 q-16 -178 -114 -279 q-97 -100 -253 -102 q-138 2 -231 69 q-92 68 -116 181 l-294 0 q23 -231 196 -372 q172 -140 444 -144 l0 0 Z" /><glyph glyph-name="" unicode="&#x4ec;" d="M744 -37 q318 3 497 203 q179 200 182 557 q-3 356 -182 555 q-179 199 -496 202 q-269 -5 -444 -151 q-175 -146 -196 -379 l294 0 q24 120 117 191 q93 71 230 73 q151 -1 249 -96 q97 -95 116 -267 l-570 0 l0 -241 l571 0 q-16 -178 -114 -279 q-97 -100 -253 -102 q-138 2 -231 69 q-92 68 -116 181 l-294 0 q23 -231 196 -372 q172 -140 444 -144 l0 0 ZM505 1579 q69 1 111 43 q43 42 44 109 q-1 67 -44 109 q-42 41 -111 42 q-69 -1 -111 -42 q-43 -42 -44 -109 q1 -67 44 -109 q42 -42 111 -43 l0 0 ZM973 1579 q69 1 112 43 q43 42 44 109 q-1 67 -44 109 q-43 41 -112 42 q-68 -1 -111 -42 q-43 -42 -44 -109 q1 -67 44 -109 q43 -42 111 -43 l0 0 Z" /><glyph glyph-name="" unicode="&#x42e;" d="M1376 -37 q319 4 499 204 q181 200 184 555 q-3 354 -184 554 q-181 200 -499 204 q-285 -3 -461 -165 q-177 -163 -215 -454 l-213 0 l0 582 l-302 0 l0 -1443 l302 0 l0 603 l211 0 q32 -301 209 -469 q177 -168 469 -171 l0 0 ZM1375 1215 q174 -2 274 -133 q100 -131 102 -360 q-2 -228 -102 -360 q-100 -131 -274 -134 q-175 3 -275 134 q-100 132 -102 360 q2 229 103 360 q101 131 274 133 l0 0 Z" /><glyph glyph-name="" unicode="&#x42f;" d="M967 748 l-244 0 q-123 1 -190 60 q-67 58 -68 165 q1 106 69 165 q67 59 188 60 l245 0 l0 -450 ZM765 518 l202 0 l0 -518 l299 0 l0 1443 l-586 0 q-244 -3 -383 -129 q-138 -127 -141 -340 q2 -153 86 -260 q84 -107 225 -153 l-379 -561 l334 0 l343 518 Z" /><glyph glyph-name="" unicode="&#x494;" d="M1090 1443 l-905 0 l0 -1443 l302 0 l0 482 q37 70 117 114 q79 43 179 44 q120 -1 188 -63 q68 -61 69 -169 q-1 -110 -63 -170 q-62 -60 -171 -61 q-47 0 -78 5 q-31 4 -41 7 l0 -244 q10 -4 49 -10 q38 -6 97 -7 q240 3 374 138 q134 134 136 362 q-1 210 -130 342 q-129 132 -370 136 q-105 0 -191 -31 q-87 -31 -148 -88 l-17 0 l0 398 l603 0 l0 258 Z" /><glyph glyph-name="" unicode="&#x4a6;" d="M185 1443 l0 -1443 l303 0 l0 1184 l580 0 l0 -1184 l301 0 l0 482 q38 72 118 114 q79 43 178 44 q120 -1 187 -63 q68 -61 69 -169 q-1 -109 -62 -169 q-61 -61 -172 -62 q-35 0 -68 4 q-32 3 -50 8 l0 -244 q23 -8 63 -12 q40 -5 83 -5 q236 3 371 135 q135 133 138 365 q-3 221 -136 348 q-133 127 -363 130 q-102 0 -189 -31 q-87 -30 -150 -88 l-17 0 l0 656 l-1184 0 Z" /><glyph glyph-name="" unicode="&#x404;" d="M1440 479 l-294 0 q-23 -113 -113 -181 q-90 -67 -226 -69 q-159 2 -259 104 q-99 102 -115 277 l570 0 l0 241 l-567 0 q19 170 118 266 q98 95 252 97 q135 -2 225 -73 q90 -71 114 -191 l294 0 q-21 233 -194 379 q-173 146 -439 151 q-320 -3 -501 -202 q-181 -200 -184 -556 q3 -357 184 -556 q182 -200 502 -203 q269 4 440 144 q170 141 193 372 l0 0 Z" /><glyph glyph-name="" unicode="&#x4c0;" d="M487 0 l0 1443 l-302 0 l0 -1443 l302 0 Z" /><glyph glyph-name="" unicode="&#x406;" d="M487 0 l0 1443 l-302 0 l0 -1443 l302 0 Z" /><glyph glyph-name="" unicode="&#x407;" d="M487 0 l0 1443 l-302 0 l0 -1443 l302 0 ZM102 1579 q69 1 111 43 q43 42 44 109 q-1 67 -44 109 q-42 41 -111 42 q-69 -1 -111 -42 q-43 -42 -44 -109 q1 -67 44 -109 q42 -42 111 -43 l0 0 ZM570 1579 q69 1 112 43 q43 42 44 109 q-1 67 -44 109 q-43 41 -112 42 q-68 -1 -111 -42 q-43 -42 -44 -109 q1 -67 44 -109 q43 -42 111 -43 l0 0 Z" /><glyph glyph-name="" unicode="&#x4a8;" d="M1329 1045 q98 -2 155 -74 q57 -71 58 -189 q-1 -138 -58 -255 q-57 -118 -159 -194 q-103 80 -157 196 q-54 115 -54 246 q0 120 55 194 q54 74 160 76 l0 0 ZM1893 283 q-47 -30 -106 -48 q-59 -18 -118 -18 q-23 0 -46 2 q-23 2 -46 5 q117 104 186 251 q70 147 72 312 q-3 236 -138 374 q-136 137 -369 140 q-232 -5 -367 -153 q-135 -148 -138 -383 q1 -161 62 -296 q62 -136 177 -237 q-28 -4 -57 -6 q-30 -2 -62 -2 q-229 4 -371 147 q-142 142 -146 372 q1 175 96 301 q95 125 271 165 l0 278 q-305 -33 -486 -234 q-182 -202 -186 -505 q4 -351 223 -564 q218 -213 597 -219 q105 0 198 22 q93 21 177 67 q78 -45 164 -68 q87 -23 186 -23 q87 0 168 24 q82 23 155 72 l-96 224 Z" /><glyph glyph-name="" unicode="&#x4ae;" d="M877 0 l0 531 l502 912 l-327 0 l-317 -604 l-18 0 l-318 604 l-327 0 l503 -912 l0 -531 l302 0 Z" /><glyph glyph-name="" unicode="&#x4b0;" d="M1379 1443 l-327 0 l-317 -604 l-18 0 l-318 604 l-327 0 l437 -792 l-284 0 l0 -205 l350 0 l0 -446 l302 0 l0 446 l350 0 l0 205 l-284 0 l436 792 Z" /><glyph glyph-name="" unicode="&#x4bc;" d="M729 887 q21 154 112 242 q90 88 226 90 q146 -1 235 -89 q89 -87 101 -243 l-674 0 ZM724 660 l995 0 q0 4 1 44 q1 39 1 64 q-3 337 -173 523 q-170 186 -476 189 q-265 -3 -434 -158 q-169 -155 -216 -426 q-70 3 -104 39 q-35 35 -35 95 q2 53 15 91 q12 38 14 40 l-242 0 q-2 -1 -17 -45 q-16 -45 -18 -125 q1 -143 97 -234 q96 -90 277 -97 q19 -328 199 -511 q179 -183 485 -186 q244 3 409 127 q166 124 205 329 l-301 0 q-33 -96 -113 -145 q-80 -50 -199 -50 q-170 2 -269 111 q-100 109 -101 296 l0 29 Z" /><glyph glyph-name="" unicode="&#x4be;" d="M1307 1579 q69 1 112 43 q43 42 44 109 q-1 67 -44 109 q-43 41 -112 42 q-68 -1 -111 -42 q-43 -42 -44 -109 q1 -67 44 -109 q43 -42 111 -43 l0 0 ZM839 1579 q69 1 111 43 q43 42 44 109 q-1 67 -44 109 q-42 41 -111 42 q-69 -1 -111 -42 q-43 -42 -44 -109 q1 -67 44 -109 q42 -42 111 -43 l0 0 ZM729 887 q21 154 112 242 q90 88 226 90 q146 -1 235 -89 q89 -87 101 -243 l-674 0 ZM724 660 l995 0 q0 4 1 44 q1 39 1 64 q-3 337 -173 523 q-170 186 -476 189 q-265 -3 -434 -158 q-169 -155 -216 -426 q-70 3 -104 39 q-35 35 -35 95 q2 53 15 91 q12 38 14 40 l-242 0 q-2 -1 -17 -45 q-16 -45 -18 -125 q1 -143 97 -234 q96 -90 277 -97 q16 -288 159 -466 q142 -177 387 -220 l0 -259 l273 0 l0 260 q192 35 319 152 q128 117 160 292 l-301 0 q-33 -96 -113 -145 q-80 -50 -199 -50 q-170 2 -269 111 q-100 109 -101 296 l0 29 Z" /><glyph glyph-name="" unicode="&#x4d4;" d="M871 1202 l129 0 l0 -604 l-378 0 l249 604 ZM1000 0 l927 0 l0 258 l-651 0 l0 347 l614 0 l0 239 l-614 0 l0 341 l651 0 l0 258 l-1250 0 l-595 -1443 l299 0 l154 364 l465 0 l0 -364 Z" /><glyph glyph-name="" unicode="&#x4d8;" d="M770 -37 q300 5 478 208 q178 203 182 549 q-4 350 -184 553 q-181 203 -493 207 q-238 -2 -403 -121 q-165 -120 -223 -335 l306 0 q37 90 115 142 q78 52 204 53 q161 -3 260 -114 q100 -111 101 -292 l0 -16 l-999 0 q0 -2 -1 -36 q-2 -34 -2 -73 q4 -330 175 -525 q171 -195 484 -200 l0 0 ZM772 224 q-148 2 -238 94 q-91 91 -105 252 l681 0 q-19 -159 -110 -252 q-91 -92 -228 -94 l0 0 Z" /><glyph glyph-name="" unicode="&#x4da;" d="M521 1581 q69 1 111 43 q43 42 44 109 q-1 67 -44 109 q-42 41 -111 42 q-69 -1 -111 -42 q-43 -42 -44 -109 q1 -67 44 -109 q42 -42 111 -43 l0 0 ZM989 1581 q69 1 112 43 q43 42 44 109 q-1 67 -44 109 q-43 41 -112 42 q-68 -1 -111 -42 q-43 -42 -44 -109 q1 -67 44 -109 q43 -42 111 -43 l0 0 ZM770 -37 q300 5 478 208 q178 203 182 549 q-4 350 -184 553 q-181 203 -493 207 q-238 -2 -403 -121 q-165 -120 -223 -335 l306 0 q37 90 115 142 q78 52 204 53 q161 -3 260 -114 q100 -111 101 -292 l0 -16 l-999 0 q0 -2 -1 -36 q-2 -34 -2 -73 q4 -330 175 -525 q171 -195 484 -200 l0 0 ZM772 224 q-148 2 -238 94 q-91 91 -105 252 l681 0 q-19 -159 -110 -252 q-91 -92 -228 -94 l0 0 Z" /><glyph glyph-name="" unicode="&#x4e0;" d="M649 -37 q259 3 411 128 q152 126 156 338 q-3 198 -127 308 q-125 109 -338 125 l0 18 l413 360 l0 203 l-1012 0 l0 -258 l619 0 l0 -18 l-343 -293 l0 -218 l159 0 q157 0 239 -57 q81 -57 82 -170 q-1 -99 -70 -157 q-68 -57 -186 -58 q-118 1 -188 54 q-71 53 -79 145 l-289 0 q13 -207 161 -327 q147 -120 392 -123 l0 0 Z" /><glyph glyph-name="" unicode="&#x510;" d="M881 611 l0 242 l-191 0 q-110 1 -176 54 q-65 53 -67 142 q1 87 63 138 q62 50 176 51 q113 -1 180 -55 q67 -54 75 -148 l279 0 q-11 206 -154 325 q-143 118 -391 120 q-231 -2 -372 -109 q-141 -107 -145 -292 q2 -122 77 -207 q74 -84 195 -112 l0 -18 q-146 -16 -233 -106 q-88 -91 -90 -239 q5 -194 165 -313 q160 -118 413 -121 q251 3 403 123 q152 120 165 327 l-289 0 q-11 -92 -85 -144 q-73 -53 -198 -54 q-121 2 -192 57 q-70 54 -72 143 q1 94 71 145 q70 50 199 51 l194 0 Z" /><glyph glyph-name="" unicode="&#x474;" d="M925 0 l351 1027 q16 45 32 74 q15 28 31 43 q14 13 32 20 q19 6 41 6 q20 0 44 -5 q24 -5 47 -14 l82 249 q-47 28 -109 44 q-63 17 -122 17 q-63 0 -112 -14 q-49 -15 -88 -45 q-56 -43 -96 -121 q-40 -78 -72 -202 l-227 -739 l-18 0 l-328 1103 l-341 0 l488 -1443 l365 0 Z" /><glyph glyph-name="" unicode="&#x51c;" d="M1035 955 l16 0 l273 -955 l283 0 l383 1443 l-312 0 l-223 -1017 l-16 0 l-268 1017 l-255 0 l-263 -1017 l-16 0 l-225 1017 l-314 0 l382 -1443 l285 0 l270 955 Z" /><glyph glyph-name="" unicode="&#x402;" d="M1183 -72 q240 3 374 138 q134 134 136 362 q-1 210 -130 342 q-129 132 -370 136 q-105 0 -191 -31 q-87 -31 -148 -88 l-17 0 l0 398 l433 0 l0 258 l-1168 0 l0 -258 l433 0 l0 -1185 l302 0 l0 482 q37 70 117 114 q79 43 179 44 q120 -1 188 -63 q68 -61 69 -169 q-1 -110 -63 -170 q-62 -60 -171 -61 q-47 0 -78 5 q-31 4 -41 7 l0 -244 q10 -4 49 -10 q38 -6 97 -7 l0 0 Z" /><glyph glyph-name="" unicode="&#x405;" d="M120 401 q11 -204 164 -320 q153 -116 414 -118 q274 2 428 125 q154 124 157 344 q1 167 -99 266 q-100 99 -316 144 l-174 37 q-126 26 -182 68 q-57 42 -56 108 q2 83 69 131 q67 48 182 49 q111 -1 183 -52 q71 -51 83 -138 l284 0 q-11 196 -160 314 q-150 118 -392 121 q-253 -3 -401 -123 q-148 -121 -151 -328 q0 -165 97 -268 q98 -103 295 -144 l188 -40 q132 -28 191 -71 q59 -44 58 -112 q-2 -83 -75 -133 q-73 -51 -193 -52 q-129 1 -209 52 q-81 51 -93 140 l-292 0 Z" /><glyph glyph-name="" unicode="&#x408;" d="M86 424 q3 -215 134 -337 q131 -122 356 -124 q231 1 360 126 q128 125 130 359 l0 995 l-302 0 l0 -993 q0 -107 -49 -162 q-50 -55 -143 -55 q-88 1 -140 52 q-51 51 -54 139 l-292 0 Z" /><glyph glyph-name="" unicode="a" d="M544 202 q-77 1 -124 35 q-47 35 -48 97 q0 59 46 93 q46 33 140 40 l223 14 l0 -81 q-2 -86 -68 -141 q-66 -55 -169 -57 l0 0 ZM448 -17 q109 1 192 43 q84 42 128 118 l18 0 l0 -144 l282 0 l0 753 q-1 178 -119 276 q-118 97 -338 98 q-210 -2 -338 -89 q-128 -88 -145 -243 l268 0 q18 50 69 76 q51 26 130 26 q90 0 138 -37 q48 -38 48 -107 l0 -90 l-267 -16 q-206 -12 -316 -97 q-110 -84 -111 -235 q3 -153 101 -242 q98 -88 260 -90 l0 0 Z" /><glyph glyph-name="" unicode="à" d="M544 202 q-77 1 -124 35 q-47 35 -48 97 q0 59 46 93 q46 33 140 40 l223 14 l0 -81 q-2 -86 -68 -141 q-66 -55 -169 -57 l0 0 ZM448 -17 q109 1 192 43 q84 42 128 118 l18 0 l0 -144 l282 0 l0 753 q-1 178 -119 276 q-118 97 -338 98 q-210 -2 -338 -89 q-128 -88 -145 -243 l268 0 q18 50 69 76 q51 26 130 26 q90 0 138 -37 q48 -38 48 -107 l0 -90 l-267 -16 q-206 -12 -316 -97 q-110 -84 -111 -235 q3 -153 101 -242 q98 -88 260 -90 l0 0 ZM770 1281 l-247 353 l-309 0 l287 -353 l269 0 Z" /><glyph glyph-name="" unicode="á" d="M544 202 q-77 1 -124 35 q-47 35 -48 97 q0 59 46 93 q46 33 140 40 l223 14 l0 -81 q-2 -86 -68 -141 q-66 -55 -169 -57 l0 0 ZM448 -17 q109 1 192 43 q84 42 128 118 l18 0 l0 -144 l282 0 l0 753 q-1 178 -119 276 q-118 97 -338 98 q-210 -2 -338 -89 q-128 -88 -145 -243 l268 0 q18 50 69 76 q51 26 130 26 q90 0 138 -37 q48 -38 48 -107 l0 -90 l-267 -16 q-206 -12 -316 -97 q-110 -84 -111 -235 q3 -153 101 -242 q98 -88 260 -90 l0 0 ZM725 1281 l287 353 l-309 0 l-247 -353 l269 0 Z" /><glyph glyph-name="" unicode="ä" d="M544 202 q-77 1 -124 35 q-47 35 -48 97 q0 59 46 93 q46 33 140 40 l223 14 l0 -81 q-2 -86 -68 -141 q-66 -55 -169 -57 l0 0 ZM448 -17 q109 1 192 43 q84 42 128 118 l18 0 l0 -144 l282 0 l0 753 q-1 178 -119 276 q-118 97 -338 98 q-210 -2 -338 -89 q-128 -88 -145 -243 l268 0 q18 50 69 76 q51 26 130 26 q90 0 138 -37 q48 -38 48 -107 l0 -90 l-267 -16 q-206 -12 -316 -97 q-110 -84 -111 -235 q3 -153 101 -242 q98 -88 260 -90 l0 0 ZM377 1251 q69 1 111 43 q43 42 44 109 q-1 67 -44 109 q-42 41 -111 42 q-69 -1 -111 -42 q-43 -42 -44 -109 q1 -67 44 -109 q42 -42 111 -43 l0 0 ZM845 1251 q69 1 112 43 q43 42 44 109 q-1 67 -44 109 q-43 41 -112 42 q-68 -1 -111 -42 q-43 -42 -44 -109 q1 -67 44 -109 q43 -42 111 -43 l0 0 Z" /><glyph glyph-name="" unicode="&#x1df;" d="M544 202 q-77 1 -124 35 q-47 35 -48 97 q0 59 46 93 q46 33 140 40 l223 14 l0 -81 q-2 -86 -68 -141 q-66 -55 -169 -57 l0 0 ZM448 -17 q109 1 192 43 q84 42 128 118 l18 0 l0 -144 l282 0 l0 753 q-1 178 -119 276 q-118 97 -338 98 q-210 -2 -338 -89 q-128 -88 -145 -243 l268 0 q18 50 69 76 q51 26 130 26 q90 0 138 -37 q48 -38 48 -107 l0 -90 l-267 -16 q-206 -12 -316 -97 q-110 -84 -111 -235 q3 -153 101 -242 q98 -88 260 -90 l0 0 ZM390 1251 q65 1 104 42 q40 41 41 103 q-1 63 -41 103 q-39 41 -104 42 q-66 -1 -106 -42 q-40 -40 -41 -103 q1 -62 41 -103 q40 -41 106 -42 l0 0 ZM832 1251 q66 1 106 42 q40 41 41 103 q-1 63 -41 103 q-40 41 -106 42 q-65 -1 -104 -42 q-40 -40 -41 -103 q1 -62 41 -103 q39 -41 104 -42 l0 0 ZM979 1858 l-735 0 l0 -180 l735 0 l0 180 Z" /><glyph glyph-name="" unicode="å" d="M544 202 q-77 1 -124 35 q-47 35 -48 97 q0 59 46 93 q46 33 140 40 l223 14 l0 -81 q-2 -86 -68 -141 q-66 -55 -169 -57 l0 0 ZM448 -17 q109 1 192 43 q84 42 128 118 l18 0 l0 -144 l282 0 l0 753 q-1 178 -119 276 q-118 97 -338 98 q-210 -2 -338 -89 q-128 -88 -145 -243 l268 0 q18 50 69 76 q51 26 130 26 q90 0 138 -37 q48 -38 48 -107 l0 -90 l-267 -16 q-206 -12 -316 -97 q-110 -84 -111 -235 q3 -153 101 -242 q98 -88 260 -90 l0 0 ZM611 1251 q107 2 175 68 q68 67 70 173 q-2 105 -70 170 q-68 66 -175 68 q-107 -2 -175 -68 q-69 -65 -71 -170 q2 -106 71 -173 q68 -66 175 -68 l0 0 ZM611 1387 q-47 1 -76 29 q-29 28 -30 75 q1 45 30 74 q29 28 76 29 q46 -1 75 -29 q29 -29 30 -74 q-1 -46 -30 -74 q-28 -29 -75 -30 l0 0 Z" /><glyph glyph-name="" unicode="&#x1fb;" d="M544 202 q-77 1 -124 35 q-47 35 -48 97 q0 59 46 93 q46 33 140 40 l223 14 l0 -81 q-2 -86 -68 -141 q-66 -55 -169 -57 l0 0 ZM448 -17 q109 1 192 43 q84 42 128 118 l18 0 l0 -144 l282 0 l0 753 q-1 178 -119 276 q-118 97 -338 98 q-210 -2 -338 -89 q-128 -88 -145 -243 l268 0 q18 50 69 76 q51 26 130 26 q90 0 138 -37 q48 -38 48 -107 l0 -90 l-267 -16 q-206 -12 -316 -97 q-110 -84 -111 -235 q3 -153 101 -242 q98 -88 260 -90 l0 0 ZM611 1215 q100 2 162 64 q63 62 65 159 q-2 97 -65 159 q-62 61 -162 63 q-99 -2 -162 -63 q-63 -62 -65 -159 q2 -97 65 -159 q63 -62 162 -64 l0 0 ZM519 1437 q1 40 27 65 q25 25 65 26 q40 -1 66 -26 q25 -25 26 -65 q-1 -40 -26 -65 q-26 -25 -66 -26 q-40 1 -65 26 q-26 25 -27 65 l0 0 ZM505 1739 l213 0 l198 236 l-251 0 l-160 -236 Z" /><glyph glyph-name="" unicode="ã" d="M544 202 q-77 1 -124 35 q-47 35 -48 97 q0 59 46 93 q46 33 140 40 l223 14 l0 -81 q-2 -86 -68 -141 q-66 -55 -169 -57 l0 0 ZM448 -17 q109 1 192 43 q84 42 128 118 l18 0 l0 -144 l282 0 l0 753 q-1 178 -119 276 q-118 97 -338 98 q-210 -2 -338 -89 q-128 -88 -145 -243 l268 0 q18 50 69 76 q51 26 130 26 q90 0 138 -37 q48 -38 48 -107 l0 -90 l-267 -16 q-206 -12 -316 -97 q-110 -84 -111 -235 q3 -153 101 -242 q98 -88 260 -90 l0 0 ZM762 1253 q120 2 190 87 q70 85 71 231 l-187 0 q-1 -70 -23 -104 q-22 -34 -65 -34 q-54 9 -112 72 q-57 63 -166 72 q-119 -2 -189 -88 q-70 -86 -72 -233 l187 0 q1 70 23 105 q22 36 65 36 q54 -9 112 -72 q57 -63 166 -72 l0 0 Z" /><glyph glyph-name="" unicode="&#x1eb1;" d="M544 202 q-77 1 -124 35 q-47 35 -48 97 q0 59 46 93 q46 33 140 40 l223 14 l0 -81 q-2 -86 -68 -141 q-66 -55 -169 -57 l0 0 ZM448 -17 q109 1 192 43 q84 42 128 118 l18 0 l0 -144 l282 0 l0 753 q-1 178 -119 276 q-118 97 -338 98 q-210 -2 -338 -89 q-128 -88 -145 -243 l268 0 q18 50 69 76 q51 26 130 26 q90 0 138 -37 q48 -38 48 -107 l0 -90 l-267 -16 q-206 -12 -316 -97 q-110 -84 -111 -235 q3 -153 101 -242 q98 -88 260 -90 l0 0 ZM731 1622 l-184 337 l-250 0 l232 -337 l202 0 ZM1011 1602 l-208 0 q-2 -81 -52 -129 q-50 -48 -140 -49 q-90 1 -140 49 q-50 48 -52 129 l-208 0 q2 -155 107 -252 q105 -96 293 -99 q188 3 293 99 q105 97 107 252 l0 0 Z" /><glyph glyph-name="" unicode="&#x1e1;" d="M544 202 q-77 1 -124 35 q-47 35 -48 97 q0 59 46 93 q46 33 140 40 l223 14 l0 -81 q-2 -86 -68 -141 q-66 -55 -169 -57 l0 0 ZM448 -17 q109 1 192 43 q84 42 128 118 l18 0 l0 -144 l282 0 l0 753 q-1 178 -119 276 q-118 97 -338 98 q-210 -2 -338 -89 q-128 -88 -145 -243 l268 0 q18 50 69 76 q51 26 130 26 q90 0 138 -37 q48 -38 48 -107 l0 -90 l-267 -16 q-206 -12 -316 -97 q-110 -84 -111 -235 q3 -153 101 -242 q98 -88 260 -90 l0 0 ZM611 1251 q68 1 109 43 q41 42 42 106 q-1 66 -42 108 q-41 42 -109 43 q-68 -1 -109 -43 q-41 -42 -42 -108 q1 -64 42 -106 q41 -42 109 -43 l0 0 ZM979 1858 l-735 0 l0 -180 l735 0 l0 180 Z" /><glyph glyph-name="" unicode="&#x1e01;" d="M544 202 q-77 1 -124 35 q-47 35 -48 97 q0 59 46 93 q46 33 140 40 l223 14 l0 -81 q-2 -86 -68 -141 q-66 -55 -169 -57 l0 0 ZM448 -17 q109 1 192 43 q84 42 128 118 l18 0 l0 -144 l282 0 l0 753 q-1 178 -119 276 q-118 97 -338 98 q-210 -2 -338 -89 q-128 -88 -145 -243 l268 0 q18 50 69 76 q51 26 130 26 q90 0 138 -37 q48 -38 48 -107 l0 -90 l-267 -16 q-206 -12 -316 -97 q-110 -84 -111 -235 q3 -153 101 -242 q98 -88 260 -90 l0 0 ZM598 -570 q107 2 175 68 q68 67 70 173 q-2 105 -70 170 q-68 66 -175 68 q-107 -2 -175 -68 q-69 -65 -71 -170 q2 -106 71 -173 q68 -66 175 -68 l0 0 ZM598 -434 q-47 1 -76 29 q-29 28 -30 75 q1 45 30 74 q29 28 76 29 q46 -1 75 -29 q29 -29 30 -74 q-1 -46 -30 -74 q-28 -29 -75 -30 l0 0 Z" /><glyph glyph-name="" unicode="â" d="M544 202 q-77 1 -124 35 q-47 35 -48 97 q0 59 46 93 q46 33 140 40 l223 14 l0 -81 q-2 -86 -68 -141 q-66 -55 -169 -57 l0 0 ZM448 -17 q109 1 192 43 q84 42 128 118 l18 0 l0 -144 l282 0 l0 753 q-1 178 -119 276 q-118 97 -338 98 q-210 -2 -338 -89 q-128 -88 -145 -243 l268 0 q18 50 69 76 q51 26 130 26 q90 0 138 -37 q48 -38 48 -107 l0 -90 l-267 -16 q-206 -12 -316 -97 q-110 -84 -111 -235 q3 -153 101 -242 q98 -88 260 -90 l0 0 ZM756 1605 l-291 0 l-275 -354 l263 0 l149 209 l18 0 l148 -209 l263 0 l-275 354 Z" /><glyph glyph-name="" unicode="&#x1ead;" d="M544 202 q-77 1 -124 35 q-47 35 -48 97 q0 59 46 93 q46 33 140 40 l223 14 l0 -81 q-2 -86 -68 -141 q-66 -55 -169 -57 l0 0 ZM448 -17 q109 1 192 43 q84 42 128 118 l18 0 l0 -144 l282 0 l0 753 q-1 178 -119 276 q-118 97 -338 98 q-210 -2 -338 -89 q-128 -88 -145 -243 l268 0 q18 50 69 76 q51 26 130 26 q90 0 138 -37 q48 -38 48 -107 l0 -90 l-267 -16 q-206 -12 -316 -97 q-110 -84 -111 -235 q3 -153 101 -242 q98 -88 260 -90 l0 0 ZM756 1605 l-291 0 l-275 -354 l263 0 l149 209 l18 0 l148 -209 l263 0 l-275 354 ZM598 -419 q72 1 114 40 q42 38 43 100 q-1 61 -43 100 q-42 38 -114 39 q-72 -1 -114 -39 q-42 -39 -43 -100 q1 -62 43 -100 q42 -39 114 -40 l0 0 Z" /><glyph glyph-name="" unicode="&#x1ea5;" d="M544 202 q-77 1 -124 35 q-47 35 -48 97 q0 59 46 93 q46 33 140 40 l223 14 l0 -81 q-2 -86 -68 -141 q-66 -55 -169 -57 l0 0 ZM448 -17 q109 1 192 43 q84 42 128 118 l18 0 l0 -144 l282 0 l0 753 q-1 178 -119 276 q-118 97 -338 98 q-210 -2 -338 -89 q-128 -88 -145 -243 l268 0 q18 50 69 76 q51 26 130 26 q90 0 138 -37 q48 -38 48 -107 l0 -90 l-267 -16 q-206 -12 -316 -97 q-110 -84 -111 -235 q3 -153 101 -242 q98 -88 260 -90 l0 0 ZM748 1610 l-274 0 l-272 -345 l252 0 l148 200 l18 0 l148 -200 l252 0 l-272 345 ZM831 1622 l230 0 l232 337 l-271 0 l-191 -337 Z" /><glyph glyph-name="" unicode="&#x1eab;" d="M544 202 q-77 1 -124 35 q-47 35 -48 97 q0 59 46 93 q46 33 140 40 l223 14 l0 -81 q-2 -86 -68 -141 q-66 -55 -169 -57 l0 0 ZM448 -17 q109 1 192 43 q84 42 128 118 l18 0 l0 -144 l282 0 l0 753 q-1 178 -119 276 q-118 97 -338 98 q-210 -2 -338 -89 q-128 -88 -145 -243 l268 0 q18 50 69 76 q51 26 130 26 q90 0 138 -37 q48 -38 48 -107 l0 -90 l-267 -16 q-206 -12 -316 -97 q-110 -84 -111 -235 q3 -153 101 -242 q98 -88 260 -90 l0 0 ZM757 1596 l-292 0 l-275 -345 l264 0 l148 200 l18 0 l148 -200 l264 0 l-275 345 ZM768 1676 q113 1 181 80 q67 79 69 227 l-187 0 q-1 -68 -23 -99 q-22 -31 -65 -30 q-57 8 -115 68 q-58 59 -174 67 q-113 -1 -181 -81 q-67 -80 -69 -229 l187 0 q1 69 23 101 q22 32 65 32 q57 -8 115 -68 q58 -59 174 -68 l0 0 Z" /><glyph glyph-name="" unicode="&#x1ea7;" d="M544 202 q-77 1 -124 35 q-47 35 -48 97 q0 59 46 93 q46 33 140 40 l223 14 l0 -81 q-2 -86 -68 -141 q-66 -55 -169 -57 l0 0 ZM448 -17 q109 1 192 43 q84 42 128 118 l18 0 l0 -144 l282 0 l0 753 q-1 178 -119 276 q-118 97 -338 98 q-210 -2 -338 -89 q-128 -88 -145 -243 l268 0 q18 50 69 76 q51 26 130 26 q90 0 138 -37 q48 -38 48 -107 l0 -90 l-267 -16 q-206 -12 -316 -97 q-110 -84 -111 -235 q3 -153 101 -242 q98 -88 260 -90 l0 0 ZM757 1596 l-292 0 l-275 -345 l264 0 l148 200 l18 0 l148 -200 l264 0 l-275 345 ZM1133 1622 l-192 337 l-270 0 l232 -337 l230 0 Z" /><glyph glyph-name="" unicode="&#x1ea9;" d="M544 202 q-77 1 -124 35 q-47 35 -48 97 q0 59 46 93 q46 33 140 40 l223 14 l0 -81 q-2 -86 -68 -141 q-66 -55 -169 -57 l0 0 ZM448 -17 q109 1 192 43 q84 42 128 118 l18 0 l0 -144 l282 0 l0 753 q-1 178 -119 276 q-118 97 -338 98 q-210 -2 -338 -89 q-128 -88 -145 -243 l268 0 q18 50 69 76 q51 26 130 26 q90 0 138 -37 q48 -38 48 -107 l0 -90 l-267 -16 q-206 -12 -316 -97 q-110 -84 -111 -235 q3 -153 101 -242 q98 -88 260 -90 l0 0 ZM797 1787 q20 8 46 13 q26 5 56 5 q48 0 76 -21 q27 -21 28 -56 q0 -33 -27 -61 q-28 -28 -76 -46 l94 -115 q94 37 145 101 q50 64 51 149 q-1 97 -69 152 q-68 55 -188 56 q-37 0 -74 -6 q-36 -5 -62 -15 l0 -156 ZM757 1596 l-292 0 l-275 -345 l264 0 l148 200 l18 0 l148 -200 l264 0 l-275 345 Z" /><glyph glyph-name="" unicode="&#x103;" d="M544 202 q-77 1 -124 35 q-47 35 -48 97 q0 59 46 93 q46 33 140 40 l223 14 l0 -81 q-2 -86 -68 -141 q-66 -55 -169 -57 l0 0 ZM448 -17 q109 1 192 43 q84 42 128 118 l18 0 l0 -144 l282 0 l0 753 q-1 178 -119 276 q-118 97 -338 98 q-210 -2 -338 -89 q-128 -88 -145 -243 l268 0 q18 50 69 76 q51 26 130 26 q90 0 138 -37 q48 -38 48 -107 l0 -90 l-267 -16 q-206 -12 -316 -97 q-110 -84 -111 -235 q3 -153 101 -242 q98 -88 260 -90 l0 0 ZM211 1602 q2 -156 107 -252 q104 -96 292 -99 q188 3 293 99 q105 96 107 252 l-208 0 q-2 -81 -52 -129 q-50 -48 -140 -49 q-90 1 -140 49 q-50 48 -52 129 l-207 0 Z" /><glyph glyph-name="" unicode="&#x1eaf;" d="M544 202 q-77 1 -124 35 q-47 35 -48 97 q0 59 46 93 q46 33 140 40 l223 14 l0 -81 q-2 -86 -68 -141 q-66 -55 -169 -57 l0 0 ZM448 -17 q109 1 192 43 q84 42 128 118 l18 0 l0 -144 l282 0 l0 753 q-1 178 -119 276 q-118 97 -338 98 q-210 -2 -338 -89 q-128 -88 -145 -243 l268 0 q18 50 69 76 q51 26 130 26 q90 0 138 -37 q48 -38 48 -107 l0 -90 l-267 -16 q-206 -12 -316 -97 q-110 -84 -111 -235 q3 -153 101 -242 q98 -88 260 -90 l0 0 ZM490 1622 l202 0 l232 337 l-250 0 l-184 -337 ZM1011 1602 l-208 0 q-2 -81 -52 -129 q-50 -48 -140 -49 q-90 1 -140 49 q-50 48 -52 129 l-208 0 q2 -155 107 -252 q105 -96 293 -99 q188 3 293 99 q105 97 107 252 l0 0 Z" /><glyph glyph-name="" unicode="&#x1eb5;" d="M544 202 q-77 1 -124 35 q-47 35 -48 97 q0 59 46 93 q46 33 140 40 l223 14 l0 -81 q-2 -86 -68 -141 q-66 -55 -169 -57 l0 0 ZM448 -17 q109 1 192 43 q84 42 128 118 l18 0 l0 -144 l282 0 l0 753 q-1 178 -119 276 q-118 97 -338 98 q-210 -2 -338 -89 q-128 -88 -145 -243 l268 0 q18 50 69 76 q51 26 130 26 q90 0 138 -37 q48 -38 48 -107 l0 -90 l-267 -16 q-206 -12 -316 -97 q-110 -84 -111 -235 q3 -153 101 -242 q98 -88 260 -90 l0 0 ZM1011 1602 l-208 0 q-2 -81 -52 -129 q-50 -48 -140 -49 q-90 1 -140 49 q-50 48 -52 129 l-208 0 q2 -155 107 -252 q105 -96 293 -99 q188 3 293 99 q105 97 107 252 l0 0 ZM768 1676 q113 1 181 80 q67 79 69 227 l-187 0 q-1 -68 -23 -99 q-22 -31 -65 -30 q-57 8 -115 68 q-58 59 -174 67 q-113 -2 -181 -78 q-67 -76 -69 -207 l187 0 q1 51 23 80 q22 28 65 28 q57 -8 115 -68 q58 -59 174 -68 l0 0 Z" /><glyph glyph-name="" unicode="&#x1eb3;" d="M544 202 q-77 1 -124 35 q-47 35 -48 97 q0 59 46 93 q46 33 140 40 l223 14 l0 -81 q-2 -86 -68 -141 q-66 -55 -169 -57 l0 0 ZM448 -17 q109 1 192 43 q84 42 128 118 l18 0 l0 -144 l282 0 l0 753 q-1 178 -119 276 q-118 97 -338 98 q-210 -2 -338 -89 q-128 -88 -145 -243 l268 0 q18 50 69 76 q51 26 130 26 q90 0 138 -37 q48 -38 48 -107 l0 -90 l-267 -16 q-206 -12 -316 -97 q-110 -84 -111 -235 q3 -153 101 -242 q98 -88 260 -90 l0 0 ZM1011 1598 l-208 0 q-2 -78 -52 -126 q-50 -47 -140 -48 q-90 1 -140 48 q-50 48 -52 126 l-208 0 q2 -152 107 -248 q105 -96 293 -99 q188 3 293 99 q105 96 107 248 l0 0 ZM407 1809 q20 8 45 13 q25 5 54 5 q46 0 73 -21 q26 -20 27 -54 q0 -29 -25 -54 q-24 -25 -73 -42 l89 -110 q90 34 139 94 q48 59 49 138 q-1 94 -66 147 q-65 52 -181 53 q-37 0 -71 -6 q-35 -5 -60 -15 l0 -148 Z" /><glyph glyph-name="" unicode="&#x1eb7;" d="M544 202 q-77 1 -124 35 q-47 35 -48 97 q0 59 46 93 q46 33 140 40 l223 14 l0 -81 q-2 -86 -68 -141 q-66 -55 -169 -57 l0 0 ZM448 -17 q109 1 192 43 q84 42 128 118 l18 0 l0 -144 l282 0 l0 753 q-1 178 -119 276 q-118 97 -338 98 q-210 -2 -338 -89 q-128 -88 -145 -243 l268 0 q18 50 69 76 q51 26 130 26 q90 0 138 -37 q48 -38 48 -107 l0 -90 l-267 -16 q-206 -12 -316 -97 q-110 -84 -111 -235 q3 -153 101 -242 q98 -88 260 -90 l0 0 ZM598 -419 q72 1 114 40 q42 38 43 100 q-1 61 -43 100 q-42 38 -114 39 q-72 -1 -114 -39 q-42 -39 -43 -100 q1 -62 43 -100 q42 -39 114 -40 l0 0 ZM211 1602 q2 -156 107 -252 q104 -96 292 -99 q188 3 293 99 q105 96 107 252 l-208 0 q-2 -81 -52 -129 q-50 -48 -140 -49 q-90 1 -140 49 q-50 48 -52 129 l-207 0 Z" /><glyph glyph-name="" unicode="&#x203;" d="M544 202 q-77 1 -124 35 q-47 35 -48 97 q0 59 46 93 q46 33 140 40 l223 14 l0 -81 q-2 -86 -68 -141 q-66 -55 -169 -57 l0 0 ZM448 -17 q109 1 192 43 q84 42 128 118 l18 0 l0 -144 l282 0 l0 753 q-1 178 -119 276 q-118 97 -338 98 q-210 -2 -338 -89 q-128 -88 -145 -243 l268 0 q18 50 69 76 q51 26 130 26 q90 0 138 -37 q48 -38 48 -107 l0 -90 l-267 -16 q-206 -12 -316 -97 q-110 -84 -111 -235 q3 -153 101 -242 q98 -88 260 -90 l0 0 ZM211 1251 l208 0 q2 81 52 129 q50 48 140 49 q90 -1 140 -49 q50 -48 52 -129 l208 0 q-2 156 -107 252 q-105 96 -293 99 q-188 -3 -293 -99 q-105 -96 -107 -252 l0 0 Z" /><glyph glyph-name="" unicode="&#x1ce;" d="M544 202 q-77 1 -124 35 q-47 35 -48 97 q0 59 46 93 q46 33 140 40 l223 14 l0 -81 q-2 -86 -68 -141 q-66 -55 -169 -57 l0 0 ZM448 -17 q109 1 192 43 q84 42 128 118 l18 0 l0 -144 l282 0 l0 753 q-1 178 -119 276 q-118 97 -338 98 q-210 -2 -338 -89 q-128 -88 -145 -243 l268 0 q18 50 69 76 q51 26 130 26 q90 0 138 -37 q48 -38 48 -107 l0 -90 l-267 -16 q-206 -12 -316 -97 q-110 -84 -111 -235 q3 -153 101 -242 q98 -88 260 -90 l0 0 ZM756 1251 l275 354 l-263 0 l-148 -209 l-18 0 l-149 209 l-263 0 l275 -354 l291 0 Z" /><glyph glyph-name="" unicode="&#x227;" d="M544 202 q-77 1 -124 35 q-47 35 -48 97 q0 59 46 93 q46 33 140 40 l223 14 l0 -81 q-2 -86 -68 -141 q-66 -55 -169 -57 l0 0 ZM448 -17 q109 1 192 43 q84 42 128 118 l18 0 l0 -144 l282 0 l0 753 q-1 178 -119 276 q-118 97 -338 98 q-210 -2 -338 -89 q-128 -88 -145 -243 l268 0 q18 50 69 76 q51 26 130 26 q90 0 138 -37 q48 -38 48 -107 l0 -90 l-267 -16 q-206 -12 -316 -97 q-110 -84 -111 -235 q3 -153 101 -242 q98 -88 260 -90 l0 0 ZM611 1278 q72 1 116 46 q44 44 45 114 q-1 70 -45 115 q-44 45 -116 46 q-72 -1 -116 -46 q-44 -45 -45 -115 q1 -70 45 -114 q44 -45 116 -46 l0 0 Z" /><glyph glyph-name="" unicode="&#x1ea1;" d="M544 202 q-77 1 -124 35 q-47 35 -48 97 q0 59 46 93 q46 33 140 40 l223 14 l0 -81 q-2 -86 -68 -141 q-66 -55 -169 -57 l0 0 ZM448 -17 q109 1 192 43 q84 42 128 118 l18 0 l0 -144 l282 0 l0 753 q-1 178 -119 276 q-118 97 -338 98 q-210 -2 -338 -89 q-128 -88 -145 -243 l268 0 q18 50 69 76 q51 26 130 26 q90 0 138 -37 q48 -38 48 -107 l0 -90 l-267 -16 q-206 -12 -316 -97 q-110 -84 -111 -235 q3 -153 101 -242 q98 -88 260 -90 l0 0 ZM598 -419 q72 1 114 40 q42 38 43 100 q-1 61 -43 100 q-42 38 -114 39 q-72 -1 -114 -39 q-42 -39 -43 -100 q1 -62 43 -100 q42 -39 114 -40 l0 0 Z" /><glyph glyph-name="" unicode="&#x1ea3;" d="M544 202 q-77 1 -124 35 q-47 35 -48 97 q0 59 46 93 q46 33 140 40 l223 14 l0 -81 q-2 -86 -68 -141 q-66 -55 -169 -57 l0 0 ZM448 -17 q109 1 192 43 q84 42 128 118 l18 0 l0 -144 l282 0 l0 753 q-1 178 -119 276 q-118 97 -338 98 q-210 -2 -338 -89 q-128 -88 -145 -243 l268 0 q18 50 69 76 q51 26 130 26 q90 0 138 -37 q48 -38 48 -107 l0 -90 l-267 -16 q-206 -12 -316 -97 q-110 -84 -111 -235 q3 -153 101 -242 q98 -88 260 -90 l0 0 ZM432 1502 q20 8 50 14 q30 5 63 5 q51 -1 80 -22 q28 -21 29 -56 q-1 -33 -30 -61 q-29 -28 -78 -46 l94 -115 q94 37 147 101 q53 64 54 148 q-2 98 -70 154 q-68 57 -182 58 q-49 0 -90 -8 q-40 -7 -67 -17 l0 -155 Z" /><glyph glyph-name="" unicode="&#x201;" d="M544 202 q-77 1 -124 35 q-47 35 -48 97 q0 59 46 93 q46 33 140 40 l223 14 l0 -81 q-2 -86 -68 -141 q-66 -55 -169 -57 l0 0 ZM448 -17 q109 1 192 43 q84 42 128 118 l18 0 l0 -144 l282 0 l0 753 q-1 178 -119 276 q-118 97 -338 98 q-210 -2 -338 -89 q-128 -88 -145 -243 l268 0 q18 50 69 76 q51 26 130 26 q90 0 138 -37 q48 -38 48 -107 l0 -90 l-267 -16 q-206 -12 -316 -97 q-110 -84 -111 -235 q3 -153 101 -242 q98 -88 260 -90 l0 0 ZM526 1281 l-213 353 l-258 0 l241 -353 l230 0 ZM962 1281 l-213 353 l-258 0 l241 -353 l230 0 Z" /><glyph glyph-name="" unicode="&#x101;" d="M544 202 q-77 1 -124 35 q-47 35 -48 97 q0 59 46 93 q46 33 140 40 l223 14 l0 -81 q-2 -86 -68 -141 q-66 -55 -169 -57 l0 0 ZM448 -17 q109 1 192 43 q84 42 128 118 l18 0 l0 -144 l282 0 l0 753 q-1 178 -119 276 q-118 97 -338 98 q-210 -2 -338 -89 q-128 -88 -145 -243 l268 0 q18 50 69 76 q51 26 130 26 q90 0 138 -37 q48 -38 48 -107 l0 -90 l-267 -16 q-206 -12 -316 -97 q-110 -84 -111 -235 q3 -153 101 -242 q98 -88 260 -90 l0 0 ZM979 1496 l-735 0 l0 -180 l735 0 l0 180 Z" /><glyph glyph-name="" unicode="&#x105;" d="M544 202 q-79 1 -125 36 q-46 35 -47 96 q0 120 186 133 l223 14 l0 -81 q-2 -86 -68 -141 q-66 -55 -169 -57 l0 0 ZM1032 -445 l0 167 q-9 -4 -28 -6 q-19 -2 -41 -2 q-57 1 -87 27 q-31 26 -31 69 q2 63 54 113 q52 49 133 70 l36 7 l0 753 q-1 179 -120 276 q-118 97 -337 98 q-210 -2 -338 -89 q-128 -88 -145 -243 l268 0 q18 50 69 76 q51 26 130 26 q90 0 138 -37 q48 -38 48 -107 l0 -90 l-267 -16 q-208 -13 -317 -97 q-109 -85 -110 -235 q2 -151 100 -241 q97 -89 261 -91 q109 1 192 43 q84 42 128 118 l18 0 l0 -150 q-73 -34 -119 -97 q-46 -63 -48 -139 q2 -100 76 -161 q75 -61 199 -63 q53 0 86 7 q32 6 52 14 l0 0 Z" /><glyph glyph-name="" unicode="b" d="M796 -17 q210 2 327 152 q118 149 120 417 q-2 269 -119 418 q-117 149 -328 151 q-115 -1 -201 -52 q-87 -50 -130 -142 l-18 0 l0 597 l-291 0 l0 -1524 l282 0 l0 173 l18 0 q45 -91 134 -140 q88 -49 206 -50 l0 0 ZM695 877 q117 -1 182 -87 q66 -86 67 -238 q-1 -153 -66 -239 q-66 -86 -183 -87 q-117 2 -183 88 q-66 85 -68 237 q2 152 69 238 q66 86 182 88 l0 0 Z" /><glyph glyph-name="" unicode="&#x1e07;" d="M1028 -220 l-746 0 l0 -181 l746 0 l0 181 ZM796 -17 q210 2 327 152 q118 149 120 417 q-2 269 -119 418 q-117 149 -328 151 q-115 -1 -201 -52 q-87 -50 -130 -142 l-18 0 l0 597 l-291 0 l0 -1524 l282 0 l0 173 l18 0 q45 -91 134 -140 q88 -49 206 -50 l0 0 ZM695 877 q117 -1 182 -87 q66 -86 67 -238 q-1 -153 -66 -239 q-66 -86 -183 -87 q-117 2 -183 88 q-66 85 -68 237 q2 152 69 238 q66 86 182 88 l0 0 Z" /><glyph glyph-name="" unicode="&#x1e05;" d="M655 -419 q72 1 114 40 q42 38 43 100 q-1 61 -43 100 q-42 38 -114 39 q-72 -1 -114 -39 q-42 -39 -43 -100 q1 -62 43 -100 q42 -39 114 -40 l0 0 ZM796 -17 q210 2 327 152 q118 149 120 417 q-2 269 -119 418 q-117 149 -328 151 q-115 -1 -201 -52 q-87 -50 -130 -142 l-18 0 l0 597 l-291 0 l0 -1524 l282 0 l0 173 l18 0 q45 -91 134 -140 q88 -49 206 -50 l0 0 ZM695 877 q117 -1 182 -87 q66 -86 67 -238 q-1 -153 -66 -239 q-66 -86 -183 -87 q-117 2 -183 88 q-66 85 -68 237 q2 152 69 238 q66 86 182 88 l0 0 Z" /><glyph glyph-name="" unicode="&#x1e03;" d="M302 1660 q70 1 113 45 q43 44 44 113 q-1 69 -44 113 q-43 44 -113 45 q-71 -1 -114 -45 q-43 -44 -44 -113 q1 -69 44 -113 q43 -44 114 -45 l0 0 ZM796 -17 q210 2 327 152 q118 149 120 417 q-2 269 -119 418 q-117 149 -328 151 q-115 -1 -201 -52 q-87 -50 -130 -142 l-18 0 l0 597 l-291 0 l0 -1524 l282 0 l0 173 l18 0 q45 -91 134 -140 q88 -49 206 -50 l0 0 ZM695 877 q117 -1 182 -87 q66 -86 67 -238 q-1 -153 -66 -239 q-66 -86 -183 -87 q-117 2 -183 88 q-66 85 -68 237 q2 152 69 238 q66 86 182 88 l0 0 Z" /><glyph glyph-name="" unicode="c" d="M1122 714 q-19 191 -145 301 q-126 110 -346 112 q-260 -1 -399 -149 q-139 -148 -140 -424 q1 -279 141 -428 q139 -149 398 -150 q217 2 344 110 q127 109 147 296 l-272 0 q-17 -82 -73 -124 q-56 -43 -146 -43 q-118 1 -181 87 q-63 86 -64 252 q1 163 64 248 q63 85 181 86 q93 -1 149 -48 q55 -46 70 -126 l272 0 Z" /><glyph glyph-name="" unicode="&#x107;" d="M1122 714 q-19 191 -145 301 q-126 110 -346 112 q-260 -1 -399 -149 q-139 -148 -140 -424 q1 -279 141 -428 q139 -149 398 -150 q217 2 344 110 q127 109 147 296 l-272 0 q-17 -82 -73 -124 q-56 -43 -146 -43 q-118 1 -181 87 q-63 86 -64 252 q1 163 64 248 q63 85 181 86 q93 -1 149 -48 q55 -46 70 -126 l272 0 ZM744 1281 l287 353 l-309 0 l-247 -353 l269 0 Z" /><glyph glyph-name="" unicode="&#x10d;" d="M775 1251 l275 354 l-263 0 l-148 -209 l-18 0 l-149 209 l-263 0 l275 -354 l291 0 ZM1122 714 q-19 191 -145 301 q-126 110 -346 112 q-260 -1 -399 -149 q-139 -148 -140 -424 q1 -279 141 -428 q139 -149 398 -150 q217 2 344 110 q127 109 147 296 l-272 0 q-17 -82 -73 -124 q-56 -43 -146 -43 q-118 1 -181 87 q-63 86 -64 252 q1 163 64 248 q63 85 181 86 q93 -1 149 -48 q55 -46 70 -126 l272 0 Z" /><glyph glyph-name="" unicode="&#x109;" d="M775 1605 l-291 0 l-275 -354 l263 0 l149 209 l18 0 l148 -209 l263 0 l-275 354 ZM1122 714 q-19 191 -145 301 q-126 110 -346 112 q-260 -1 -399 -149 q-139 -148 -140 -424 q1 -279 141 -428 q139 -149 398 -150 q217 2 344 110 q127 109 147 296 l-272 0 q-17 -82 -73 -124 q-56 -43 -146 -43 q-118 1 -181 87 q-63 86 -64 252 q1 163 64 248 q63 85 181 86 q93 -1 149 -48 q55 -46 70 -126 l272 0 Z" /><glyph glyph-name="" unicode="&#x10b;" d="M1122 714 q-19 191 -145 301 q-126 110 -346 112 q-260 -1 -399 -149 q-139 -148 -140 -424 q1 -279 141 -428 q139 -149 398 -150 q217 2 344 110 q127 109 147 296 l-272 0 q-17 -82 -73 -124 q-56 -43 -146 -43 q-118 1 -181 87 q-63 86 -64 252 q1 163 64 248 q63 85 181 86 q93 -1 149 -48 q55 -46 70 -126 l272 0 ZM630 1278 q72 1 116 46 q44 44 45 114 q-1 70 -45 115 q-44 45 -116 46 q-72 -1 -116 -46 q-44 -45 -45 -115 q1 -70 45 -114 q44 -45 116 -46 l0 0 Z" /><glyph glyph-name="" unicode="ç" d="M1122 714 q-19 191 -145 301 q-126 110 -346 112 q-260 -1 -399 -149 q-139 -148 -140 -424 q1 -254 117 -400 q116 -147 334 -173 l-42 -101 l0 -116 l60 0 q69 0 100 -13 q31 -13 30 -43 q0 -29 -28 -44 q-28 -15 -84 -15 q-31 0 -65 4 q-34 5 -51 10 l0 -134 q28 -8 66 -13 q37 -5 81 -5 q129 1 198 55 q68 53 69 150 q0 81 -51 126 q-50 45 -145 51 l37 88 q178 23 283 129 q104 105 121 272 l-272 0 q-17 -82 -73 -124 q-56 -43 -146 -43 q-118 1 -181 87 q-63 86 -64 252 q1 163 64 248 q63 85 181 86 q93 -1 149 -48 q55 -46 70 -126 l272 0 Z" /><glyph glyph-name="" unicode="&#x1e09;" d="M1031 1634 l-309 0 l-247 -353 l269 0 l287 353 ZM1122 714 q-19 191 -145 301 q-126 110 -346 112 q-260 -1 -399 -149 q-139 -148 -140 -424 q1 -254 117 -400 q116 -147 334 -173 l-42 -101 l0 -116 l60 0 q69 0 100 -13 q31 -13 30 -43 q0 -29 -28 -44 q-28 -15 -84 -15 q-31 0 -65 4 q-34 5 -51 10 l0 -134 q28 -8 66 -13 q37 -5 81 -5 q129 1 198 55 q68 53 69 150 q0 81 -51 126 q-50 45 -145 51 l37 88 q178 23 283 129 q104 105 121 272 l-272 0 q-17 -82 -73 -124 q-56 -43 -146 -43 q-118 1 -181 87 q-63 86 -64 252 q1 163 64 248 q63 85 181 86 q93 -1 149 -48 q55 -46 70 -126 l272 0 Z" /><glyph glyph-name="" unicode="d" d="M541 -17 q116 1 204 50 q88 50 133 140 l18 0 l0 -173 l282 0 l0 1524 l-291 0 l0 -597 l-17 0 q-44 92 -130 143 q-86 50 -199 51 q-210 -3 -328 -152 q-119 -150 -121 -416 q2 -267 120 -417 q119 -150 329 -153 l0 0 ZM640 877 q117 -2 183 -88 q66 -86 67 -238 q-1 -153 -66 -238 q-66 -86 -184 -87 q-118 1 -183 87 q-65 85 -66 239 q1 153 66 238 q66 86 183 87 l0 0 Z" /><glyph glyph-name="" unicode="&#x1e0b;" d="M1033 1660 q70 1 113 45 q43 44 44 113 q-1 69 -44 113 q-43 44 -113 45 q-71 -1 -114 -45 q-43 -44 -44 -113 q1 -69 44 -113 q43 -44 114 -45 l0 0 ZM541 -17 q116 1 204 50 q88 50 133 140 l18 0 l0 -173 l282 0 l0 1524 l-291 0 l0 -597 l-17 0 q-44 92 -130 143 q-86 50 -199 51 q-210 -3 -328 -152 q-119 -150 -121 -416 q2 -267 120 -417 q119 -150 329 -153 l0 0 ZM640 877 q117 -2 183 -88 q66 -86 67 -238 q-1 -153 -66 -238 q-66 -86 -184 -87 q-118 1 -183 87 q-65 85 -66 239 q1 153 66 238 q66 86 183 87 l0 0 Z" /><glyph glyph-name="" unicode="&#x1e13;" d="M541 -17 q116 1 204 50 q88 50 133 140 l18 0 l0 -173 l282 0 l0 1524 l-291 0 l0 -597 l-17 0 q-44 92 -130 143 q-86 50 -199 51 q-210 -3 -328 -152 q-119 -150 -121 -416 q2 -267 120 -417 q119 -150 329 -153 l0 0 ZM640 877 q117 -2 183 -88 q66 -86 67 -238 q-1 -153 -66 -238 q-66 -86 -184 -87 q-118 1 -183 87 q-65 85 -66 239 q1 153 66 238 q66 86 183 87 l0 0 ZM845 -152 l-296 0 l-286 -280 l284 0 l141 153 l18 0 l141 -153 l284 0 l-286 280 Z" /><glyph glyph-name="" unicode="&#x1e11;" d="M691 -509 l166 358 l-292 0 l-132 -358 l258 0 ZM541 -17 q116 1 204 50 q88 50 133 140 l18 0 l0 -173 l282 0 l0 1524 l-291 0 l0 -597 l-17 0 q-44 92 -130 143 q-86 50 -199 51 q-210 -3 -328 -152 q-119 -150 -121 -416 q2 -267 120 -417 q119 -150 329 -153 l0 0 ZM640 877 q117 -2 183 -88 q66 -86 67 -238 q-1 -153 -66 -238 q-66 -86 -184 -87 q-118 1 -183 87 q-65 85 -66 239 q1 153 66 238 q66 86 183 87 l0 0 Z" /><glyph glyph-name="" unicode="&#x1e0f;" d="M1070 -220 l-746 0 l0 -181 l746 0 l0 181 ZM541 -17 q116 1 204 50 q88 50 133 140 l18 0 l0 -173 l282 0 l0 1524 l-291 0 l0 -597 l-17 0 q-44 92 -130 143 q-86 50 -199 51 q-210 -3 -328 -152 q-119 -150 -121 -416 q2 -267 120 -417 q119 -150 329 -153 l0 0 ZM640 877 q117 -2 183 -88 q66 -86 67 -238 q-1 -153 -66 -238 q-66 -86 -184 -87 q-118 1 -183 87 q-65 85 -66 239 q1 153 66 238 q66 86 183 87 l0 0 Z" /><glyph glyph-name="" unicode="&#x10f;" d="M1314 1524 l0 -505 l201 0 l50 505 l-251 0 ZM541 -17 q116 1 204 50 q88 50 133 140 l18 0 l0 -173 l282 0 l0 1524 l-291 0 l0 -597 l-17 0 q-44 92 -130 143 q-86 50 -199 51 q-210 -3 -328 -152 q-119 -150 -121 -416 q2 -267 120 -417 q119 -150 329 -153 l0 0 ZM640 877 q117 -2 183 -88 q66 -86 67 -238 q-1 -153 -66 -238 q-66 -86 -184 -87 q-118 1 -183 87 q-65 85 -66 239 q1 153 66 238 q66 86 183 87 l0 0 Z" /><glyph glyph-name="" unicode="&#x1e0d;" d="M697 -419 q72 1 114 40 q42 38 43 100 q-1 61 -43 100 q-42 38 -114 39 q-72 -1 -114 -39 q-42 -39 -43 -100 q1 -62 43 -100 q42 -39 114 -40 l0 0 ZM541 -17 q116 1 204 50 q88 50 133 140 l18 0 l0 -173 l282 0 l0 1524 l-291 0 l0 -597 l-17 0 q-44 92 -130 143 q-86 50 -199 51 q-210 -3 -328 -152 q-119 -150 -121 -416 q2 -267 120 -417 q119 -150 329 -153 l0 0 ZM640 877 q117 -2 183 -88 q66 -86 67 -238 q-1 -153 -66 -238 q-66 -86 -184 -87 q-118 1 -183 87 q-65 85 -66 239 q1 153 66 238 q66 86 183 87 l0 0 Z" /><glyph glyph-name="" unicode="&#x111;" d="M652 226 q-118 1 -183 87 q-65 85 -66 239 q1 153 66 238 q66 86 183 87 q117 -2 183 -88 q66 -86 67 -238 q-1 -153 -66 -238 q-66 -86 -184 -87 l0 0 ZM1334 1408 l-144 0 l0 116 l-291 0 l0 -116 l-233 0 l0 -153 l233 0 l0 -328 l-17 0 q-44 92 -130 143 q-86 50 -199 51 q-210 -3 -328 -152 q-119 -150 -121 -416 q2 -267 120 -417 q119 -150 329 -153 q116 1 204 50 q88 50 133 140 l18 0 l0 -173 l282 0 l0 1255 l144 0 l0 153 Z" /><glyph glyph-name="" unicode="e" d="M623 904 q103 -1 164 -64 q60 -62 66 -173 l-470 0 q9 109 73 172 q64 64 167 65 l0 0 ZM859 314 q-24 -55 -81 -84 q-57 -30 -144 -30 q-115 1 -181 72 q-67 70 -71 194 l0 15 l757 0 l0 89 q-2 265 -137 410 q-134 145 -380 147 q-248 -3 -388 -156 q-140 -153 -142 -425 q2 -271 141 -419 q139 -149 393 -151 q205 2 337 91 q132 89 167 247 l-271 0 Z" /><glyph glyph-name="" unicode="è" d="M781 1281 l-247 353 l-309 0 l287 -353 l269 0 ZM623 904 q103 -1 164 -64 q60 -62 66 -173 l-470 0 q9 109 73 172 q64 64 167 65 l0 0 ZM859 314 q-24 -55 -81 -84 q-57 -30 -144 -30 q-115 1 -181 72 q-67 70 -71 194 l0 15 l757 0 l0 89 q-2 265 -137 410 q-134 145 -380 147 q-248 -3 -388 -156 q-140 -153 -142 -425 q2 -271 141 -419 q139 -149 393 -151 q205 2 337 91 q132 89 167 247 l-271 0 Z" /><glyph glyph-name="" unicode="&#x205;" d="M623 904 q103 -1 164 -64 q60 -62 66 -173 l-470 0 q9 109 73 172 q64 64 167 65 l0 0 ZM859 314 q-24 -55 -81 -84 q-57 -30 -144 -30 q-115 1 -181 72 q-67 70 -71 194 l0 15 l757 0 l0 89 q-2 265 -137 410 q-134 145 -380 147 q-248 -3 -388 -156 q-140 -153 -142 -425 q2 -271 141 -419 q139 -149 393 -151 q205 2 337 91 q132 89 167 247 l-271 0 ZM537 1281 l-213 353 l-258 0 l241 -353 l230 0 ZM973 1281 l-213 353 l-258 0 l241 -353 l230 0 Z" /><glyph glyph-name="" unicode="é" d="M736 1281 l287 353 l-309 0 l-247 -353 l269 0 ZM623 904 q103 -1 164 -64 q60 -62 66 -173 l-470 0 q9 109 73 172 q64 64 167 65 l0 0 ZM859 314 q-24 -55 -81 -84 q-57 -30 -144 -30 q-115 1 -181 72 q-67 70 -71 194 l0 15 l757 0 l0 89 q-2 265 -137 410 q-134 145 -380 147 q-248 -3 -388 -156 q-140 -153 -142 -425 q2 -271 141 -419 q139 -149 393 -151 q205 2 337 91 q132 89 167 247 l-271 0 Z" /><glyph glyph-name="" unicode="ê" d="M767 1605 l-291 0 l-275 -354 l263 0 l149 209 l18 0 l148 -209 l263 0 l-275 354 ZM623 904 q103 -1 164 -64 q60 -62 66 -173 l-470 0 q9 109 73 172 q64 64 167 65 l0 0 ZM859 314 q-24 -55 -81 -84 q-57 -30 -144 -30 q-115 1 -181 72 q-67 70 -71 194 l0 15 l757 0 l0 89 q-2 265 -137 410 q-134 145 -380 147 q-248 -3 -388 -156 q-140 -153 -142 -425 q2 -271 141 -419 q139 -149 393 -151 q205 2 337 91 q132 89 167 247 l-271 0 Z" /><glyph glyph-name="" unicode="&#x1ec3;" d="M808 1787 q20 8 46 13 q26 5 56 5 q48 0 76 -21 q27 -21 28 -56 q0 -33 -27 -61 q-28 -28 -76 -46 l94 -115 q94 37 145 101 q50 64 51 149 q-1 97 -69 152 q-68 55 -188 56 q-37 0 -74 -6 q-36 -5 -62 -15 l0 -156 ZM768 1596 l-292 0 l-275 -345 l264 0 l148 200 l18 0 l148 -200 l264 0 l-275 345 ZM623 904 q103 -1 164 -64 q60 -62 66 -173 l-470 0 q9 109 73 172 q64 64 167 65 l0 0 ZM859 314 q-24 -55 -81 -84 q-57 -30 -144 -30 q-115 1 -181 72 q-67 70 -71 194 l0 15 l757 0 l0 89 q-2 265 -137 410 q-134 145 -380 147 q-248 -3 -388 -156 q-140 -153 -142 -425 q2 -271 141 -419 q139 -149 393 -151 q205 2 337 91 q132 89 167 247 l-271 0 Z" /><glyph glyph-name="" unicode="&#x1ec1;" d="M768 1596 l-292 0 l-275 -345 l264 0 l148 200 l18 0 l148 -200 l264 0 l-275 345 ZM1144 1622 l-192 337 l-270 0 l232 -337 l230 0 ZM623 904 q103 -1 164 -64 q60 -62 66 -173 l-470 0 q9 109 73 172 q64 64 167 65 l0 0 ZM859 314 q-24 -55 -81 -84 q-57 -30 -144 -30 q-115 1 -181 72 q-67 70 -71 194 l0 15 l757 0 l0 89 q-2 265 -137 410 q-134 145 -380 147 q-248 -3 -388 -156 q-140 -153 -142 -425 q2 -271 141 -419 q139 -149 393 -151 q205 2 337 91 q132 89 167 247 l-271 0 Z" /><glyph glyph-name="" unicode="&#x1ec5;" d="M623 904 q103 -1 164 -64 q60 -62 66 -173 l-470 0 q9 109 73 172 q64 64 167 65 l0 0 ZM859 314 q-24 -55 -81 -84 q-57 -30 -144 -30 q-115 1 -181 72 q-67 70 -71 194 l0 15 l757 0 l0 89 q-2 265 -137 410 q-134 145 -380 147 q-248 -3 -388 -156 q-140 -153 -142 -425 q2 -271 141 -419 q139 -149 393 -151 q205 2 337 91 q132 89 167 247 l-271 0 ZM768 1596 l-292 0 l-275 -345 l264 0 l148 200 l18 0 l148 -200 l264 0 l-275 345 ZM779 1676 q113 1 181 80 q67 79 69 227 l-187 0 q-1 -68 -23 -99 q-22 -31 -65 -30 q-57 8 -115 68 q-58 59 -174 67 q-113 -1 -181 -81 q-67 -80 -69 -229 l187 0 q1 69 23 101 q22 32 65 32 q57 -8 115 -68 q58 -59 174 -68 l0 0 Z" /><glyph glyph-name="" unicode="&#x1ec7;" d="M767 1605 l-291 0 l-275 -354 l263 0 l149 209 l18 0 l148 -209 l263 0 l-275 354 ZM623 904 q103 -1 164 -64 q60 -62 66 -173 l-470 0 q9 109 73 172 q64 64 167 65 l0 0 ZM859 314 q-24 -55 -81 -84 q-57 -30 -144 -30 q-115 1 -181 72 q-67 70 -71 194 l0 15 l757 0 l0 89 q-2 265 -137 410 q-134 145 -380 147 q-248 -3 -388 -156 q-140 -153 -142 -425 q2 -271 141 -419 q139 -149 393 -151 q205 2 337 91 q132 89 167 247 l-271 0 ZM626 -419 q72 1 114 40 q42 38 43 100 q-1 61 -43 100 q-42 38 -114 39 q-72 -1 -114 -39 q-42 -39 -43 -100 q1 -62 43 -100 q42 -39 114 -40 l0 0 Z" /><glyph glyph-name="" unicode="&#x1ebf;" d="M759 1610 l-274 0 l-272 -345 l252 0 l148 200 l18 0 l148 -200 l252 0 l-272 345 ZM842 1622 l230 0 l232 337 l-271 0 l-191 -337 ZM623 904 q103 -1 164 -64 q60 -62 66 -173 l-470 0 q9 109 73 172 q64 64 167 65 l0 0 ZM859 314 q-24 -55 -81 -84 q-57 -30 -144 -30 q-115 1 -181 72 q-67 70 -71 194 l0 15 l757 0 l0 89 q-2 265 -137 410 q-134 145 -380 147 q-248 -3 -388 -156 q-140 -153 -142 -425 q2 -271 141 -419 q139 -149 393 -151 q205 2 337 91 q132 89 167 247 l-271 0 Z" /><glyph glyph-name="" unicode="ë" d="M623 904 q103 -1 164 -64 q60 -62 66 -173 l-470 0 q9 109 73 172 q64 64 167 65 l0 0 ZM859 314 q-24 -55 -81 -84 q-57 -30 -144 -30 q-115 1 -181 72 q-67 70 -71 194 l0 15 l757 0 l0 89 q-2 265 -137 410 q-134 145 -380 147 q-248 -3 -388 -156 q-140 -153 -142 -425 q2 -271 141 -419 q139 -149 393 -151 q205 2 337 91 q132 89 167 247 l-271 0 ZM388 1251 q69 1 111 43 q43 42 44 109 q-1 67 -44 109 q-42 41 -111 42 q-69 -1 -111 -42 q-43 -42 -44 -109 q1 -67 44 -109 q42 -42 111 -43 l0 0 ZM856 1251 q69 1 112 43 q43 42 44 109 q-1 67 -44 109 q-43 41 -112 42 q-68 -1 -111 -42 q-43 -42 -44 -109 q1 -67 44 -109 q43 -42 111 -43 l0 0 Z" /><glyph glyph-name="" unicode="&#x1eb9;" d="M626 -419 q72 1 114 40 q42 38 43 100 q-1 61 -43 100 q-42 38 -114 39 q-72 -1 -114 -39 q-42 -39 -43 -100 q1 -62 43 -100 q42 -39 114 -40 l0 0 ZM623 904 q103 -1 164 -64 q60 -62 66 -173 l-470 0 q9 109 73 172 q64 64 167 65 l0 0 ZM859 314 q-24 -55 -81 -84 q-57 -30 -144 -30 q-115 1 -181 72 q-67 70 -71 194 l0 15 l757 0 l0 89 q-2 265 -137 410 q-134 145 -380 147 q-248 -3 -388 -156 q-140 -153 -142 -425 q2 -271 141 -419 q139 -149 393 -151 q205 2 337 91 q132 89 167 247 l-271 0 Z" /><glyph glyph-name="" unicode="&#x207;" d="M623 904 q103 -1 164 -64 q60 -62 66 -173 l-470 0 q9 109 73 172 q64 64 167 65 l0 0 ZM859 314 q-24 -55 -81 -84 q-57 -30 -144 -30 q-115 1 -181 72 q-67 70 -71 194 l0 15 l757 0 l0 89 q-2 265 -137 410 q-134 145 -380 147 q-248 -3 -388 -156 q-140 -153 -142 -425 q2 -271 141 -419 q139 -149 393 -151 q205 2 337 91 q132 89 167 247 l-271 0 ZM222 1251 l208 0 q2 81 52 129 q50 48 140 49 q90 -1 140 -49 q50 -48 52 -129 l208 0 q-2 156 -107 252 q-105 96 -293 99 q-188 -3 -293 -99 q-105 -96 -107 -252 l0 0 Z" /><glyph glyph-name="" unicode="&#x1ebb;" d="M623 904 q103 -1 164 -64 q60 -62 66 -173 l-470 0 q9 109 73 172 q64 64 167 65 l0 0 ZM859 314 q-24 -55 -81 -84 q-57 -30 -144 -30 q-115 1 -181 72 q-67 70 -71 194 l0 15 l757 0 l0 89 q-2 265 -137 410 q-134 145 -380 147 q-248 -3 -388 -156 q-140 -153 -142 -425 q2 -271 141 -419 q139 -149 393 -151 q205 2 337 91 q132 89 167 247 l-271 0 ZM443 1497 q20 8 50 14 q30 5 63 5 q51 -1 80 -22 q28 -21 29 -56 q-1 -33 -30 -61 q-29 -28 -78 -46 l94 -115 q94 37 147 101 q53 64 54 148 q-2 98 -70 154 q-68 57 -182 58 q-49 0 -90 -8 q-40 -7 -67 -17 l0 -155 Z" /><glyph glyph-name="" unicode="&#x11b;" d="M767 1251 l275 354 l-263 0 l-148 -209 l-18 0 l-149 209 l-263 0 l275 -354 l291 0 ZM623 904 q103 -1 164 -64 q60 -62 66 -173 l-470 0 q9 109 73 172 q64 64 167 65 l0 0 ZM859 314 q-24 -55 -81 -84 q-57 -30 -144 -30 q-115 1 -181 72 q-67 70 -71 194 l0 15 l757 0 l0 89 q-2 265 -137 410 q-134 145 -380 147 q-248 -3 -388 -156 q-140 -153 -142 -425 q2 -271 141 -419 q139 -149 393 -151 q205 2 337 91 q132 89 167 247 l-271 0 Z" /><glyph glyph-name="" unicode="&#x113;" d="M623 904 q103 -1 164 -64 q60 -62 66 -173 l-470 0 q9 109 73 172 q64 64 167 65 l0 0 ZM859 314 q-24 -55 -81 -84 q-57 -30 -144 -30 q-115 1 -181 72 q-67 70 -71 194 l0 15 l757 0 l0 89 q-2 265 -137 410 q-134 145 -380 147 q-248 -3 -388 -156 q-140 -153 -142 -425 q2 -271 141 -419 q139 -149 393 -151 q205 2 337 91 q132 89 167 247 l-271 0 ZM990 1496 l-735 0 l0 -180 l735 0 l0 180 Z" /><glyph glyph-name="" unicode="&#x1e15;" d="M623 904 q103 -1 164 -64 q60 -62 66 -173 l-470 0 q9 109 73 172 q64 64 167 65 l0 0 ZM859 314 q-24 -55 -81 -84 q-57 -30 -144 -30 q-115 1 -181 72 q-67 70 -71 194 l0 15 l757 0 l0 89 q-2 265 -137 410 q-134 145 -380 147 q-248 -3 -388 -156 q-140 -153 -142 -425 q2 -271 141 -419 q139 -149 393 -151 q205 2 337 91 q132 89 167 247 l-271 0 ZM761 1637 l-212 308 l-291 0 l251 -308 l252 0 ZM990 1486 l-735 0 l0 -180 l735 0 l0 180 Z" /><glyph glyph-name="" unicode="&#x1e17;" d="M623 904 q103 -1 164 -64 q60 -62 66 -173 l-470 0 q9 109 73 172 q64 64 167 65 l0 0 ZM859 314 q-24 -55 -81 -84 q-57 -30 -144 -30 q-115 1 -181 72 q-67 70 -71 194 l0 15 l757 0 l0 89 q-2 265 -137 410 q-134 145 -380 147 q-248 -3 -388 -156 q-140 -153 -142 -425 q2 -271 141 -419 q139 -149 393 -151 q205 2 337 91 q132 89 167 247 l-271 0 ZM483 1637 l252 0 l251 308 l-291 0 l-212 -308 ZM990 1486 l-735 0 l0 -180 l735 0 l0 180 Z" /><glyph glyph-name="" unicode="&#x1ebd;" d="M623 904 q103 -1 164 -64 q60 -62 66 -173 l-470 0 q9 109 73 172 q64 64 167 65 l0 0 ZM859 314 q-24 -55 -81 -84 q-57 -30 -144 -30 q-115 1 -181 72 q-67 70 -71 194 l0 15 l757 0 l0 89 q-2 265 -137 410 q-134 145 -380 147 q-248 -3 -388 -156 q-140 -153 -142 -425 q2 -271 141 -419 q139 -149 393 -151 q205 2 337 91 q132 89 167 247 l-271 0 ZM773 1253 q120 2 190 87 q70 85 71 231 l-187 0 q-1 -70 -23 -104 q-22 -34 -65 -34 q-54 9 -112 72 q-57 63 -166 72 q-119 -2 -189 -88 q-70 -86 -72 -233 l187 0 q1 70 23 105 q22 36 65 36 q54 -9 112 -72 q57 -63 166 -72 l0 0 Z" /><glyph glyph-name="" unicode="&#x1e19;" d="M623 904 q103 -1 164 -64 q60 -62 66 -173 l-470 0 q9 109 73 172 q64 64 167 65 l0 0 ZM859 314 q-24 -55 -81 -84 q-57 -30 -144 -30 q-115 1 -181 72 q-67 70 -71 194 l0 15 l757 0 l0 89 q-2 265 -137 410 q-134 145 -380 147 q-248 -3 -388 -156 q-140 -153 -142 -425 q2 -271 141 -419 q139 -149 393 -151 q205 2 337 91 q132 89 167 247 l-271 0 ZM774 -152 l-296 0 l-286 -280 l284 0 l141 153 l18 0 l141 -153 l284 0 l-286 280 Z" /><glyph glyph-name="" unicode="&#x115;" d="M623 904 q103 -1 164 -64 q60 -62 66 -173 l-470 0 q9 109 73 172 q64 64 167 65 l0 0 ZM859 314 q-24 -55 -81 -84 q-57 -30 -144 -30 q-115 1 -181 72 q-67 70 -71 194 l0 15 l757 0 l0 89 q-2 265 -137 410 q-134 145 -380 147 q-248 -3 -388 -156 q-140 -153 -142 -425 q2 -271 141 -419 q139 -149 393 -151 q205 2 337 91 q132 89 167 247 l-271 0 ZM222 1602 q2 -156 107 -252 q104 -96 292 -99 q188 3 293 99 q105 96 107 252 l-208 0 q-2 -81 -52 -129 q-50 -48 -140 -49 q-90 1 -140 49 q-50 48 -52 129 l-207 0 Z" /><glyph glyph-name="" unicode="&#x1e1b;" d="M785 -428 q110 1 178 74 q67 74 69 215 l-182 0 q-3 -65 -28 -90 q-24 -24 -58 -23 q-61 8 -119 66 q-58 58 -178 66 q-110 0 -177 -74 q-68 -74 -70 -218 l183 0 q2 65 26 92 q23 26 59 25 q68 -8 125 -66 q57 -59 172 -67 l0 0 ZM623 904 q103 -1 164 -64 q60 -62 66 -173 l-470 0 q9 109 73 172 q64 64 167 65 l0 0 ZM859 314 q-24 -55 -81 -84 q-57 -30 -144 -30 q-115 1 -181 72 q-67 70 -71 194 l0 15 l757 0 l0 89 q-2 265 -137 410 q-134 145 -380 147 q-248 -3 -388 -156 q-140 -153 -142 -425 q2 -271 141 -419 q139 -149 393 -151 q205 2 337 91 q132 89 167 247 l-271 0 Z" /><glyph glyph-name="" unicode="&#x117;" d="M622 1278 q72 1 116 46 q44 44 45 114 q-1 70 -45 115 q-44 45 -116 46 q-72 -1 -116 -46 q-44 -45 -45 -115 q1 -70 45 -114 q44 -45 116 -46 l0 0 ZM623 904 q103 -1 164 -64 q60 -62 66 -173 l-470 0 q9 109 73 172 q64 64 167 65 l0 0 ZM859 314 q-24 -55 -81 -84 q-57 -30 -144 -30 q-115 1 -181 72 q-67 70 -71 194 l0 15 l757 0 l0 89 q-2 265 -137 410 q-134 145 -380 147 q-248 -3 -388 -156 q-140 -153 -142 -425 q2 -271 141 -419 q139 -149 393 -151 q205 2 337 91 q132 89 167 247 l-271 0 Z" /><glyph glyph-name="" unicode="&#x229;" d="M383 667 q9 109 73 172 q64 64 167 65 q103 -1 164 -64 q60 -62 66 -173 l-470 0 ZM1139 481 l0 89 q-2 265 -137 410 q-134 145 -380 147 q-248 -3 -388 -156 q-140 -153 -142 -425 q1 -246 117 -392 q116 -146 329 -173 l-42 -101 l0 -116 l60 0 q69 0 100 -13 q31 -13 30 -43 q0 -29 -28 -44 q-28 -15 -84 -15 q-31 0 -65 4 q-34 5 -51 10 l0 -134 q28 -8 66 -13 q37 -5 81 -5 q129 1 198 55 q68 53 69 150 q0 81 -51 126 q-50 45 -145 51 l37 88 q169 20 278 107 q108 86 139 226 l-271 0 q-24 -55 -81 -84 q-57 -30 -144 -30 q-115 1 -181 72 q-67 70 -71 194 l0 15 l757 0 Z" /><glyph glyph-name="" unicode="&#x1e1d;" d="M813 1602 q-2 -81 -52 -129 q-50 -48 -140 -49 q-90 1 -140 49 q-50 48 -52 129 l-207 0 q2 -156 107 -252 q104 -96 292 -99 q188 3 293 99 q105 96 107 252 l-208 0 ZM383 667 q9 109 73 172 q64 64 167 65 q103 -1 164 -64 q60 -62 66 -173 l-470 0 ZM1139 481 l0 89 q-2 265 -137 410 q-134 145 -380 147 q-248 -3 -388 -156 q-140 -153 -142 -425 q1 -246 117 -392 q116 -146 329 -173 l-42 -101 l0 -116 l60 0 q69 0 100 -13 q31 -13 30 -43 q0 -29 -28 -44 q-28 -15 -84 -15 q-31 0 -65 4 q-34 5 -51 10 l0 -134 q28 -8 66 -13 q37 -5 81 -5 q129 1 198 55 q68 53 69 150 q0 81 -51 126 q-50 45 -145 51 l37 88 q169 20 278 107 q108 86 139 226 l-271 0 q-24 -55 -81 -84 q-57 -30 -144 -30 q-115 1 -181 72 q-67 70 -71 194 l0 15 l757 0 Z" /><glyph glyph-name="" unicode="&#x119;" d="M844 -466 q56 0 89 7 q32 7 49 14 l0 167 q-8 -3 -26 -5 q-19 -3 -43 -3 q-54 0 -86 26 q-31 26 -32 75 q0 52 39 106 q39 54 120 119 q70 58 117 133 q48 75 59 141 l-271 0 q-24 -55 -81 -84 q-57 -30 -144 -30 q-115 1 -181 72 q-67 70 -71 194 l0 15 l757 0 l0 89 q-2 265 -137 410 q-134 145 -380 147 q-248 -3 -388 -156 q-140 -153 -142 -425 q2 -271 141 -419 q139 -149 393 -151 q20 0 42 3 q22 2 33 5 l0 -18 q-61 -35 -95 -90 q-35 -55 -36 -118 q2 -99 75 -160 q74 -62 199 -64 l0 0 ZM623 904 q103 -1 164 -64 q60 -62 66 -173 l-470 0 q9 109 73 172 q64 64 167 65 l0 0 Z" /><glyph glyph-name="" unicode="f" d="M231 0 l291 0 l0 863 l228 0 l0 229 l-234 0 l0 81 q0 67 36 99 q36 31 112 31 q30 0 55 -2 q25 -3 40 -6 l0 209 q-31 5 -63 8 q-31 3 -73 3 q-194 1 -293 -74 q-99 -75 -99 -241 l0 -108 l-178 0 l0 -229 l178 0 l0 -863 Z" /><glyph glyph-name="" unicode="&#x1e1f;" d="M462 1629 q70 1 113 45 q43 44 44 113 q-1 69 -44 113 q-43 44 -113 45 q-71 -1 -114 -45 q-43 -44 -44 -113 q1 -69 44 -113 q43 -44 114 -45 l0 0 ZM231 0 l291 0 l0 863 l228 0 l0 229 l-234 0 l0 81 q0 67 36 99 q36 31 112 31 q30 0 55 -2 q25 -3 40 -6 l0 209 q-31 5 -63 8 q-31 3 -73 3 q-194 1 -293 -74 q-99 -75 -99 -241 l0 -108 l-178 0 l0 -229 l178 0 l0 -863 Z" /><glyph glyph-name="" unicode="g" d="M636 246 q-119 1 -183 85 q-64 83 -65 231 q1 146 65 230 q64 83 183 85 q119 -2 185 -85 q66 -84 67 -231 q-1 -147 -67 -230 q-66 -83 -185 -85 l0 0 ZM632 -418 q253 2 397 114 q144 112 147 308 l0 1099 l-282 0 l0 -177 l-18 0 q-46 92 -134 143 q-88 51 -201 52 q-212 -3 -331 -152 q-119 -149 -121 -408 q2 -252 120 -397 q118 -145 326 -148 q117 0 201 46 q85 45 131 132 l18 0 l0 -204 q-1 -94 -65 -144 q-64 -51 -182 -52 q-95 1 -153 30 q-58 29 -70 81 l-288 0 q16 -147 149 -234 q134 -87 356 -89 l0 0 Z" /><glyph glyph-name="" unicode="&#x1f5;" d="M758 1281 l287 353 l-309 0 l-247 -353 l269 0 ZM636 246 q-119 1 -183 85 q-64 83 -65 231 q1 146 65 230 q64 83 183 85 q119 -2 185 -85 q66 -84 67 -231 q-1 -147 -67 -230 q-66 -83 -185 -85 l0 0 ZM632 -418 q253 2 397 114 q144 112 147 308 l0 1099 l-282 0 l0 -177 l-18 0 q-46 92 -134 143 q-88 51 -201 52 q-212 -3 -331 -152 q-119 -149 -121 -408 q2 -252 120 -397 q118 -145 326 -148 q117 0 201 46 q85 45 131 132 l18 0 l0 -204 q-1 -94 -65 -144 q-64 -51 -182 -52 q-95 1 -153 30 q-58 29 -70 81 l-288 0 q16 -147 149 -234 q134 -87 356 -89 l0 0 Z" /><glyph glyph-name="" unicode="&#x1e7;" d="M789 1251 l275 354 l-263 0 l-148 -209 l-18 0 l-149 209 l-263 0 l275 -354 l291 0 ZM636 246 q-119 1 -183 85 q-64 83 -65 231 q1 146 65 230 q64 83 183 85 q119 -2 185 -85 q66 -84 67 -231 q-1 -147 -67 -230 q-66 -83 -185 -85 l0 0 ZM632 -418 q253 2 397 114 q144 112 147 308 l0 1099 l-282 0 l0 -177 l-18 0 q-46 92 -134 143 q-88 51 -201 52 q-212 -3 -331 -152 q-119 -149 -121 -408 q2 -252 120 -397 q118 -145 326 -148 q117 0 201 46 q85 45 131 132 l18 0 l0 -204 q-1 -94 -65 -144 q-64 -51 -182 -52 q-95 1 -153 30 q-58 29 -70 81 l-288 0 q16 -147 149 -234 q134 -87 356 -89 l0 0 Z" /><glyph glyph-name="" unicode="&#x11d;" d="M789 1605 l-291 0 l-275 -354 l263 0 l149 209 l18 0 l148 -209 l263 0 l-275 354 ZM636 246 q-119 1 -183 85 q-64 83 -65 231 q1 146 65 230 q64 83 183 85 q119 -2 185 -85 q66 -84 67 -231 q-1 -147 -67 -230 q-66 -83 -185 -85 l0 0 ZM632 -418 q253 2 397 114 q144 112 147 308 l0 1099 l-282 0 l0 -177 l-18 0 q-46 92 -134 143 q-88 51 -201 52 q-212 -3 -331 -152 q-119 -149 -121 -408 q2 -252 120 -397 q118 -145 326 -148 q117 0 201 46 q85 45 131 132 l18 0 l0 -204 q-1 -94 -65 -144 q-64 -51 -182 -52 q-95 1 -153 30 q-58 29 -70 81 l-288 0 q16 -147 149 -234 q134 -87 356 -89 l0 0 Z" /><glyph glyph-name="" unicode="&#x11f;" d="M244 1602 q2 -156 107 -252 q104 -96 292 -99 q188 3 293 99 q105 96 107 252 l-208 0 q-2 -81 -52 -129 q-50 -48 -140 -49 q-90 1 -140 49 q-50 48 -52 129 l-207 0 ZM636 246 q-119 1 -183 85 q-64 83 -65 231 q1 146 65 230 q64 83 183 85 q119 -2 185 -85 q66 -84 67 -231 q-1 -147 -67 -230 q-66 -83 -185 -85 l0 0 ZM632 -418 q253 2 397 114 q144 112 147 308 l0 1099 l-282 0 l0 -177 l-18 0 q-46 92 -134 143 q-88 51 -201 52 q-212 -3 -331 -152 q-119 -149 -121 -408 q2 -252 120 -397 q118 -145 326 -148 q117 0 201 46 q85 45 131 132 l18 0 l0 -204 q-1 -94 -65 -144 q-64 -51 -182 -52 q-95 1 -153 30 q-58 29 -70 81 l-288 0 q16 -147 149 -234 q134 -87 356 -89 l0 0 Z" /><glyph glyph-name="" unicode="&#x1e21;" d="M1012 1496 l-735 0 l0 -180 l735 0 l0 180 ZM636 246 q-119 1 -183 85 q-64 83 -65 231 q1 146 65 230 q64 83 183 85 q119 -2 185 -85 q66 -84 67 -231 q-1 -147 -67 -230 q-66 -83 -185 -85 l0 0 ZM632 -418 q253 2 397 114 q144 112 147 308 l0 1099 l-282 0 l0 -177 l-18 0 q-46 92 -134 143 q-88 51 -201 52 q-212 -3 -331 -152 q-119 -149 -121 -408 q2 -252 120 -397 q118 -145 326 -148 q117 0 201 46 q85 45 131 132 l18 0 l0 -204 q-1 -94 -65 -144 q-64 -51 -182 -52 q-95 1 -153 30 q-58 29 -70 81 l-288 0 q16 -147 149 -234 q134 -87 356 -89 l0 0 Z" /><glyph glyph-name="" unicode="&#x121;" d="M644 1278 q72 1 116 46 q44 44 45 114 q-1 70 -45 115 q-44 45 -116 46 q-72 -1 -116 -46 q-44 -45 -45 -115 q1 -70 45 -114 q44 -45 116 -46 l0 0 ZM636 246 q-119 1 -183 85 q-64 83 -65 231 q1 146 65 230 q64 83 183 85 q119 -2 185 -85 q66 -84 67 -231 q-1 -147 -67 -230 q-66 -83 -185 -85 l0 0 ZM632 -418 q253 2 397 114 q144 112 147 308 l0 1099 l-282 0 l0 -177 l-18 0 q-46 92 -134 143 q-88 51 -201 52 q-212 -3 -331 -152 q-119 -149 -121 -408 q2 -252 120 -397 q118 -145 326 -148 q117 0 201 46 q85 45 131 132 l18 0 l0 -204 q-1 -94 -65 -144 q-64 -51 -182 -52 q-95 1 -153 30 q-58 29 -70 81 l-288 0 q16 -147 149 -234 q134 -87 356 -89 l0 0 Z" /><glyph glyph-name="" unicode="&#x123;" d="M669 1649 l-166 -358 l292 0 l132 358 l-258 0 ZM636 246 q-119 1 -183 85 q-64 83 -65 231 q1 146 65 230 q64 83 183 85 q119 -2 185 -85 q66 -84 67 -231 q-1 -147 -67 -230 q-66 -83 -185 -85 l0 0 ZM632 -418 q253 2 397 114 q144 112 147 308 l0 1099 l-282 0 l0 -177 l-18 0 q-46 92 -134 143 q-88 51 -201 52 q-212 -3 -331 -152 q-119 -149 -121 -408 q2 -252 120 -397 q118 -145 326 -148 q117 0 201 46 q85 45 131 132 l18 0 l0 -204 q-1 -94 -65 -144 q-64 -51 -182 -52 q-95 1 -153 30 q-58 29 -70 81 l-288 0 q16 -147 149 -234 q134 -87 356 -89 l0 0 Z" /><glyph glyph-name="" unicode="h" d="M156 0 l291 0 l0 633 q1 109 60 174 q60 64 170 66 q99 0 151 -59 q52 -58 52 -173 l0 -641 l291 0 l0 710 q-1 200 -100 306 q-99 107 -278 108 q-122 -1 -208 -54 q-86 -53 -125 -148 l-18 0 l0 602 l-286 0 l0 -1524 Z" /><glyph glyph-name="" unicode="&#x1e27;" d="M156 0 l291 0 l0 633 q1 109 60 174 q60 64 170 66 q99 0 151 -59 q52 -58 52 -173 l0 -641 l291 0 l0 710 q-1 200 -100 306 q-99 107 -278 108 q-122 -1 -208 -54 q-86 -53 -125 -148 l-18 0 l0 602 l-286 0 l0 -1524 ZM65 1660 q69 1 111 43 q43 42 44 109 q-1 67 -44 109 q-42 41 -111 42 q-69 -1 -111 -42 q-43 -42 -44 -109 q1 -67 44 -109 q42 -42 111 -43 l0 0 ZM533 1660 q69 1 112 43 q43 42 44 109 q-1 67 -44 109 q-43 41 -112 42 q-68 -1 -111 -42 q-43 -42 -44 -109 q1 -67 44 -109 q43 -42 111 -43 l0 0 Z" /><glyph glyph-name="" unicode="&#x21f;" d="M156 0 l291 0 l0 633 q1 109 60 174 q60 64 170 66 q99 0 151 -59 q52 -58 52 -173 l0 -641 l291 0 l0 710 q-1 200 -100 306 q-99 107 -278 108 q-122 -1 -208 -54 q-86 -53 -125 -148 l-18 0 l0 602 l-286 0 l0 -1524 ZM172 1671 l254 0 l281 318 l-253 0 l-145 -173 l-20 0 l-145 173 l-253 0 l281 -318 Z" /><glyph glyph-name="" unicode="&#x125;" d="M156 0 l291 0 l0 633 q1 109 60 174 q60 64 170 66 q99 0 151 -59 q52 -58 52 -173 l0 -641 l291 0 l0 710 q-1 200 -100 306 q-99 107 -278 108 q-122 -1 -208 -54 q-86 -53 -125 -148 l-18 0 l0 602 l-286 0 l0 -1524 ZM163 2006 l-284 -335 l265 0 l146 187 l18 0 l146 -187 l265 0 l-284 335 l-272 0 Z" /><glyph glyph-name="" unicode="&#x1e25;" d="M156 0 l291 0 l0 633 q1 109 60 174 q60 64 170 66 q99 0 151 -59 q52 -58 52 -173 l0 -641 l291 0 l0 710 q-1 200 -100 306 q-99 107 -278 108 q-122 -1 -208 -54 q-86 -53 -125 -148 l-18 0 l0 602 l-286 0 l0 -1524 ZM671 -419 q72 1 114 40 q42 38 43 100 q-1 61 -43 100 q-42 38 -114 39 q-72 -1 -114 -39 q-42 -39 -43 -100 q1 -62 43 -100 q42 -39 114 -40 l0 0 Z" /><glyph glyph-name="" unicode="&#x1e23;" d="M156 0 l291 0 l0 633 q1 109 60 174 q60 64 170 66 q99 0 151 -59 q52 -58 52 -173 l0 -641 l291 0 l0 710 q-1 200 -100 306 q-99 107 -278 108 q-122 -1 -208 -54 q-86 -53 -125 -148 l-18 0 l0 602 l-286 0 l0 -1524 ZM299 1660 q70 1 113 45 q43 44 44 113 q-1 69 -44 113 q-43 44 -113 45 q-71 -1 -114 -45 q-43 -44 -44 -113 q1 -69 44 -113 q43 -44 114 -45 l0 0 Z" /><glyph glyph-name="" unicode="&#x1e2b;" d="M271 -105 q1 -138 105 -227 q104 -89 295 -92 q191 3 295 92 q104 89 105 227 l-210 0 q-1 -69 -50 -112 q-50 -42 -140 -43 q-90 1 -140 43 q-49 43 -50 112 l-210 0 ZM156 0 l291 0 l0 633 q1 109 60 174 q60 64 170 66 q99 0 151 -59 q52 -58 52 -173 l0 -641 l291 0 l0 710 q-1 200 -100 306 q-99 107 -278 108 q-122 -1 -208 -54 q-86 -53 -125 -148 l-18 0 l0 602 l-286 0 l0 -1524 Z" /><glyph glyph-name="" unicode="&#x1e29;" d="M327 -500 q130 1 198 54 q69 54 69 151 q-1 80 -53 127 q-53 47 -146 50 l52 124 l0 627 q1 109 60 174 q60 64 170 66 q99 0 151 -59 q52 -58 52 -173 l0 -641 l291 0 l0 710 q-1 200 -100 306 q-99 107 -278 108 q-122 -1 -208 -54 q-86 -53 -125 -148 l-18 0 l0 602 l-286 0 l0 -1524 l119 0 l-57 -131 l0 -116 l60 0 q70 0 101 -13 q30 -13 29 -45 q0 -28 -28 -42 q-28 -15 -84 -15 q-32 0 -65 4 q-32 4 -51 10 l0 -134 q27 -8 65 -13 q37 -5 82 -5 l0 0 Z" /><glyph glyph-name="" unicode="&#x127;" d="M442 922 l0 333 l233 0 l0 153 l-233 0 l0 116 l-286 0 l0 -116 l-144 0 l0 -153 l144 0 l0 -1255 l291 0 l0 633 q1 109 60 174 q60 64 170 66 q99 0 151 -59 q52 -58 52 -173 l0 -641 l291 0 l0 710 q-1 200 -100 306 q-99 107 -278 108 q-122 -1 -208 -54 q-86 -53 -125 -148 l-18 0 Z" /><glyph glyph-name="" unicode="&#x1e96;" d="M156 0 l291 0 l0 633 q1 109 60 174 q60 64 170 66 q99 0 151 -59 q52 -58 52 -173 l0 -641 l291 0 l0 710 q-1 200 -100 306 q-99 107 -278 108 q-122 -1 -208 -54 q-86 -53 -125 -148 l-18 0 l0 602 l-286 0 l0 -1524 ZM1044 -220 l-746 0 l0 -181 l746 0 l0 181 Z" /><glyph glyph-name="" unicode="i" d="M148 0 l291 0 l0 1103 l-291 0 l0 -1103 ZM294 1257 q79 1 125 41 q46 40 47 106 q-1 66 -47 106 q-46 40 -125 41 q-80 -1 -125 -41 q-46 -40 -47 -106 q1 -66 47 -106 q45 -40 125 -41 l0 0 Z" /><glyph glyph-name="" unicode="ì" d="M453 1281 l-247 353 l-309 0 l287 -353 l269 0 ZM148 0 l291 0 l0 1103 l-291 0 l0 -1103 Z" /><glyph glyph-name="" unicode="&#x209;" d="M148 0 l291 0 l0 1103 l-291 0 l0 -1103 ZM209 1281 l-213 353 l-258 0 l241 -353 l230 0 ZM645 1281 l-213 353 l-258 0 l241 -353 l230 0 Z" /><glyph glyph-name="" unicode="í" d="M408 1281 l287 353 l-309 0 l-247 -353 l269 0 ZM148 0 l291 0 l0 1103 l-291 0 l0 -1103 Z" /><glyph glyph-name="" unicode="î" d="M439 1605 l-291 0 l-275 -354 l263 0 l149 209 l18 0 l148 -209 l263 0 l-275 354 ZM148 0 l291 0 l0 1103 l-291 0 l0 -1103 Z" /><glyph glyph-name="" unicode="&#x1d0;" d="M439 1251 l275 354 l-263 0 l-148 -209 l-18 0 l-149 209 l-263 0 l275 -354 l291 0 ZM148 0 l291 0 l0 1103 l-291 0 l0 -1103 Z" /><glyph glyph-name="" unicode="ï" d="M148 0 l291 0 l0 1103 l-291 0 l0 -1103 ZM60 1251 q69 1 111 43 q43 42 44 109 q-1 67 -44 109 q-42 41 -111 42 q-69 -1 -111 -42 q-43 -42 -44 -109 q1 -67 44 -109 q42 -42 111 -43 l0 0 ZM528 1251 q69 1 112 43 q43 42 44 109 q-1 67 -44 109 q-43 41 -112 42 q-68 -1 -111 -42 q-43 -42 -44 -109 q1 -67 44 -109 q43 -42 111 -43 l0 0 Z" /><glyph glyph-name="" unicode="&#x1e2f;" d="M166 1640 l241 0 l247 319 l-281 0 l-207 -319 ZM60 1254 q69 1 111 43 q43 42 44 109 q-1 67 -44 109 q-42 41 -111 42 q-69 -1 -111 -42 q-43 -42 -44 -109 q1 -67 44 -109 q42 -42 111 -43 l0 0 ZM528 1254 q69 1 112 43 q43 42 44 109 q-1 67 -44 109 q-43 41 -112 42 q-68 -1 -111 -42 q-43 -42 -44 -109 q1 -67 44 -109 q43 -42 111 -43 l0 0 ZM148 0 l291 0 l0 1103 l-291 0 l0 -1103 Z" /><glyph glyph-name="" unicode="&#x12d;" d="M148 0 l291 0 l0 1103 l-291 0 l0 -1103 ZM-106 1602 q2 -156 107 -252 q104 -96 292 -99 q188 3 293 99 q105 96 107 252 l-208 0 q-2 -81 -52 -129 q-50 -48 -140 -49 q-90 1 -140 49 q-50 48 -52 129 l-207 0 Z" /></font>
</defs>
</svg>
