<?xml version="1.0" standalone="no"?><!DOCTYPE svg PUBLIC "-//W3C//DTD SVG 1.1//EN" "http://www.w3.org/Graphics/SVG/1.1/DTD/svg11.dtd" ><svg xmlns="http://www.w3.org/2000/svg"><metadata></metadata><defs><font id="SF UI Text Regular; 12.0d0e2; 2016-05-11" horiz-adv-x="2842"><font-face font-family="SF UI Text" font-weight="400" font-stretch="normal" units-per-em="2048" panose-1="0 0 5 0 0 0 0 0 0 0" ascent="1950" descent="-494" x-height="0" bbox="-626 -573 2698 2205" underline-thickness="120" underline-position="-310" unicode-range="U+0020-f189" /><missing-glyph horiz-adv-x="2048" d="M100 -494 l1848 0 l0 284 l-1848 0 l0 -284 ZM100 -62 l1848 0 l0 284 l-1848 0 l0 -284 ZM100 370 l1848 0 l0 284 l-1848 0 l0 -284 ZM100 802 l1848 0 l0 284 l-1848 0 l0 -284 ZM100 1234 l1848 0 l0 284 l-1848 0 l0 -284 ZM100 1666 l1848 0 l0 284 l-1848 0 l0 -284 Z" /><glyph glyph-name="" unicode=" " d="" /><glyph glyph-name="" unicode="a" d="M1122 0 l189 0 l-532 1443 l-178 0 l-532 -1443 l189 0 l145 413 l574 0 l145 -413 ZM682 1210 l16 0 l226 -644 l-468 0 l226 644 Z" /><glyph glyph-name="" unicode="à" d="M1122 0 l189 0 l-532 1443 l-178 0 l-532 -1443 l189 0 l145 413 l574 0 l145 -413 ZM682 1210 l16 0 l226 -644 l-468 0 l226 644 ZM584 1575 l204 0 l-310 298 l-226 0 l332 -298 Z" /><glyph glyph-name="" unicode="á" d="M1122 0 l189 0 l-532 1443 l-178 0 l-532 -1443 l189 0 l145 413 l574 0 l145 -413 ZM682 1210 l16 0 l226 -644 l-468 0 l226 644 ZM788 1575 l332 298 l-226 0 l-310 -298 l204 0 Z" /><glyph glyph-name="" unicode="ä" d="M1122 0 l189 0 l-532 1443 l-178 0 l-532 -1443 l189 0 l145 413 l574 0 l145 -413 ZM682 1210 l16 0 l226 -644 l-468 0 l226 644 ZM488 1575 q52 1 86 35 q34 34 35 86 q-1 52 -35 86 q-34 34 -86 35 q-52 -1 -86 -35 q-34 -34 -35 -86 q1 -52 35 -86 q34 -34 86 -35 l0 0 ZM892 1575 q52 1 86 35 q34 34 35 86 q-1 52 -35 86 q-34 34 -86 35 q-52 -1 -86 -35 q-34 -34 -35 -86 q1 -52 35 -86 q34 -34 86 -35 l0 0 Z" /><glyph glyph-name="" unicode="&#x1de;" d="M1122 0 l189 0 l-532 1443 l-178 0 l-532 -1443 l189 0 l145 413 l574 0 l145 -413 ZM682 1210 l16 0 l226 -644 l-468 0 l226 644 ZM488 1809 q-50 -1 -83 -34 q-33 -33 -34 -83 q1 -50 34 -83 q33 -33 83 -34 q50 1 83 34 q33 33 34 83 q-1 50 -34 83 q-33 33 -83 34 l0 0 ZM353 2062 l0 -130 l674 0 l0 130 l-674 0 ZM892 1809 q-50 -1 -83 -34 q-33 -33 -34 -83 q1 -50 34 -83 q33 -33 83 -34 q50 1 83 34 q33 33 34 83 q-1 50 -34 83 q-33 33 -83 34 l0 0 Z" /><glyph glyph-name="" unicode="å" d="M1122 0 l189 0 l-532 1443 l-178 0 l-532 -1443 l189 0 l145 413 l574 0 l145 -413 ZM682 1210 l16 0 l226 -644 l-468 0 l226 644 ZM690 1551 q85 2 141 57 q56 55 58 140 q-2 85 -58 140 q-56 55 -141 57 q-85 -2 -141 -57 q-56 -55 -58 -140 q2 -85 58 -140 q56 -55 141 -57 l0 0 ZM690 1643 q-47 1 -75 30 q-29 29 -30 75 q1 47 30 75 q28 29 75 30 q47 -1 75 -30 q29 -28 30 -75 q-1 -46 -30 -75 q-28 -29 -75 -30 l0 0 Z" /><glyph glyph-name="" unicode="&#x1fa;" d="M1122 0 l189 0 l-532 1443 l-178 0 l-532 -1443 l189 0 l145 413 l574 0 l145 -413 ZM682 1210 l16 0 l226 -644 l-468 0 l226 644 ZM690 1533 q85 2 143 57 q57 56 59 141 q-2 85 -59 141 q-58 55 -143 57 q-85 -2 -143 -57 q-57 -56 -59 -141 q2 -85 59 -141 q58 -55 143 -57 l0 0 ZM590 1730 q1 44 29 72 q27 29 71 30 q44 -1 71 -30 q28 -28 29 -72 q-1 -44 -29 -72 q-27 -29 -71 -30 q-44 1 -71 30 q-28 28 -29 72 l0 0 ZM760 2173 l-148 -181 l161 0 l174 181 l-187 0 Z" /><glyph glyph-name="" unicode="ã" d="M1122 0 l189 0 l-532 1443 l-178 0 l-532 -1443 l189 0 l145 413 l574 0 l145 -413 ZM682 1210 l16 0 l226 -644 l-468 0 l226 644 ZM840 1575 q105 2 165 76 q60 75 61 205 l-135 0 q-5 -87 -32 -120 q-26 -33 -63 -31 q-58 11 -115 84 q-57 74 -181 84 q-105 -1 -165 -73 q-60 -73 -61 -208 l136 0 q3 84 27 118 q24 34 67 33 q72 -10 126 -84 q55 -73 170 -84 l0 0 Z" /><glyph glyph-name="" unicode="&#x1eb0;" d="M1122 0 l189 0 l-532 1443 l-178 0 l-532 -1443 l189 0 l145 413 l574 0 l145 -413 ZM682 1210 l16 0 l226 -644 l-468 0 l226 644 ZM1054 1873 l-154 0 q-1 -80 -56 -126 q-56 -46 -154 -47 q-98 1 -154 47 q-55 46 -56 126 l-154 0 q2 -136 97 -216 q96 -80 267 -82 q171 2 267 82 q95 80 97 216 l0 0 ZM814 1873 l-220 222 l-218 0 l246 -222 l192 0 Z" /><glyph glyph-name="" unicode="&#x1e0;" d="M1122 0 l189 0 l-532 1443 l-178 0 l-532 -1443 l189 0 l145 413 l574 0 l145 -413 ZM682 1210 l16 0 l226 -644 l-468 0 l226 644 ZM690 1577 q51 1 84 35 q34 33 35 84 q-1 51 -35 84 q-33 34 -84 35 q-51 -1 -84 -35 q-34 -33 -35 -84 q1 -51 35 -84 q33 -34 84 -35 l0 0 ZM1027 2062 l-674 0 l0 -130 l674 0 l0 130 Z" /><glyph glyph-name="" unicode="&#x1e00;" d="M1122 0 l189 0 l-532 1443 l-178 0 l-532 -1443 l189 0 l145 413 l574 0 l145 -413 ZM682 1210 l16 0 l226 -644 l-468 0 l226 644 ZM690 -573 q99 2 164 66 q66 64 68 163 q-2 99 -68 163 q-65 64 -164 66 q-98 -2 -164 -66 q-65 -64 -68 -163 q3 -99 68 -163 q66 -64 164 -66 l0 0 ZM690 -467 q-54 1 -87 35 q-34 34 -35 88 q1 54 35 88 q33 34 87 35 q54 -1 87 -35 q34 -34 35 -88 q-1 -54 -35 -88 q-33 -34 -87 -35 l0 0 Z" /><glyph glyph-name="" unicode="â" d="M1122 0 l189 0 l-532 1443 l-178 0 l-532 -1443 l189 0 l145 413 l574 0 l145 -413 ZM682 1210 l16 0 l226 -644 l-468 0 l226 644 ZM608 1873 l-300 -298 l202 0 l172 177 l16 0 l172 -177 l202 0 l-300 298 l-164 0 Z" /><glyph glyph-name="" unicode="&#x1eac;" d="M1122 0 l189 0 l-532 1443 l-178 0 l-532 -1443 l189 0 l145 413 l574 0 l145 -413 ZM682 1210 l16 0 l226 -644 l-468 0 l226 644 ZM608 1873 l-300 -298 l202 0 l172 177 l16 0 l172 -177 l202 0 l-300 298 l-164 0 ZM690 -402 q52 1 86 35 q34 34 35 86 q-1 52 -35 86 q-34 34 -86 35 q-52 -1 -86 -35 q-34 -34 -35 -86 q1 -52 35 -86 q34 -34 86 -35 l0 0 Z" /><glyph glyph-name="" unicode="&#x1ea4;" d="M1122 0 l189 0 l-532 1443 l-178 0 l-532 -1443 l189 0 l145 413 l574 0 l145 -413 ZM682 1210 l16 0 l226 -644 l-468 0 l226 644 ZM592 1808 l-294 -233 l222 0 l162 135 l16 0 l162 -135 l222 0 l-294 233 l-196 0 ZM888 1853 l190 0 l246 242 l-216 0 l-220 -242 Z" /><glyph glyph-name="" unicode="&#x1eaa;" d="M1122 0 l189 0 l-532 1443 l-178 0 l-532 -1443 l189 0 l145 413 l574 0 l145 -413 ZM682 1210 l16 0 l226 -644 l-468 0 l226 644 ZM830 1854 q102 3 163 71 q61 68 63 170 l-135 0 q-5 -58 -32 -85 q-26 -26 -63 -26 q-72 8 -115 64 q-42 56 -161 64 q-102 -2 -163 -68 q-61 -65 -63 -173 l136 0 q3 55 27 83 q24 28 67 28 q72 -8 115 -64 q42 -56 161 -64 l0 0 ZM592 1808 l-294 -233 l222 0 l162 135 l16 0 l162 -135 l222 0 l-294 233 l-196 0 Z" /><glyph glyph-name="" unicode="&#x1ea6;" d="M1122 0 l189 0 l-532 1443 l-178 0 l-532 -1443 l189 0 l145 413 l574 0 l145 -413 ZM682 1210 l16 0 l226 -644 l-468 0 l226 644 ZM592 1808 l-294 -233 l222 0 l162 135 l16 0 l162 -135 l222 0 l-294 233 l-196 0 ZM1124 1853 l-220 242 l-216 0 l246 -242 l190 0 Z" /><glyph glyph-name="" unicode="&#x1ea8;" d="M1122 0 l189 0 l-532 1443 l-178 0 l-532 -1443 l189 0 l145 413 l574 0 l145 -413 ZM682 1210 l16 0 l226 -644 l-468 0 l226 644 ZM592 1808 l-294 -233 l222 0 l162 135 l16 0 l162 -135 l222 0 l-294 233 l-196 0 ZM802 1977 q16 7 41 11 q25 5 53 5 q36 -1 58 -18 q22 -18 23 -46 q0 -32 -23 -58 q-22 -26 -61 -39 l98 -71 q58 19 93 68 q35 48 36 107 q-1 72 -51 115 q-50 43 -132 44 q-46 0 -82 -5 q-36 -5 -53 -11 l0 -102 Z" /><glyph glyph-name="" unicode="&#x102;" d="M1122 0 l189 0 l-532 1443 l-178 0 l-532 -1443 l189 0 l145 413 l574 0 l145 -413 ZM682 1210 l16 0 l226 -644 l-468 0 l226 644 ZM326 1873 q2 -136 97 -216 q96 -80 267 -82 q171 2 267 82 q95 80 97 216 l-154 0 q-1 -80 -56 -126 q-56 -46 -154 -47 q-98 1 -154 47 q-55 46 -56 126 l-154 0 Z" /><glyph glyph-name="" unicode="&#x1eae;" d="M1122 0 l189 0 l-532 1443 l-178 0 l-532 -1443 l189 0 l145 413 l574 0 l145 -413 ZM682 1210 l16 0 l226 -644 l-468 0 l226 644 ZM326 1873 q2 -136 97 -216 q96 -80 267 -82 q171 2 267 82 q95 80 97 216 l-154 0 q-1 -80 -56 -126 q-56 -46 -154 -47 q-98 1 -154 47 q-55 46 -56 126 l-154 0 ZM566 1873 l192 0 l246 222 l-218 0 l-220 -222 Z" /><glyph glyph-name="" unicode="&#x1eb4;" d="M1122 0 l189 0 l-532 1443 l-178 0 l-532 -1443 l189 0 l145 413 l574 0 l145 -413 ZM682 1210 l16 0 l226 -644 l-468 0 l226 644 ZM326 1813 q2 -93 97 -164 q96 -70 267 -74 q171 4 267 74 q95 71 97 164 l-154 0 q-1 -41 -55 -76 q-54 -35 -155 -37 q-101 2 -155 37 q-54 35 -55 76 l-154 0 ZM842 1854 q101 3 157 68 q56 65 57 153 l-135 0 q-3 -44 -29 -68 q-26 -25 -62 -25 q-72 8 -124 65 q-52 57 -168 65 q-101 -2 -157 -65 q-56 -63 -57 -156 l136 0 q1 41 24 66 q24 26 66 27 q72 -8 124 -65 q52 -57 168 -65 l0 0 Z" /><glyph glyph-name="" unicode="&#x1eb2;" d="M1122 0 l189 0 l-532 1443 l-178 0 l-532 -1443 l189 0 l145 413 l574 0 l145 -413 ZM682 1210 l16 0 l226 -644 l-468 0 l226 644 ZM522 2040 q21 10 49 16 q28 7 57 7 q40 -1 66 -22 q26 -22 27 -55 q-1 -36 -27 -66 q-26 -29 -69 -43 l62 -88 q77 29 122 84 q44 54 45 120 q-1 83 -56 131 q-56 48 -150 49 q-39 0 -71 -8 q-33 -8 -55 -20 l0 -105 ZM326 1853 q1 -120 97 -198 q95 -77 267 -80 q172 3 268 80 q95 78 96 198 l-154 0 q-1 -68 -55 -110 q-54 -42 -155 -43 q-101 1 -155 43 q-54 42 -55 110 l-154 0 Z" /><glyph glyph-name="" unicode="&#x1eb6;" d="M1122 0 l189 0 l-532 1443 l-178 0 l-532 -1443 l189 0 l145 413 l574 0 l145 -413 ZM682 1210 l16 0 l226 -644 l-468 0 l226 644 ZM326 1873 q2 -136 97 -216 q96 -80 267 -82 q171 2 267 82 q95 80 97 216 l-154 0 q-1 -80 -56 -126 q-56 -46 -154 -47 q-98 1 -154 47 q-55 46 -56 126 l-154 0 ZM690 -402 q52 1 86 35 q34 34 35 86 q-1 52 -35 86 q-34 34 -86 35 q-52 -1 -86 -35 q-34 -34 -35 -86 q1 -52 35 -86 q34 -34 86 -35 l0 0 Z" /><glyph glyph-name="" unicode="&#x202;" d="M1122 0 l189 0 l-532 1443 l-178 0 l-532 -1443 l189 0 l145 413 l574 0 l145 -413 ZM682 1210 l16 0 l226 -644 l-468 0 l226 644 ZM326 1575 l154 0 q1 80 56 126 q56 46 154 47 q98 -1 154 -47 q55 -46 56 -126 l154 0 q-2 136 -97 216 q-96 80 -267 82 q-171 -2 -267 -82 q-95 -80 -97 -216 l0 0 Z" /><glyph glyph-name="" unicode="&#x1cd;" d="M1122 0 l189 0 l-532 1443 l-178 0 l-532 -1443 l189 0 l145 413 l574 0 l145 -413 ZM682 1210 l16 0 l226 -644 l-468 0 l226 644 ZM608 1575 l164 0 l300 298 l-202 0 l-172 -177 l-16 0 l-172 177 l-202 0 l300 -298 Z" /><glyph glyph-name="" unicode="&#x226;" d="M1122 0 l189 0 l-532 1443 l-178 0 l-532 -1443 l189 0 l145 413 l574 0 l145 -413 ZM682 1210 l16 0 l226 -644 l-468 0 l226 644 ZM690 1575 q52 1 86 35 q34 34 35 86 q-1 52 -35 86 q-34 34 -86 35 q-52 -1 -86 -35 q-34 -34 -35 -86 q1 -52 35 -86 q34 -34 86 -35 l0 0 Z" /><glyph glyph-name="" unicode="&#x1ea0;" d="M1122 0 l189 0 l-532 1443 l-178 0 l-532 -1443 l189 0 l145 413 l574 0 l145 -413 ZM682 1210 l16 0 l226 -644 l-468 0 l226 644 ZM690 -402 q52 1 86 35 q34 34 35 86 q-1 52 -35 86 q-34 34 -86 35 q-52 -1 -86 -35 q-34 -34 -35 -86 q1 -52 35 -86 q34 -34 86 -35 l0 0 Z" /><glyph glyph-name="" unicode="&#x1ea2;" d="M1122 0 l189 0 l-532 1443 l-178 0 l-532 -1443 l189 0 l145 413 l574 0 l145 -413 ZM682 1210 l16 0 l226 -644 l-468 0 l226 644 ZM515 1780 q20 11 48 16 q29 6 62 6 q43 -1 70 -21 q27 -20 28 -52 q-1 -32 -30 -61 q-30 -29 -79 -44 l73 -97 q82 28 131 86 q50 58 51 128 q-1 84 -60 132 q-58 47 -163 48 q-36 0 -71 -6 q-36 -5 -60 -15 l0 -120 Z" /><glyph glyph-name="" unicode="&#x200;" d="M1122 0 l189 0 l-532 1443 l-178 0 l-532 -1443 l189 0 l145 413 l574 0 l145 -413 ZM682 1210 l16 0 l226 -644 l-468 0 l226 644 ZM810 1575 l204 0 l-310 298 l-226 0 l332 -298 ZM396 1575 l204 0 l-310 298 l-226 0 l332 -298 Z" /><glyph glyph-name="" unicode="&#x100;" d="M1122 0 l189 0 l-532 1443 l-178 0 l-532 -1443 l189 0 l145 413 l574 0 l145 -413 ZM682 1210 l16 0 l226 -644 l-468 0 l226 644 ZM1027 1756 l-674 0 l0 -136 l674 0 l0 136 Z" /><glyph glyph-name="" unicode="&#x104;" d="M682 1210 l16 0 l226 -644 l-468 0 l226 644 ZM1294 -416 l0 134 q-9 -2 -25 -4 q-17 -2 -41 -2 q-44 0 -77 25 q-33 24 -35 73 q3 65 58 109 q54 45 126 76 l11 5 l-532 1443 l-178 0 l-532 -1443 l189 0 l145 413 l574 0 l143 -405 q-76 -39 -124 -101 q-47 -61 -49 -135 q1 -88 66 -145 q65 -57 177 -59 q36 0 61 5 q26 5 43 11 l0 0 Z" /><glyph glyph-name="" unicode="b" d="M747 0 q232 2 360 107 q127 106 129 298 q-2 145 -87 238 q-86 93 -235 113 l0 16 q107 22 177 109 q69 86 72 202 q-2 168 -114 263 q-112 95 -313 97 l-552 0 l0 -1443 l563 0 ZM364 1284 l334 0 q135 -1 209 -61 q73 -60 74 -171 q0 -115 -83 -173 q-82 -58 -246 -58 l-288 0 l0 463 ZM364 159 l0 507 l339 0 q173 0 260 -63 q88 -64 88 -189 q0 -126 -84 -190 q-84 -65 -247 -65 l-356 0 Z" /><glyph glyph-name="" unicode="&#x1e06;" d="M747 0 q232 2 360 107 q127 106 129 298 q-2 145 -87 238 q-86 93 -235 113 l0 16 q107 22 177 109 q69 86 72 202 q-2 168 -114 263 q-112 95 -313 97 l-552 0 l0 -1443 l563 0 ZM364 1284 l334 0 q135 -1 209 -61 q73 -60 74 -171 q0 -115 -83 -173 q-82 -58 -246 -58 l-288 0 l0 463 ZM364 159 l0 507 l339 0 q173 0 260 -63 q88 -64 88 -189 q0 -126 -84 -190 q-84 -65 -247 -65 l-356 0 ZM942 -212 l-674 0 l0 -136 l674 0 l0 136 Z" /><glyph glyph-name="" unicode="&#x1e04;" d="M747 0 q232 2 360 107 q127 106 129 298 q-2 145 -87 238 q-86 93 -235 113 l0 16 q107 22 177 109 q69 86 72 202 q-2 168 -114 263 q-112 95 -313 97 l-552 0 l0 -1443 l563 0 ZM364 1284 l334 0 q135 -1 209 -61 q73 -60 74 -171 q0 -115 -83 -173 q-82 -58 -246 -58 l-288 0 l0 463 ZM364 159 l0 507 l339 0 q173 0 260 -63 q88 -64 88 -189 q0 -126 -84 -190 q-84 -65 -247 -65 l-356 0 ZM605 -402 q52 1 86 35 q34 34 35 86 q-1 52 -35 86 q-34 34 -86 35 q-52 -1 -86 -35 q-34 -34 -35 -86 q1 -52 35 -86 q34 -34 86 -35 l0 0 Z" /><glyph glyph-name="" unicode="&#x1e02;" d="M747 0 q232 2 360 107 q127 106 129 298 q-2 145 -87 238 q-86 93 -235 113 l0 16 q107 22 177 109 q69 86 72 202 q-2 168 -114 263 q-112 95 -313 97 l-552 0 l0 -1443 l563 0 ZM364 1284 l334 0 q135 -1 209 -61 q73 -60 74 -171 q0 -115 -83 -173 q-82 -58 -246 -58 l-288 0 l0 463 ZM364 159 l0 507 l339 0 q173 0 260 -63 q88 -64 88 -189 q0 -126 -84 -190 q-84 -65 -247 -65 l-356 0 ZM604 1575 q52 1 86 35 q34 34 35 86 q-1 52 -35 86 q-34 34 -86 35 q-52 -1 -86 -35 q-34 -34 -35 -86 q1 -52 35 -86 q34 -34 86 -35 l0 0 Z" /><glyph glyph-name="" unicode="c" d="M765 -34 q233 2 389 119 q155 116 194 317 l-183 0 q-36 -126 -142 -198 q-105 -71 -258 -72 q-211 3 -330 159 q-120 156 -122 430 q2 274 122 431 q119 156 329 159 q151 -1 257 -82 q106 -80 144 -221 l183 0 q-36 212 -194 339 q-158 127 -390 130 q-297 -4 -465 -203 q-168 -200 -171 -553 q3 -352 172 -552 q168 -199 465 -203 l0 0 Z" /><glyph glyph-name="" unicode="&#x106;" d="M765 -34 q233 2 389 119 q155 116 194 317 l-183 0 q-36 -126 -142 -198 q-105 -71 -258 -72 q-211 3 -330 159 q-120 156 -122 430 q2 274 122 431 q119 156 329 159 q151 -1 257 -82 q106 -80 144 -221 l183 0 q-36 212 -194 339 q-158 127 -390 130 q-297 -4 -465 -203 q-168 -200 -171 -553 q3 -352 172 -552 q168 -199 465 -203 l0 0 ZM862 1577 l332 298 l-226 0 l-310 -298 l204 0 Z" /><glyph glyph-name="" unicode="&#x10c;" d="M765 -34 q233 2 389 119 q155 116 194 317 l-183 0 q-36 -126 -142 -198 q-105 -71 -258 -72 q-211 3 -330 159 q-120 156 -122 430 q2 274 122 431 q119 156 329 159 q151 -1 257 -82 q106 -80 144 -221 l183 0 q-36 212 -194 339 q-158 127 -390 130 q-297 -4 -465 -203 q-168 -200 -171 -553 q3 -352 172 -552 q168 -199 465 -203 l0 0 ZM682 1577 l164 0 l300 298 l-202 0 l-172 -177 l-16 0 l-172 177 l-202 0 l300 -298 Z" /><glyph glyph-name="" unicode="&#x108;" d="M765 -34 q233 2 389 119 q155 116 194 317 l-183 0 q-36 -126 -142 -198 q-105 -71 -258 -72 q-211 3 -330 159 q-120 156 -122 430 q2 274 122 431 q119 156 329 159 q151 -1 257 -82 q106 -80 144 -221 l183 0 q-36 212 -194 339 q-158 127 -390 130 q-297 -4 -465 -203 q-168 -200 -171 -553 q3 -352 172 -552 q168 -199 465 -203 l0 0 ZM682 1875 l-300 -298 l202 0 l172 177 l16 0 l172 -177 l202 0 l-300 298 l-164 0 Z" /><glyph glyph-name="" unicode="&#x10a;" d="M765 -34 q233 2 389 119 q155 116 194 317 l-183 0 q-36 -126 -142 -198 q-105 -71 -258 -72 q-211 3 -330 159 q-120 156 -122 430 q2 274 122 431 q119 156 329 159 q151 -1 257 -82 q106 -80 144 -221 l183 0 q-36 212 -194 339 q-158 127 -390 130 q-297 -4 -465 -203 q-168 -200 -171 -553 q3 -352 172 -552 q168 -199 465 -203 l0 0 ZM764 1577 q52 1 86 35 q34 34 35 86 q-1 52 -35 86 q-34 34 -86 35 q-52 -1 -86 -35 q-34 -34 -35 -86 q1 -52 35 -86 q34 -34 86 -35 l0 0 Z" /><glyph glyph-name="" unicode="ç" d="M1348 1008 q-36 212 -194 339 q-158 127 -390 130 q-297 -4 -465 -203 q-168 -200 -171 -553 q3 -330 151 -527 q149 -197 414 -225 l-47 -119 l0 -84 l59 0 q79 0 114 -15 q36 -16 35 -50 q0 -35 -31 -54 q-30 -19 -88 -19 q-29 0 -65 4 q-37 5 -57 10 l0 -108 q31 -9 66 -13 q36 -5 80 -5 q116 1 179 53 q64 51 65 136 q-1 78 -56 120 q-56 42 -159 43 l39 100 q209 18 347 133 q138 114 174 301 l-183 0 q-36 -126 -142 -198 q-105 -71 -258 -72 q-211 3 -330 159 q-120 156 -122 430 q2 274 122 431 q119 156 329 159 q151 -1 257 -82 q106 -80 144 -221 l183 0 Z" /><glyph glyph-name="" unicode="&#x1e08;" d="M1194 1875 l-226 0 l-310 -298 l204 0 l332 298 ZM1348 1008 q-36 212 -194 339 q-158 127 -390 130 q-297 -4 -465 -203 q-168 -200 -171 -553 q3 -330 151 -527 q149 -197 414 -225 l-47 -119 l0 -84 l59 0 q79 0 114 -15 q36 -16 35 -50 q0 -35 -31 -54 q-30 -19 -88 -19 q-29 0 -65 4 q-37 5 -57 10 l0 -108 q31 -9 66 -13 q36 -5 80 -5 q116 1 179 53 q64 51 65 136 q-1 78 -56 120 q-56 42 -159 43 l39 100 q209 18 347 133 q138 114 174 301 l-183 0 q-36 -126 -142 -198 q-105 -71 -258 -72 q-211 3 -330 159 q-120 156 -122 430 q2 274 122 431 q119 156 329 159 q151 -1 257 -82 q106 -80 144 -221 l183 0 Z" /><glyph glyph-name="" unicode="d" d="M184 1443 l0 -1443 l495 0 q324 2 501 190 q178 188 180 532 q-2 343 -180 531 q-178 188 -501 190 l-495 0 ZM364 1281 l303 0 q242 -2 375 -148 q132 -146 134 -413 q-2 -266 -134 -411 q-132 -145 -375 -147 l-303 0 l0 1119 Z" /><glyph glyph-name="" unicode="&#x1e0a;" d="M184 1443 l0 -1443 l495 0 q324 2 501 190 q178 188 180 532 q-2 343 -180 531 q-178 188 -501 190 l-495 0 ZM364 1281 l303 0 q242 -2 375 -148 q132 -146 134 -413 q-2 -266 -134 -411 q-132 -145 -375 -147 l-303 0 l0 1119 ZM594 1575 q52 1 86 35 q34 34 35 86 q-1 52 -35 86 q-34 34 -86 35 q-52 -1 -86 -35 q-34 -34 -35 -86 q1 -52 35 -86 q34 -34 86 -35 l0 0 Z" /><glyph glyph-name="" unicode="&#x1e12;" d="M184 1443 l0 -1443 l495 0 q324 2 501 190 q178 188 180 532 q-2 343 -180 531 q-178 188 -501 190 l-495 0 ZM364 1281 l303 0 q242 -2 375 -148 q132 -146 134 -413 q-2 -266 -134 -411 q-132 -145 -375 -147 l-303 0 l0 1119 ZM676 -142 l-164 0 l-300 -290 l202 0 l172 173 l16 0 l172 -173 l202 0 l-300 290 Z" /><glyph glyph-name="" unicode="&#x1e10;" d="M184 1443 l0 -1443 l495 0 q324 2 501 190 q178 188 180 532 q-2 343 -180 531 q-178 188 -501 190 l-495 0 ZM364 1281 l303 0 q242 -2 375 -148 q132 -146 134 -413 q-2 -266 -134 -411 q-132 -145 -375 -147 l-303 0 l0 1119 ZM597 -518 l117 377 l-182 0 l-102 -377 l167 0 Z" /><glyph glyph-name="" unicode="&#x1e0e;" d="M184 1443 l0 -1443 l495 0 q324 2 501 190 q178 188 180 532 q-2 343 -180 531 q-178 188 -501 190 l-495 0 ZM364 1281 l303 0 q242 -2 375 -148 q132 -146 134 -413 q-2 -266 -134 -411 q-132 -145 -375 -147 l-303 0 l0 1119 ZM931 -212 l-674 0 l0 -136 l674 0 l0 136 Z" /><glyph glyph-name="" unicode="&#x10e;" d="M184 1443 l0 -1443 l495 0 q324 2 501 190 q178 188 180 532 q-2 343 -180 531 q-178 188 -501 190 l-495 0 ZM364 1281 l303 0 q242 -2 375 -148 q132 -146 134 -413 q-2 -266 -134 -411 q-132 -145 -375 -147 l-303 0 l0 1119 ZM512 1575 l164 0 l300 298 l-202 0 l-172 -177 l-16 0 l-172 177 l-202 0 l300 -298 Z" /><glyph glyph-name="" unicode="&#x1e0c;" d="M184 1443 l0 -1443 l495 0 q324 2 501 190 q178 188 180 532 q-2 343 -180 531 q-178 188 -501 190 l-495 0 ZM364 1281 l303 0 q242 -2 375 -148 q132 -146 134 -413 q-2 -266 -134 -411 q-132 -145 -375 -147 l-303 0 l0 1119 ZM594 -402 q52 1 86 35 q34 34 35 86 q-1 52 -35 86 q-34 34 -86 35 q-52 -1 -86 -35 q-34 -34 -35 -86 q1 -52 35 -86 q34 -34 86 -35 l0 0 Z" /><glyph glyph-name="" unicode="&#x110;" d="M369 162 l0 501 l243 0 l0 163 l-243 0 l0 455 l303 0 q242 -2 375 -148 q132 -146 134 -413 q-2 -266 -134 -411 q-132 -145 -375 -147 l-303 0 ZM189 1443 l0 -617 l-163 0 l0 -163 l163 0 l0 -663 l495 0 q324 2 501 190 q178 188 180 532 q-2 343 -180 531 q-178 188 -501 190 l-495 0 Z" /><glyph glyph-name="" unicode="e" d="M1078 162 l-714 0 l0 496 l677 0 l0 160 l-677 0 l0 463 l714 0 l0 162 l-894 0 l0 -1443 l894 0 l0 162 Z" /><glyph glyph-name="" unicode="è" d="M1078 162 l-714 0 l0 496 l677 0 l0 160 l-677 0 l0 463 l714 0 l0 162 l-894 0 l0 -1443 l894 0 l0 162 ZM525 1575 l204 0 l-310 298 l-226 0 l332 -298 Z" /><glyph glyph-name="" unicode="&#x204;" d="M1078 162 l-714 0 l0 496 l677 0 l0 160 l-677 0 l0 463 l714 0 l0 162 l-894 0 l0 -1443 l894 0 l0 162 ZM751 1575 l204 0 l-310 298 l-226 0 l332 -298 ZM337 1575 l204 0 l-310 298 l-226 0 l332 -298 Z" /><glyph glyph-name="" unicode="é" d="M1078 162 l-714 0 l0 496 l677 0 l0 160 l-677 0 l0 463 l714 0 l0 162 l-894 0 l0 -1443 l894 0 l0 162 ZM729 1575 l332 298 l-226 0 l-310 -298 l204 0 Z" /><glyph glyph-name="" unicode="ê" d="M1078 162 l-714 0 l0 496 l677 0 l0 160 l-677 0 l0 463 l714 0 l0 162 l-894 0 l0 -1443 l894 0 l0 162 ZM549 1873 l-300 -298 l202 0 l172 177 l16 0 l172 -177 l202 0 l-300 298 l-164 0 Z" /><glyph glyph-name="" unicode="&#x1ec2;" d="M1078 162 l-714 0 l0 496 l677 0 l0 160 l-677 0 l0 463 l714 0 l0 162 l-894 0 l0 -1443 l894 0 l0 162 ZM533 1808 l-294 -233 l222 0 l162 135 l16 0 l162 -135 l222 0 l-294 233 l-196 0 ZM743 1977 q16 7 41 11 q25 5 53 5 q36 -1 58 -18 q22 -18 23 -46 q0 -32 -23 -58 q-22 -26 -61 -39 l98 -71 q58 19 93 68 q35 48 36 107 q-1 72 -51 115 q-50 43 -132 44 q-46 0 -82 -5 q-36 -5 -53 -11 l0 -102 Z" /><glyph glyph-name="" unicode="&#x1ec0;" d="M1078 162 l-714 0 l0 496 l677 0 l0 160 l-677 0 l0 463 l714 0 l0 162 l-894 0 l0 -1443 l894 0 l0 162 ZM533 1808 l-294 -233 l222 0 l162 135 l16 0 l162 -135 l222 0 l-294 233 l-196 0 ZM1065 1853 l-220 242 l-216 0 l246 -242 l190 0 Z" /><glyph glyph-name="" unicode="&#x1ec4;" d="M1078 162 l-714 0 l0 496 l677 0 l0 160 l-677 0 l0 463 l714 0 l0 162 l-894 0 l0 -1443 l894 0 l0 162 ZM771 1854 q102 3 163 71 q61 68 63 170 l-135 0 q-5 -58 -32 -85 q-26 -26 -63 -26 q-72 8 -115 64 q-42 56 -161 64 q-102 -2 -163 -68 q-61 -65 -63 -173 l136 0 q3 55 27 83 q24 28 67 28 q72 -8 115 -64 q42 -56 161 -64 l0 0 ZM533 1808 l-294 -233 l222 0 l162 135 l16 0 l162 -135 l222 0 l-294 233 l-196 0 Z" /><glyph glyph-name="" unicode="&#x1ec6;" d="M1078 162 l-714 0 l0 496 l677 0 l0 160 l-677 0 l0 463 l714 0 l0 162 l-894 0 l0 -1443 l894 0 l0 162 ZM549 1873 l-300 -298 l202 0 l172 177 l16 0 l172 -177 l202 0 l-300 298 l-164 0 ZM631 -402 q52 1 86 35 q34 34 35 86 q-1 52 -35 86 q-34 34 -86 35 q-52 -1 -86 -35 q-34 -34 -35 -86 q1 -52 35 -86 q34 -34 86 -35 l0 0 Z" /><glyph glyph-name="" unicode="&#x1ebe;" d="M1078 162 l-714 0 l0 496 l677 0 l0 160 l-677 0 l0 463 l714 0 l0 162 l-894 0 l0 -1443 l894 0 l0 162 ZM533 1808 l-294 -233 l222 0 l162 135 l16 0 l162 -135 l222 0 l-294 233 l-196 0 ZM829 1853 l190 0 l246 242 l-216 0 l-220 -242 Z" /><glyph glyph-name="" unicode="ë" d="M1078 162 l-714 0 l0 496 l677 0 l0 160 l-677 0 l0 463 l714 0 l0 162 l-894 0 l0 -1443 l894 0 l0 162 ZM429 1575 q52 1 86 35 q34 34 35 86 q-1 52 -35 86 q-34 34 -86 35 q-52 -1 -86 -35 q-34 -34 -35 -86 q1 -52 35 -86 q34 -34 86 -35 l0 0 ZM833 1575 q52 1 86 35 q34 34 35 86 q-1 52 -35 86 q-34 34 -86 35 q-52 -1 -86 -35 q-34 -34 -35 -86 q1 -52 35 -86 q34 -34 86 -35 l0 0 Z" /><glyph glyph-name="" unicode="&#x1eb8;" d="M1078 162 l-714 0 l0 496 l677 0 l0 160 l-677 0 l0 463 l714 0 l0 162 l-894 0 l0 -1443 l894 0 l0 162 ZM631 -402 q52 1 86 35 q34 34 35 86 q-1 52 -35 86 q-34 34 -86 35 q-52 -1 -86 -35 q-34 -34 -35 -86 q1 -52 35 -86 q34 -34 86 -35 l0 0 Z" /><glyph glyph-name="" unicode="&#x206;" d="M1078 162 l-714 0 l0 496 l677 0 l0 160 l-677 0 l0 463 l714 0 l0 162 l-894 0 l0 -1443 l894 0 l0 162 ZM267 1575 l154 0 q1 80 56 126 q56 46 154 47 q98 -1 154 -47 q55 -46 56 -126 l154 0 q-2 136 -97 216 q-96 80 -267 82 q-171 -2 -267 -82 q-95 -80 -97 -216 l0 0 Z" /><glyph glyph-name="" unicode="&#x1eba;" d="M1078 162 l-714 0 l0 496 l677 0 l0 160 l-677 0 l0 463 l714 0 l0 162 l-894 0 l0 -1443 l894 0 l0 162 ZM456 1780 q20 11 48 16 q29 6 62 6 q43 -1 70 -21 q27 -20 28 -52 q-1 -32 -30 -61 q-30 -29 -79 -44 l73 -97 q82 28 131 86 q50 58 51 128 q-1 84 -60 132 q-58 47 -163 48 q-36 0 -71 -6 q-36 -5 -60 -15 l0 -120 Z" /><glyph glyph-name="" unicode="&#x11a;" d="M1078 162 l-714 0 l0 496 l677 0 l0 160 l-677 0 l0 463 l714 0 l0 162 l-894 0 l0 -1443 l894 0 l0 162 ZM549 1575 l164 0 l300 298 l-202 0 l-172 -177 l-16 0 l-172 177 l-202 0 l300 -298 Z" /><glyph glyph-name="" unicode="&#x112;" d="M1078 162 l-714 0 l0 496 l677 0 l0 160 l-677 0 l0 463 l714 0 l0 162 l-894 0 l0 -1443 l894 0 l0 162 ZM968 1756 l-674 0 l0 -136 l674 0 l0 136 Z" /><glyph glyph-name="" unicode="&#x1e14;" d="M1078 162 l-714 0 l0 496 l677 0 l0 160 l-677 0 l0 463 l714 0 l0 162 l-894 0 l0 -1443 l894 0 l0 162 ZM294 1620 l674 0 l0 130 l-674 0 l0 -130 ZM737 1873 l-220 222 l-218 0 l246 -222 l192 0 Z" /><glyph glyph-name="" unicode="&#x1e16;" d="M1078 162 l-714 0 l0 496 l677 0 l0 160 l-677 0 l0 463 l714 0 l0 162 l-894 0 l0 -1443 l894 0 l0 162 ZM968 1619 l0 130 l-674 0 l0 -130 l674 0 ZM525 1872 l192 0 l246 222 l-218 0 l-220 -222 Z" /><glyph glyph-name="" unicode="&#x1ebc;" d="M1078 162 l-714 0 l0 496 l677 0 l0 160 l-677 0 l0 463 l714 0 l0 162 l-894 0 l0 -1443 l894 0 l0 162 ZM781 1575 q105 2 165 76 q60 75 61 205 l-135 0 q-5 -87 -32 -120 q-26 -33 -63 -31 q-58 11 -115 84 q-57 74 -181 84 q-105 -1 -165 -73 q-60 -73 -61 -208 l136 0 q3 84 27 118 q24 34 67 33 q72 -10 126 -84 q55 -73 170 -84 l0 0 Z" /><glyph glyph-name="" unicode="&#x1e18;" d="M1078 162 l-714 0 l0 496 l677 0 l0 160 l-677 0 l0 463 l714 0 l0 162 l-894 0 l0 -1443 l894 0 l0 162 ZM713 -142 l-164 0 l-300 -290 l202 0 l172 173 l16 0 l172 -173 l202 0 l-300 290 Z" /><glyph glyph-name="" unicode="&#x114;" d="M1078 162 l-714 0 l0 496 l677 0 l0 160 l-677 0 l0 463 l714 0 l0 162 l-894 0 l0 -1443 l894 0 l0 162 ZM267 1873 q2 -136 97 -216 q96 -80 267 -82 q171 2 267 82 q95 80 97 216 l-154 0 q-1 -80 -56 -126 q-56 -46 -154 -47 q-98 1 -154 47 q-55 46 -56 126 l-154 0 Z" /><glyph glyph-name="" unicode="&#x1e1a;" d="M1078 162 l-714 0 l0 496 l677 0 l0 160 l-677 0 l0 463 l714 0 l0 162 l-894 0 l0 -1443 l894 0 l0 162 ZM781 -423 q105 2 165 76 q60 75 61 205 l-135 0 q-5 -87 -32 -120 q-26 -33 -63 -31 q-58 11 -115 84 q-57 74 -181 84 q-105 -1 -165 -73 q-60 -73 -61 -208 l136 0 q3 84 27 118 q24 34 67 33 q72 -10 126 -84 q55 -73 170 -84 l0 0 Z" /><glyph glyph-name="" unicode="&#x116;" d="M1078 162 l-714 0 l0 496 l677 0 l0 160 l-677 0 l0 463 l714 0 l0 162 l-894 0 l0 -1443 l894 0 l0 162 ZM631 1575 q52 1 86 35 q34 34 35 86 q-1 52 -35 86 q-34 34 -86 35 q-52 -1 -86 -35 q-34 -34 -35 -86 q1 -52 35 -86 q34 -34 86 -35 l0 0 Z" /><glyph glyph-name="" unicode="&#x228;" d="M1078 1281 l0 162 l-894 0 l0 -1443 l388 0 l-59 -150 l0 -84 l59 0 q79 0 114 -15 q36 -16 35 -50 q0 -35 -31 -54 q-30 -19 -88 -19 q-29 0 -65 4 q-37 5 -57 10 l0 -108 q31 -9 66 -13 q36 -5 80 -5 q116 1 179 53 q64 51 65 136 q-1 78 -56 120 q-56 42 -159 43 l51 132 l372 0 l0 162 l-714 0 l0 496 l677 0 l0 160 l-677 0 l0 463 l714 0 Z" /><glyph glyph-name="" unicode="&#x1e1c;" d="M841 1873 q-1 -80 -56 -126 q-56 -46 -154 -47 q-98 1 -154 47 q-55 46 -56 126 l-154 0 q2 -136 97 -216 q96 -80 267 -82 q171 2 267 82 q95 80 97 216 l-154 0 ZM1078 1281 l0 162 l-894 0 l0 -1443 l388 0 l-59 -150 l0 -84 l59 0 q79 0 114 -15 q36 -16 35 -50 q0 -35 -31 -54 q-30 -19 -88 -19 q-29 0 -65 4 q-37 5 -57 10 l0 -108 q31 -9 66 -13 q36 -5 80 -5 q116 1 179 53 q64 51 65 136 q-1 78 -56 120 q-56 42 -159 43 l51 132 l372 0 l0 162 l-714 0 l0 496 l677 0 l0 160 l-677 0 l0 463 l714 0 Z" /><glyph glyph-name="" unicode="&#x118;" d="M926 -432 q36 0 61 5 q26 5 43 11 l0 134 q-9 -2 -25 -4 q-17 -2 -41 -2 q-44 0 -77 25 q-33 24 -35 73 q3 65 57 112 q54 47 127 74 l42 16 l0 150 l-714 0 l0 496 l677 0 l0 160 l-677 0 l0 463 l714 0 l0 162 l-894 0 l0 -1443 l640 0 l0 -16 q-63 -33 -102 -88 q-38 -54 -39 -124 q1 -88 66 -145 q65 -57 177 -59 l0 0 Z" /><glyph glyph-name="" unicode="f" d="M364 0 l0 625 l639 0 l0 160 l-639 0 l0 496 l696 0 l0 162 l-876 0 l0 -1443 l180 0 Z" /><glyph glyph-name="" unicode="&#x1e1e;" d="M364 0 l0 625 l639 0 l0 160 l-639 0 l0 496 l696 0 l0 162 l-876 0 l0 -1443 l180 0 ZM622 1575 q52 1 86 35 q34 34 35 86 q-1 52 -35 86 q-34 34 -86 35 q-52 -1 -86 -35 q-34 -34 -35 -86 q1 -52 35 -86 q34 -34 86 -35 l0 0 Z" /><glyph glyph-name="" unicode="g" d="M1395 558 l0 176 l-585 0 l0 -158 l406 0 l0 -35 q-3 -186 -120 -296 q-117 -110 -313 -113 q-220 3 -344 159 q-124 155 -126 431 q3 272 127 429 q125 157 342 160 q161 0 268 -76 q106 -75 153 -222 l183 0 q-42 217 -201 339 q-160 123 -403 125 q-300 -4 -475 -206 q-175 -203 -179 -549 q3 -350 177 -551 q174 -201 477 -205 q280 4 445 163 q164 158 168 429 l0 0 Z" /><glyph glyph-name="" unicode="&#x1f4;" d="M1395 558 l0 176 l-585 0 l0 -158 l406 0 l0 -35 q-3 -186 -120 -296 q-117 -110 -313 -113 q-220 3 -344 159 q-124 155 -126 431 q3 272 127 429 q125 157 342 160 q161 0 268 -76 q106 -75 153 -222 l183 0 q-42 217 -201 339 q-160 123 -403 125 q-300 -4 -475 -206 q-175 -203 -179 -549 q3 -350 177 -551 q174 -201 477 -205 q280 4 445 163 q164 158 168 429 l0 0 ZM880 1575 l332 298 l-226 0 l-310 -298 l204 0 Z" /><glyph glyph-name="" unicode="&#x1e6;" d="M1395 558 l0 176 l-585 0 l0 -158 l406 0 l0 -35 q-3 -186 -120 -296 q-117 -110 -313 -113 q-220 3 -344 159 q-124 155 -126 431 q3 272 127 429 q125 157 342 160 q161 0 268 -76 q106 -75 153 -222 l183 0 q-42 217 -201 339 q-160 123 -403 125 q-300 -4 -475 -206 q-175 -203 -179 -549 q3 -350 177 -551 q174 -201 477 -205 q280 4 445 163 q164 158 168 429 l0 0 ZM700 1575 l164 0 l300 298 l-202 0 l-172 -177 l-16 0 l-172 177 l-202 0 l300 -298 Z" /><glyph glyph-name="" unicode="&#x11c;" d="M1395 558 l0 176 l-585 0 l0 -158 l406 0 l0 -35 q-3 -186 -120 -296 q-117 -110 -313 -113 q-220 3 -344 159 q-124 155 -126 431 q3 272 127 429 q125 157 342 160 q161 0 268 -76 q106 -75 153 -222 l183 0 q-42 217 -201 339 q-160 123 -403 125 q-300 -4 -475 -206 q-175 -203 -179 -549 q3 -350 177 -551 q174 -201 477 -205 q280 4 445 163 q164 158 168 429 l0 0 ZM700 1873 l-300 -298 l202 0 l172 177 l16 0 l172 -177 l202 0 l-300 298 l-164 0 Z" /><glyph glyph-name="" unicode="&#x11e;" d="M1395 558 l0 176 l-585 0 l0 -158 l406 0 l0 -35 q-3 -186 -120 -296 q-117 -110 -313 -113 q-220 3 -344 159 q-124 155 -126 431 q3 272 127 429 q125 157 342 160 q161 0 268 -76 q106 -75 153 -222 l183 0 q-42 217 -201 339 q-160 123 -403 125 q-300 -4 -475 -206 q-175 -203 -179 -549 q3 -350 177 -551 q174 -201 477 -205 q280 4 445 163 q164 158 168 429 l0 0 ZM418 1873 q2 -136 97 -216 q96 -80 267 -82 q171 2 267 82 q95 80 97 216 l-154 0 q-1 -80 -56 -126 q-56 -46 -154 -47 q-98 1 -154 47 q-55 46 -56 126 l-154 0 Z" /><glyph glyph-name="" unicode="&#x1e20;" d="M1395 558 l0 176 l-585 0 l0 -158 l406 0 l0 -35 q-3 -186 -120 -296 q-117 -110 -313 -113 q-220 3 -344 159 q-124 155 -126 431 q3 272 127 429 q125 157 342 160 q161 0 268 -76 q106 -75 153 -222 l183 0 q-42 217 -201 339 q-160 123 -403 125 q-300 -4 -475 -206 q-175 -203 -179 -549 q3 -350 177 -551 q174 -201 477 -205 q280 4 445 163 q164 158 168 429 l0 0 ZM1119 1756 l-674 0 l0 -136 l674 0 l0 136 Z" /><glyph glyph-name="" unicode="&#x120;" d="M1395 558 l0 176 l-585 0 l0 -158 l406 0 l0 -35 q-3 -186 -120 -296 q-117 -110 -313 -113 q-220 3 -344 159 q-124 155 -126 431 q3 272 127 429 q125 157 342 160 q161 0 268 -76 q106 -75 153 -222 l183 0 q-42 217 -201 339 q-160 123 -403 125 q-300 -4 -475 -206 q-175 -203 -179 -549 q3 -350 177 -551 q174 -201 477 -205 q280 4 445 163 q164 158 168 429 l0 0 ZM782 1575 q52 1 86 35 q34 34 35 86 q-1 52 -35 86 q-34 34 -86 35 q-52 -1 -86 -35 q-34 -34 -35 -86 q1 -52 35 -86 q34 -34 86 -35 l0 0 Z" /><glyph glyph-name="" unicode="&#x122;" d="M1395 558 l0 176 l-585 0 l0 -158 l406 0 l0 -35 q-3 -186 -120 -296 q-117 -110 -313 -113 q-220 3 -344 159 q-124 155 -126 431 q3 272 127 429 q125 157 342 160 q161 0 268 -76 q106 -75 153 -222 l183 0 q-42 217 -201 339 q-160 123 -403 125 q-300 -4 -475 -206 q-175 -203 -179 -549 q3 -350 177 -551 q174 -201 477 -205 q280 4 445 163 q164 158 168 429 l0 0 ZM785 -518 l117 377 l-182 0 l-102 -377 l167 0 Z" /><glyph glyph-name="" unicode="h" d="M1336 0 l0 1443 l-180 0 l0 -624 l-792 0 l0 624 l-180 0 l0 -1443 l180 0 l0 657 l792 0 l0 -657 l180 0 Z" /><glyph glyph-name="" unicode="&#x1e26;" d="M1336 0 l0 1443 l-180 0 l0 -624 l-792 0 l0 624 l-180 0 l0 -1443 l180 0 l0 657 l792 0 l0 -657 l180 0 ZM558 1575 q52 1 86 35 q34 34 35 86 q-1 52 -35 86 q-34 34 -86 35 q-52 -1 -86 -35 q-34 -34 -35 -86 q1 -52 35 -86 q34 -34 86 -35 l0 0 ZM962 1575 q52 1 86 35 q34 34 35 86 q-1 52 -35 86 q-34 34 -86 35 q-52 -1 -86 -35 q-34 -34 -35 -86 q1 -52 35 -86 q34 -34 86 -35 l0 0 Z" /><glyph glyph-name="" unicode="&#x21e;" d="M1336 0 l0 1443 l-180 0 l0 -624 l-792 0 l0 624 l-180 0 l0 -1443 l180 0 l0 657 l792 0 l0 -657 l180 0 ZM678 1575 l164 0 l300 298 l-202 0 l-172 -177 l-16 0 l-172 177 l-202 0 l300 -298 Z" /><glyph glyph-name="" unicode="&#x124;" d="M1336 0 l0 1443 l-180 0 l0 -624 l-792 0 l0 624 l-180 0 l0 -1443 l180 0 l0 657 l792 0 l0 -657 l180 0 ZM678 1873 l-300 -298 l202 0 l172 177 l16 0 l172 -177 l202 0 l-300 298 l-164 0 Z" /><glyph glyph-name="" unicode="&#x1e24;" d="M1336 0 l0 1443 l-180 0 l0 -624 l-792 0 l0 624 l-180 0 l0 -1443 l180 0 l0 657 l792 0 l0 -657 l180 0 ZM760 -402 q52 1 86 35 q34 34 35 86 q-1 52 -35 86 q-34 34 -86 35 q-52 -1 -86 -35 q-34 -34 -35 -86 q1 -52 35 -86 q34 -34 86 -35 l0 0 Z" /><glyph glyph-name="" unicode="&#x1e22;" d="M1336 0 l0 1443 l-180 0 l0 -624 l-792 0 l0 624 l-180 0 l0 -1443 l180 0 l0 657 l792 0 l0 -657 l180 0 ZM760 1575 q52 1 86 35 q34 34 35 86 q-1 52 -35 86 q-34 34 -86 35 q-52 -1 -86 -35 q-34 -34 -35 -86 q1 -52 35 -86 q34 -34 86 -35 l0 0 Z" /><glyph glyph-name="" unicode="&#x1e2a;" d="M1336 0 l0 1443 l-180 0 l0 -624 l-792 0 l0 624 l-180 0 l0 -1443 l180 0 l0 657 l792 0 l0 -657 l180 0 ZM396 -126 q2 -136 97 -216 q96 -80 267 -82 q171 2 267 82 q95 80 97 216 l-154 0 q-1 -80 -56 -126 q-56 -46 -154 -47 q-98 1 -154 47 q-55 46 -56 126 l-154 0 Z" /><glyph glyph-name="" unicode="&#x1e28;" d="M281 -494 q116 1 179 53 q64 51 65 136 q-1 78 -57 120 q-56 42 -159 43 l55 142 l0 657 l792 0 l0 -657 l180 0 l0 1443 l-180 0 l0 -624 l-792 0 l0 624 l-180 0 l0 -1443 l47 0 l-63 -160 l0 -84 l59 0 q79 0 114 -15 q36 -16 35 -50 q0 -35 -31 -54 q-30 -19 -88 -19 q-29 0 -65 4 q-37 5 -57 10 l0 -108 q31 -9 66 -13 q36 -5 80 -5 l0 0 Z" /><glyph glyph-name="" unicode="&#x126;" d="M1156 819 l-792 0 l0 256 l792 0 l0 -256 ZM1472 1218 l-136 0 l0 225 l-180 0 l0 -225 l-792 0 l0 225 l-180 0 l0 -225 l-136 0 l0 -143 l136 0 l0 -1075 l180 0 l0 657 l792 0 l0 -657 l180 0 l0 1075 l136 0 l0 143 Z" /><glyph glyph-name="" unicode="i" d="M364 0 l0 1443 l-180 0 l0 -1443 l180 0 Z" /><glyph glyph-name="" unicode="&#x130;" d="M364 0 l0 1443 l-180 0 l0 -1443 l180 0 ZM274 1575 q52 1 86 35 q34 34 35 86 q-1 52 -35 86 q-34 34 -86 35 q-52 -1 -86 -35 q-34 -34 -35 -86 q1 -52 35 -86 q34 -34 86 -35 l0 0 Z" /><glyph glyph-name="" unicode="ì" d="M364 0 l0 1443 l-180 0 l0 -1443 l180 0 ZM168 1575 l204 0 l-310 298 l-226 0 l332 -298 Z" /><glyph glyph-name="" unicode="&#x208;" d="M364 0 l0 1443 l-180 0 l0 -1443 l180 0 ZM394 1575 l204 0 l-310 298 l-226 0 l332 -298 ZM-20 1575 l204 0 l-310 298 l-226 0 l332 -298 Z" /><glyph glyph-name="" unicode="í" d="M364 0 l0 1443 l-180 0 l0 -1443 l180 0 ZM372 1575 l332 298 l-226 0 l-310 -298 l204 0 Z" /><glyph glyph-name="" unicode="î" d="M364 0 l0 1443 l-180 0 l0 -1443 l180 0 ZM192 1873 l-300 -298 l202 0 l172 177 l16 0 l172 -177 l202 0 l-300 298 l-164 0 Z" /><glyph glyph-name="" unicode="&#x1cf;" d="M364 0 l0 1443 l-180 0 l0 -1443 l180 0 ZM192 1575 l164 0 l300 298 l-202 0 l-172 -177 l-16 0 l-172 177 l-202 0 l300 -298 Z" /><glyph glyph-name="" unicode="ï" d="M364 0 l0 1443 l-180 0 l0 -1443 l180 0 ZM72 1575 q52 1 86 35 q34 34 35 86 q-1 52 -35 86 q-34 34 -86 35 q-52 -1 -86 -35 q-34 -34 -35 -86 q1 -52 35 -86 q34 -34 86 -35 l0 0 ZM476 1575 q52 1 86 35 q34 34 35 86 q-1 52 -35 86 q-34 34 -86 35 q-52 -1 -86 -35 q-34 -34 -35 -86 q1 -52 35 -86 q34 -34 86 -35 l0 0 Z" /><glyph glyph-name="" unicode="&#x1e2e;" d="M364 0 l0 1443 l-180 0 l0 -1443 l180 0 ZM186 1873 l176 0 l281 222 l-227 0 l-230 -222 ZM72 1575 q52 1 86 35 q34 34 35 86 q-1 52 -35 86 q-34 34 -86 35 q-52 -1 -86 -35 q-34 -34 -35 -86 q1 -52 35 -86 q34 -34 86 -35 l0 0 ZM476 1575 q52 1 86 35 q34 34 35 86 q-1 52 -35 86 q-34 34 -86 35 q-52 -1 -86 -35 q-34 -34 -35 -86 q1 -52 35 -86 q34 -34 86 -35 l0 0 Z" /><glyph glyph-name="" unicode="&#x12c;" d="M364 0 l0 1443 l-180 0 l0 -1443 l180 0 ZM-90 1873 q2 -136 97 -216 q96 -80 267 -82 q171 2 267 82 q95 80 97 216 l-154 0 q-1 -80 -56 -126 q-56 -46 -154 -47 q-98 1 -154 47 q-55 46 -56 126 l-154 0 Z" /><glyph glyph-name="" unicode="&#x1eca;" d="M364 0 l0 1443 l-180 0 l0 -1443 l180 0 ZM274 -402 q52 1 86 35 q34 34 35 86 q-1 52 -35 86 q-34 34 -86 35 q-52 -1 -86 -35 q-34 -34 -35 -86 q1 -52 35 -86 q34 -34 86 -35 l0 0 Z" /><glyph glyph-name="" unicode="&#x20a;" d="M364 0 l0 1443 l-180 0 l0 -1443 l180 0 ZM-90 1575 l154 0 q1 80 56 126 q56 46 154 47 q98 -1 154 -47 q55 -46 56 -126 l154 0 q-2 136 -97 216 q-96 80 -267 82 q-171 -2 -267 -82 q-95 -80 -97 -216 l0 0 Z" /><glyph glyph-name="" unicode="&#x12a;" d="M364 0 l0 1443 l-180 0 l0 -1443 l180 0 ZM611 1756 l-674 0 l0 -136 l674 0 l0 136 Z" /><glyph glyph-name="" unicode="&#x1e2c;" d="M364 0 l0 1443 l-180 0 l0 -1443 l180 0 ZM424 -423 q105 2 165 76 q60 75 61 205 l-135 0 q-5 -87 -32 -120 q-26 -33 -63 -31 q-58 11 -115 84 q-57 74 -181 84 q-105 -1 -165 -73 q-60 -73 -61 -208 l136 0 q3 84 27 118 q24 34 67 33 q72 -10 126 -84 q55 -73 170 -84 l0 0 Z" /><glyph glyph-name="" unicode="&#x1ec8;" d="M364 0 l0 1443 l-180 0 l0 -1443 l180 0 ZM99 1780 q20 11 48 16 q29 6 62 6 q43 -1 70 -21 q27 -20 28 -52 q-1 -32 -30 -61 q-30 -29 -79 -44 l73 -97 q82 28 131 86 q50 58 51 128 q-1 84 -60 132 q-58 47 -163 48 q-36 0 -71 -6 q-36 -5 -60 -15 l0 -120 Z" /><glyph glyph-name="" unicode="&#x128;" d="M364 0 l0 1443 l-180 0 l0 -1443 l180 0 ZM424 1575 q105 2 165 76 q60 75 61 205 l-135 0 q-5 -87 -32 -120 q-26 -33 -63 -31 q-58 11 -115 84 q-57 74 -181 84 q-105 -1 -165 -73 q-60 -73 -61 -208 l136 0 q3 84 27 118 q24 34 67 33 q72 -10 126 -84 q55 -73 170 -84 l0 0 Z" /><glyph glyph-name="" unicode="&#x12e;" d="M184 0 q-69 -42 -105 -100 q-36 -59 -36 -128 q2 -91 68 -147 q67 -55 175 -57 q29 0 55 4 q26 4 49 12 l0 134 q-11 -3 -28 -4 q-18 -2 -38 -2 q-50 1 -81 28 q-30 26 -31 70 q0 50 37 97 q37 46 110 90 l5 3 l0 1443 l-180 0 l0 -1443 Z" /><glyph glyph-name="" unicode="j" d="M86 337 q3 -168 115 -268 q112 -101 297 -103 q198 1 308 115 q110 113 112 321 l0 1041 l-180 0 l0 -1040 q-1 -133 -63 -202 q-62 -69 -178 -69 q-103 1 -165 57 q-63 56 -67 148 l-179 0 Z" /><glyph glyph-name="" unicode="&#x134;" d="M86 337 q3 -168 115 -268 q112 -101 297 -103 q198 1 308 115 q110 113 112 321 l0 1041 l-180 0 l0 -1040 q-1 -133 -63 -202 q-62 -69 -178 -69 q-103 1 -165 57 q-63 56 -67 148 l-179 0 ZM746 1873 l-300 -298 l202 0 l172 177 l16 0 l172 -177 l202 0 l-300 298 l-164 0 Z" /><glyph glyph-name="" unicode="k" d="M364 0 l0 504 l173 191 l521 -695 l233 0 l-630 820 l577 623 l-226 0 l-632 -701 l-16 0 l0 701 l-180 0 l0 -1443 l180 0 Z" /><glyph glyph-name="" unicode="&#x1e30;" d="M364 0 l0 504 l173 191 l521 -695 l233 0 l-630 820 l577 623 l-226 0 l-632 -701 l-16 0 l0 701 l-180 0 l0 -1443 l180 0 ZM751 1575 l332 298 l-226 0 l-310 -298 l204 0 Z" /><glyph glyph-name="" unicode="&#x1e8;" d="M364 0 l0 504 l173 191 l521 -695 l233 0 l-630 820 l577 623 l-226 0 l-632 -701 l-16 0 l0 701 l-180 0 l0 -1443 l180 0 ZM571 1575 l164 0 l300 298 l-202 0 l-172 -177 l-16 0 l-172 177 l-202 0 l300 -298 Z" /><glyph glyph-name="" unicode="&#x1e32;" d="M364 0 l0 504 l173 191 l521 -695 l233 0 l-630 820 l577 623 l-226 0 l-632 -701 l-16 0 l0 701 l-180 0 l0 -1443 l180 0 ZM653 -402 q52 1 86 35 q34 34 35 86 q-1 52 -35 86 q-34 34 -86 35 q-52 -1 -86 -35 q-34 -34 -35 -86 q1 -52 35 -86 q34 -34 86 -35 l0 0 Z" /><glyph glyph-name="" unicode="&#x1e34;" d="M364 0 l0 504 l173 191 l521 -695 l233 0 l-630 820 l577 623 l-226 0 l-632 -701 l-16 0 l0 701 l-180 0 l0 -1443 l180 0 ZM990 -212 l-674 0 l0 -136 l674 0 l0 136 Z" /><glyph glyph-name="" unicode="&#x136;" d="M364 0 l0 504 l173 191 l521 -695 l233 0 l-630 820 l577 623 l-226 0 l-632 -701 l-16 0 l0 701 l-180 0 l0 -1443 l180 0 ZM656 -518 l117 377 l-182 0 l-102 -377 l167 0 Z" /><glyph glyph-name="" unicode="l" d="M1060 162 l-696 0 l0 1281 l-180 0 l0 -1443 l876 0 l0 162 Z" /><glyph glyph-name="" unicode="&#x139;" d="M1060 162 l-696 0 l0 1281 l-180 0 l0 -1443 l876 0 l0 162 ZM372 1575 l332 298 l-226 0 l-310 -298 l204 0 Z" /><glyph glyph-name="" unicode="&#x1e3c;" d="M1060 162 l-696 0 l0 1281 l-180 0 l0 -1443 l876 0 l0 162 ZM704 -142 l-164 0 l-300 -290 l202 0 l172 173 l16 0 l172 -173 l202 0 l-300 290 Z" /><glyph glyph-name="" unicode="&#x1e36;" d="M1060 162 l-696 0 l0 1281 l-180 0 l0 -1443 l876 0 l0 162 ZM622 -402 q52 1 86 35 q34 34 35 86 q-1 52 -35 86 q-34 34 -86 35 q-52 -1 -86 -35 q-34 -34 -35 -86 q1 -52 35 -86 q34 -34 86 -35 l0 0 Z" /><glyph glyph-name="" unicode="&#x1e38;" d="M1060 162 l-696 0 l0 1281 l-180 0 l0 -1443 l876 0 l0 162 ZM622 -402 q52 1 86 35 q34 34 35 86 q-1 52 -35 86 q-34 34 -86 35 q-52 -1 -86 -35 q-34 -34 -35 -86 q1 -52 35 -86 q34 -34 86 -35 l0 0 ZM611 1756 l-674 0 l0 -136 l674 0 l0 136 Z" /><glyph glyph-name="" unicode="&#x1e3a;" d="M1060 162 l-696 0 l0 1281 l-180 0 l0 -1443 l876 0 l0 162 ZM959 -212 l-674 0 l0 -136 l674 0 l0 136 Z" /><glyph glyph-name="" unicode="&#x13b;" d="M1060 162 l-696 0 l0 1281 l-180 0 l0 -1443 l876 0 l0 162 ZM625 -518 l117 377 l-182 0 l-102 -377 l167 0 Z" /><glyph glyph-name="" unicode="&#x13d;" d="M589 1443 l0 -488 l120 0 l50 488 l-170 0 ZM1060 162 l-696 0 l0 1281 l-180 0 l0 -1443 l876 0 l0 162 Z" /><glyph glyph-name="" unicode="&#x141;" d="M364 162 l0 639 l292 133 l0 143 l-292 -133 l0 499 l-180 0 l0 -581 l-166 -76 l0 -143 l166 76 l0 -719 l876 0 l0 162 l-696 0 Z" /><glyph glyph-name="" unicode="m" d="M1606 0 l0 1443 l-209 0 l-494 -1194 l-16 0 l-494 1194 l-209 0 l0 -1443 l168 0 l0 1102 l12 0 l455 -1092 l152 0 l455 1092 l12 0 l0 -1102 l168 0 Z" /><glyph glyph-name="" unicode="&#x1e3e;" d="M1606 0 l0 1443 l-209 0 l-494 -1194 l-16 0 l-494 1194 l-209 0 l0 -1443 l168 0 l0 1102 l12 0 l455 -1092 l152 0 l455 1092 l12 0 l0 -1102 l168 0 ZM993 1575 l332 298 l-226 0 l-310 -298 l204 0 Z" /><glyph glyph-name="" unicode="&#x1e40;" d="M1606 0 l0 1443 l-209 0 l-494 -1194 l-16 0 l-494 1194 l-209 0 l0 -1443 l168 0 l0 1102 l12 0 l455 -1092 l152 0 l455 1092 l12 0 l0 -1102 l168 0 ZM895 1575 q52 1 86 35 q34 34 35 86 q-1 52 -35 86 q-34 34 -86 35 q-52 -1 -86 -35 q-34 -34 -35 -86 q1 -52 35 -86 q34 -34 86 -35 l0 0 Z" /><glyph glyph-name="" unicode="&#x1e42;" d="M1606 0 l0 1443 l-209 0 l-494 -1194 l-16 0 l-494 1194 l-209 0 l0 -1443 l168 0 l0 1102 l12 0 l455 -1092 l152 0 l455 1092 l12 0 l0 -1102 l168 0 ZM895 -402 q52 1 86 35 q34 34 35 86 q-1 52 -35 86 q-34 34 -86 35 q-52 -1 -86 -35 q-34 -34 -35 -86 q1 -52 35 -86 q34 -34 86 -35 l0 0 Z" /><glyph glyph-name="" unicode="n" d="M362 0 l0 1119 l16 0 l783 -1119 l175 0 l0 1443 l-178 0 l0 -1123 l-16 0 l-783 1123 l-175 0 l0 -1443 l178 0 Z" /><glyph glyph-name="" unicode="&#x1f8;" d="M362 0 l0 1119 l16 0 l783 -1119 l175 0 l0 1443 l-178 0 l0 -1123 l-16 0 l-783 1123 l-175 0 l0 -1443 l178 0 ZM654 1575 l204 0 l-310 298 l-226 0 l332 -298 Z" /><glyph glyph-name="" unicode="&#x143;" d="M362 0 l0 1119 l16 0 l783 -1119 l175 0 l0 1443 l-178 0 l0 -1123 l-16 0 l-783 1123 l-175 0 l0 -1443 l178 0 ZM858 1575 l332 298 l-226 0 l-310 -298 l204 0 Z" /><glyph glyph-name="" unicode="ñ" d="M362 0 l0 1119 l16 0 l783 -1119 l175 0 l0 1443 l-178 0 l0 -1123 l-16 0 l-783 1123 l-175 0 l0 -1443 l178 0 ZM910 1575 q105 2 165 76 q60 75 61 205 l-135 0 q-5 -87 -32 -120 q-26 -33 -63 -31 q-58 11 -115 84 q-57 74 -181 84 q-105 -1 -165 -73 q-60 -73 -61 -208 l136 0 q3 84 27 118 q24 34 67 33 q72 -10 126 -84 q55 -73 170 -84 l0 0 Z" /><glyph glyph-name="" unicode="&#x1e46;" d="M362 0 l0 1119 l16 0 l783 -1119 l175 0 l0 1443 l-178 0 l0 -1123 l-16 0 l-783 1123 l-175 0 l0 -1443 l178 0 ZM760 -402 q52 1 86 35 q34 34 35 86 q-1 52 -35 86 q-34 34 -86 35 q-52 -1 -86 -35 q-34 -34 -35 -86 q1 -52 35 -86 q34 -34 86 -35 l0 0 Z" /><glyph glyph-name="" unicode="&#x1e44;" d="M362 0 l0 1119 l16 0 l783 -1119 l175 0 l0 1443 l-178 0 l0 -1123 l-16 0 l-783 1123 l-175 0 l0 -1443 l178 0 ZM760 1575 q52 1 86 35 q34 34 35 86 q-1 52 -35 86 q-34 34 -86 35 q-52 -1 -86 -35 q-34 -34 -35 -86 q1 -52 35 -86 q34 -34 86 -35 l0 0 Z" /><glyph glyph-name="" unicode="&#x147;" d="M362 0 l0 1119 l16 0 l783 -1119 l175 0 l0 1443 l-178 0 l0 -1123 l-16 0 l-783 1123 l-175 0 l0 -1443 l178 0 ZM678 1575 l164 0 l300 298 l-202 0 l-172 -177 l-16 0 l-172 177 l-202 0 l300 -298 Z" /><glyph glyph-name="" unicode="&#x1e4a;" d="M362 0 l0 1119 l16 0 l783 -1119 l175 0 l0 1443 l-178 0 l0 -1123 l-16 0 l-783 1123 l-175 0 l0 -1443 l178 0 ZM842 -142 l-164 0 l-300 -290 l202 0 l172 173 l16 0 l172 -173 l202 0 l-300 290 Z" /><glyph glyph-name="" unicode="&#x1e48;" d="M362 0 l0 1119 l16 0 l783 -1119 l175 0 l0 1443 l-178 0 l0 -1123 l-16 0 l-783 1123 l-175 0 l0 -1443 l178 0 ZM1097 -212 l-674 0 l0 -136 l674 0 l0 136 Z" /><glyph glyph-name="" unicode="&#x145;" d="M362 0 l0 1119 l16 0 l783 -1119 l175 0 l0 1443 l-178 0 l0 -1123 l-16 0 l-783 1123 l-175 0 l0 -1443 l178 0 ZM763 -518 l117 377 l-182 0 l-102 -377 l167 0 Z" /><glyph glyph-name="" unicode="o" d="M791 1477 q-309 -4 -484 -203 q-176 -200 -179 -552 q3 -350 176 -551 q174 -201 487 -205 q312 4 485 205 q172 201 175 551 q-3 351 -176 551 q-174 200 -484 204 l0 0 ZM791 1311 q223 -3 348 -159 q125 -156 127 -430 q-2 -272 -126 -429 q-125 -158 -349 -161 q-227 3 -351 161 q-125 157 -127 429 q2 274 129 430 q126 156 349 159 l0 0 Z" /><glyph glyph-name="" unicode="ö" d="M791 1477 q-309 -4 -484 -203 q-176 -200 -179 -552 q3 -350 176 -551 q174 -201 487 -205 q312 4 485 205 q172 201 175 551 q-3 351 -176 551 q-174 200 -484 204 l0 0 ZM791 1311 q223 -3 348 -159 q125 -156 127 -430 q-2 -272 -126 -429 q-125 -158 -349 -161 q-227 3 -351 161 q-125 157 -127 429 q2 274 129 430 q126 156 349 159 l0 0 ZM589 1575 q52 1 86 35 q34 34 35 86 q-1 52 -35 86 q-34 34 -86 35 q-52 -1 -86 -35 q-34 -34 -35 -86 q1 -52 35 -86 q34 -34 86 -35 l0 0 ZM993 1575 q52 1 86 35 q34 34 35 86 q-1 52 -35 86 q-34 34 -86 35 q-52 -1 -86 -35 q-34 -34 -35 -86 q1 -52 35 -86 q34 -34 86 -35 l0 0 Z" /><glyph glyph-name="" unicode="ø" d="M1158 1127 q53 -76 80 -178 q28 -102 28 -227 q-2 -272 -126 -429 q-125 -158 -349 -161 q-94 0 -172 30 q-77 29 -136 84 l675 881 ZM403 346 q-44 74 -67 169 q-23 94 -23 207 q2 274 129 430 q126 156 349 159 q84 0 156 -24 q71 -24 128 -70 l-672 -871 ZM1382 1419 l-98 69 l-101 -130 q-78 58 -177 88 q-99 31 -215 31 q-309 -4 -484 -203 q-176 -200 -179 -552 q0 -164 40 -297 q40 -133 117 -231 l-127 -165 l100 -76 l115 150 q82 -66 187 -101 q105 -36 231 -36 q312 4 485 205 q172 201 175 551 q0 175 -46 315 q-46 140 -133 239 l110 143 Z" /><glyph glyph-name="" unicode="õ" d="M791 1477 q-309 -4 -484 -203 q-176 -200 -179 -552 q3 -350 176 -551 q174 -201 487 -205 q312 4 485 205 q172 201 175 551 q-3 351 -176 551 q-174 200 -484 204 l0 0 ZM791 1311 q223 -3 348 -159 q125 -156 127 -430 q-2 -272 -126 -429 q-125 -158 -349 -161 q-227 3 -351 161 q-125 157 -127 429 q2 274 129 430 q126 156 349 159 l0 0 ZM941 1575 q105 2 165 76 q60 75 61 205 l-135 0 q-5 -87 -32 -120 q-26 -33 -63 -31 q-58 11 -115 84 q-57 74 -181 84 q-105 -1 -165 -73 q-60 -73 -61 -208 l136 0 q3 84 27 118 q24 34 67 33 q72 -10 126 -84 q55 -73 170 -84 l0 0 Z" /><glyph glyph-name="" unicode="ó" d="M791 1477 q-309 -4 -484 -203 q-176 -200 -179 -552 q3 -350 176 -551 q174 -201 487 -205 q312 4 485 205 q172 201 175 551 q-3 351 -176 551 q-174 200 -484 204 l0 0 ZM791 1311 q223 -3 348 -159 q125 -156 127 -430 q-2 -272 -126 -429 q-125 -158 -349 -161 q-227 3 -351 161 q-125 157 -127 429 q2 274 129 430 q126 156 349 159 l0 0 ZM889 1575 l332 298 l-226 0 l-310 -298 l204 0 Z" /><glyph glyph-name="" unicode="ô" d="M791 1477 q-309 -4 -484 -203 q-176 -200 -179 -552 q3 -350 176 -551 q174 -201 487 -205 q312 4 485 205 q172 201 175 551 q-3 351 -176 551 q-174 200 -484 204 l0 0 ZM791 1311 q223 -3 348 -159 q125 -156 127 -430 q-2 -272 -126 -429 q-125 -158 -349 -161 q-227 3 -351 161 q-125 157 -127 429 q2 274 129 430 q126 156 349 159 l0 0 ZM709 1873 l-300 -298 l202 0 l172 177 l16 0 l172 -177 l202 0 l-300 298 l-164 0 Z" /><glyph glyph-name="" unicode="ò" d="M791 1477 q-309 -4 -484 -203 q-176 -200 -179 -552 q3 -350 176 -551 q174 -201 487 -205 q312 4 485 205 q172 201 175 551 q-3 351 -176 551 q-174 200 -484 204 l0 0 ZM791 1311 q223 -3 348 -159 q125 -156 127 -430 q-2 -272 -126 -429 q-125 -158 -349 -161 q-227 3 -351 161 q-125 157 -127 429 q2 274 129 430 q126 156 349 159 l0 0 ZM685 1575 l204 0 l-310 298 l-226 0 l332 -298 Z" /><glyph glyph-name="" unicode="&#x1ed4;" d="M791 1477 q-309 -4 -484 -203 q-176 -200 -179 -552 q3 -350 176 -551 q174 -201 487 -205 q312 4 485 205 q172 201 175 551 q-3 351 -176 551 q-174 200 -484 204 l0 0 ZM791 1311 q223 -3 348 -159 q125 -156 127 -430 q-2 -272 -126 -429 q-125 -158 -349 -161 q-227 3 -351 161 q-125 157 -127 429 q2 274 129 430 q126 156 349 159 l0 0 ZM693 1808 l-294 -233 l222 0 l162 135 l16 0 l162 -135 l222 0 l-294 233 l-196 0 ZM903 1977 q16 7 41 11 q25 5 53 5 q36 -1 58 -18 q22 -18 23 -46 q0 -32 -23 -58 q-22 -26 -61 -39 l98 -71 q58 19 93 68 q35 48 36 107 q-1 72 -51 115 q-50 43 -132 44 q-46 0 -82 -5 q-36 -5 -53 -11 l0 -102 Z" /><glyph glyph-name="" unicode="&#x1ed2;" d="M791 1477 q-309 -4 -484 -203 q-176 -200 -179 -552 q3 -350 176 -551 q174 -201 487 -205 q312 4 485 205 q172 201 175 551 q-3 351 -176 551 q-174 200 -484 204 l0 0 ZM791 1311 q223 -3 348 -159 q125 -156 127 -430 q-2 -272 -126 -429 q-125 -158 -349 -161 q-227 3 -351 161 q-125 157 -127 429 q2 274 129 430 q126 156 349 159 l0 0 ZM693 1808 l-294 -233 l222 0 l162 135 l16 0 l162 -135 l222 0 l-294 233 l-196 0 ZM1225 1853 l-220 242 l-216 0 l246 -242 l190 0 Z" /><glyph glyph-name="" unicode="&#x1ecc;" d="M791 1477 q-309 -4 -484 -203 q-176 -200 -179 -552 q3 -350 176 -551 q174 -201 487 -205 q312 4 485 205 q172 201 175 551 q-3 351 -176 551 q-174 200 -484 204 l0 0 ZM791 1311 q223 -3 348 -159 q125 -156 127 -430 q-2 -272 -126 -429 q-125 -158 -349 -161 q-227 3 -351 161 q-125 157 -127 429 q2 274 129 430 q126 156 349 159 l0 0 ZM791 -402 q52 1 86 35 q34 34 35 86 q-1 52 -35 86 q-34 34 -86 35 q-52 -1 -86 -35 q-34 -34 -35 -86 q1 -52 35 -86 q34 -34 86 -35 l0 0 Z" /><glyph glyph-name="" unicode="&#x20c;" d="M791 1477 q-309 -4 -484 -203 q-176 -200 -179 -552 q3 -350 176 -551 q174 -201 487 -205 q312 4 485 205 q172 201 175 551 q-3 351 -176 551 q-174 200 -484 204 l0 0 ZM791 1311 q223 -3 348 -159 q125 -156 127 -430 q-2 -272 -126 -429 q-125 -158 -349 -161 q-227 3 -351 161 q-125 157 -127 429 q2 274 129 430 q126 156 349 159 l0 0 ZM911 1575 l204 0 l-310 298 l-226 0 l332 -298 ZM497 1575 l204 0 l-310 298 l-226 0 l332 -298 Z" /><glyph glyph-name="" unicode="&#x1e4c;" d="M791 1477 q-309 -4 -484 -203 q-176 -200 -179 -552 q3 -350 176 -551 q174 -201 487 -205 q312 4 485 205 q172 201 175 551 q-3 351 -176 551 q-174 200 -484 204 l0 0 ZM791 1311 q223 -3 348 -159 q125 -156 127 -430 q-2 -272 -126 -429 q-125 -158 -349 -161 q-227 3 -351 161 q-125 157 -127 429 q2 274 129 430 q126 156 349 159 l0 0 ZM931 1575 q102 3 163 71 q61 68 63 170 l-135 0 q-5 -58 -32 -85 q-26 -26 -63 -26 q-72 8 -115 64 q-42 56 -161 64 q-102 -2 -163 -68 q-61 -65 -63 -173 l136 0 q3 55 27 83 q24 28 67 28 q72 -8 115 -64 q42 -56 161 -64 l0 0 ZM765 1873 l190 0 l248 222 l-218 0 l-220 -222 Z" /><glyph glyph-name="" unicode="&#x1e52;" d="M791 1477 q-309 -4 -484 -203 q-176 -200 -179 -552 q3 -350 176 -551 q174 -201 487 -205 q312 4 485 205 q172 201 175 551 q-3 351 -176 551 q-174 200 -484 204 l0 0 ZM791 1311 q223 -3 348 -159 q125 -156 127 -430 q-2 -272 -126 -429 q-125 -158 -349 -161 q-227 3 -351 161 q-125 157 -127 429 q2 274 129 430 q126 156 349 159 l0 0 ZM1128 1619 l0 130 l-674 0 l0 -130 l674 0 ZM685 1872 l192 0 l246 222 l-218 0 l-220 -222 Z" /><glyph glyph-name="" unicode="&#x1ed6;" d="M791 1477 q-309 -4 -484 -203 q-176 -200 -179 -552 q3 -350 176 -551 q174 -201 487 -205 q312 4 485 205 q172 201 175 551 q-3 351 -176 551 q-174 200 -484 204 l0 0 ZM791 1311 q223 -3 348 -159 q125 -156 127 -430 q-2 -272 -126 -429 q-125 -158 -349 -161 q-227 3 -351 161 q-125 157 -127 429 q2 274 129 430 q126 156 349 159 l0 0 ZM931 1854 q102 3 163 71 q61 68 63 170 l-135 0 q-5 -58 -32 -85 q-26 -26 -63 -26 q-72 8 -115 64 q-42 56 -161 64 q-102 -2 -163 -68 q-61 -65 -63 -173 l136 0 q3 55 27 83 q24 28 67 28 q72 -8 115 -64 q42 -56 161 -64 l0 0 ZM693 1808 l-294 -233 l222 0 l162 135 l16 0 l162 -135 l222 0 l-294 233 l-196 0 Z" /><glyph glyph-name="" unicode="&#x230;" d="M791 1477 q-309 -4 -484 -203 q-176 -200 -179 -552 q3 -350 176 -551 q174 -201 487 -205 q312 4 485 205 q172 201 175 551 q-3 351 -176 551 q-174 200 -484 204 l0 0 ZM791 1311 q223 -3 348 -159 q125 -156 127 -430 q-2 -272 -126 -429 q-125 -158 -349 -161 q-227 3 -351 161 q-125 157 -127 429 q2 274 129 430 q126 156 349 159 l0 0 ZM791 1577 q51 1 84 35 q34 33 35 84 q-1 51 -35 84 q-33 34 -84 35 q-51 -1 -84 -35 q-34 -33 -35 -84 q1 -51 35 -84 q33 -34 84 -35 l0 0 ZM1128 2062 l-674 0 l0 -130 l674 0 l0 130 Z" /><glyph glyph-name="" unicode="&#x1e50;" d="M791 1477 q-309 -4 -484 -203 q-176 -200 -179 -552 q3 -350 176 -551 q174 -201 487 -205 q312 4 485 205 q172 201 175 551 q-3 351 -176 551 q-174 200 -484 204 l0 0 ZM791 1311 q223 -3 348 -159 q125 -156 127 -430 q-2 -272 -126 -429 q-125 -158 -349 -161 q-227 3 -351 161 q-125 157 -127 429 q2 274 129 430 q126 156 349 159 l0 0 ZM454 1620 l674 0 l0 130 l-674 0 l0 -130 ZM897 1873 l-220 222 l-218 0 l246 -222 l192 0 Z" /><glyph glyph-name="" unicode="&#x1d1;" d="M791 1477 q-309 -4 -484 -203 q-176 -200 -179 -552 q3 -350 176 -551 q174 -201 487 -205 q312 4 485 205 q172 201 175 551 q-3 351 -176 551 q-174 200 -484 204 l0 0 ZM791 1311 q223 -3 348 -159 q125 -156 127 -430 q-2 -272 -126 -429 q-125 -158 -349 -161 q-227 3 -351 161 q-125 157 -127 429 q2 274 129 430 q126 156 349 159 l0 0 ZM709 1575 l164 0 l300 298 l-202 0 l-172 -177 l-16 0 l-172 177 l-202 0 l300 -298 Z" /><glyph glyph-name="" unicode="&#x1fe;" d="M1206 1873 l-226 0 l-310 -298 l204 0 l332 298 ZM1158 1127 q53 -76 80 -178 q28 -102 28 -227 q-2 -272 -126 -429 q-125 -158 -349 -161 q-94 0 -172 30 q-77 29 -136 84 l675 881 ZM403 346 q-44 74 -67 169 q-23 94 -23 207 q2 274 129 430 q126 156 349 159 q84 0 156 -24 q71 -24 128 -70 l-672 -871 ZM1382 1419 l-98 69 l-101 -130 q-78 58 -177 88 q-99 31 -215 31 q-309 -4 -484 -203 q-176 -200 -179 -552 q0 -164 40 -297 q40 -133 117 -231 l-127 -165 l100 -76 l115 150 q82 -66 187 -101 q105 -36 231 -36 q312 4 485 205 q172 201 175 551 q0 175 -46 315 q-46 140 -133 239 l110 143 Z" /><glyph glyph-name="" unicode="&#x150;" d="M791 1477 q-309 -4 -484 -203 q-176 -200 -179 -552 q3 -350 176 -551 q174 -201 487 -205 q312 4 485 205 q172 201 175 551 q-3 351 -176 551 q-174 200 -484 204 l0 0 ZM791 1311 q223 -3 348 -159 q125 -156 127 -430 q-2 -272 -126 -429 q-125 -158 -349 -161 q-227 3 -351 161 q-125 157 -127 429 q2 274 129 430 q126 156 349 159 l0 0 ZM1045 1575 l332 298 l-226 0 l-310 -298 l204 0 ZM631 1575 l332 298 l-226 0 l-310 -298 l204 0 Z" /><glyph glyph-name="" unicode="&#x14e;" d="M791 1477 q-309 -4 -484 -203 q-176 -200 -179 -552 q3 -350 176 -551 q174 -201 487 -205 q312 4 485 205 q172 201 175 551 q-3 351 -176 551 q-174 200 -484 204 l0 0 ZM791 1311 q223 -3 348 -159 q125 -156 127 -430 q-2 -272 -126 -429 q-125 -158 -349 -161 q-227 3 -351 161 q-125 157 -127 429 q2 274 129 430 q126 156 349 159 l0 0 ZM427 1873 q2 -136 97 -216 q96 -80 267 -82 q171 2 267 82 q95 80 97 216 l-154 0 q-1 -80 -56 -126 q-56 -46 -154 -47 q-98 1 -154 47 q-55 46 -56 126 l-154 0 Z" /><glyph glyph-name="" unicode="&#x20e;" d="M791 1477 q-309 -4 -484 -203 q-176 -200 -179 -552 q3 -350 176 -551 q174 -201 487 -205 q312 4 485 205 q172 201 175 551 q-3 351 -176 551 q-174 200 -484 204 l0 0 ZM791 1311 q223 -3 348 -159 q125 -156 127 -430 q-2 -272 -126 -429 q-125 -158 -349 -161 q-227 3 -351 161 q-125 157 -127 429 q2 274 129 430 q126 156 349 159 l0 0 ZM427 1575 l154 0 q1 80 56 126 q56 46 154 47 q98 -1 154 -47 q55 -46 56 -126 l154 0 q-2 136 -97 216 q-96 80 -267 82 q-171 -2 -267 -82 q-95 -80 -97 -216 l0 0 Z" /><glyph glyph-name="" unicode="&#x1ece;" d="M791 1477 q-309 -4 -484 -203 q-176 -200 -179 -552 q3 -350 176 -551 q174 -201 487 -205 q312 4 485 205 q172 201 175 551 q-3 351 -176 551 q-174 200 -484 204 l0 0 ZM791 1311 q223 -3 348 -159 q125 -156 127 -430 q-2 -272 -126 -429 q-125 -158 -349 -161 q-227 3 -351 161 q-125 157 -127 429 q2 274 129 430 q126 156 349 159 l0 0 ZM616 1780 q20 11 48 16 q29 6 62 6 q43 -1 70 -21 q27 -20 28 -52 q-1 -32 -30 -61 q-30 -29 -79 -44 l73 -97 q82 28 131 86 q50 58 51 128 q-1 84 -60 132 q-58 47 -163 48 q-36 0 -71 -6 q-36 -5 -60 -15 l0 -120 Z" /><glyph glyph-name="" unicode="&#x22a;" d="M791 1477 q-309 -4 -484 -203 q-176 -200 -179 -552 q3 -350 176 -551 q174 -201 487 -205 q312 4 485 205 q172 201 175 551 q-3 351 -176 551 q-174 200 -484 204 l0 0 ZM791 1311 q223 -3 348 -159 q125 -156 127 -430 q-2 -272 -126 -429 q-125 -158 -349 -161 q-227 3 -351 161 q-125 157 -127 429 q2 274 129 430 q126 156 349 159 l0 0 ZM589 1809 q-50 -1 -83 -34 q-33 -33 -34 -83 q1 -50 34 -83 q33 -33 83 -34 q50 1 83 34 q33 33 34 83 q-1 50 -34 83 q-33 33 -83 34 l0 0 ZM454 2062 l0 -130 l674 0 l0 130 l-674 0 ZM993 1809 q-50 -1 -83 -34 q-33 -33 -34 -83 q1 -50 34 -83 q33 -33 83 -34 q50 1 83 34 q33 33 34 83 q-1 50 -34 83 q-33 33 -83 34 l0 0 Z" /><glyph glyph-name="" unicode="&#x22c;" d="M791 1477 q-309 -4 -484 -203 q-176 -200 -179 -552 q3 -350 176 -551 q174 -201 487 -205 q312 4 485 205 q172 201 175 551 q-3 351 -176 551 q-174 200 -484 204 l0 0 ZM791 1311 q223 -3 348 -159 q125 -156 127 -430 q-2 -272 -126 -429 q-125 -158 -349 -161 q-227 3 -351 161 q-125 157 -127 429 q2 274 129 430 q126 156 349 159 l0 0 ZM931 1575 q102 3 163 71 q61 68 63 170 l-135 0 q-5 -58 -32 -85 q-26 -26 -63 -26 q-72 8 -115 64 q-42 56 -161 64 q-102 -2 -163 -68 q-61 -65 -63 -173 l136 0 q3 55 27 83 q24 28 67 28 q72 -8 115 -64 q42 -56 161 -64 l0 0 ZM1128 2062 l-674 0 l0 -130 l674 0 l0 130 Z" /><glyph glyph-name="" unicode="&#x22e;" d="M791 1477 q-309 -4 -484 -203 q-176 -200 -179 -552 q3 -350 176 -551 q174 -201 487 -205 q312 4 485 205 q172 201 175 551 q-3 351 -176 551 q-174 200 -484 204 l0 0 ZM791 1311 q223 -3 348 -159 q125 -156 127 -430 q-2 -272 -126 -429 q-125 -158 -349 -161 q-227 3 -351 161 q-125 157 -127 429 q2 274 129 430 q126 156 349 159 l0 0 ZM791 1575 q52 1 86 35 q34 34 35 86 q-1 52 -35 86 q-34 34 -86 35 q-52 -1 -86 -35 q-34 -34 -35 -86 q1 -52 35 -86 q34 -34 86 -35 l0 0 Z" /><glyph glyph-name="" unicode="&#x1ed8;" d="M791 1477 q-309 -4 -484 -203 q-176 -200 -179 -552 q3 -350 176 -551 q174 -201 487 -205 q312 4 485 205 q172 201 175 551 q-3 351 -176 551 q-174 200 -484 204 l0 0 ZM791 1311 q223 -3 348 -159 q125 -156 127 -430 q-2 -272 -126 -429 q-125 -158 -349 -161 q-227 3 -351 161 q-125 157 -127 429 q2 274 129 430 q126 156 349 159 l0 0 ZM709 1873 l-300 -298 l202 0 l172 177 l16 0 l172 -177 l202 0 l-300 298 l-164 0 ZM791 -402 q52 1 86 35 q34 34 35 86 q-1 52 -35 86 q-34 34 -86 35 q-52 -1 -86 -35 q-34 -34 -35 -86 q1 -52 35 -86 q34 -34 86 -35 l0 0 Z" /><glyph glyph-name="" unicode="&#x1ed0;" d="M791 1477 q-309 -4 -484 -203 q-176 -200 -179 -552 q3 -350 176 -551 q174 -201 487 -205 q312 4 485 205 q172 201 175 551 q-3 351 -176 551 q-174 200 -484 204 l0 0 ZM791 1311 q223 -3 348 -159 q125 -156 127 -430 q-2 -272 -126 -429 q-125 -158 -349 -161 q-227 3 -351 161 q-125 157 -127 429 q2 274 129 430 q126 156 349 159 l0 0 ZM693 1808 l-294 -233 l222 0 l162 135 l16 0 l162 -135 l222 0 l-294 233 l-196 0 ZM989 1853 l190 0 l246 242 l-216 0 l-220 -242 Z" /><glyph glyph-name="" unicode="&#x1e4e;" d="M791 1477 q-309 -4 -484 -203 q-176 -200 -179 -552 q3 -350 176 -551 q174 -201 487 -205 q312 4 485 205 q172 201 175 551 q-3 351 -176 551 q-174 200 -484 204 l0 0 ZM791 1311 q223 -3 348 -159 q125 -156 127 -430 q-2 -272 -126 -429 q-125 -158 -349 -161 q-227 3 -351 161 q-125 157 -127 429 q2 274 129 430 q126 156 349 159 l0 0 ZM931 1566 q102 3 163 71 q61 68 63 170 l-135 0 q-5 -58 -32 -85 q-26 -26 -63 -26 q-72 8 -115 64 q-42 56 -161 64 q-102 -2 -163 -68 q-61 -65 -63 -173 l136 0 q3 55 27 83 q24 28 67 28 q72 -8 115 -64 q42 -56 161 -64 l0 0 ZM589 2095 q-53 -1 -84 -29 q-32 -28 -33 -74 q1 -46 33 -74 q31 -28 84 -29 q53 1 84 29 q32 28 33 74 q-1 46 -33 74 q-31 28 -84 29 l0 0 ZM993 2095 q-53 -1 -84 -29 q-32 -28 -33 -74 q1 -46 33 -74 q31 -28 84 -29 q53 1 84 29 q32 28 33 74 q-1 46 -33 74 q-31 28 -84 29 l0 0 Z" /><glyph glyph-name="" unicode="&#x14c;" d="M791 1477 q-309 -4 -484 -203 q-176 -200 -179 -552 q3 -350 176 -551 q174 -201 487 -205 q312 4 485 205 q172 201 175 551 q-3 351 -176 551 q-174 200 -484 204 l0 0 ZM791 1311 q223 -3 348 -159 q125 -156 127 -430 q-2 -272 -126 -429 q-125 -158 -349 -161 q-227 3 -351 161 q-125 157 -127 429 q2 274 129 430 q126 156 349 159 l0 0 ZM1128 1756 l-674 0 l0 -136 l674 0 l0 136 Z" /><glyph glyph-name="" unicode="&#x1ea;" d="M1058 -432 q29 0 55 4 q26 4 49 12 l0 134 q-11 -3 -28 -4 q-18 -2 -38 -2 q-50 1 -81 28 q-30 26 -31 70 q0 42 34 95 q34 52 99 109 q176 156 256 325 q79 169 78 383 q-3 353 -177 552 q-175 200 -483 203 q-309 -4 -484 -203 q-176 -200 -179 -552 q3 -354 178 -553 q175 -200 485 -203 q48 0 91 9 q43 8 64 21 l0 -16 q-64 -42 -97 -95 q-34 -53 -34 -113 q2 -91 68 -147 q67 -55 175 -57 l0 0 ZM791 1311 q222 -3 347 -158 q126 -156 128 -431 q-2 -275 -128 -431 q-126 -156 -347 -159 q-223 3 -350 159 q-126 155 -128 431 q2 274 129 430 q127 156 349 159 l0 0 Z" /><glyph glyph-name="" unicode="&#x1ec;" d="M1058 -432 q29 0 55 4 q26 4 49 12 l0 134 q-11 -3 -28 -4 q-18 -2 -38 -2 q-50 1 -81 28 q-30 26 -31 70 q0 42 34 95 q34 52 99 109 q176 156 256 325 q79 169 78 383 q-3 353 -177 552 q-175 200 -483 203 q-309 -4 -484 -203 q-176 -200 -179 -552 q3 -354 178 -553 q175 -200 485 -203 q48 0 91 9 q43 8 64 21 l0 -16 q-64 -42 -97 -95 q-34 -53 -34 -113 q2 -91 68 -147 q67 -55 175 -57 l0 0 ZM791 1311 q222 -3 347 -158 q126 -156 128 -431 q-2 -275 -128 -431 q-126 -156 -347 -159 q-223 3 -350 159 q-126 155 -128 431 q2 274 129 430 q127 156 349 159 l0 0 ZM1128 1756 l-674 0 l0 -136 l674 0 l0 136 Z" /><glyph glyph-name="" unicode="&#x1a0;" d="M791 -34 q312 4 485 205 q172 201 175 551 q-1 191 -60 346 q-59 155 -157 227 l0 12 q8 0 22 0 q14 0 37 0 q76 0 128 44 q52 44 54 127 l0 192 l-159 0 l0 -140 q1 -50 -23 -72 q-24 -21 -86 -21 q-110 3 -208 20 q-98 18 -208 20 q-309 -4 -484 -203 q-176 -200 -179 -552 q3 -350 176 -551 q174 -201 487 -205 l0 0 ZM791 132 q-227 3 -351 161 q-125 157 -127 429 q2 274 129 430 q126 156 349 159 q223 -3 348 -159 q125 -156 127 -430 q-2 -272 -126 -429 q-125 -158 -349 -161 l0 0 Z" /><glyph glyph-name="" unicode="&#x1ee2;" d="M791 -34 q312 4 485 205 q172 201 175 551 q-1 191 -60 346 q-59 155 -157 227 l0 12 q8 0 22 0 q14 0 37 0 q76 0 128 44 q52 44 54 127 l0 192 l-159 0 l0 -140 q1 -50 -23 -72 q-24 -21 -86 -21 q-110 3 -208 20 q-98 18 -208 20 q-309 -4 -484 -203 q-176 -200 -179 -552 q3 -350 176 -551 q174 -201 487 -205 l0 0 ZM791 132 q-227 3 -351 161 q-125 157 -127 429 q2 274 129 430 q126 156 349 159 q223 -3 348 -159 q125 -156 127 -430 q-2 -272 -126 -429 q-125 -158 -349 -161 l0 0 ZM791 -402 q52 1 86 35 q34 34 35 86 q-1 52 -35 86 q-34 34 -86 35 q-52 -1 -86 -35 q-34 -34 -35 -86 q1 -52 35 -86 q34 -34 86 -35 l0 0 Z" /><glyph glyph-name="" unicode="&#x1ede;" d="M791 -34 q312 4 485 205 q172 201 175 551 q-1 191 -60 346 q-59 155 -157 227 l0 12 q8 0 22 0 q14 0 37 0 q76 0 128 44 q52 44 54 127 l0 192 l-159 0 l0 -140 q1 -50 -23 -72 q-24 -21 -86 -21 q-110 3 -208 20 q-98 18 -208 20 q-309 -4 -484 -203 q-176 -200 -179 -552 q3 -350 176 -551 q174 -201 487 -205 l0 0 ZM791 132 q-227 3 -351 161 q-125 157 -127 429 q2 274 129 430 q126 156 349 159 q223 -3 348 -159 q125 -156 127 -430 q-2 -272 -126 -429 q-125 -158 -349 -161 l0 0 ZM616 1780 q20 11 48 16 q29 6 62 6 q43 -1 70 -21 q27 -20 28 -52 q-1 -32 -30 -61 q-30 -29 -79 -44 l73 -97 q82 28 131 86 q50 58 51 128 q-1 84 -60 132 q-58 47 -163 48 q-36 0 -71 -6 q-36 -5 -60 -15 l0 -120 Z" /><glyph glyph-name="" unicode="&#x1ee0;" d="M791 -34 q312 4 485 205 q172 201 175 551 q-1 191 -60 346 q-59 155 -157 227 l0 12 q8 0 22 0 q14 0 37 0 q76 0 128 44 q52 44 54 127 l0 192 l-159 0 l0 -140 q1 -50 -23 -72 q-24 -21 -86 -21 q-110 3 -208 20 q-98 18 -208 20 q-309 -4 -484 -203 q-176 -200 -179 -552 q3 -350 176 -551 q174 -201 487 -205 l0 0 ZM791 132 q-227 3 -351 161 q-125 157 -127 429 q2 274 129 430 q126 156 349 159 q223 -3 348 -159 q125 -156 127 -430 q-2 -272 -126 -429 q-125 -158 -349 -161 l0 0 ZM941 1575 q105 2 165 76 q60 75 61 205 l-135 0 q-5 -87 -32 -120 q-26 -33 -63 -31 q-58 11 -115 84 q-57 74 -181 84 q-105 -1 -165 -73 q-60 -73 -61 -208 l136 0 q3 84 27 118 q24 34 67 33 q72 -10 126 -84 q55 -73 170 -84 l0 0 Z" /><glyph glyph-name="" unicode="&#x1edc;" d="M791 -34 q312 4 485 205 q172 201 175 551 q-1 191 -60 346 q-59 155 -157 227 l0 12 q8 0 22 0 q14 0 37 0 q76 0 128 44 q52 44 54 127 l0 192 l-159 0 l0 -140 q1 -50 -23 -72 q-24 -21 -86 -21 q-110 3 -208 20 q-98 18 -208 20 q-309 -4 -484 -203 q-176 -200 -179 -552 q3 -350 176 -551 q174 -201 487 -205 l0 0 ZM791 132 q-227 3 -351 161 q-125 157 -127 429 q2 274 129 430 q126 156 349 159 q223 -3 348 -159 q125 -156 127 -430 q-2 -272 -126 -429 q-125 -158 -349 -161 l0 0 ZM685 1575 l204 0 l-310 298 l-226 0 l332 -298 Z" /><glyph glyph-name="" unicode="&#x1eda;" d="M791 -34 q312 4 485 205 q172 201 175 551 q-1 191 -60 346 q-59 155 -157 227 l0 12 q8 0 22 0 q14 0 37 0 q76 0 128 44 q52 44 54 127 l0 192 l-159 0 l0 -140 q1 -50 -23 -72 q-24 -21 -86 -21 q-110 3 -208 20 q-98 18 -208 20 q-309 -4 -484 -203 q-176 -200 -179 -552 q3 -350 176 -551 q174 -201 487 -205 l0 0 ZM791 132 q-227 3 -351 161 q-125 157 -127 429 q2 274 129 430 q126 156 349 159 q223 -3 348 -159 q125 -156 127 -430 q-2 -272 -126 -429 q-125 -158 -349 -161 l0 0 ZM889 1575 l332 298 l-226 0 l-310 -298 l204 0 Z" /><glyph glyph-name="" unicode="p" d="M184 1443 l0 -1443 l180 0 l0 515 l363 0 q207 4 334 129 q126 126 130 332 q-3 210 -129 337 q-125 127 -333 130 l-545 0 ZM364 1283 l318 0 q157 -1 240 -79 q83 -79 84 -228 q-1 -144 -85 -222 q-84 -78 -239 -79 l-318 0 l0 608 Z" /><glyph glyph-name="" unicode="&#x1e56;" d="M184 1443 l0 -1443 l180 0 l0 515 l363 0 q207 4 334 129 q126 126 130 332 q-3 210 -129 337 q-125 127 -333 130 l-545 0 ZM364 1283 l318 0 q157 -1 240 -79 q83 -79 84 -228 q-1 -144 -85 -222 q-84 -78 -239 -79 l-318 0 l0 608 ZM579 1575 q52 1 86 35 q34 34 35 86 q-1 52 -35 86 q-34 34 -86 35 q-52 -1 -86 -35 q-34 -34 -35 -86 q1 -52 35 -86 q34 -34 86 -35 l0 0 Z" /><glyph glyph-name="" unicode="&#x1e54;" d="M184 1443 l0 -1443 l180 0 l0 515 l363 0 q207 4 334 129 q126 126 130 332 q-3 210 -129 337 q-125 127 -333 130 l-545 0 ZM364 1283 l318 0 q157 -1 240 -79 q83 -79 84 -228 q-1 -144 -85 -222 q-84 -78 -239 -79 l-318 0 l0 608 ZM677 1575 l332 298 l-226 0 l-310 -298 l204 0 Z" /><glyph glyph-name="" unicode="q" d="M1378 -163 l-183 254 q124 90 190 252 q65 161 66 378 q-3 352 -178 552 q-174 200 -482 204 q-309 -4 -484 -203 q-176 -200 -179 -553 q3 -354 177 -553 q175 -199 486 -202 q70 0 135 11 q65 11 123 33 l127 -173 l202 0 ZM792 132 q-224 3 -350 158 q-127 155 -129 431 q2 275 129 431 q126 156 349 159 q221 -3 347 -159 q126 -157 128 -431 q0 -166 -46 -290 q-45 -123 -130 -192 l-131 174 l-204 0 l191 -259 q-75 -22 -154 -22 l0 0 Z" /><glyph glyph-name="" unicode="r" d="M364 1283 l347 0 q141 -1 219 -73 q78 -72 79 -203 q-1 -133 -76 -204 q-74 -71 -214 -72 l-355 0 l0 552 ZM364 571 l355 0 l0 0 l309 -571 l211 0 l-334 599 q137 44 213 153 q76 109 77 261 q-3 198 -126 313 q-123 115 -334 117 l-551 0 l0 -1443 l180 0 l0 571 Z" /><glyph glyph-name="" unicode="&#x158;" d="M364 1283 l347 0 q141 -1 219 -73 q78 -72 79 -203 q-1 -133 -76 -204 q-74 -71 -214 -72 l-355 0 l0 552 ZM364 571 l355 0 l0 0 l309 -571 l211 0 l-334 599 q137 44 213 153 q76 109 77 261 q-3 198 -126 313 q-123 115 -334 117 l-551 0 l0 -1443 l180 0 l0 571 ZM527 1575 l164 0 l300 298 l-202 0 l-172 -177 l-16 0 l-172 177 l-202 0 l300 -298 Z" /><glyph glyph-name="" unicode="&#x1e5e;" d="M364 1283 l347 0 q141 -1 219 -73 q78 -72 79 -203 q-1 -133 -76 -204 q-74 -71 -214 -72 l-355 0 l0 552 ZM364 571 l355 0 l0 0 l309 -571 l211 0 l-334 599 q137 44 213 153 q76 109 77 261 q-3 198 -126 313 q-123 115 -334 117 l-551 0 l0 -1443 l180 0 l0 571 ZM946 -212 l-674 0 l0 -136 l674 0 l0 136 Z" /><glyph glyph-name="" unicode="&#x1e5c;" d="M364 1283 l347 0 q141 -1 219 -73 q78 -72 79 -203 q-1 -133 -76 -204 q-74 -71 -214 -72 l-355 0 l0 552 ZM364 571 l355 0 l0 0 l309 -571 l211 0 l-334 599 q137 44 213 153 q76 109 77 261 q-3 198 -126 313 q-123 115 -334 117 l-551 0 l0 -1443 l180 0 l0 571 ZM609 -402 q52 1 86 35 q34 34 35 86 q-1 52 -35 86 q-34 34 -86 35 q-52 -1 -86 -35 q-34 -34 -35 -86 q1 -52 35 -86 q34 -34 86 -35 l0 0 ZM946 1756 l-674 0 l0 -136 l674 0 l0 136 Z" /><glyph glyph-name="" unicode="&#x210;" d="M364 1283 l347 0 q141 -1 219 -73 q78 -72 79 -203 q-1 -133 -76 -204 q-74 -71 -214 -72 l-355 0 l0 552 ZM364 571 l355 0 l0 0 l309 -571 l211 0 l-334 599 q137 44 213 153 q76 109 77 261 q-3 198 -126 313 q-123 115 -334 117 l-551 0 l0 -1443 l180 0 l0 571 ZM729 1575 l204 0 l-310 298 l-226 0 l332 -298 ZM315 1575 l204 0 l-310 298 l-226 0 l332 -298 Z" /><glyph glyph-name="" unicode="&#x212;" d="M364 1283 l347 0 q141 -1 219 -73 q78 -72 79 -203 q-1 -133 -76 -204 q-74 -71 -214 -72 l-355 0 l0 552 ZM364 571 l355 0 l0 0 l309 -571 l211 0 l-334 599 q137 44 213 153 q76 109 77 261 q-3 198 -126 313 q-123 115 -334 117 l-551 0 l0 -1443 l180 0 l0 571 ZM245 1575 l154 0 q1 80 56 126 q56 46 154 47 q98 -1 154 -47 q55 -46 56 -126 l154 0 q-2 136 -97 216 q-96 80 -267 82 q-171 -2 -267 -82 q-95 -80 -97 -216 l0 0 Z" /><glyph glyph-name="" unicode="&#x154;" d="M364 1283 l347 0 q141 -1 219 -73 q78 -72 79 -203 q-1 -133 -76 -204 q-74 -71 -214 -72 l-355 0 l0 552 ZM364 571 l355 0 l0 0 l309 -571 l211 0 l-334 599 q137 44 213 153 q76 109 77 261 q-3 198 -126 313 q-123 115 -334 117 l-551 0 l0 -1443 l180 0 l0 571 ZM707 1575 l332 298 l-226 0 l-310 -298 l204 0 Z" /><glyph glyph-name="" unicode="&#x1e5a;" d="M364 1283 l347 0 q141 -1 219 -73 q78 -72 79 -203 q-1 -133 -76 -204 q-74 -71 -214 -72 l-355 0 l0 552 ZM364 571 l355 0 l0 0 l309 -571 l211 0 l-334 599 q137 44 213 153 q76 109 77 261 q-3 198 -126 313 q-123 115 -334 117 l-551 0 l0 -1443 l180 0 l0 571 ZM609 -402 q52 1 86 35 q34 34 35 86 q-1 52 -35 86 q-34 34 -86 35 q-52 -1 -86 -35 q-34 -34 -35 -86 q1 -52 35 -86 q34 -34 86 -35 l0 0 Z" /><glyph glyph-name="" unicode="&#x1e58;" d="M364 1283 l347 0 q141 -1 219 -73 q78 -72 79 -203 q-1 -133 -76 -204 q-74 -71 -214 -72 l-355 0 l0 552 ZM364 571 l355 0 l0 0 l309 -571 l211 0 l-334 599 q137 44 213 153 q76 109 77 261 q-3 198 -126 313 q-123 115 -334 117 l-551 0 l0 -1443 l180 0 l0 571 ZM609 1575 q52 1 86 35 q34 34 35 86 q-1 52 -35 86 q-34 34 -86 35 q-52 -1 -86 -35 q-34 -34 -35 -86 q1 -52 35 -86 q34 -34 86 -35 l0 0 Z" /><glyph glyph-name="" unicode="&#x156;" d="M364 1283 l347 0 q141 -1 219 -73 q78 -72 79 -203 q-1 -133 -76 -204 q-74 -71 -214 -72 l-355 0 l0 552 ZM364 571 l355 0 l0 0 l309 -571 l211 0 l-334 599 q137 44 213 153 q76 109 77 261 q-3 198 -126 313 q-123 115 -334 117 l-551 0 l0 -1443 l180 0 l0 571 ZM612 -518 l117 377 l-182 0 l-102 -377 l167 0 Z" /><glyph glyph-name="" unicode="s" d="M115 377 q17 -189 160 -299 q143 -110 376 -112 q250 2 393 118 q143 115 146 316 q2 157 -97 253 q-100 95 -322 150 l-151 40 q-148 37 -214 91 q-65 54 -64 138 q2 111 88 176 q85 65 231 66 q136 -1 222 -62 q85 -62 105 -174 l181 0 q-15 178 -152 287 q-137 109 -350 112 q-232 -3 -369 -114 q-138 -111 -141 -297 q-1 -153 89 -247 q90 -94 285 -142 l185 -48 q149 -37 219 -98 q71 -61 70 -153 q-3 -109 -96 -178 q-93 -68 -241 -70 q-156 1 -254 67 q-99 65 -117 180 l-182 0 Z" /><glyph glyph-name="" unicode="&#x160;" d="M115 377 q17 -189 160 -299 q143 -110 376 -112 q250 2 393 118 q143 115 146 316 q2 157 -97 253 q-100 95 -322 150 l-151 40 q-148 37 -214 91 q-65 54 -64 138 q2 111 88 176 q85 65 231 66 q136 -1 222 -62 q85 -62 105 -174 l181 0 q-15 178 -152 287 q-137 109 -350 112 q-232 -3 -369 -114 q-138 -111 -141 -297 q-1 -153 89 -247 q90 -94 285 -142 l185 -48 q149 -37 219 -98 q71 -61 70 -153 q-3 -109 -96 -178 q-93 -68 -241 -70 q-156 1 -254 67 q-99 65 -117 180 l-182 0 ZM585 1575 l164 0 l300 298 l-202 0 l-172 -177 l-16 0 l-172 177 l-202 0 l300 -298 Z" /><glyph glyph-name="" unicode="&#x15e;" d="M620 843 q-148 37 -214 91 q-65 54 -64 138 q2 111 88 176 q85 65 231 66 q136 -1 222 -62 q85 -62 105 -174 l181 0 q-15 178 -152 287 q-137 109 -350 112 q-232 -3 -369 -114 q-138 -111 -141 -297 q-1 -153 89 -247 q90 -94 285 -142 l185 -48 q149 -37 219 -98 q71 -61 70 -153 q-3 -109 -96 -178 q-93 -68 -241 -70 q-156 1 -254 67 q-99 65 -117 180 l-182 0 q15 -174 139 -281 q123 -108 326 -127 l-47 -119 l0 -84 l59 0 q79 0 114 -15 q36 -16 35 -50 q0 -35 -31 -54 q-30 -19 -88 -19 q-29 0 -65 4 q-37 5 -57 10 l0 -108 q31 -9 66 -13 q36 -5 80 -5 q116 1 179 53 q64 51 65 136 q-1 78 -56 120 q-56 42 -159 43 l39 100 q222 17 348 131 q126 113 128 301 q2 157 -97 253 q-100 95 -322 150 l-151 40 Z" /><glyph glyph-name="" unicode="&#x1e60;" d="M115 377 q17 -189 160 -299 q143 -110 376 -112 q250 2 393 118 q143 115 146 316 q2 157 -97 253 q-100 95 -322 150 l-151 40 q-148 37 -214 91 q-65 54 -64 138 q2 111 88 176 q85 65 231 66 q136 -1 222 -62 q85 -62 105 -174 l181 0 q-15 178 -152 287 q-137 109 -350 112 q-232 -3 -369 -114 q-138 -111 -141 -297 q-1 -153 89 -247 q90 -94 285 -142 l185 -48 q149 -37 219 -98 q71 -61 70 -153 q-3 -109 -96 -178 q-93 -68 -241 -70 q-156 1 -254 67 q-99 65 -117 180 l-182 0 ZM667 1575 q52 1 86 35 q34 34 35 86 q-1 52 -35 86 q-34 34 -86 35 q-52 -1 -86 -35 q-34 -34 -35 -86 q1 -52 35 -86 q34 -34 86 -35 l0 0 Z" /><glyph glyph-name="" unicode="&#x1e62;" d="M115 377 q17 -189 160 -299 q143 -110 376 -112 q250 2 393 118 q143 115 146 316 q2 157 -97 253 q-100 95 -322 150 l-151 40 q-148 37 -214 91 q-65 54 -64 138 q2 111 88 176 q85 65 231 66 q136 -1 222 -62 q85 -62 105 -174 l181 0 q-15 178 -152 287 q-137 109 -350 112 q-232 -3 -369 -114 q-138 -111 -141 -297 q-1 -153 89 -247 q90 -94 285 -142 l185 -48 q149 -37 219 -98 q71 -61 70 -153 q-3 -109 -96 -178 q-93 -68 -241 -70 q-156 1 -254 67 q-99 65 -117 180 l-182 0 ZM651 -402 q52 1 86 35 q34 34 35 86 q-1 52 -35 86 q-34 34 -86 35 q-52 -1 -86 -35 q-34 -34 -35 -86 q1 -52 35 -86 q34 -34 86 -35 l0 0 Z" /><glyph glyph-name="" unicode="&#x218;" d="M115 377 q17 -189 160 -299 q143 -110 376 -112 q250 2 393 118 q143 115 146 316 q2 157 -97 253 q-100 95 -322 150 l-151 40 q-148 37 -214 91 q-65 54 -64 138 q2 111 88 176 q85 65 231 66 q136 -1 222 -62 q85 -62 105 -174 l181 0 q-15 178 -152 287 q-137 109 -350 112 q-232 -3 -369 -114 q-138 -111 -141 -297 q-1 -153 89 -247 q90 -94 285 -142 l185 -48 q149 -37 219 -98 q71 -61 70 -153 q-3 -109 -96 -178 q-93 -68 -241 -70 q-156 1 -254 67 q-99 65 -117 180 l-182 0 ZM654 -518 l117 377 l-182 0 l-102 -377 l167 0 Z" /><glyph glyph-name="" unicode="&#x1e68;" d="M115 377 q17 -189 160 -299 q143 -110 376 -112 q250 2 393 118 q143 115 146 316 q2 157 -97 253 q-100 95 -322 150 l-151 40 q-148 37 -214 91 q-65 54 -64 138 q2 111 88 176 q85 65 231 66 q136 -1 222 -62 q85 -62 105 -174 l181 0 q-15 178 -152 287 q-137 109 -350 112 q-232 -3 -369 -114 q-138 -111 -141 -297 q-1 -153 89 -247 q90 -94 285 -142 l185 -48 q149 -37 219 -98 q71 -61 70 -153 q-3 -109 -96 -178 q-93 -68 -241 -70 q-156 1 -254 67 q-99 65 -117 180 l-182 0 ZM651 -402 q52 1 86 35 q34 34 35 86 q-1 52 -35 86 q-34 34 -86 35 q-52 -1 -86 -35 q-34 -34 -35 -86 q1 -52 35 -86 q34 -34 86 -35 l0 0 ZM667 1575 q52 1 86 35 q34 34 35 86 q-1 52 -35 86 q-34 34 -86 35 q-52 -1 -86 -35 q-34 -34 -35 -86 q1 -52 35 -86 q34 -34 86 -35 l0 0 Z" /><glyph glyph-name="" unicode="&#x1e66;" d="M115 377 q17 -189 160 -299 q143 -110 376 -112 q250 2 393 118 q143 115 146 316 q2 157 -97 253 q-100 95 -322 150 l-151 40 q-148 37 -214 91 q-65 54 -64 138 q2 111 88 176 q85 65 231 66 q136 -1 222 -62 q85 -62 105 -174 l181 0 q-15 178 -152 287 q-137 109 -350 112 q-232 -3 -369 -114 q-138 -111 -141 -297 q-1 -153 89 -247 q90 -94 285 -142 l185 -48 q149 -37 219 -98 q71 -61 70 -153 q-3 -109 -96 -178 q-93 -68 -241 -70 q-156 1 -254 67 q-99 65 -117 180 l-182 0 ZM569 1575 l196 0 l294 233 l-222 0 l-162 -135 l-16 0 l-162 135 l-222 0 l294 -233 ZM667 1857 q51 1 84 35 q34 33 35 84 q-1 51 -35 84 q-33 34 -84 35 q-51 -1 -84 -35 q-34 -33 -35 -84 q1 -51 35 -84 q33 -34 84 -35 l0 0 Z" /><glyph glyph-name="" unicode="&#x15c;" d="M115 377 q17 -189 160 -299 q143 -110 376 -112 q250 2 393 118 q143 115 146 316 q2 157 -97 253 q-100 95 -322 150 l-151 40 q-148 37 -214 91 q-65 54 -64 138 q2 111 88 176 q85 65 231 66 q136 -1 222 -62 q85 -62 105 -174 l181 0 q-15 178 -152 287 q-137 109 -350 112 q-232 -3 -369 -114 q-138 -111 -141 -297 q-1 -153 89 -247 q90 -94 285 -142 l185 -48 q149 -37 219 -98 q71 -61 70 -153 q-3 -109 -96 -178 q-93 -68 -241 -70 q-156 1 -254 67 q-99 65 -117 180 l-182 0 ZM585 1873 l-300 -298 l202 0 l172 177 l16 0 l172 -177 l202 0 l-300 298 l-164 0 Z" /><glyph glyph-name="" unicode="&#x1e64;" d="M115 377 q17 -189 160 -299 q143 -110 376 -112 q250 2 393 118 q143 115 146 316 q2 157 -97 253 q-100 95 -322 150 l-151 40 q-148 37 -214 91 q-65 54 -64 138 q2 111 88 176 q85 65 231 66 q136 -1 222 -62 q85 -62 105 -174 l181 0 q-15 178 -152 287 q-137 109 -350 112 q-232 -3 -369 -114 q-138 -111 -141 -297 q-1 -153 89 -247 q90 -94 285 -142 l185 -48 q149 -37 219 -98 q71 -61 70 -153 q-3 -109 -96 -178 q-93 -68 -241 -70 q-156 1 -254 67 q-99 65 -117 180 l-182 0 ZM868 1575 l332 298 l-226 0 l-310 -298 l204 0 ZM490 1633 q52 1 86 35 q34 34 35 86 q-1 52 -35 86 q-34 34 -86 35 q-52 -1 -86 -35 q-34 -34 -35 -86 q1 -52 35 -86 q34 -34 86 -35 l0 0 Z" /><glyph glyph-name="" unicode="&#x15a;" d="M115 377 q17 -189 160 -299 q143 -110 376 -112 q250 2 393 118 q143 115 146 316 q2 157 -97 253 q-100 95 -322 150 l-151 40 q-148 37 -214 91 q-65 54 -64 138 q2 111 88 176 q85 65 231 66 q136 -1 222 -62 q85 -62 105 -174 l181 0 q-15 178 -152 287 q-137 109 -350 112 q-232 -3 -369 -114 q-138 -111 -141 -297 q-1 -153 89 -247 q90 -94 285 -142 l185 -48 q149 -37 219 -98 q71 -61 70 -153 q-3 -109 -96 -178 q-93 -68 -241 -70 q-156 1 -254 67 q-99 65 -117 180 l-182 0 ZM765 1575 l332 298 l-226 0 l-310 -298 l204 0 Z" /><glyph glyph-name="" unicode="t" d="M739 0 l0 1281 l465 0 l0 162 l-1110 0 l0 -162 l465 0 l0 -1281 l180 0 Z" /><glyph glyph-name="" unicode="&#x1e70;" d="M739 0 l0 1281 l465 0 l0 162 l-1110 0 l0 -162 l465 0 l0 -1281 l180 0 ZM731 -142 l-164 0 l-300 -290 l202 0 l172 173 l16 0 l172 -173 l202 0 l-300 290 Z" /><glyph glyph-name="" unicode="&#x1e6c;" d="M739 0 l0 1281 l465 0 l0 162 l-1110 0 l0 -162 l465 0 l0 -1281 l180 0 ZM649 -402 q52 1 86 35 q34 34 35 86 q-1 52 -35 86 q-34 34 -86 35 q-52 -1 -86 -35 q-34 -34 -35 -86 q1 -52 35 -86 q34 -34 86 -35 l0 0 Z" /><glyph glyph-name="" unicode="&#x21a;" d="M739 0 l0 1281 l465 0 l0 162 l-1110 0 l0 -162 l465 0 l0 -1281 l180 0 ZM652 -518 l117 377 l-182 0 l-102 -377 l167 0 Z" /><glyph glyph-name="" unicode="&#x1e6a;" d="M739 0 l0 1281 l465 0 l0 162 l-1110 0 l0 -162 l465 0 l0 -1281 l180 0 ZM649 1575 q52 1 86 35 q34 34 35 86 q-1 52 -35 86 q-34 34 -86 35 q-52 -1 -86 -35 q-34 -34 -35 -86 q1 -52 35 -86 q34 -34 86 -35 l0 0 Z" /><glyph glyph-name="" unicode="&#x162;" d="M739 10 l0 1271 l465 0 l0 162 l-1110 0 l0 -162 l465 0 l0 -1281 l46 0 l-59 -150 l0 -84 l59 0 q79 0 114 -15 q36 -16 35 -50 q0 -35 -31 -54 q-30 -19 -88 -19 q-29 0 -65 4 q-37 5 -57 10 l0 -108 q31 -9 66 -13 q36 -5 80 -5 q116 1 179 53 q64 51 65 136 q-1 78 -56 120 q-56 42 -159 43 l51 132 l0 10 Z" /><glyph glyph-name="" unicode="&#x1e6e;" d="M739 0 l0 1281 l465 0 l0 162 l-1110 0 l0 -162 l465 0 l0 -1281 l180 0 ZM986 -212 l-674 0 l0 -136 l674 0 l0 136 Z" /><glyph glyph-name="" unicode="&#x164;" d="M739 0 l0 1281 l465 0 l0 162 l-1110 0 l0 -162 l465 0 l0 -1281 l180 0 ZM567 1575 l164 0 l300 298 l-202 0 l-172 -177 l-16 0 l-172 177 l-202 0 l300 -298 Z" /><glyph glyph-name="" unicode="&#x166;" d="M1204 1281 l0 162 l-1110 0 l0 -162 l465 0 l0 -488 l-305 0 l0 -143 l305 0 l0 -650 l180 0 l0 650 l305 0 l0 143 l-305 0 l0 488 l465 0 Z" /><glyph glyph-name="" unicode="u" d="M369 1443 l-180 0 l0 -947 q2 -235 152 -380 q150 -146 421 -150 q271 4 421 150 q150 145 152 380 l0 947 l-180 0 l0 -935 q-1 -167 -103 -270 q-101 -103 -290 -106 q-189 3 -290 106 q-102 103 -103 270 l0 935 Z" /><glyph glyph-name="" unicode="ù" d="M369 1443 l-180 0 l0 -947 q2 -235 152 -380 q150 -146 421 -150 q271 4 421 150 q150 145 152 380 l0 947 l-180 0 l0 -935 q-1 -167 -103 -270 q-101 -103 -290 -106 q-189 3 -290 106 q-102 103 -103 270 l0 935 ZM656 1575 l204 0 l-310 298 l-226 0 l332 -298 Z" /><glyph glyph-name="" unicode="&#x214;" d="M369 1443 l-180 0 l0 -947 q2 -235 152 -380 q150 -146 421 -150 q271 4 421 150 q150 145 152 380 l0 947 l-180 0 l0 -935 q-1 -167 -103 -270 q-101 -103 -290 -106 q-189 3 -290 106 q-102 103 -103 270 l0 935 ZM882 1575 l204 0 l-310 298 l-226 0 l332 -298 ZM468 1575 l204 0 l-310 298 l-226 0 l332 -298 Z" /><glyph glyph-name="" unicode="ú" d="M369 1443 l-180 0 l0 -947 q2 -235 152 -380 q150 -146 421 -150 q271 4 421 150 q150 145 152 380 l0 947 l-180 0 l0 -935 q-1 -167 -103 -270 q-101 -103 -290 -106 q-189 3 -290 106 q-102 103 -103 270 l0 935 ZM860 1575 l332 298 l-226 0 l-310 -298 l204 0 Z" /><glyph glyph-name="" unicode="&#x170;" d="M369 1443 l-180 0 l0 -947 q2 -235 152 -380 q150 -146 421 -150 q271 4 421 150 q150 145 152 380 l0 947 l-180 0 l0 -935 q-1 -167 -103 -270 q-101 -103 -290 -106 q-189 3 -290 106 q-102 103 -103 270 l0 935 ZM1016 1575 l332 298 l-226 0 l-310 -298 l204 0 ZM602 1575 l332 298 l-226 0 l-310 -298 l204 0 Z" /><glyph glyph-name="" unicode="û" d="M369 1443 l-180 0 l0 -947 q2 -235 152 -380 q150 -146 421 -150 q271 4 421 150 q150 145 152 380 l0 947 l-180 0 l0 -935 q-1 -167 -103 -270 q-101 -103 -290 -106 q-189 3 -290 106 q-102 103 -103 270 l0 935 ZM680 1873 l-300 -298 l202 0 l172 177 l16 0 l172 -177 l202 0 l-300 298 l-164 0 Z" /><glyph glyph-name="" unicode="&#x1d3;" d="M369 1443 l-180 0 l0 -947 q2 -235 152 -380 q150 -146 421 -150 q271 4 421 150 q150 145 152 380 l0 947 l-180 0 l0 -935 q-1 -167 -103 -270 q-101 -103 -290 -106 q-189 3 -290 106 q-102 103 -103 270 l0 935 ZM680 1575 l164 0 l300 298 l-202 0 l-172 -177 l-16 0 l-172 177 l-202 0 l300 -298 Z" /><glyph glyph-name="" unicode="&#x1e76;" d="M369 1443 l-180 0 l0 -947 q2 -235 152 -380 q150 -146 421 -150 q271 4 421 150 q150 145 152 380 l0 947 l-180 0 l0 -935 q-1 -167 -103 -270 q-101 -103 -290 -106 q-189 3 -290 106 q-102 103 -103 270 l0 935 ZM844 -142 l-164 0 l-300 -290 l202 0 l172 173 l16 0 l172 -173 l202 0 l-300 290 Z" /><glyph glyph-name="" unicode="ü" d="M369 1443 l-180 0 l0 -947 q2 -235 152 -380 q150 -146 421 -150 q271 4 421 150 q150 145 152 380 l0 947 l-180 0 l0 -935 q-1 -167 -103 -270 q-101 -103 -290 -106 q-189 3 -290 106 q-102 103 -103 270 l0 935 ZM560 1575 q52 1 86 35 q34 34 35 86 q-1 52 -35 86 q-34 34 -86 35 q-52 -1 -86 -35 q-34 -34 -35 -86 q1 -52 35 -86 q34 -34 86 -35 l0 0 ZM964 1575 q52 1 86 35 q34 34 35 86 q-1 52 -35 86 q-34 34 -86 35 q-52 -1 -86 -35 q-34 -34 -35 -86 q1 -52 35 -86 q34 -34 86 -35 l0 0 Z" /><glyph glyph-name="" unicode="&#x1db;" d="M369 1443 l-180 0 l0 -947 q2 -235 152 -380 q150 -146 421 -150 q271 4 421 150 q150 145 152 380 l0 947 l-180 0 l0 -935 q-1 -167 -103 -270 q-101 -103 -290 -106 q-189 3 -290 106 q-102 103 -103 270 l0 935 ZM868 1873 l-230 222 l-227 0 l281 -222 l176 0 ZM560 1575 q52 1 86 35 q34 34 35 86 q-1 52 -35 86 q-34 34 -86 35 q-52 -1 -86 -35 q-34 -34 -35 -86 q1 -52 35 -86 q34 -34 86 -35 l0 0 ZM964 1575 q52 1 86 35 q34 34 35 86 q-1 52 -35 86 q-34 34 -86 35 q-52 -1 -86 -35 q-34 -34 -35 -86 q1 -52 35 -86 q34 -34 86 -35 l0 0 Z" /><glyph glyph-name="" unicode="&#x1d7;" d="M369 1443 l-180 0 l0 -947 q2 -235 152 -380 q150 -146 421 -150 q271 4 421 150 q150 145 152 380 l0 947 l-180 0 l0 -935 q-1 -167 -103 -270 q-101 -103 -290 -106 q-189 3 -290 106 q-102 103 -103 270 l0 935 ZM674 1873 l176 0 l281 222 l-227 0 l-230 -222 ZM560 1575 q52 1 86 35 q34 34 35 86 q-1 52 -35 86 q-34 34 -86 35 q-52 -1 -86 -35 q-34 -34 -35 -86 q1 -52 35 -86 q34 -34 86 -35 l0 0 ZM964 1575 q52 1 86 35 q34 34 35 86 q-1 52 -35 86 q-34 34 -86 35 q-52 -1 -86 -35 q-34 -34 -35 -86 q1 -52 35 -86 q34 -34 86 -35 l0 0 Z" /><glyph glyph-name="" unicode="&#x1d5;" d="M369 1443 l-180 0 l0 -947 q2 -235 152 -380 q150 -146 421 -150 q271 4 421 150 q150 145 152 380 l0 947 l-180 0 l0 -935 q-1 -167 -103 -270 q-101 -103 -290 -106 q-189 3 -290 106 q-102 103 -103 270 l0 935 ZM560 1809 q-50 -1 -83 -34 q-33 -33 -34 -83 q1 -50 34 -83 q33 -33 83 -34 q50 1 83 34 q33 33 34 83 q-1 50 -34 83 q-33 33 -83 34 l0 0 ZM425 2062 l0 -130 l674 0 l0 130 l-674 0 ZM964 1809 q-50 -1 -83 -34 q-33 -33 -34 -83 q1 -50 34 -83 q33 -33 83 -34 q50 1 83 34 q33 33 34 83 q-1 50 -34 83 q-33 33 -83 34 l0 0 Z" /><glyph glyph-name="" unicode="&#x1d9;" d="M369 1443 l-180 0 l0 -947 q2 -235 152 -380 q150 -146 421 -150 q271 4 421 150 q150 145 152 380 l0 947 l-180 0 l0 -935 q-1 -167 -103 -270 q-101 -103 -290 -106 q-189 3 -290 106 q-102 103 -103 270 l0 935 ZM664 1862 l196 0 l294 233 l-222 0 l-162 -135 l-16 0 l-162 135 l-222 0 l294 -233 ZM560 1809 q-50 -1 -83 -34 q-33 -33 -34 -83 q1 -50 34 -83 q33 -33 83 -34 q50 1 83 34 q33 33 34 83 q-1 50 -34 83 q-33 33 -83 34 l0 0 ZM964 1809 q-50 -1 -83 -34 q-33 -33 -34 -83 q1 -50 34 -83 q33 -33 83 -34 q50 1 83 34 q33 33 34 83 q-1 50 -34 83 q-33 33 -83 34 l0 0 Z" /><glyph glyph-name="" unicode="&#x1e72;" d="M369 1443 l-180 0 l0 -947 q2 -235 152 -380 q150 -146 421 -150 q271 4 421 150 q150 145 152 380 l0 947 l-180 0 l0 -935 q-1 -167 -103 -270 q-101 -103 -290 -106 q-189 3 -290 106 q-102 103 -103 270 l0 935 ZM560 -432 q52 1 86 35 q34 34 35 86 q-1 52 -35 86 q-34 34 -86 35 q-52 -1 -86 -35 q-34 -34 -35 -86 q1 -52 35 -86 q34 -34 86 -35 l0 0 ZM964 -432 q52 1 86 35 q34 34 35 86 q-1 52 -35 86 q-34 34 -86 35 q-52 -1 -86 -35 q-34 -34 -35 -86 q1 -52 35 -86 q34 -34 86 -35 l0 0 Z" /><glyph glyph-name="" unicode="&#x1e74;" d="M369 1443 l-180 0 l0 -947 q2 -235 152 -380 q150 -146 421 -150 q271 4 421 150 q150 145 152 380 l0 947 l-180 0 l0 -935 q-1 -167 -103 -270 q-101 -103 -290 -106 q-189 3 -290 106 q-102 103 -103 270 l0 935 ZM912 -423 q105 2 165 76 q60 75 61 205 l-135 0 q-5 -87 -32 -120 q-26 -33 -63 -31 q-58 11 -115 84 q-57 74 -181 84 q-105 -1 -165 -73 q-60 -73 -61 -208 l136 0 q3 84 27 118 q24 34 67 33 q72 -10 126 -84 q55 -73 170 -84 l0 0 Z" /><glyph glyph-name="" unicode="&#x1ee6;" d="M369 1443 l-180 0 l0 -947 q2 -235 152 -380 q150 -146 421 -150 q271 4 421 150 q150 145 152 380 l0 947 l-180 0 l0 -935 q-1 -167 -103 -270 q-101 -103 -290 -106 q-189 3 -290 106 q-102 103 -103 270 l0 935 ZM587 1780 q20 11 48 16 q29 6 62 6 q43 -1 70 -21 q27 -20 28 -52 q-1 -32 -30 -61 q-30 -29 -79 -44 l73 -97 q82 28 131 86 q50 58 51 128 q-1 84 -60 132 q-58 47 -163 48 q-36 0 -71 -6 q-36 -5 -60 -15 l0 -120 Z" /><glyph glyph-name="" unicode="&#x16c;" d="M369 1443 l-180 0 l0 -947 q2 -235 152 -380 q150 -146 421 -150 q271 4 421 150 q150 145 152 380 l0 947 l-180 0 l0 -935 q-1 -167 -103 -270 q-101 -103 -290 -106 q-189 3 -290 106 q-102 103 -103 270 l0 935 ZM398 1873 q2 -136 97 -216 q96 -80 267 -82 q171 2 267 82 q95 80 97 216 l-154 0 q-1 -80 -56 -126 q-56 -46 -154 -47 q-98 1 -154 47 q-55 46 -56 126 l-154 0 Z" /><glyph glyph-name="" unicode="&#x216;" d="M369 1443 l-180 0 l0 -947 q2 -235 152 -380 q150 -146 421 -150 q271 4 421 150 q150 145 152 380 l0 947 l-180 0 l0 -935 q-1 -167 -103 -270 q-101 -103 -290 -106 q-189 3 -290 106 q-102 103 -103 270 l0 935 ZM398 1575 l154 0 q1 80 56 126 q56 46 154 47 q98 -1 154 -47 q55 -46 56 -126 l154 0 q-2 136 -97 216 q-96 80 -267 82 q-171 -2 -267 -82 q-95 -80 -97 -216 l0 0 Z" /><glyph glyph-name="" unicode="&#x1e78;" d="M369 1443 l-180 0 l0 -947 q2 -235 152 -380 q150 -146 421 -150 q271 4 421 150 q150 145 152 380 l0 947 l-180 0 l0 -935 q-1 -167 -103 -270 q-101 -103 -290 -106 q-189 3 -290 106 q-102 103 -103 270 l0 935 ZM902 1575 q102 3 163 71 q61 68 63 170 l-135 0 q-5 -58 -32 -85 q-26 -26 -63 -26 q-72 8 -115 64 q-42 56 -161 64 q-102 -2 -163 -68 q-61 -65 -63 -173 l136 0 q3 55 27 83 q24 28 67 28 q72 -8 115 -64 q42 -56 161 -64 l0 0 ZM736 1873 l190 0 l248 222 l-218 0 l-220 -222 Z" /><glyph glyph-name="" unicode="&#x1ee4;" d="M369 1443 l-180 0 l0 -947 q2 -235 152 -380 q150 -146 421 -150 q271 4 421 150 q150 145 152 380 l0 947 l-180 0 l0 -935 q-1 -167 -103 -270 q-101 -103 -290 -106 q-189 3 -290 106 q-102 103 -103 270 l0 935 ZM762 -402 q52 1 86 35 q34 34 35 86 q-1 52 -35 86 q-34 34 -86 35 q-52 -1 -86 -35 q-34 -34 -35 -86 q1 -52 35 -86 q34 -34 86 -35 l0 0 Z" /><glyph glyph-name="" unicode="&#x168;" d="M369 1443 l-180 0 l0 -947 q2 -235 152 -380 q150 -146 421 -150 q271 4 421 150 q150 145 152 380 l0 947 l-180 0 l0 -935 q-1 -167 -103 -270 q-101 -103 -290 -106 q-189 3 -290 106 q-102 103 -103 270 l0 935 ZM912 1575 q105 2 165 76 q60 75 61 205 l-135 0 q-5 -87 -32 -120 q-26 -33 -63 -31 q-58 11 -115 84 q-57 74 -181 84 q-105 -1 -165 -73 q-60 -73 -61 -208 l136 0 q3 84 27 118 q24 34 67 33 q72 -10 126 -84 q55 -73 170 -84 l0 0 Z" /><glyph glyph-name="" unicode="&#x16a;" d="M369 1443 l-180 0 l0 -947 q2 -235 152 -380 q150 -146 421 -150 q271 4 421 150 q150 145 152 380 l0 947 l-180 0 l0 -935 q-1 -167 -103 -270 q-101 -103 -290 -106 q-189 3 -290 106 q-102 103 -103 270 l0 935 ZM1099 1756 l-674 0 l0 -136 l674 0 l0 136 Z" /><glyph glyph-name="" unicode="&#x1e7a;" d="M369 1443 l-180 0 l0 -947 q2 -235 152 -380 q150 -146 421 -150 q271 4 421 150 q150 145 152 380 l0 947 l-180 0 l0 -935 q-1 -167 -103 -270 q-101 -103 -290 -106 q-189 3 -290 106 q-102 103 -103 270 l0 935 ZM1099 1620 l0 130 l-674 0 l0 -130 l674 0 ZM560 1861 q50 1 83 34 q33 33 34 83 q-1 50 -34 83 q-33 33 -83 34 q-50 -1 -83 -34 q-33 -33 -34 -83 q1 -50 34 -83 q33 -33 83 -34 l0 0 ZM964 1861 q50 1 83 34 q33 33 34 83 q-1 50 -34 83 q-33 33 -83 34 q-50 -1 -83 -34 q-33 -33 -34 -83 q1 -50 34 -83 q33 -33 83 -34 l0 0 Z" /><glyph glyph-name="" unicode="&#x16e;" d="M369 1443 l-180 0 l0 -947 q2 -235 152 -380 q150 -146 421 -150 q271 4 421 150 q150 145 152 380 l0 947 l-180 0 l0 -935 q-1 -167 -103 -270 q-101 -103 -290 -106 q-189 3 -290 106 q-102 103 -103 270 l0 935 ZM762 1551 q85 2 141 57 q56 55 58 140 q-2 85 -58 140 q-56 55 -141 57 q-85 -2 -141 -57 q-56 -55 -58 -140 q2 -85 58 -140 q56 -55 141 -57 l0 0 ZM762 1643 q-47 1 -75 30 q-29 29 -30 75 q1 47 30 75 q28 29 75 30 q47 -1 75 -30 q29 -28 30 -75 q-1 -46 -30 -75 q-28 -29 -75 -30 l0 0 Z" /><glyph glyph-name="" unicode="&#x172;" d="M1023 -432 q36 0 61 5 q26 5 43 11 l0 134 q-9 -2 -25 -4 q-17 -2 -41 -2 q-44 0 -77 25 q-33 24 -35 73 q0 42 34 95 q34 52 99 109 q135 121 194 235 q60 113 59 247 l0 947 l-180 0 l0 -935 q-2 -174 -107 -274 q-105 -100 -286 -102 q-181 2 -286 102 q-105 100 -107 274 l0 935 l-180 0 l0 -947 q3 -243 157 -385 q154 -142 416 -145 q41 0 84 9 q42 8 65 21 l0 -16 q-53 -33 -91 -84 q-38 -52 -40 -124 q1 -88 66 -145 q65 -57 177 -59 l0 0 Z" /><glyph glyph-name="" unicode="&#x1af;" d="M762 -34 q262 3 416 145 q154 142 157 385 l0 819 l50 0 q90 0 145 47 q55 46 57 139 l0 189 l-159 0 l0 -159 q0 -44 -21 -66 q-22 -22 -70 -22 l-182 0 l0 -935 q-2 -174 -107 -274 q-105 -100 -286 -102 q-181 2 -286 102 q-105 100 -107 274 l0 935 l-180 0 l0 -947 q3 -243 157 -385 q154 -142 416 -145 l0 0 Z" /><glyph glyph-name="" unicode="&#x1eea;" d="M656 1575 l204 0 l-310 298 l-226 0 l332 -298 ZM762 -34 q262 3 416 145 q154 142 157 385 l0 819 l50 0 q90 0 145 47 q55 46 57 139 l0 189 l-159 0 l0 -159 q0 -44 -21 -66 q-22 -22 -70 -22 l-182 0 l0 -935 q-2 -174 -107 -274 q-105 -100 -286 -102 q-181 2 -286 102 q-105 100 -107 274 l0 935 l-180 0 l0 -947 q3 -243 157 -385 q154 -142 416 -145 l0 0 Z" /><glyph glyph-name="" unicode="&#x1ee8;" d="M860 1575 l332 298 l-226 0 l-310 -298 l204 0 ZM762 -34 q262 3 416 145 q154 142 157 385 l0 819 l50 0 q90 0 145 47 q55 46 57 139 l0 189 l-159 0 l0 -159 q0 -44 -21 -66 q-22 -22 -70 -22 l-182 0 l0 -935 q-2 -174 -107 -274 q-105 -100 -286 -102 q-181 2 -286 102 q-105 100 -107 274 l0 935 l-180 0 l0 -947 q3 -243 157 -385 q154 -142 416 -145 l0 0 Z" /><glyph glyph-name="" unicode="&#x1ef0;" d="M762 -402 q52 1 86 35 q34 34 35 86 q-1 52 -35 86 q-34 34 -86 35 q-52 -1 -86 -35 q-34 -34 -35 -86 q1 -52 35 -86 q34 -34 86 -35 l0 0 ZM762 -34 q262 3 416 145 q154 142 157 385 l0 819 l50 0 q90 0 145 47 q55 46 57 139 l0 189 l-159 0 l0 -159 q0 -44 -21 -66 q-22 -22 -70 -22 l-182 0 l0 -935 q-2 -174 -107 -274 q-105 -100 -286 -102 q-181 2 -286 102 q-105 100 -107 274 l0 935 l-180 0 l0 -947 q3 -243 157 -385 q154 -142 416 -145 l0 0 Z" /><glyph glyph-name="" unicode="&#x1eec;" d="M587 1780 q20 11 48 16 q29 6 62 6 q43 -1 70 -21 q27 -20 28 -52 q-1 -32 -30 -61 q-30 -29 -79 -44 l73 -97 q82 28 131 86 q50 58 51 128 q-1 84 -60 132 q-58 47 -163 48 q-36 0 -71 -6 q-36 -5 -60 -15 l0 -120 ZM762 -34 q262 3 416 145 q154 142 157 385 l0 819 l50 0 q90 0 145 47 q55 46 57 139 l0 189 l-159 0 l0 -159 q0 -44 -21 -66 q-22 -22 -70 -22 l-182 0 l0 -935 q-2 -174 -107 -274 q-105 -100 -286 -102 q-181 2 -286 102 q-105 100 -107 274 l0 935 l-180 0 l0 -947 q3 -243 157 -385 q154 -142 416 -145 l0 0 Z" /><glyph glyph-name="" unicode="&#x1eee;" d="M912 1575 q105 2 165 76 q60 75 61 205 l-135 0 q-5 -87 -32 -120 q-26 -33 -63 -31 q-58 11 -115 84 q-57 74 -181 84 q-105 -1 -165 -73 q-60 -73 -61 -208 l136 0 q3 84 27 118 q24 34 67 33 q72 -10 126 -84 q55 -73 170 -84 l0 0 ZM762 -34 q262 3 416 145 q154 142 157 385 l0 819 l50 0 q90 0 145 47 q55 46 57 139 l0 189 l-159 0 l0 -159 q0 -44 -21 -66 q-22 -22 -70 -22 l-182 0 l0 -935 q-2 -174 -107 -274 q-105 -100 -286 -102 q-181 2 -286 102 q-105 100 -107 274 l0 935 l-180 0 l0 -947 q3 -243 157 -385 q154 -142 416 -145 l0 0 Z" /><glyph glyph-name="" unicode="v" d="M779 0 l532 1443 l-189 0 l-424 -1210 l-16 0 l-424 1210 l-189 0 l532 -1443 l178 0 Z" /><glyph glyph-name="" unicode="&#x1e7c;" d="M779 0 l532 1443 l-189 0 l-424 -1210 l-16 0 l-424 1210 l-189 0 l532 -1443 l178 0 ZM836 1575 q105 2 165 76 q60 75 61 205 l-135 0 q-5 -87 -32 -120 q-26 -33 -63 -31 q-58 11 -115 84 q-57 74 -181 84 q-105 -1 -165 -73 q-60 -73 -61 -208 l136 0 q3 84 27 118 q24 34 67 33 q72 -10 126 -84 q55 -73 170 -84 l0 0 Z" /><glyph glyph-name="" unicode="&#x1e7e;" d="M779 0 l532 1443 l-189 0 l-424 -1210 l-16 0 l-424 1210 l-189 0 l532 -1443 l178 0 ZM686 -402 q52 1 86 35 q34 34 35 86 q-1 52 -35 86 q-34 34 -86 35 q-52 -1 -86 -35 q-34 -34 -35 -86 q1 -52 35 -86 q34 -34 86 -35 l0 0 Z" /><glyph glyph-name="" unicode="w" d="M985 1139 l12 0 l332 -1139 l170 0 l393 1443 l-188 0 l-287 -1173 l-12 0 l-323 1173 l-182 0 l-323 -1173 l-12 0 l-287 1173 l-188 0 l393 -1443 l170 0 l332 1139 Z" /><glyph glyph-name="" unicode="&#x1e80;" d="M985 1139 l12 0 l332 -1139 l170 0 l393 1443 l-188 0 l-287 -1173 l-12 0 l-323 1173 l-182 0 l-323 -1173 l-12 0 l-287 1173 l-188 0 l393 -1443 l170 0 l332 1139 ZM885 1575 l204 0 l-310 298 l-226 0 l332 -298 Z" /><glyph glyph-name="" unicode="&#x1e82;" d="M985 1139 l12 0 l332 -1139 l170 0 l393 1443 l-188 0 l-287 -1173 l-12 0 l-323 1173 l-182 0 l-323 -1173 l-12 0 l-287 1173 l-188 0 l393 -1443 l170 0 l332 1139 ZM1089 1575 l332 298 l-226 0 l-310 -298 l204 0 Z" /><glyph glyph-name="" unicode="&#x1e86;" d="M985 1139 l12 0 l332 -1139 l170 0 l393 1443 l-188 0 l-287 -1173 l-12 0 l-323 1173 l-182 0 l-323 -1173 l-12 0 l-287 1173 l-188 0 l393 -1443 l170 0 l332 1139 ZM991 1575 q52 1 86 35 q34 34 35 86 q-1 52 -35 86 q-34 34 -86 35 q-52 -1 -86 -35 q-34 -34 -35 -86 q1 -52 35 -86 q34 -34 86 -35 l0 0 Z" /><glyph glyph-name="" unicode="&#x1e88;" d="M985 1139 l12 0 l332 -1139 l170 0 l393 1443 l-188 0 l-287 -1173 l-12 0 l-323 1173 l-182 0 l-323 -1173 l-12 0 l-287 1173 l-188 0 l393 -1443 l170 0 l332 1139 ZM991 -402 q52 1 86 35 q34 34 35 86 q-1 52 -35 86 q-34 34 -86 35 q-52 -1 -86 -35 q-34 -34 -35 -86 q1 -52 35 -86 q34 -34 86 -35 l0 0 Z" /><glyph glyph-name="" unicode="&#x1e84;" d="M985 1139 l12 0 l332 -1139 l170 0 l393 1443 l-188 0 l-287 -1173 l-12 0 l-323 1173 l-182 0 l-323 -1173 l-12 0 l-287 1173 l-188 0 l393 -1443 l170 0 l332 1139 ZM789 1575 q52 1 86 35 q34 34 35 86 q-1 52 -35 86 q-34 34 -86 35 q-52 -1 -86 -35 q-34 -34 -35 -86 q1 -52 35 -86 q34 -34 86 -35 l0 0 ZM1193 1575 q52 1 86 35 q34 34 35 86 q-1 52 -35 86 q-34 34 -86 35 q-52 -1 -86 -35 q-34 -34 -35 -86 q1 -52 35 -86 q34 -34 86 -35 l0 0 Z" /><glyph glyph-name="" unicode="&#x174;" d="M985 1139 l12 0 l332 -1139 l170 0 l393 1443 l-188 0 l-287 -1173 l-12 0 l-323 1173 l-182 0 l-323 -1173 l-12 0 l-287 1173 l-188 0 l393 -1443 l170 0 l332 1139 ZM909 1873 l-300 -298 l202 0 l172 177 l16 0 l172 -177 l202 0 l-300 298 l-164 0 Z" /><glyph glyph-name="" unicode="x" d="M90 0 l204 0 l385 569 l16 0 l378 -569 l216 0 l-489 718 l0 0 l500 725 l-205 0 l-386 -574 l-16 0 l-380 574 l-217 0 l488 -717 l0 0 l-494 -726 Z" /><glyph glyph-name="" unicode="&#x1e8a;" d="M90 0 l204 0 l385 569 l16 0 l378 -569 l216 0 l-489 718 l0 0 l500 725 l-205 0 l-386 -574 l-16 0 l-380 574 l-217 0 l488 -717 l0 0 l-494 -726 ZM695 1575 q52 1 86 35 q34 34 35 86 q-1 52 -35 86 q-34 34 -86 35 q-52 -1 -86 -35 q-34 -34 -35 -86 q1 -52 35 -86 q34 -34 86 -35 l0 0 Z" /><glyph glyph-name="" unicode="&#x1e8c;" d="M90 0 l204 0 l385 569 l16 0 l378 -569 l216 0 l-489 718 l0 0 l500 725 l-205 0 l-386 -574 l-16 0 l-380 574 l-217 0 l488 -717 l0 0 l-494 -726 ZM493 1575 q52 1 86 35 q34 34 35 86 q-1 52 -35 86 q-34 34 -86 35 q-52 -1 -86 -35 q-34 -34 -35 -86 q1 -52 35 -86 q34 -34 86 -35 l0 0 ZM897 1575 q52 1 86 35 q34 34 35 86 q-1 52 -35 86 q-34 34 -86 35 q-52 -1 -86 -35 q-34 -34 -35 -86 q1 -52 35 -86 q34 -34 86 -35 l0 0 Z" /><glyph glyph-name="" unicode="y" d="M762 0 l0 621 l512 822 l-205 0 l-389 -641 l-16 0 l-389 641 l-205 0 l512 -822 l0 -621 l180 0 Z" /><glyph glyph-name="" unicode="&#x1ef2;" d="M762 0 l0 621 l512 822 l-205 0 l-389 -641 l-16 0 l-389 641 l-205 0 l512 -822 l0 -621 l180 0 ZM566 1575 l204 0 l-310 298 l-226 0 l332 -298 Z" /><glyph glyph-name="" unicode="ý" d="M762 0 l0 621 l512 822 l-205 0 l-389 -641 l-16 0 l-389 641 l-205 0 l512 -822 l0 -621 l180 0 ZM770 1575 l332 298 l-226 0 l-310 -298 l204 0 Z" /><glyph glyph-name="" unicode="&#x1e8e;" d="M762 0 l0 621 l512 822 l-205 0 l-389 -641 l-16 0 l-389 641 l-205 0 l512 -822 l0 -621 l180 0 ZM672 1575 q52 1 86 35 q34 34 35 86 q-1 52 -35 86 q-34 34 -86 35 q-52 -1 -86 -35 q-34 -34 -35 -86 q1 -52 35 -86 q34 -34 86 -35 l0 0 Z" /><glyph glyph-name="" unicode="&#x1ef4;" d="M762 0 l0 621 l512 822 l-205 0 l-389 -641 l-16 0 l-389 641 l-205 0 l512 -822 l0 -621 l180 0 ZM672 -402 q52 1 86 35 q34 34 35 86 q-1 52 -35 86 q-34 34 -86 35 q-52 -1 -86 -35 q-34 -34 -35 -86 q1 -52 35 -86 q34 -34 86 -35 l0 0 Z" /><glyph glyph-name="" unicode="&#x178;" d="M762 0 l0 621 l512 822 l-205 0 l-389 -641 l-16 0 l-389 641 l-205 0 l512 -822 l0 -621 l180 0 ZM470 1575 q52 1 86 35 q34 34 35 86 q-1 52 -35 86 q-34 34 -86 35 q-52 -1 -86 -35 q-34 -34 -35 -86 q1 -52 35 -86 q34 -34 86 -35 l0 0 ZM874 1575 q52 1 86 35 q34 34 35 86 q-1 52 -35 86 q-34 34 -86 35 q-52 -1 -86 -35 q-34 -34 -35 -86 q1 -52 35 -86 q34 -34 86 -35 l0 0 Z" /><glyph glyph-name="" unicode="&#x1ef8;" d="M762 0 l0 621 l512 822 l-205 0 l-389 -641 l-16 0 l-389 641 l-205 0 l512 -822 l0 -621 l180 0 ZM822 1575 q105 2 165 76 q60 75 61 205 l-135 0 q-5 -87 -32 -120 q-26 -33 -63 -31 q-58 11 -115 84 q-57 74 -181 84 q-105 -1 -165 -73 q-60 -73 -61 -208 l136 0 q3 84 27 118 q24 34 67 33 q72 -10 126 -84 q55 -73 170 -84 l0 0 Z" /><glyph glyph-name="" unicode="&#x176;" d="M762 0 l0 621 l512 822 l-205 0 l-389 -641 l-16 0 l-389 641 l-205 0 l512 -822 l0 -621 l180 0 ZM590 1873 l-300 -298 l202 0 l172 177 l16 0 l172 -177 l202 0 l-300 298 l-164 0 Z" /><glyph glyph-name="" unicode="&#x232;" d="M762 0 l0 621 l512 822 l-205 0 l-389 -641 l-16 0 l-389 641 l-205 0 l512 -822 l0 -621 l180 0 ZM1009 1756 l-674 0 l0 -136 l674 0 l0 136 Z" /><glyph glyph-name="" unicode="&#x1ef6;" d="M762 0 l0 621 l512 822 l-205 0 l-389 -641 l-16 0 l-389 641 l-205 0 l512 -822 l0 -621 l180 0 ZM497 1780 q20 11 48 16 q29 6 62 6 q43 -1 70 -21 q27 -20 28 -52 q-1 -32 -30 -61 q-30 -29 -79 -44 l73 -97 q82 28 131 86 q50 58 51 128 q-1 84 -60 132 q-58 47 -163 48 q-36 0 -71 -6 q-36 -5 -60 -15 l0 -120 Z" /><glyph glyph-name="" unicode="z" d="M144 0 l1067 0 l0 162 l-830 0 l0 16 l813 1137 l0 128 l-1022 0 l0 -162 l789 0 l0 -16 l-817 -1137 l0 -128 Z" /><glyph glyph-name="" unicode="&#x179;" d="M144 0 l1067 0 l0 162 l-830 0 l0 16 l813 1137 l0 128 l-1022 0 l0 -162 l789 0 l0 -16 l-817 -1137 l0 -128 ZM776 1575 l332 298 l-226 0 l-310 -298 l204 0 Z" /><glyph glyph-name="" unicode="&#x17d;" d="M144 0 l1067 0 l0 162 l-830 0 l0 16 l813 1137 l0 128 l-1022 0 l0 -162 l789 0 l0 -16 l-817 -1137 l0 -128 ZM596 1575 l164 0 l300 298 l-202 0 l-172 -177 l-16 0 l-172 177 l-202 0 l300 -298 Z" /><glyph glyph-name="" unicode="&#x1e90;" d="M144 0 l1067 0 l0 162 l-830 0 l0 16 l813 1137 l0 128 l-1022 0 l0 -162 l789 0 l0 -16 l-817 -1137 l0 -128 ZM596 1873 l-300 -298 l202 0 l172 177 l16 0 l172 -177 l202 0 l-300 298 l-164 0 Z" /><glyph glyph-name="" unicode="&#x1e94;" d="M144 0 l1067 0 l0 162 l-830 0 l0 16 l813 1137 l0 128 l-1022 0 l0 -162 l789 0 l0 -16 l-817 -1137 l0 -128 ZM1015 -212 l-674 0 l0 -136 l674 0 l0 136 Z" /><glyph glyph-name="" unicode="&#x1e92;" d="M144 0 l1067 0 l0 162 l-830 0 l0 16 l813 1137 l0 128 l-1022 0 l0 -162 l789 0 l0 -16 l-817 -1137 l0 -128 ZM678 -402 q52 1 86 35 q34 34 35 86 q-1 52 -35 86 q-34 34 -86 35 q-52 -1 -86 -35 q-34 -34 -35 -86 q1 -52 35 -86 q34 -34 86 -35 l0 0 Z" /><glyph glyph-name="" unicode="&#x17b;" d="M144 0 l1067 0 l0 162 l-830 0 l0 16 l813 1137 l0 128 l-1022 0 l0 -162 l789 0 l0 -16 l-817 -1137 l0 -128 ZM678 1575 q52 1 86 35 q34 34 35 86 q-1 52 -35 86 q-34 34 -86 35 q-52 -1 -86 -35 q-34 -34 -35 -86 q1 -52 35 -86 q34 -34 86 -35 l0 0 Z" /><glyph glyph-name="" unicode="æ" d="M839 1292 l147 0 l0 -680 l-457 0 l310 680 ZM986 0 l838 0 l0 162 l-658 0 l0 486 l621 0 l0 160 l-621 0 l0 473 l658 0 l0 162 l-1104 0 l-651 -1443 l181 0 l209 459 l527 0 l0 -459 Z" /><glyph glyph-name="" unicode="&#x1e2;" d="M839 1292 l147 0 l0 -680 l-457 0 l310 680 ZM986 0 l838 0 l0 162 l-658 0 l0 486 l621 0 l0 160 l-621 0 l0 473 l658 0 l0 162 l-1104 0 l-651 -1443 l181 0 l209 459 l527 0 l0 -459 ZM1776 1756 l-674 0 l0 -136 l674 0 l0 136 Z" /><glyph glyph-name="" unicode="&#x1fc;" d="M839 1292 l147 0 l0 -680 l-457 0 l310 680 ZM986 0 l838 0 l0 162 l-658 0 l0 486 l621 0 l0 160 l-621 0 l0 473 l658 0 l0 162 l-1104 0 l-651 -1443 l181 0 l209 459 l527 0 l0 -459 ZM1537 1575 l332 298 l-226 0 l-310 -298 l204 0 Z" /><glyph glyph-name="" unicode="&#x152;" d="M801 1311 q220 -2 342 -157 q123 -155 125 -432 q-2 -277 -125 -432 q-122 -155 -342 -158 q-229 3 -358 158 q-128 155 -130 432 q2 276 131 431 q129 155 357 158 l0 0 ZM1289 0 l894 0 l0 162 l-732 0 l0 496 l695 0 l0 160 l-695 0 l0 463 l732 0 l0 162 l-894 0 l0 -237 l-16 0 q-70 123 -203 196 q-133 73 -289 75 q-303 -4 -476 -204 q-174 -201 -177 -551 q3 -352 176 -552 q172 -200 477 -204 q158 2 291 78 q132 75 201 203 l16 0 l0 -247 Z" /><glyph glyph-name="" unicode="ð" d="M364 162 l0 501 l248 0 l0 163 l-248 0 l0 455 l303 0 q242 -2 375 -148 q132 -146 134 -413 q-2 -266 -134 -411 q-132 -145 -375 -147 l-303 0 ZM184 1443 l0 -617 l-158 0 l0 -163 l158 0 l0 -663 l495 0 q324 2 501 190 q178 188 180 532 q-2 343 -180 531 q-178 188 -501 190 l-495 0 Z" /><glyph glyph-name="" unicode="þ" d="M184 1443 l0 -1443 l180 0 l0 345 l371 0 q171 1 295 110 q123 108 129 307 q-6 199 -128 307 q-123 107 -294 108 l-373 0 l0 266 l-180 0 ZM364 1017 l322 0 q127 0 206 -63 q80 -63 82 -192 q-2 -129 -82 -193 q-79 -64 -206 -64 l-322 0 l0 512 Z" /><glyph glyph-name="" unicode="&#x391;" d="M1122 0 l189 0 l-532 1443 l-178 0 l-532 -1443 l189 0 l145 413 l574 0 l145 -413 ZM682 1210 l16 0 l226 -644 l-468 0 l226 644 Z" /><glyph glyph-name="" unicode="&#x392;" d="M747 0 q232 2 360 107 q127 106 129 298 q-2 145 -87 238 q-86 93 -235 113 l0 16 q107 22 177 109 q69 86 72 202 q-2 168 -114 263 q-112 95 -313 97 l-552 0 l0 -1443 l563 0 ZM364 1284 l334 0 q135 -1 209 -61 q73 -60 74 -171 q0 -115 -83 -173 q-82 -58 -246 -58 l-288 0 l0 463 ZM364 159 l0 507 l339 0 q173 0 260 -63 q88 -64 88 -189 q0 -126 -84 -190 q-84 -65 -247 -65 l-356 0 Z" /><glyph glyph-name="" unicode="&#x393;" d="M364 0 l0 1281 l676 0 l0 162 l-856 0 l0 -1443 l180 0 Z" /><glyph glyph-name="" unicode="&#x394;&#x2206;" d="M1291 0 l0 127 l-505 1316 l-178 0 l-505 -1316 l0 -127 l1188 0 ZM307 178 l382 1042 l16 0 l382 -1042 l0 -16 l-780 0 l0 16 Z" /><glyph glyph-name="" unicode="&#x395;" d="M1078 162 l-714 0 l0 496 l677 0 l0 160 l-677 0 l0 463 l714 0 l0 162 l-894 0 l0 -1443 l894 0 l0 162 Z" /><glyph glyph-name="" unicode="&#x396;" d="M144 0 l1067 0 l0 162 l-830 0 l0 16 l813 1137 l0 128 l-1022 0 l0 -162 l789 0 l0 -16 l-817 -1137 l0 -128 Z" /><glyph glyph-name="" unicode="&#x397;" d="M1336 0 l0 1443 l-180 0 l0 -624 l-792 0 l0 624 l-180 0 l0 -1443 l180 0 l0 657 l792 0 l0 -657 l180 0 Z" /><glyph glyph-name="" unicode="&#x398;" d="M1102 638 l0 162 l-605 0 l0 -162 l605 0 ZM801 1477 q-310 -2 -489 -196 q-180 -194 -184 -559 q3 -364 181 -559 q178 -195 492 -197 q312 2 490 198 q177 195 180 558 q-3 364 -181 559 q-178 194 -489 196 l0 0 ZM801 1311 q224 -1 353 -152 q129 -150 132 -437 q-3 -285 -131 -437 q-129 -152 -354 -153 q-227 1 -356 153 q-130 152 -132 437 q3 287 134 437 q131 151 354 152 l0 0 Z" /><glyph glyph-name="" unicode="&#x399;" d="M364 0 l0 1443 l-180 0 l0 -1443 l180 0 Z" /><glyph glyph-name="" unicode="&#x39a;" d="M364 0 l0 504 l173 191 l521 -695 l233 0 l-630 820 l577 623 l-226 0 l-632 -701 l-16 0 l0 701 l-180 0 l0 -1443 l180 0 Z" /><glyph glyph-name="" unicode="&#x39b;" d="M1096 0 l189 0 l-512 1443 l-178 0 l-512 -1443 l189 0 l404 1200 l16 0 l404 -1200 Z" /><glyph glyph-name="" unicode="&#x39c;" d="M1606 0 l0 1443 l-209 0 l-494 -1194 l-16 0 l-494 1194 l-209 0 l0 -1443 l168 0 l0 1102 l12 0 l455 -1092 l152 0 l455 1092 l12 0 l0 -1102 l168 0 Z" /><glyph glyph-name="" unicode="&#x39d;" d="M362 0 l0 1119 l16 0 l783 -1119 l175 0 l0 1443 l-178 0 l0 -1123 l-16 0 l-783 1123 l-175 0 l0 -1443 l178 0 Z" /><glyph glyph-name="" unicode="&#x39e;" d="M142 1443 l0 -167 l1059 0 l0 167 l-1059 0 ZM1114 653 l0 165 l-885 0 l0 -165 l885 0 ZM142 167 l0 -167 l1059 0 l0 167 l-1059 0 Z" /><glyph glyph-name="" unicode="&#x39f;" d="M791 1477 q-309 -4 -484 -203 q-176 -200 -179 -552 q3 -350 176 -551 q174 -201 487 -205 q312 4 485 205 q172 201 175 551 q-3 351 -176 551 q-174 200 -484 204 l0 0 ZM791 1311 q223 -3 348 -159 q125 -156 127 -430 q-2 -272 -126 -429 q-125 -158 -349 -161 q-227 3 -351 161 q-125 157 -127 429 q2 274 129 430 q126 156 349 159 l0 0 Z" /><glyph glyph-name="" unicode="&#x3a0;" d="M1316 0 l0 1443 l-1132 0 l0 -1443 l180 0 l0 1281 l772 0 l0 -1281 l180 0 Z" /><glyph glyph-name="" unicode="&#x3a1;" d="M184 1443 l0 -1443 l180 0 l0 515 l363 0 q207 4 334 129 q126 126 130 332 q-3 210 -129 337 q-125 127 -333 130 l-545 0 ZM364 1283 l318 0 q157 -1 240 -79 q83 -79 84 -228 q-1 -144 -85 -222 q-84 -78 -239 -79 l-318 0 l0 608 Z" /><glyph glyph-name="" unicode="&#x3a3;" d="M372 178 l379 544 l0 32 l-357 511 l0 16 l779 0 l0 162 l-1012 0 l0 -152 l402 -566 l-419 -593 l0 -132 l1047 0 l0 162 l-819 0 l0 16 Z" /><glyph glyph-name="" unicode="&#x3a4;" d="M739 0 l0 1281 l465 0 l0 162 l-1110 0 l0 -162 l465 0 l0 -1281 l180 0 Z" /><glyph glyph-name="" unicode="&#x3a5;" d="M762 0 l0 621 l512 822 l-205 0 l-389 -641 l-16 0 l-389 641 l-205 0 l512 -822 l0 -621 l180 0 Z" /><glyph glyph-name="" unicode="&#x3a6;" d="M1414 718 q-3 -224 -129 -344 q-126 -120 -337 -128 l0 944 q211 -8 337 -128 q126 -120 129 -344 l0 0 ZM302 718 q3 224 129 344 q126 120 337 128 l0 -944 q-211 8 -337 128 q-126 120 -129 344 l0 0 ZM948 -58 l0 143 q295 16 471 182 q175 165 179 451 q-4 286 -179 452 q-176 165 -471 181 l0 146 l-180 0 l0 -146 q-295 -16 -470 -181 q-176 -166 -180 -452 q4 -286 180 -451 q175 -166 470 -182 l0 -143 l180 0 Z" /><glyph glyph-name="" unicode="&#x3a7;" d="M90 0 l204 0 l385 569 l16 0 l378 -569 l216 0 l-489 718 l0 0 l500 725 l-205 0 l-386 -574 l-16 0 l-380 574 l-217 0 l488 -717 l0 0 l-494 -726 Z" /><glyph glyph-name="" unicode="&#x3a8;" d="M928 0 l0 339 q264 4 420 154 q155 150 159 405 l0 545 l-180 0 l0 -539 q-1 -188 -103 -291 q-103 -103 -296 -108 l0 938 l-180 0 l0 -938 q-193 5 -295 108 q-103 103 -104 291 l0 539 l-180 0 l0 -545 q4 -255 159 -405 q156 -150 420 -154 l0 -339 l180 0 Z" /><glyph glyph-name="" unicode="&#x3a9;&#x2126;" d="M1270 793 q1 -193 -83 -337 q-84 -144 -258 -252 l0 -204 l526 0 l0 162 l-311 0 l0 16 q148 96 229 257 q81 161 82 362 q-4 309 -182 492 q-178 184 -478 188 q-300 -4 -478 -188 q-178 -183 -182 -492 q1 -201 82 -362 q81 -161 229 -257 l0 -16 l-311 0 l0 -162 l526 0 l0 204 q-174 108 -258 252 q-84 144 -83 337 q2 243 127 379 q125 137 348 139 q223 -2 348 -139 q125 -136 127 -379 l0 0 Z" /><glyph glyph-name="" unicode="&#x386;" d="M1122 0 l189 0 l-532 1443 l-178 0 l-532 -1443 l189 0 l145 413 l574 0 l145 -413 ZM682 1210 l16 0 l226 -644 l-468 0 l226 644 ZM92 1105 l159 0 l135 338 l-206 0 l-88 -338 Z" /><glyph glyph-name="" unicode="&#x388;" d="M1476 162 l-714 0 l0 496 l677 0 l0 160 l-677 0 l0 463 l714 0 l0 162 l-894 0 l0 -1443 l894 0 l0 162 ZM104 1105 l159 0 l135 338 l-206 0 l-88 -338 Z" /><glyph glyph-name="" unicode="&#x389;" d="M1734 0 l0 1443 l-180 0 l0 -624 l-792 0 l0 624 l-180 0 l0 -1443 l180 0 l0 657 l792 0 l0 -657 l180 0 ZM104 1105 l159 0 l135 338 l-206 0 l-88 -338 Z" /><glyph glyph-name="" unicode="&#x38a;" d="M762 0 l0 1443 l-180 0 l0 -1443 l180 0 ZM104 1105 l159 0 l135 338 l-206 0 l-88 -338 Z" /><glyph glyph-name="" unicode="&#x3aa;" d="M364 0 l0 1443 l-180 0 l0 -1443 l180 0 ZM72 1575 q52 1 86 35 q34 34 35 86 q-1 52 -35 86 q-34 34 -86 35 q-52 -1 -86 -35 q-34 -34 -35 -86 q1 -52 35 -86 q34 -34 86 -35 l0 0 ZM476 1575 q52 1 86 35 q34 34 35 86 q-1 52 -35 86 q-34 34 -86 35 q-52 -1 -86 -35 q-34 -34 -35 -86 q1 -52 35 -86 q34 -34 86 -35 l0 0 Z" /><glyph glyph-name="" unicode="&#x38c;" d="M1055 1477 q-309 -4 -484 -203 q-176 -200 -179 -552 q3 -350 176 -551 q174 -201 487 -205 q312 4 485 205 q172 201 175 551 q-3 351 -176 551 q-174 200 -484 204 l0 0 ZM1055 1311 q223 -3 348 -159 q125 -156 127 -430 q-2 -272 -126 -429 q-125 -158 -349 -161 q-227 3 -351 161 q-125 157 -127 429 q2 274 129 430 q126 156 349 159 l0 0 ZM104 1105 l159 0 l135 338 l-206 0 l-88 -338 Z" /><glyph glyph-name="" unicode="&#x38e;" d="M1160 0 l0 621 l512 822 l-205 0 l-389 -641 l-16 0 l-389 641 l-205 0 l512 -822 l0 -621 l180 0 ZM104 1105 l159 0 l135 338 l-206 0 l-88 -338 Z" /><glyph glyph-name="" unicode="&#x3ab;" d="M762 0 l0 621 l512 822 l-205 0 l-389 -641 l-16 0 l-389 641 l-205 0 l512 -822 l0 -621 l180 0 ZM470 1575 q52 1 86 35 q34 34 35 86 q-1 52 -35 86 q-34 34 -86 35 q-52 -1 -86 -35 q-34 -34 -35 -86 q1 -52 35 -86 q34 -34 86 -35 l0 0 ZM874 1575 q52 1 86 35 q34 34 35 86 q-1 52 -35 86 q-34 34 -86 35 q-52 -1 -86 -35 q-34 -34 -35 -86 q1 -52 35 -86 q34 -34 86 -35 l0 0 Z" /><glyph glyph-name="" unicode="&#x38f;" d="M1539 793 q1 -193 -83 -337 q-84 -144 -258 -252 l0 -204 l526 0 l0 162 l-311 0 l0 16 q148 96 229 257 q81 161 82 362 q-4 309 -182 492 q-178 184 -478 188 q-300 -4 -478 -188 q-178 -183 -182 -492 q1 -201 82 -362 q81 -161 229 -257 l0 -16 l-311 0 l0 -162 l526 0 l0 204 q-174 108 -258 252 q-84 144 -83 337 q2 243 127 379 q125 137 348 139 q223 -2 348 -139 q125 -136 127 -379 l0 0 ZM104 1105 l159 0 l135 338 l-206 0 l-88 -338 Z" /><glyph glyph-name="" unicode="&#x410;" d="M1132 0 l189 0 l-532 1443 l-178 0 l-532 -1443 l189 0 l145 413 l574 0 l145 -413 ZM692 1210 l16 0 l226 -644 l-468 0 l226 644 Z" /><glyph glyph-name="" unicode="&#x4d0;" d="M1132 0 l189 0 l-532 1443 l-178 0 l-532 -1443 l189 0 l145 413 l574 0 l145 -413 ZM692 1210 l16 0 l226 -644 l-468 0 l226 644 ZM356 1873 q2 -141 94 -219 q91 -78 248 -79 q157 1 249 79 q93 78 95 219 l-156 0 q-2 -83 -53 -131 q-52 -48 -135 -49 q-81 1 -133 49 q-51 48 -53 131 l-156 0 Z" /><glyph glyph-name="" unicode="&#x4d2;" d="M1132 0 l189 0 l-532 1443 l-178 0 l-532 -1443 l189 0 l145 413 l574 0 l145 -413 ZM692 1210 l16 0 l226 -644 l-468 0 l226 644 ZM498 1575 q52 1 86 35 q34 34 35 86 q-1 52 -35 86 q-34 34 -86 35 q-52 -1 -86 -35 q-34 -34 -35 -86 q1 -52 35 -86 q34 -34 86 -35 l0 0 ZM902 1575 q52 1 86 35 q34 34 35 86 q-1 52 -35 86 q-34 34 -86 35 q-52 -1 -86 -35 q-34 -34 -35 -86 q1 -52 35 -86 q34 -34 86 -35 l0 0 Z" /><glyph glyph-name="" unicode="&#x411;" d="M1181 433 q-4 195 -130 314 q-127 118 -334 121 l-343 0 l0 413 l663 0 l0 162 l-843 0 l0 -1443 l525 0 q207 3 333 121 q126 118 129 312 l0 0 ZM374 162 l0 544 l298 0 q155 -1 239 -71 q84 -70 85 -202 q-1 -131 -84 -201 q-84 -69 -240 -70 l-298 0 Z" /><glyph glyph-name="" unicode="&#x412;" d="M757 0 q232 2 360 107 q127 106 129 298 q-2 145 -87 238 q-86 93 -235 113 l0 16 q107 22 177 109 q69 86 72 202 q-2 168 -114 263 q-112 95 -313 97 l-552 0 l0 -1443 l563 0 ZM374 1284 l334 0 q135 -1 209 -61 q73 -60 74 -171 q0 -115 -83 -173 q-82 -58 -246 -58 l-288 0 l0 463 ZM374 159 l0 507 l339 0 q173 0 260 -63 q88 -64 88 -189 q0 -126 -84 -190 q-84 -65 -247 -65 l-356 0 Z" /><glyph glyph-name="" unicode="&#x413;" d="M375 0 l0 1279 l675 0 l0 164 l-856 0 l0 -1443 l181 0 Z" /><glyph glyph-name="" unicode="&#x403;" d="M375 0 l0 1279 l675 0 l0 164 l-856 0 l0 -1443 l181 0 ZM681 1575 l332 298 l-226 0 l-310 -298 l204 0 Z" /><glyph glyph-name="" unicode="&#x490;" d="M375 1279 l675 0 l0 449 l-167 0 l0 -285 l-689 0 l0 -1443 l181 0 l0 1279 Z" /><glyph glyph-name="" unicode="&#x4f6;" d="M1050 1279 l0 164 l-856 0 l0 -1281 l0 -162 l181 0 l13 0 l0 -285 l167 0 l0 447 l-180 0 l0 1117 l675 0 Z" /><glyph glyph-name="" unicode="&#x492;" d="M1098 1279 l0 164 l-856 0 l0 -668 l-163 0 l0 -140 l163 0 l0 -635 l181 0 l0 635 l490 0 l0 140 l-490 0 l0 504 l675 0 Z" /><glyph glyph-name="" unicode="&#x4fa;" d="M1104 1279 l0 164 l-856 0 l0 -668 l-163 0 l0 -140 l163 0 l0 -338 l0 -297 l0 -56 q1 -89 -35 -128 q-37 -40 -127 -39 l-26 0 l0 -152 l30 0 q175 -1 258 76 q82 77 81 246 l0 53 l0 297 l0 338 l490 0 l0 140 l-490 0 l0 504 l675 0 Z" /><glyph glyph-name="" unicode="&#x414;" d="M471 531 l47 750 l552 0 l0 -1119 l-700 0 l0 12 q52 63 73 149 q22 87 28 208 l0 0 ZM207 0 l1056 0 l0 -285 l167 0 l0 447 l-180 0 l0 1281 l-893 0 l-55 -908 q-7 -142 -42 -236 q-35 -95 -113 -137 l-107 0 l0 -447 l167 0 l0 285 Z" /><glyph glyph-name="" unicode="&#x415;" d="M1088 162 l-714 0 l0 496 l677 0 l0 160 l-677 0 l0 463 l714 0 l0 162 l-894 0 l0 -1443 l894 0 l0 162 Z" /><glyph glyph-name="" unicode="&#x401;" d="M1088 162 l-714 0 l0 496 l677 0 l0 160 l-677 0 l0 463 l714 0 l0 162 l-894 0 l0 -1443 l894 0 l0 162 ZM439 1575 q52 1 86 35 q34 34 35 86 q-1 52 -35 86 q-34 34 -86 35 q-52 -1 -86 -35 q-34 -34 -35 -86 q1 -52 35 -86 q34 -34 86 -35 l0 0 ZM843 1575 q52 1 86 35 q34 34 35 86 q-1 52 -35 86 q-34 34 -86 35 q-52 -1 -86 -35 q-34 -34 -35 -86 q1 -52 35 -86 q34 -34 86 -35 l0 0 Z" /><glyph glyph-name="" unicode="&#x4d6;" d="M1088 162 l-714 0 l0 496 l677 0 l0 160 l-677 0 l0 463 l714 0 l0 162 l-894 0 l0 -1443 l894 0 l0 162 ZM298 1873 q2 -141 94 -219 q91 -78 248 -79 q157 1 249 79 q93 78 95 219 l-156 0 q-2 -83 -53 -131 q-52 -48 -135 -49 q-81 1 -133 49 q-51 48 -53 131 l-156 0 Z" /><glyph glyph-name="" unicode="&#x400;" d="M1088 162 l-714 0 l0 496 l677 0 l0 160 l-677 0 l0 463 l714 0 l0 162 l-894 0 l0 -1443 l894 0 l0 162 ZM535 1575 l204 0 l-310 298 l-226 0 l332 -298 Z" /><glyph glyph-name="" unicode="&#x416;" d="M1133 806 l0 637 l-180 0 l0 -637 l-42 0 l-566 637 l-223 0 l640 -699 l0 0 l-694 -744 l231 0 l612 667 l42 0 l0 -667 l180 0 l0 667 l42 0 l612 -667 l234 0 l-697 748 l0 0 l638 695 l-221 0 l-566 -637 l-42 0 Z" /><glyph glyph-name="" unicode="&#x4c1;" d="M1133 806 l0 637 l-180 0 l0 -637 l-42 0 l-566 637 l-223 0 l640 -699 l0 0 l-694 -744 l231 0 l612 667 l42 0 l0 -667 l180 0 l0 667 l42 0 l612 -667 l234 0 l-697 748 l0 0 l638 695 l-221 0 l-566 -637 l-42 0 ZM680 1873 q2 -136 97 -216 q96 -80 267 -82 q171 2 267 82 q95 80 97 216 l-154 0 q-1 -80 -56 -126 q-56 -46 -154 -47 q-98 1 -154 47 q-55 46 -56 126 l-154 0 Z" /><glyph glyph-name="" unicode="&#x4dc;" d="M1133 806 l0 637 l-180 0 l0 -637 l-42 0 l-566 637 l-223 0 l640 -699 l0 0 l-694 -744 l231 0 l612 667 l42 0 l0 -667 l180 0 l0 667 l42 0 l612 -667 l234 0 l-697 748 l0 0 l638 695 l-221 0 l-566 -637 l-42 0 ZM842 1575 q52 1 86 35 q34 34 35 86 q-1 52 -35 86 q-34 34 -86 35 q-52 -1 -86 -35 q-34 -34 -35 -86 q1 -52 35 -86 q34 -34 86 -35 l0 0 ZM1246 1575 q52 1 86 35 q34 34 35 86 q-1 52 -35 86 q-34 34 -86 35 q-52 -1 -86 -35 q-34 -34 -35 -86 q1 -52 35 -86 q34 -34 86 -35 l0 0 Z" /><glyph glyph-name="" unicode="&#x496;" d="M1870 162 l-546 586 l638 695 l-221 0 l-566 -637 l-42 0 l0 637 l-180 0 l0 -637 l-42 0 l-566 637 l-223 0 l640 -699 l-694 -744 l231 0 l612 667 l42 0 l0 -667 l180 0 l0 667 l42 0 l612 -667 l10 0 l97 0 l0 -285 l167 0 l0 447 l-191 0 Z" /><glyph glyph-name="" unicode="&#x417;" d="M416 657 l203 0 q164 -1 253 -71 q88 -69 89 -192 q-2 -119 -91 -192 q-90 -74 -244 -76 q-152 1 -245 68 q-93 67 -107 182 l-174 0 q13 -187 155 -297 q141 -110 373 -113 q223 4 368 122 q145 118 150 301 q-3 156 -91 248 q-88 92 -229 107 l0 16 q117 31 187 121 q69 90 71 210 q-4 172 -130 277 q-126 106 -333 109 q-217 -2 -347 -108 q-129 -107 -145 -296 l175 0 q13 116 94 179 q81 64 216 65 q137 -2 212 -67 q74 -65 75 -175 q-2 -115 -81 -186 q-79 -70 -209 -72 l-195 0 l0 -160 Z" /><glyph glyph-name="" unicode="&#x4de;" d="M416 657 l203 0 q164 -1 253 -71 q88 -69 89 -192 q-2 -119 -91 -192 q-90 -74 -244 -76 q-152 1 -245 68 q-93 67 -107 182 l-174 0 q13 -187 155 -297 q141 -110 373 -113 q223 4 368 122 q145 118 150 301 q-3 156 -91 248 q-88 92 -229 107 l0 16 q117 31 187 121 q69 90 71 210 q-4 172 -130 277 q-126 106 -333 109 q-217 -2 -347 -108 q-129 -107 -145 -296 l175 0 q13 116 94 179 q81 64 216 65 q137 -2 212 -67 q74 -65 75 -175 q-2 -115 -81 -186 q-79 -70 -209 -72 l-195 0 l0 -160 ZM431 1575 q52 1 86 35 q34 34 35 86 q-1 52 -35 86 q-34 34 -86 35 q-52 -1 -86 -35 q-34 -34 -35 -86 q1 -52 35 -86 q34 -34 86 -35 l0 0 ZM835 1575 q52 1 86 35 q34 34 35 86 q-1 52 -35 86 q-34 34 -86 35 q-52 -1 -86 -35 q-34 -34 -35 -86 q1 -52 35 -86 q34 -34 86 -35 l0 0 Z" /><glyph glyph-name="" unicode="&#x498;" d="M826 760 q117 31 187 121 q69 90 71 210 q-4 172 -130 277 q-126 106 -333 109 q-217 -2 -347 -108 q-129 -107 -145 -296 l175 0 q13 116 94 179 q81 64 216 65 q137 -2 212 -67 q74 -65 75 -175 q-2 -115 -81 -186 q-79 -70 -209 -72 l-195 0 l0 -160 l203 0 q164 -1 253 -71 q88 -69 89 -192 q-2 -119 -91 -192 q-90 -74 -244 -76 q-152 1 -245 68 q-93 67 -107 182 l-174 0 q11 -170 130 -277 q119 -107 317 -129 l0 -255 l167 0 l0 257 q190 27 309 140 q119 114 123 277 q-3 156 -91 248 q-88 92 -229 107 l0 16 Z" /><glyph glyph-name="" unicode="&#x418;" d="M1168 0 l178 0 l0 1443 l-178 0 l-780 -1152 l-16 0 l0 1152 l-178 0 l0 -1443 l178 0 l780 1148 l16 0 l0 -1148 Z" /><glyph glyph-name="" unicode="&#x419;" d="M1168 0 l178 0 l0 1443 l-178 0 l-780 -1152 l-16 0 l0 1152 l-178 0 l0 -1443 l178 0 l780 1148 l16 0 l0 -1148 ZM442 1874 q2 -141 94 -219 q91 -78 248 -79 q157 1 249 79 q93 78 95 219 l-156 0 q-2 -83 -53 -131 q-52 -48 -135 -49 q-81 1 -133 49 q-51 48 -53 131 l-156 0 Z" /><glyph glyph-name="" unicode="&#x40d;" d="M1168 0 l178 0 l0 1443 l-178 0 l-780 -1152 l-16 0 l0 1152 l-178 0 l0 -1443 l178 0 l780 1148 l16 0 l0 -1148 ZM730 1575 l204 0 l-310 298 l-226 0 l332 -298 Z" /><glyph glyph-name="" unicode="&#x4e2;" d="M1168 0 l178 0 l0 1443 l-178 0 l-780 -1152 l-16 0 l0 1152 l-178 0 l0 -1443 l178 0 l780 1148 l16 0 l0 -1148 ZM1127 1756 l-674 0 l0 -136 l674 0 l0 136 Z" /><glyph glyph-name="" unicode="&#x4e4;" d="M1168 0 l178 0 l0 1443 l-178 0 l-780 -1152 l-16 0 l0 1152 l-178 0 l0 -1443 l178 0 l780 1148 l16 0 l0 -1148 ZM589 1575 q52 1 86 35 q34 34 35 86 q-1 52 -35 86 q-34 34 -86 35 q-52 -1 -86 -35 q-34 -34 -35 -86 q1 -52 35 -86 q34 -34 86 -35 l0 0 ZM993 1575 q52 1 86 35 q34 34 35 86 q-1 52 -35 86 q-34 34 -86 35 q-52 -1 -86 -35 q-34 -34 -35 -86 q1 -52 35 -86 q34 -34 86 -35 l0 0 Z" /><glyph glyph-name="" unicode="&#x48a;" d="M972 1874 q-2 -83 -53 -131 q-52 -48 -135 -49 q-81 1 -133 49 q-51 48 -53 131 l-156 0 q2 -141 94 -219 q91 -78 248 -79 q157 1 249 79 q93 78 95 219 l-156 0 ZM1346 162 l0 1281 l-178 0 l-780 -1152 l-16 0 l0 1152 l-178 0 l0 -1443 l178 0 l780 1148 l16 0 l0 -986 l0 -162 l163 0 l-78 -285 l167 0 l106 395 l0 52 l-180 0 Z" /><glyph glyph-name="" unicode="&#x41a;" d="M374 809 l0 634 l-180 0 l0 -1443 l180 0 l0 665 l42 0 l652 -665 l238 0 l-735 748 l0 0 l677 695 l-226 0 l-606 -634 l-42 0 Z" /><glyph glyph-name="" unicode="&#x40c;" d="M384 809 l0 634 l-180 0 l0 -1443 l180 0 l0 665 l42 0 l652 -665 l238 0 l-735 748 l0 0 l677 695 l-226 0 l-606 -634 l-42 0 ZM731 1575 l332 298 l-226 0 l-310 -298 l204 0 Z" /><glyph glyph-name="" unicode="&#x49a;" d="M1147 162 l-576 586 l677 695 l-226 0 l-606 -634 l-42 0 l0 634 l-180 0 l0 -1443 l180 0 l0 665 l42 0 l652 -665 l14 0 l98 0 l0 -285 l167 0 l0 447 l-200 0 Z" /><glyph glyph-name="" unicode="&#x49c;" d="M848 749 l512 694 l-218 0 l-466 -634 l-42 0 l0 312 l-145 0 l0 -312 l-115 0 l0 634 l-180 0 l0 -1443 l180 0 l0 665 l115 0 l0 -332 l145 0 l0 332 l42 0 l512 -665 l238 0 l-578 749 Z" /><glyph glyph-name="" unicode="&#x49e;" d="M571 748 l677 695 l-226 0 l-606 -634 l-42 0 l0 346 l274 0 l0 152 l-274 0 l0 136 l-180 0 l0 -136 l-180 0 l0 -152 l180 0 l0 -1155 l180 0 l0 665 l42 0 l652 -665 l238 0 l-735 748 Z" /><glyph glyph-name="" unicode="&#x4a0;" d="M1157 748 l677 695 l-226 0 l-606 -634 l-42 0 l0 472 l0 162 l-180 0 l-676 0 l0 -162 l676 0 l0 -1281 l180 0 l0 665 l42 0 l652 -665 l238 0 l-735 748 Z" /><glyph glyph-name="" unicode="&#x4c3;" d="M613 -411 q257 3 407 162 q151 159 154 432 q-4 238 -157 402 q-152 164 -406 203 l0 0 l637 655 l-226 0 l-606 -634 l-15 0 l-27 0 l0 634 l-180 0 l0 -1443 l180 0 l0 648 l32 0 q271 -3 426 -129 q155 -126 158 -342 q-2 -200 -104 -313 q-101 -113 -273 -115 q-22 0 -39 1 q-17 1 -32 2 l0 -158 q13 -2 32 -4 q19 -1 39 -1 l0 0 Z" /><glyph glyph-name="" unicode="&#x41b;" d="M1231 0 l0 1443 l-871 0 l-52 -896 q-7 -173 -51 -280 q-44 -108 -163 -111 q-13 0 -29 2 q-16 2 -25 4 l0 -161 q13 -5 31 -7 q19 -3 39 -3 q188 2 271 144 q83 143 97 405 l46 741 l527 0 l0 -1281 l180 0 Z" /><glyph glyph-name="" unicode="&#x4c5;" d="M1231 162 l0 1281 l-871 0 l-52 -896 q-7 -173 -51 -280 q-44 -108 -163 -111 q-13 0 -29 2 q-16 2 -25 4 l0 -161 q13 -5 31 -7 q19 -3 39 -3 q188 2 271 144 q83 143 97 405 l46 741 l527 0 l0 -1119 l0 -162 l163 0 l-78 -285 l167 0 l106 395 l0 52 l-178 0 Z" /><glyph glyph-name="" unicode="&#x52e;" d="M1231 162 l0 1281 l-871 0 l-52 -896 q-7 -173 -51 -280 q-44 -108 -163 -111 q-13 0 -29 2 q-16 2 -25 4 l0 -161 q13 -5 31 -7 q19 -3 39 -3 q188 2 271 144 q83 143 97 405 l46 741 l527 0 l0 -1119 l0 -162 l180 0 l13 0 l0 -285 l167 0 l0 447 l-180 0 Z" /><glyph glyph-name="" unicode="&#x512;" d="M360 1443 l-52 -896 q-7 -173 -51 -280 q-44 -108 -163 -111 q-13 0 -29 2 q-16 2 -25 4 l0 -161 q13 -5 31 -7 q19 -3 39 -3 q188 2 271 144 q83 143 97 405 l46 741 l527 0 l0 -984 l0 -297 l0 -56 q1 -89 -35 -128 q-37 -40 -127 -39 l-26 0 l0 -152 l30 0 q175 -1 257 76 q82 77 81 246 l0 53 l0 297 l0 1146 l-871 0 Z" /><glyph glyph-name="" unicode="&#x41c;" d="M1616 0 l0 1443 l-209 0 l-494 -1194 l-16 0 l-494 1194 l-209 0 l0 -1443 l168 0 l0 1102 l12 0 l455 -1092 l152 0 l455 1092 l12 0 l0 -1102 l168 0 Z" /><glyph glyph-name="" unicode="&#x4cd;" d="M1616 162 l0 1281 l-209 0 l-494 -1194 l-16 0 l-494 1194 l-209 0 l0 -1443 l168 0 l0 1102 l12 0 l455 -1092 l152 0 l455 1092 l12 0 l0 -940 l0 -162 l163 0 l-78 -285 l167 0 l106 395 l0 52 l-190 0 Z" /><glyph glyph-name="" unicode="&#x41d;" d="M1346 0 l0 1443 l-180 0 l0 -624 l-792 0 l0 624 l-180 0 l0 -1443 l180 0 l0 657 l792 0 l0 -657 l180 0 Z" /><glyph glyph-name="" unicode="&#x4c7;" d="M1166 1443 l0 -624 l-792 0 l0 624 l-180 0 l0 -1443 l180 0 l0 657 l792 0 l0 -360 l0 -297 l0 -56 q1 -89 -35 -128 q-37 -40 -127 -39 l-26 0 l0 -152 l30 0 q175 -1 257 76 q82 77 81 246 l0 53 l0 297 l0 1146 l-180 0 Z" /><glyph glyph-name="" unicode="&#x4a2;" d="M1346 162 l0 1281 l-180 0 l0 -624 l-792 0 l0 624 l-180 0 l0 -1443 l180 0 l0 657 l792 0 l0 -495 l0 -162 l180 0 l13 0 l0 -285 l167 0 l0 447 l-180 0 Z" /><glyph glyph-name="" unicode="&#x4c9;" d="M1346 162 l0 1281 l-180 0 l0 -624 l-792 0 l0 624 l-180 0 l0 -1443 l180 0 l0 657 l792 0 l0 -657 l2 0 l163 0 l-78 -285 l167 0 l106 395 l0 52 l-180 0 Z" /><glyph glyph-name="" unicode="&#x4a4;" d="M2022 1443 l-676 0 l-180 0 l0 -162 l0 -462 l-792 0 l0 624 l-180 0 l0 -1443 l180 0 l0 657 l792 0 l0 -657 l180 0 l0 1281 l676 0 l0 162 Z" /><glyph glyph-name="" unicode="&#x41e;" d="M801 1477 q-309 -4 -484 -203 q-176 -200 -179 -552 q3 -350 176 -551 q174 -201 487 -205 q312 4 485 205 q172 201 175 551 q-3 351 -176 551 q-174 200 -484 204 l0 0 ZM801 1311 q223 -3 348 -159 q125 -156 127 -430 q-2 -272 -126 -429 q-125 -158 -349 -161 q-227 3 -351 161 q-125 157 -127 429 q2 274 129 430 q126 156 349 159 l0 0 Z" /><glyph glyph-name="" unicode="&#x4e6;" d="M801 1477 q-309 -4 -484 -203 q-176 -200 -179 -552 q3 -350 176 -551 q174 -201 487 -205 q312 4 485 205 q172 201 175 551 q-3 351 -176 551 q-174 200 -484 204 l0 0 ZM801 1311 q223 -3 348 -159 q125 -156 127 -430 q-2 -272 -126 -429 q-125 -158 -349 -161 q-227 3 -351 161 q-125 157 -127 429 q2 274 129 430 q126 156 349 159 l0 0 ZM599 1575 q52 1 86 35 q34 34 35 86 q-1 52 -35 86 q-34 34 -86 35 q-52 -1 -86 -35 q-34 -34 -35 -86 q1 -52 35 -86 q34 -34 86 -35 l0 0 ZM1003 1575 q52 1 86 35 q34 34 35 86 q-1 52 -35 86 q-34 34 -86 35 q-52 -1 -86 -35 q-34 -34 -35 -86 q1 -52 35 -86 q34 -34 86 -35 l0 0 Z" /><glyph glyph-name="" unicode="&#x4e8;" d="M1275 667 q-15 -248 -138 -390 q-124 -142 -336 -145 q-214 3 -338 145 q-124 142 -139 390 l951 0 ZM327 810 q23 235 147 367 q123 132 327 134 q204 -2 327 -134 q122 -132 144 -367 l-945 0 ZM801 1477 q-309 -4 -484 -203 q-176 -200 -179 -552 q3 -350 176 -551 q174 -201 487 -205 q312 4 485 205 q172 201 175 551 q-3 351 -176 551 q-174 200 -484 204 l0 0 Z" /><glyph glyph-name="" unicode="&#x4ea;" d="M1001 1575 q52 1 86 35 q34 34 35 86 q-1 52 -35 86 q-34 34 -86 35 q-52 -1 -86 -35 q-34 -34 -35 -86 q1 -52 35 -86 q34 -34 86 -35 l0 0 ZM597 1575 q52 1 86 35 q34 34 35 86 q-1 52 -35 86 q-34 34 -86 35 q-52 -1 -86 -35 q-34 -34 -35 -86 q1 -52 35 -86 q34 -34 86 -35 l0 0 ZM1275 667 q-15 -248 -138 -390 q-124 -142 -336 -145 q-214 3 -338 145 q-124 142 -139 390 l951 0 ZM327 810 q23 235 147 367 q123 132 327 134 q204 -2 327 -134 q122 -132 144 -367 l-945 0 ZM801 1477 q-309 -4 -484 -203 q-176 -200 -179 -552 q3 -350 176 -551 q174 -201 487 -205 q312 4 485 205 q172 201 175 551 q-3 351 -176 551 q-174 200 -484 204 l0 0 Z" /><glyph glyph-name="" unicode="&#x472;" d="M801 132 q-210 3 -333 139 q-123 137 -142 376 q26 29 73 48 q48 18 127 19 q131 -7 247 -60 q115 -53 292 -61 q68 0 120 17 q52 16 89 46 q-17 -243 -140 -382 q-124 -139 -333 -142 l0 0 ZM801 1311 q203 -2 326 -133 q122 -132 145 -365 q-26 -31 -74 -51 q-49 -19 -129 -20 q-139 8 -254 61 q-115 52 -285 60 q-65 0 -116 -16 q-51 -16 -88 -44 q21 238 146 372 q124 134 329 136 l0 0 ZM801 1477 q-309 -4 -484 -203 q-176 -200 -179 -552 q3 -350 176 -551 q174 -201 487 -205 q312 4 485 205 q172 201 175 551 q-3 351 -176 551 q-174 200 -484 204 l0 0 Z" /><glyph glyph-name="" unicode="&#x41f;" d="M1325 0 l0 1443 l-1131 0 l0 -1443 l181 0 l0 1279 l772 0 l0 -1279 l178 0 Z" /><glyph glyph-name="" unicode="&#x524;" d="M1325 162 l0 1281 l-1131 0 l0 -1443 l181 0 l0 1279 l772 0 l0 -1117 l0 -162 l178 0 l13 0 l0 -285 l167 0 l0 447 l-180 0 Z" /><glyph glyph-name="" unicode="&#x40f;" d="M676 0 l0 -285 l167 0 l0 285 l482 0 l0 1443 l-180 0 l0 -1281 l-771 0 l0 1281 l-180 0 l0 -1443 l482 0 Z" /><glyph glyph-name="" unicode="&#x420;" d="M194 1443 l0 -1443 l180 0 l0 515 l363 0 q207 4 334 129 q126 126 130 332 q-3 210 -129 337 q-125 127 -333 130 l-545 0 ZM374 1283 l318 0 q157 -1 240 -79 q83 -79 84 -228 q-1 -144 -85 -222 q-84 -78 -239 -79 l-318 0 l0 608 Z" /><glyph glyph-name="" unicode="&#x48e;" d="M374 673 l0 610 l318 0 q157 -1 240 -79 q83 -79 84 -228 q0 -82 -27 -143 q-27 -62 -80 -101 l-156 236 l-123 -80 l132 -210 q-33 -5 -70 -5 l-318 0 ZM194 1443 l0 -1443 l180 0 l0 515 l313 0 q43 0 83 5 q40 5 78 14 l169 -269 l142 98 l-158 236 q95 61 147 157 q52 96 53 220 q-3 210 -129 337 q-125 127 -333 130 l-545 0 Z" /><glyph glyph-name="" unicode="&#x421;" d="M775 -34 q233 2 389 119 q155 116 194 317 l-183 0 q-36 -126 -142 -198 q-105 -71 -258 -72 q-211 3 -330 159 q-120 156 -122 430 q2 274 122 431 q119 156 329 159 q151 -1 257 -82 q106 -80 144 -221 l183 0 q-36 212 -194 339 q-158 127 -390 130 q-297 -4 -465 -203 q-168 -200 -171 -553 q3 -352 172 -552 q168 -199 465 -203 l0 0 Z" /><glyph glyph-name="" unicode="&#x4aa;" d="M1358 1008 q-36 212 -194 339 q-158 127 -390 130 q-297 -4 -465 -203 q-168 -200 -171 -553 q3 -330 151 -527 q149 -197 414 -225 l-47 -119 l0 -84 l59 0 q79 0 114 -15 q36 -16 35 -50 q0 -35 -31 -54 q-30 -19 -88 -19 q-29 0 -65 4 q-37 5 -57 10 l0 -108 q31 -9 66 -13 q36 -5 80 -5 q116 1 179 53 q64 51 65 136 q-1 78 -56 120 q-56 42 -159 43 l39 100 q209 18 347 133 q138 114 174 301 l-183 0 q-36 -126 -142 -198 q-105 -71 -258 -72 q-211 3 -330 159 q-120 156 -122 430 q2 274 122 431 q119 156 329 159 q151 -1 257 -82 q106 -80 144 -221 l183 0 Z" /><glyph glyph-name="" unicode="&#x422;" d="M749 0 l0 1281 l465 0 l0 162 l-1110 0 l0 -162 l465 0 l0 -1281 l180 0 Z" /><glyph glyph-name="" unicode="&#x4ac;" d="M1214 1281 l0 162 l-1110 0 l0 -162 l465 0 l0 -1119 l0 -162 l180 0 l13 0 l0 -285 l167 0 l0 447 l-180 0 l0 1119 l465 0 Z" /><glyph glyph-name="" unicode="&#x423;" d="M336 -10 q177 1 278 109 q100 108 183 314 l442 1030 l-187 0 l-378 -935 l-16 0 l-387 935 l-192 0 l493 -1135 q-42 -79 -99 -115 q-57 -36 -137 -36 q-32 0 -52 3 q-19 3 -28 5 l0 -162 q9 -5 30 -9 q20 -4 50 -4 l0 0 Z" /><glyph glyph-name="" unicode="&#x40e;" d="M336 -10 q177 1 278 109 q100 108 183 314 l442 1030 l-187 0 l-378 -935 l-16 0 l-387 935 l-192 0 l493 -1135 q-42 -79 -99 -115 q-57 -36 -137 -36 q-32 0 -52 3 q-19 3 -28 5 l0 -162 q9 -5 30 -9 q20 -4 50 -4 l0 0 ZM319 1874 q2 -141 94 -219 q91 -78 248 -79 q157 1 249 79 q93 78 95 219 l-156 0 q-2 -83 -53 -131 q-52 -48 -135 -49 q-81 1 -133 49 q-51 48 -53 131 l-156 0 Z" /><glyph glyph-name="" unicode="&#x4ee;" d="M336 -10 q177 1 278 109 q100 108 183 314 l442 1030 l-187 0 l-378 -935 l-16 0 l-387 935 l-192 0 l493 -1135 q-42 -79 -99 -115 q-57 -36 -137 -36 q-32 0 -52 3 q-19 3 -28 5 l0 -162 q9 -5 30 -9 q20 -4 50 -4 l0 0 ZM1026 1756 l-674 0 l0 -136 l674 0 l0 136 Z" /><glyph glyph-name="" unicode="&#x4f0;" d="M336 -10 q177 1 278 109 q100 108 183 314 l442 1030 l-187 0 l-378 -935 l-16 0 l-387 935 l-192 0 l493 -1135 q-42 -79 -99 -115 q-57 -36 -137 -36 q-32 0 -52 3 q-19 3 -28 5 l0 -162 q9 -5 30 -9 q20 -4 50 -4 l0 0 ZM469 1575 q52 1 86 35 q34 34 35 86 q-1 52 -35 86 q-34 34 -86 35 q-52 -1 -86 -35 q-34 -34 -35 -86 q1 -52 35 -86 q34 -34 86 -35 l0 0 ZM873 1575 q52 1 86 35 q34 34 35 86 q-1 52 -35 86 q-34 34 -86 35 q-52 -1 -86 -35 q-34 -34 -35 -86 q1 -52 35 -86 q34 -34 86 -35 l0 0 Z" /><glyph glyph-name="" unicode="&#x4f2;" d="M336 -10 q177 1 278 109 q100 108 183 314 l442 1030 l-187 0 l-378 -935 l-16 0 l-387 935 l-192 0 l493 -1135 q-42 -79 -99 -115 q-57 -36 -137 -36 q-32 0 -52 3 q-19 3 -28 5 l0 -162 q9 -5 30 -9 q20 -4 50 -4 l0 0 ZM954 1575 l332 298 l-226 0 l-310 -298 l204 0 ZM540 1575 l332 298 l-226 0 l-310 -298 l204 0 Z" /><glyph glyph-name="" unicode="&#x424;" d="M761 292 q-212 9 -333 123 q-121 114 -123 312 q3 199 125 312 q121 112 331 122 l0 -869 ZM1394 726 q-3 -199 -124 -311 q-122 -113 -331 -123 l0 869 q212 -9 332 -123 q121 -114 123 -312 l0 0 ZM761 131 l0 -151 l178 0 l0 151 q288 10 460 164 q173 155 177 431 q-4 275 -175 431 q-171 156 -462 165 l0 141 l-178 0 l0 -141 q-289 -10 -461 -164 q-173 -155 -177 -431 q4 -275 175 -431 q172 -156 463 -165 l0 0 Z" /><glyph glyph-name="" unicode="&#x425;" d="M100 0 l204 0 l385 569 l16 0 l378 -569 l216 0 l-489 718 l0 0 l500 725 l-205 0 l-386 -574 l-16 0 l-380 574 l-217 0 l488 -717 l0 0 l-494 -726 Z" /><glyph glyph-name="" unicode="&#x4b2;" d="M1189 162 l-379 556 l500 725 l-205 0 l-386 -574 l-16 0 l-380 574 l-217 0 l488 -717 l-494 -726 l204 0 l385 569 l16 0 l378 -569 l139 0 l0 -285 l167 0 l0 447 l-200 0 Z" /><glyph glyph-name="" unicode="&#x4fe;" d="M1222 655 l0 140 l-359 0 l447 648 l-205 0 l-386 -574 l-16 0 l-380 574 l-217 0 l441 -648 l-359 0 l0 -140 l358 0 l-446 -655 l204 0 l385 569 l16 0 l378 -569 l216 0 l-446 655 l369 0 Z" /><glyph glyph-name="" unicode="&#x4fc;" d="M106 1443 l488 -717 l-494 -726 l204 0 l385 569 l16 0 l226 -341 q35 -52 64 -100 q28 -48 51 -94 q21 -40 31 -76 q9 -36 9 -72 q-1 -59 -41 -93 q-40 -33 -103 -34 q-38 0 -56 5 l0 -147 q10 -2 27 -4 q16 -2 42 -2 q139 2 224 80 q86 77 88 203 q0 55 -15 109 q-15 55 -47 114 q-28 53 -60 104 q-31 52 -70 108 l-265 389 l500 725 l-205 0 l-386 -574 l-16 0 l-380 574 l-217 0 Z" /><glyph glyph-name="" unicode="&#x426;" d="M1506 -285 l0 447 l-180 0 l0 1281 l-180 0 l0 -1281 l-772 0 l0 1281 l-180 0 l0 -1443 l1145 0 l0 -285 l167 0 Z" /><glyph glyph-name="" unicode="&#x4b4;" d="M1701 162 l0 1281 l-180 0 l0 -1281 l-772 0 l0 1119 l465 0 l0 162 l-465 0 l-180 0 l-465 0 l0 -162 l465 0 l0 -1281 l1145 0 l0 -285 l167 0 l0 447 l-180 0 Z" /><glyph glyph-name="" unicode="&#x427;" d="M1226 0 l0 1443 l-180 0 l0 -605 q-58 -59 -151 -97 q-92 -38 -210 -39 q-181 2 -275 98 q-95 96 -96 265 l0 378 l-180 0 l0 -377 q0 -227 139 -376 q139 -149 412 -154 q108 1 196 32 q88 31 149 80 l16 0 l0 -648 l180 0 Z" /><glyph glyph-name="" unicode="&#x4f4;" d="M1226 0 l0 1443 l-180 0 l0 -605 q-58 -59 -151 -97 q-92 -38 -210 -39 q-181 2 -275 98 q-95 96 -96 265 l0 378 l-180 0 l0 -377 q0 -227 139 -376 q139 -149 412 -154 q108 1 196 32 q88 31 149 80 l16 0 l0 -648 l180 0 ZM488 1575 q52 1 86 35 q34 34 35 86 q-1 52 -35 86 q-34 34 -86 35 q-52 -1 -86 -35 q-34 -34 -35 -86 q1 -52 35 -86 q34 -34 86 -35 l0 0 ZM892 1575 q52 1 86 35 q34 34 35 86 q-1 52 -35 86 q-34 34 -86 35 q-52 -1 -86 -35 q-34 -34 -35 -86 q1 -52 35 -86 q34 -34 86 -35 l0 0 Z" /><glyph glyph-name="" unicode="&#x4b6;" d="M1226 162 l0 1281 l-180 0 l0 -605 q-58 -59 -151 -97 q-92 -38 -210 -39 q-181 2 -275 98 q-95 96 -96 265 l0 378 l-180 0 l0 -377 q0 -227 139 -376 q139 -149 412 -154 q108 1 196 32 q88 31 149 80 l16 0 l0 -486 l0 -162 l180 0 l13 0 l0 -285 l167 0 l0 447 l-180 0 Z" /><glyph glyph-name="" unicode="&#x4cb;" d="M1046 1443 l0 -605 q-58 -59 -151 -97 q-92 -38 -210 -39 q-181 2 -275 98 q-95 96 -96 265 l0 378 l-180 0 l0 -377 q0 -227 139 -376 q139 -149 412 -154 q108 1 196 32 q88 31 149 80 l16 0 l0 -486 l-180 0 l0 -447 l167 0 l0 285 l13 0 l180 0 l0 162 l0 1281 l-180 0 Z" /><glyph glyph-name="" unicode="&#x4b8;" d="M1046 1443 l0 -605 q-48 -49 -120 -83 q-72 -35 -163 -48 l0 331 l-145 0 l0 -332 q-148 19 -226 113 q-77 94 -78 246 l0 378 l-180 0 l0 -377 q0 -212 122 -357 q122 -145 362 -170 l0 -289 l145 0 l0 291 q82 11 150 39 q67 29 117 68 l16 0 l0 -648 l180 0 l0 1443 l-180 0 Z" /><glyph glyph-name="" unicode="&#x4ba;" d="M194 1443 l0 -1443 l180 0 l0 575 q47 99 150 157 q103 58 235 59 q159 -1 252 -97 q93 -95 95 -269 l0 -425 l180 0 l0 457 q-4 234 -143 366 q-138 132 -365 134 q-127 -1 -224 -40 q-97 -40 -164 -104 l-16 0 l0 630 l-180 0 Z" /><glyph glyph-name="" unicode="&#x526;" d="M1286 162 l0 295 q-4 234 -143 366 q-138 132 -365 134 q-127 -1 -224 -40 q-97 -40 -164 -104 l-16 0 l0 630 l-180 0 l0 -1443 l180 0 l0 575 q47 99 150 157 q103 58 235 59 q159 -1 252 -97 q93 -95 95 -269 l0 -263 l0 -162 l180 0 l13 0 l0 -285 l167 0 l0 447 l-180 0 Z" /><glyph glyph-name="" unicode="&#x40b;" d="M1102 745 q166 -3 243 -100 q77 -96 76 -250 l0 -395 l180 0 l0 407 q0 213 -120 354 q-121 141 -361 146 q-124 -2 -213 -43 q-89 -41 -142 -101 l-16 0 l0 518 l465 0 l0 162 l-1110 0 l0 -162 l465 0 l0 -1281 l180 0 l0 535 q13 43 94 122 q81 79 259 88 l0 0 Z" /><glyph glyph-name="" unicode="&#x428;" d="M194 0 l1584 0 l0 1443 l-180 0 l0 -1281 l-522 0 l0 1281 l-180 0 l0 -1281 l-522 0 l0 1281 l-180 0 l0 -1443 Z" /><glyph glyph-name="" unicode="&#x429;" d="M1958 -285 l0 447 l-180 0 l0 1281 l-180 0 l0 -1281 l-522 0 l0 1281 l-180 0 l0 -1281 l-522 0 l0 1281 l-180 0 l0 -1443 l1597 0 l0 -285 l167 0 Z" /><glyph glyph-name="" unicode="&#x42a;" d="M969 0 q207 3 333 126 q126 123 129 327 q-4 204 -130 328 q-127 124 -334 127 l-353 0 l0 535 l-510 0 l0 -162 l330 0 l0 -1281 l535 0 ZM614 162 l0 584 l308 0 q155 -1 239 -76 q84 -76 85 -217 q-1 -140 -84 -215 q-84 -75 -240 -76 l-308 0 Z" /><glyph glyph-name="" unicode="&#x42b;" d="M194 0 l535 0 q207 3 333 126 q126 123 129 327 q-4 204 -130 328 q-127 124 -334 127 l-353 0 l0 535 l-180 0 l0 -1443 ZM374 162 l0 584 l308 0 q155 -1 239 -76 q84 -76 85 -217 q-1 -140 -84 -215 q-84 -75 -240 -76 l-308 0 ZM1574 0 l0 1443 l-180 0 l0 -1443 l180 0 Z" /><glyph glyph-name="" unicode="&#x4f8;" d="M194 0 l535 0 q207 3 333 126 q126 123 129 327 q-4 204 -130 328 q-127 124 -334 127 l-353 0 l0 535 l-180 0 l0 -1443 ZM374 162 l0 584 l308 0 q155 -1 239 -76 q84 -76 85 -217 q-1 -140 -84 -215 q-84 -75 -240 -76 l-308 0 ZM1574 0 l0 1443 l-180 0 l0 -1443 l180 0 ZM677 1575 q52 1 86 35 q34 34 35 86 q-1 52 -35 86 q-34 34 -86 35 q-52 -1 -86 -35 q-34 -34 -35 -86 q1 -52 35 -86 q34 -34 86 -35 l0 0 ZM1081 1575 q52 1 86 35 q34 34 35 86 q-1 52 -35 86 q-34 34 -86 35 q-52 -1 -86 -35 q-34 -34 -35 -86 q1 -52 35 -86 q34 -34 86 -35 l0 0 Z" /><glyph glyph-name="" unicode="&#x48c;" d="M526 162 l0 584 l308 0 q155 -1 239 -76 q84 -76 85 -217 q-1 -140 -84 -215 q-84 -75 -240 -76 l-308 0 ZM526 908 l0 247 l375 0 l0 152 l-375 0 l0 199 l-180 0 l0 -199 l-320 0 l0 -152 l320 0 l0 -1155 l535 0 q207 3 333 126 q126 123 129 327 q-4 204 -130 328 q-127 124 -334 127 l-353 0 Z" /><glyph glyph-name="" unicode="&#x462;" d="M526 162 l0 584 l308 0 q155 -1 239 -76 q84 -76 85 -217 q-1 -140 -84 -215 q-84 -75 -240 -76 l-308 0 ZM526 908 l0 247 l375 0 l0 152 l-375 0 l0 199 l-180 0 l0 -199 l-320 0 l0 -152 l320 0 l0 -1155 l535 0 q207 3 333 126 q126 123 129 327 q-4 204 -130 328 q-127 124 -334 127 l-353 0 Z" /><glyph glyph-name="" unicode="&#x42c;" d="M194 0 l535 0 q207 3 333 126 q126 123 129 327 q-4 204 -130 328 q-127 124 -334 127 l-353 0 l0 535 l-180 0 l0 -1443 ZM374 162 l0 584 l308 0 q155 -1 239 -76 q84 -76 85 -217 q-1 -140 -84 -215 q-84 -75 -240 -76 l-308 0 Z" /><glyph glyph-name="" unicode="&#x409;" d="M488 540 l46 741 l527 0 l0 -1281 l535 0 q207 3 333 126 q126 123 129 327 q-4 204 -130 328 q-127 124 -334 127 l-353 0 l0 535 l-871 0 l-52 -896 q-7 -173 -51 -280 q-44 -108 -163 -111 q-13 0 -29 2 q-16 2 -25 4 l0 -161 q13 -5 31 -7 q19 -3 39 -3 q188 2 271 144 q83 143 97 405 l0 0 ZM1241 162 l0 584 l308 0 q155 -1 239 -76 q84 -76 85 -217 q-1 -140 -84 -215 q-84 -75 -240 -76 l-308 0 Z" /><glyph glyph-name="" unicode="&#x40a;" d="M374 657 l752 0 l0 -657 l535 0 q207 3 333 117 q126 113 129 301 q-4 180 -130 289 q-127 109 -334 112 l-353 0 l0 624 l-180 0 l0 -624 l-752 0 l0 624 l-180 0 l0 -1443 l180 0 l0 657 ZM1306 162 l0 495 l308 0 q155 -1 239 -62 q84 -62 85 -177 q-1 -123 -84 -189 q-84 -66 -240 -67 l-308 0 Z" /><glyph glyph-name="" unicode="&#x42d;" d="M700 -34 q299 4 468 204 q169 201 172 554 q-3 351 -172 550 q-169 199 -467 203 q-239 -3 -402 -130 q-163 -127 -199 -339 l183 0 q38 141 149 221 q112 81 269 82 q191 -2 309 -131 q118 -129 141 -361 l-641 0 l0 -162 l643 0 q-17 -248 -136 -385 q-119 -138 -317 -140 q-160 1 -270 73 q-111 71 -147 197 l-183 0 q39 -201 200 -317 q160 -117 400 -119 l0 0 Z" /><glyph glyph-name="" unicode="&#x4ec;" d="M700 -34 q299 4 468 204 q169 201 172 554 q-3 351 -172 550 q-169 199 -467 203 q-239 -3 -402 -130 q-163 -127 -199 -339 l183 0 q38 141 149 221 q112 81 269 82 q191 -2 309 -131 q118 -129 141 -361 l-641 0 l0 -162 l643 0 q-17 -248 -136 -385 q-119 -138 -317 -140 q-160 1 -270 73 q-111 71 -147 197 l-183 0 q39 -201 200 -317 q160 -117 400 -119 l0 0 ZM496 1575 q52 1 86 35 q34 34 35 86 q-1 52 -35 86 q-34 34 -86 35 q-52 -1 -86 -35 q-34 -34 -35 -86 q1 -52 35 -86 q34 -34 86 -35 l0 0 ZM900 1575 q52 1 86 35 q34 34 35 86 q-1 52 -35 86 q-34 34 -86 35 q-52 -1 -86 -35 q-34 -34 -35 -86 q1 -52 35 -86 q34 -34 86 -35 l0 0 Z" /><glyph glyph-name="" unicode="&#x42e;" d="M1291 -34 q307 4 477 205 q170 201 173 551 q-3 351 -173 551 q-171 200 -477 204 q-282 -3 -452 -176 q-170 -174 -197 -482 l-268 0 l0 624 l-180 0 l0 -1443 l180 0 l0 657 l266 0 q19 -321 188 -504 q169 -184 463 -187 l0 0 ZM1291 1311 q219 -3 341 -159 q122 -156 124 -430 q-2 -272 -124 -429 q-122 -158 -341 -161 q-222 3 -344 161 q-122 157 -124 429 q2 274 126 430 q124 156 342 159 l0 0 Z" /><glyph glyph-name="" unicode="&#x42f;" d="M1002 717 l-308 0 q-155 1 -239 74 q-84 73 -85 209 q1 136 84 208 q84 72 240 73 l308 0 l0 -564 ZM722 555 l280 0 l0 -555 l180 0 l0 1443 l-535 0 q-207 -3 -333 -124 q-126 -120 -129 -319 q2 -163 93 -274 q91 -112 246 -149 l-414 -577 l214 0 l398 555 Z" /><glyph glyph-name="" unicode="&#x494;" d="M999 1443 l-805 0 l0 -1443 l180 0 l0 535 q44 92 145 150 q100 58 218 60 q142 -2 225 -83 q82 -82 84 -222 q-1 -138 -70 -215 q-70 -77 -194 -78 q-38 0 -73 5 q-35 4 -55 11 l0 -161 q19 -8 55 -13 q36 -5 75 -5 q204 3 322 125 q118 122 120 333 q-3 212 -132 337 q-128 125 -346 128 q-106 -1 -200 -39 q-94 -38 -158 -107 l-16 0 l0 520 l625 0 l0 162 Z" /><glyph glyph-name="" unicode="&#x4a6;" d="M194 1443 l0 -1443 l181 0 l0 1279 l712 0 l0 -1279 l178 0 l0 535 q44 92 145 150 q100 58 218 60 q142 -2 225 -83 q82 -82 84 -222 q-1 -138 -70 -215 q-70 -77 -194 -78 q-38 0 -73 5 q-35 4 -55 11 l0 -161 q19 -8 55 -13 q36 -5 75 -5 q204 3 322 125 q118 122 120 333 q-3 212 -132 337 q-128 125 -346 128 q-106 -1 -200 -39 q-94 -38 -158 -107 l-16 0 l0 682 l-1071 0 Z" /><glyph glyph-name="" unicode="&#x404;" d="M1378 402 l-183 0 q-36 -126 -145 -197 q-108 -72 -265 -73 q-201 2 -322 141 q-121 139 -138 384 l643 0 l0 162 l-640 0 q24 230 143 360 q119 130 313 132 q155 -1 264 -82 q109 -80 147 -221 l183 0 q-36 212 -197 339 q-161 127 -397 130 q-301 -4 -472 -204 q-171 -200 -174 -552 q3 -352 174 -551 q171 -200 473 -204 q237 2 396 119 q158 116 197 317 l0 0 Z" /><glyph glyph-name="" unicode="&#x4c0;" d="M374 0 l0 1443 l-180 0 l0 -1443 l180 0 Z" /><glyph glyph-name="" unicode="&#x406;" d="M374 0 l0 1443 l-180 0 l0 -1443 l180 0 Z" /><glyph glyph-name="" unicode="&#x407;" d="M374 0 l0 1443 l-180 0 l0 -1443 l180 0 ZM82 1575 q52 1 86 35 q34 34 35 86 q-1 52 -35 86 q-34 34 -86 35 q-52 -1 -86 -35 q-34 -34 -35 -86 q1 -52 35 -86 q34 -34 86 -35 l0 0 ZM486 1575 q52 1 86 35 q34 34 35 86 q-1 52 -35 86 q-34 34 -86 35 q-52 -1 -86 -35 q-34 -34 -35 -86 q1 -52 35 -86 q34 -34 86 -35 l0 0 Z" /><glyph glyph-name="" unicode="&#x4a8;" d="M1029 774 q0 155 72 256 q72 101 218 105 q134 -3 212 -100 q78 -97 80 -246 q-2 -179 -83 -327 q-82 -148 -222 -238 q-135 97 -206 244 q-70 147 -71 306 l0 0 ZM1881 187 q-53 -32 -117 -50 q-64 -17 -124 -17 q-43 0 -86 6 q-42 6 -83 18 q141 100 231 268 q90 167 93 377 q-3 234 -130 372 q-128 137 -346 140 q-217 -5 -344 -154 q-127 -149 -130 -377 q1 -187 78 -347 q77 -161 218 -268 q-42 -11 -88 -17 q-47 -6 -101 -6 q-267 3 -442 170 q-176 167 -182 458 q1 207 117 358 q115 151 329 198 l0 171 q-285 -38 -458 -241 q-173 -204 -178 -484 q6 -356 226 -573 q220 -217 589 -223 q96 0 184 22 q87 21 169 61 q151 -84 331 -84 q83 0 159 21 q77 20 147 63 l-62 138 Z" /><glyph glyph-name="" unicode="&#x4ae;" d="M762 0 l0 621 l512 822 l-205 0 l-389 -641 l-16 0 l-389 641 l-205 0 l512 -822 l0 -621 l180 0 Z" /><glyph glyph-name="" unicode="&#x4b0;" d="M1274 1443 l-205 0 l-389 -641 l-16 0 l-389 641 l-205 0 l460 -738 l-335 0 l0 -140 l387 0 l0 -565 l180 0 l0 565 l387 0 l0 140 l-335 0 l460 738 Z" /><glyph glyph-name="" unicode="&#x4bc;" d="M595 864 q28 208 140 327 q112 118 282 120 q185 -2 296 -118 q110 -117 125 -329 l-843 0 ZM589 705 l1047 0 l0 79 q-3 323 -166 506 q-162 184 -449 187 q-252 -3 -414 -166 q-162 -162 -202 -446 q-90 2 -133 42 q-44 39 -44 116 q2 58 15 102 q14 45 14 47 l-163 0 q-2 -1 -17 -45 q-15 -45 -17 -118 q1 -131 87 -215 q87 -84 249 -90 q6 -345 177 -540 q170 -195 473 -198 q220 2 370 108 q151 105 198 290 l-185 0 q-42 -114 -138 -173 q-97 -59 -241 -59 q-211 3 -335 145 q-125 141 -126 381 l0 47 Z" /><glyph glyph-name="" unicode="&#x4be;" d="M1237 1575 q52 1 86 35 q34 34 35 86 q-1 52 -35 86 q-34 34 -86 35 q-52 -1 -86 -35 q-34 -34 -35 -86 q1 -52 35 -86 q34 -34 86 -35 l0 0 ZM833 1575 q52 1 86 35 q34 34 35 86 q-1 52 -35 86 q-34 34 -86 35 q-52 -1 -86 -35 q-34 -34 -35 -86 q1 -52 35 -86 q34 -34 86 -35 l0 0 ZM595 864 q28 208 140 327 q112 118 282 120 q185 -2 296 -118 q110 -117 125 -329 l-843 0 ZM589 705 l1047 0 l0 79 q-3 323 -166 506 q-162 184 -449 187 q-252 -3 -414 -166 q-162 -162 -202 -446 q-90 2 -133 42 q-44 39 -44 116 q2 58 15 102 q14 45 14 47 l-163 0 q-2 -1 -17 -45 q-15 -45 -17 -118 q1 -131 87 -215 q87 -84 249 -90 q5 -321 155 -513 q149 -192 416 -221 l0 -255 l167 0 l0 256 q186 22 312 125 q126 102 168 268 l-185 0 q-42 -114 -138 -173 q-97 -59 -241 -59 q-211 3 -335 145 q-125 141 -126 381 l0 47 Z" /><glyph glyph-name="" unicode="&#x4d4;" d="M849 1292 l147 0 l0 -680 l-457 0 l310 680 ZM996 0 l838 0 l0 162 l-658 0 l0 486 l621 0 l0 160 l-621 0 l0 473 l658 0 l0 162 l-1104 0 l-651 -1443 l181 0 l209 459 l527 0 l0 -459 Z" /><glyph glyph-name="" unicode="&#x4d8;" d="M738 -34 q287 5 457 208 q169 202 173 546 q-3 352 -176 553 q-172 200 -474 204 q-210 -1 -360 -105 q-151 -104 -218 -293 l185 0 q53 118 149 175 q96 57 240 57 q208 -4 334 -147 q125 -143 127 -379 l0 -27 l-1057 0 l0 -79 q7 -333 170 -521 q164 -189 450 -192 l0 0 ZM742 132 q-185 2 -296 124 q-111 122 -130 343 l855 0 q-25 -216 -139 -340 q-114 -125 -290 -127 l0 0 Z" /><glyph glyph-name="" unicode="&#x4da;" d="M738 -34 q287 5 457 208 q169 202 173 546 q-3 352 -176 553 q-172 200 -474 204 q-210 -1 -360 -105 q-151 -104 -218 -293 l185 0 q53 118 149 175 q96 57 240 57 q208 -4 334 -147 q125 -143 127 -379 l0 -27 l-1057 0 l0 -79 q7 -333 170 -521 q164 -189 450 -192 l0 0 ZM742 132 q-185 2 -296 124 q-111 122 -130 343 l855 0 q-25 -216 -139 -340 q-114 -125 -290 -127 l0 0 ZM538 1575 q52 1 86 35 q34 34 35 86 q-1 52 -35 86 q-34 34 -86 35 q-52 -1 -86 -35 q-34 -34 -35 -86 q1 -52 35 -86 q34 -34 86 -35 l0 0 ZM942 1575 q52 1 86 35 q34 34 35 86 q-1 52 -35 86 q-34 34 -86 35 q-52 -1 -86 -35 q-34 -34 -35 -86 q1 -52 35 -86 q34 -34 86 -35 l0 0 Z" /><glyph glyph-name="" unicode="&#x4e0;" d="M608 -34 q226 3 365 125 q139 122 143 322 q-2 211 -129 324 q-126 114 -347 123 l0 16 l444 439 l0 128 l-932 0 l0 -162 l669 0 l0 -16 l-405 -396 l0 -154 l117 0 q194 1 296 -74 q101 -74 102 -231 q-2 -134 -88 -210 q-87 -76 -237 -77 q-141 1 -230 69 q-88 67 -102 184 l-174 0 q13 -188 149 -298 q136 -110 359 -112 l0 0 Z" /><glyph glyph-name="" unicode="&#x510;" d="M830 657 l0 160 l-195 0 q-134 2 -216 72 q-82 71 -84 186 q1 110 75 175 q75 65 212 67 q135 -1 216 -65 q81 -63 94 -179 l175 0 q-16 189 -145 296 q-130 106 -347 108 q-207 -3 -333 -109 q-126 -105 -130 -277 q2 -120 74 -210 q72 -90 194 -121 l0 -16 q-141 -15 -229 -107 q-88 -92 -91 -248 q5 -183 150 -301 q145 -118 368 -122 q232 3 374 113 q141 110 154 297 l-174 0 q-14 -115 -107 -182 q-93 -67 -245 -68 q-154 2 -244 76 q-89 73 -91 192 q1 123 89 192 q89 70 253 71 l203 0 Z" /><glyph glyph-name="" unicode="&#x474;" d="M779 0 l412 1118 q21 56 39 92 q19 36 35 52 q30 30 75 30 q22 0 47 -5 q25 -5 48 -13 l51 145 q-33 19 -78 30 q-44 12 -84 12 q-46 0 -83 -11 q-37 -11 -67 -33 q-44 -32 -78 -89 q-34 -57 -67 -152 l-331 -943 l-16 0 l-424 1210 l-189 0 l532 -1443 l178 0 Z" /><glyph glyph-name="" unicode="&#x51c;" d="M995 1139 l12 0 l332 -1139 l170 0 l393 1443 l-188 0 l-287 -1173 l-12 0 l-323 1173 l-182 0 l-323 -1173 l-12 0 l-287 1173 l-188 0 l393 -1443 l170 0 l332 1139 Z" /><glyph glyph-name="" unicode="&#x402;" d="M1159 -16 q204 3 322 125 q118 122 120 333 q-3 212 -132 337 q-128 125 -346 128 q-106 -1 -200 -39 q-94 -38 -158 -107 l-16 0 l0 520 l465 0 l0 162 l-1110 0 l0 -162 l465 0 l0 -1281 l180 0 l0 535 q44 92 145 150 q100 58 218 60 q142 -2 225 -83 q82 -82 84 -222 q-1 -138 -70 -215 q-70 -77 -194 -78 q-38 0 -73 5 q-35 4 -55 11 l0 -161 q19 -8 55 -13 q36 -5 75 -5 l0 0 Z" /><glyph glyph-name="" unicode="&#x405;" d="M125 377 q17 -189 160 -299 q143 -110 376 -112 q250 2 393 118 q143 115 146 316 q2 157 -97 253 q-100 95 -322 150 l-151 40 q-148 37 -214 91 q-65 54 -64 138 q2 111 88 176 q85 65 231 66 q136 -1 222 -62 q85 -62 105 -174 l181 0 q-15 178 -152 287 q-137 109 -350 112 q-232 -3 -369 -114 q-138 -111 -141 -297 q-1 -153 89 -247 q90 -94 285 -142 l185 -48 q149 -37 219 -98 q71 -61 70 -153 q-3 -109 -96 -178 q-93 -68 -241 -70 q-156 1 -254 67 q-99 65 -117 180 l-182 0 Z" /><glyph glyph-name="" unicode="&#x408;" d="M96 337 q3 -168 115 -268 q112 -101 297 -103 q198 1 308 115 q110 113 112 321 l0 1041 l-180 0 l0 -1040 q-1 -133 -63 -202 q-62 -69 -178 -69 q-103 1 -165 57 q-63 56 -67 148 l-179 0 Z" /><glyph glyph-name="" unicode="a" d="M494 132 q-96 1 -156 46 q-60 45 -62 128 q-1 81 57 124 q57 44 179 52 l290 19 l0 -99 q-3 -118 -88 -193 q-85 -75 -220 -77 l0 0 ZM462 -19 q109 0 194 46 q85 45 138 132 l16 0 l0 -159 l164 0 l0 738 q-1 169 -106 264 q-106 94 -304 95 q-175 -2 -289 -79 q-114 -77 -134 -208 l174 0 q19 64 82 99 q63 35 161 35 q121 0 182 -53 q62 -53 62 -153 l0 -98 l-311 -19 q-189 -12 -291 -93 q-101 -81 -102 -226 q3 -149 104 -234 q100 -85 260 -87 l0 0 Z" /><glyph glyph-name="" unicode="à" d="M494 132 q-96 1 -156 46 q-60 45 -62 128 q-1 81 57 124 q57 44 179 52 l290 19 l0 -99 q-3 -118 -88 -193 q-85 -75 -220 -77 l0 0 ZM462 -19 q109 0 194 46 q85 45 138 132 l16 0 l0 -159 l164 0 l0 738 q-1 169 -106 264 q-106 94 -304 95 q-175 -2 -289 -79 q-114 -77 -134 -208 l174 0 q19 64 82 99 q63 35 161 35 q121 0 182 -53 q62 -53 62 -153 l0 -98 l-311 -19 q-189 -12 -291 -93 q-101 -81 -102 -226 q3 -149 104 -234 q100 -85 260 -87 l0 0 ZM686 1263 l-252 338 l-220 0 l278 -338 l194 0 Z" /><glyph glyph-name="" unicode="á" d="M494 132 q-96 1 -156 46 q-60 45 -62 128 q-1 81 57 124 q57 44 179 52 l290 19 l0 -99 q-3 -118 -88 -193 q-85 -75 -220 -77 l0 0 ZM462 -19 q109 0 194 46 q85 45 138 132 l16 0 l0 -159 l164 0 l0 738 q-1 169 -106 264 q-106 94 -304 95 q-175 -2 -289 -79 q-114 -77 -134 -208 l174 0 q19 64 82 99 q63 35 161 35 q121 0 182 -53 q62 -53 62 -153 l0 -98 l-311 -19 q-189 -12 -291 -93 q-101 -81 -102 -226 q3 -149 104 -234 q100 -85 260 -87 l0 0 ZM644 1263 l278 338 l-220 0 l-252 -338 l194 0 Z" /><glyph glyph-name="" unicode="ä" d="M494 132 q-96 1 -156 46 q-60 45 -62 128 q-1 81 57 124 q57 44 179 52 l290 19 l0 -99 q-3 -118 -88 -193 q-85 -75 -220 -77 l0 0 ZM462 -19 q109 0 194 46 q85 45 138 132 l16 0 l0 -159 l164 0 l0 738 q-1 169 -106 264 q-106 94 -304 95 q-175 -2 -289 -79 q-114 -77 -134 -208 l174 0 q19 64 82 99 q63 35 161 35 q121 0 182 -53 q62 -53 62 -153 l0 -98 l-311 -19 q-189 -12 -291 -93 q-101 -81 -102 -226 q3 -149 104 -234 q100 -85 260 -87 l0 0 ZM362 1228 q52 1 86 35 q34 34 35 86 q-1 52 -35 86 q-34 34 -86 35 q-52 -1 -86 -35 q-34 -34 -35 -86 q1 -52 35 -86 q34 -34 86 -35 l0 0 ZM766 1228 q52 1 86 35 q34 34 35 86 q-1 52 -35 86 q-34 34 -86 35 q-52 -1 -86 -35 q-34 -34 -35 -86 q1 -52 35 -86 q34 -34 86 -35 l0 0 Z" /><glyph glyph-name="" unicode="&#x1df;" d="M494 132 q-96 1 -156 46 q-60 45 -62 128 q-1 81 57 124 q57 44 179 52 l290 19 l0 -99 q-3 -118 -88 -193 q-85 -75 -220 -77 l0 0 ZM462 -19 q109 0 194 46 q85 45 138 132 l16 0 l0 -159 l164 0 l0 738 q-1 169 -106 264 q-106 94 -304 95 q-175 -2 -289 -79 q-114 -77 -134 -208 l174 0 q19 64 82 99 q63 35 161 35 q121 0 182 -53 q62 -53 62 -153 l0 -98 l-311 -19 q-189 -12 -291 -93 q-101 -81 -102 -226 q3 -149 104 -234 q100 -85 260 -87 l0 0 ZM362 1228 q50 1 83 34 q33 33 34 83 q-1 50 -34 83 q-33 33 -83 34 q-50 -1 -83 -34 q-33 -33 -34 -83 q1 -50 34 -83 q33 -33 83 -34 l0 0 ZM766 1228 q50 1 83 34 q33 33 34 83 q-1 50 -34 83 q-33 33 -83 34 q-50 -1 -83 -34 q-33 -33 -34 -83 q1 -50 34 -83 q33 -33 83 -34 l0 0 ZM901 1756 l-674 0 l0 -136 l674 0 l0 136 Z" /><glyph glyph-name="" unicode="å" d="M494 132 q-96 1 -156 46 q-60 45 -62 128 q-1 81 57 124 q57 44 179 52 l290 19 l0 -99 q-3 -118 -88 -193 q-85 -75 -220 -77 l0 0 ZM462 -19 q109 0 194 46 q85 45 138 132 l16 0 l0 -159 l164 0 l0 738 q-1 169 -106 264 q-106 94 -304 95 q-175 -2 -289 -79 q-114 -77 -134 -208 l174 0 q19 64 82 99 q63 35 161 35 q121 0 182 -53 q62 -53 62 -153 l0 -98 l-311 -19 q-189 -12 -291 -93 q-101 -81 -102 -226 q3 -149 104 -234 q100 -85 260 -87 l0 0 ZM564 1228 q99 2 164 66 q66 64 68 163 q-2 99 -68 163 q-65 64 -164 66 q-98 -2 -164 -66 q-65 -64 -68 -163 q3 -99 68 -163 q66 -64 164 -66 l0 0 ZM564 1334 q-54 1 -87 35 q-34 34 -35 88 q1 54 35 88 q33 34 87 35 q54 -1 87 -35 q34 -34 35 -88 q-1 -54 -35 -88 q-33 -34 -87 -35 l0 0 Z" /><glyph glyph-name="" unicode="&#x1fb;" d="M494 132 q-96 1 -156 46 q-60 45 -62 128 q-1 81 57 124 q57 44 179 52 l290 19 l0 -99 q-3 -118 -88 -193 q-85 -75 -220 -77 l0 0 ZM462 -19 q109 0 194 46 q85 45 138 132 l16 0 l0 -159 l164 0 l0 738 q-1 169 -106 264 q-106 94 -304 95 q-175 -2 -289 -79 q-114 -77 -134 -208 l174 0 q19 64 82 99 q63 35 161 35 q121 0 182 -53 q62 -53 62 -153 l0 -98 l-311 -19 q-189 -12 -291 -93 q-101 -81 -102 -226 q3 -149 104 -234 q100 -85 260 -87 l0 0 ZM564 1200 q86 2 143 58 q57 55 59 140 q-2 85 -59 140 q-57 56 -143 58 q-86 -2 -143 -58 q-57 -55 -59 -140 q2 -85 59 -140 q57 -56 143 -58 l0 0 ZM464 1397 q1 44 29 73 q28 28 71 29 q43 -1 71 -29 q28 -29 29 -73 q-1 -44 -29 -73 q-28 -28 -71 -29 q-43 1 -71 29 q-28 29 -29 73 l0 0 ZM479 1683 l171 0 l194 226 l-199 0 l-166 -226 Z" /><glyph glyph-name="" unicode="ã" d="M494 132 q-96 1 -156 46 q-60 45 -62 128 q-1 81 57 124 q57 44 179 52 l290 19 l0 -99 q-3 -118 -88 -193 q-85 -75 -220 -77 l0 0 ZM462 -19 q109 0 194 46 q85 45 138 132 l16 0 l0 -159 l164 0 l0 738 q-1 169 -106 264 q-106 94 -304 95 q-175 -2 -289 -79 q-114 -77 -134 -208 l174 0 q19 64 82 99 q63 35 161 35 q121 0 182 -53 q62 -53 62 -153 l0 -98 l-311 -19 q-189 -12 -291 -93 q-101 -81 -102 -226 q3 -149 104 -234 q100 -85 260 -87 l0 0 ZM710 1231 q110 1 170 77 q61 76 62 214 l-142 0 q0 -84 -23 -121 q-23 -37 -75 -36 q-55 10 -112 79 q-57 68 -172 78 q-110 -1 -170 -77 q-61 -76 -62 -214 l142 0 q0 84 23 121 q23 37 75 36 q55 -10 112 -78 q57 -69 172 -79 l0 0 Z" /><glyph glyph-name="" unicode="&#x1eb1;" d="M494 132 q-96 1 -156 46 q-60 45 -62 128 q-1 81 57 124 q57 44 179 52 l290 19 l0 -99 q-3 -118 -88 -193 q-85 -75 -220 -77 l0 0 ZM462 -19 q109 0 194 46 q85 45 138 132 l16 0 l0 -159 l164 0 l0 738 q-1 169 -106 264 q-106 94 -304 95 q-175 -2 -289 -79 q-114 -77 -134 -208 l174 0 q19 64 82 99 q63 35 161 35 q121 0 182 -53 q62 -53 62 -153 l0 -98 l-311 -19 q-189 -12 -291 -93 q-101 -81 -102 -226 q3 -149 104 -234 q100 -85 260 -87 l0 0 ZM674 1575 l-190 298 l-198 0 l218 -298 l170 0 ZM928 1556 l-154 0 q0 -88 -54 -143 q-54 -55 -156 -57 q-102 2 -156 57 q-54 55 -54 143 l-154 0 q1 -145 97 -235 q95 -90 267 -93 q172 3 268 93 q95 90 96 235 l0 0 Z" /><glyph glyph-name="" unicode="&#x1e1;" d="M494 132 q-96 1 -156 46 q-60 45 -62 128 q-1 81 57 124 q57 44 179 52 l290 19 l0 -99 q-3 -118 -88 -193 q-85 -75 -220 -77 l0 0 ZM462 -19 q109 0 194 46 q85 45 138 132 l16 0 l0 -159 l164 0 l0 738 q-1 169 -106 264 q-106 94 -304 95 q-175 -2 -289 -79 q-114 -77 -134 -208 l174 0 q19 64 82 99 q63 35 161 35 q121 0 182 -53 q62 -53 62 -153 l0 -98 l-311 -19 q-189 -12 -291 -93 q-101 -81 -102 -226 q3 -149 104 -234 q100 -85 260 -87 l0 0 ZM564 1228 q51 1 85 34 q33 34 34 85 q-1 51 -34 85 q-34 33 -85 34 q-51 -1 -85 -34 q-33 -34 -34 -85 q1 -51 34 -85 q34 -33 85 -34 l0 0 ZM901 1756 l-674 0 l0 -136 l674 0 l0 136 Z" /><glyph glyph-name="" unicode="&#x1e01;" d="M494 132 q-96 1 -156 46 q-60 45 -62 128 q-1 81 57 124 q57 44 179 52 l290 19 l0 -99 q-3 -118 -88 -193 q-85 -75 -220 -77 l0 0 ZM462 -19 q109 0 194 46 q85 45 138 132 l16 0 l0 -159 l164 0 l0 738 q-1 169 -106 264 q-106 94 -304 95 q-175 -2 -289 -79 q-114 -77 -134 -208 l174 0 q19 64 82 99 q63 35 161 35 q121 0 182 -53 q62 -53 62 -153 l0 -98 l-311 -19 q-189 -12 -291 -93 q-101 -81 -102 -226 q3 -149 104 -234 q100 -85 260 -87 l0 0 ZM536 -573 q99 2 164 66 q66 64 68 163 q-2 99 -68 163 q-65 64 -164 66 q-98 -2 -164 -66 q-65 -64 -68 -163 q3 -99 68 -163 q66 -64 164 -66 l0 0 ZM536 -467 q-54 1 -87 35 q-34 34 -35 88 q1 54 35 88 q33 34 87 35 q54 -1 87 -35 q34 -34 35 -88 q-1 -54 -35 -88 q-33 -34 -87 -35 l0 0 Z" /><glyph glyph-name="" unicode="â" d="M494 132 q-96 1 -156 46 q-60 45 -62 128 q-1 81 57 124 q57 44 179 52 l290 19 l0 -99 q-3 -118 -88 -193 q-85 -75 -220 -77 l0 0 ZM462 -19 q109 0 194 46 q85 45 138 132 l16 0 l0 -159 l164 0 l0 738 q-1 169 -106 264 q-106 94 -304 95 q-175 -2 -289 -79 q-114 -77 -134 -208 l174 0 q19 64 82 99 q63 35 161 35 q121 0 182 -53 q62 -53 62 -153 l0 -98 l-311 -19 q-189 -12 -291 -93 q-101 -81 -102 -226 q3 -149 104 -234 q100 -85 260 -87 l0 0 ZM665 1568 l-202 0 l-282 -340 l198 0 l177 227 l16 0 l177 -227 l198 0 l-282 340 Z" /><glyph glyph-name="" unicode="&#x1ead;" d="M494 132 q-96 1 -156 46 q-60 45 -62 128 q-1 81 57 124 q57 44 179 52 l290 19 l0 -99 q-3 -118 -88 -193 q-85 -75 -220 -77 l0 0 ZM462 -19 q109 0 194 46 q85 45 138 132 l16 0 l0 -159 l164 0 l0 738 q-1 169 -106 264 q-106 94 -304 95 q-175 -2 -289 -79 q-114 -77 -134 -208 l174 0 q19 64 82 99 q63 35 161 35 q121 0 182 -53 q62 -53 62 -153 l0 -98 l-311 -19 q-189 -12 -291 -93 q-101 -81 -102 -226 q3 -149 104 -234 q100 -85 260 -87 l0 0 ZM665 1568 l-202 0 l-282 -340 l198 0 l177 227 l16 0 l177 -227 l198 0 l-282 340 ZM536 -402 q52 1 86 35 q34 34 35 86 q-1 52 -35 86 q-34 34 -86 35 q-52 -1 -86 -35 q-34 -34 -35 -86 q1 -52 35 -86 q34 -34 86 -35 l0 0 Z" /><glyph glyph-name="" unicode="&#x1ea5;" d="M494 132 q-96 1 -156 46 q-60 45 -62 128 q-1 81 57 124 q57 44 179 52 l290 19 l0 -99 q-3 -118 -88 -193 q-85 -75 -220 -77 l0 0 ZM462 -19 q109 0 194 46 q85 45 138 132 l16 0 l0 -159 l164 0 l0 738 q-1 169 -106 264 q-106 94 -304 95 q-175 -2 -289 -79 q-114 -77 -134 -208 l174 0 q19 64 82 99 q63 35 161 35 q121 0 182 -53 q62 -53 62 -153 l0 -98 l-311 -19 q-189 -12 -291 -93 q-101 -81 -102 -226 q3 -149 104 -234 q100 -85 260 -87 l0 0 ZM665 1548 l-202 0 l-282 -320 l200 0 l175 207 l16 0 l175 -207 l200 0 l-282 320 ZM758 1575 l170 0 l218 298 l-198 0 l-190 -298 Z" /><glyph glyph-name="" unicode="&#x1eab;" d="M494 132 q-96 1 -156 46 q-60 45 -62 128 q-1 81 57 124 q57 44 179 52 l290 19 l0 -99 q-3 -118 -88 -193 q-85 -75 -220 -77 l0 0 ZM462 -19 q109 0 194 46 q85 45 138 132 l16 0 l0 -159 l164 0 l0 738 q-1 169 -106 264 q-106 94 -304 95 q-175 -2 -289 -79 q-114 -77 -134 -208 l174 0 q19 64 82 99 q63 35 161 35 q121 0 182 -53 q62 -53 62 -153 l0 -98 l-311 -19 q-189 -12 -291 -93 q-101 -81 -102 -226 q3 -149 104 -234 q100 -85 260 -87 l0 0 ZM665 1548 l-202 0 l-282 -320 l200 0 l175 207 l16 0 l175 -207 l200 0 l-282 320 ZM710 1635 q112 1 172 78 q59 77 60 213 l-142 0 q0 -84 -23 -121 q-23 -37 -75 -36 q-55 10 -112 79 q-57 68 -172 78 q-112 -1 -171 -78 q-60 -77 -61 -213 l142 0 q0 84 23 121 q23 37 75 36 q55 -10 112 -78 q57 -69 172 -79 l0 0 Z" /><glyph glyph-name="" unicode="&#x1ea7;" d="M494 132 q-96 1 -156 46 q-60 45 -62 128 q-1 81 57 124 q57 44 179 52 l290 19 l0 -99 q-3 -118 -88 -193 q-85 -75 -220 -77 l0 0 ZM462 -19 q109 0 194 46 q85 45 138 132 l16 0 l0 -159 l164 0 l0 738 q-1 169 -106 264 q-106 94 -304 95 q-175 -2 -289 -79 q-114 -77 -134 -208 l174 0 q19 64 82 99 q63 35 161 35 q121 0 182 -53 q62 -53 62 -153 l0 -98 l-311 -19 q-189 -12 -291 -93 q-101 -81 -102 -226 q3 -149 104 -234 q100 -85 260 -87 l0 0 ZM665 1548 l-202 0 l-282 -320 l200 0 l175 207 l16 0 l175 -207 l200 0 l-282 320 ZM986 1575 l-190 298 l-198 0 l218 -298 l170 0 Z" /><glyph glyph-name="" unicode="&#x1ea9;" d="M494 132 q-96 1 -156 46 q-60 45 -62 128 q-1 81 57 124 q57 44 179 52 l290 19 l0 -99 q-3 -118 -88 -193 q-85 -75 -220 -77 l0 0 ZM462 -19 q109 0 194 46 q85 45 138 132 l16 0 l0 -159 l164 0 l0 738 q-1 169 -106 264 q-106 94 -304 95 q-175 -2 -289 -79 q-114 -77 -134 -208 l174 0 q19 64 82 99 q63 35 161 35 q121 0 182 -53 q62 -53 62 -153 l0 -98 l-311 -19 q-189 -12 -291 -93 q-101 -81 -102 -226 q3 -149 104 -234 q100 -85 260 -87 l0 0 ZM718 1729 q21 11 50 17 q29 6 63 6 q44 -1 71 -21 q28 -21 29 -54 q-1 -33 -31 -62 q-31 -30 -81 -45 l75 -99 q83 29 134 88 q51 59 52 130 q-1 86 -61 135 q-60 48 -167 49 q-37 0 -73 -6 q-36 -5 -61 -15 l0 -123 ZM665 1548 l-202 0 l-282 -320 l200 0 l175 207 l16 0 l175 -207 l200 0 l-282 320 Z" /><glyph glyph-name="" unicode="&#x103;" d="M494 132 q-96 1 -156 46 q-60 45 -62 128 q-1 81 57 124 q57 44 179 52 l290 19 l0 -99 q-3 -118 -88 -193 q-85 -75 -220 -77 l0 0 ZM462 -19 q109 0 194 46 q85 45 138 132 l16 0 l0 -159 l164 0 l0 738 q-1 169 -106 264 q-106 94 -304 95 q-175 -2 -289 -79 q-114 -77 -134 -208 l174 0 q19 64 82 99 q63 35 161 35 q121 0 182 -53 q62 -53 62 -153 l0 -98 l-311 -19 q-189 -12 -291 -93 q-101 -81 -102 -226 q3 -149 104 -234 q100 -85 260 -87 l0 0 ZM198 1556 q1 -145 97 -235 q95 -90 267 -93 q172 3 268 93 q95 90 96 235 l-154 0 q0 -88 -54 -143 q-54 -55 -156 -57 q-102 2 -156 57 q-54 55 -54 143 l-154 0 Z" /><glyph glyph-name="" unicode="&#x1eaf;" d="M494 132 q-96 1 -156 46 q-60 45 -62 128 q-1 81 57 124 q57 44 179 52 l290 19 l0 -99 q-3 -118 -88 -193 q-85 -75 -220 -77 l0 0 ZM462 -19 q109 0 194 46 q85 45 138 132 l16 0 l0 -159 l164 0 l0 738 q-1 169 -106 264 q-106 94 -304 95 q-175 -2 -289 -79 q-114 -77 -134 -208 l174 0 q19 64 82 99 q63 35 161 35 q121 0 182 -53 q62 -53 62 -153 l0 -98 l-311 -19 q-189 -12 -291 -93 q-101 -81 -102 -226 q3 -149 104 -234 q100 -85 260 -87 l0 0 ZM454 1575 l170 0 l218 298 l-198 0 l-190 -298 ZM928 1556 l-154 0 q0 -88 -54 -143 q-54 -55 -156 -57 q-102 2 -156 57 q-54 55 -54 143 l-154 0 q1 -145 97 -235 q95 -90 267 -93 q172 3 268 93 q95 90 96 235 l0 0 Z" /><glyph glyph-name="" unicode="&#x1eb5;" d="M494 132 q-96 1 -156 46 q-60 45 -62 128 q-1 81 57 124 q57 44 179 52 l290 19 l0 -99 q-3 -118 -88 -193 q-85 -75 -220 -77 l0 0 ZM462 -19 q109 0 194 46 q85 45 138 132 l16 0 l0 -159 l164 0 l0 738 q-1 169 -106 264 q-106 94 -304 95 q-175 -2 -289 -79 q-114 -77 -134 -208 l174 0 q19 64 82 99 q63 35 161 35 q121 0 182 -53 q62 -53 62 -153 l0 -98 l-311 -19 q-189 -12 -291 -93 q-101 -81 -102 -226 q3 -149 104 -234 q100 -85 260 -87 l0 0 ZM928 1556 l-154 0 q0 -88 -54 -143 q-54 -55 -156 -57 q-102 2 -156 57 q-54 55 -54 143 l-154 0 q1 -145 97 -235 q95 -90 267 -93 q172 3 268 93 q95 90 96 235 l0 0 ZM710 1635 q112 1 172 78 q59 77 60 213 l-142 0 q0 -84 -23 -121 q-23 -37 -75 -36 q-55 10 -112 79 q-57 68 -172 78 q-112 -2 -171 -75 q-60 -72 -61 -186 l142 0 q0 62 23 95 q23 32 75 32 q55 -10 112 -78 q57 -69 172 -79 l0 0 Z" /><glyph glyph-name="" unicode="&#x1eb3;" d="M494 132 q-96 1 -156 46 q-60 45 -62 128 q-1 81 57 124 q57 44 179 52 l290 19 l0 -99 q-3 -118 -88 -193 q-85 -75 -220 -77 l0 0 ZM462 -19 q109 0 194 46 q85 45 138 132 l16 0 l0 -159 l164 0 l0 738 q-1 169 -106 264 q-106 94 -304 95 q-175 -2 -289 -79 q-114 -77 -134 -208 l174 0 q19 64 82 99 q63 35 161 35 q121 0 182 -53 q62 -53 62 -153 l0 -98 l-311 -19 q-189 -12 -291 -93 q-101 -81 -102 -226 q3 -149 104 -234 q100 -85 260 -87 l0 0 ZM928 1546 l-154 0 q0 -81 -54 -134 q-54 -54 -156 -56 q-102 2 -156 56 q-54 53 -54 134 l-154 0 q1 -137 97 -226 q95 -89 267 -92 q172 3 268 92 q95 89 96 226 l0 0 ZM368 1759 q21 11 50 17 q29 6 63 6 q44 -1 71 -21 q28 -21 29 -54 q-1 -33 -31 -62 q-31 -30 -81 -45 l75 -99 q83 29 134 88 q51 59 52 130 q-1 86 -61 135 q-60 48 -167 49 q-37 0 -73 -6 q-36 -5 -61 -15 l0 -123 Z" /><glyph glyph-name="" unicode="&#x1eb7;" d="M494 132 q-96 1 -156 46 q-60 45 -62 128 q-1 81 57 124 q57 44 179 52 l290 19 l0 -99 q-3 -118 -88 -193 q-85 -75 -220 -77 l0 0 ZM462 -19 q109 0 194 46 q85 45 138 132 l16 0 l0 -159 l164 0 l0 738 q-1 169 -106 264 q-106 94 -304 95 q-175 -2 -289 -79 q-114 -77 -134 -208 l174 0 q19 64 82 99 q63 35 161 35 q121 0 182 -53 q62 -53 62 -153 l0 -98 l-311 -19 q-189 -12 -291 -93 q-101 -81 -102 -226 q3 -149 104 -234 q100 -85 260 -87 l0 0 ZM198 1556 q1 -145 97 -235 q95 -90 267 -93 q172 3 268 93 q95 90 96 235 l-154 0 q0 -88 -54 -143 q-54 -55 -156 -57 q-102 2 -156 57 q-54 55 -54 143 l-154 0 ZM536 -402 q52 1 86 35 q34 34 35 86 q-1 52 -35 86 q-34 34 -86 35 q-52 -1 -86 -35 q-34 -34 -35 -86 q1 -52 35 -86 q34 -34 86 -35 l0 0 Z" /><glyph glyph-name="" unicode="&#x203;" d="M494 132 q-96 1 -156 46 q-60 45 -62 128 q-1 81 57 124 q57 44 179 52 l290 19 l0 -99 q-3 -118 -88 -193 q-85 -75 -220 -77 l0 0 ZM462 -19 q109 0 194 46 q85 45 138 132 l16 0 l0 -159 l164 0 l0 738 q-1 169 -106 264 q-106 94 -304 95 q-175 -2 -289 -79 q-114 -77 -134 -208 l174 0 q19 64 82 99 q63 35 161 35 q121 0 182 -53 q62 -53 62 -153 l0 -98 l-311 -19 q-189 -12 -291 -93 q-101 -81 -102 -226 q3 -149 104 -234 q100 -85 260 -87 l0 0 ZM200 1228 l154 0 q0 88 54 143 q54 55 156 57 q102 -2 156 -57 q54 -55 54 -143 l154 0 q-1 145 -96 235 q-96 90 -268 93 q-172 -3 -267 -93 q-96 -90 -97 -235 l0 0 Z" /><glyph glyph-name="" unicode="&#x1ce;" d="M494 132 q-96 1 -156 46 q-60 45 -62 128 q-1 81 57 124 q57 44 179 52 l290 19 l0 -99 q-3 -118 -88 -193 q-85 -75 -220 -77 l0 0 ZM462 -19 q109 0 194 46 q85 45 138 132 l16 0 l0 -159 l164 0 l0 738 q-1 169 -106 264 q-106 94 -304 95 q-175 -2 -289 -79 q-114 -77 -134 -208 l174 0 q19 64 82 99 q63 35 161 35 q121 0 182 -53 q62 -53 62 -153 l0 -98 l-311 -19 q-189 -12 -291 -93 q-101 -81 -102 -226 q3 -149 104 -234 q100 -85 260 -87 l0 0 ZM665 1228 l282 340 l-198 0 l-177 -227 l-16 0 l-177 227 l-198 0 l282 -340 l202 0 Z" /><glyph glyph-name="" unicode="&#x227;" d="M494 132 q-96 1 -156 46 q-60 45 -62 128 q-1 81 57 124 q57 44 179 52 l290 19 l0 -99 q-3 -118 -88 -193 q-85 -75 -220 -77 l0 0 ZM462 -19 q109 0 194 46 q85 45 138 132 l16 0 l0 -159 l164 0 l0 738 q-1 169 -106 264 q-106 94 -304 95 q-175 -2 -289 -79 q-114 -77 -134 -208 l174 0 q19 64 82 99 q63 35 161 35 q121 0 182 -53 q62 -53 62 -153 l0 -98 l-311 -19 q-189 -12 -291 -93 q-101 -81 -102 -226 q3 -149 104 -234 q100 -85 260 -87 l0 0 ZM564 1287 q54 1 90 38 q37 36 38 90 q-1 54 -38 90 q-36 36 -90 37 q-54 -1 -90 -37 q-37 -36 -38 -90 q1 -54 38 -90 q36 -37 90 -38 l0 0 Z" /><glyph glyph-name="" unicode="&#x1ea1;" d="M494 132 q-96 1 -156 46 q-60 45 -62 128 q-1 81 57 124 q57 44 179 52 l290 19 l0 -99 q-3 -118 -88 -193 q-85 -75 -220 -77 l0 0 ZM462 -19 q109 0 194 46 q85 45 138 132 l16 0 l0 -159 l164 0 l0 738 q-1 169 -106 264 q-106 94 -304 95 q-175 -2 -289 -79 q-114 -77 -134 -208 l174 0 q19 64 82 99 q63 35 161 35 q121 0 182 -53 q62 -53 62 -153 l0 -98 l-311 -19 q-189 -12 -291 -93 q-101 -81 -102 -226 q3 -149 104 -234 q100 -85 260 -87 l0 0 ZM536 -402 q52 1 86 35 q34 34 35 86 q-1 52 -35 86 q-34 34 -86 35 q-52 -1 -86 -35 q-34 -34 -35 -86 q1 -52 35 -86 q34 -34 86 -35 l0 0 Z" /><glyph glyph-name="" unicode="&#x1ea3;" d="M494 132 q-96 1 -156 46 q-60 45 -62 128 q-1 81 57 124 q57 44 179 52 l290 19 l0 -99 q-3 -118 -88 -193 q-85 -75 -220 -77 l0 0 ZM462 -19 q109 0 194 46 q85 45 138 132 l16 0 l0 -159 l164 0 l0 738 q-1 169 -106 264 q-106 94 -304 95 q-175 -2 -289 -79 q-114 -77 -134 -208 l174 0 q19 64 82 99 q63 35 161 35 q121 0 182 -53 q62 -53 62 -153 l0 -98 l-311 -19 q-189 -12 -291 -93 q-101 -81 -102 -226 q3 -149 104 -234 q100 -85 260 -87 l0 0 ZM421 1461 q21 11 50 17 q29 6 63 6 q44 -1 71 -21 q28 -21 29 -54 q-1 -33 -31 -62 q-31 -30 -81 -45 l75 -99 q83 29 134 88 q51 59 52 130 q-1 86 -61 135 q-60 48 -167 49 q-37 0 -73 -6 q-36 -5 -61 -15 l0 -123 Z" /><glyph glyph-name="" unicode="&#x201;" d="M494 132 q-96 1 -156 46 q-60 45 -62 128 q-1 81 57 124 q57 44 179 52 l290 19 l0 -99 q-3 -118 -88 -193 q-85 -75 -220 -77 l0 0 ZM462 -19 q109 0 194 46 q85 45 138 132 l16 0 l0 -159 l164 0 l0 738 q-1 169 -106 264 q-106 94 -304 95 q-175 -2 -289 -79 q-114 -77 -134 -208 l174 0 q19 64 82 99 q63 35 161 35 q121 0 182 -53 q62 -53 62 -153 l0 -98 l-311 -19 q-189 -12 -291 -93 q-101 -81 -102 -226 q3 -149 104 -234 q100 -85 260 -87 l0 0 ZM483 1263 l-252 338 l-210 0 l280 -338 l182 0 ZM883 1263 l-252 338 l-210 0 l280 -338 l182 0 Z" /><glyph glyph-name="" unicode="&#x101;" d="M494 132 q-96 1 -156 46 q-60 45 -62 128 q-1 81 57 124 q57 44 179 52 l290 19 l0 -99 q-3 -118 -88 -193 q-85 -75 -220 -77 l0 0 ZM462 -19 q109 0 194 46 q85 45 138 132 l16 0 l0 -159 l164 0 l0 738 q-1 169 -106 264 q-106 94 -304 95 q-175 -2 -289 -79 q-114 -77 -134 -208 l174 0 q19 64 82 99 q63 35 161 35 q121 0 182 -53 q62 -53 62 -153 l0 -98 l-311 -19 q-189 -12 -291 -93 q-101 -81 -102 -226 q3 -149 104 -234 q100 -85 260 -87 l0 0 ZM901 1422 l-674 0 l0 -136 l674 0 l0 136 Z" /><glyph glyph-name="" unicode="&#x105;" d="M494 132 q-100 1 -158 48 q-59 46 -60 126 q0 82 57 125 q58 43 179 51 l290 19 l0 -99 q-3 -119 -88 -193 q-85 -75 -220 -77 l0 0 ZM966 -416 l0 134 q-11 -3 -28 -4 q-18 -2 -38 -2 q-50 1 -81 28 q-30 26 -31 70 q1 55 47 103 q46 48 127 82 l12 5 l0 738 q-1 171 -108 265 q-106 93 -302 94 q-176 -2 -289 -79 q-114 -77 -134 -208 l174 0 q19 64 82 99 q63 35 161 35 q120 0 182 -53 q62 -52 62 -153 l0 -98 l-311 -19 q-191 -12 -292 -93 q-100 -82 -101 -226 q3 -145 101 -232 q99 -87 263 -89 q109 0 194 46 q85 45 138 132 l16 0 l0 -147 q-81 -29 -135 -92 q-54 -63 -56 -148 q2 -91 68 -147 q67 -55 175 -57 q29 0 55 4 q26 4 49 12 l0 0 Z" /><glyph glyph-name="" unicode="b" d="M698 -19 q207 3 328 153 q121 149 124 405 q-3 257 -123 406 q-121 149 -329 152 q-113 -1 -202 -51 q-90 -50 -136 -138 l-16 0 l0 598 l-172 0 l0 -1506 l164 0 l0 172 l16 0 q52 -91 142 -140 q90 -50 204 -51 l0 0 ZM658 942 q149 -2 231 -107 q82 -105 83 -296 q-1 -191 -83 -296 q-82 -105 -231 -107 q-148 2 -232 108 q-84 106 -86 295 q2 189 86 295 q84 106 232 108 l0 0 Z" /><glyph glyph-name="" unicode="&#x1e07;" d="M698 -19 q207 3 328 153 q121 149 124 405 q-3 257 -123 406 q-121 149 -329 152 q-113 -1 -202 -51 q-90 -50 -136 -138 l-16 0 l0 598 l-172 0 l0 -1506 l164 0 l0 172 l16 0 q52 -91 142 -140 q90 -50 204 -51 l0 0 ZM658 942 q149 -2 231 -107 q82 -105 83 -296 q-1 -191 -83 -296 q-82 -105 -231 -107 q-148 2 -232 108 q-84 106 -86 295 q2 189 86 295 q84 106 232 108 l0 0 ZM998 -212 l-674 0 l0 -136 l674 0 l0 136 Z" /><glyph glyph-name="" unicode="&#x1e05;" d="M698 -19 q207 3 328 153 q121 149 124 405 q-3 257 -123 406 q-121 149 -329 152 q-113 -1 -202 -51 q-90 -50 -136 -138 l-16 0 l0 598 l-172 0 l0 -1506 l164 0 l0 172 l16 0 q52 -91 142 -140 q90 -50 204 -51 l0 0 ZM658 942 q149 -2 231 -107 q82 -105 83 -296 q-1 -191 -83 -296 q-82 -105 -231 -107 q-148 2 -232 108 q-84 106 -86 295 q2 189 86 295 q84 106 232 108 l0 0 ZM661 -402 q52 1 86 35 q34 34 35 86 q-1 52 -35 86 q-34 34 -86 35 q-52 -1 -86 -35 q-34 -34 -35 -86 q1 -52 35 -86 q34 -34 86 -35 l0 0 Z" /><glyph glyph-name="" unicode="&#x1e03;" d="M698 -19 q207 3 328 153 q121 149 124 405 q-3 257 -123 406 q-121 149 -329 152 q-113 -1 -202 -51 q-90 -50 -136 -138 l-16 0 l0 598 l-172 0 l0 -1506 l164 0 l0 172 l16 0 q52 -91 142 -140 q90 -50 204 -51 l0 0 ZM658 942 q149 -2 231 -107 q82 -105 83 -296 q-1 -191 -83 -296 q-82 -105 -231 -107 q-148 2 -232 108 q-84 106 -86 295 q2 189 86 295 q84 106 232 108 l0 0 ZM258 1638 q52 1 86 35 q34 34 35 86 q-1 52 -35 86 q-34 34 -86 35 q-52 -1 -86 -35 q-34 -34 -35 -86 q1 -52 35 -86 q34 -34 86 -35 l0 0 Z" /><glyph glyph-name="" unicode="c" d="M1054 748 q-23 148 -139 247 q-116 98 -313 102 q-229 -3 -360 -151 q-131 -148 -134 -403 q3 -260 134 -410 q132 -149 361 -152 q195 3 311 98 q116 95 140 246 l-174 0 q-25 -92 -97 -140 q-71 -49 -181 -49 q-146 2 -230 110 q-84 108 -86 297 q2 185 85 291 q84 106 231 108 q116 -2 187 -57 q70 -55 91 -137 l174 0 Z" /><glyph glyph-name="" unicode="&#x107;" d="M1054 748 q-23 148 -139 247 q-116 98 -313 102 q-229 -3 -360 -151 q-131 -148 -134 -403 q3 -260 134 -410 q132 -149 361 -152 q195 3 311 98 q116 95 140 246 l-174 0 q-25 -92 -97 -140 q-71 -49 -181 -49 q-146 2 -230 110 q-84 108 -86 297 q2 185 85 291 q84 106 231 108 q116 -2 187 -57 q70 -55 91 -137 l174 0 ZM680 1263 l278 338 l-220 0 l-252 -338 l194 0 Z" /><glyph glyph-name="" unicode="&#x10d;" d="M1054 748 q-23 148 -139 247 q-116 98 -313 102 q-229 -3 -360 -151 q-131 -148 -134 -403 q3 -260 134 -410 q132 -149 361 -152 q195 3 311 98 q116 95 140 246 l-174 0 q-25 -92 -97 -140 q-71 -49 -181 -49 q-146 2 -230 110 q-84 108 -86 297 q2 185 85 291 q84 106 231 108 q116 -2 187 -57 q70 -55 91 -137 l174 0 ZM701 1228 l282 340 l-198 0 l-177 -227 l-16 0 l-177 227 l-198 0 l282 -340 l202 0 Z" /><glyph glyph-name="" unicode="&#x109;" d="M1054 748 q-23 148 -139 247 q-116 98 -313 102 q-229 -3 -360 -151 q-131 -148 -134 -403 q3 -260 134 -410 q132 -149 361 -152 q195 3 311 98 q116 95 140 246 l-174 0 q-25 -92 -97 -140 q-71 -49 -181 -49 q-146 2 -230 110 q-84 108 -86 297 q2 185 85 291 q84 106 231 108 q116 -2 187 -57 q70 -55 91 -137 l174 0 ZM701 1568 l-202 0 l-282 -340 l198 0 l177 227 l16 0 l177 -227 l198 0 l-282 340 Z" /><glyph glyph-name="" unicode="&#x10b;" d="M1054 748 q-23 148 -139 247 q-116 98 -313 102 q-229 -3 -360 -151 q-131 -148 -134 -403 q3 -260 134 -410 q132 -149 361 -152 q195 3 311 98 q116 95 140 246 l-174 0 q-25 -92 -97 -140 q-71 -49 -181 -49 q-146 2 -230 110 q-84 108 -86 297 q2 185 85 291 q84 106 231 108 q116 -2 187 -57 q70 -55 91 -137 l174 0 ZM600 1287 q54 1 90 38 q37 36 38 90 q-1 54 -38 90 q-36 36 -90 37 q-54 -1 -90 -37 q-37 -36 -38 -90 q1 -54 38 -90 q36 -37 90 -38 l0 0 Z" /><glyph glyph-name="" unicode="ç" d="M1054 748 q-23 148 -139 247 q-116 98 -313 102 q-229 -3 -360 -151 q-131 -148 -134 -403 q2 -241 116 -387 q114 -147 314 -171 l-53 -135 l0 -84 l59 0 q79 0 114 -15 q36 -16 35 -50 q0 -35 -31 -54 q-30 -19 -88 -19 q-29 0 -65 4 q-37 5 -57 10 l0 -108 q31 -9 66 -13 q36 -5 80 -5 q116 1 179 53 q64 51 65 136 q-1 78 -56 120 q-56 42 -159 43 l45 117 q165 19 263 111 q97 92 119 229 l-174 0 q-25 -92 -97 -140 q-71 -49 -181 -49 q-146 2 -230 110 q-84 108 -86 297 q2 185 85 291 q84 106 231 108 q116 -2 187 -57 q70 -55 91 -137 l174 0 Z" /><glyph glyph-name="" unicode="&#x1e09;" d="M958 1601 l-220 0 l-252 -338 l194 0 l278 338 ZM1054 748 q-23 148 -139 247 q-116 98 -313 102 q-229 -3 -360 -151 q-131 -148 -134 -403 q2 -241 116 -387 q114 -147 314 -171 l-53 -135 l0 -84 l59 0 q79 0 114 -15 q36 -16 35 -50 q0 -35 -31 -54 q-30 -19 -88 -19 q-29 0 -65 4 q-37 5 -57 10 l0 -108 q31 -9 66 -13 q36 -5 80 -5 q116 1 179 53 q64 51 65 136 q-1 78 -56 120 q-56 42 -159 43 l45 117 q165 19 263 111 q97 92 119 229 l-174 0 q-25 -92 -97 -140 q-71 -49 -181 -49 q-146 2 -230 110 q-84 108 -86 297 q2 185 85 291 q84 106 231 108 q116 -2 187 -57 q70 -55 91 -137 l174 0 Z" /><glyph glyph-name="" unicode="d" d="M561 -19 q113 1 203 51 q90 49 142 140 l16 0 l0 -172 l164 0 l0 1506 l-172 0 l0 -598 l-15 0 q-47 89 -136 139 q-88 49 -202 50 q-208 -3 -329 -152 q-121 -149 -124 -406 q2 -257 123 -406 q121 -149 330 -152 l0 0 ZM601 942 q148 -2 232 -109 q83 -107 85 -294 q-1 -189 -85 -295 q-84 -106 -232 -108 q-149 2 -231 107 q-83 105 -84 296 q1 190 84 296 q83 105 231 107 l0 0 Z" /><glyph glyph-name="" unicode="&#x1e0b;" d="M561 -19 q113 1 203 51 q90 49 142 140 l16 0 l0 -172 l164 0 l0 1506 l-172 0 l0 -598 l-15 0 q-47 89 -136 139 q-88 49 -202 50 q-208 -3 -329 -152 q-121 -149 -124 -406 q2 -257 123 -406 q121 -149 330 -152 l0 0 ZM601 942 q148 -2 232 -109 q83 -107 85 -294 q-1 -189 -85 -295 q-84 -106 -232 -108 q-149 2 -231 107 q-83 105 -84 296 q1 190 84 296 q83 105 231 107 l0 0 ZM1000 1638 q52 1 86 35 q34 34 35 86 q-1 52 -35 86 q-34 34 -86 35 q-52 -1 -86 -35 q-34 -34 -35 -86 q1 -52 35 -86 q34 -34 86 -35 l0 0 Z" /><glyph glyph-name="" unicode="&#x1e13;" d="M561 -19 q113 1 203 51 q90 49 142 140 l16 0 l0 -172 l164 0 l0 1506 l-172 0 l0 -598 l-15 0 q-47 89 -136 139 q-88 49 -202 50 q-208 -3 -329 -152 q-121 -149 -124 -406 q2 -257 123 -406 q121 -149 330 -152 l0 0 ZM601 942 q148 -2 232 -109 q83 -107 85 -294 q-1 -189 -85 -295 q-84 -106 -232 -108 q-149 2 -231 107 q-83 105 -84 296 q1 190 84 296 q83 105 231 107 l0 0 ZM754 -142 l-164 0 l-300 -290 l202 0 l172 173 l16 0 l172 -173 l202 0 l-300 290 Z" /><glyph glyph-name="" unicode="&#x1e11;" d="M561 -19 q113 1 203 51 q90 49 142 140 l16 0 l0 -172 l164 0 l0 1506 l-172 0 l0 -598 l-15 0 q-47 89 -136 139 q-88 49 -202 50 q-208 -3 -329 -152 q-121 -149 -124 -406 q2 -257 123 -406 q121 -149 330 -152 l0 0 ZM601 942 q148 -2 232 -109 q83 -107 85 -294 q-1 -189 -85 -295 q-84 -106 -232 -108 q-149 2 -231 107 q-83 105 -84 296 q1 190 84 296 q83 105 231 107 l0 0 ZM675 -518 l117 377 l-182 0 l-102 -377 l167 0 Z" /><glyph glyph-name="" unicode="&#x1e0f;" d="M561 -19 q113 1 203 51 q90 49 142 140 l16 0 l0 -172 l164 0 l0 1506 l-172 0 l0 -598 l-15 0 q-47 89 -136 139 q-88 49 -202 50 q-208 -3 -329 -152 q-121 -149 -124 -406 q2 -257 123 -406 q121 -149 330 -152 l0 0 ZM601 942 q148 -2 232 -109 q83 -107 85 -294 q-1 -189 -85 -295 q-84 -106 -232 -108 q-149 2 -231 107 q-83 105 -84 296 q1 190 84 296 q83 105 231 107 l0 0 ZM1009 -212 l-674 0 l0 -136 l674 0 l0 136 Z" /><glyph glyph-name="" unicode="&#x10f;" d="M1237 1506 l0 -488 l120 0 l50 488 l-170 0 ZM561 -19 q113 1 203 51 q90 49 142 140 l16 0 l0 -172 l164 0 l0 1506 l-172 0 l0 -598 l-15 0 q-47 89 -136 139 q-88 49 -202 50 q-208 -3 -329 -152 q-121 -149 -124 -406 q2 -257 123 -406 q121 -149 330 -152 l0 0 ZM601 942 q148 -2 232 -109 q83 -107 85 -294 q-1 -189 -85 -295 q-84 -106 -232 -108 q-149 2 -231 107 q-83 105 -84 296 q1 190 84 296 q83 105 231 107 l0 0 Z" /><glyph glyph-name="" unicode="&#x1e0d;" d="M561 -19 q113 1 203 51 q90 49 142 140 l16 0 l0 -172 l164 0 l0 1506 l-172 0 l0 -598 l-15 0 q-47 89 -136 139 q-88 49 -202 50 q-208 -3 -329 -152 q-121 -149 -124 -406 q2 -257 123 -406 q121 -149 330 -152 l0 0 ZM601 942 q148 -2 232 -109 q83 -107 85 -294 q-1 -189 -85 -295 q-84 -106 -232 -108 q-149 2 -231 107 q-83 105 -84 296 q1 190 84 296 q83 105 231 107 l0 0 ZM672 -402 q52 1 86 35 q34 34 35 86 q-1 52 -35 86 q-34 34 -86 35 q-52 -1 -86 -35 q-34 -34 -35 -86 q1 -52 35 -86 q34 -34 86 -35 l0 0 Z" /><glyph glyph-name="" unicode="&#x111;" d="M601 136 q-149 2 -231 107 q-83 105 -84 296 q1 190 84 296 q83 105 231 107 q148 -2 232 -109 q83 -107 85 -294 q-1 -189 -85 -295 q-84 -106 -232 -108 l0 0 ZM1230 1401 l-144 0 l0 105 l-172 0 l0 -105 l-260 0 l0 -124 l260 0 l0 -369 l-15 0 q-47 89 -136 139 q-88 49 -202 50 q-208 -3 -329 -152 q-121 -149 -124 -406 q2 -257 123 -406 q121 -149 330 -152 q113 1 203 51 q90 49 142 140 l16 0 l0 -172 l164 0 l0 1277 l144 0 l0 124 Z" /><glyph glyph-name="" unicode="e" d="M592 945 q130 -2 207 -87 q77 -85 82 -230 l-594 0 q11 145 93 230 q81 85 212 87 l0 0 ZM876 279 q-34 -71 -104 -109 q-70 -37 -174 -37 q-139 2 -221 94 q-82 92 -90 254 l0 8 l775 0 l0 66 q-2 254 -125 397 q-123 143 -343 145 q-225 -3 -354 -152 q-129 -150 -132 -407 q2 -259 131 -406 q128 -148 355 -151 q178 1 296 80 q118 78 158 218 l-172 0 Z" /><glyph glyph-name="" unicode="è" d="M592 945 q130 -2 207 -87 q77 -85 82 -230 l-594 0 q11 145 93 230 q81 85 212 87 l0 0 ZM876 279 q-34 -71 -104 -109 q-70 -37 -174 -37 q-139 2 -221 94 q-82 92 -90 254 l0 8 l775 0 l0 66 q-2 254 -125 397 q-123 143 -343 145 q-225 -3 -354 -152 q-129 -150 -132 -407 q2 -259 131 -406 q128 -148 355 -151 q178 1 296 80 q118 78 158 218 l-172 0 ZM716 1263 l-252 338 l-220 0 l278 -338 l194 0 Z" /><glyph glyph-name="" unicode="&#x205;" d="M592 945 q130 -2 207 -87 q77 -85 82 -230 l-594 0 q11 145 93 230 q81 85 212 87 l0 0 ZM876 279 q-34 -71 -104 -109 q-70 -37 -174 -37 q-139 2 -221 94 q-82 92 -90 254 l0 8 l775 0 l0 66 q-2 254 -125 397 q-123 143 -343 145 q-225 -3 -354 -152 q-129 -150 -132 -407 q2 -259 131 -406 q128 -148 355 -151 q178 1 296 80 q118 78 158 218 l-172 0 ZM513 1263 l-252 338 l-210 0 l280 -338 l182 0 ZM913 1263 l-252 338 l-210 0 l280 -338 l182 0 Z" /><glyph glyph-name="" unicode="é" d="M592 945 q130 -2 207 -87 q77 -85 82 -230 l-594 0 q11 145 93 230 q81 85 212 87 l0 0 ZM876 279 q-34 -71 -104 -109 q-70 -37 -174 -37 q-139 2 -221 94 q-82 92 -90 254 l0 8 l775 0 l0 66 q-2 254 -125 397 q-123 143 -343 145 q-225 -3 -354 -152 q-129 -150 -132 -407 q2 -259 131 -406 q128 -148 355 -151 q178 1 296 80 q118 78 158 218 l-172 0 ZM674 1263 l278 338 l-220 0 l-252 -338 l194 0 Z" /><glyph glyph-name="" unicode="ê" d="M592 945 q130 -2 207 -87 q77 -85 82 -230 l-594 0 q11 145 93 230 q81 85 212 87 l0 0 ZM876 279 q-34 -71 -104 -109 q-70 -37 -174 -37 q-139 2 -221 94 q-82 92 -90 254 l0 8 l775 0 l0 66 q-2 254 -125 397 q-123 143 -343 145 q-225 -3 -354 -152 q-129 -150 -132 -407 q2 -259 131 -406 q128 -148 355 -151 q178 1 296 80 q118 78 158 218 l-172 0 ZM695 1568 l-202 0 l-282 -340 l198 0 l177 227 l16 0 l177 -227 l198 0 l-282 340 Z" /><glyph glyph-name="" unicode="&#x1ec3;" d="M592 945 q130 -2 207 -87 q77 -85 82 -230 l-594 0 q11 145 93 230 q81 85 212 87 l0 0 ZM876 279 q-34 -71 -104 -109 q-70 -37 -174 -37 q-139 2 -221 94 q-82 92 -90 254 l0 8 l775 0 l0 66 q-2 254 -125 397 q-123 143 -343 145 q-225 -3 -354 -152 q-129 -150 -132 -407 q2 -259 131 -406 q128 -148 355 -151 q178 1 296 80 q118 78 158 218 l-172 0 ZM748 1729 q21 11 50 17 q29 6 63 6 q44 -1 71 -21 q28 -21 29 -54 q-1 -33 -31 -62 q-31 -30 -81 -45 l75 -99 q83 29 134 88 q51 59 52 130 q-1 86 -61 135 q-60 48 -167 49 q-37 0 -73 -6 q-36 -5 -61 -15 l0 -123 ZM695 1548 l-202 0 l-282 -320 l200 0 l175 207 l16 0 l175 -207 l200 0 l-282 320 Z" /><glyph glyph-name="" unicode="&#x1ec1;" d="M592 945 q130 -2 207 -87 q77 -85 82 -230 l-594 0 q11 145 93 230 q81 85 212 87 l0 0 ZM876 279 q-34 -71 -104 -109 q-70 -37 -174 -37 q-139 2 -221 94 q-82 92 -90 254 l0 8 l775 0 l0 66 q-2 254 -125 397 q-123 143 -343 145 q-225 -3 -354 -152 q-129 -150 -132 -407 q2 -259 131 -406 q128 -148 355 -151 q178 1 296 80 q118 78 158 218 l-172 0 ZM695 1548 l-202 0 l-282 -320 l200 0 l175 207 l16 0 l175 -207 l200 0 l-282 320 ZM1016 1575 l-190 298 l-198 0 l218 -298 l170 0 Z" /><glyph glyph-name="" unicode="&#x1ec5;" d="M592 945 q130 -2 207 -87 q77 -85 82 -230 l-594 0 q11 145 93 230 q81 85 212 87 l0 0 ZM876 279 q-34 -71 -104 -109 q-70 -37 -174 -37 q-139 2 -221 94 q-82 92 -90 254 l0 8 l775 0 l0 66 q-2 254 -125 397 q-123 143 -343 145 q-225 -3 -354 -152 q-129 -150 -132 -407 q2 -259 131 -406 q128 -148 355 -151 q178 1 296 80 q118 78 158 218 l-172 0 ZM695 1548 l-202 0 l-282 -320 l200 0 l175 207 l16 0 l175 -207 l200 0 l-282 320 ZM740 1635 q112 1 172 78 q59 77 60 213 l-142 0 q0 -84 -23 -121 q-23 -37 -75 -36 q-55 10 -112 79 q-57 68 -172 78 q-112 -1 -171 -78 q-60 -77 -61 -213 l142 0 q0 84 23 121 q23 37 75 36 q55 -10 112 -78 q57 -69 172 -79 l0 0 Z" /><glyph glyph-name="" unicode="&#x1ec7;" d="M592 945 q130 -2 207 -87 q77 -85 82 -230 l-594 0 q11 145 93 230 q81 85 212 87 l0 0 ZM876 279 q-34 -71 -104 -109 q-70 -37 -174 -37 q-139 2 -221 94 q-82 92 -90 254 l0 8 l775 0 l0 66 q-2 254 -125 397 q-123 143 -343 145 q-225 -3 -354 -152 q-129 -150 -132 -407 q2 -259 131 -406 q128 -148 355 -151 q178 1 296 80 q118 78 158 218 l-172 0 ZM695 1568 l-202 0 l-282 -340 l198 0 l177 227 l16 0 l177 -227 l198 0 l-282 340 ZM595 -402 q52 1 86 35 q34 34 35 86 q-1 52 -35 86 q-34 34 -86 35 q-52 -1 -86 -35 q-34 -34 -35 -86 q1 -52 35 -86 q34 -34 86 -35 l0 0 Z" /><glyph glyph-name="" unicode="&#x1ebf;" d="M592 945 q130 -2 207 -87 q77 -85 82 -230 l-594 0 q11 145 93 230 q81 85 212 87 l0 0 ZM876 279 q-34 -71 -104 -109 q-70 -37 -174 -37 q-139 2 -221 94 q-82 92 -90 254 l0 8 l775 0 l0 66 q-2 254 -125 397 q-123 143 -343 145 q-225 -3 -354 -152 q-129 -150 -132 -407 q2 -259 131 -406 q128 -148 355 -151 q178 1 296 80 q118 78 158 218 l-172 0 ZM695 1548 l-202 0 l-282 -320 l200 0 l175 207 l16 0 l175 -207 l200 0 l-282 320 ZM788 1575 l170 0 l218 298 l-198 0 l-190 -298 Z" /><glyph glyph-name="" unicode="ë" d="M592 945 q130 -2 207 -87 q77 -85 82 -230 l-594 0 q11 145 93 230 q81 85 212 87 l0 0 ZM876 279 q-34 -71 -104 -109 q-70 -37 -174 -37 q-139 2 -221 94 q-82 92 -90 254 l0 8 l775 0 l0 66 q-2 254 -125 397 q-123 143 -343 145 q-225 -3 -354 -152 q-129 -150 -132 -407 q2 -259 131 -406 q128 -148 355 -151 q178 1 296 80 q118 78 158 218 l-172 0 ZM392 1228 q52 1 86 35 q34 34 35 86 q-1 52 -35 86 q-34 34 -86 35 q-52 -1 -86 -35 q-34 -34 -35 -86 q1 -52 35 -86 q34 -34 86 -35 l0 0 ZM796 1228 q52 1 86 35 q34 34 35 86 q-1 52 -35 86 q-34 34 -86 35 q-52 -1 -86 -35 q-34 -34 -35 -86 q1 -52 35 -86 q34 -34 86 -35 l0 0 Z" /><glyph glyph-name="" unicode="&#x1eb9;" d="M592 945 q130 -2 207 -87 q77 -85 82 -230 l-594 0 q11 145 93 230 q81 85 212 87 l0 0 ZM876 279 q-34 -71 -104 -109 q-70 -37 -174 -37 q-139 2 -221 94 q-82 92 -90 254 l0 8 l775 0 l0 66 q-2 254 -125 397 q-123 143 -343 145 q-225 -3 -354 -152 q-129 -150 -132 -407 q2 -259 131 -406 q128 -148 355 -151 q178 1 296 80 q118 78 158 218 l-172 0 ZM595 -402 q52 1 86 35 q34 34 35 86 q-1 52 -35 86 q-34 34 -86 35 q-52 -1 -86 -35 q-34 -34 -35 -86 q1 -52 35 -86 q34 -34 86 -35 l0 0 Z" /><glyph glyph-name="" unicode="&#x207;" d="M592 945 q130 -2 207 -87 q77 -85 82 -230 l-594 0 q11 145 93 230 q81 85 212 87 l0 0 ZM876 279 q-34 -71 -104 -109 q-70 -37 -174 -37 q-139 2 -221 94 q-82 92 -90 254 l0 8 l775 0 l0 66 q-2 254 -125 397 q-123 143 -343 145 q-225 -3 -354 -152 q-129 -150 -132 -407 q2 -259 131 -406 q128 -148 355 -151 q178 1 296 80 q118 78 158 218 l-172 0 ZM230 1228 l154 0 q0 88 54 143 q54 55 156 57 q102 -2 156 -57 q54 -55 54 -143 l154 0 q-1 145 -96 235 q-96 90 -268 93 q-172 -3 -267 -93 q-96 -90 -97 -235 l0 0 Z" /><glyph glyph-name="" unicode="&#x1ebb;" d="M592 945 q130 -2 207 -87 q77 -85 82 -230 l-594 0 q11 145 93 230 q81 85 212 87 l0 0 ZM876 279 q-34 -71 -104 -109 q-70 -37 -174 -37 q-139 2 -221 94 q-82 92 -90 254 l0 8 l775 0 l0 66 q-2 254 -125 397 q-123 143 -343 145 q-225 -3 -354 -152 q-129 -150 -132 -407 q2 -259 131 -406 q128 -148 355 -151 q178 1 296 80 q118 78 158 218 l-172 0 ZM450 1451 q21 11 50 17 q29 6 63 6 q44 -1 71 -21 q28 -21 29 -54 q-1 -33 -31 -62 q-31 -30 -81 -45 l75 -99 q83 29 134 88 q51 59 52 130 q-1 86 -61 135 q-60 48 -167 49 q-37 0 -73 -6 q-36 -5 -61 -15 l0 -123 Z" /><glyph glyph-name="" unicode="&#x11b;" d="M592 945 q130 -2 207 -87 q77 -85 82 -230 l-594 0 q11 145 93 230 q81 85 212 87 l0 0 ZM876 279 q-34 -71 -104 -109 q-70 -37 -174 -37 q-139 2 -221 94 q-82 92 -90 254 l0 8 l775 0 l0 66 q-2 254 -125 397 q-123 143 -343 145 q-225 -3 -354 -152 q-129 -150 -132 -407 q2 -259 131 -406 q128 -148 355 -151 q178 1 296 80 q118 78 158 218 l-172 0 ZM695 1228 l282 340 l-198 0 l-177 -227 l-16 0 l-177 227 l-198 0 l282 -340 l202 0 Z" /><glyph glyph-name="" unicode="&#x113;" d="M592 945 q130 -2 207 -87 q77 -85 82 -230 l-594 0 q11 145 93 230 q81 85 212 87 l0 0 ZM876 279 q-34 -71 -104 -109 q-70 -37 -174 -37 q-139 2 -221 94 q-82 92 -90 254 l0 8 l775 0 l0 66 q-2 254 -125 397 q-123 143 -343 145 q-225 -3 -354 -152 q-129 -150 -132 -407 q2 -259 131 -406 q128 -148 355 -151 q178 1 296 80 q118 78 158 218 l-172 0 ZM931 1422 l-674 0 l0 -136 l674 0 l0 136 Z" /><glyph glyph-name="" unicode="&#x1e15;" d="M592 945 q130 -2 207 -87 q77 -85 82 -230 l-594 0 q11 145 93 230 q81 85 212 87 l0 0 ZM876 279 q-34 -71 -104 -109 q-70 -37 -174 -37 q-139 2 -221 94 q-82 92 -90 254 l0 8 l775 0 l0 66 q-2 254 -125 397 q-123 143 -343 145 q-225 -3 -354 -152 q-129 -150 -132 -407 q2 -259 131 -406 q128 -148 355 -151 q178 1 296 80 q118 78 158 218 l-172 0 ZM716 1555 l-200 288 l-218 0 l226 -288 l192 0 ZM931 1399 l-674 0 l0 -136 l674 0 l0 136 Z" /><glyph glyph-name="" unicode="&#x1e17;" d="M592 945 q130 -2 207 -87 q77 -85 82 -230 l-594 0 q11 145 93 230 q81 85 212 87 l0 0 ZM876 279 q-34 -71 -104 -109 q-70 -37 -174 -37 q-139 2 -221 94 q-82 92 -90 254 l0 8 l775 0 l0 66 q-2 254 -125 397 q-123 143 -343 145 q-225 -3 -354 -152 q-129 -150 -132 -407 q2 -259 131 -406 q128 -148 355 -151 q178 1 296 80 q118 78 158 218 l-172 0 ZM472 1555 l192 0 l226 288 l-218 0 l-200 -288 ZM931 1399 l-674 0 l0 -136 l674 0 l0 136 Z" /><glyph glyph-name="" unicode="&#x1ebd;" d="M592 945 q130 -2 207 -87 q77 -85 82 -230 l-594 0 q11 145 93 230 q81 85 212 87 l0 0 ZM876 279 q-34 -71 -104 -109 q-70 -37 -174 -37 q-139 2 -221 94 q-82 92 -90 254 l0 8 l775 0 l0 66 q-2 254 -125 397 q-123 143 -343 145 q-225 -3 -354 -152 q-129 -150 -132 -407 q2 -259 131 -406 q128 -148 355 -151 q178 1 296 80 q118 78 158 218 l-172 0 ZM740 1231 q110 1 170 77 q61 76 62 214 l-142 0 q0 -84 -23 -121 q-23 -37 -75 -36 q-55 10 -112 79 q-57 68 -172 78 q-110 -1 -170 -77 q-61 -76 -62 -214 l142 0 q0 84 23 121 q23 37 75 36 q55 -10 112 -78 q57 -69 172 -79 l0 0 Z" /><glyph glyph-name="" unicode="&#x1e19;" d="M592 945 q130 -2 207 -87 q77 -85 82 -230 l-594 0 q11 145 93 230 q81 85 212 87 l0 0 ZM876 279 q-34 -71 -104 -109 q-70 -37 -174 -37 q-139 2 -221 94 q-82 92 -90 254 l0 8 l775 0 l0 66 q-2 254 -125 397 q-123 143 -343 145 q-225 -3 -354 -152 q-129 -150 -132 -407 q2 -259 131 -406 q128 -148 355 -151 q178 1 296 80 q118 78 158 218 l-172 0 ZM677 -142 l-164 0 l-300 -290 l202 0 l172 173 l16 0 l172 -173 l202 0 l-300 290 Z" /><glyph glyph-name="" unicode="&#x115;" d="M592 945 q130 -2 207 -87 q77 -85 82 -230 l-594 0 q11 145 93 230 q81 85 212 87 l0 0 ZM876 279 q-34 -71 -104 -109 q-70 -37 -174 -37 q-139 2 -221 94 q-82 92 -90 254 l0 8 l775 0 l0 66 q-2 254 -125 397 q-123 143 -343 145 q-225 -3 -354 -152 q-129 -150 -132 -407 q2 -259 131 -406 q128 -148 355 -151 q178 1 296 80 q118 78 158 218 l-172 0 ZM228 1556 q1 -145 97 -235 q95 -90 267 -93 q172 3 268 93 q95 90 96 235 l-154 0 q0 -88 -54 -143 q-54 -55 -156 -57 q-102 2 -156 57 q-54 55 -54 143 l-154 0 Z" /><glyph glyph-name="" unicode="&#x1e1b;" d="M592 945 q130 -2 207 -87 q77 -85 82 -230 l-594 0 q11 145 93 230 q81 85 212 87 l0 0 ZM876 279 q-34 -71 -104 -109 q-70 -37 -174 -37 q-139 2 -221 94 q-82 92 -90 254 l0 8 l775 0 l0 66 q-2 254 -125 397 q-123 143 -343 145 q-225 -3 -354 -152 q-129 -150 -132 -407 q2 -259 131 -406 q128 -148 355 -151 q178 1 296 80 q118 78 158 218 l-172 0 ZM745 -423 q105 2 165 76 q60 75 61 205 l-135 0 q-5 -87 -32 -120 q-26 -33 -63 -31 q-58 11 -115 84 q-57 74 -181 84 q-105 -1 -165 -73 q-60 -73 -61 -208 l136 0 q3 84 27 118 q24 34 67 33 q72 -10 126 -84 q55 -73 170 -84 l0 0 Z" /><glyph glyph-name="" unicode="&#x117;" d="M592 945 q130 -2 207 -87 q77 -85 82 -230 l-594 0 q11 145 93 230 q81 85 212 87 l0 0 ZM876 279 q-34 -71 -104 -109 q-70 -37 -174 -37 q-139 2 -221 94 q-82 92 -90 254 l0 8 l775 0 l0 66 q-2 254 -125 397 q-123 143 -343 145 q-225 -3 -354 -152 q-129 -150 -132 -407 q2 -259 131 -406 q128 -148 355 -151 q178 1 296 80 q118 78 158 218 l-172 0 ZM594 1287 q54 1 90 38 q37 36 38 90 q-1 54 -38 90 q-36 36 -90 37 q-54 -1 -90 -37 q-37 -36 -38 -90 q1 -54 38 -90 q36 -37 90 -38 l0 0 Z" /><glyph glyph-name="" unicode="&#x229;" d="M287 628 q11 145 93 230 q81 85 212 87 q130 -2 207 -87 q77 -85 82 -230 l-594 0 ZM1062 489 l0 66 q-2 254 -125 397 q-123 143 -343 145 q-225 -3 -354 -152 q-129 -150 -132 -407 q2 -239 113 -385 q111 -145 309 -169 l-53 -134 l0 -84 l59 0 q79 0 114 -15 q36 -16 35 -50 q0 -35 -31 -54 q-30 -19 -88 -19 q-29 0 -65 4 q-37 5 -57 10 l0 -108 q31 -9 66 -13 q36 -5 80 -5 q116 1 179 53 q64 51 65 136 q-1 78 -56 120 q-56 42 -159 43 l45 116 q150 17 249 93 q99 77 135 202 l-172 0 q-34 -71 -104 -109 q-70 -37 -174 -37 q-139 2 -221 94 q-82 92 -90 254 l0 8 l775 0 Z" /><glyph glyph-name="" unicode="&#x1e1d;" d="M802 1556 q0 -88 -54 -143 q-54 -55 -156 -57 q-102 2 -156 57 q-54 55 -54 143 l-154 0 q1 -145 97 -235 q95 -90 267 -93 q172 3 268 93 q95 90 96 235 l-154 0 ZM287 628 q11 145 93 230 q81 85 212 87 q130 -2 207 -87 q77 -85 82 -230 l-594 0 ZM1062 489 l0 66 q-2 254 -125 397 q-123 143 -343 145 q-225 -3 -354 -152 q-129 -150 -132 -407 q2 -239 113 -385 q111 -145 309 -169 l-53 -134 l0 -84 l59 0 q79 0 114 -15 q36 -16 35 -50 q0 -35 -31 -54 q-30 -19 -88 -19 q-29 0 -65 4 q-37 5 -57 10 l0 -108 q31 -9 66 -13 q36 -5 80 -5 q116 1 179 53 q64 51 65 136 q-1 78 -56 120 q-56 42 -159 43 l45 116 q150 17 249 93 q99 77 135 202 l-172 0 q-34 -71 -104 -109 q-70 -37 -174 -37 q-139 2 -221 94 q-82 92 -90 254 l0 8 l775 0 Z" /><glyph glyph-name="" unicode="&#x119;" d="M788 -432 q36 0 61 5 q26 5 43 11 l0 134 q-9 -2 -25 -4 q-17 -2 -41 -2 q-44 0 -77 25 q-33 24 -35 73 q1 59 45 115 q44 56 123 119 q65 55 109 120 q44 65 57 115 l-172 0 q-34 -71 -104 -109 q-70 -37 -174 -37 q-139 2 -221 94 q-82 92 -90 254 l0 8 l775 0 l0 66 q-2 254 -125 397 q-123 143 -343 145 q-225 -3 -354 -152 q-129 -150 -132 -407 q2 -259 131 -406 q128 -148 355 -151 q20 0 44 5 q25 4 38 10 l0 -16 q-65 -42 -98 -95 q-33 -53 -33 -113 q1 -88 66 -145 q65 -57 177 -59 l0 0 ZM592 945 q130 -2 207 -87 q77 -85 82 -230 l-594 0 q11 145 93 230 q81 85 212 87 l0 0 Z" /><glyph glyph-name="" unicode="f" d="M234 0 l172 0 l0 934 l247 0 l0 144 l-247 0 l0 100 q0 90 42 132 q41 42 119 41 q26 0 52 -3 q26 -2 44 -6 l0 144 q-31 5 -56 8 q-25 2 -50 2 q-157 1 -239 -74 q-83 -74 -84 -239 l0 -105 l-179 0 l0 -144 l179 0 l0 -934 Z" /><glyph glyph-name="" unicode="&#x1e1f;" d="M234 0 l172 0 l0 934 l247 0 l0 144 l-247 0 l0 100 q0 90 42 132 q41 42 119 41 q26 0 52 -3 q26 -2 44 -6 l0 144 q-31 5 -56 8 q-25 2 -50 2 q-157 1 -239 -74 q-83 -74 -84 -239 l0 -105 l-179 0 l0 -144 l179 0 l0 -934 ZM429 1625 q52 1 86 35 q34 34 35 86 q-1 52 -35 86 q-34 34 -86 35 q-52 -1 -86 -35 q-34 -34 -35 -86 q1 -52 35 -86 q34 -34 86 -35 l0 0 Z" /><glyph glyph-name="" unicode="g" d="M598 168 q-151 2 -231 105 q-80 104 -81 282 q1 178 81 282 q80 103 231 105 q151 -2 235 -105 q84 -104 85 -282 q-1 -178 -85 -282 q-84 -103 -235 -105 l0 0 ZM606 -414 q223 2 350 107 q128 105 130 288 l0 1097 l-164 0 l0 -171 l-16 0 q-48 88 -140 139 q-91 50 -206 51 q-210 -4 -330 -150 q-120 -146 -122 -392 q2 -246 121 -391 q120 -145 331 -148 q112 0 199 48 q87 48 139 138 l16 0 l0 -212 q-1 -120 -82 -187 q-80 -66 -226 -67 q-117 1 -186 40 q-69 38 -84 105 l-182 0 q21 -135 138 -214 q118 -79 314 -81 l0 0 Z" /><glyph glyph-name="" unicode="&#x1f5;" d="M598 168 q-151 2 -231 105 q-80 104 -81 282 q1 178 81 282 q80 103 231 105 q151 -2 235 -105 q84 -104 85 -282 q-1 -178 -85 -282 q-84 -103 -235 -105 l0 0 ZM606 -414 q223 2 350 107 q128 105 130 288 l0 1097 l-164 0 l0 -171 l-16 0 q-48 88 -140 139 q-91 50 -206 51 q-210 -4 -330 -150 q-120 -146 -122 -392 q2 -246 121 -391 q120 -145 331 -148 q112 0 199 48 q87 48 139 138 l16 0 l0 -212 q-1 -120 -82 -187 q-80 -66 -226 -67 q-117 1 -186 40 q-69 38 -84 105 l-182 0 q21 -135 138 -214 q118 -79 314 -81 l0 0 ZM674 1263 l278 338 l-220 0 l-252 -338 l194 0 Z" /><glyph glyph-name="" unicode="&#x1e7;" d="M598 168 q-151 2 -231 105 q-80 104 -81 282 q1 178 81 282 q80 103 231 105 q151 -2 235 -105 q84 -104 85 -282 q-1 -178 -85 -282 q-84 -103 -235 -105 l0 0 ZM606 -414 q223 2 350 107 q128 105 130 288 l0 1097 l-164 0 l0 -171 l-16 0 q-48 88 -140 139 q-91 50 -206 51 q-210 -4 -330 -150 q-120 -146 -122 -392 q2 -246 121 -391 q120 -145 331 -148 q112 0 199 48 q87 48 139 138 l16 0 l0 -212 q-1 -120 -82 -187 q-80 -66 -226 -67 q-117 1 -186 40 q-69 38 -84 105 l-182 0 q21 -135 138 -214 q118 -79 314 -81 l0 0 ZM695 1228 l282 340 l-198 0 l-177 -227 l-16 0 l-177 227 l-198 0 l282 -340 l202 0 Z" /><glyph glyph-name="" unicode="&#x11d;" d="M598 168 q-151 2 -231 105 q-80 104 -81 282 q1 178 81 282 q80 103 231 105 q151 -2 235 -105 q84 -104 85 -282 q-1 -178 -85 -282 q-84 -103 -235 -105 l0 0 ZM606 -414 q223 2 350 107 q128 105 130 288 l0 1097 l-164 0 l0 -171 l-16 0 q-48 88 -140 139 q-91 50 -206 51 q-210 -4 -330 -150 q-120 -146 -122 -392 q2 -246 121 -391 q120 -145 331 -148 q112 0 199 48 q87 48 139 138 l16 0 l0 -212 q-1 -120 -82 -187 q-80 -66 -226 -67 q-117 1 -186 40 q-69 38 -84 105 l-182 0 q21 -135 138 -214 q118 -79 314 -81 l0 0 ZM695 1568 l-202 0 l-282 -340 l198 0 l177 227 l16 0 l177 -227 l198 0 l-282 340 Z" /><glyph glyph-name="" unicode="&#x11f;" d="M598 168 q-151 2 -231 105 q-80 104 -81 282 q1 178 81 282 q80 103 231 105 q151 -2 235 -105 q84 -104 85 -282 q-1 -178 -85 -282 q-84 -103 -235 -105 l0 0 ZM606 -414 q223 2 350 107 q128 105 130 288 l0 1097 l-164 0 l0 -171 l-16 0 q-48 88 -140 139 q-91 50 -206 51 q-210 -4 -330 -150 q-120 -146 -122 -392 q2 -246 121 -391 q120 -145 331 -148 q112 0 199 48 q87 48 139 138 l16 0 l0 -212 q-1 -120 -82 -187 q-80 -66 -226 -67 q-117 1 -186 40 q-69 38 -84 105 l-182 0 q21 -135 138 -214 q118 -79 314 -81 l0 0 ZM228 1556 q1 -145 97 -235 q95 -90 267 -93 q172 3 268 93 q95 90 96 235 l-154 0 q0 -88 -54 -143 q-54 -55 -156 -57 q-102 2 -156 57 q-54 55 -54 143 l-154 0 Z" /><glyph glyph-name="" unicode="&#x1e21;" d="M598 168 q-151 2 -231 105 q-80 104 -81 282 q1 178 81 282 q80 103 231 105 q151 -2 235 -105 q84 -104 85 -282 q-1 -178 -85 -282 q-84 -103 -235 -105 l0 0 ZM606 -414 q223 2 350 107 q128 105 130 288 l0 1097 l-164 0 l0 -171 l-16 0 q-48 88 -140 139 q-91 50 -206 51 q-210 -4 -330 -150 q-120 -146 -122 -392 q2 -246 121 -391 q120 -145 331 -148 q112 0 199 48 q87 48 139 138 l16 0 l0 -212 q-1 -120 -82 -187 q-80 -66 -226 -67 q-117 1 -186 40 q-69 38 -84 105 l-182 0 q21 -135 138 -214 q118 -79 314 -81 l0 0 ZM931 1422 l-674 0 l0 -136 l674 0 l0 136 Z" /><glyph glyph-name="" unicode="&#x121;" d="M598 168 q-151 2 -231 105 q-80 104 -81 282 q1 178 81 282 q80 103 231 105 q151 -2 235 -105 q84 -104 85 -282 q-1 -178 -85 -282 q-84 -103 -235 -105 l0 0 ZM606 -414 q223 2 350 107 q128 105 130 288 l0 1097 l-164 0 l0 -171 l-16 0 q-48 88 -140 139 q-91 50 -206 51 q-210 -4 -330 -150 q-120 -146 -122 -392 q2 -246 121 -391 q120 -145 331 -148 q112 0 199 48 q87 48 139 138 l16 0 l0 -212 q-1 -120 -82 -187 q-80 -66 -226 -67 q-117 1 -186 40 q-69 38 -84 105 l-182 0 q21 -135 138 -214 q118 -79 314 -81 l0 0 ZM594 1287 q54 1 90 38 q37 36 38 90 q-1 54 -38 90 q-36 36 -90 37 q-54 -1 -90 -37 q-37 -36 -38 -90 q1 -54 38 -90 q36 -37 90 -38 l0 0 Z" /><glyph glyph-name="" unicode="&#x123;" d="M598 168 q-151 2 -231 105 q-80 104 -81 282 q1 178 81 282 q80 103 231 105 q151 -2 235 -105 q84 -104 85 -282 q-1 -178 -85 -282 q-84 -103 -235 -105 l0 0 ZM606 -414 q223 2 350 107 q128 105 130 288 l0 1097 l-164 0 l0 -171 l-16 0 q-48 88 -140 139 q-91 50 -206 51 q-210 -4 -330 -150 q-120 -146 -122 -392 q2 -246 121 -391 q120 -145 331 -148 q112 0 199 48 q87 48 139 138 l16 0 l0 -212 q-1 -120 -82 -187 q-80 -66 -226 -67 q-117 1 -186 40 q-69 38 -84 105 l-182 0 q21 -135 138 -214 q118 -79 314 -81 l0 0 ZM604 1663 l-117 -377 l182 0 l102 377 l-167 0 Z" /><glyph glyph-name="" unicode="h" d="M172 0 l172 0 l0 638 q1 138 77 220 q77 82 222 84 q123 0 186 -71 q63 -72 63 -215 l0 -656 l172 0 l0 698 q-2 191 -100 294 q-99 104 -272 105 q-124 -1 -208 -50 q-83 -49 -124 -139 l-16 0 l0 598 l-172 0 l0 -1506 Z" /><glyph glyph-name="" unicode="&#x1e27;" d="M172 0 l172 0 l0 638 q1 138 77 220 q77 82 222 84 q123 0 186 -71 q63 -72 63 -215 l0 -656 l172 0 l0 698 q-2 191 -100 294 q-99 104 -272 105 q-124 -1 -208 -50 q-83 -49 -124 -139 l-16 0 l0 598 l-172 0 l0 -1506 ZM56 1638 q52 1 86 35 q34 34 35 86 q-1 52 -35 86 q-34 34 -86 35 q-52 -1 -86 -35 q-34 -34 -35 -86 q1 -52 35 -86 q34 -34 86 -35 l0 0 ZM460 1638 q52 1 86 35 q34 34 35 86 q-1 52 -35 86 q-34 34 -86 35 q-52 -1 -86 -35 q-34 -34 -35 -86 q1 -52 35 -86 q34 -34 86 -35 l0 0 Z" /><glyph glyph-name="" unicode="&#x21f;" d="M172 0 l172 0 l0 638 q1 138 77 220 q77 82 222 84 q123 0 186 -71 q63 -72 63 -215 l0 -656 l172 0 l0 698 q-2 191 -100 294 q-99 104 -272 105 q-124 -1 -208 -50 q-83 -49 -124 -139 l-16 0 l0 598 l-172 0 l0 -1506 ZM176 1638 l164 0 l300 298 l-202 0 l-172 -177 l-16 0 l-172 177 l-202 0 l300 -298 Z" /><glyph glyph-name="" unicode="&#x125;" d="M172 0 l172 0 l0 638 q1 138 77 220 q77 82 222 84 q123 0 186 -71 q63 -72 63 -215 l0 -656 l172 0 l0 698 q-2 191 -100 294 q-99 104 -272 105 q-124 -1 -208 -50 q-83 -49 -124 -139 l-16 0 l0 598 l-172 0 l0 -1506 ZM176 1936 l-300 -298 l202 0 l172 177 l16 0 l172 -177 l202 0 l-300 298 l-164 0 Z" /><glyph glyph-name="" unicode="&#x1e25;" d="M172 0 l172 0 l0 638 q1 138 77 220 q77 82 222 84 q123 0 186 -71 q63 -72 63 -215 l0 -656 l172 0 l0 698 q-2 191 -100 294 q-99 104 -272 105 q-124 -1 -208 -50 q-83 -49 -124 -139 l-16 0 l0 598 l-172 0 l0 -1506 ZM618 -402 q52 1 86 35 q34 34 35 86 q-1 52 -35 86 q-34 34 -86 35 q-52 -1 -86 -35 q-34 -34 -35 -86 q1 -52 35 -86 q34 -34 86 -35 l0 0 Z" /><glyph glyph-name="" unicode="&#x1e23;" d="M172 0 l172 0 l0 638 q1 138 77 220 q77 82 222 84 q123 0 186 -71 q63 -72 63 -215 l0 -656 l172 0 l0 698 q-2 191 -100 294 q-99 104 -272 105 q-124 -1 -208 -50 q-83 -49 -124 -139 l-16 0 l0 598 l-172 0 l0 -1506 ZM258 1638 q52 1 86 35 q34 34 35 86 q-1 52 -35 86 q-34 34 -86 35 q-52 -1 -86 -35 q-34 -34 -35 -86 q1 -52 35 -86 q34 -34 86 -35 l0 0 Z" /><glyph glyph-name="" unicode="&#x1e2b;" d="M172 0 l172 0 l0 638 q1 138 77 220 q77 82 222 84 q123 0 186 -71 q63 -72 63 -215 l0 -656 l172 0 l0 698 q-2 191 -100 294 q-99 104 -272 105 q-124 -1 -208 -50 q-83 -49 -124 -139 l-16 0 l0 598 l-172 0 l0 -1506 ZM254 -126 q2 -136 97 -216 q96 -80 267 -82 q171 2 267 82 q95 80 97 216 l-154 0 q-1 -80 -56 -126 q-56 -46 -154 -47 q-98 1 -154 47 q-55 46 -56 126 l-154 0 Z" /><glyph glyph-name="" unicode="&#x1e29;" d="M260 -494 q116 1 179 53 q64 51 65 136 q-1 78 -56 120 q-56 42 -159 43 l55 142 l0 638 q1 138 77 220 q77 82 222 84 q123 0 186 -71 q63 -72 63 -215 l0 -656 l172 0 l0 698 q-2 191 -100 294 q-99 104 -272 105 q-124 -1 -208 -50 q-83 -49 -124 -139 l-16 0 l0 598 l-172 0 l0 -1506 l38 0 l-63 -160 l0 -84 l59 0 q79 0 114 -15 q36 -16 35 -50 q0 -35 -31 -54 q-30 -19 -88 -19 q-29 0 -65 4 q-37 5 -57 10 l0 -108 q31 -9 66 -13 q36 -5 80 -5 l0 0 Z" /><glyph glyph-name="" unicode="&#x127;" d="M344 908 l0 369 l260 0 l0 124 l-260 0 l0 105 l-172 0 l0 -105 l-144 0 l0 -124 l144 0 l0 -1277 l172 0 l0 638 q1 138 77 220 q77 82 222 84 q123 0 186 -71 q63 -72 63 -215 l0 -656 l172 0 l0 698 q-2 191 -100 294 q-99 104 -272 105 q-124 -1 -208 -50 q-83 -49 -124 -139 l-16 0 Z" /><glyph glyph-name="" unicode="&#x1e96;" d="M172 0 l172 0 l0 638 q1 138 77 220 q77 82 222 84 q123 0 186 -71 q63 -72 63 -215 l0 -656 l172 0 l0 698 q-2 191 -100 294 q-99 104 -272 105 q-124 -1 -208 -50 q-83 -49 -124 -139 l-16 0 l0 598 l-172 0 l0 -1506 ZM955 -212 l-674 0 l0 -136 l674 0 l0 136 Z" /><glyph glyph-name="" unicode="i" d="M166 0 l172 0 l0 1078 l-172 0 l0 -1078 ZM252 1297 q51 1 85 35 q34 34 35 85 q-1 51 -35 85 q-34 34 -85 35 q-51 -1 -85 -35 q-34 -34 -35 -85 q1 -51 35 -85 q34 -34 85 -35 l0 0 Z" /><glyph glyph-name="" unicode="ì" d="M166 0 l172 0 l0 1078 l-172 0 l0 -1078 ZM374 1263 l-252 338 l-220 0 l278 -338 l194 0 Z" /><glyph glyph-name="" unicode="&#x209;" d="M166 0 l172 0 l0 1078 l-172 0 l0 -1078 ZM171 1263 l-252 338 l-210 0 l280 -338 l182 0 ZM571 1263 l-252 338 l-210 0 l280 -338 l182 0 Z" /><glyph glyph-name="" unicode="í" d="M166 0 l172 0 l0 1078 l-172 0 l0 -1078 ZM332 1263 l278 338 l-220 0 l-252 -338 l194 0 Z" /><glyph glyph-name="" unicode="î" d="M166 0 l172 0 l0 1078 l-172 0 l0 -1078 ZM353 1568 l-202 0 l-282 -340 l198 0 l177 227 l16 0 l177 -227 l198 0 l-282 340 Z" /><glyph glyph-name="" unicode="&#x1d0;" d="M166 0 l172 0 l0 1078 l-172 0 l0 -1078 ZM353 1228 l282 340 l-198 0 l-177 -227 l-16 0 l-177 227 l-198 0 l282 -340 l202 0 Z" /><glyph glyph-name="" unicode="ï" d="M166 0 l172 0 l0 1078 l-172 0 l0 -1078 ZM50 1228 q52 1 86 35 q34 34 35 86 q-1 52 -35 86 q-34 34 -86 35 q-52 -1 -86 -35 q-34 -34 -35 -86 q1 -52 35 -86 q34 -34 86 -35 l0 0 ZM454 1228 q52 1 86 35 q34 34 35 86 q-1 52 -35 86 q-34 34 -86 35 q-52 -1 -86 -35 q-34 -34 -35 -86 q1 -52 35 -86 q34 -34 86 -35 l0 0 Z" /><glyph glyph-name="" unicode="&#x1e2f;" d="M166 0 l172 0 l0 1078 l-172 0 l0 -1078 ZM152 1575 l170 0 l218 298 l-198 0 l-190 -298 ZM50 1228 q52 1 86 35 q34 34 35 86 q-1 52 -35 86 q-34 34 -86 35 q-52 -1 -86 -35 q-34 -34 -35 -86 q1 -52 35 -86 q34 -34 86 -35 l0 0 ZM454 1228 q52 1 86 35 q34 34 35 86 q-1 52 -35 86 q-34 34 -86 35 q-52 -1 -86 -35 q-34 -34 -35 -86 q1 -52 35 -86 q34 -34 86 -35 l0 0 Z" /><glyph glyph-name="" unicode="&#x12d;" d="M166 0 l172 0 l0 1078 l-172 0 l0 -1078 ZM-114 1556 q1 -145 97 -235 q95 -90 267 -93 q172 3 268 93 q95 90 96 235 l-154 0 q0 -88 -54 -143 q-54 -55 -156 -57 q-102 2 -156 57 q-54 55 -54 143 l-154 0 Z" /><glyph glyph-name="" unicode="&#x1ecb;" d="M166 0 l172 0 l0 1078 l-172 0 l0 -1078 ZM252 1297 q51 1 85 35 q34 34 35 85 q-1 51 -35 85 q-34 34 -85 35 q-51 -1 -85 -35 q-34 -34 -35 -85 q1 -51 35 -85 q34 -34 85 -35 l0 0 ZM252 -402 q52 1 86 35 q34 34 35 86 q-1 52 -35 86 q-34 34 -86 35 q-52 -1 -86 -35 q-34 -34 -35 -86 q1 -52 35 -86 q34 -34 86 -35 l0 0 Z" /><glyph glyph-name="" unicode="&#x20b;" d="M166 0 l172 0 l0 1078 l-172 0 l0 -1078 ZM-112 1228 l154 0 q0 88 54 143 q54 55 156 57 q102 -2 156 -57 q54 -55 54 -143 l154 0 q-1 145 -96 235 q-96 90 -268 93 q-172 -3 -267 -93 q-96 -90 -97 -235 l0 0 Z" /></font>
</defs>
</svg>
