<?xml version="1.0" standalone="no"?><!DOCTYPE svg PUBLIC "-//W3C//DTD SVG 1.1//EN" "http://www.w3.org/Graphics/SVG/1.1/DTD/svg11.dtd" ><svg xmlns="http://www.w3.org/2000/svg"><metadata></metadata><defs><font id="SF UI Text Semibold; 12.0d0e2; 2016-05-11" horiz-adv-x="2894"><font-face font-family="SF UI Text" font-weight="600" font-stretch="normal" units-per-em="2048" panose-1="0 0 7 0 0 0 0 0 0 0" ascent="1950" descent="-494" x-height="0" bbox="-616 -571 2756 2215" underline-thickness="169" underline-position="-289" unicode-range="U+0020-f189" /><missing-glyph horiz-adv-x="2048" d="M100 -494 l1848 0 l0 229 l-1848 0 l0 -229 ZM100 -51 l1848 0 l0 229 l-1848 0 l0 -229 ZM100 392 l1848 0 l0 229 l-1848 0 l0 -229 ZM100 835 l1848 0 l0 229 l-1848 0 l0 -229 ZM100 1278 l1848 0 l0 229 l-1848 0 l0 -229 ZM100 1721 l1848 0 l0 229 l-1848 0 l0 -229 Z" /><glyph glyph-name="" unicode=" " d="" /><glyph glyph-name="" unicode="a" d="M1109 0 l277 0 l-513 1443 l-290 0 l-512 -1443 l261 0 l124 369 l531 0 l122 -369 ZM714 1168 l17 0 l196 -595 l-411 0 l198 595 Z" /><glyph glyph-name="" unicode="à" d="M1109 0 l277 0 l-513 1443 l-290 0 l-512 -1443 l261 0 l124 369 l531 0 l122 -369 ZM714 1168 l17 0 l196 -595 l-411 0 l198 595 ZM609 1585 l250 0 l-288 310 l-283 0 l321 -310 Z" /><glyph glyph-name="" unicode="á" d="M1109 0 l277 0 l-513 1443 l-290 0 l-512 -1443 l261 0 l124 369 l531 0 l122 -369 ZM714 1168 l17 0 l196 -595 l-411 0 l198 595 ZM850 1585 l321 310 l-283 0 l-288 -310 l250 0 Z" /><glyph glyph-name="" unicode="ä" d="M1109 0 l277 0 l-513 1443 l-290 0 l-512 -1443 l261 0 l124 369 l531 0 l122 -369 ZM714 1168 l17 0 l196 -595 l-411 0 l198 595 ZM505 1577 q63 1 102 41 q40 39 41 100 q-1 61 -41 101 q-39 39 -102 40 q-62 -1 -102 -40 q-40 -40 -41 -101 q1 -61 41 -100 q40 -40 102 -41 l0 0 ZM950 1577 q63 1 102 41 q40 39 41 100 q-1 61 -41 101 q-39 39 -102 40 q-62 -1 -102 -40 q-40 -40 -41 -101 q1 -61 41 -100 q40 -40 102 -41 l0 0 Z" /><glyph glyph-name="" unicode="&#x1de;" d="M1109 0 l277 0 l-513 1443 l-290 0 l-512 -1443 l261 0 l124 369 l531 0 l122 -369 ZM714 1168 l17 0 l196 -595 l-411 0 l198 595 ZM506 1854 q-62 -1 -101 -39 q-39 -39 -40 -99 q1 -60 40 -99 q39 -38 101 -39 q61 1 100 39 q39 39 40 99 q-1 60 -40 99 q-39 38 -100 39 l0 0 ZM368 2127 l0 -154 l720 0 l0 154 l-720 0 ZM950 1854 q-61 -1 -100 -39 q-39 -39 -40 -99 q1 -60 40 -99 q39 -38 100 -39 q62 1 101 39 q39 39 40 99 q-1 60 -40 99 q-39 38 -101 39 l0 0 Z" /><glyph glyph-name="" unicode="å" d="M1109 0 l277 0 l-513 1443 l-290 0 l-512 -1443 l261 0 l124 369 l531 0 l122 -369 ZM714 1168 l17 0 l196 -595 l-411 0 l198 595 ZM728 1548 q88 2 144 57 q57 55 59 142 q-2 87 -59 141 q-56 55 -144 57 q-87 -2 -144 -57 q-57 -54 -59 -141 q2 -87 59 -142 q57 -55 144 -57 l0 0 ZM728 1649 q-44 1 -71 28 q-27 26 -28 69 q1 44 28 70 q27 27 71 28 q44 -1 71 -28 q27 -26 28 -70 q-1 -42 -28 -69 q-27 -27 -71 -28 l0 0 Z" /><glyph glyph-name="" unicode="&#x1fa;" d="M1109 0 l277 0 l-513 1443 l-290 0 l-512 -1443 l261 0 l124 369 l531 0 l122 -369 ZM714 1168 l17 0 l196 -595 l-411 0 l198 595 ZM728 1532 q91 2 150 59 q59 57 61 147 q-2 90 -61 146 q-59 57 -150 59 q-91 -2 -150 -59 q-59 -56 -61 -146 q2 -90 61 -147 q59 -57 150 -59 l0 0 ZM637 1737 q1 39 26 65 q25 25 65 26 q40 -1 65 -26 q25 -26 26 -65 q-1 -39 -26 -65 q-25 -25 -65 -26 q-40 1 -65 26 q-25 25 -26 65 l0 0 ZM748 2200 l-123 -188 l209 0 l150 188 l-236 0 Z" /><glyph glyph-name="" unicode="ã" d="M1109 0 l277 0 l-513 1443 l-290 0 l-512 -1443 l261 0 l124 369 l531 0 l122 -369 ZM714 1168 l17 0 l196 -595 l-411 0 l198 595 ZM884 1576 q108 1 173 79 q64 78 66 218 l-166 0 q-4 -76 -29 -106 q-25 -29 -61 -28 q-58 9 -116 75 q-57 65 -179 74 q-108 -1 -173 -78 q-64 -77 -66 -221 l166 0 q3 74 27 106 q23 31 63 30 q68 -9 124 -74 q55 -66 171 -75 l0 0 Z" /><glyph glyph-name="" unicode="&#x1eb0;" d="M1109 0 l277 0 l-513 1443 l-290 0 l-512 -1443 l261 0 l124 369 l531 0 l122 -369 ZM714 1168 l17 0 l196 -595 l-411 0 l198 595 ZM1115 1896 l-188 0 q-2 -74 -55 -118 q-52 -44 -144 -45 q-92 1 -144 45 q-53 44 -55 118 l-188 0 q2 -143 104 -229 q102 -87 283 -89 q181 2 283 89 q102 86 104 229 l0 0 ZM856 1906 l-197 243 l-250 0 l234 -243 l213 0 Z" /><glyph glyph-name="" unicode="&#x1e0;" d="M1109 0 l277 0 l-513 1443 l-290 0 l-512 -1443 l261 0 l124 369 l531 0 l122 -369 ZM714 1168 l17 0 l196 -595 l-411 0 l198 595 ZM728 1576 q63 1 102 40 q40 38 41 98 q-1 60 -41 98 q-39 39 -102 40 q-63 -1 -102 -40 q-40 -38 -41 -98 q1 -60 41 -98 q39 -39 102 -40 l0 0 ZM1088 2127 l-720 0 l0 -154 l720 0 l0 154 Z" /><glyph glyph-name="" unicode="&#x1e00;" d="M1109 0 l277 0 l-513 1443 l-290 0 l-512 -1443 l261 0 l124 369 l531 0 l122 -369 ZM714 1168 l17 0 l196 -595 l-411 0 l198 595 ZM721 -571 q104 2 171 67 q67 66 69 169 q-2 103 -69 168 q-67 65 -171 67 q-104 -2 -171 -67 q-68 -65 -70 -168 q2 -103 70 -169 q67 -65 171 -67 l0 0 ZM721 -446 q-50 1 -80 31 q-31 31 -32 79 q1 48 32 79 q30 31 80 32 q49 -1 80 -31 q30 -31 31 -80 q-1 -48 -31 -79 q-31 -30 -80 -31 l0 0 Z" /><glyph glyph-name="" unicode="â" d="M1109 0 l277 0 l-513 1443 l-290 0 l-512 -1443 l261 0 l124 369 l531 0 l122 -369 ZM714 1168 l17 0 l196 -595 l-411 0 l198 595 ZM612 1906 l-290 -321 l242 0 l155 183 l18 0 l155 -183 l242 0 l-290 321 l-232 0 Z" /><glyph glyph-name="" unicode="&#x1eac;" d="M1109 0 l277 0 l-513 1443 l-290 0 l-512 -1443 l261 0 l124 369 l531 0 l122 -369 ZM714 1168 l17 0 l196 -595 l-411 0 l198 595 ZM721 -413 q64 1 104 38 q39 37 40 95 q-1 58 -40 95 q-40 37 -104 38 q-64 -1 -103 -38 q-40 -37 -41 -95 q1 -58 41 -95 q39 -37 103 -38 l0 0 ZM612 1906 l-290 -321 l242 0 l155 183 l18 0 l155 -183 l242 0 l-290 321 l-232 0 Z" /><glyph glyph-name="" unicode="&#x1ea4;" d="M1109 0 l277 0 l-513 1443 l-290 0 l-512 -1443 l261 0 l124 369 l531 0 l122 -369 ZM714 1168 l17 0 l196 -595 l-411 0 l198 595 ZM600 1834 l-284 -256 l254 0 l149 140 l18 0 l149 -140 l254 0 l-284 256 l-256 0 ZM951 1873 l224 0 l224 276 l-252 0 l-196 -276 Z" /><glyph glyph-name="" unicode="&#x1eaa;" d="M1109 0 l277 0 l-513 1443 l-290 0 l-512 -1443 l261 0 l124 369 l531 0 l122 -369 ZM714 1168 l17 0 l196 -595 l-411 0 l198 595 ZM874 1882 q106 2 170 74 q64 71 66 193 l-160 0 q-4 -58 -29 -84 q-24 -26 -60 -26 q-68 8 -115 62 q-48 54 -164 62 q-106 -1 -170 -71 q-64 -70 -66 -193 l160 0 q3 53 27 81 q23 27 62 27 q68 -8 116 -62 q47 -55 163 -63 l0 0 ZM600 1830 l-284 -252 l254 0 l149 140 l18 0 l149 -140 l254 0 l-284 252 l-256 0 Z" /><glyph glyph-name="" unicode="&#x1ea6;" d="M1109 0 l277 0 l-513 1443 l-290 0 l-512 -1443 l261 0 l124 369 l531 0 l122 -369 ZM714 1168 l17 0 l196 -595 l-411 0 l198 595 ZM600 1834 l-284 -256 l254 0 l149 140 l18 0 l149 -140 l254 0 l-284 256 l-256 0 ZM1221 1873 l-196 276 l-252 0 l224 -276 l224 0 Z" /><glyph glyph-name="" unicode="&#x1ea8;" d="M1109 0 l277 0 l-513 1443 l-290 0 l-512 -1443 l261 0 l124 369 l531 0 l122 -369 ZM714 1168 l17 0 l196 -595 l-411 0 l198 595 ZM600 1834 l-284 -256 l254 0 l149 140 l18 0 l149 -140 l254 0 l-284 256 l-256 0 ZM861 2010 q16 7 41 11 q25 4 52 4 q41 0 65 -19 q24 -19 25 -50 q0 -31 -23 -58 q-22 -26 -65 -43 l103 -91 q73 28 113 83 q40 56 41 128 q-1 84 -59 133 q-58 49 -157 50 q-44 0 -80 -5 q-36 -5 -56 -13 l0 -130 Z" /><glyph glyph-name="" unicode="&#x102;" d="M1109 0 l277 0 l-513 1443 l-290 0 l-512 -1443 l261 0 l124 369 l531 0 l122 -369 ZM714 1168 l17 0 l196 -595 l-411 0 l198 595 ZM341 1900 q2 -146 104 -233 q102 -87 283 -89 q181 2 283 89 q102 87 104 233 l-188 0 q-2 -77 -55 -122 q-52 -44 -144 -45 q-92 1 -144 45 q-53 45 -55 122 l-188 0 Z" /><glyph glyph-name="" unicode="&#x1eae;" d="M1109 0 l277 0 l-513 1443 l-290 0 l-512 -1443 l261 0 l124 369 l531 0 l122 -369 ZM714 1168 l17 0 l196 -595 l-411 0 l198 595 ZM341 1896 q2 -143 104 -229 q102 -87 283 -89 q181 2 283 89 q102 86 104 229 l-188 0 q-2 -74 -55 -118 q-52 -44 -144 -45 q-92 1 -144 45 q-53 44 -55 118 l-188 0 ZM600 1906 l213 0 l234 243 l-250 0 l-197 -243 Z" /><glyph glyph-name="" unicode="&#x1eb4;" d="M1109 0 l277 0 l-513 1443 l-290 0 l-512 -1443 l261 0 l124 369 l531 0 l122 -369 ZM714 1168 l17 0 l196 -595 l-411 0 l198 595 ZM353 1841 q2 -106 100 -183 q99 -76 275 -80 q176 4 275 80 q98 77 100 183 l-181 0 q-1 -43 -52 -78 q-51 -34 -142 -36 q-91 2 -142 36 q-51 35 -52 78 l-181 0 ZM881 1891 q103 2 163 70 q60 67 61 175 l-160 0 q-3 -47 -27 -70 q-23 -24 -58 -24 q-67 8 -120 61 q-54 52 -165 60 q-103 -2 -163 -67 q-60 -66 -61 -176 l160 0 q2 43 24 67 q22 25 61 25 q67 -8 120 -60 q54 -53 165 -61 l0 0 Z" /><glyph glyph-name="" unicode="&#x1eb2;" d="M1109 0 l277 0 l-513 1443 l-290 0 l-512 -1443 l261 0 l124 369 l531 0 l122 -369 ZM714 1168 l17 0 l196 -595 l-411 0 l198 595 ZM541 2056 q20 9 46 15 q27 5 55 5 q43 -1 70 -21 q26 -21 27 -55 q0 -33 -25 -61 q-25 -28 -70 -44 l77 -99 q86 33 132 91 q47 58 47 131 q-1 88 -63 139 q-61 51 -167 52 q-39 0 -72 -7 q-33 -7 -57 -18 l0 -128 ZM348 1866 q2 -132 102 -214 q100 -82 278 -84 q178 2 278 84 q100 82 102 214 l-176 0 q-3 -67 -55 -106 q-53 -40 -149 -41 q-96 1 -148 41 q-53 39 -56 106 l-176 0 Z" /><glyph glyph-name="" unicode="&#x1eb6;" d="M1109 0 l277 0 l-513 1443 l-290 0 l-512 -1443 l261 0 l124 369 l531 0 l122 -369 ZM714 1168 l17 0 l196 -595 l-411 0 l198 595 ZM721 -413 q64 1 104 38 q39 37 40 95 q-1 58 -40 95 q-40 37 -104 38 q-64 -1 -103 -38 q-40 -37 -41 -95 q1 -58 41 -95 q39 -37 103 -38 l0 0 ZM341 1900 q2 -146 104 -233 q102 -87 283 -89 q181 2 283 89 q102 87 104 233 l-188 0 q-2 -77 -55 -122 q-52 -44 -144 -45 q-92 1 -144 45 q-53 45 -55 122 l-188 0 Z" /><glyph glyph-name="" unicode="&#x202;" d="M1109 0 l277 0 l-513 1443 l-290 0 l-512 -1443 l261 0 l124 369 l531 0 l122 -369 ZM714 1168 l17 0 l196 -595 l-411 0 l198 595 ZM341 1578 l188 0 q2 77 55 122 q52 44 144 45 q92 -1 144 -45 q53 -45 55 -122 l188 0 q-2 145 -104 233 q-102 87 -283 89 q-181 -2 -283 -89 q-102 -88 -104 -233 l0 0 Z" /><glyph glyph-name="" unicode="&#x1cd;" d="M1109 0 l277 0 l-513 1443 l-290 0 l-512 -1443 l261 0 l124 369 l531 0 l122 -369 ZM714 1168 l17 0 l196 -595 l-411 0 l198 595 ZM617 1585 l222 0 l288 310 l-235 0 l-155 -174 l-18 0 l-155 174 l-235 0 l288 -310 Z" /><glyph glyph-name="" unicode="&#x226;" d="M1109 0 l277 0 l-513 1443 l-290 0 l-512 -1443 l261 0 l124 369 l531 0 l122 -369 ZM714 1168 l17 0 l196 -595 l-411 0 l198 595 ZM728 1578 q63 1 103 42 q40 40 41 102 q-1 63 -41 103 q-40 41 -103 42 q-64 -1 -103 -42 q-40 -40 -41 -103 q1 -62 41 -102 q39 -41 103 -42 l0 0 Z" /><glyph glyph-name="" unicode="&#x1ea0;" d="M1109 0 l277 0 l-513 1443 l-290 0 l-512 -1443 l261 0 l124 369 l531 0 l122 -369 ZM714 1168 l17 0 l196 -595 l-411 0 l198 595 ZM721 -413 q64 1 104 38 q39 37 40 95 q-1 58 -40 95 q-40 37 -104 38 q-64 -1 -103 -38 q-40 -37 -41 -95 q1 -58 41 -95 q39 -37 103 -38 l0 0 Z" /><glyph glyph-name="" unicode="&#x1ea2;" d="M1109 0 l277 0 l-513 1443 l-290 0 l-512 -1443 l261 0 l124 369 l531 0 l122 -369 ZM714 1168 l17 0 l196 -595 l-411 0 l198 595 ZM533 1809 q20 9 49 15 q29 5 62 5 q47 -1 75 -21 q28 -21 29 -55 q-1 -33 -30 -61 q-29 -28 -77 -44 l85 -108 q89 33 140 95 q52 61 53 140 q-1 93 -66 145 q-64 53 -174 54 q-44 0 -82 -7 q-39 -7 -64 -16 l0 -142 Z" /><glyph glyph-name="" unicode="&#x200;" d="M1109 0 l277 0 l-513 1443 l-290 0 l-512 -1443 l261 0 l124 369 l531 0 l122 -369 ZM714 1168 l17 0 l196 -595 l-411 0 l198 595 ZM838 1585 l229 0 l-273 310 l-254 0 l298 -310 ZM409 1585 l230 0 l-273 310 l-254 0 l297 -310 Z" /><glyph glyph-name="" unicode="&#x100;" d="M1109 0 l277 0 l-513 1443 l-290 0 l-512 -1443 l261 0 l124 369 l531 0 l122 -369 ZM714 1168 l17 0 l196 -595 l-411 0 l198 595 ZM1088 1792 l-720 0 l0 -164 l720 0 l0 164 Z" /><glyph glyph-name="" unicode="&#x104;" d="M714 1168 l17 0 l196 -595 l-411 0 l198 595 ZM1335 -434 l0 154 q-8 -2 -26 -5 q-18 -2 -42 -2 q-51 0 -83 25 q-32 25 -33 72 q3 67 63 114 q60 48 136 71 l36 5 l-513 1443 l-290 0 l-512 -1443 l261 0 l124 369 l531 0 l123 -371 q-73 -39 -118 -101 q-45 -62 -46 -134 q2 -95 72 -155 q70 -60 191 -62 q49 0 79 7 q30 6 47 13 l0 0 Z" /><glyph glyph-name="" unicode="b" d="M795 0 q233 2 364 110 q130 108 132 300 q-2 143 -91 237 q-89 93 -237 109 l0 18 q111 20 183 106 q72 86 74 203 q-2 168 -117 263 q-115 95 -322 97 l-603 0 l0 -1443 l617 0 ZM436 1238 l282 0 q118 -1 182 -53 q64 -52 65 -148 q0 -98 -71 -149 q-71 -52 -209 -52 l-249 0 l0 402 ZM436 205 l0 445 l290 0 q148 0 224 -56 q77 -56 77 -164 q0 -111 -74 -168 q-74 -57 -217 -57 l-300 0 Z" /><glyph glyph-name="" unicode="&#x1e06;" d="M795 0 q233 2 364 110 q130 108 132 300 q-2 143 -91 237 q-89 93 -237 109 l0 18 q111 20 183 106 q72 86 74 203 q-2 168 -117 263 q-115 95 -322 97 l-603 0 l0 -1443 l617 0 ZM436 1238 l282 0 q118 -1 182 -53 q64 -52 65 -148 q0 -98 -71 -149 q-71 -52 -209 -52 l-249 0 l0 402 ZM436 205 l0 445 l290 0 q148 0 224 -56 q77 -56 77 -164 q0 -111 -74 -168 q-74 -57 -217 -57 l-300 0 ZM989 -218 l-720 0 l0 -164 l720 0 l0 164 Z" /><glyph glyph-name="" unicode="&#x1e04;" d="M629 -413 q64 1 104 38 q39 37 40 95 q-1 58 -40 95 q-40 37 -104 38 q-64 -1 -103 -38 q-40 -37 -41 -95 q1 -58 41 -95 q39 -37 103 -38 l0 0 ZM795 0 q233 2 364 110 q130 108 132 300 q-2 143 -91 237 q-89 93 -237 109 l0 18 q111 20 183 106 q72 86 74 203 q-2 168 -117 263 q-115 95 -322 97 l-603 0 l0 -1443 l617 0 ZM436 1238 l282 0 q118 -1 182 -53 q64 -52 65 -148 q0 -98 -71 -149 q-71 -52 -209 -52 l-249 0 l0 402 ZM436 205 l0 445 l290 0 q148 0 224 -56 q77 -56 77 -164 q0 -111 -74 -168 q-74 -57 -217 -57 l-300 0 Z" /><glyph glyph-name="" unicode="&#x1e02;" d="M628 1578 q63 1 103 42 q40 40 41 102 q-1 63 -41 103 q-40 41 -103 42 q-64 -1 -103 -42 q-40 -40 -41 -103 q1 -62 41 -102 q39 -41 103 -42 l0 0 ZM795 0 q233 2 364 110 q130 108 132 300 q-2 143 -91 237 q-89 93 -237 109 l0 18 q111 20 183 106 q72 86 74 203 q-2 168 -117 263 q-115 95 -322 97 l-603 0 l0 -1443 l617 0 ZM436 1238 l282 0 q118 -1 182 -53 q64 -52 65 -148 q0 -98 -71 -149 q-71 -52 -209 -52 l-249 0 l0 402 ZM436 205 l0 445 l290 0 q148 0 224 -56 q77 -56 77 -164 q0 -111 -74 -168 q-74 -57 -217 -57 l-300 0 Z" /><glyph glyph-name="" unicode="c" d="M780 -36 q254 3 418 136 q164 134 193 358 l-254 0 q-28 -123 -123 -193 q-95 -70 -234 -71 q-186 2 -292 142 q-105 139 -107 386 q2 246 107 385 q105 140 291 142 q138 -2 233 -78 q95 -76 124 -207 l254 0 q-27 230 -194 370 q-166 141 -417 145 q-310 -3 -484 -203 q-175 -200 -178 -555 q3 -354 178 -554 q175 -199 485 -203 l0 0 Z" /><glyph glyph-name="" unicode="&#x106;" d="M901 1587 l321 310 l-283 0 l-288 -310 l250 0 ZM780 -36 q254 3 418 136 q164 134 193 358 l-254 0 q-28 -123 -123 -193 q-95 -70 -234 -71 q-186 2 -292 142 q-105 139 -107 386 q2 246 107 385 q105 140 291 142 q138 -2 233 -78 q95 -76 124 -207 l254 0 q-27 230 -194 370 q-166 141 -417 145 q-310 -3 -484 -203 q-175 -200 -178 -555 q3 -354 178 -554 q175 -199 485 -203 l0 0 Z" /><glyph glyph-name="" unicode="&#x10c;" d="M780 -36 q254 3 418 136 q164 134 193 358 l-254 0 q-28 -123 -123 -193 q-95 -70 -234 -71 q-186 2 -292 142 q-105 139 -107 386 q2 246 107 385 q105 140 291 142 q138 -2 233 -78 q95 -76 124 -207 l254 0 q-27 230 -194 370 q-166 141 -417 145 q-310 -3 -484 -203 q-175 -200 -178 -555 q3 -354 178 -554 q175 -199 485 -203 l0 0 ZM668 1587 l222 0 l288 310 l-235 0 l-155 -174 l-18 0 l-155 174 l-235 0 l288 -310 Z" /><glyph glyph-name="" unicode="&#x108;" d="M780 -36 q254 3 418 136 q164 134 193 358 l-254 0 q-28 -123 -123 -193 q-95 -70 -234 -71 q-186 2 -292 142 q-105 139 -107 386 q2 246 107 385 q105 140 291 142 q138 -2 233 -78 q95 -76 124 -207 l254 0 q-27 230 -194 370 q-166 141 -417 145 q-310 -3 -484 -203 q-175 -200 -178 -555 q3 -354 178 -554 q175 -199 485 -203 l0 0 ZM663 1908 l-290 -321 l242 0 l155 183 l18 0 l155 -183 l242 0 l-290 321 l-232 0 Z" /><glyph glyph-name="" unicode="&#x10a;" d="M779 1580 q63 1 103 42 q40 40 41 102 q-1 63 -41 103 q-40 41 -103 42 q-64 -1 -103 -42 q-40 -40 -41 -103 q1 -62 41 -102 q39 -41 103 -42 l0 0 ZM780 -36 q254 3 418 136 q164 134 193 358 l-254 0 q-28 -123 -123 -193 q-95 -70 -234 -71 q-186 2 -292 142 q-105 139 -107 386 q2 246 107 385 q105 140 291 142 q138 -2 233 -78 q95 -76 124 -207 l254 0 q-27 230 -194 370 q-166 141 -417 145 q-310 -3 -484 -203 q-175 -200 -178 -555 q3 -354 178 -554 q175 -199 485 -203 l0 0 Z" /><glyph glyph-name="" unicode="ç" d="M1137 458 q-28 -123 -123 -193 q-95 -70 -234 -71 q-186 2 -292 142 q-105 139 -107 386 q2 246 107 385 q105 140 291 142 q138 -2 233 -78 q95 -76 124 -207 l254 0 q-27 230 -194 370 q-166 141 -417 145 q-310 -3 -484 -203 q-175 -200 -178 -555 q3 -328 154 -524 q152 -197 423 -229 l-41 -100 l0 -104 l59 0 q72 0 105 -14 q33 -14 32 -45 q0 -32 -29 -48 q-29 -16 -85 -16 q-30 0 -65 4 q-35 5 -53 10 l0 -125 q29 -8 66 -13 q36 -5 80 -5 q124 1 191 54 q67 53 68 145 q0 80 -53 124 q-52 45 -150 48 l34 84 q224 23 368 153 q144 131 170 338 l-254 0 Z" /><glyph glyph-name="" unicode="&#x1e08;" d="M1222 1897 l-283 0 l-288 -310 l250 0 l321 310 ZM1137 458 q-28 -123 -123 -193 q-95 -70 -234 -71 q-186 2 -292 142 q-105 139 -107 386 q2 246 107 385 q105 140 291 142 q138 -2 233 -78 q95 -76 124 -207 l254 0 q-27 230 -194 370 q-166 141 -417 145 q-310 -3 -484 -203 q-175 -200 -178 -555 q3 -328 154 -524 q152 -197 423 -229 l-41 -100 l0 -104 l59 0 q72 0 105 -14 q33 -14 32 -45 q0 -32 -29 -48 q-29 -16 -85 -16 q-30 0 -65 4 q-35 5 -53 10 l0 -125 q29 -8 66 -13 q36 -5 80 -5 q124 1 191 54 q67 53 68 145 q0 80 -53 124 q-52 45 -150 48 l34 84 q224 23 368 153 q144 131 170 338 l-254 0 Z" /><glyph glyph-name="" unicode="d" d="M178 1443 l0 -1443 l541 0 q326 2 502 190 q175 189 177 538 q-2 342 -179 527 q-176 186 -500 188 l-541 0 ZM436 1220 l249 0 q214 -1 331 -130 q117 -128 119 -366 q-1 -243 -117 -371 q-117 -129 -333 -130 l-249 0 l0 997 Z" /><glyph glyph-name="" unicode="&#x1e0a;" d="M623 1578 q63 1 103 42 q40 40 41 102 q-1 63 -41 103 q-40 41 -103 42 q-64 -1 -103 -42 q-40 -40 -41 -103 q1 -62 41 -102 q39 -41 103 -42 l0 0 ZM178 1443 l0 -1443 l541 0 q326 2 502 190 q175 189 177 538 q-2 342 -179 527 q-176 186 -500 188 l-541 0 ZM436 1220 l249 0 q214 -1 331 -130 q117 -128 119 -366 q-1 -243 -117 -371 q-117 -129 -333 -130 l-249 0 l0 997 Z" /><glyph glyph-name="" unicode="&#x1e12;" d="M178 1443 l0 -1443 l541 0 q326 2 502 190 q175 189 177 538 q-2 342 -179 527 q-176 186 -500 188 l-541 0 ZM436 1220 l249 0 q214 -1 331 -130 q117 -128 119 -366 q-1 -243 -117 -371 q-117 -129 -333 -130 l-249 0 l0 997 ZM747 -148 l-248 0 l-291 -284 l254 0 l152 160 l18 0 l152 -160 l254 0 l-291 284 Z" /><glyph glyph-name="" unicode="&#x1e10;" d="M620 -512 l149 364 l-253 0 l-121 -364 l225 0 ZM178 1443 l0 -1443 l541 0 q326 2 502 190 q175 189 177 538 q-2 342 -179 527 q-176 186 -500 188 l-541 0 ZM436 1220 l249 0 q214 -1 331 -130 q117 -128 119 -366 q-1 -243 -117 -371 q-117 -129 -333 -130 l-249 0 l0 997 Z" /><glyph glyph-name="" unicode="&#x1e0e;" d="M983 -218 l-720 0 l0 -164 l720 0 l0 164 ZM178 1443 l0 -1443 l541 0 q326 2 502 190 q175 189 177 538 q-2 342 -179 527 q-176 186 -500 188 l-541 0 ZM436 1220 l249 0 q214 -1 331 -130 q117 -128 119 -366 q-1 -243 -117 -371 q-117 -129 -333 -130 l-249 0 l0 997 Z" /><glyph glyph-name="" unicode="&#x10e;" d="M512 1585 l222 0 l288 310 l-235 0 l-155 -174 l-18 0 l-155 174 l-235 0 l288 -310 ZM178 1443 l0 -1443 l541 0 q326 2 502 190 q175 189 177 538 q-2 342 -179 527 q-176 186 -500 188 l-541 0 ZM436 1220 l249 0 q214 -1 331 -130 q117 -128 119 -366 q-1 -243 -117 -371 q-117 -129 -333 -130 l-249 0 l0 997 Z" /><glyph glyph-name="" unicode="&#x1e0c;" d="M623 -413 q64 1 104 38 q39 37 40 95 q-1 58 -40 95 q-40 37 -104 38 q-64 -1 -103 -38 q-40 -37 -41 -95 q1 -58 41 -95 q39 -37 103 -38 l0 0 ZM178 1443 l0 -1443 l541 0 q326 2 502 190 q175 189 177 538 q-2 342 -179 527 q-176 186 -500 188 l-541 0 ZM436 1220 l249 0 q214 -1 331 -130 q117 -128 119 -366 q-1 -243 -117 -371 q-117 -129 -333 -130 l-249 0 l0 997 Z" /><glyph glyph-name="" unicode="&#x110;" d="M439 223 l0 411 l232 0 l0 204 l-232 0 l0 382 l249 0 q214 -1 331 -130 q117 -128 119 -366 q-1 -243 -117 -371 q-117 -129 -333 -130 l-249 0 ZM181 1443 l0 -605 l-140 0 l0 -204 l140 0 l0 -634 l541 0 q326 2 502 190 q175 189 177 538 q-2 342 -179 527 q-176 186 -500 188 l-541 0 Z" /><glyph glyph-name="" unicode="e" d="M1112 223 l-676 0 l0 404 l639 0 l0 210 l-639 0 l0 383 l676 0 l0 223 l-934 0 l0 -1443 l934 0 l0 223 Z" /><glyph glyph-name="" unicode="è" d="M526 1585 l250 0 l-288 310 l-283 0 l321 -310 ZM1112 223 l-676 0 l0 404 l639 0 l0 210 l-639 0 l0 383 l676 0 l0 223 l-934 0 l0 -1443 l934 0 l0 223 Z" /><glyph glyph-name="" unicode="&#x204;" d="M755 1585 l229 0 l-273 310 l-254 0 l298 -310 ZM326 1585 l230 0 l-273 310 l-254 0 l297 -310 ZM1112 223 l-676 0 l0 404 l639 0 l0 210 l-639 0 l0 383 l676 0 l0 223 l-934 0 l0 -1443 l934 0 l0 223 Z" /><glyph glyph-name="" unicode="é" d="M767 1585 l321 310 l-283 0 l-288 -310 l250 0 ZM1112 223 l-676 0 l0 404 l639 0 l0 210 l-639 0 l0 383 l676 0 l0 223 l-934 0 l0 -1443 l934 0 l0 223 Z" /><glyph glyph-name="" unicode="ê" d="M529 1906 l-290 -321 l242 0 l155 183 l18 0 l155 -183 l242 0 l-290 321 l-232 0 ZM1112 223 l-676 0 l0 404 l639 0 l0 210 l-639 0 l0 383 l676 0 l0 223 l-934 0 l0 -1443 l934 0 l0 223 Z" /><glyph glyph-name="" unicode="&#x1ec2;" d="M1112 223 l-676 0 l0 404 l639 0 l0 210 l-639 0 l0 383 l676 0 l0 223 l-934 0 l0 -1443 l934 0 l0 223 ZM517 1834 l-284 -256 l254 0 l149 140 l18 0 l149 -140 l254 0 l-284 256 l-256 0 ZM778 2010 q16 7 41 11 q25 4 52 4 q41 0 65 -19 q24 -19 25 -50 q0 -31 -23 -58 q-22 -26 -65 -43 l103 -91 q73 28 113 83 q40 56 41 128 q-1 84 -59 133 q-58 49 -157 50 q-44 0 -80 -5 q-36 -5 -56 -13 l0 -130 Z" /><glyph glyph-name="" unicode="&#x1ec0;" d="M1112 223 l-676 0 l0 404 l639 0 l0 210 l-639 0 l0 383 l676 0 l0 223 l-934 0 l0 -1443 l934 0 l0 223 ZM517 1834 l-284 -256 l254 0 l149 140 l18 0 l149 -140 l254 0 l-284 256 l-256 0 ZM1138 1873 l-196 276 l-252 0 l224 -276 l224 0 Z" /><glyph glyph-name="" unicode="&#x1ec4;" d="M791 1882 q106 2 170 74 q64 71 66 193 l-160 0 q-4 -58 -29 -84 q-24 -26 -60 -26 q-68 8 -115 62 q-48 54 -164 62 q-106 -1 -170 -71 q-64 -70 -66 -193 l160 0 q3 53 27 81 q23 27 62 27 q68 -8 116 -62 q47 -55 163 -63 l0 0 ZM517 1830 l-284 -252 l254 0 l149 140 l18 0 l149 -140 l254 0 l-284 252 l-256 0 ZM1112 223 l-676 0 l0 404 l639 0 l0 210 l-639 0 l0 383 l676 0 l0 223 l-934 0 l0 -1443 l934 0 l0 223 Z" /><glyph glyph-name="" unicode="&#x1ec6;" d="M645 -413 q64 1 104 38 q39 37 40 95 q-1 58 -40 95 q-40 37 -104 38 q-64 -1 -103 -38 q-40 -37 -41 -95 q1 -58 41 -95 q39 -37 103 -38 l0 0 ZM529 1906 l-290 -321 l242 0 l155 183 l18 0 l155 -183 l242 0 l-290 321 l-232 0 ZM1112 223 l-676 0 l0 404 l639 0 l0 210 l-639 0 l0 383 l676 0 l0 223 l-934 0 l0 -1443 l934 0 l0 223 Z" /><glyph glyph-name="" unicode="&#x1ebe;" d="M1112 223 l-676 0 l0 404 l639 0 l0 210 l-639 0 l0 383 l676 0 l0 223 l-934 0 l0 -1443 l934 0 l0 223 ZM517 1834 l-284 -256 l254 0 l149 140 l18 0 l149 -140 l254 0 l-284 256 l-256 0 ZM868 1873 l224 0 l224 276 l-252 0 l-196 -276 Z" /><glyph glyph-name="" unicode="ë" d="M422 1577 q63 1 102 41 q40 39 41 100 q-1 61 -41 101 q-39 39 -102 40 q-62 -1 -102 -40 q-40 -40 -41 -101 q1 -61 41 -100 q40 -40 102 -41 l0 0 ZM867 1577 q63 1 102 41 q40 39 41 100 q-1 61 -41 101 q-39 39 -102 40 q-62 -1 -102 -40 q-40 -40 -41 -101 q1 -61 41 -100 q40 -40 102 -41 l0 0 ZM1112 223 l-676 0 l0 404 l639 0 l0 210 l-639 0 l0 383 l676 0 l0 223 l-934 0 l0 -1443 l934 0 l0 223 Z" /><glyph glyph-name="" unicode="&#x1eb8;" d="M645 -413 q64 1 104 38 q39 37 40 95 q-1 58 -40 95 q-40 37 -104 38 q-64 -1 -103 -38 q-40 -37 -41 -95 q1 -58 41 -95 q39 -37 103 -38 l0 0 ZM1112 223 l-676 0 l0 404 l639 0 l0 210 l-639 0 l0 383 l676 0 l0 223 l-934 0 l0 -1443 l934 0 l0 223 Z" /><glyph glyph-name="" unicode="&#x206;" d="M1112 223 l-676 0 l0 404 l639 0 l0 210 l-639 0 l0 383 l676 0 l0 223 l-934 0 l0 -1443 l934 0 l0 223 ZM258 1578 l188 0 q2 77 55 122 q52 44 144 45 q92 -1 144 -45 q53 -45 55 -122 l188 0 q-2 145 -104 233 q-102 87 -283 89 q-181 -2 -283 -89 q-102 -88 -104 -233 l0 0 Z" /><glyph glyph-name="" unicode="&#x1eba;" d="M1112 223 l-676 0 l0 404 l639 0 l0 210 l-639 0 l0 383 l676 0 l0 223 l-934 0 l0 -1443 l934 0 l0 223 ZM450 1809 q20 9 49 15 q29 5 62 5 q47 -1 75 -21 q28 -21 29 -55 q-1 -33 -30 -61 q-29 -28 -77 -44 l85 -108 q89 33 140 95 q52 61 53 140 q-1 93 -66 145 q-64 53 -174 54 q-44 0 -82 -7 q-39 -7 -64 -16 l0 -142 Z" /><glyph glyph-name="" unicode="&#x11a;" d="M534 1585 l222 0 l288 310 l-235 0 l-155 -174 l-18 0 l-155 174 l-235 0 l288 -310 ZM1112 223 l-676 0 l0 404 l639 0 l0 210 l-639 0 l0 383 l676 0 l0 223 l-934 0 l0 -1443 l934 0 l0 223 Z" /><glyph glyph-name="" unicode="&#x112;" d="M1112 223 l-676 0 l0 404 l639 0 l0 210 l-639 0 l0 383 l676 0 l0 223 l-934 0 l0 -1443 l934 0 l0 223 ZM1005 1792 l-720 0 l0 -164 l720 0 l0 164 Z" /><glyph glyph-name="" unicode="&#x1e14;" d="M285 1614 l720 0 l0 161 l-720 0 l0 -161 ZM761 1900 l-181 249 l-260 0 l209 -249 l232 0 ZM1112 223 l-676 0 l0 404 l639 0 l0 210 l-639 0 l0 383 l676 0 l0 223 l-934 0 l0 -1443 l934 0 l0 223 Z" /><glyph glyph-name="" unicode="&#x1e16;" d="M1005 1613 l0 161 l-720 0 l0 -161 l720 0 ZM529 1899 l232 0 l209 249 l-260 0 l-181 -249 ZM1112 223 l-676 0 l0 404 l639 0 l0 210 l-639 0 l0 383 l676 0 l0 223 l-934 0 l0 -1443 l934 0 l0 223 Z" /><glyph glyph-name="" unicode="&#x1ebc;" d="M1112 223 l-676 0 l0 404 l639 0 l0 210 l-639 0 l0 383 l676 0 l0 223 l-934 0 l0 -1443 l934 0 l0 223 ZM801 1576 q108 1 173 79 q64 78 66 218 l-166 0 q-4 -76 -29 -106 q-25 -29 -61 -28 q-58 9 -116 75 q-57 65 -179 74 q-108 -1 -173 -78 q-64 -77 -66 -221 l166 0 q3 74 27 106 q23 31 63 30 q68 -9 124 -74 q55 -66 171 -75 l0 0 Z" /><glyph glyph-name="" unicode="&#x1e18;" d="M1112 223 l-676 0 l0 404 l639 0 l0 210 l-639 0 l0 383 l676 0 l0 223 l-934 0 l0 -1443 l934 0 l0 223 ZM769 -148 l-248 0 l-291 -284 l254 0 l152 160 l18 0 l152 -160 l254 0 l-291 284 Z" /><glyph glyph-name="" unicode="&#x114;" d="M1112 223 l-676 0 l0 404 l639 0 l0 210 l-639 0 l0 383 l676 0 l0 223 l-934 0 l0 -1443 l934 0 l0 223 ZM258 1900 q2 -146 104 -233 q102 -87 283 -89 q181 2 283 89 q102 87 104 233 l-188 0 q-2 -77 -55 -122 q-52 -44 -144 -45 q-92 1 -144 45 q-53 45 -55 122 l-188 0 Z" /><glyph glyph-name="" unicode="&#x1e1a;" d="M801 -426 q108 1 173 75 q64 74 66 211 l-165 0 q-4 -74 -29 -101 q-25 -27 -60 -26 q-60 9 -118 73 q-58 63 -179 72 q-108 0 -173 -73 q-64 -74 -66 -215 l166 0 q3 72 26 101 q23 29 62 28 q70 -9 126 -72 q56 -64 171 -73 l0 0 ZM1112 223 l-676 0 l0 404 l639 0 l0 210 l-639 0 l0 383 l676 0 l0 223 l-934 0 l0 -1443 l934 0 l0 223 Z" /><glyph glyph-name="" unicode="&#x116;" d="M645 1578 q63 1 103 42 q40 40 41 102 q-1 63 -41 103 q-40 41 -103 42 q-64 -1 -103 -42 q-40 -40 -41 -103 q1 -62 41 -102 q39 -41 103 -42 l0 0 ZM1112 223 l-676 0 l0 404 l639 0 l0 210 l-639 0 l0 383 l676 0 l0 223 l-934 0 l0 -1443 l934 0 l0 223 Z" /><glyph glyph-name="" unicode="&#x228;" d="M1112 1220 l0 223 l-934 0 l0 -1443 l395 0 l-54 -132 l0 -104 l59 0 q72 0 105 -14 q33 -14 32 -45 q0 -32 -29 -48 q-29 -16 -85 -16 q-30 0 -65 4 q-35 5 -53 10 l0 -125 q29 -8 66 -13 q36 -5 80 -5 q124 1 191 54 q67 53 68 145 q0 80 -53 124 q-52 45 -150 48 l47 117 l380 0 l0 223 l-676 0 l0 404 l639 0 l0 210 l-639 0 l0 383 l676 0 Z" /><glyph glyph-name="" unicode="&#x1e1c;" d="M844 1900 q-2 -77 -55 -122 q-52 -44 -144 -45 q-92 1 -144 45 q-53 45 -55 122 l-188 0 q2 -146 104 -233 q102 -87 283 -89 q181 2 283 89 q102 87 104 233 l-188 0 ZM1112 1220 l0 223 l-934 0 l0 -1443 l395 0 l-54 -132 l0 -104 l59 0 q72 0 105 -14 q33 -14 32 -45 q0 -32 -29 -48 q-29 -16 -85 -16 q-30 0 -65 4 q-35 5 -53 10 l0 -125 q29 -8 66 -13 q36 -5 80 -5 q124 1 191 54 q67 53 68 145 q0 80 -53 124 q-52 45 -150 48 l47 117 l380 0 l0 223 l-676 0 l0 404 l639 0 l0 210 l-639 0 l0 383 l676 0 Z" /><glyph glyph-name="" unicode="&#x118;" d="M936 -454 q49 0 79 7 q30 6 47 13 l0 154 q-8 -2 -26 -5 q-18 -2 -42 -2 q-51 0 -83 25 q-32 25 -33 72 q3 67 60 115 q57 48 129 70 l45 13 l0 215 l-676 0 l0 404 l639 0 l0 210 l-639 0 l0 383 l676 0 l0 223 l-934 0 l0 -1443 l636 0 l0 -17 q-63 -35 -102 -93 q-38 -58 -39 -127 q2 -95 72 -155 q70 -60 191 -62 l0 0 Z" /><glyph glyph-name="" unicode="f" d="M436 0 l0 585 l605 0 l0 215 l-605 0 l0 420 l662 0 l0 223 l-920 0 l0 -1443 l258 0 Z" /><glyph glyph-name="" unicode="&#x1e1e;" d="M638 1578 q63 1 103 42 q40 40 41 102 q-1 63 -41 103 q-40 41 -103 42 q-64 -1 -103 -42 q-40 -40 -41 -103 q1 -62 41 -102 q39 -41 103 -42 l0 0 ZM436 0 l0 585 l605 0 l0 215 l-605 0 l0 420 l662 0 l0 223 l-920 0 l0 -1443 l258 0 Z" /><glyph glyph-name="" unicode="g" d="M1426 578 l0 181 l-599 0 l0 -202 l347 0 l-1 -30 q-5 -151 -106 -241 q-101 -90 -268 -92 q-195 2 -305 142 q-111 140 -113 388 q2 245 111 384 q108 139 299 141 q139 -1 233 -66 q93 -65 133 -189 l257 0 q-38 224 -204 353 q-166 129 -419 132 q-312 -4 -491 -205 q-179 -201 -183 -552 q3 -354 182 -554 q179 -200 496 -204 q292 3 460 166 q168 164 171 448 l0 0 Z" /><glyph glyph-name="" unicode="&#x1f4;" d="M913 1586 l321 310 l-283 0 l-288 -310 l250 0 ZM1426 578 l0 181 l-599 0 l0 -202 l347 0 l-1 -30 q-5 -151 -106 -241 q-101 -90 -268 -92 q-195 2 -305 142 q-111 140 -113 388 q2 245 111 384 q108 139 299 141 q139 -1 233 -66 q93 -65 133 -189 l257 0 q-38 224 -204 353 q-166 129 -419 132 q-312 -4 -491 -205 q-179 -201 -183 -552 q3 -354 182 -554 q179 -200 496 -204 q292 3 460 166 q168 164 171 448 l0 0 Z" /><glyph glyph-name="" unicode="&#x1e6;" d="M680 1586 l222 0 l288 310 l-235 0 l-155 -174 l-18 0 l-155 174 l-235 0 l288 -310 ZM1426 578 l0 181 l-599 0 l0 -202 l347 0 l-1 -30 q-5 -151 -106 -241 q-101 -90 -268 -92 q-195 2 -305 142 q-111 140 -113 388 q2 245 111 384 q108 139 299 141 q139 -1 233 -66 q93 -65 133 -189 l257 0 q-38 224 -204 353 q-166 129 -419 132 q-312 -4 -491 -205 q-179 -201 -183 -552 q3 -354 182 -554 q179 -200 496 -204 q292 3 460 166 q168 164 171 448 l0 0 Z" /><glyph glyph-name="" unicode="&#x11c;" d="M675 1907 l-290 -321 l242 0 l155 183 l18 0 l155 -183 l242 0 l-290 321 l-232 0 ZM1426 578 l0 181 l-599 0 l0 -202 l347 0 l-1 -30 q-5 -151 -106 -241 q-101 -90 -268 -92 q-195 2 -305 142 q-111 140 -113 388 q2 245 111 384 q108 139 299 141 q139 -1 233 -66 q93 -65 133 -189 l257 0 q-38 224 -204 353 q-166 129 -419 132 q-312 -4 -491 -205 q-179 -201 -183 -552 q3 -354 182 -554 q179 -200 496 -204 q292 3 460 166 q168 164 171 448 l0 0 Z" /><glyph glyph-name="" unicode="&#x11e;" d="M1426 578 l0 181 l-599 0 l0 -202 l347 0 l-1 -30 q-5 -151 -106 -241 q-101 -90 -268 -92 q-195 2 -305 142 q-111 140 -113 388 q2 245 111 384 q108 139 299 141 q139 -1 233 -66 q93 -65 133 -189 l257 0 q-38 224 -204 353 q-166 129 -419 132 q-312 -4 -491 -205 q-179 -201 -183 -552 q3 -354 182 -554 q179 -200 496 -204 q292 3 460 166 q168 164 171 448 l0 0 ZM404 1901 q2 -146 104 -233 q102 -87 283 -89 q181 2 283 89 q102 87 104 233 l-188 0 q-2 -77 -55 -122 q-52 -44 -144 -45 q-92 1 -144 45 q-53 45 -55 122 l-188 0 Z" /><glyph glyph-name="" unicode="&#x1e20;" d="M1426 578 l0 181 l-599 0 l0 -202 l347 0 l-1 -30 q-5 -151 -106 -241 q-101 -90 -268 -92 q-195 2 -305 142 q-111 140 -113 388 q2 245 111 384 q108 139 299 141 q139 -1 233 -66 q93 -65 133 -189 l257 0 q-38 224 -204 353 q-166 129 -419 132 q-312 -4 -491 -205 q-179 -201 -183 -552 q3 -354 182 -554 q179 -200 496 -204 q292 3 460 166 q168 164 171 448 l0 0 ZM1151 1793 l-720 0 l0 -164 l720 0 l0 164 Z" /><glyph glyph-name="" unicode="&#x120;" d="M791 1579 q63 1 103 42 q40 40 41 102 q-1 63 -41 103 q-40 41 -103 42 q-64 -1 -103 -42 q-40 -40 -41 -103 q1 -62 41 -102 q39 -41 103 -42 l0 0 ZM1426 578 l0 181 l-599 0 l0 -202 l347 0 l-1 -30 q-5 -151 -106 -241 q-101 -90 -268 -92 q-195 2 -305 142 q-111 140 -113 388 q2 245 111 384 q108 139 299 141 q139 -1 233 -66 q93 -65 133 -189 l257 0 q-38 224 -204 353 q-166 129 -419 132 q-312 -4 -491 -205 q-179 -201 -183 -552 q3 -354 182 -554 q179 -200 496 -204 q292 3 460 166 q168 164 171 448 l0 0 Z" /><glyph glyph-name="" unicode="&#x122;" d="M798 -512 l149 364 l-253 0 l-121 -364 l225 0 ZM1426 578 l0 181 l-599 0 l0 -202 l347 0 l-1 -30 q-5 -151 -106 -241 q-101 -90 -268 -92 q-195 2 -305 142 q-111 140 -113 388 q2 245 111 384 q108 139 299 141 q139 -1 233 -66 q93 -65 133 -189 l257 0 q-38 224 -204 353 q-166 129 -419 132 q-312 -4 -491 -205 q-179 -201 -183 -552 q3 -354 182 -554 q179 -200 496 -204 q292 3 460 166 q168 164 171 448 l0 0 Z" /><glyph glyph-name="" unicode="h" d="M1395 0 l0 1443 l-257 0 l0 -597 l-702 0 l0 597 l-258 0 l0 -1443 l258 0 l0 623 l702 0 l0 -623 l257 0 Z" /><glyph glyph-name="" unicode="&#x1e26;" d="M1395 0 l0 1443 l-257 0 l0 -597 l-702 0 l0 597 l-258 0 l0 -1443 l258 0 l0 623 l702 0 l0 -623 l257 0 ZM564 1577 q63 1 102 41 q40 39 41 100 q-1 61 -41 101 q-39 39 -102 40 q-62 -1 -102 -40 q-40 -40 -41 -101 q1 -61 41 -100 q40 -40 102 -41 l0 0 ZM1009 1577 q63 1 102 41 q40 39 41 100 q-1 61 -41 101 q-39 39 -102 40 q-62 -1 -102 -40 q-40 -40 -41 -101 q1 -61 41 -100 q40 -40 102 -41 l0 0 Z" /><glyph glyph-name="" unicode="&#x21e;" d="M1395 0 l0 1443 l-257 0 l0 -597 l-702 0 l0 597 l-258 0 l0 -1443 l258 0 l0 623 l702 0 l0 -623 l257 0 ZM676 1585 l222 0 l288 310 l-235 0 l-155 -174 l-18 0 l-155 174 l-235 0 l288 -310 Z" /><glyph glyph-name="" unicode="&#x124;" d="M1395 0 l0 1443 l-257 0 l0 -597 l-702 0 l0 597 l-258 0 l0 -1443 l258 0 l0 623 l702 0 l0 -623 l257 0 ZM671 1906 l-290 -321 l242 0 l155 183 l18 0 l155 -183 l242 0 l-290 321 l-232 0 Z" /><glyph glyph-name="" unicode="&#x1e24;" d="M1395 0 l0 1443 l-257 0 l0 -597 l-702 0 l0 597 l-258 0 l0 -1443 l258 0 l0 623 l702 0 l0 -623 l257 0 ZM787 -413 q64 1 104 38 q39 37 40 95 q-1 58 -40 95 q-40 37 -104 38 q-64 -1 -103 -38 q-40 -37 -41 -95 q1 -58 41 -95 q39 -37 103 -38 l0 0 Z" /><glyph glyph-name="" unicode="&#x1e22;" d="M1395 0 l0 1443 l-257 0 l0 -597 l-702 0 l0 597 l-258 0 l0 -1443 l258 0 l0 623 l702 0 l0 -623 l257 0 ZM787 1578 q63 1 103 42 q40 40 41 102 q-1 63 -41 103 q-40 41 -103 42 q-64 -1 -103 -42 q-40 -40 -41 -103 q1 -62 41 -102 q39 -41 103 -42 l0 0 Z" /><glyph glyph-name="" unicode="&#x1e2a;" d="M400 -112 q1 -138 102 -223 q101 -86 285 -89 q184 3 285 89 q101 85 102 223 l-190 0 q-1 -74 -52 -117 q-52 -44 -145 -45 q-93 1 -145 45 q-51 43 -52 117 l-190 0 ZM1395 0 l0 1443 l-257 0 l0 -597 l-702 0 l0 597 l-258 0 l0 -1443 l258 0 l0 623 l702 0 l0 -623 l257 0 Z" /><glyph glyph-name="" unicode="&#x1e28;" d="M330 -494 q124 1 191 54 q66 53 67 145 q-1 80 -53 124 q-53 44 -150 48 l51 127 l0 619 l702 0 l0 -623 l257 0 l0 1443 l-257 0 l0 -597 l-702 0 l0 597 l-258 0 l0 -1443 l98 0 l-57 -138 l0 -104 l60 0 q72 0 104 -14 q33 -15 32 -46 q0 -31 -29 -47 q-29 -17 -85 -17 q-30 0 -65 4 q-35 5 -53 10 l0 -124 q29 -9 66 -13 q37 -5 81 -5 l0 0 Z" /><glyph glyph-name="" unicode="&#x126;" d="M1138 846 l-702 0 l0 216 l702 0 l0 -216 ZM1526 1246 l-131 0 l0 197 l-257 0 l0 -197 l-702 0 l0 197 l-258 0 l0 -197 l-131 0 l0 -184 l131 0 l0 -1062 l258 0 l0 623 l702 0 l0 -623 l257 0 l0 1062 l131 0 l0 184 Z" /><glyph glyph-name="" unicode="i" d="M436 0 l0 1443 l-258 0 l0 -1443 l258 0 Z" /><glyph glyph-name="" unicode="&#x130;" d="M436 0 l0 1443 l-258 0 l0 -1443 l258 0 ZM307 1578 q63 1 103 42 q40 40 41 102 q-1 63 -41 103 q-40 41 -103 42 q-64 -1 -103 -42 q-40 -40 -41 -103 q1 -62 41 -102 q39 -41 103 -42 l0 0 Z" /><glyph glyph-name="" unicode="ì" d="M436 0 l0 1443 l-258 0 l0 -1443 l258 0 ZM188 1585 l250 0 l-288 310 l-283 0 l321 -310 Z" /><glyph glyph-name="" unicode="&#x208;" d="M436 0 l0 1443 l-258 0 l0 -1443 l258 0 ZM417 1585 l229 0 l-273 310 l-254 0 l298 -310 ZM-12 1585 l230 0 l-273 310 l-254 0 l297 -310 Z" /><glyph glyph-name="" unicode="í" d="M436 0 l0 1443 l-258 0 l0 -1443 l258 0 ZM429 1585 l321 310 l-283 0 l-288 -310 l250 0 Z" /><glyph glyph-name="" unicode="î" d="M436 0 l0 1443 l-258 0 l0 -1443 l258 0 ZM191 1906 l-290 -321 l242 0 l155 183 l18 0 l155 -183 l242 0 l-290 321 l-232 0 Z" /><glyph glyph-name="" unicode="&#x1cf;" d="M436 0 l0 1443 l-258 0 l0 -1443 l258 0 ZM196 1585 l222 0 l288 310 l-235 0 l-155 -174 l-18 0 l-155 174 l-235 0 l288 -310 Z" /><glyph glyph-name="" unicode="ï" d="M436 0 l0 1443 l-258 0 l0 -1443 l258 0 ZM84 1577 q63 1 102 41 q40 39 41 100 q-1 61 -41 101 q-39 39 -102 40 q-62 -1 -102 -40 q-40 -40 -41 -101 q1 -61 41 -100 q40 -40 102 -41 l0 0 ZM529 1577 q63 1 102 41 q40 39 41 100 q-1 61 -41 101 q-39 39 -102 40 q-62 -1 -102 -40 q-40 -40 -41 -101 q1 -61 41 -100 q40 -40 102 -41 l0 0 Z" /><glyph glyph-name="" unicode="&#x1e2e;" d="M436 0 l0 1443 l-258 0 l0 -1443 l258 0 ZM199 1914 l216 0 l241 235 l-268 0 l-189 -235 ZM85 1578 q62 1 101 40 q40 39 41 100 q-1 62 -41 101 q-39 39 -101 40 q-63 -1 -102 -40 q-40 -39 -41 -101 q1 -61 41 -100 q39 -39 102 -40 l0 0 ZM529 1578 q63 1 102 40 q40 39 41 100 q-1 62 -41 101 q-39 39 -102 40 q-62 -1 -101 -40 q-40 -39 -41 -101 q1 -61 41 -100 q39 -39 101 -40 l0 0 Z" /><glyph glyph-name="" unicode="&#x12c;" d="M436 0 l0 1443 l-258 0 l0 -1443 l258 0 ZM-80 1900 q2 -146 104 -233 q102 -87 283 -89 q181 2 283 89 q102 87 104 233 l-188 0 q-2 -77 -55 -122 q-52 -44 -144 -45 q-92 1 -144 45 q-53 45 -55 122 l-188 0 Z" /><glyph glyph-name="" unicode="&#x1eca;" d="M436 0 l0 1443 l-258 0 l0 -1443 l258 0 ZM307 -413 q64 1 104 38 q39 37 40 95 q-1 58 -40 95 q-40 37 -104 38 q-64 -1 -103 -38 q-40 -37 -41 -95 q1 -58 41 -95 q39 -37 103 -38 l0 0 Z" /><glyph glyph-name="" unicode="&#x20a;" d="M436 0 l0 1443 l-258 0 l0 -1443 l258 0 ZM-80 1578 l188 0 q2 77 55 122 q52 44 144 45 q92 -1 144 -45 q53 -45 55 -122 l188 0 q-2 145 -104 233 q-102 87 -283 89 q-181 -2 -283 -89 q-102 -88 -104 -233 l0 0 Z" /><glyph glyph-name="" unicode="&#x12a;" d="M436 0 l0 1443 l-258 0 l0 -1443 l258 0 ZM667 1792 l-720 0 l0 -164 l720 0 l0 164 Z" /><glyph glyph-name="" unicode="&#x1e2c;" d="M436 0 l0 1443 l-258 0 l0 -1443 l258 0 ZM463 -426 q108 1 173 75 q64 74 66 211 l-165 0 q-4 -74 -29 -101 q-25 -27 -60 -26 q-60 9 -118 73 q-58 63 -179 72 q-108 0 -173 -73 q-64 -74 -66 -215 l166 0 q3 72 26 101 q23 29 62 28 q70 -9 126 -72 q56 -64 171 -73 l0 0 Z" /><glyph glyph-name="" unicode="&#x1ec8;" d="M436 0 l0 1443 l-258 0 l0 -1443 l258 0 ZM112 1809 q20 9 49 15 q29 5 62 5 q47 -1 75 -21 q28 -21 29 -55 q-1 -33 -30 -61 q-29 -28 -77 -44 l85 -108 q89 33 140 95 q52 61 53 140 q-1 93 -66 145 q-64 53 -174 54 q-44 0 -82 -7 q-39 -7 -64 -16 l0 -142 Z" /><glyph glyph-name="" unicode="&#x128;" d="M436 0 l0 1443 l-258 0 l0 -1443 l258 0 ZM463 1576 q108 1 173 79 q64 78 66 218 l-166 0 q-4 -76 -29 -106 q-25 -29 -61 -28 q-58 9 -116 75 q-57 65 -179 74 q-108 -1 -173 -78 q-64 -77 -66 -221 l166 0 q3 74 27 106 q23 31 63 30 q68 -9 124 -74 q55 -66 171 -75 l0 0 Z" /><glyph glyph-name="" unicode="&#x12e;" d="M178 -21 q-59 -37 -92 -93 q-32 -56 -33 -123 q2 -97 73 -156 q72 -59 190 -61 q44 0 75 6 q31 5 54 14 l0 154 q-13 -3 -31 -5 q-18 -2 -37 -2 q-56 1 -87 28 q-31 27 -32 72 q1 57 46 103 q44 46 116 79 l16 5 l0 1443 l-258 0 l0 -1464 Z" /><glyph glyph-name="" unicode="j" d="M79 393 q3 -198 128 -312 q124 -115 334 -117 q219 1 341 122 q122 121 124 345 l0 1012 l-258 0 l0 -1010 q0 -117 -54 -177 q-54 -60 -156 -60 q-93 1 -149 54 q-55 53 -58 143 l-252 0 Z" /><glyph glyph-name="" unicode="&#x134;" d="M79 393 q3 -198 128 -312 q124 -115 334 -117 q219 1 341 122 q122 121 124 345 l0 1012 l-258 0 l0 -1010 q0 -117 -54 -177 q-54 -60 -156 -60 q-93 1 -149 54 q-55 53 -58 143 l-252 0 ZM761 1906 l-290 -321 l242 0 l155 183 l18 0 l155 -183 l242 0 l-290 321 l-232 0 Z" /><glyph glyph-name="" unicode="k" d="M436 0 l0 460 l154 177 l456 -637 l315 0 l-588 814 l545 629 l-296 0 l-569 -664 l-17 0 l0 664 l-258 0 l0 -1443 l258 0 Z" /><glyph glyph-name="" unicode="&#x1e30;" d="M806 1585 l321 310 l-283 0 l-288 -310 l250 0 ZM436 0 l0 460 l154 177 l456 -637 l315 0 l-588 814 l545 629 l-296 0 l-569 -664 l-17 0 l0 664 l-258 0 l0 -1443 l258 0 Z" /><glyph glyph-name="" unicode="&#x1e8;" d="M436 0 l0 460 l154 177 l456 -637 l315 0 l-588 814 l545 629 l-296 0 l-569 -664 l-17 0 l0 664 l-258 0 l0 -1443 l258 0 ZM573 1585 l222 0 l288 310 l-235 0 l-155 -174 l-18 0 l-155 174 l-235 0 l288 -310 Z" /><glyph glyph-name="" unicode="&#x1e32;" d="M684 -413 q64 1 104 38 q39 37 40 95 q-1 58 -40 95 q-40 37 -104 38 q-64 -1 -103 -38 q-40 -37 -41 -95 q1 -58 41 -95 q39 -37 103 -38 l0 0 ZM436 0 l0 460 l154 177 l456 -637 l315 0 l-588 814 l545 629 l-296 0 l-569 -664 l-17 0 l0 664 l-258 0 l0 -1443 l258 0 Z" /><glyph glyph-name="" unicode="&#x1e34;" d="M436 0 l0 460 l154 177 l456 -637 l315 0 l-588 814 l545 629 l-296 0 l-569 -664 l-17 0 l0 664 l-258 0 l0 -1443 l258 0 ZM1044 -218 l-720 0 l0 -164 l720 0 l0 164 Z" /><glyph glyph-name="" unicode="&#x136;" d="M436 0 l0 460 l154 177 l456 -637 l315 0 l-588 814 l545 629 l-296 0 l-569 -664 l-17 0 l0 664 l-258 0 l0 -1443 l258 0 ZM681 -512 l149 364 l-253 0 l-121 -364 l225 0 Z" /><glyph glyph-name="" unicode="l" d="M1098 226 l-662 0 l0 1217 l-258 0 l0 -1443 l920 0 l0 226 Z" /><glyph glyph-name="" unicode="&#x139;" d="M429 1585 l321 310 l-283 0 l-288 -310 l250 0 ZM1098 226 l-662 0 l0 1217 l-258 0 l0 -1443 l920 0 l0 226 Z" /><glyph glyph-name="" unicode="&#x1e3c;" d="M1098 226 l-662 0 l0 1217 l-258 0 l0 -1443 l920 0 l0 226 ZM759 -148 l-248 0 l-291 -284 l254 0 l152 160 l18 0 l152 -160 l254 0 l-291 284 Z" /><glyph glyph-name="" unicode="&#x1e36;" d="M635 -413 q64 1 104 38 q39 37 40 95 q-1 58 -40 95 q-40 37 -104 38 q-64 -1 -103 -38 q-40 -37 -41 -95 q1 -58 41 -95 q39 -37 103 -38 l0 0 ZM1098 226 l-662 0 l0 1217 l-258 0 l0 -1443 l920 0 l0 226 Z" /><glyph glyph-name="" unicode="&#x1e38;" d="M635 -413 q64 1 104 38 q39 37 40 95 q-1 58 -40 95 q-40 37 -104 38 q-64 -1 -103 -38 q-40 -37 -41 -95 q1 -58 41 -95 q39 -37 103 -38 l0 0 ZM1098 226 l-662 0 l0 1217 l-258 0 l0 -1443 l920 0 l0 226 ZM667 1792 l-720 0 l0 -164 l720 0 l0 164 Z" /><glyph glyph-name="" unicode="&#x1e3a;" d="M995 -218 l-720 0 l0 -164 l720 0 l0 164 ZM1098 226 l-662 0 l0 1217 l-258 0 l0 -1443 l920 0 l0 226 Z" /><glyph glyph-name="" unicode="&#x13b;" d="M632 -512 l149 364 l-253 0 l-121 -364 l225 0 ZM1098 226 l-662 0 l0 1217 l-258 0 l0 -1443 l920 0 l0 226 Z" /><glyph glyph-name="" unicode="&#x13d;" d="M643 1443 l0 -498 l169 0 l50 498 l-219 0 ZM1098 226 l-662 0 l0 1217 l-258 0 l0 -1443 l920 0 l0 226 Z" /><glyph glyph-name="" unicode="&#x141;" d="M436 226 l0 583 l258 127 l0 183 l-258 -127 l0 451 l-258 0 l0 -579 l-157 -77 l0 -182 l157 77 l0 -682 l920 0 l0 226 l-662 0 Z" /><glyph glyph-name="" unicode="m" d="M1668 0 l0 1443 l-302 0 l-434 -1051 l-18 0 l-434 1051 l-302 0 l0 -1443 l240 0 l0 1015 l14 0 l399 -959 l184 0 l399 959 l14 0 l0 -1015 l240 0 Z" /><glyph glyph-name="" unicode="&#x1e3e;" d="M1045 1585 l321 310 l-283 0 l-288 -310 l250 0 ZM1668 0 l0 1443 l-302 0 l-434 -1051 l-18 0 l-434 1051 l-302 0 l0 -1443 l240 0 l0 1015 l14 0 l399 -959 l184 0 l399 959 l14 0 l0 -1015 l240 0 Z" /><glyph glyph-name="" unicode="&#x1e40;" d="M923 1578 q63 1 103 42 q40 40 41 102 q-1 63 -41 103 q-40 41 -103 42 q-64 -1 -103 -42 q-40 -40 -41 -103 q1 -62 41 -102 q39 -41 103 -42 l0 0 ZM1668 0 l0 1443 l-302 0 l-434 -1051 l-18 0 l-434 1051 l-302 0 l0 -1443 l240 0 l0 1015 l14 0 l399 -959 l184 0 l399 959 l14 0 l0 -1015 l240 0 Z" /><glyph glyph-name="" unicode="&#x1e42;" d="M923 -413 q64 1 104 38 q39 37 40 95 q-1 58 -40 95 q-40 37 -104 38 q-64 -1 -103 -38 q-40 -37 -41 -95 q1 -58 41 -95 q39 -37 103 -38 l0 0 ZM1668 0 l0 1443 l-302 0 l-434 -1051 l-18 0 l-434 1051 l-302 0 l0 -1443 l240 0 l0 1015 l14 0 l399 -959 l184 0 l399 959 l14 0 l0 -1015 l240 0 Z" /><glyph glyph-name="" unicode="n" d="M427 0 l0 982 l17 0 l708 -982 l223 0 l0 1443 l-248 0 l0 -981 l-17 0 l-708 981 l-224 0 l0 -1443 l249 0 Z" /><glyph glyph-name="" unicode="&#x1f8;" d="M655 1585 l250 0 l-288 310 l-283 0 l321 -310 ZM427 0 l0 982 l17 0 l708 -982 l223 0 l0 1443 l-248 0 l0 -981 l-17 0 l-708 981 l-224 0 l0 -1443 l249 0 Z" /><glyph glyph-name="" unicode="&#x143;" d="M896 1585 l321 310 l-283 0 l-288 -310 l250 0 ZM427 0 l0 982 l17 0 l708 -982 l223 0 l0 1443 l-248 0 l0 -981 l-17 0 l-708 981 l-224 0 l0 -1443 l249 0 Z" /><glyph glyph-name="" unicode="ñ" d="M930 1576 q108 1 173 79 q64 78 66 218 l-166 0 q-4 -76 -29 -106 q-25 -29 -61 -28 q-58 9 -116 75 q-57 65 -179 74 q-108 -1 -173 -78 q-64 -77 -66 -221 l166 0 q3 74 27 106 q23 31 63 30 q68 -9 124 -74 q55 -66 171 -75 l0 0 ZM427 0 l0 982 l17 0 l708 -982 l223 0 l0 1443 l-248 0 l0 -981 l-17 0 l-708 981 l-224 0 l0 -1443 l249 0 Z" /><glyph glyph-name="" unicode="&#x1e46;" d="M774 -413 q64 1 104 38 q39 37 40 95 q-1 58 -40 95 q-40 37 -104 38 q-64 -1 -103 -38 q-40 -37 -41 -95 q1 -58 41 -95 q39 -37 103 -38 l0 0 ZM427 0 l0 982 l17 0 l708 -982 l223 0 l0 1443 l-248 0 l0 -981 l-17 0 l-708 981 l-224 0 l0 -1443 l249 0 Z" /><glyph glyph-name="" unicode="&#x1e44;" d="M774 1578 q63 1 103 42 q40 40 41 102 q-1 63 -41 103 q-40 41 -103 42 q-64 -1 -103 -42 q-40 -40 -41 -103 q1 -62 41 -102 q39 -41 103 -42 l0 0 ZM427 0 l0 982 l17 0 l708 -982 l223 0 l0 1443 l-248 0 l0 -981 l-17 0 l-708 981 l-224 0 l0 -1443 l249 0 Z" /><glyph glyph-name="" unicode="&#x147;" d="M663 1585 l222 0 l288 310 l-235 0 l-155 -174 l-18 0 l-155 174 l-235 0 l288 -310 ZM427 0 l0 982 l17 0 l708 -982 l223 0 l0 1443 l-248 0 l0 -981 l-17 0 l-708 981 l-224 0 l0 -1443 l249 0 Z" /><glyph glyph-name="" unicode="&#x1e4a;" d="M427 0 l0 982 l17 0 l708 -982 l223 0 l0 1443 l-248 0 l0 -981 l-17 0 l-708 981 l-224 0 l0 -1443 l249 0 ZM898 -148 l-248 0 l-291 -284 l254 0 l152 160 l18 0 l152 -160 l254 0 l-291 284 Z" /><glyph glyph-name="" unicode="&#x1e48;" d="M1134 -218 l-720 0 l0 -164 l720 0 l0 164 ZM427 0 l0 982 l17 0 l708 -982 l223 0 l0 1443 l-248 0 l0 -981 l-17 0 l-708 981 l-224 0 l0 -1443 l249 0 Z" /><glyph glyph-name="" unicode="&#x145;" d="M771 -512 l149 364 l-253 0 l-121 -364 l225 0 ZM427 0 l0 982 l17 0 l708 -982 l223 0 l0 1443 l-248 0 l0 -981 l-17 0 l-708 981 l-224 0 l0 -1443 l249 0 Z" /><glyph glyph-name="" unicode="o" d="M801 1479 q-318 -4 -499 -204 q-182 -200 -185 -553 q3 -353 183 -554 q180 -200 501 -204 q319 4 498 205 q180 200 183 553 q-3 353 -183 553 q-180 200 -498 204 l0 0 ZM801 1250 q194 -3 305 -143 q110 -140 112 -385 q-2 -244 -112 -385 q-110 -141 -305 -144 q-198 3 -308 144 q-110 141 -112 385 q2 245 114 385 q111 140 306 143 l0 0 Z" /><glyph glyph-name="" unicode="ö" d="M578 1577 q63 1 102 41 q40 39 41 100 q-1 61 -41 101 q-39 39 -102 40 q-62 -1 -102 -40 q-40 -40 -41 -101 q1 -61 41 -100 q40 -40 102 -41 l0 0 ZM1023 1577 q63 1 102 41 q40 39 41 100 q-1 61 -41 101 q-39 39 -102 40 q-62 -1 -102 -40 q-40 -40 -41 -101 q1 -61 41 -100 q40 -40 102 -41 l0 0 ZM801 1479 q-318 -4 -499 -204 q-182 -200 -185 -553 q3 -353 183 -554 q180 -200 501 -204 q319 4 498 205 q180 200 183 553 q-3 353 -183 553 q-180 200 -498 204 l0 0 ZM801 1250 q194 -3 305 -143 q110 -140 112 -385 q-2 -244 -112 -385 q-110 -141 -305 -144 q-198 3 -308 144 q-110 141 -112 385 q2 245 114 385 q111 140 306 143 l0 0 Z" /><glyph glyph-name="" unicode="ø" d="M1118 1091 q48 -69 74 -162 q26 -93 26 -207 q-2 -244 -112 -385 q-110 -141 -305 -144 q-75 0 -138 22 q-63 22 -113 64 l568 812 ZM467 374 q-42 67 -64 155 q-22 88 -22 193 q2 245 114 385 q111 140 306 143 q67 0 125 -18 q58 -18 106 -53 l-565 -805 ZM1361 1438 l-104 62 l-84 -119 q-77 48 -170 73 q-94 25 -202 25 q-318 -4 -499 -204 q-182 -200 -185 -553 q0 -181 51 -325 q50 -143 145 -243 l-102 -145 l101 -70 l95 136 q80 -54 179 -82 q99 -29 215 -29 q319 4 498 205 q180 200 183 553 q-1 190 -55 337 q-55 148 -158 247 l92 132 Z" /><glyph glyph-name="" unicode="õ" d="M801 1479 q-318 -4 -499 -204 q-182 -200 -185 -553 q3 -353 183 -554 q180 -200 501 -204 q319 4 498 205 q180 200 183 553 q-3 353 -183 553 q-180 200 -498 204 l0 0 ZM801 1250 q194 -3 305 -143 q110 -140 112 -385 q-2 -244 -112 -385 q-110 -141 -305 -144 q-198 3 -308 144 q-110 141 -112 385 q2 245 114 385 q111 140 306 143 l0 0 ZM957 1576 q108 1 173 79 q64 78 66 218 l-166 0 q-4 -76 -29 -106 q-25 -29 -61 -28 q-58 9 -116 75 q-57 65 -179 74 q-108 -1 -173 -78 q-64 -77 -66 -221 l166 0 q3 74 27 106 q23 31 63 30 q68 -9 124 -74 q55 -66 171 -75 l0 0 Z" /><glyph glyph-name="" unicode="ó" d="M923 1585 l321 310 l-283 0 l-288 -310 l250 0 ZM801 1479 q-318 -4 -499 -204 q-182 -200 -185 -553 q3 -353 183 -554 q180 -200 501 -204 q319 4 498 205 q180 200 183 553 q-3 353 -183 553 q-180 200 -498 204 l0 0 ZM801 1250 q194 -3 305 -143 q110 -140 112 -385 q-2 -244 -112 -385 q-110 -141 -305 -144 q-198 3 -308 144 q-110 141 -112 385 q2 245 114 385 q111 140 306 143 l0 0 Z" /><glyph glyph-name="" unicode="ô" d="M685 1906 l-290 -321 l242 0 l155 183 l18 0 l155 -183 l242 0 l-290 321 l-232 0 ZM801 1479 q-318 -4 -499 -204 q-182 -200 -185 -553 q3 -353 183 -554 q180 -200 501 -204 q319 4 498 205 q180 200 183 553 q-3 353 -183 553 q-180 200 -498 204 l0 0 ZM801 1250 q194 -3 305 -143 q110 -140 112 -385 q-2 -244 -112 -385 q-110 -141 -305 -144 q-198 3 -308 144 q-110 141 -112 385 q2 245 114 385 q111 140 306 143 l0 0 Z" /><glyph glyph-name="" unicode="ò" d="M682 1585 l250 0 l-288 310 l-283 0 l321 -310 ZM801 1479 q-318 -4 -499 -204 q-182 -200 -185 -553 q3 -353 183 -554 q180 -200 501 -204 q319 4 498 205 q180 200 183 553 q-3 353 -183 553 q-180 200 -498 204 l0 0 ZM801 1250 q194 -3 305 -143 q110 -140 112 -385 q-2 -244 -112 -385 q-110 -141 -305 -144 q-198 3 -308 144 q-110 141 -112 385 q2 245 114 385 q111 140 306 143 l0 0 Z" /><glyph glyph-name="" unicode="&#x1ed4;" d="M673 1834 l-284 -256 l254 0 l149 140 l18 0 l149 -140 l254 0 l-284 256 l-256 0 ZM934 2010 q16 7 41 11 q25 4 52 4 q41 0 65 -19 q24 -19 25 -50 q0 -31 -23 -58 q-22 -26 -65 -43 l103 -91 q73 28 113 83 q40 56 41 128 q-1 84 -59 133 q-58 49 -157 50 q-44 0 -80 -5 q-36 -5 -56 -13 l0 -130 ZM801 1479 q-318 -4 -499 -204 q-182 -200 -185 -553 q3 -353 183 -554 q180 -200 501 -204 q319 4 498 205 q180 200 183 553 q-3 353 -183 553 q-180 200 -498 204 l0 0 ZM801 1250 q194 -3 305 -143 q110 -140 112 -385 q-2 -244 -112 -385 q-110 -141 -305 -144 q-198 3 -308 144 q-110 141 -112 385 q2 245 114 385 q111 140 306 143 l0 0 Z" /><glyph glyph-name="" unicode="&#x1ed2;" d="M673 1834 l-284 -256 l254 0 l149 140 l18 0 l149 -140 l254 0 l-284 256 l-256 0 ZM1294 1873 l-196 276 l-252 0 l224 -276 l224 0 ZM801 1479 q-318 -4 -499 -204 q-182 -200 -185 -553 q3 -353 183 -554 q180 -200 501 -204 q319 4 498 205 q180 200 183 553 q-3 353 -183 553 q-180 200 -498 204 l0 0 ZM801 1250 q194 -3 305 -143 q110 -140 112 -385 q-2 -244 -112 -385 q-110 -141 -305 -144 q-198 3 -308 144 q-110 141 -112 385 q2 245 114 385 q111 140 306 143 l0 0 Z" /><glyph glyph-name="" unicode="&#x1ecc;" d="M801 -413 q64 1 104 38 q39 37 40 95 q-1 58 -40 95 q-40 37 -104 38 q-64 -1 -103 -38 q-40 -37 -41 -95 q1 -58 41 -95 q39 -37 103 -38 l0 0 ZM801 1479 q-318 -4 -499 -204 q-182 -200 -185 -553 q3 -353 183 -554 q180 -200 501 -204 q319 4 498 205 q180 200 183 553 q-3 353 -183 553 q-180 200 -498 204 l0 0 ZM801 1250 q194 -3 305 -143 q110 -140 112 -385 q-2 -244 -112 -385 q-110 -141 -305 -144 q-198 3 -308 144 q-110 141 -112 385 q2 245 114 385 q111 140 306 143 l0 0 Z" /><glyph glyph-name="" unicode="&#x20c;" d="M911 1585 l229 0 l-273 310 l-254 0 l298 -310 ZM482 1585 l230 0 l-273 310 l-254 0 l297 -310 ZM801 1479 q-318 -4 -499 -204 q-182 -200 -185 -553 q3 -353 183 -554 q180 -200 501 -204 q319 4 498 205 q180 200 183 553 q-3 353 -183 553 q-180 200 -498 204 l0 0 ZM801 1250 q194 -3 305 -143 q110 -140 112 -385 q-2 -244 -112 -385 q-110 -141 -305 -144 q-198 3 -308 144 q-110 141 -112 385 q2 245 114 385 q111 140 306 143 l0 0 Z" /><glyph glyph-name="" unicode="&#x1e4c;" d="M801 1479 q-318 -4 -499 -204 q-182 -200 -185 -553 q3 -353 183 -554 q180 -200 501 -204 q319 4 498 205 q180 200 183 553 q-3 353 -183 553 q-180 200 -498 204 l0 0 ZM801 1250 q194 -3 305 -143 q110 -140 112 -385 q-2 -244 -112 -385 q-110 -141 -305 -144 q-198 3 -308 144 q-110 141 -112 385 q2 245 114 385 q111 140 306 143 l0 0 ZM950 1578 q106 2 172 73 q65 71 67 193 l-166 0 q-4 -57 -29 -83 q-24 -25 -60 -25 q-69 8 -117 62 q-49 53 -165 61 q-106 -1 -172 -72 q-65 -70 -67 -196 l166 0 q3 55 27 83 q23 27 62 27 q69 -8 117 -61 q49 -54 165 -62 l0 0 ZM730 1914 l231 0 l211 235 l-260 0 l-182 -235 Z" /><glyph glyph-name="" unicode="&#x1e52;" d="M1161 1613 l0 161 l-720 0 l0 -161 l720 0 ZM685 1899 l232 0 l209 249 l-260 0 l-181 -249 ZM801 1479 q-318 -4 -499 -204 q-182 -200 -185 -553 q3 -353 183 -554 q180 -200 501 -204 q319 4 498 205 q180 200 183 553 q-3 353 -183 553 q-180 200 -498 204 l0 0 ZM801 1250 q194 -3 305 -143 q110 -140 112 -385 q-2 -244 -112 -385 q-110 -141 -305 -144 q-198 3 -308 144 q-110 141 -112 385 q2 245 114 385 q111 140 306 143 l0 0 Z" /><glyph glyph-name="" unicode="&#x1ed6;" d="M947 1882 q106 2 170 74 q64 71 66 193 l-160 0 q-4 -58 -29 -84 q-24 -26 -60 -26 q-68 8 -115 62 q-48 54 -164 62 q-106 -1 -170 -71 q-64 -70 -66 -193 l160 0 q3 53 27 81 q23 27 62 27 q68 -8 116 -62 q47 -55 163 -63 l0 0 ZM673 1830 l-284 -252 l254 0 l149 140 l18 0 l149 -140 l254 0 l-284 252 l-256 0 ZM801 1479 q-318 -4 -499 -204 q-182 -200 -185 -553 q3 -353 183 -554 q180 -200 501 -204 q319 4 498 205 q180 200 183 553 q-3 353 -183 553 q-180 200 -498 204 l0 0 ZM801 1250 q194 -3 305 -143 q110 -140 112 -385 q-2 -244 -112 -385 q-110 -141 -305 -144 q-198 3 -308 144 q-110 141 -112 385 q2 245 114 385 q111 140 306 143 l0 0 Z" /><glyph glyph-name="" unicode="&#x230;" d="M801 1576 q63 1 102 40 q40 38 41 98 q-1 60 -41 98 q-39 39 -102 40 q-63 -1 -102 -40 q-40 -38 -41 -98 q1 -60 41 -98 q39 -39 102 -40 l0 0 ZM1161 2127 l-720 0 l0 -154 l720 0 l0 154 ZM801 1479 q-318 -4 -499 -204 q-182 -200 -185 -553 q3 -353 183 -554 q180 -200 501 -204 q319 4 498 205 q180 200 183 553 q-3 353 -183 553 q-180 200 -498 204 l0 0 ZM801 1250 q194 -3 305 -143 q110 -140 112 -385 q-2 -244 -112 -385 q-110 -141 -305 -144 q-198 3 -308 144 q-110 141 -112 385 q2 245 114 385 q111 140 306 143 l0 0 Z" /><glyph glyph-name="" unicode="&#x1e50;" d="M441 1614 l720 0 l0 161 l-720 0 l0 -161 ZM917 1900 l-181 249 l-260 0 l209 -249 l232 0 ZM801 1479 q-318 -4 -499 -204 q-182 -200 -185 -553 q3 -353 183 -554 q180 -200 501 -204 q319 4 498 205 q180 200 183 553 q-3 353 -183 553 q-180 200 -498 204 l0 0 ZM801 1250 q194 -3 305 -143 q110 -140 112 -385 q-2 -244 -112 -385 q-110 -141 -305 -144 q-198 3 -308 144 q-110 141 -112 385 q2 245 114 385 q111 140 306 143 l0 0 Z" /><glyph glyph-name="" unicode="&#x1d1;" d="M690 1585 l222 0 l288 310 l-235 0 l-155 -174 l-18 0 l-155 174 l-235 0 l288 -310 ZM801 1479 q-318 -4 -499 -204 q-182 -200 -185 -553 q3 -353 183 -554 q180 -200 501 -204 q319 4 498 205 q180 200 183 553 q-3 353 -183 553 q-180 200 -498 204 l0 0 ZM801 1250 q194 -3 305 -143 q110 -140 112 -385 q-2 -244 -112 -385 q-110 -141 -305 -144 q-198 3 -308 144 q-110 141 -112 385 q2 245 114 385 q111 140 306 143 l0 0 Z" /><glyph glyph-name="" unicode="&#x1fe;" d="M1246 1895 l-283 0 l-288 -310 l250 0 l321 310 ZM1118 1091 q48 -69 74 -162 q26 -93 26 -207 q-2 -244 -112 -385 q-110 -141 -305 -144 q-75 0 -138 22 q-63 22 -113 64 l568 812 ZM467 374 q-42 67 -64 155 q-22 88 -22 193 q2 245 114 385 q111 140 306 143 q67 0 125 -18 q58 -18 106 -53 l-565 -805 ZM1361 1438 l-104 62 l-84 -119 q-77 48 -170 73 q-94 25 -202 25 q-318 -4 -499 -204 q-182 -200 -185 -553 q0 -181 51 -325 q50 -143 145 -243 l-102 -145 l101 -70 l95 136 q80 -54 179 -82 q99 -29 215 -29 q319 4 498 205 q180 200 183 553 q-1 190 -55 337 q-55 148 -158 247 l92 132 Z" /><glyph glyph-name="" unicode="&#x150;" d="M1093 1585 l297 310 l-254 0 l-273 -310 l230 0 ZM664 1585 l297 310 l-254 0 l-273 -310 l230 0 ZM801 1479 q-318 -4 -499 -204 q-182 -200 -185 -553 q3 -353 183 -554 q180 -200 501 -204 q319 4 498 205 q180 200 183 553 q-3 353 -183 553 q-180 200 -498 204 l0 0 ZM801 1250 q194 -3 305 -143 q110 -140 112 -385 q-2 -244 -112 -385 q-110 -141 -305 -144 q-198 3 -308 144 q-110 141 -112 385 q2 245 114 385 q111 140 306 143 l0 0 Z" /><glyph glyph-name="" unicode="&#x14e;" d="M801 1479 q-318 -4 -499 -204 q-182 -200 -185 -553 q3 -353 183 -554 q180 -200 501 -204 q319 4 498 205 q180 200 183 553 q-3 353 -183 553 q-180 200 -498 204 l0 0 ZM801 1250 q194 -3 305 -143 q110 -140 112 -385 q-2 -244 -112 -385 q-110 -141 -305 -144 q-198 3 -308 144 q-110 141 -112 385 q2 245 114 385 q111 140 306 143 l0 0 ZM414 1900 q2 -146 104 -233 q102 -87 283 -89 q181 2 283 89 q102 87 104 233 l-188 0 q-2 -77 -55 -122 q-52 -44 -144 -45 q-92 1 -144 45 q-53 45 -55 122 l-188 0 Z" /><glyph glyph-name="" unicode="&#x20e;" d="M414 1578 l188 0 q2 77 55 122 q52 44 144 45 q92 -1 144 -45 q53 -45 55 -122 l188 0 q-2 145 -104 233 q-102 87 -283 89 q-181 -2 -283 -89 q-102 -88 -104 -233 l0 0 ZM801 1479 q-318 -4 -499 -204 q-182 -200 -185 -553 q3 -353 183 -554 q180 -200 501 -204 q319 4 498 205 q180 200 183 553 q-3 353 -183 553 q-180 200 -498 204 l0 0 ZM801 1250 q194 -3 305 -143 q110 -140 112 -385 q-2 -244 -112 -385 q-110 -141 -305 -144 q-198 3 -308 144 q-110 141 -112 385 q2 245 114 385 q111 140 306 143 l0 0 Z" /><glyph glyph-name="" unicode="&#x1ece;" d="M606 1809 q20 9 49 15 q29 5 62 5 q47 -1 75 -21 q28 -21 29 -55 q-1 -33 -30 -61 q-29 -28 -77 -44 l85 -108 q89 33 140 95 q52 61 53 140 q-1 93 -66 145 q-64 53 -174 54 q-44 0 -82 -7 q-39 -7 -64 -16 l0 -142 ZM801 1479 q-318 -4 -499 -204 q-182 -200 -185 -553 q3 -353 183 -554 q180 -200 501 -204 q319 4 498 205 q180 200 183 553 q-3 353 -183 553 q-180 200 -498 204 l0 0 ZM801 1250 q194 -3 305 -143 q110 -140 112 -385 q-2 -244 -112 -385 q-110 -141 -305 -144 q-198 3 -308 144 q-110 141 -112 385 q2 245 114 385 q111 140 306 143 l0 0 Z" /><glyph glyph-name="" unicode="&#x22a;" d="M801 1479 q-318 -4 -499 -204 q-182 -200 -185 -553 q3 -353 183 -554 q180 -200 501 -204 q319 4 498 205 q180 200 183 553 q-3 353 -183 553 q-180 200 -498 204 l0 0 ZM801 1250 q194 -3 305 -143 q110 -140 112 -385 q-2 -244 -112 -385 q-110 -141 -305 -144 q-198 3 -308 144 q-110 141 -112 385 q2 245 114 385 q111 140 306 143 l0 0 ZM579 1854 q-62 -1 -101 -39 q-39 -39 -40 -99 q1 -60 40 -99 q39 -38 101 -39 q61 1 100 39 q39 39 40 99 q-1 60 -40 99 q-39 38 -100 39 l0 0 ZM441 2127 l0 -154 l720 0 l0 154 l-720 0 ZM1023 1854 q-61 -1 -100 -39 q-39 -39 -40 -99 q1 -60 40 -99 q39 -38 100 -39 q62 1 101 39 q39 39 40 99 q-1 60 -40 99 q-39 38 -101 39 l0 0 Z" /><glyph glyph-name="" unicode="&#x22c;" d="M950 1578 q106 2 172 73 q65 71 67 193 l-166 0 q-4 -57 -29 -83 q-24 -25 -60 -25 q-69 8 -117 62 q-49 53 -165 61 q-106 -1 -172 -72 q-65 -70 -67 -196 l166 0 q3 55 27 83 q23 27 62 27 q69 -8 117 -61 q49 -54 165 -62 l0 0 ZM1161 2127 l-720 0 l0 -160 l720 0 l0 160 ZM801 1479 q-318 -4 -499 -204 q-182 -200 -185 -553 q3 -353 183 -554 q180 -200 501 -204 q319 4 498 205 q180 200 183 553 q-3 353 -183 553 q-180 200 -498 204 l0 0 ZM801 1250 q194 -3 305 -143 q110 -140 112 -385 q-2 -244 -112 -385 q-110 -141 -305 -144 q-198 3 -308 144 q-110 141 -112 385 q2 245 114 385 q111 140 306 143 l0 0 Z" /><glyph glyph-name="" unicode="&#x22e;" d="M801 1578 q63 1 103 42 q40 40 41 102 q-1 63 -41 103 q-40 41 -103 42 q-64 -1 -103 -42 q-40 -40 -41 -103 q1 -62 41 -102 q39 -41 103 -42 l0 0 ZM801 1479 q-318 -4 -499 -204 q-182 -200 -185 -553 q3 -353 183 -554 q180 -200 501 -204 q319 4 498 205 q180 200 183 553 q-3 353 -183 553 q-180 200 -498 204 l0 0 ZM801 1250 q194 -3 305 -143 q110 -140 112 -385 q-2 -244 -112 -385 q-110 -141 -305 -144 q-198 3 -308 144 q-110 141 -112 385 q2 245 114 385 q111 140 306 143 l0 0 Z" /><glyph glyph-name="" unicode="&#x1ed8;" d="M801 -413 q64 1 104 38 q39 37 40 95 q-1 58 -40 95 q-40 37 -104 38 q-64 -1 -103 -38 q-40 -37 -41 -95 q1 -58 41 -95 q39 -37 103 -38 l0 0 ZM685 1906 l-290 -321 l242 0 l155 183 l18 0 l155 -183 l242 0 l-290 321 l-232 0 ZM801 1479 q-318 -4 -499 -204 q-182 -200 -185 -553 q3 -353 183 -554 q180 -200 501 -204 q319 4 498 205 q180 200 183 553 q-3 353 -183 553 q-180 200 -498 204 l0 0 ZM801 1250 q194 -3 305 -143 q110 -140 112 -385 q-2 -244 -112 -385 q-110 -141 -305 -144 q-198 3 -308 144 q-110 141 -112 385 q2 245 114 385 q111 140 306 143 l0 0 Z" /><glyph glyph-name="" unicode="&#x1ed0;" d="M673 1834 l-284 -256 l254 0 l149 140 l18 0 l149 -140 l254 0 l-284 256 l-256 0 ZM1024 1873 l224 0 l224 276 l-252 0 l-196 -276 ZM801 1479 q-318 -4 -499 -204 q-182 -200 -185 -553 q3 -353 183 -554 q180 -200 501 -204 q319 4 498 205 q180 200 183 553 q-3 353 -183 553 q-180 200 -498 204 l0 0 ZM801 1250 q194 -3 305 -143 q110 -140 112 -385 q-2 -244 -112 -385 q-110 -141 -305 -144 q-198 3 -308 144 q-110 141 -112 385 q2 245 114 385 q111 140 306 143 l0 0 Z" /><glyph glyph-name="" unicode="&#x1e4e;" d="M950 1572 q106 2 172 74 q65 71 67 193 l-166 0 q-4 -58 -29 -84 q-24 -25 -60 -25 q-69 8 -117 62 q-49 53 -165 61 q-106 -1 -172 -72 q-65 -70 -67 -196 l166 0 q3 55 27 83 q23 27 62 27 q69 -8 117 -61 q49 -54 165 -62 l0 0 ZM588 2152 q-59 -1 -94 -32 q-35 -31 -36 -83 q1 -52 36 -83 q35 -31 94 -32 q59 1 94 32 q36 31 37 83 q-1 52 -37 83 q-35 31 -94 32 l0 0 ZM1014 2152 q-59 -1 -94 -32 q-36 -31 -37 -83 q1 -52 37 -83 q35 -31 94 -32 q59 1 94 32 q35 31 36 83 q-1 52 -36 83 q-35 31 -94 32 l0 0 ZM801 1479 q-318 -4 -499 -204 q-182 -200 -185 -553 q3 -353 183 -554 q180 -200 501 -204 q319 4 498 205 q180 200 183 553 q-3 353 -183 553 q-180 200 -498 204 l0 0 ZM801 1250 q194 -3 305 -143 q110 -140 112 -385 q-2 -244 -112 -385 q-110 -141 -305 -144 q-198 3 -308 144 q-110 141 -112 385 q2 245 114 385 q111 140 306 143 l0 0 Z" /><glyph glyph-name="" unicode="&#x14c;" d="M801 1479 q-318 -4 -499 -204 q-182 -200 -185 -553 q3 -353 183 -554 q180 -200 501 -204 q319 4 498 205 q180 200 183 553 q-3 353 -183 553 q-180 200 -498 204 l0 0 ZM801 1250 q194 -3 305 -143 q110 -140 112 -385 q-2 -244 -112 -385 q-110 -141 -305 -144 q-198 3 -308 144 q-110 141 -112 385 q2 245 114 385 q111 140 306 143 l0 0 ZM1161 1792 l-720 0 l0 -164 l720 0 l0 164 Z" /><glyph glyph-name="" unicode="&#x1ea;" d="M1061 -454 q45 0 75 6 q30 6 51 14 l0 154 q-10 -3 -28 -5 q-19 -2 -40 -2 q-54 1 -85 28 q-30 28 -31 72 q0 47 36 100 q36 53 104 109 q175 142 257 312 q83 170 82 388 q-3 353 -183 553 q-180 200 -498 204 q-318 -4 -499 -204 q-182 -201 -185 -553 q3 -354 184 -554 q180 -200 500 -204 q38 0 75 7 q36 7 53 17 l0 -18 q-59 -36 -95 -90 q-35 -55 -36 -121 q2 -95 73 -153 q72 -58 190 -60 l0 0 ZM801 1250 q194 -3 305 -143 q110 -140 112 -385 q-2 -245 -113 -386 q-111 -140 -304 -143 q-196 3 -307 143 q-111 140 -113 386 q2 245 114 385 q111 140 306 143 l0 0 Z" /><glyph glyph-name="" unicode="&#x1ec;" d="M1061 -454 q45 0 75 6 q30 6 51 14 l0 154 q-10 -3 -28 -5 q-19 -2 -40 -2 q-54 1 -85 28 q-30 28 -31 72 q0 47 36 100 q36 53 104 109 q175 142 257 312 q83 170 82 388 q-3 353 -183 553 q-180 200 -498 204 q-318 -4 -499 -204 q-182 -201 -185 -553 q3 -354 184 -554 q180 -200 500 -204 q38 0 75 7 q36 7 53 17 l0 -18 q-59 -36 -95 -90 q-35 -55 -36 -121 q2 -95 73 -153 q72 -58 190 -60 l0 0 ZM801 1250 q194 -3 305 -143 q110 -140 112 -385 q-2 -245 -113 -386 q-111 -140 -304 -143 q-196 3 -307 143 q-111 140 -113 386 q2 245 114 385 q111 140 306 143 l0 0 ZM1161 1792 l-720 0 l0 -164 l720 0 l0 164 Z" /><glyph glyph-name="" unicode="&#x1a0;" d="M801 -36 q319 4 498 205 q180 200 183 553 q-1 175 -56 317 q-54 142 -144 210 l0 15 q9 0 24 0 q16 0 36 0 q89 0 143 51 q54 50 55 144 l0 219 l-205 0 l0 -155 q1 -46 -24 -69 q-26 -22 -85 -22 q-114 3 -209 24 q-96 20 -216 23 q-318 -4 -499 -204 q-182 -200 -185 -553 q3 -353 183 -554 q180 -200 501 -204 l0 0 ZM801 193 q-198 3 -308 144 q-110 141 -112 385 q2 245 114 385 q111 140 306 143 q194 -3 305 -143 q110 -140 112 -385 q-2 -244 -112 -385 q-110 -141 -305 -144 l0 0 Z" /><glyph glyph-name="" unicode="&#x1ee2;" d="M797 -413 q64 1 104 38 q39 37 40 95 q-1 58 -40 95 q-40 37 -104 38 q-64 -1 -103 -38 q-40 -37 -41 -95 q1 -58 41 -95 q39 -37 103 -38 l0 0 ZM801 -36 q319 4 498 205 q180 200 183 553 q-1 175 -56 317 q-54 142 -144 210 l0 15 q9 0 24 0 q16 0 36 0 q89 0 143 51 q54 50 55 144 l0 219 l-205 0 l0 -155 q1 -46 -24 -69 q-26 -22 -85 -22 q-114 3 -209 24 q-96 20 -216 23 q-318 -4 -499 -204 q-182 -200 -185 -553 q3 -353 183 -554 q180 -200 501 -204 l0 0 ZM801 193 q-198 3 -308 144 q-110 141 -112 385 q2 245 114 385 q111 140 306 143 q194 -3 305 -143 q110 -140 112 -385 q-2 -244 -112 -385 q-110 -141 -305 -144 l0 0 Z" /><glyph glyph-name="" unicode="&#x1ede;" d="M602 1809 q20 9 49 15 q29 5 62 5 q47 -1 75 -21 q28 -21 29 -55 q-1 -33 -30 -61 q-29 -28 -77 -44 l85 -108 q89 33 140 95 q52 61 53 140 q-1 93 -66 145 q-64 53 -174 54 q-44 0 -82 -7 q-39 -7 -64 -16 l0 -142 ZM801 -36 q319 4 498 205 q180 200 183 553 q-1 175 -56 317 q-54 142 -144 210 l0 15 q9 0 24 0 q16 0 36 0 q89 0 143 51 q54 50 55 144 l0 219 l-205 0 l0 -155 q1 -46 -24 -69 q-26 -22 -85 -22 q-114 3 -209 24 q-96 20 -216 23 q-318 -4 -499 -204 q-182 -200 -185 -553 q3 -353 183 -554 q180 -200 501 -204 l0 0 ZM801 193 q-198 3 -308 144 q-110 141 -112 385 q2 245 114 385 q111 140 306 143 q194 -3 305 -143 q110 -140 112 -385 q-2 -244 -112 -385 q-110 -141 -305 -144 l0 0 Z" /><glyph glyph-name="" unicode="&#x1ee0;" d="M801 -36 q319 4 498 205 q180 200 183 553 q-1 175 -56 317 q-54 142 -144 210 l0 15 q9 0 24 0 q16 0 36 0 q89 0 143 51 q54 50 55 144 l0 219 l-205 0 l0 -155 q1 -46 -24 -69 q-26 -22 -85 -22 q-114 3 -209 24 q-96 20 -216 23 q-318 -4 -499 -204 q-182 -200 -185 -553 q3 -353 183 -554 q180 -200 501 -204 l0 0 ZM801 193 q-198 3 -308 144 q-110 141 -112 385 q2 245 114 385 q111 140 306 143 q194 -3 305 -143 q110 -140 112 -385 q-2 -244 -112 -385 q-110 -141 -305 -144 l0 0 ZM953 1576 q108 1 173 79 q64 78 66 218 l-166 0 q-4 -76 -29 -106 q-25 -29 -61 -28 q-58 9 -116 75 q-57 65 -179 74 q-108 -1 -173 -78 q-64 -77 -66 -221 l166 0 q3 74 27 106 q23 31 63 30 q68 -9 124 -74 q55 -66 171 -75 l0 0 Z" /><glyph glyph-name="" unicode="&#x1edc;" d="M678 1585 l250 0 l-288 310 l-283 0 l321 -310 ZM801 -36 q319 4 498 205 q180 200 183 553 q-1 175 -56 317 q-54 142 -144 210 l0 15 q9 0 24 0 q16 0 36 0 q89 0 143 51 q54 50 55 144 l0 219 l-205 0 l0 -155 q1 -46 -24 -69 q-26 -22 -85 -22 q-114 3 -209 24 q-96 20 -216 23 q-318 -4 -499 -204 q-182 -200 -185 -553 q3 -353 183 -554 q180 -200 501 -204 l0 0 ZM801 193 q-198 3 -308 144 q-110 141 -112 385 q2 245 114 385 q111 140 306 143 q194 -3 305 -143 q110 -140 112 -385 q-2 -244 -112 -385 q-110 -141 -305 -144 l0 0 Z" /><glyph glyph-name="" unicode="&#x1eda;" d="M919 1585 l321 310 l-283 0 l-288 -310 l250 0 ZM801 -36 q319 4 498 205 q180 200 183 553 q-1 175 -56 317 q-54 142 -144 210 l0 15 q9 0 24 0 q16 0 36 0 q89 0 143 51 q54 50 55 144 l0 219 l-205 0 l0 -155 q1 -46 -24 -69 q-26 -22 -85 -22 q-114 3 -209 24 q-96 20 -216 23 q-318 -4 -499 -204 q-182 -200 -185 -553 q3 -353 183 -554 q180 -200 501 -204 l0 0 ZM801 193 q-198 3 -308 144 q-110 141 -112 385 q2 245 114 385 q111 140 306 143 q194 -3 305 -143 q110 -140 112 -385 q-2 -244 -112 -385 q-110 -141 -305 -144 l0 0 Z" /><glyph glyph-name="" unicode="p" d="M178 1443 l0 -1443 l258 0 l0 473 l313 0 q223 3 358 134 q134 130 138 348 q-3 221 -134 353 q-132 132 -351 135 l-582 0 ZM436 1227 l256 0 q140 0 215 -70 q75 -69 76 -202 q-1 -130 -77 -198 q-76 -69 -215 -70 l-255 0 l0 540 Z" /><glyph glyph-name="" unicode="&#x1e56;" d="M178 1443 l0 -1443 l258 0 l0 473 l313 0 q223 3 358 134 q134 130 138 348 q-3 221 -134 353 q-132 132 -351 135 l-582 0 ZM436 1227 l256 0 q140 0 215 -70 q75 -69 76 -202 q-1 -130 -77 -198 q-76 -69 -215 -70 l-255 0 l0 540 ZM593 1578 q63 1 103 42 q40 40 41 102 q-1 63 -41 103 q-40 41 -103 42 q-64 -1 -103 -42 q-40 -40 -41 -103 q1 -62 41 -102 q39 -41 103 -42 l0 0 Z" /><glyph glyph-name="" unicode="&#x1e54;" d="M715 1585 l321 310 l-283 0 l-288 -310 l250 0 ZM178 1443 l0 -1443 l258 0 l0 473 l313 0 q223 3 358 134 q134 130 138 348 q-3 221 -134 353 q-132 132 -351 135 l-582 0 ZM436 1227 l256 0 q140 0 215 -70 q75 -69 76 -202 q-1 -130 -77 -198 q-76 -69 -215 -70 l-255 0 l0 540 Z" /><glyph glyph-name="" unicode="q" d="M1424 -149 l-180 266 q115 93 176 247 q61 154 62 357 q-3 354 -184 554 q-181 200 -497 204 q-318 -3 -499 -203 q-182 -200 -185 -555 q3 -355 184 -554 q180 -200 500 -203 q68 0 133 10 q64 10 121 30 l110 -153 l259 0 ZM801 193 q-195 3 -306 142 q-112 140 -114 386 q2 246 114 386 q111 140 306 143 q193 -3 304 -143 q111 -140 113 -386 q0 -127 -33 -224 q-33 -97 -96 -155 l-91 114 l-248 0 l173 -246 q-59 -17 -122 -17 l0 0 Z" /><glyph glyph-name="" unicode="r" d="M436 1229 l292 0 q124 -1 194 -65 q69 -63 70 -177 q-1 -115 -67 -178 q-67 -62 -191 -63 l-298 0 l0 483 ZM436 541 l286 0 l0 0 l283 -541 l295 0 l-315 581 q130 49 201 158 q70 108 71 253 q-2 210 -133 329 q-130 120 -360 122 l-586 0 l0 -1443 l258 0 l0 541 Z" /><glyph glyph-name="" unicode="&#x158;" d="M436 1229 l292 0 q124 -1 194 -65 q69 -63 70 -177 q-1 -115 -67 -178 q-67 -62 -191 -63 l-298 0 l0 483 ZM436 541 l286 0 l0 0 l283 -541 l295 0 l-315 581 q130 49 201 158 q70 108 71 253 q-2 210 -133 329 q-130 120 -360 122 l-586 0 l0 -1443 l258 0 l0 541 ZM525 1585 l222 0 l288 310 l-235 0 l-155 -174 l-18 0 l-155 174 l-235 0 l288 -310 Z" /><glyph glyph-name="" unicode="&#x1e5e;" d="M436 1229 l292 0 q124 -1 194 -65 q69 -63 70 -177 q-1 -115 -67 -178 q-67 -62 -191 -63 l-298 0 l0 483 ZM436 541 l286 0 l0 0 l283 -541 l295 0 l-315 581 q130 49 201 158 q70 108 71 253 q-2 210 -133 329 q-130 120 -360 122 l-586 0 l0 -1443 l258 0 l0 541 ZM996 -218 l-720 0 l0 -164 l720 0 l0 164 Z" /><glyph glyph-name="" unicode="&#x1e5c;" d="M636 -413 q64 1 104 38 q39 37 40 95 q-1 58 -40 95 q-40 37 -104 38 q-64 -1 -103 -38 q-40 -37 -41 -95 q1 -58 41 -95 q39 -37 103 -38 l0 0 ZM436 1229 l292 0 q124 -1 194 -65 q69 -63 70 -177 q-1 -115 -67 -178 q-67 -62 -191 -63 l-298 0 l0 483 ZM436 541 l286 0 l0 0 l283 -541 l295 0 l-315 581 q130 49 201 158 q70 108 71 253 q-2 210 -133 329 q-130 120 -360 122 l-586 0 l0 -1443 l258 0 l0 541 ZM996 1792 l-720 0 l0 -164 l720 0 l0 164 Z" /><glyph glyph-name="" unicode="&#x210;" d="M746 1585 l229 0 l-273 310 l-254 0 l298 -310 ZM317 1585 l230 0 l-273 310 l-254 0 l297 -310 ZM436 1229 l292 0 q124 -1 194 -65 q69 -63 70 -177 q-1 -115 -67 -178 q-67 -62 -191 -63 l-298 0 l0 483 ZM436 541 l286 0 l0 0 l283 -541 l295 0 l-315 581 q130 49 201 158 q70 108 71 253 q-2 210 -133 329 q-130 120 -360 122 l-586 0 l0 -1443 l258 0 l0 541 Z" /><glyph glyph-name="" unicode="&#x212;" d="M436 1229 l292 0 q124 -1 194 -65 q69 -63 70 -177 q-1 -115 -67 -178 q-67 -62 -191 -63 l-298 0 l0 483 ZM436 541 l286 0 l0 0 l283 -541 l295 0 l-315 581 q130 49 201 158 q70 108 71 253 q-2 210 -133 329 q-130 120 -360 122 l-586 0 l0 -1443 l258 0 l0 541 ZM249 1578 l188 0 q2 77 55 122 q52 44 144 45 q92 -1 144 -45 q53 -45 55 -122 l188 0 q-2 145 -104 233 q-102 87 -283 89 q-181 -2 -283 -89 q-102 -88 -104 -233 l0 0 Z" /><glyph glyph-name="" unicode="&#x154;" d="M758 1585 l321 310 l-283 0 l-288 -310 l250 0 ZM436 1229 l292 0 q124 -1 194 -65 q69 -63 70 -177 q-1 -115 -67 -178 q-67 -62 -191 -63 l-298 0 l0 483 ZM436 541 l286 0 l0 0 l283 -541 l295 0 l-315 581 q130 49 201 158 q70 108 71 253 q-2 210 -133 329 q-130 120 -360 122 l-586 0 l0 -1443 l258 0 l0 541 Z" /><glyph glyph-name="" unicode="&#x1e5a;" d="M636 -413 q64 1 104 38 q39 37 40 95 q-1 58 -40 95 q-40 37 -104 38 q-64 -1 -103 -38 q-40 -37 -41 -95 q1 -58 41 -95 q39 -37 103 -38 l0 0 ZM436 1229 l292 0 q124 -1 194 -65 q69 -63 70 -177 q-1 -115 -67 -178 q-67 -62 -191 -63 l-298 0 l0 483 ZM436 541 l286 0 l0 0 l283 -541 l295 0 l-315 581 q130 49 201 158 q70 108 71 253 q-2 210 -133 329 q-130 120 -360 122 l-586 0 l0 -1443 l258 0 l0 541 Z" /><glyph glyph-name="" unicode="&#x1e58;" d="M636 1578 q63 1 103 42 q40 40 41 102 q-1 63 -41 103 q-40 41 -103 42 q-64 -1 -103 -42 q-40 -40 -41 -103 q1 -62 41 -102 q39 -41 103 -42 l0 0 ZM436 1229 l292 0 q124 -1 194 -65 q69 -63 70 -177 q-1 -115 -67 -178 q-67 -62 -191 -63 l-298 0 l0 483 ZM436 541 l286 0 l0 0 l283 -541 l295 0 l-315 581 q130 49 201 158 q70 108 71 253 q-2 210 -133 329 q-130 120 -360 122 l-586 0 l0 -1443 l258 0 l0 541 Z" /><glyph glyph-name="" unicode="&#x156;" d="M436 1229 l292 0 q124 -1 194 -65 q69 -63 70 -177 q-1 -115 -67 -178 q-67 -62 -191 -63 l-298 0 l0 483 ZM436 541 l286 0 l0 0 l283 -541 l295 0 l-315 581 q130 49 201 158 q70 108 71 253 q-2 210 -133 329 q-130 120 -360 122 l-586 0 l0 -1443 l258 0 l0 541 ZM633 -512 l149 364 l-253 0 l-121 -364 l225 0 Z" /><glyph glyph-name="" unicode="s" d="M112 392 q13 -199 162 -312 q150 -114 401 -116 q265 2 415 123 q149 120 152 333 q1 164 -98 262 q-100 98 -318 146 l-166 38 q-133 30 -193 77 q-60 46 -59 118 q2 93 76 148 q74 54 200 55 q120 -1 197 -56 q76 -55 91 -151 l247 0 q-13 189 -158 304 q-145 115 -376 118 q-246 -3 -390 -120 q-144 -117 -147 -316 q0 -161 94 -260 q95 -100 291 -144 l187 -43 q138 -31 201 -81 q64 -50 63 -127 q-2 -92 -83 -149 q-80 -57 -210 -59 q-139 1 -226 58 q-87 56 -101 154 l-252 0 Z" /><glyph glyph-name="" unicode="&#x160;" d="M112 392 q13 -199 162 -312 q150 -114 401 -116 q265 2 415 123 q149 120 152 333 q1 164 -98 262 q-100 98 -318 146 l-166 38 q-133 30 -193 77 q-60 46 -59 118 q2 93 76 148 q74 54 200 55 q120 -1 197 -56 q76 -55 91 -151 l247 0 q-13 189 -158 304 q-145 115 -376 118 q-246 -3 -390 -120 q-144 -117 -147 -316 q0 -161 94 -260 q95 -100 291 -144 l187 -43 q138 -31 201 -81 q64 -50 63 -127 q-2 -92 -83 -149 q-80 -57 -210 -59 q-139 1 -226 58 q-87 56 -101 154 l-252 0 ZM574 1585 l222 0 l288 310 l-235 0 l-155 -174 l-18 0 l-155 174 l-235 0 l288 -310 Z" /><glyph glyph-name="" unicode="&#x15e;" d="M660 866 q-133 30 -193 77 q-60 46 -59 118 q2 93 76 148 q74 54 200 55 q120 -1 197 -56 q76 -55 91 -151 l247 0 q-13 189 -158 304 q-145 115 -376 118 q-246 -3 -390 -120 q-144 -117 -147 -316 q0 -161 94 -260 q95 -100 291 -144 l187 -43 q138 -31 201 -81 q64 -50 63 -127 q-2 -92 -83 -149 q-80 -57 -210 -59 q-139 1 -226 58 q-87 56 -101 154 l-252 0 q11 -181 137 -292 q127 -111 341 -132 l-41 -100 l0 -104 l59 0 q72 0 105 -14 q33 -14 32 -45 q0 -32 -29 -48 q-29 -16 -85 -16 q-30 0 -65 4 q-35 5 -53 10 l0 -125 q29 -8 66 -13 q36 -5 80 -5 q124 1 191 54 q67 53 68 145 q0 80 -53 124 q-52 45 -150 48 l34 84 q232 19 361 137 q130 119 132 316 q1 164 -98 262 q-100 98 -318 146 l-166 38 Z" /><glyph glyph-name="" unicode="&#x1e60;" d="M685 1578 q63 1 103 42 q40 40 41 102 q-1 63 -41 103 q-40 41 -103 42 q-64 -1 -103 -42 q-40 -40 -41 -103 q1 -62 41 -102 q39 -41 103 -42 l0 0 ZM112 392 q13 -199 162 -312 q150 -114 401 -116 q265 2 415 123 q149 120 152 333 q1 164 -98 262 q-100 98 -318 146 l-166 38 q-133 30 -193 77 q-60 46 -59 118 q2 93 76 148 q74 54 200 55 q120 -1 197 -56 q76 -55 91 -151 l247 0 q-13 189 -158 304 q-145 115 -376 118 q-246 -3 -390 -120 q-144 -117 -147 -316 q0 -161 94 -260 q95 -100 291 -144 l187 -43 q138 -31 201 -81 q64 -50 63 -127 q-2 -92 -83 -149 q-80 -57 -210 -59 q-139 1 -226 58 q-87 56 -101 154 l-252 0 Z" /><glyph glyph-name="" unicode="&#x1e62;" d="M675 -413 q64 1 104 38 q39 37 40 95 q-1 58 -40 95 q-40 37 -104 38 q-64 -1 -103 -38 q-40 -37 -41 -95 q1 -58 41 -95 q39 -37 103 -38 l0 0 ZM112 392 q13 -199 162 -312 q150 -114 401 -116 q265 2 415 123 q149 120 152 333 q1 164 -98 262 q-100 98 -318 146 l-166 38 q-133 30 -193 77 q-60 46 -59 118 q2 93 76 148 q74 54 200 55 q120 -1 197 -56 q76 -55 91 -151 l247 0 q-13 189 -158 304 q-145 115 -376 118 q-246 -3 -390 -120 q-144 -117 -147 -316 q0 -161 94 -260 q95 -100 291 -144 l187 -43 q138 -31 201 -81 q64 -50 63 -127 q-2 -92 -83 -149 q-80 -57 -210 -59 q-139 1 -226 58 q-87 56 -101 154 l-252 0 Z" /><glyph glyph-name="" unicode="&#x218;" d="M112 392 q13 -199 162 -312 q150 -114 401 -116 q265 2 415 123 q149 120 152 333 q1 164 -98 262 q-100 98 -318 146 l-166 38 q-133 30 -193 77 q-60 46 -59 118 q2 93 76 148 q74 54 200 55 q120 -1 197 -56 q76 -55 91 -151 l247 0 q-13 189 -158 304 q-145 115 -376 118 q-246 -3 -390 -120 q-144 -117 -147 -316 q0 -161 94 -260 q95 -100 291 -144 l187 -43 q138 -31 201 -81 q64 -50 63 -127 q-2 -92 -83 -149 q-80 -57 -210 -59 q-139 1 -226 58 q-87 56 -101 154 l-252 0 ZM672 -512 l149 364 l-253 0 l-121 -364 l225 0 Z" /><glyph glyph-name="" unicode="&#x1e68;" d="M675 -413 q64 1 104 38 q39 37 40 95 q-1 58 -40 95 q-40 37 -104 38 q-64 -1 -103 -38 q-40 -37 -41 -95 q1 -58 41 -95 q39 -37 103 -38 l0 0 ZM112 392 q13 -199 162 -312 q150 -114 401 -116 q265 2 415 123 q149 120 152 333 q1 164 -98 262 q-100 98 -318 146 l-166 38 q-133 30 -193 77 q-60 46 -59 118 q2 93 76 148 q74 54 200 55 q120 -1 197 -56 q76 -55 91 -151 l247 0 q-13 189 -158 304 q-145 115 -376 118 q-246 -3 -390 -120 q-144 -117 -147 -316 q0 -161 94 -260 q95 -100 291 -144 l187 -43 q138 -31 201 -81 q64 -50 63 -127 q-2 -92 -83 -149 q-80 -57 -210 -59 q-139 1 -226 58 q-87 56 -101 154 l-252 0 ZM685 1578 q63 1 103 42 q40 40 41 102 q-1 63 -41 103 q-40 41 -103 42 q-64 -1 -103 -42 q-40 -40 -41 -103 q1 -62 41 -102 q39 -41 103 -42 l0 0 Z" /><glyph glyph-name="" unicode="&#x1e66;" d="M557 1578 l256 0 l284 256 l-254 0 l-149 -140 l-18 0 l-149 140 l-254 0 l284 -256 ZM685 1892 q63 1 102 40 q40 38 41 99 q-1 60 -41 98 q-39 39 -102 40 q-63 -1 -102 -40 q-40 -38 -41 -98 q1 -61 41 -99 q39 -39 102 -40 l0 0 ZM112 392 q13 -199 162 -312 q150 -114 401 -116 q265 2 415 123 q149 120 152 333 q1 164 -98 262 q-100 98 -318 146 l-166 38 q-133 30 -193 77 q-60 46 -59 118 q2 93 76 148 q74 54 200 55 q120 -1 197 -56 q76 -55 91 -151 l247 0 q-13 189 -158 304 q-145 115 -376 118 q-246 -3 -390 -120 q-144 -117 -147 -316 q0 -161 94 -260 q95 -100 291 -144 l187 -43 q138 -31 201 -81 q64 -50 63 -127 q-2 -92 -83 -149 q-80 -57 -210 -59 q-139 1 -226 58 q-87 56 -101 154 l-252 0 Z" /><glyph glyph-name="" unicode="&#x15c;" d="M112 392 q13 -199 162 -312 q150 -114 401 -116 q265 2 415 123 q149 120 152 333 q1 164 -98 262 q-100 98 -318 146 l-166 38 q-133 30 -193 77 q-60 46 -59 118 q2 93 76 148 q74 54 200 55 q120 -1 197 -56 q76 -55 91 -151 l247 0 q-13 189 -158 304 q-145 115 -376 118 q-246 -3 -390 -120 q-144 -117 -147 -316 q0 -161 94 -260 q95 -100 291 -144 l187 -43 q138 -31 201 -81 q64 -50 63 -127 q-2 -92 -83 -149 q-80 -57 -210 -59 q-139 1 -226 58 q-87 56 -101 154 l-252 0 ZM569 1906 l-290 -321 l242 0 l155 183 l18 0 l155 -183 l242 0 l-290 321 l-232 0 Z" /><glyph glyph-name="" unicode="&#x1e64;" d="M920 1585 l321 310 l-283 0 l-288 -310 l250 0 ZM477 1617 q63 1 103 42 q40 40 41 102 q-1 63 -41 103 q-40 41 -103 42 q-64 -1 -103 -42 q-40 -40 -41 -103 q1 -62 41 -102 q39 -41 103 -42 l0 0 ZM112 392 q13 -199 162 -312 q150 -114 401 -116 q265 2 415 123 q149 120 152 333 q1 164 -98 262 q-100 98 -318 146 l-166 38 q-133 30 -193 77 q-60 46 -59 118 q2 93 76 148 q74 54 200 55 q120 -1 197 -56 q76 -55 91 -151 l247 0 q-13 189 -158 304 q-145 115 -376 118 q-246 -3 -390 -120 q-144 -117 -147 -316 q0 -161 94 -260 q95 -100 291 -144 l187 -43 q138 -31 201 -81 q64 -50 63 -127 q-2 -92 -83 -149 q-80 -57 -210 -59 q-139 1 -226 58 q-87 56 -101 154 l-252 0 Z" /><glyph glyph-name="" unicode="&#x15a;" d="M807 1585 l321 310 l-283 0 l-288 -310 l250 0 ZM112 392 q13 -199 162 -312 q150 -114 401 -116 q265 2 415 123 q149 120 152 333 q1 164 -98 262 q-100 98 -318 146 l-166 38 q-133 30 -193 77 q-60 46 -59 118 q2 93 76 148 q74 54 200 55 q120 -1 197 -56 q76 -55 91 -151 l247 0 q-13 189 -158 304 q-145 115 -376 118 q-246 -3 -390 -120 q-144 -117 -147 -316 q0 -161 94 -260 q95 -100 291 -144 l187 -43 q138 -31 201 -81 q64 -50 63 -127 q-2 -92 -83 -149 q-80 -57 -210 -59 q-139 1 -226 58 q-87 56 -101 154 l-252 0 Z" /><glyph glyph-name="" unicode="t" d="M795 0 l0 1220 l445 0 l0 223 l-1147 0 l0 -223 l444 0 l0 -1220 l258 0 Z" /><glyph glyph-name="" unicode="&#x1e70;" d="M795 0 l0 1220 l445 0 l0 223 l-1147 0 l0 -223 l444 0 l0 -1220 l258 0 ZM788 -148 l-248 0 l-291 -284 l254 0 l152 160 l18 0 l152 -160 l254 0 l-291 284 Z" /><glyph glyph-name="" unicode="&#x1e6c;" d="M664 -413 q64 1 104 38 q39 37 40 95 q-1 58 -40 95 q-40 37 -104 38 q-64 -1 -103 -38 q-40 -37 -41 -95 q1 -58 41 -95 q39 -37 103 -38 l0 0 ZM795 0 l0 1220 l445 0 l0 223 l-1147 0 l0 -223 l444 0 l0 -1220 l258 0 Z" /><glyph glyph-name="" unicode="&#x21a;" d="M661 -512 l149 364 l-253 0 l-121 -364 l225 0 ZM795 0 l0 1220 l445 0 l0 223 l-1147 0 l0 -223 l444 0 l0 -1220 l258 0 Z" /><glyph glyph-name="" unicode="&#x1e6a;" d="M664 1578 q63 1 103 42 q40 40 41 102 q-1 63 -41 103 q-40 41 -103 42 q-64 -1 -103 -42 q-40 -40 -41 -103 q1 -62 41 -102 q39 -41 103 -42 l0 0 ZM795 0 l0 1220 l445 0 l0 223 l-1147 0 l0 -223 l444 0 l0 -1220 l258 0 Z" /><glyph glyph-name="" unicode="&#x162;" d="M795 0 l0 1220 l445 0 l0 223 l-1147 0 l0 -223 l444 0 l0 -1220 l98 0 l-54 -132 l0 -104 l59 0 q72 0 105 -14 q33 -14 32 -45 q0 -32 -29 -48 q-29 -16 -85 -16 q-30 0 -65 4 q-35 5 -53 10 l0 -125 q29 -8 66 -13 q36 -5 80 -5 q124 1 191 54 q67 53 68 145 q0 80 -53 124 q-52 45 -150 48 l47 117 l1 0 Z" /><glyph glyph-name="" unicode="&#x1e6e;" d="M1024 -218 l-720 0 l0 -164 l720 0 l0 164 ZM795 0 l0 1220 l445 0 l0 223 l-1147 0 l0 -223 l444 0 l0 -1220 l258 0 Z" /><glyph glyph-name="" unicode="&#x164;" d="M553 1585 l222 0 l288 310 l-235 0 l-155 -174 l-18 0 l-155 174 l-235 0 l288 -310 ZM795 0 l0 1220 l445 0 l0 223 l-1147 0 l0 -223 l444 0 l0 -1220 l258 0 Z" /><glyph glyph-name="" unicode="&#x166;" d="M1240 1220 l0 223 l-1147 0 l0 -223 l444 0 l0 -422 l-293 0 l0 -191 l293 0 l0 -607 l258 0 l0 607 l289 0 l0 191 l-289 0 l0 422 l445 0 Z" /><glyph glyph-name="" unicode="u" d="M439 1443 l-257 0 l0 -946 q3 -240 160 -385 q156 -144 433 -148 q277 4 433 148 q157 145 160 385 l0 946 l-258 0 l0 -922 q-1 -148 -87 -236 q-87 -88 -248 -90 q-161 2 -248 90 q-87 88 -88 236 l0 922 Z" /><glyph glyph-name="" unicode="ù" d="M656 1585 l250 0 l-288 310 l-283 0 l321 -310 ZM439 1443 l-257 0 l0 -946 q3 -240 160 -385 q156 -144 433 -148 q277 4 433 148 q157 145 160 385 l0 946 l-258 0 l0 -922 q-1 -148 -87 -236 q-87 -88 -248 -90 q-161 2 -248 90 q-87 88 -88 236 l0 922 Z" /><glyph glyph-name="" unicode="&#x214;" d="M885 1585 l229 0 l-273 310 l-254 0 l298 -310 ZM456 1585 l230 0 l-273 310 l-254 0 l297 -310 ZM439 1443 l-257 0 l0 -946 q3 -240 160 -385 q156 -144 433 -148 q277 4 433 148 q157 145 160 385 l0 946 l-258 0 l0 -922 q-1 -148 -87 -236 q-87 -88 -248 -90 q-161 2 -248 90 q-87 88 -88 236 l0 922 Z" /><glyph glyph-name="" unicode="ú" d="M897 1585 l321 310 l-283 0 l-288 -310 l250 0 ZM439 1443 l-257 0 l0 -946 q3 -240 160 -385 q156 -144 433 -148 q277 4 433 148 q157 145 160 385 l0 946 l-258 0 l0 -922 q-1 -148 -87 -236 q-87 -88 -248 -90 q-161 2 -248 90 q-87 88 -88 236 l0 922 Z" /><glyph glyph-name="" unicode="&#x170;" d="M439 1443 l-257 0 l0 -946 q3 -240 160 -385 q156 -144 433 -148 q277 4 433 148 q157 145 160 385 l0 946 l-258 0 l0 -922 q-1 -148 -87 -236 q-87 -88 -248 -90 q-161 2 -248 90 q-87 88 -88 236 l0 922 ZM1067 1585 l297 310 l-254 0 l-273 -310 l230 0 ZM638 1585 l297 310 l-254 0 l-273 -310 l230 0 Z" /><glyph glyph-name="" unicode="û" d="M659 1906 l-290 -321 l242 0 l155 183 l18 0 l155 -183 l242 0 l-290 321 l-232 0 ZM439 1443 l-257 0 l0 -946 q3 -240 160 -385 q156 -144 433 -148 q277 4 433 148 q157 145 160 385 l0 946 l-258 0 l0 -922 q-1 -148 -87 -236 q-87 -88 -248 -90 q-161 2 -248 90 q-87 88 -88 236 l0 922 Z" /><glyph glyph-name="" unicode="&#x1d3;" d="M664 1585 l222 0 l288 310 l-235 0 l-155 -174 l-18 0 l-155 174 l-235 0 l288 -310 ZM439 1443 l-257 0 l0 -946 q3 -240 160 -385 q156 -144 433 -148 q277 4 433 148 q157 145 160 385 l0 946 l-258 0 l0 -922 q-1 -148 -87 -236 q-87 -88 -248 -90 q-161 2 -248 90 q-87 88 -88 236 l0 922 Z" /><glyph glyph-name="" unicode="&#x1e76;" d="M439 1443 l-257 0 l0 -946 q3 -240 160 -385 q156 -144 433 -148 q277 4 433 148 q157 145 160 385 l0 946 l-258 0 l0 -922 q-1 -148 -87 -236 q-87 -88 -248 -90 q-161 2 -248 90 q-87 88 -88 236 l0 922 ZM899 -148 l-248 0 l-291 -284 l254 0 l152 160 l18 0 l152 -160 l254 0 l-291 284 Z" /><glyph glyph-name="" unicode="ü" d="M552 1577 q63 1 102 41 q40 39 41 100 q-1 61 -41 101 q-39 39 -102 40 q-62 -1 -102 -40 q-40 -40 -41 -101 q1 -61 41 -100 q40 -40 102 -41 l0 0 ZM997 1577 q63 1 102 41 q40 39 41 100 q-1 61 -41 101 q-39 39 -102 40 q-62 -1 -102 -40 q-40 -40 -41 -101 q1 -61 41 -100 q40 -40 102 -41 l0 0 ZM439 1443 l-257 0 l0 -946 q3 -240 160 -385 q156 -144 433 -148 q277 4 433 148 q157 145 160 385 l0 946 l-258 0 l0 -922 q-1 -148 -87 -236 q-87 -88 -248 -90 q-161 2 -248 90 q-87 88 -88 236 l0 922 Z" /><glyph glyph-name="" unicode="&#x1db;" d="M896 1914 l-190 235 l-268 0 l241 -235 l217 0 ZM553 1578 q62 1 101 40 q40 39 41 100 q-1 62 -41 101 q-39 39 -101 40 q-63 -1 -102 -40 q-40 -39 -41 -101 q1 -61 41 -100 q39 -39 102 -40 l0 0 ZM997 1578 q63 1 102 40 q40 39 41 100 q-1 62 -41 101 q-39 39 -102 40 q-62 -1 -101 -40 q-40 -39 -41 -101 q1 -61 41 -100 q39 -39 101 -40 l0 0 ZM439 1443 l-257 0 l0 -946 q3 -240 160 -385 q156 -144 433 -148 q277 4 433 148 q157 145 160 385 l0 946 l-258 0 l0 -922 q-1 -148 -87 -236 q-87 -88 -248 -90 q-161 2 -248 90 q-87 88 -88 236 l0 922 Z" /><glyph glyph-name="" unicode="&#x1d7;" d="M667 1914 l216 0 l241 235 l-268 0 l-189 -235 ZM553 1578 q62 1 101 40 q40 39 41 100 q-1 62 -41 101 q-39 39 -101 40 q-63 -1 -102 -40 q-40 -39 -41 -101 q1 -61 41 -100 q39 -39 102 -40 l0 0 ZM997 1578 q63 1 102 40 q40 39 41 100 q-1 62 -41 101 q-39 39 -102 40 q-62 -1 -101 -40 q-40 -39 -41 -101 q1 -61 41 -100 q39 -39 101 -40 l0 0 ZM439 1443 l-257 0 l0 -946 q3 -240 160 -385 q156 -144 433 -148 q277 4 433 148 q157 145 160 385 l0 946 l-258 0 l0 -922 q-1 -148 -87 -236 q-87 -88 -248 -90 q-161 2 -248 90 q-87 88 -88 236 l0 922 Z" /><glyph glyph-name="" unicode="&#x1d5;" d="M439 1443 l-257 0 l0 -946 q3 -240 160 -385 q156 -144 433 -148 q277 4 433 148 q157 145 160 385 l0 946 l-258 0 l0 -922 q-1 -148 -87 -236 q-87 -88 -248 -90 q-161 2 -248 90 q-87 88 -88 236 l0 922 ZM553 1854 q-62 -1 -101 -39 q-39 -39 -40 -99 q1 -60 40 -99 q39 -38 101 -39 q61 1 100 39 q39 39 40 99 q-1 60 -40 99 q-39 38 -100 39 l0 0 ZM415 2127 l0 -154 l720 0 l0 154 l-720 0 ZM997 1854 q-61 -1 -100 -39 q-39 -39 -40 -99 q1 -60 40 -99 q39 -38 100 -39 q62 1 101 39 q39 39 40 99 q-1 60 -40 99 q-39 38 -101 39 l0 0 Z" /><glyph glyph-name="" unicode="&#x1d9;" d="M653 1893 l244 0 l283 275 l-248 0 l-148 -154 l-18 0 l-148 154 l-248 0 l283 -275 ZM553 1837 q-61 -1 -99 -38 q-39 -38 -40 -96 q1 -59 40 -96 q38 -38 99 -39 q61 1 100 39 q38 37 39 96 q-1 58 -39 96 q-39 37 -100 38 l0 0 ZM997 1837 q-61 -1 -99 -38 q-39 -38 -40 -96 q1 -59 40 -96 q38 -38 99 -39 q61 1 100 39 q38 37 39 96 q-1 58 -39 96 q-39 37 -100 38 l0 0 ZM439 1443 l-257 0 l0 -946 q3 -240 160 -385 q156 -144 433 -148 q277 4 433 148 q157 145 160 385 l0 946 l-258 0 l0 -922 q-1 -148 -87 -236 q-87 -88 -248 -90 q-161 2 -248 90 q-87 88 -88 236 l0 922 Z" /><glyph glyph-name="" unicode="&#x1e72;" d="M439 1443 l-257 0 l0 -946 q3 -240 160 -385 q156 -144 433 -148 q277 4 433 148 q157 145 160 385 l0 946 l-258 0 l0 -922 q-1 -148 -87 -236 q-87 -88 -248 -90 q-161 2 -248 90 q-87 88 -88 236 l0 922 ZM553 -432 q64 1 104 38 q39 37 40 95 q-1 57 -40 94 q-40 37 -104 38 q-65 -1 -104 -38 q-39 -37 -40 -94 q1 -58 40 -95 q39 -37 104 -38 l0 0 ZM997 -432 q65 1 104 38 q39 37 40 95 q-1 57 -40 94 q-39 37 -104 38 q-64 -1 -103 -38 q-40 -37 -41 -94 q1 -58 41 -95 q39 -37 103 -38 l0 0 Z" /><glyph glyph-name="" unicode="&#x1e74;" d="M931 -426 q108 1 173 75 q64 74 66 211 l-165 0 q-4 -74 -29 -101 q-25 -27 -60 -26 q-60 9 -118 73 q-58 63 -179 72 q-108 0 -173 -73 q-64 -74 -66 -215 l166 0 q3 72 26 101 q23 29 62 28 q70 -9 126 -72 q56 -64 171 -73 l0 0 ZM439 1443 l-257 0 l0 -946 q3 -240 160 -385 q156 -144 433 -148 q277 4 433 148 q157 145 160 385 l0 946 l-258 0 l0 -922 q-1 -148 -87 -236 q-87 -88 -248 -90 q-161 2 -248 90 q-87 88 -88 236 l0 922 Z" /><glyph glyph-name="" unicode="&#x1ee6;" d="M439 1443 l-257 0 l0 -946 q3 -240 160 -385 q156 -144 433 -148 q277 4 433 148 q157 145 160 385 l0 946 l-258 0 l0 -922 q-1 -148 -87 -236 q-87 -88 -248 -90 q-161 2 -248 90 q-87 88 -88 236 l0 922 ZM580 1809 q20 9 49 15 q29 5 62 5 q47 -1 75 -21 q28 -21 29 -55 q-1 -33 -30 -61 q-29 -28 -77 -44 l85 -108 q89 33 140 95 q52 61 53 140 q-1 93 -66 145 q-64 53 -174 54 q-44 0 -82 -7 q-39 -7 -64 -16 l0 -142 Z" /><glyph glyph-name="" unicode="&#x16c;" d="M439 1443 l-257 0 l0 -946 q3 -240 160 -385 q156 -144 433 -148 q277 4 433 148 q157 145 160 385 l0 946 l-258 0 l0 -922 q-1 -148 -87 -236 q-87 -88 -248 -90 q-161 2 -248 90 q-87 88 -88 236 l0 922 ZM388 1900 q2 -146 104 -233 q102 -87 283 -89 q181 2 283 89 q102 87 104 233 l-188 0 q-2 -77 -55 -122 q-52 -44 -144 -45 q-92 1 -144 45 q-53 45 -55 122 l-188 0 Z" /><glyph glyph-name="" unicode="&#x216;" d="M439 1443 l-257 0 l0 -946 q3 -240 160 -385 q156 -144 433 -148 q277 4 433 148 q157 145 160 385 l0 946 l-258 0 l0 -922 q-1 -148 -87 -236 q-87 -88 -248 -90 q-161 2 -248 90 q-87 88 -88 236 l0 922 ZM388 1578 l188 0 q2 77 55 122 q52 44 144 45 q92 -1 144 -45 q53 -45 55 -122 l188 0 q-2 145 -104 233 q-102 87 -283 89 q-181 -2 -283 -89 q-102 -88 -104 -233 l0 0 Z" /><glyph glyph-name="" unicode="&#x1e78;" d="M439 1443 l-257 0 l0 -946 q3 -240 160 -385 q156 -144 433 -148 q277 4 433 148 q157 145 160 385 l0 946 l-258 0 l0 -922 q-1 -148 -87 -236 q-87 -88 -248 -90 q-161 2 -248 90 q-87 88 -88 236 l0 922 ZM924 1578 q106 2 172 73 q65 71 67 193 l-166 0 q-4 -57 -29 -83 q-24 -25 -60 -25 q-69 8 -117 62 q-49 53 -165 61 q-106 -1 -172 -72 q-65 -70 -67 -196 l166 0 q3 55 27 83 q23 27 62 27 q69 -8 117 -61 q49 -54 165 -62 l0 0 ZM704 1914 l231 0 l211 235 l-260 0 l-182 -235 Z" /><glyph glyph-name="" unicode="&#x1ee4;" d="M775 -413 q64 1 104 38 q39 37 40 95 q-1 58 -40 95 q-40 37 -104 38 q-64 -1 -103 -38 q-40 -37 -41 -95 q1 -58 41 -95 q39 -37 103 -38 l0 0 ZM439 1443 l-257 0 l0 -946 q3 -240 160 -385 q156 -144 433 -148 q277 4 433 148 q157 145 160 385 l0 946 l-258 0 l0 -922 q-1 -148 -87 -236 q-87 -88 -248 -90 q-161 2 -248 90 q-87 88 -88 236 l0 922 Z" /><glyph glyph-name="" unicode="&#x168;" d="M439 1443 l-257 0 l0 -946 q3 -240 160 -385 q156 -144 433 -148 q277 4 433 148 q157 145 160 385 l0 946 l-258 0 l0 -922 q-1 -148 -87 -236 q-87 -88 -248 -90 q-161 2 -248 90 q-87 88 -88 236 l0 922 ZM931 1576 q108 1 173 79 q64 78 66 218 l-166 0 q-4 -76 -29 -106 q-25 -29 -61 -28 q-58 9 -116 75 q-57 65 -179 74 q-108 -1 -173 -78 q-64 -77 -66 -221 l166 0 q3 74 27 106 q23 31 63 30 q68 -9 124 -74 q55 -66 171 -75 l0 0 Z" /><glyph glyph-name="" unicode="&#x16a;" d="M439 1443 l-257 0 l0 -946 q3 -240 160 -385 q156 -144 433 -148 q277 4 433 148 q157 145 160 385 l0 946 l-258 0 l0 -922 q-1 -148 -87 -236 q-87 -88 -248 -90 q-161 2 -248 90 q-87 88 -88 236 l0 922 ZM1135 1792 l-720 0 l0 -164 l720 0 l0 164 Z" /><glyph glyph-name="" unicode="&#x1e7a;" d="M1135 1614 l0 161 l-720 0 l0 -161 l720 0 ZM561 1883 q60 1 97 39 q37 37 38 95 q-1 58 -38 96 q-37 38 -97 39 q-60 -1 -97 -39 q-38 -38 -39 -96 q1 -58 39 -95 q37 -38 97 -39 l0 0 ZM989 1883 q60 1 97 39 q38 37 39 95 q-1 58 -39 96 q-37 38 -97 39 q-60 -1 -97 -39 q-37 -38 -38 -96 q1 -58 38 -95 q37 -38 97 -39 l0 0 ZM439 1443 l-257 0 l0 -946 q3 -240 160 -385 q156 -144 433 -148 q277 4 433 148 q157 145 160 385 l0 946 l-258 0 l0 -922 q-1 -148 -87 -236 q-87 -88 -248 -90 q-161 2 -248 90 q-87 88 -88 236 l0 922 Z" /><glyph glyph-name="" unicode="&#x16e;" d="M775 1548 q88 2 144 57 q57 55 59 142 q-2 87 -59 141 q-56 55 -144 57 q-87 -2 -144 -57 q-57 -54 -59 -141 q2 -87 59 -142 q57 -55 144 -57 l0 0 ZM775 1649 q-44 1 -71 28 q-27 26 -28 69 q1 44 28 70 q27 27 71 28 q44 -1 71 -28 q27 -26 28 -70 q-1 -42 -28 -69 q-27 -27 -71 -28 l0 0 ZM439 1443 l-257 0 l0 -946 q3 -240 160 -385 q156 -144 433 -148 q277 4 433 148 q157 145 160 385 l0 946 l-258 0 l0 -922 q-1 -148 -87 -236 q-87 -88 -248 -90 q-161 2 -248 90 q-87 88 -88 236 l0 922 Z" /><glyph glyph-name="" unicode="&#x172;" d="M1044 -454 q48 0 78 7 q30 6 47 13 l0 154 q-8 -2 -26 -5 q-18 -2 -42 -2 q-50 0 -82 26 q-32 26 -33 74 q0 93 137 213 q124 107 184 221 q61 113 61 250 l0 946 l-258 0 l0 -922 q-2 -153 -90 -239 q-89 -86 -245 -87 q-157 1 -246 87 q-88 86 -90 239 l0 922 l-257 0 l0 -946 q4 -245 163 -388 q159 -142 430 -145 q39 0 78 7 q38 7 59 17 l0 -18 q-52 -30 -91 -84 q-38 -54 -40 -127 q2 -93 72 -152 q70 -59 191 -61 l0 0 Z" /><glyph glyph-name="" unicode="&#x1af;" d="M775 -36 q271 3 430 146 q159 142 163 387 l0 772 l78 0 q99 0 158 52 q59 52 60 153 l0 224 l-205 0 l0 -175 q0 -40 -21 -60 q-20 -20 -63 -20 l-265 0 l0 -922 q-2 -153 -90 -239 q-89 -86 -245 -87 q-157 2 -246 88 q-88 86 -90 238 l0 922 l-257 0 l0 -946 q4 -245 162 -387 q159 -143 431 -146 l0 0 Z" /><glyph glyph-name="" unicode="&#x1eea;" d="M656 1585 l250 0 l-288 310 l-283 0 l321 -310 ZM775 -36 q271 3 430 146 q159 142 163 387 l0 772 l78 0 q99 0 158 52 q59 52 60 153 l0 224 l-205 0 l0 -175 q0 -40 -21 -60 q-20 -20 -63 -20 l-265 0 l0 -922 q-2 -153 -90 -239 q-89 -86 -245 -87 q-157 2 -246 88 q-88 86 -90 238 l0 922 l-257 0 l0 -946 q4 -245 162 -387 q159 -143 431 -146 l0 0 Z" /><glyph glyph-name="" unicode="&#x1ee8;" d="M897 1585 l321 310 l-283 0 l-288 -310 l250 0 ZM775 -36 q271 3 430 146 q159 142 163 387 l0 772 l78 0 q99 0 158 52 q59 52 60 153 l0 224 l-205 0 l0 -175 q0 -40 -21 -60 q-20 -20 -63 -20 l-265 0 l0 -922 q-2 -153 -90 -239 q-89 -86 -245 -87 q-157 2 -246 88 q-88 86 -90 238 l0 922 l-257 0 l0 -946 q4 -245 162 -387 q159 -143 431 -146 l0 0 Z" /><glyph glyph-name="" unicode="&#x1ef0;" d="M775 -413 q64 1 104 38 q39 37 40 95 q-1 58 -40 95 q-40 37 -104 38 q-64 -1 -103 -38 q-40 -37 -41 -95 q1 -58 41 -95 q39 -37 103 -38 l0 0 ZM775 -36 q271 3 430 146 q159 142 163 387 l0 772 l78 0 q99 0 158 52 q59 52 60 153 l0 224 l-205 0 l0 -175 q0 -40 -21 -60 q-20 -20 -63 -20 l-265 0 l0 -922 q-2 -153 -90 -239 q-89 -86 -245 -87 q-157 2 -246 88 q-88 86 -90 238 l0 922 l-257 0 l0 -946 q4 -245 162 -387 q159 -143 431 -146 l0 0 Z" /><glyph glyph-name="" unicode="&#x1eec;" d="M580 1809 q20 9 49 15 q29 5 62 5 q47 -1 75 -21 q28 -21 29 -55 q-1 -33 -30 -61 q-29 -28 -77 -44 l85 -108 q89 33 140 95 q52 61 53 140 q-1 93 -66 145 q-64 53 -174 54 q-44 0 -82 -7 q-39 -7 -64 -16 l0 -142 ZM775 -36 q271 3 430 146 q159 142 163 387 l0 772 l78 0 q99 0 158 52 q59 52 60 153 l0 224 l-205 0 l0 -175 q0 -40 -21 -60 q-20 -20 -63 -20 l-265 0 l0 -922 q-2 -153 -90 -239 q-89 -86 -245 -87 q-157 2 -246 88 q-88 86 -90 238 l0 922 l-257 0 l0 -946 q4 -245 162 -387 q159 -143 431 -146 l0 0 Z" /><glyph glyph-name="" unicode="&#x1eee;" d="M931 1576 q108 1 173 79 q64 78 66 218 l-166 0 q-4 -76 -29 -106 q-25 -29 -61 -28 q-58 9 -116 75 q-57 65 -179 74 q-108 -1 -173 -78 q-64 -77 -66 -221 l166 0 q3 74 27 106 q23 31 63 30 q68 -9 124 -74 q55 -66 171 -75 l0 0 ZM775 -36 q271 3 430 146 q159 142 163 387 l0 772 l78 0 q99 0 158 52 q59 52 60 153 l0 224 l-205 0 l0 -175 q0 -40 -21 -60 q-20 -20 -63 -20 l-265 0 l0 -922 q-2 -153 -90 -239 q-89 -86 -245 -87 q-157 2 -246 88 q-88 86 -90 238 l0 922 l-257 0 l0 -946 q4 -245 162 -387 q159 -143 431 -146 l0 0 Z" /><glyph glyph-name="" unicode="v" d="M872 0 l499 1443 l-275 0 l-360 -1142 l-17 0 l-363 1142 l-285 0 l504 -1443 l297 0 Z" /><glyph glyph-name="" unicode="&#x1e7c;" d="M874 1576 q108 1 173 79 q64 78 66 218 l-166 0 q-4 -76 -29 -106 q-25 -29 -61 -28 q-58 9 -116 75 q-57 65 -179 74 q-108 -1 -173 -78 q-64 -77 -66 -221 l166 0 q3 74 27 106 q23 31 63 30 q68 -9 124 -74 q55 -66 171 -75 l0 0 ZM872 0 l499 1443 l-275 0 l-360 -1142 l-17 0 l-363 1142 l-285 0 l504 -1443 l297 0 Z" /><glyph glyph-name="" unicode="&#x1e7e;" d="M718 -413 q64 1 104 38 q39 37 40 95 q-1 58 -40 95 q-40 37 -104 38 q-64 -1 -103 -38 q-40 -37 -41 -95 q1 -58 41 -95 q39 -37 103 -38 l0 0 ZM872 0 l499 1443 l-275 0 l-360 -1142 l-17 0 l-363 1142 l-285 0 l504 -1443 l297 0 Z" /><glyph glyph-name="" unicode="w" d="M1010 1022 l15 0 l294 -1022 l242 0 l387 1443 l-267 0 l-247 -1074 l-14 0 l-288 1074 l-229 0 l-284 -1074 l-15 0 l-247 1074 l-269 0 l387 -1443 l243 0 l292 1022 Z" /><glyph glyph-name="" unicode="&#x1e80;" d="M899 1585 l250 0 l-288 310 l-283 0 l321 -310 ZM1010 1022 l15 0 l294 -1022 l242 0 l387 1443 l-267 0 l-247 -1074 l-14 0 l-288 1074 l-229 0 l-284 -1074 l-15 0 l-247 1074 l-269 0 l387 -1443 l243 0 l292 1022 Z" /><glyph glyph-name="" unicode="&#x1e82;" d="M1140 1585 l321 310 l-283 0 l-288 -310 l250 0 ZM1010 1022 l15 0 l294 -1022 l242 0 l387 1443 l-267 0 l-247 -1074 l-14 0 l-288 1074 l-229 0 l-284 -1074 l-15 0 l-247 1074 l-269 0 l387 -1443 l243 0 l292 1022 Z" /><glyph glyph-name="" unicode="&#x1e86;" d="M1018 1578 q63 1 103 42 q40 40 41 102 q-1 63 -41 103 q-40 41 -103 42 q-64 -1 -103 -42 q-40 -40 -41 -103 q1 -62 41 -102 q39 -41 103 -42 l0 0 ZM1010 1022 l15 0 l294 -1022 l242 0 l387 1443 l-267 0 l-247 -1074 l-14 0 l-288 1074 l-229 0 l-284 -1074 l-15 0 l-247 1074 l-269 0 l387 -1443 l243 0 l292 1022 Z" /><glyph glyph-name="" unicode="&#x1e88;" d="M1018 -413 q64 1 104 38 q39 37 40 95 q-1 58 -40 95 q-40 37 -104 38 q-64 -1 -103 -38 q-40 -37 -41 -95 q1 -58 41 -95 q39 -37 103 -38 l0 0 ZM1010 1022 l15 0 l294 -1022 l242 0 l387 1443 l-267 0 l-247 -1074 l-14 0 l-288 1074 l-229 0 l-284 -1074 l-15 0 l-247 1074 l-269 0 l387 -1443 l243 0 l292 1022 Z" /><glyph glyph-name="" unicode="&#x1e84;" d="M795 1577 q63 1 102 41 q40 39 41 100 q-1 61 -41 101 q-39 39 -102 40 q-62 -1 -102 -40 q-40 -40 -41 -101 q1 -61 41 -100 q40 -40 102 -41 l0 0 ZM1240 1577 q63 1 102 41 q40 39 41 100 q-1 61 -41 101 q-39 39 -102 40 q-62 -1 -102 -40 q-40 -40 -41 -101 q1 -61 41 -100 q40 -40 102 -41 l0 0 ZM1010 1022 l15 0 l294 -1022 l242 0 l387 1443 l-267 0 l-247 -1074 l-14 0 l-288 1074 l-229 0 l-284 -1074 l-15 0 l-247 1074 l-269 0 l387 -1443 l243 0 l292 1022 Z" /><glyph glyph-name="" unicode="&#x174;" d="M902 1906 l-290 -321 l242 0 l155 183 l18 0 l155 -183 l242 0 l-290 321 l-232 0 ZM1010 1022 l15 0 l294 -1022 l242 0 l387 1443 l-267 0 l-247 -1074 l-14 0 l-288 1074 l-229 0 l-284 -1074 l-15 0 l-247 1074 l-269 0 l387 -1443 l243 0 l292 1022 Z" /><glyph glyph-name="" unicode="x" d="M89 0 l281 0 l340 518 l17 0 l335 -518 l298 0 l-476 721 l0 0 l484 722 l-290 0 l-334 -530 l-17 0 l-329 530 l-305 0 l468 -716 l0 0 l-472 -727 Z" /><glyph glyph-name="" unicode="&#x1e8a;" d="M89 0 l281 0 l340 518 l17 0 l335 -518 l298 0 l-476 721 l0 0 l484 722 l-290 0 l-334 -530 l-17 0 l-329 530 l-305 0 l468 -716 l0 0 l-472 -727 ZM732 1578 q63 1 103 42 q40 40 41 102 q-1 63 -41 103 q-40 41 -103 42 q-64 -1 -103 -42 q-40 -40 -41 -103 q1 -62 41 -102 q39 -41 103 -42 l0 0 Z" /><glyph glyph-name="" unicode="&#x1e8c;" d="M89 0 l281 0 l340 518 l17 0 l335 -518 l298 0 l-476 721 l0 0 l484 722 l-290 0 l-334 -530 l-17 0 l-329 530 l-305 0 l468 -716 l0 0 l-472 -727 ZM509 1577 q63 1 102 41 q40 39 41 100 q-1 61 -41 101 q-39 39 -102 40 q-62 -1 -102 -40 q-40 -40 -41 -101 q1 -61 41 -100 q40 -40 102 -41 l0 0 ZM954 1577 q63 1 102 41 q40 39 41 100 q-1 61 -41 101 q-39 39 -102 40 q-62 -1 -102 -40 q-40 -40 -41 -101 q1 -61 41 -100 q40 -40 102 -41 l0 0 Z" /><glyph glyph-name="" unicode="y" d="M835 0 l0 564 l506 879 l-283 0 l-343 -617 l-17 0 l-344 617 l-283 0 l506 -879 l0 -564 l258 0 Z" /><glyph glyph-name="" unicode="&#x1ef2;" d="M835 0 l0 564 l506 879 l-283 0 l-343 -617 l-17 0 l-344 617 l-283 0 l506 -879 l0 -564 l258 0 ZM587 1585 l250 0 l-288 310 l-283 0 l321 -310 Z" /><glyph glyph-name="" unicode="ý" d="M835 0 l0 564 l506 879 l-283 0 l-343 -617 l-17 0 l-344 617 l-283 0 l506 -879 l0 -564 l258 0 ZM828 1585 l321 310 l-283 0 l-288 -310 l250 0 Z" /><glyph glyph-name="" unicode="&#x1e8e;" d="M835 0 l0 564 l506 879 l-283 0 l-343 -617 l-17 0 l-344 617 l-283 0 l506 -879 l0 -564 l258 0 ZM706 1578 q63 1 103 42 q40 40 41 102 q-1 63 -41 103 q-40 41 -103 42 q-64 -1 -103 -42 q-40 -40 -41 -103 q1 -62 41 -102 q39 -41 103 -42 l0 0 Z" /><glyph glyph-name="" unicode="&#x1ef4;" d="M835 0 l0 564 l506 879 l-283 0 l-343 -617 l-17 0 l-344 617 l-283 0 l506 -879 l0 -564 l258 0 ZM706 -413 q64 1 104 38 q39 37 40 95 q-1 58 -40 95 q-40 37 -104 38 q-64 -1 -103 -38 q-40 -37 -41 -95 q1 -58 41 -95 q39 -37 103 -38 l0 0 Z" /><glyph glyph-name="" unicode="&#x178;" d="M835 0 l0 564 l506 879 l-283 0 l-343 -617 l-17 0 l-344 617 l-283 0 l506 -879 l0 -564 l258 0 ZM483 1577 q63 1 102 41 q40 39 41 100 q-1 61 -41 101 q-39 39 -102 40 q-62 -1 -102 -40 q-40 -40 -41 -101 q1 -61 41 -100 q40 -40 102 -41 l0 0 ZM928 1577 q63 1 102 41 q40 39 41 100 q-1 61 -41 101 q-39 39 -102 40 q-62 -1 -102 -40 q-40 -40 -41 -101 q1 -61 41 -100 q40 -40 102 -41 l0 0 Z" /><glyph glyph-name="" unicode="&#x1ef8;" d="M835 0 l0 564 l506 879 l-283 0 l-343 -617 l-17 0 l-344 617 l-283 0 l506 -879 l0 -564 l258 0 ZM862 1576 q108 1 173 79 q64 78 66 218 l-166 0 q-4 -76 -29 -106 q-25 -29 -61 -28 q-58 9 -116 75 q-57 65 -179 74 q-108 -1 -173 -78 q-64 -77 -66 -221 l166 0 q3 74 27 106 q23 31 63 30 q68 -9 124 -74 q55 -66 171 -75 l0 0 Z" /><glyph glyph-name="" unicode="&#x176;" d="M835 0 l0 564 l506 879 l-283 0 l-343 -617 l-17 0 l-344 617 l-283 0 l506 -879 l0 -564 l258 0 ZM590 1906 l-290 -321 l242 0 l155 183 l18 0 l155 -183 l242 0 l-290 321 l-232 0 Z" /><glyph glyph-name="" unicode="&#x232;" d="M835 0 l0 564 l506 879 l-283 0 l-343 -617 l-17 0 l-344 617 l-283 0 l506 -879 l0 -564 l258 0 ZM1066 1792 l-720 0 l0 -164 l720 0 l0 164 Z" /><glyph glyph-name="" unicode="&#x1ef6;" d="M835 0 l0 564 l506 879 l-283 0 l-343 -617 l-17 0 l-344 617 l-283 0 l506 -879 l0 -564 l258 0 ZM511 1809 q20 9 49 15 q29 5 62 5 q47 -1 75 -21 q28 -21 29 -55 q-1 -33 -30 -61 q-29 -28 -77 -44 l85 -108 q89 33 140 95 q52 61 53 140 q-1 93 -66 145 q-64 53 -174 54 q-44 0 -82 -7 q-39 -7 -64 -16 l0 -142 Z" /><glyph glyph-name="" unicode="z" d="M138 0 l1097 0 l0 223 l-775 0 l0 17 l756 1027 l0 176 l-1057 0 l0 -223 l738 0 l0 -17 l-759 -1027 l0 -176 Z" /><glyph glyph-name="" unicode="&#x179;" d="M809 1585 l321 310 l-283 0 l-288 -310 l250 0 ZM138 0 l1097 0 l0 223 l-775 0 l0 17 l756 1027 l0 176 l-1057 0 l0 -223 l738 0 l0 -17 l-759 -1027 l0 -176 Z" /><glyph glyph-name="" unicode="&#x17d;" d="M138 0 l1097 0 l0 223 l-775 0 l0 17 l756 1027 l0 176 l-1057 0 l0 -223 l738 0 l0 -17 l-759 -1027 l0 -176 ZM576 1585 l222 0 l288 310 l-235 0 l-155 -174 l-18 0 l-155 174 l-235 0 l288 -310 Z" /><glyph glyph-name="" unicode="&#x1e90;" d="M138 0 l1097 0 l0 223 l-775 0 l0 17 l756 1027 l0 176 l-1057 0 l0 -223 l738 0 l0 -17 l-759 -1027 l0 -176 ZM571 1906 l-290 -321 l242 0 l155 183 l18 0 l155 -183 l242 0 l-290 321 l-232 0 Z" /><glyph glyph-name="" unicode="&#x1e94;" d="M138 0 l1097 0 l0 223 l-775 0 l0 17 l756 1027 l0 176 l-1057 0 l0 -223 l738 0 l0 -17 l-759 -1027 l0 -176 ZM1047 -218 l-720 0 l0 -164 l720 0 l0 164 Z" /><glyph glyph-name="" unicode="&#x1e92;" d="M687 -413 q64 1 104 38 q39 37 40 95 q-1 58 -40 95 q-40 37 -104 38 q-64 -1 -103 -38 q-40 -37 -41 -95 q1 -58 41 -95 q39 -37 103 -38 l0 0 ZM138 0 l1097 0 l0 223 l-775 0 l0 17 l756 1027 l0 176 l-1057 0 l0 -223 l738 0 l0 -17 l-759 -1027 l0 -176 Z" /><glyph glyph-name="" unicode="&#x17b;" d="M687 1578 q63 1 103 42 q40 40 41 102 q-1 63 -41 103 q-40 41 -103 42 q-64 -1 -103 -42 q-40 -40 -41 -103 q1 -62 41 -102 q39 -41 103 -42 l0 0 ZM138 0 l1097 0 l0 223 l-775 0 l0 17 l756 1027 l0 176 l-1057 0 l0 -223 l738 0 l0 -17 l-759 -1027 l0 -176 Z" /><glyph glyph-name="" unicode="æ" d="M853 1235 l136 0 l0 -632 l-408 0 l272 632 ZM989 0 l894 0 l0 223 l-653 0 l0 397 l616 0 l0 211 l-616 0 l0 389 l653 0 l0 223 l-1197 0 l-615 -1443 l256 0 l174 398 l488 0 l0 -398 Z" /><glyph glyph-name="" unicode="&#x1e2;" d="M853 1235 l136 0 l0 -632 l-408 0 l272 632 ZM989 0 l894 0 l0 223 l-653 0 l0 397 l616 0 l0 211 l-616 0 l0 389 l653 0 l0 223 l-1197 0 l-615 -1443 l256 0 l174 398 l488 0 l0 -398 ZM1852 1792 l-720 0 l0 -164 l720 0 l0 164 Z" /><glyph glyph-name="" unicode="&#x1fc;" d="M1614 1585 l321 310 l-283 0 l-288 -310 l250 0 ZM853 1235 l136 0 l0 -632 l-408 0 l272 632 ZM989 0 l894 0 l0 223 l-653 0 l0 397 l616 0 l0 211 l-616 0 l0 389 l653 0 l0 223 l-1197 0 l-615 -1443 l256 0 l174 398 l488 0 l0 -398 Z" /><glyph glyph-name="" unicode="&#x152;" d="M814 1250 q192 -3 301 -142 q109 -140 111 -386 q-2 -246 -111 -386 q-109 -140 -301 -143 q-200 3 -312 142 q-113 140 -115 387 q2 246 115 386 q113 139 312 142 l0 0 ZM1267 0 l908 0 l0 223 l-688 0 l0 404 l651 0 l0 210 l-651 0 l0 383 l688 0 l0 223 l-908 0 l0 -229 l-18 0 q-60 119 -189 191 q-129 72 -285 74 q-306 -3 -477 -202 q-171 -199 -174 -555 q3 -357 173 -556 q171 -199 478 -202 q158 2 285 76 q128 73 189 198 l18 0 l0 -238 Z" /><glyph glyph-name="" unicode="ð" d="M436 223 l0 411 l235 0 l0 204 l-235 0 l0 382 l249 0 q214 -1 331 -130 q117 -128 119 -366 q-1 -243 -117 -371 q-117 -129 -333 -130 l-249 0 ZM178 1443 l0 -605 l-137 0 l0 -204 l137 0 l0 -634 l541 0 q326 2 502 190 q175 189 177 538 q-2 342 -179 527 q-176 186 -500 188 l-541 0 Z" /><glyph glyph-name="" unicode="þ" d="M178 1443 l0 -1443 l258 0 l0 309 l322 0 q198 2 330 118 q131 117 136 327 q-5 211 -133 327 q-128 116 -323 118 l-331 0 l0 244 l-259 0 ZM436 983 l261 0 q120 0 191 -57 q71 -57 73 -172 q-2 -115 -73 -173 q-71 -58 -192 -58 l-260 0 l0 460 Z" /><glyph glyph-name="" unicode="&#x391;" d="M1109 0 l277 0 l-513 1443 l-290 0 l-512 -1443 l261 0 l124 369 l531 0 l122 -369 ZM714 1168 l17 0 l196 -595 l-411 0 l198 595 Z" /><glyph glyph-name="" unicode="&#x392;" d="M795 0 q233 2 364 110 q130 108 132 300 q-2 143 -91 237 q-89 93 -237 109 l0 18 q111 20 183 106 q72 86 74 203 q-2 168 -117 263 q-115 95 -322 97 l-603 0 l0 -1443 l617 0 ZM436 1238 l282 0 q118 -1 182 -53 q64 -52 65 -148 q0 -98 -71 -149 q-71 -52 -209 -52 l-249 0 l0 402 ZM436 205 l0 445 l290 0 q148 0 224 -56 q77 -56 77 -164 q0 -111 -74 -168 q-74 -57 -217 -57 l-300 0 Z" /><glyph glyph-name="" unicode="&#x393;" d="M436 0 l0 1220 l642 0 l0 223 l-900 0 l0 -1443 l258 0 Z" /><glyph glyph-name="" unicode="&#x394;&#x2206;" d="M1356 0 l0 159 l-478 1284 l-291 0 l-477 -1284 l0 -159 l1246 0 ZM385 240 l333 938 l18 0 l330 -938 l0 -17 l-681 0 l0 17 Z" /><glyph glyph-name="" unicode="&#x395;" d="M1112 223 l-676 0 l0 404 l639 0 l0 210 l-639 0 l0 383 l676 0 l0 223 l-934 0 l0 -1443 l934 0 l0 223 Z" /><glyph glyph-name="" unicode="&#x396;" d="M138 0 l1097 0 l0 223 l-775 0 l0 17 l756 1027 l0 176 l-1057 0 l0 -223 l738 0 l0 -17 l-759 -1027 l0 -176 Z" /><glyph glyph-name="" unicode="&#x397;" d="M1395 0 l0 1443 l-257 0 l0 -597 l-702 0 l0 597 l-258 0 l0 -1443 l258 0 l0 623 l702 0 l0 -623 l257 0 Z" /><glyph glyph-name="" unicode="&#x398;" d="M1094 608 l0 219 l-545 0 l0 -219 l545 0 ZM823 1479 q-330 -2 -516 -197 q-187 -195 -190 -560 q3 -363 189 -559 q186 -197 517 -199 q330 2 516 199 q185 197 188 559 q-3 364 -188 560 q-185 195 -516 197 l0 0 ZM823 1253 q204 -1 320 -138 q117 -137 119 -393 q-2 -256 -118 -393 q-116 -138 -321 -139 q-206 1 -322 139 q-117 137 -119 393 q2 256 120 393 q118 137 321 138 l0 0 Z" /><glyph glyph-name="" unicode="&#x399;" d="M436 0 l0 1443 l-258 0 l0 -1443 l258 0 Z" /><glyph glyph-name="" unicode="&#x39a;" d="M436 0 l0 460 l154 177 l456 -637 l315 0 l-588 814 l545 629 l-296 0 l-569 -664 l-17 0 l0 664 l-258 0 l0 -1443 l258 0 Z" /><glyph glyph-name="" unicode="&#x39b;" d="M1076 0 l279 0 l-492 1443 l-291 0 l-492 -1443 l265 0 l360 1154 l17 0 l354 -1154 Z" /><glyph glyph-name="" unicode="&#x39c;" d="M1668 0 l0 1443 l-302 0 l-434 -1051 l-18 0 l-434 1051 l-302 0 l0 -1443 l240 0 l0 1015 l14 0 l399 -959 l184 0 l399 959 l14 0 l0 -1015 l240 0 Z" /><glyph glyph-name="" unicode="&#x39d;" d="M427 0 l0 982 l17 0 l708 -982 l223 0 l0 1443 l-248 0 l0 -981 l-17 0 l-708 981 l-224 0 l0 -1443 l249 0 Z" /><glyph glyph-name="" unicode="&#x39e;" d="M142 1443 l0 -230 l1077 0 l0 230 l-1077 0 ZM1132 622 l0 217 l-903 0 l0 -217 l903 0 ZM142 230 l0 -230 l1077 0 l0 230 l-1077 0 Z" /><glyph glyph-name="" unicode="&#x39f;" d="M801 1479 q-318 -4 -499 -204 q-182 -200 -185 -553 q3 -353 183 -554 q180 -200 501 -204 q319 4 498 205 q180 200 183 553 q-3 353 -183 553 q-180 200 -498 204 l0 0 ZM801 1250 q194 -3 305 -143 q110 -140 112 -385 q-2 -244 -112 -385 q-110 -141 -305 -144 q-198 3 -308 144 q-110 141 -112 385 q2 245 114 385 q111 140 306 143 l0 0 Z" /><glyph glyph-name="" unicode="&#x3a0;" d="M1375 0 l0 1443 l-1197 0 l0 -1443 l258 0 l0 1220 l682 0 l0 -1220 l257 0 Z" /><glyph glyph-name="" unicode="&#x3a1;" d="M178 1443 l0 -1443 l258 0 l0 473 l313 0 q223 3 358 134 q134 130 138 348 q-3 221 -134 353 q-132 132 -351 135 l-582 0 ZM436 1227 l256 0 q140 0 215 -70 q75 -69 76 -202 q-1 -130 -77 -198 q-76 -69 -215 -70 l-255 0 l0 540 Z" /><glyph glyph-name="" unicode="&#x3a3;" d="M463 240 l339 478 l0 35 l-316 450 l0 17 l709 0 l0 223 l-1037 0 l0 -199 l373 -520 l-393 -555 l0 -169 l1077 0 l0 223 l-752 0 l0 17 Z" /><glyph glyph-name="" unicode="&#x3a4;" d="M795 0 l0 1220 l445 0 l0 223 l-1147 0 l0 -223 l444 0 l0 -1220 l258 0 Z" /><glyph glyph-name="" unicode="&#x3a5;" d="M835 0 l0 564 l506 879 l-283 0 l-343 -617 l-17 0 l-344 617 l-283 0 l506 -879 l0 -564 l258 0 Z" /><glyph glyph-name="" unicode="&#x3a6;" d="M1448 715 q-2 -205 -115 -317 q-113 -112 -307 -125 l0 885 q194 -13 307 -125 q113 -113 115 -318 l0 0 ZM363 715 q2 205 115 318 q113 112 307 125 l0 -885 q-194 13 -307 125 q-113 112 -115 317 l0 0 ZM1026 -91 l0 148 q307 18 490 192 q183 174 188 466 q-5 292 -188 466 q-183 175 -490 192 l0 151 l-241 0 l0 -151 q-307 -17 -490 -192 q-183 -174 -188 -466 q5 -292 188 -466 q183 -174 490 -192 l0 -148 l241 0 Z" /><glyph glyph-name="" unicode="&#x3a7;" d="M89 0 l281 0 l340 518 l17 0 l335 -518 l298 0 l-476 721 l0 0 l484 722 l-290 0 l-334 -530 l-17 0 l-329 530 l-305 0 l468 -716 l0 0 l-472 -727 Z" /><glyph glyph-name="" unicode="&#x3a8;" d="M995 0 l0 318 q273 6 431 161 q157 155 160 423 l0 541 l-248 0 l0 -541 q-1 -170 -88 -262 q-87 -91 -255 -100 l0 903 l-248 0 l0 -903 q-168 9 -256 100 q-87 92 -88 262 l0 541 l-248 0 l0 -541 q3 -268 161 -422 q157 -155 431 -162 l0 -318 l248 0 Z" /><glyph glyph-name="" unicode="&#x3a9;&#x2126;" d="M1231 789 q0 -172 -73 -299 q-73 -126 -226 -216 l0 -274 l559 0 l0 216 l-293 0 l0 17 q139 86 216 236 q76 150 77 337 q-5 305 -190 487 q-185 181 -495 186 q-309 -5 -494 -186 q-185 -182 -190 -487 q1 -187 78 -337 q76 -150 215 -236 l0 -17 l-293 0 l0 -216 l558 0 l0 274 q-152 90 -225 216 q-73 127 -73 299 q2 215 114 337 q112 122 310 124 q199 -2 311 -124 q112 -122 114 -337 l0 0 Z" /><glyph glyph-name="" unicode="&#x386;" d="M1151 0 l277 0 l-513 1443 l-290 0 l-512 -1443 l261 0 l124 369 l531 0 l122 -369 ZM756 1168 l17 0 l196 -595 l-411 0 l198 595 ZM77 1079 l209 0 l141 364 l-265 0 l-85 -364 Z" /><glyph glyph-name="" unicode="&#x388;" d="M87 1079 l209 0 l141 364 l-265 0 l-85 -364 ZM1536 223 l-676 0 l0 404 l639 0 l0 210 l-639 0 l0 383 l676 0 l0 223 l-934 0 l0 -1443 l934 0 l0 223 Z" /><glyph glyph-name="" unicode="&#x389;" d="M87 1079 l209 0 l141 364 l-265 0 l-85 -364 ZM1819 0 l0 1443 l-257 0 l0 -597 l-702 0 l0 597 l-258 0 l0 -1443 l258 0 l0 623 l702 0 l0 -623 l257 0 Z" /><glyph glyph-name="" unicode="&#x38a;" d="M860 0 l0 1443 l-258 0 l0 -1443 l258 0 ZM87 1079 l209 0 l141 364 l-265 0 l-85 -364 Z" /><glyph glyph-name="" unicode="&#x3aa;" d="M436 0 l0 1443 l-258 0 l0 -1443 l258 0 ZM84 1577 q63 1 102 41 q40 39 41 100 q-1 61 -41 101 q-39 39 -102 40 q-62 -1 -102 -40 q-40 -40 -41 -101 q1 -61 41 -100 q40 -40 102 -41 l0 0 ZM529 1577 q63 1 102 41 q40 39 41 100 q-1 61 -41 101 q-39 39 -102 40 q-62 -1 -102 -40 q-40 -40 -41 -101 q1 -61 41 -100 q40 -40 102 -41 l0 0 Z" /><glyph glyph-name="" unicode="&#x38c;" d="M1097 1479 q-318 -4 -499 -204 q-182 -200 -185 -553 q3 -353 183 -554 q180 -200 501 -204 q319 4 498 205 q180 200 183 553 q-3 353 -183 553 q-180 200 -498 204 l0 0 ZM1097 1250 q194 -3 305 -143 q110 -140 112 -385 q-2 -244 -112 -385 q-110 -141 -305 -144 q-198 3 -308 144 q-110 141 -112 385 q2 245 114 385 q111 140 306 143 l0 0 ZM87 1079 l209 0 l141 364 l-265 0 l-85 -364 Z" /><glyph glyph-name="" unicode="&#x38e;" d="M87 1079 l209 0 l141 364 l-265 0 l-85 -364 ZM1275 0 l0 564 l506 879 l-283 0 l-343 -617 l-17 0 l-344 617 l-283 0 l506 -879 l0 -564 l258 0 Z" /><glyph glyph-name="" unicode="&#x3ab;" d="M835 0 l0 564 l506 879 l-283 0 l-343 -617 l-17 0 l-344 617 l-283 0 l506 -879 l0 -564 l258 0 ZM483 1577 q63 1 102 41 q40 39 41 100 q-1 61 -41 101 q-39 39 -102 40 q-62 -1 -102 -40 q-40 -40 -41 -101 q1 -61 41 -100 q40 -40 102 -41 l0 0 ZM928 1577 q63 1 102 41 q40 39 41 100 q-1 61 -41 101 q-39 39 -102 40 q-62 -1 -102 -40 q-40 -40 -41 -101 q1 -61 41 -100 q40 -40 102 -41 l0 0 Z" /><glyph glyph-name="" unicode="&#x38f;" d="M1537 789 q0 -172 -73 -299 q-73 -126 -226 -216 l0 -274 l559 0 l0 216 l-293 0 l0 17 q139 86 216 236 q76 150 77 337 q-5 305 -190 487 q-185 181 -495 186 q-309 -5 -494 -186 q-185 -182 -190 -487 q1 -187 78 -337 q76 -150 215 -236 l0 -17 l-293 0 l0 -216 l558 0 l0 274 q-152 90 -225 216 q-73 127 -73 299 q2 215 114 337 q112 122 310 124 q199 -2 311 -124 q112 -122 114 -337 l0 0 ZM87 1079 l209 0 l141 364 l-265 0 l-85 -364 Z" /><glyph glyph-name="" unicode="&#x410;" d="M1119 0 l277 0 l-513 1443 l-290 0 l-512 -1443 l261 0 l124 369 l531 0 l122 -369 ZM724 1168 l17 0 l196 -595 l-411 0 l198 595 Z" /><glyph glyph-name="" unicode="&#x4d0;" d="M1119 0 l277 0 l-513 1443 l-290 0 l-512 -1443 l261 0 l124 369 l531 0 l122 -369 ZM724 1168 l17 0 l196 -595 l-411 0 l198 595 ZM363 1900 q2 -146 100 -229 q98 -83 264 -85 q167 2 266 85 q98 83 100 229 l-195 0 q-3 -77 -49 -120 q-47 -44 -122 -45 q-73 1 -120 45 q-46 43 -49 120 l-195 0 Z" /><glyph glyph-name="" unicode="&#x4d2;" d="M1119 0 l277 0 l-513 1443 l-290 0 l-512 -1443 l261 0 l124 369 l531 0 l122 -369 ZM724 1168 l17 0 l196 -595 l-411 0 l198 595 ZM515 1577 q63 1 102 41 q40 39 41 100 q-1 61 -41 101 q-39 39 -102 40 q-62 -1 -102 -40 q-40 -40 -41 -101 q1 -61 41 -100 q40 -40 102 -41 l0 0 ZM960 1577 q63 1 102 41 q40 39 41 100 q-1 61 -41 101 q-39 39 -102 40 q-62 -1 -102 -40 q-40 -40 -41 -101 q1 -61 41 -100 q40 -40 102 -41 l0 0 Z" /><glyph glyph-name="" unicode="&#x411;" d="M1242 448 q-4 201 -138 321 q-134 119 -356 122 l-302 0 l0 329 l659 0 l0 223 l-917 0 l0 -1443 l568 0 q219 3 351 124 q132 120 135 324 l0 0 ZM446 217 l0 464 l244 0 q138 0 213 -60 q74 -59 75 -173 q-1 -112 -75 -171 q-75 -60 -212 -60 l-245 0 Z" /><glyph glyph-name="" unicode="&#x412;" d="M805 0 q233 2 364 110 q130 108 132 300 q-2 143 -91 237 q-89 93 -237 109 l0 18 q111 20 183 106 q72 86 74 203 q-2 168 -117 263 q-115 95 -322 97 l-603 0 l0 -1443 l617 0 ZM446 1238 l282 0 q118 -1 182 -53 q64 -52 65 -148 q0 -98 -71 -149 q-71 -52 -209 -52 l-249 0 l0 402 ZM446 205 l0 445 l290 0 q148 0 224 -56 q77 -56 77 -164 q0 -111 -74 -168 q-74 -57 -217 -57 l-300 0 Z" /><glyph glyph-name="" unicode="&#x413;" d="M447 0 l0 1219 l644 0 l0 224 l-903 0 l0 -1443 l259 0 Z" /><glyph glyph-name="" unicode="&#x403;" d="M727 1574 l321 310 l-283 0 l-288 -310 l250 0 ZM447 0 l0 1219 l644 0 l0 224 l-903 0 l0 -1443 l259 0 Z" /><glyph glyph-name="" unicode="&#x490;" d="M447 1219 l644 0 l0 509 l-234 0 l0 -285 l-669 0 l0 -1443 l259 0 l0 1219 Z" /><glyph glyph-name="" unicode="&#x4f6;" d="M1091 1219 l0 224 l-903 0 l0 -1220 l0 -223 l204 0 l0 -285 l235 0 l0 508 l-180 0 l0 996 l644 0 Z" /><glyph glyph-name="" unicode="&#x492;" d="M1136 1219 l0 224 l-903 0 l0 -645 l-140 0 l0 -189 l140 0 l0 -609 l259 0 l0 609 l445 0 l0 189 l-445 0 l0 421 l644 0 Z" /><glyph glyph-name="" unicode="&#x4fa;" d="M1141 1219 l0 224 l-903 0 l0 -645 l-141 0 l0 -189 l141 0 l0 -272 l0 -337 l0 -28 q1 -74 -33 -107 q-34 -34 -116 -33 q-5 0 -16 1 q-12 0 -16 0 l0 -199 q7 -1 28 -1 q20 -1 32 -1 q188 0 284 83 q95 83 95 253 l0 32 l1 0 l0 609 l444 0 l0 189 l-444 0 l0 421 l644 0 Z" /><glyph glyph-name="" unicode="&#x414;" d="M528 583 l41 637 l491 0 l0 -997 l-627 0 l0 16 q47 56 68 141 q21 84 27 203 l0 0 ZM275 0 l988 0 l0 -285 l234 0 l0 508 l-180 0 l0 1220 l-976 0 l-51 -843 q-7 -145 -40 -236 q-32 -92 -107 -141 l-103 0 l0 -508 l235 0 l0 285 Z" /><glyph glyph-name="" unicode="&#x415;" d="M1122 223 l-676 0 l0 404 l639 0 l0 210 l-639 0 l0 383 l676 0 l0 223 l-934 0 l0 -1443 l934 0 l0 223 Z" /><glyph glyph-name="" unicode="&#x401;" d="M432 1577 q63 1 102 41 q40 39 41 100 q-1 61 -41 101 q-39 39 -102 40 q-62 -1 -102 -40 q-40 -40 -41 -101 q1 -61 41 -100 q40 -40 102 -41 l0 0 ZM877 1577 q63 1 102 41 q40 39 41 100 q-1 61 -41 101 q-39 39 -102 40 q-62 -1 -102 -40 q-40 -40 -41 -101 q1 -61 41 -100 q40 -40 102 -41 l0 0 ZM1122 223 l-676 0 l0 404 l639 0 l0 210 l-639 0 l0 383 l676 0 l0 223 l-934 0 l0 -1443 l934 0 l0 223 Z" /><glyph glyph-name="" unicode="&#x4d6;" d="M292 1900 q2 -146 100 -229 q98 -83 264 -85 q167 2 266 85 q98 83 100 229 l-195 0 q-3 -77 -49 -120 q-47 -44 -122 -45 q-73 1 -120 45 q-46 43 -49 120 l-195 0 ZM1122 223 l-676 0 l0 404 l639 0 l0 210 l-639 0 l0 383 l676 0 l0 223 l-934 0 l0 -1443 l934 0 l0 223 Z" /><glyph glyph-name="" unicode="&#x400;" d="M536 1585 l250 0 l-288 310 l-283 0 l321 -310 ZM1122 223 l-676 0 l0 404 l639 0 l0 210 l-639 0 l0 383 l676 0 l0 223 l-934 0 l0 -1443 l934 0 l0 223 Z" /><glyph glyph-name="" unicode="&#x416;" d="M1192 820 l0 623 l-254 0 l0 -623 l-46 0 l-495 623 l-292 0 l575 -709 l0 0 l-616 -734 l309 0 l518 620 l47 0 l0 -620 l254 0 l0 620 l48 0 l517 -620 l313 0 l-619 739 l0 0 l572 704 l-289 0 l-495 -623 l-47 0 Z" /><glyph glyph-name="" unicode="&#x4c1;" d="M1192 820 l0 623 l-254 0 l0 -623 l-46 0 l-495 623 l-292 0 l575 -709 l0 0 l-616 -734 l309 0 l518 620 l47 0 l0 -620 l254 0 l0 620 l48 0 l517 -620 l313 0 l-619 739 l0 0 l572 704 l-289 0 l-495 -623 l-47 0 ZM678 1900 q2 -146 104 -233 q102 -87 283 -89 q181 2 283 89 q102 87 104 233 l-188 0 q-2 -77 -55 -122 q-52 -44 -144 -45 q-92 1 -144 45 q-53 45 -55 122 l-188 0 Z" /><glyph glyph-name="" unicode="&#x4dc;" d="M1192 820 l0 623 l-254 0 l0 -623 l-46 0 l-495 623 l-292 0 l575 -709 l0 0 l-616 -734 l309 0 l518 620 l47 0 l0 -620 l254 0 l0 620 l48 0 l517 -620 l313 0 l-619 739 l0 0 l572 704 l-289 0 l-495 -623 l-47 0 ZM842 1577 q63 1 102 41 q40 39 41 100 q-1 61 -41 101 q-39 39 -102 40 q-62 -1 -102 -40 q-40 -40 -41 -101 q1 -61 41 -100 q40 -40 102 -41 l0 0 ZM1287 1577 q63 1 102 41 q40 39 41 100 q-1 61 -41 101 q-39 39 -102 40 q-62 -1 -102 -40 q-40 -40 -41 -101 q1 -61 41 -100 q40 -40 102 -41 l0 0 Z" /><glyph glyph-name="" unicode="&#x496;" d="M1883 223 l-432 516 l572 704 l-289 0 l-495 -623 l-47 0 l0 623 l-254 0 l0 -623 l-46 0 l-495 623 l-292 0 l575 -709 l-616 -734 l309 0 l518 620 l47 0 l0 -620 l254 0 l0 620 l48 0 l517 -620 l7 0 l99 0 l0 -285 l235 0 l0 508 l-215 0 Z" /><glyph glyph-name="" unicode="&#x417;" d="M456 628 l197 0 q142 -1 219 -58 q76 -57 77 -158 q-2 -103 -79 -165 q-78 -62 -211 -64 q-134 1 -216 59 q-81 58 -91 158 l-248 0 q13 -200 162 -317 q148 -116 392 -119 q242 3 397 122 q154 118 159 310 q-2 150 -90 241 q-88 90 -232 106 l0 17 q119 29 191 118 q71 89 73 211 q-4 177 -140 282 q-136 105 -359 108 q-236 -2 -375 -116 q-138 -114 -150 -314 l242 0 q9 102 81 159 q73 58 194 59 q122 -1 189 -57 q66 -56 67 -152 q-2 -98 -71 -157 q-69 -59 -185 -61 l-193 0 l0 -212 Z" /><glyph glyph-name="" unicode="&#x4de;" d="M439 1577 q63 1 102 41 q40 39 41 100 q-1 61 -41 101 q-39 39 -102 40 q-62 -1 -102 -40 q-40 -40 -41 -101 q1 -61 41 -100 q40 -40 102 -41 l0 0 ZM884 1577 q63 1 102 41 q40 39 41 100 q-1 61 -41 101 q-39 39 -102 40 q-62 -1 -102 -40 q-40 -40 -41 -101 q1 -61 41 -100 q40 -40 102 -41 l0 0 ZM456 628 l197 0 q142 -1 219 -58 q76 -57 77 -158 q-2 -103 -79 -165 q-78 -62 -211 -64 q-134 1 -216 59 q-81 58 -91 158 l-248 0 q13 -200 162 -317 q148 -116 392 -119 q242 3 397 122 q154 118 159 310 q-2 150 -90 241 q-88 90 -232 106 l0 17 q119 29 191 118 q71 89 73 211 q-4 177 -140 282 q-136 105 -359 108 q-236 -2 -375 -116 q-138 -114 -150 -314 l242 0 q9 102 81 159 q73 58 194 59 q122 -1 189 -57 q66 -56 67 -152 q-2 -98 -71 -157 q-69 -59 -185 -61 l-193 0 l0 -212 Z" /><glyph glyph-name="" unicode="&#x498;" d="M892 760 q119 29 191 118 q71 89 73 211 q-4 177 -140 282 q-136 105 -359 108 q-236 -2 -375 -116 q-138 -114 -150 -314 l242 0 q9 102 81 159 q73 58 194 59 q122 -1 189 -57 q66 -56 67 -152 q-2 -98 -71 -157 q-69 -59 -185 -61 l-193 0 l0 -212 l197 0 q142 -1 219 -58 q76 -57 77 -158 q-2 -103 -79 -165 q-78 -62 -211 -64 q-134 1 -216 59 q-81 58 -91 158 l-248 0 q11 -176 129 -288 q118 -113 316 -141 l0 -256 l234 0 l0 259 q192 33 310 145 q118 112 121 277 q-2 150 -90 241 q-88 90 -232 106 l0 17 Z" /><glyph glyph-name="" unicode="&#x418;" d="M1152 0 l256 0 l0 1443 l-250 0 l-696 -1028 l-17 0 l0 1028 l-257 0 l0 -1443 l250 0 l697 1026 l17 0 l0 -1026 Z" /><glyph glyph-name="" unicode="&#x419;" d="M439 1901 q2 -146 100 -229 q98 -83 264 -85 q167 2 266 85 q98 83 100 229 l-195 0 q-3 -77 -49 -120 q-47 -44 -122 -45 q-73 1 -120 45 q-46 43 -49 120 l-195 0 ZM1152 0 l256 0 l0 1443 l-250 0 l-696 -1028 l-17 0 l0 1028 l-257 0 l0 -1443 l250 0 l697 1026 l17 0 l0 -1026 Z" /><glyph glyph-name="" unicode="&#x40d;" d="M715 1585 l250 0 l-288 310 l-283 0 l321 -310 ZM1152 0 l256 0 l0 1443 l-250 0 l-696 -1028 l-17 0 l0 1028 l-257 0 l0 -1443 l250 0 l697 1026 l17 0 l0 -1026 Z" /><glyph glyph-name="" unicode="&#x4e2;" d="M1152 0 l256 0 l0 1443 l-250 0 l-696 -1028 l-17 0 l0 1028 l-257 0 l0 -1443 l250 0 l697 1026 l17 0 l0 -1026 ZM1175 1792 l-720 0 l0 -164 l720 0 l0 164 Z" /><glyph glyph-name="" unicode="&#x4e4;" d="M596 1577 q63 1 102 41 q40 39 41 100 q-1 61 -41 101 q-39 39 -102 40 q-62 -1 -102 -40 q-40 -40 -41 -101 q1 -61 41 -100 q40 -40 102 -41 l0 0 ZM1041 1577 q63 1 102 41 q40 39 41 100 q-1 61 -41 101 q-39 39 -102 40 q-62 -1 -102 -40 q-40 -40 -41 -101 q1 -61 41 -100 q40 -40 102 -41 l0 0 ZM1152 0 l256 0 l0 1443 l-250 0 l-696 -1028 l-17 0 l0 1028 l-257 0 l0 -1443 l250 0 l697 1026 l17 0 l0 -1026 Z" /><glyph glyph-name="" unicode="&#x48a;" d="M974 1901 q-3 -77 -49 -120 q-47 -44 -122 -45 q-73 1 -120 45 q-46 43 -49 120 l-195 0 q2 -146 100 -229 q98 -83 264 -85 q167 2 266 85 q98 83 100 229 l-195 0 ZM1408 223 l0 1220 l-250 0 l-696 -1028 l-17 0 l0 1028 l-257 0 l0 -1443 l250 0 l697 1026 l17 0 l0 -803 l0 -223 l169 0 l-79 -285 l230 0 l116 449 l0 59 l-180 0 Z" /><glyph glyph-name="" unicode="&#x41a;" d="M446 823 l0 620 l-258 0 l0 -1443 l258 0 l0 618 l45 0 l565 -618 l318 0 l-665 741 l0 0 l619 702 l-296 0 l-542 -620 l-44 0 Z" /><glyph glyph-name="" unicode="&#x40c;" d="M806 1574 l321 310 l-283 0 l-288 -310 l250 0 ZM453 823 l0 620 l-258 0 l0 -1443 l258 0 l0 618 l45 0 l565 -618 l318 0 l-665 741 l0 0 l619 702 l-296 0 l-542 -620 l-44 0 Z" /><glyph glyph-name="" unicode="&#x49a;" d="M1174 223 l-465 518 l619 702 l-296 0 l-542 -620 l-44 0 l0 620 l-258 0 l0 -1443 l258 0 l0 618 l45 0 l565 -618 l9 0 l103 0 l0 -285 l234 0 l0 508 l-228 0 Z" /><glyph glyph-name="" unicode="&#x49c;" d="M991 742 l448 701 l-277 0 l-401 -624 l-34 0 l0 307 l-171 0 l0 -307 l-110 0 l0 624 l-258 0 l0 -1443 l258 0 l0 621 l110 0 l0 -303 l171 0 l0 303 l35 0 l423 -621 l306 0 l-500 742 Z" /><glyph glyph-name="" unicode="&#x49e;" d="M721 741 l616 702 l-295 0 l-539 -620 l-57 0 l0 296 l233 0 l0 193 l-233 0 l0 131 l-258 0 l0 -131 l-164 0 l0 -193 l164 0 l0 -1119 l258 0 l0 618 l58 0 l561 -618 l319 0 l-663 741 Z" /><glyph glyph-name="" unicode="&#x4a0;" d="M1272 741 l619 702 l-296 0 l-542 -620 l-44 0 l0 397 l0 223 l-258 0 l-645 0 l0 -223 l645 0 l0 -1220 l258 0 l0 618 l45 0 l565 -618 l318 0 l-665 741 Z" /><glyph glyph-name="" unicode="&#x4c3;" d="M683 -417 q262 5 417 170 q155 166 159 437 q-3 220 -140 379 q-137 159 -372 214 l1 0 l580 660 l-296 0 l-542 -620 l-18 0 l-26 0 l0 620 l-258 0 l0 -1443 l258 0 l0 600 l29 0 q242 -3 381 -115 q139 -113 142 -303 q-2 -169 -92 -272 q-90 -104 -248 -107 q-24 0 -43 1 q-19 1 -35 3 l0 -215 q18 -4 45 -6 q27 -3 58 -3 l0 0 Z" /><glyph glyph-name="" unicode="&#x41b;" d="M1303 0 l0 1443 l-949 0 l-46 -866 q-5 -154 -47 -250 q-41 -97 -152 -100 q-18 0 -35 2 q-18 3 -28 5 l0 -233 q15 -5 39 -8 q25 -4 56 -4 q209 3 301 154 q92 151 105 418 l39 659 l459 0 l0 -1220 l258 0 Z" /><glyph glyph-name="" unicode="&#x4c5;" d="M1303 223 l0 1220 l-949 0 l-46 -866 q-5 -154 -47 -250 q-41 -97 -152 -100 q-18 0 -35 2 q-18 3 -28 5 l0 -233 q15 -5 39 -8 q25 -4 56 -4 q209 3 301 154 q92 151 105 418 l39 659 l459 0 l0 -997 l0 -223 l169 0 l-79 -285 l231 0 l115 449 l0 59 l-178 0 Z" /><glyph glyph-name="" unicode="&#x52e;" d="M1303 223 l0 1220 l-949 0 l-46 -866 q-5 -154 -47 -250 q-41 -97 -152 -100 q-18 0 -35 2 q-18 3 -28 5 l0 -233 q15 -5 39 -8 q25 -4 56 -4 q209 3 301 154 q92 151 105 418 l39 659 l459 0 l0 -1220 l1 0 l202 0 l0 -285 l235 0 l0 508 l-180 0 Z" /><glyph glyph-name="" unicode="&#x512;" d="M354 1443 l-46 -866 q-5 -154 -47 -250 q-41 -97 -152 -100 q-18 0 -35 2 q-18 3 -28 5 l0 -233 q15 -5 39 -8 q25 -4 56 -4 q209 3 301 154 q92 151 105 418 l39 659 l459 0 l0 -879 l0 -341 l0 -28 q1 -74 -33 -107 q-34 -34 -115 -33 q-6 0 -17 1 q-12 0 -16 0 l0 -199 q8 -1 28 -1 q20 -1 32 -1 q190 0 284 83 q95 83 95 253 l0 32 l0 341 l0 1102 l-949 0 Z" /><glyph glyph-name="" unicode="&#x41c;" d="M1678 0 l0 1443 l-302 0 l-434 -1051 l-18 0 l-434 1051 l-302 0 l0 -1443 l240 0 l0 1015 l14 0 l399 -959 l184 0 l399 959 l14 0 l0 -1015 l240 0 Z" /><glyph glyph-name="" unicode="&#x4cd;" d="M1678 223 l0 1220 l-302 0 l-434 -1051 l-18 0 l-434 1051 l-302 0 l0 -1443 l240 0 l0 1015 l14 0 l399 -959 l184 0 l399 959 l14 0 l0 -1015 l1 0 l169 0 l-79 -285 l230 0 l115 449 l0 59 l-196 0 Z" /><glyph glyph-name="" unicode="&#x41d;" d="M1405 0 l0 1443 l-257 0 l0 -597 l-702 0 l0 597 l-258 0 l0 -1443 l258 0 l0 623 l702 0 l0 -623 l257 0 Z" /><glyph glyph-name="" unicode="&#x4c7;" d="M1148 1443 l0 -597 l-702 0 l0 597 l-258 0 l0 -1443 l258 0 l0 623 l702 0 l0 -286 l0 -337 l0 -28 q1 -74 -33 -107 q-34 -34 -116 -33 q-5 0 -17 1 q-11 0 -15 0 l0 -199 q7 -1 28 -1 q20 -1 32 -1 q190 0 284 83 q94 83 94 253 l0 32 l0 337 l0 1106 l-257 0 Z" /><glyph glyph-name="" unicode="&#x4a2;" d="M1405 223 l0 1220 l-257 0 l0 -597 l-702 0 l0 597 l-258 0 l0 -1443 l258 0 l0 623 l702 0 l0 -400 l0 -223 l202 0 l0 -285 l235 0 l0 508 l-180 0 Z" /><glyph glyph-name="" unicode="&#x4c9;" d="M1405 223 l0 1220 l-257 0 l0 -597 l-702 0 l0 597 l-258 0 l0 -1443 l258 0 l0 623 l702 0 l0 -623 l1 0 l169 0 l-79 -285 l231 0 l115 449 l0 59 l-180 0 Z" /><glyph glyph-name="" unicode="&#x4a4;" d="M2051 1443 l-646 0 l-257 0 l0 -223 l0 -374 l-702 0 l0 597 l-258 0 l0 -1443 l258 0 l0 623 l702 0 l0 -623 l257 0 l0 1220 l646 0 l0 223 Z" /><glyph glyph-name="" unicode="&#x41e;" d="M811 1479 q-318 -4 -499 -204 q-182 -200 -185 -553 q3 -353 183 -554 q180 -200 501 -204 q319 4 498 205 q180 200 183 553 q-3 353 -183 553 q-180 200 -498 204 l0 0 ZM811 1250 q194 -3 305 -143 q110 -140 112 -385 q-2 -244 -112 -385 q-110 -141 -305 -144 q-198 3 -308 144 q-110 141 -112 385 q2 245 114 385 q111 140 306 143 l0 0 Z" /><glyph glyph-name="" unicode="&#x4e6;" d="M588 1577 q63 1 102 41 q40 39 41 100 q-1 61 -41 101 q-39 39 -102 40 q-62 -1 -102 -40 q-40 -40 -41 -101 q1 -61 41 -100 q40 -40 102 -41 l0 0 ZM1033 1577 q63 1 102 41 q40 39 41 100 q-1 61 -41 101 q-39 39 -102 40 q-62 -1 -102 -40 q-40 -40 -41 -101 q1 -61 41 -100 q40 -40 102 -41 l0 0 ZM811 1479 q-318 -4 -499 -204 q-182 -200 -185 -553 q3 -353 183 -554 q180 -200 501 -204 q319 4 498 205 q180 200 183 553 q-3 353 -183 553 q-180 200 -498 204 l0 0 ZM811 1250 q194 -3 305 -143 q110 -140 112 -385 q-2 -244 -112 -385 q-110 -141 -305 -144 q-198 3 -308 144 q-110 141 -112 385 q2 245 114 385 q111 140 306 143 l0 0 Z" /><glyph glyph-name="" unicode="&#x4e8;" d="M1226 633 q-22 -206 -131 -323 q-108 -117 -284 -119 q-179 2 -288 119 q-108 117 -130 323 l833 0 ZM396 836 q28 195 136 305 q108 109 279 111 q170 -2 278 -111 q107 -110 134 -305 l-827 0 ZM811 1479 q-318 -4 -499 -204 q-182 -200 -185 -553 q3 -353 183 -554 q180 -200 501 -204 q319 4 498 205 q180 200 183 553 q-3 353 -183 553 q-180 200 -498 204 l0 0 Z" /><glyph glyph-name="" unicode="&#x4ea;" d="M1028 1577 q63 1 102 41 q40 39 41 100 q-1 61 -41 101 q-39 39 -102 40 q-62 -1 -102 -40 q-40 -40 -41 -101 q1 -61 41 -100 q40 -40 102 -41 l0 0 ZM583 1577 q63 1 102 41 q40 39 41 100 q-1 61 -41 101 q-39 39 -102 40 q-62 -1 -102 -40 q-40 -40 -41 -101 q1 -61 41 -100 q40 -40 102 -41 l0 0 ZM1226 633 q-22 -206 -131 -323 q-108 -117 -284 -119 q-179 2 -288 119 q-108 117 -130 323 l833 0 ZM396 836 q28 195 136 305 q108 109 279 111 q170 -2 278 -111 q107 -110 134 -305 l-827 0 ZM811 1479 q-318 -4 -499 -204 q-182 -200 -185 -553 q3 -353 183 -554 q180 -200 501 -204 q319 4 498 205 q180 200 183 553 q-3 353 -183 553 q-180 200 -498 204 l0 0 Z" /><glyph glyph-name="" unicode="&#x472;" d="M811 191 q-174 2 -282 114 q-108 111 -134 309 q23 26 65 44 q43 17 111 18 q113 -6 214 -50 q101 -44 249 -50 q59 0 107 16 q48 16 85 46 q-21 -208 -129 -326 q-108 -119 -286 -121 l0 0 ZM811 1252 q169 -2 276 -110 q107 -109 135 -302 q-23 -27 -66 -45 q-44 -18 -113 -19 q-119 6 -219 50 q-101 44 -246 50 q-56 0 -102 -16 q-46 -15 -82 -44 q23 204 132 319 q109 115 285 117 l0 0 ZM811 1479 q-318 -4 -499 -204 q-182 -200 -185 -553 q3 -353 183 -554 q180 -200 501 -204 q319 4 498 205 q180 200 183 553 q-3 353 -183 553 q-180 200 -498 204 l0 0 Z" /><glyph glyph-name="" unicode="&#x41f;" d="M1388 0 l0 1443 l-1200 0 l0 -1443 l259 0 l0 1219 l684 0 l0 -1219 l257 0 Z" /><glyph glyph-name="" unicode="&#x524;" d="M1388 223 l0 1220 l-1200 0 l0 -1443 l259 0 l0 1219 l684 0 l0 -996 l0 -223 l202 0 l0 -285 l235 0 l0 508 l-180 0 Z" /><glyph glyph-name="" unicode="&#x40f;" d="M667 0 l0 -285 l242 0 l0 285 l479 0 l0 1443 l-258 0 l0 -1220 l-684 0 l0 1220 l-258 0 l0 -1443 l479 0 Z" /><glyph glyph-name="" unicode="&#x420;" d="M188 1443 l0 -1443 l258 0 l0 473 l313 0 q223 3 358 134 q134 130 138 348 q-3 221 -134 353 q-132 132 -351 135 l-582 0 ZM446 1227 l256 0 q140 0 215 -70 q75 -69 76 -202 q-1 -130 -77 -198 q-76 -69 -215 -70 l-255 0 l0 540 Z" /><glyph glyph-name="" unicode="&#x48e;" d="M446 684 l0 543 l256 0 q141 0 217 -70 q75 -69 76 -202 q0 -136 -82 -207 l-139 212 l-137 -89 l117 -184 q-25 -3 -53 -3 l-255 0 ZM188 1443 l0 -1443 l258 0 l0 474 l272 0 q76 0 145 15 l157 -250 l170 119 l-138 208 q97 64 150 163 q52 100 53 226 q-3 221 -134 353 q-132 132 -351 135 l-582 0 Z" /><glyph glyph-name="" unicode="&#x421;" d="M790 -36 q254 3 418 136 q164 134 193 358 l-254 0 q-28 -123 -123 -193 q-95 -70 -234 -71 q-186 2 -292 142 q-105 139 -107 386 q2 246 107 385 q105 140 291 142 q138 -2 233 -78 q95 -76 124 -207 l254 0 q-27 230 -194 370 q-166 141 -417 145 q-310 -3 -484 -203 q-175 -200 -178 -555 q3 -354 178 -554 q175 -199 485 -203 l0 0 Z" /><glyph glyph-name="" unicode="&#x4aa;" d="M1147 458 q-28 -123 -123 -193 q-95 -70 -234 -71 q-186 2 -292 142 q-105 139 -107 386 q2 246 107 385 q105 140 291 142 q138 -2 233 -78 q95 -76 124 -207 l254 0 q-27 230 -194 370 q-166 141 -417 145 q-310 -3 -484 -203 q-175 -200 -178 -555 q3 -328 154 -524 q152 -197 423 -229 l-41 -100 l0 -104 l59 0 q72 0 105 -14 q33 -14 32 -45 q0 -32 -29 -48 q-29 -16 -85 -16 q-30 0 -65 4 q-35 5 -53 10 l0 -125 q29 -8 66 -13 q36 -5 80 -5 q124 1 191 54 q67 53 68 145 q0 80 -53 124 q-52 45 -150 48 l34 84 q224 23 368 153 q144 131 170 338 l-254 0 Z" /><glyph glyph-name="" unicode="&#x422;" d="M805 0 l0 1220 l445 0 l0 223 l-1147 0 l0 -223 l444 0 l0 -1220 l258 0 Z" /><glyph glyph-name="" unicode="&#x4ac;" d="M1250 1220 l0 223 l-1147 0 l0 -223 l444 0 l0 -997 l0 -223 l203 0 l0 -285 l235 0 l0 508 l-180 0 l0 997 l445 0 Z" /><glyph glyph-name="" unicode="&#x423;" d="M370 -12 q191 1 301 111 q109 110 192 314 l442 1030 l-270 0 l-328 -842 l-17 0 l-339 842 l-273 0 l484 -1110 q-39 -65 -92 -92 q-52 -28 -124 -27 q-39 0 -59 4 q-20 3 -26 5 l0 -221 q7 -3 37 -8 q29 -5 72 -6 l0 0 Z" /><glyph glyph-name="" unicode="&#x40e;" d="M323 1901 q2 -146 100 -229 q98 -83 264 -85 q167 2 266 85 q98 83 100 229 l-195 0 q-3 -77 -49 -120 q-47 -44 -122 -45 q-73 1 -120 45 q-46 43 -49 120 l-195 0 ZM370 -12 q191 1 301 111 q109 110 192 314 l442 1030 l-270 0 l-328 -842 l-17 0 l-339 842 l-273 0 l484 -1110 q-39 -65 -92 -92 q-52 -28 -124 -27 q-39 0 -59 4 q-20 3 -26 5 l0 -221 q7 -3 37 -8 q29 -5 72 -6 l0 0 Z" /><glyph glyph-name="" unicode="&#x4ee;" d="M370 -12 q191 1 301 111 q109 110 192 314 l442 1030 l-270 0 l-328 -842 l-17 0 l-339 842 l-273 0 l484 -1110 q-39 -65 -92 -92 q-52 -28 -124 -27 q-39 0 -59 4 q-20 3 -26 5 l0 -221 q7 -3 37 -8 q29 -5 72 -6 l0 0 ZM1075 1792 l-720 0 l0 -164 l720 0 l0 164 Z" /><glyph glyph-name="" unicode="&#x4f0;" d="M479 1577 q63 1 102 41 q40 39 41 100 q-1 61 -41 101 q-39 39 -102 40 q-62 -1 -102 -40 q-40 -40 -41 -101 q1 -61 41 -100 q40 -40 102 -41 l0 0 ZM924 1577 q63 1 102 41 q40 39 41 100 q-1 61 -41 101 q-39 39 -102 40 q-62 -1 -102 -40 q-40 -40 -41 -101 q1 -61 41 -100 q40 -40 102 -41 l0 0 ZM370 -12 q191 1 301 111 q109 110 192 314 l442 1030 l-270 0 l-328 -842 l-17 0 l-339 842 l-273 0 l484 -1110 q-39 -65 -92 -92 q-52 -28 -124 -27 q-39 0 -59 4 q-20 3 -26 5 l0 -221 q7 -3 37 -8 q29 -5 72 -6 l0 0 Z" /><glyph glyph-name="" unicode="&#x4f2;" d="M370 -12 q191 1 301 111 q109 110 192 314 l442 1030 l-270 0 l-328 -842 l-17 0 l-339 842 l-273 0 l484 -1110 q-39 -65 -92 -92 q-52 -28 -124 -27 q-39 0 -59 4 q-20 3 -26 5 l0 -221 q7 -3 37 -8 q29 -5 72 -6 l0 0 ZM1008 1585 l297 310 l-254 0 l-273 -310 l230 0 ZM579 1585 l297 310 l-254 0 l-273 -310 l230 0 Z" /><glyph glyph-name="" unicode="&#x424;" d="M777 344 q-184 9 -289 108 q-106 100 -108 273 q2 174 109 273 q106 98 288 107 l0 -761 ZM1423 724 q-2 -174 -109 -272 q-106 -99 -287 -108 l0 761 q183 -8 288 -108 q106 -100 108 -273 l0 0 ZM774 126 l0 -153 l255 0 l0 153 q296 11 473 166 q177 154 181 432 q-4 279 -180 434 q-177 155 -474 165 l0 147 l-255 0 l0 -147 q-295 -11 -472 -165 q-177 -155 -182 -433 q4 -278 180 -433 q177 -156 474 -166 l0 0 Z" /><glyph glyph-name="" unicode="&#x425;" d="M99 0 l281 0 l340 518 l17 0 l335 -518 l298 0 l-476 721 l0 0 l484 722 l-290 0 l-334 -530 l-17 0 l-329 530 l-305 0 l468 -716 l0 0 l-472 -727 Z" /><glyph glyph-name="" unicode="&#x4b2;" d="M1223 223 l-329 498 l484 722 l-290 0 l-334 -530 l-17 0 l-329 530 l-305 0 l468 -716 l-472 -727 l281 0 l340 518 l17 0 l335 -518 l124 0 l0 -285 l235 0 l0 508 l-208 0 Z" /><glyph glyph-name="" unicode="&#x4fe;" d="M1276 639 l0 174 l-320 0 l422 630 l-290 0 l-334 -530 l-17 0 l-329 530 l-305 0 l412 -630 l-322 0 l0 -174 l321 0 l-415 -639 l281 0 l340 518 l17 0 l335 -518 l298 0 l-422 639 l328 0 Z" /><glyph glyph-name="" unicode="&#x4fc;" d="M103 1443 l468 -716 l-472 -727 l281 0 l340 518 l17 0 l199 -308 q32 -49 56 -90 q24 -41 43 -78 q17 -34 25 -63 q7 -30 7 -58 q-1 -53 -38 -83 q-36 -30 -96 -31 q-20 0 -36 1 q-15 2 -28 4 l0 -206 q16 -3 42 -5 q27 -3 63 -3 q158 2 253 89 q95 87 97 232 q0 53 -13 105 q-14 52 -45 113 q-25 48 -55 99 q-30 51 -69 110 l-248 375 l484 722 l-290 0 l-334 -530 l-17 0 l-329 530 l-305 0 Z" /><glyph glyph-name="" unicode="&#x426;" d="M1568 -285 l0 508 l-180 0 l0 1220 l-257 0 l0 -1220 l-685 0 l0 1220 l-258 0 l0 -1443 l1146 0 l0 -285 l234 0 Z" /><glyph glyph-name="" unicode="&#x4b4;" d="M1744 223 l0 1220 l-258 0 l0 -1220 l-691 0 l0 997 l432 0 l0 223 l-432 0 l-257 0 l-435 0 l0 -223 l435 0 l0 -1220 l1151 0 l0 -285 l235 0 l0 508 l-180 0 Z" /><glyph glyph-name="" unicode="&#x427;" d="M1298 0 l0 1443 l-258 0 l0 -584 q-49 -51 -130 -84 q-82 -33 -188 -34 q-159 1 -243 84 q-83 83 -84 233 l0 385 l-257 0 l0 -400 q1 -235 142 -382 q140 -147 403 -152 q106 1 192 28 q87 27 148 75 l17 0 l0 -612 l258 0 Z" /><glyph glyph-name="" unicode="&#x4f4;" d="M1298 0 l0 1443 l-258 0 l0 -584 q-49 -51 -130 -84 q-82 -33 -188 -34 q-159 1 -243 84 q-83 83 -84 233 l0 385 l-257 0 l0 -400 q1 -235 142 -382 q140 -147 403 -152 q106 1 192 28 q87 27 148 75 l17 0 l0 -612 l258 0 ZM499 1577 q63 1 102 41 q40 39 41 100 q-1 61 -41 101 q-39 39 -102 40 q-62 -1 -102 -40 q-40 -40 -41 -101 q1 -61 41 -100 q40 -40 102 -41 l0 0 ZM944 1577 q63 1 102 41 q40 39 41 100 q-1 61 -41 101 q-39 39 -102 40 q-62 -1 -102 -40 q-40 -40 -41 -101 q1 -61 41 -100 q40 -40 102 -41 l0 0 Z" /><glyph glyph-name="" unicode="&#x4b6;" d="M1298 223 l0 1220 l-258 0 l0 -584 q-49 -51 -130 -84 q-82 -33 -188 -34 q-159 1 -243 84 q-83 83 -84 233 l0 385 l-257 0 l0 -400 q1 -235 142 -382 q140 -147 403 -152 q106 1 192 28 q87 27 148 75 l17 0 l0 -389 l0 -223 l203 0 l0 -285 l235 0 l0 508 l-180 0 Z" /><glyph glyph-name="" unicode="&#x4cb;" d="M1040 1443 l0 -584 q-49 -51 -130 -84 q-82 -33 -188 -34 q-159 1 -243 84 q-83 83 -84 233 l0 385 l-257 0 l0 -400 q1 -235 142 -382 q140 -147 403 -152 q106 1 192 28 q87 27 148 75 l17 0 l0 -389 l-180 0 l0 -508 l235 0 l0 285 l203 0 l0 223 l0 1220 l-258 0 Z" /><glyph glyph-name="" unicode="&#x4b8;" d="M1053 1443 l0 -584 q-38 -39 -96 -68 q-58 -29 -133 -42 l0 302 l-181 0 l0 -304 q-123 21 -185 102 q-63 80 -63 209 l0 385 l-257 0 l0 -400 q1 -224 132 -369 q130 -145 373 -164 l0 -241 l181 0 l0 253 q63 12 117 35 q54 23 95 55 l17 0 l0 -612 l258 0 l0 1443 l-258 0 Z" /><glyph glyph-name="" unicode="&#x4ba;" d="M188 1443 l0 -1443 l258 0 l0 554 q42 85 130 133 q89 47 205 48 q144 -1 226 -84 q82 -83 84 -236 l0 -415 l257 0 l0 452 q-4 240 -144 376 q-140 136 -372 138 q-118 -1 -211 -35 q-93 -35 -158 -92 l-17 0 l0 604 l-258 0 Z" /><glyph glyph-name="" unicode="&#x526;" d="M1348 223 l0 229 q-4 240 -144 376 q-140 136 -372 138 q-118 -1 -211 -35 q-93 -35 -158 -92 l-17 0 l0 604 l-258 0 l0 -1443 l258 0 l0 554 q42 85 130 133 q89 47 205 48 q144 -1 226 -84 q82 -83 84 -236 l0 -192 l0 -223 l203 0 l0 -285 l234 0 l0 508 l-180 0 Z" /><glyph glyph-name="" unicode="&#x40b;" d="M1115 678 q142 -2 210 -85 q68 -82 67 -217 l0 -376 l258 0 l0 393 q0 222 -122 366 q-122 143 -367 148 q-116 -1 -201 -37 q-84 -36 -138 -91 l-17 0 l0 441 l445 0 l0 223 l-1147 0 l0 -223 l444 0 l0 -1220 l258 0 l0 501 q18 45 91 108 q72 63 219 69 l0 0 Z" /><glyph glyph-name="" unicode="&#x428;" d="M188 0 l1675 0 l0 1443 l-258 0 l0 -1220 l-451 0 l0 1220 l-257 0 l0 -1220 l-451 0 l0 1220 l-258 0 l0 -1443 Z" /><glyph glyph-name="" unicode="&#x429;" d="M2043 -285 l0 508 l-180 0 l0 1220 l-258 0 l0 -1220 l-451 0 l0 1220 l-257 0 l0 -1220 l-451 0 l0 1220 l-258 0 l0 -1443 l1620 0 l0 -285 l235 0 Z" /><glyph glyph-name="" unicode="&#x42a;" d="M1015 0 q219 3 351 130 q132 127 135 342 q-4 214 -139 341 q-135 127 -358 130 l-306 0 l0 500 l-591 0 l0 -223 l333 0 l0 -1220 l575 0 ZM698 217 l0 511 l248 0 q139 -1 215 -66 q75 -66 76 -190 q-1 -124 -76 -189 q-75 -65 -214 -66 l-249 0 Z" /><glyph glyph-name="" unicode="&#x42b;" d="M1684 0 l0 1443 l-258 0 l0 -1443 l258 0 ZM188 0 l575 0 q219 3 351 130 q132 127 135 342 q-4 214 -139 341 q-135 127 -358 130 l-306 0 l0 500 l-258 0 l0 -1443 ZM446 217 l0 511 l248 0 q139 -1 215 -66 q75 -66 76 -190 q-1 -124 -76 -189 q-75 -65 -214 -66 l-249 0 Z" /><glyph glyph-name="" unicode="&#x4f8;" d="M1684 0 l0 1443 l-258 0 l0 -1443 l258 0 ZM188 0 l575 0 q219 3 351 130 q132 127 135 342 q-4 214 -139 341 q-135 127 -358 130 l-306 0 l0 500 l-258 0 l0 -1443 ZM446 217 l0 511 l248 0 q139 -1 215 -66 q75 -66 76 -190 q-1 -124 -76 -189 q-75 -65 -214 -66 l-249 0 ZM704 1577 q63 1 102 41 q40 39 41 100 q-1 61 -41 101 q-39 39 -102 40 q-62 -1 -102 -40 q-40 -40 -41 -101 q1 -61 41 -100 q40 -40 102 -41 l0 0 ZM1149 1577 q63 1 102 41 q40 39 41 100 q-1 61 -41 101 q-39 39 -102 40 q-62 -1 -102 -40 q-40 -40 -41 -101 q1 -61 41 -100 q40 -40 102 -41 l0 0 Z" /><glyph glyph-name="" unicode="&#x48c;" d="M608 217 l0 497 l251 0 q138 0 213 -64 q74 -64 75 -185 q-1 -120 -75 -184 q-74 -63 -212 -64 l-252 0 ZM608 929 l0 215 l393 0 l0 197 l-393 0 l0 176 l-258 0 l0 -176 l-329 0 l0 -197 l329 0 l0 -1144 l578 0 q217 3 348 128 q132 126 135 337 q-4 211 -138 336 q-134 125 -356 128 l-309 0 Z" /><glyph glyph-name="" unicode="&#x462;" d="M608 217 l0 497 l251 0 q138 0 213 -64 q74 -64 75 -185 q-1 -120 -75 -184 q-74 -63 -212 -64 l-252 0 ZM608 929 l0 215 l393 0 l0 197 l-393 0 l0 176 l-258 0 l0 -176 l-329 0 l0 -197 l329 0 l0 -1144 l578 0 q217 3 348 128 q132 126 135 337 q-4 211 -138 336 q-134 125 -356 128 l-309 0 Z" /><glyph glyph-name="" unicode="&#x42c;" d="M188 0 l575 0 q219 3 351 130 q132 127 135 342 q-4 214 -139 341 q-135 127 -358 130 l-306 0 l0 500 l-258 0 l0 -1443 ZM446 217 l0 511 l248 0 q139 -1 215 -66 q75 -66 76 -190 q-1 -124 -76 -189 q-75 -65 -214 -66 l-249 0 Z" /><glyph glyph-name="" unicode="&#x409;" d="M557 561 l39 659 l459 0 l0 -1220 l574 0 q219 3 351 130 q132 127 135 342 q-4 214 -138 341 q-135 127 -358 130 l-306 0 l0 500 l-949 0 l-46 -866 q-5 -154 -47 -250 q-41 -97 -152 -100 q-18 0 -35 2 q-18 3 -28 5 l0 -233 q15 -5 39 -8 q25 -4 56 -4 q209 3 301 154 q92 151 105 418 l0 0 ZM1313 217 l0 511 l247 0 q140 -1 215 -66 q76 -66 77 -190 q-1 -124 -76 -189 q-75 -65 -215 -66 l-248 0 Z" /><glyph glyph-name="" unicode="&#x40a;" d="M446 633 l668 0 l0 -633 l574 0 q219 3 351 119 q132 117 135 314 q-4 190 -138 304 q-135 113 -358 116 l-306 0 l0 590 l-258 0 l0 -590 l-668 0 l0 590 l-258 0 l0 -1443 l258 0 l0 633 ZM1372 217 l0 420 l257 0 q136 0 210 -52 q73 -53 74 -152 q-1 -104 -74 -160 q-74 -55 -209 -56 l-258 0 Z" /><glyph glyph-name="" unicode="&#x42d;" d="M728 -36 q311 3 486 204 q176 200 179 555 q-3 354 -179 554 q-175 199 -485 202 q-258 -4 -428 -143 q-171 -140 -198 -365 l254 0 q29 128 129 202 q99 74 244 76 q165 -2 270 -108 q105 -107 126 -301 l-596 0 l0 -213 l597 0 q-16 -204 -122 -317 q-105 -114 -276 -116 q-147 2 -246 70 q-99 69 -127 187 l-253 0 q29 -220 197 -352 q168 -132 428 -135 l0 0 Z" /><glyph glyph-name="" unicode="&#x4ec;" d="M728 -36 q311 3 486 204 q176 200 179 555 q-3 354 -179 554 q-175 199 -485 202 q-258 -4 -428 -143 q-171 -140 -198 -365 l254 0 q29 128 129 202 q99 74 244 76 q165 -2 270 -108 q105 -107 126 -301 l-596 0 l0 -213 l597 0 q-16 -204 -122 -317 q-105 -114 -276 -116 q-147 2 -246 70 q-99 69 -127 187 l-253 0 q29 -220 197 -352 q168 -132 428 -135 l0 0 ZM501 1577 q63 1 102 41 q40 39 41 100 q-1 61 -41 101 q-39 39 -102 40 q-62 -1 -102 -40 q-40 -40 -41 -101 q1 -61 41 -100 q40 -40 102 -41 l0 0 ZM946 1577 q63 1 102 41 q40 39 41 100 q-1 61 -41 101 q-39 39 -102 40 q-62 -1 -102 -40 q-40 -40 -41 -101 q1 -61 41 -100 q40 -40 102 -41 l0 0 Z" /><glyph glyph-name="" unicode="&#x42e;" d="M1345 -36 q314 4 491 205 q177 200 180 553 q-3 353 -180 553 q-177 200 -491 204 q-284 -3 -458 -169 q-174 -167 -208 -464 l-233 0 l0 597 l-258 0 l0 -1443 l258 0 l0 623 l231 0 q27 -308 201 -482 q174 -174 467 -177 l0 0 ZM1344 1250 q190 -3 299 -143 q108 -140 110 -385 q-2 -244 -110 -385 q-108 -141 -299 -144 q-192 3 -300 144 q-108 141 -110 385 q2 245 111 385 q109 140 299 143 l0 0 Z" /><glyph glyph-name="" unicode="&#x42f;" d="M979 737 l-267 0 q-134 1 -208 65 q-73 63 -74 181 q1 116 74 180 q74 64 208 65 l267 0 l0 -491 ZM749 531 l230 0 l0 -531 l256 0 l0 1443 l-567 0 q-230 -3 -365 -127 q-134 -125 -137 -332 q2 -157 89 -265 q87 -109 233 -152 l-392 -567 l290 0 l363 531 Z" /><glyph glyph-name="" unicode="&#x494;" d="M1057 1443 l-869 0 l0 -1443 l258 0 l0 501 q40 79 127 127 q86 49 193 50 q128 -1 201 -70 q74 -69 75 -188 q-1 -121 -65 -187 q-65 -66 -180 -67 q-43 0 -76 5 q-33 4 -46 9 l0 -214 q13 -6 51 -12 q37 -6 89 -6 q227 3 355 133 q128 130 130 352 q-2 211 -131 341 q-129 129 -361 133 q-105 -1 -194 -34 q-89 -34 -151 -95 l-17 0 l0 442 l611 0 l0 223 Z" /><glyph glyph-name="" unicode="&#x4a6;" d="M188 1443 l0 -1443 l259 0 l0 1219 l628 0 l0 -1219 l256 0 l0 501 q40 79 127 128 q88 48 193 49 q128 -1 201 -70 q74 -69 75 -188 q-1 -120 -65 -186 q-64 -67 -180 -68 q-37 0 -70 4 q-34 4 -52 10 l0 -214 q21 -8 60 -13 q38 -5 80 -5 q224 3 353 132 q129 128 132 353 q-3 218 -135 345 q-131 126 -357 129 q-103 0 -192 -34 q-90 -33 -154 -95 l-16 0 l0 665 l-1143 0 Z" /><glyph glyph-name="" unicode="&#x404;" d="M1417 451 l-253 0 q-28 -118 -125 -187 q-96 -68 -240 -70 q-175 2 -282 117 q-107 115 -123 316 l596 0 l0 213 l-593 0 q21 192 127 299 q106 108 274 110 q142 -2 239 -76 q97 -74 126 -202 l254 0 q-27 225 -195 365 q-169 139 -424 143 q-313 -3 -490 -203 q-178 -199 -181 -555 q3 -354 181 -554 q177 -200 491 -203 q257 3 423 135 q166 132 195 352 l0 0 Z" /><glyph glyph-name="" unicode="&#x4c0;" d="M446 0 l0 1443 l-258 0 l0 -1443 l258 0 Z" /><glyph glyph-name="" unicode="&#x406;" d="M446 0 l0 1443 l-258 0 l0 -1443 l258 0 Z" /><glyph glyph-name="" unicode="&#x407;" d="M446 0 l0 1443 l-258 0 l0 -1443 l258 0 ZM94 1577 q63 1 102 41 q40 39 41 100 q-1 61 -41 101 q-39 39 -102 40 q-62 -1 -102 -40 q-40 -40 -41 -101 q1 -61 41 -100 q40 -40 102 -41 l0 0 ZM539 1577 q63 1 102 41 q40 39 41 100 q-1 61 -41 101 q-39 39 -102 40 q-62 -1 -102 -40 q-40 -40 -41 -101 q1 -61 41 -100 q40 -40 102 -41 l0 0 Z" /><glyph glyph-name="" unicode="&#x4a8;" d="M1325 1078 q111 -3 176 -84 q65 -81 66 -210 q-1 -152 -67 -281 q-66 -128 -182 -210 q-114 86 -174 214 q-61 127 -61 268 q0 132 61 216 q61 84 181 87 l0 0 ZM1888 248 q-49 -30 -110 -48 q-60 -18 -120 -18 q-61 0 -120 12 q126 103 203 258 q77 155 79 336 q-3 235 -135 372 q-133 138 -360 141 q-226 -5 -359 -153 q-132 -149 -135 -381 q1 -171 68 -315 q68 -145 193 -249 q-33 -6 -69 -9 q-37 -4 -77 -4 q-243 4 -397 155 q-154 152 -159 404 q1 186 104 321 q102 135 292 178 l0 239 q-298 -35 -476 -237 q-178 -202 -183 -497 q5 -353 224 -568 q219 -214 594 -220 q102 0 193 22 q91 22 174 65 q77 -44 162 -66 q85 -22 181 -22 q86 0 165 22 q80 23 152 70 l-84 192 Z" /><glyph glyph-name="" unicode="&#x4ae;" d="M835 0 l0 564 l506 879 l-283 0 l-343 -617 l-17 0 l-344 617 l-283 0 l506 -879 l0 -564 l258 0 Z" /><glyph glyph-name="" unicode="&#x4b0;" d="M1341 1443 l-283 0 l-343 -617 l-17 0 l-344 617 l-283 0 l444 -772 l-301 0 l0 -182 l363 0 l0 -489 l258 0 l0 489 l363 0 l0 182 l-301 0 l444 772 Z" /><glyph glyph-name="" unicode="&#x4bc;" d="M680 879 q24 174 122 273 q99 99 247 101 q160 -2 257 -100 q96 -98 110 -274 l-736 0 ZM675 677 l1014 0 q0 4 1 42 q0 37 0 55 q-3 332 -170 517 q-168 185 -467 188 q-260 -3 -427 -160 q-167 -158 -211 -434 q-76 2 -114 39 q-38 37 -38 103 q2 55 15 95 q13 41 14 43 l-214 0 q-2 -1 -17 -45 q-15 -45 -17 -123 q1 -138 93 -226 q92 -88 267 -95 q14 -335 191 -522 q177 -187 481 -190 q235 3 395 120 q159 117 202 315 l-259 0 q-36 -102 -122 -155 q-86 -54 -214 -54 q-185 3 -294 124 q-108 121 -109 327 l0 36 Z" /><glyph glyph-name="" unicode="&#x4be;" d="M1281 1577 q63 1 102 41 q40 39 41 100 q-1 61 -41 101 q-39 39 -102 40 q-62 -1 -102 -40 q-40 -40 -41 -101 q1 -61 41 -100 q40 -40 102 -41 l0 0 ZM836 1577 q63 1 102 41 q40 39 41 100 q-1 61 -41 101 q-39 39 -102 40 q-62 -1 -102 -40 q-40 -40 -41 -101 q1 -61 41 -100 q40 -40 102 -41 l0 0 ZM680 879 q24 174 122 273 q99 99 247 101 q160 -2 257 -100 q96 -98 110 -274 l-736 0 ZM675 677 l1014 0 q0 4 1 42 q0 37 0 55 q-3 332 -170 517 q-168 185 -467 188 q-260 -3 -427 -160 q-167 -158 -211 -434 q-76 2 -114 39 q-38 37 -38 103 q2 55 15 95 q13 41 14 43 l-214 0 q-2 -1 -17 -45 q-15 -45 -17 -123 q1 -138 93 -226 q92 -88 267 -95 q12 -301 157 -483 q145 -183 398 -221 l0 -257 l235 0 l0 258 q189 31 316 143 q127 112 163 283 l-259 0 q-36 -102 -122 -155 q-86 -54 -214 -54 q-185 3 -294 124 q-108 121 -109 327 l0 36 Z" /><glyph glyph-name="" unicode="&#x4d4;" d="M863 1235 l136 0 l0 -632 l-408 0 l272 632 ZM999 0 l894 0 l0 223 l-653 0 l0 397 l616 0 l0 211 l-616 0 l0 389 l653 0 l0 223 l-1197 0 l-615 -1443 l256 0 l174 398 l488 0 l0 -398 Z" /><glyph glyph-name="" unicode="&#x4d8;" d="M758 -36 q296 5 470 208 q175 203 179 548 q-4 351 -181 553 q-178 202 -486 206 q-228 -2 -387 -115 q-160 -114 -221 -320 l262 0 q42 100 127 154 q85 54 217 55 q178 -3 287 -126 q109 -123 111 -324 l0 -20 l-1021 0 q0 -3 0 -37 q-1 -35 -1 -61 q5 -332 173 -524 q168 -193 471 -197 l0 0 ZM761 190 q-161 2 -259 105 q-98 103 -114 286 l744 0 q-21 -181 -120 -285 q-100 -104 -251 -106 l0 0 Z" /><glyph glyph-name="" unicode="&#x4da;" d="M527 1578 q63 1 102 41 q40 39 41 100 q-1 61 -41 101 q-39 39 -102 40 q-62 -1 -102 -40 q-40 -40 -41 -101 q1 -61 41 -100 q40 -40 102 -41 l0 0 ZM972 1578 q63 1 102 41 q40 39 41 100 q-1 61 -41 101 q-39 39 -102 40 q-62 -1 -102 -40 q-40 -40 -41 -101 q1 -61 41 -100 q40 -40 102 -41 l0 0 ZM758 -36 q296 5 470 208 q175 203 179 548 q-4 351 -181 553 q-178 202 -486 206 q-228 -2 -387 -115 q-160 -114 -221 -320 l262 0 q42 100 127 154 q85 54 217 55 q178 -3 287 -126 q109 -123 111 -324 l0 -20 l-1021 0 q0 -3 0 -37 q-1 -35 -1 -61 q5 -332 173 -524 q168 -193 471 -197 l0 0 ZM761 190 q-161 2 -259 105 q-98 103 -114 286 l744 0 q-21 -181 -120 -285 q-100 -104 -251 -106 l0 0 Z" /><glyph glyph-name="" unicode="&#x4e0;" d="M634 -36 q247 3 395 127 q147 124 151 332 q-3 203 -128 314 q-125 111 -341 124 l0 18 l424 388 l0 176 l-983 0 l0 -223 l637 0 l0 -17 l-366 -331 l0 -195 l144 0 q170 0 259 -63 q89 -63 90 -192 q-2 -112 -76 -176 q-75 -64 -205 -65 q-126 1 -203 59 q-77 58 -88 160 l-247 0 q13 -200 157 -317 q144 -116 380 -119 l0 0 Z" /><glyph glyph-name="" unicode="&#x510;" d="M862 628 l0 212 l-192 0 q-120 2 -191 61 q-71 59 -73 157 q1 96 67 152 q67 56 189 57 q121 -1 194 -59 q72 -57 82 -159 l241 0 q-13 200 -151 314 q-138 114 -375 116 q-223 -2 -358 -109 q-135 -106 -139 -287 q2 -121 76 -208 q73 -86 194 -115 l0 -17 q-143 -16 -231 -107 q-88 -91 -91 -242 q5 -190 160 -308 q154 -118 396 -122 q245 3 393 119 q148 117 161 317 l-247 0 q-12 -100 -93 -158 q-80 -58 -215 -59 q-133 2 -211 63 q-77 62 -79 162 q1 104 78 161 q76 58 218 59 l197 0 Z" /><glyph glyph-name="" unicode="&#x474;" d="M872 0 l373 1060 q18 49 34 80 q17 31 33 47 q14 14 33 21 q18 7 40 7 q21 0 45 -5 q25 -6 48 -14 l71 211 q-43 24 -98 39 q-56 15 -108 15 q-57 0 -101 -13 q-45 -13 -81 -41 q-51 -38 -89 -109 q-38 -70 -70 -184 l-266 -813 l-17 0 l-363 1142 l-285 0 l504 -1443 l297 0 Z" /><glyph glyph-name="" unicode="&#x51c;" d="M1020 1022 l15 0 l294 -1022 l242 0 l387 1443 l-267 0 l-247 -1074 l-14 0 l-288 1074 l-229 0 l-284 -1074 l-15 0 l-247 1074 l-269 0 l387 -1443 l243 0 l292 1022 Z" /><glyph glyph-name="" unicode="&#x402;" d="M1174 -52 q227 3 355 133 q128 130 130 352 q-2 211 -130 341 q-129 129 -361 133 q-105 -1 -194 -34 q-90 -34 -152 -95 l-17 0 l0 442 l445 0 l0 223 l-1147 0 l0 -223 l444 0 l0 -1220 l258 0 l0 501 q40 79 127 127 q86 49 193 50 q128 -1 201 -70 q74 -69 75 -188 q-1 -121 -65 -187 q-65 -66 -180 -67 q-43 0 -76 5 q-33 4 -46 9 l0 -214 q13 -6 51 -12 q37 -6 89 -6 l0 0 Z" /><glyph glyph-name="" unicode="&#x405;" d="M122 392 q13 -199 162 -312 q150 -114 401 -116 q265 2 415 123 q149 120 152 333 q1 164 -98 262 q-100 98 -318 146 l-166 38 q-133 30 -193 77 q-60 46 -59 118 q2 93 76 148 q74 54 200 55 q120 -1 197 -56 q76 -55 91 -151 l247 0 q-13 189 -158 304 q-145 115 -376 118 q-246 -3 -390 -120 q-144 -117 -147 -316 q0 -161 94 -260 q95 -100 291 -144 l187 -43 q138 -31 201 -81 q64 -50 63 -127 q-2 -92 -83 -149 q-80 -57 -210 -59 q-139 1 -226 58 q-87 56 -101 154 l-252 0 Z" /><glyph glyph-name="" unicode="&#x408;" d="M89 393 q3 -198 128 -312 q124 -115 334 -117 q219 1 341 122 q122 121 124 345 l0 1012 l-258 0 l0 -1010 q0 -117 -54 -177 q-54 -60 -156 -60 q-93 1 -149 54 q-55 53 -58 143 l-252 0 Z" /><glyph glyph-name="" unicode="a" d="M526 177 q-84 1 -136 39 q-51 38 -53 108 q0 67 50 104 q50 37 154 44 l247 16 l0 -87 q-2 -97 -75 -160 q-72 -62 -187 -64 l0 0 ZM453 -18 q108 1 193 44 q84 44 131 124 l17 0 l0 -150 l239 0 l0 747 q-1 175 -114 272 q-113 96 -325 97 q-198 -2 -320 -86 q-123 -84 -141 -230 l234 0 q18 56 73 85 q56 29 142 29 q101 0 153 -43 q53 -43 53 -124 l0 -92 l-282 -17 q-200 -12 -307 -96 q-107 -83 -108 -232 q3 -152 102 -239 q99 -87 260 -89 l0 0 Z" /><glyph glyph-name="" unicode="à" d="M526 177 q-84 1 -136 39 q-51 38 -53 108 q0 67 50 104 q50 37 154 44 l247 16 l0 -87 q-2 -97 -75 -160 q-72 -62 -187 -64 l0 0 ZM453 -18 q108 1 193 44 q84 44 131 124 l17 0 l0 -150 l239 0 l0 747 q-1 175 -114 272 q-113 96 -325 97 q-198 -2 -320 -86 q-123 -84 -141 -230 l234 0 q18 56 73 85 q56 29 142 29 q101 0 153 -43 q53 -43 53 -124 l0 -92 l-282 -17 q-200 -12 -307 -96 q-107 -83 -108 -232 q3 -152 102 -239 q99 -87 260 -89 l0 0 ZM740 1275 l-249 347 l-277 0 l284 -347 l242 0 Z" /><glyph glyph-name="" unicode="á" d="M526 177 q-84 1 -136 39 q-51 38 -53 108 q0 67 50 104 q50 37 154 44 l247 16 l0 -87 q-2 -97 -75 -160 q-72 -62 -187 -64 l0 0 ZM453 -18 q108 1 193 44 q84 44 131 124 l17 0 l0 -150 l239 0 l0 747 q-1 175 -114 272 q-113 96 -325 97 q-198 -2 -320 -86 q-123 -84 -141 -230 l234 0 q18 56 73 85 q56 29 142 29 q101 0 153 -43 q53 -43 53 -124 l0 -92 l-282 -17 q-200 -12 -307 -96 q-107 -83 -108 -232 q3 -152 102 -239 q99 -87 260 -89 l0 0 ZM696 1275 l284 347 l-277 0 l-249 -347 l242 0 Z" /><glyph glyph-name="" unicode="ä" d="M526 177 q-84 1 -136 39 q-51 38 -53 108 q0 67 50 104 q50 37 154 44 l247 16 l0 -87 q-2 -97 -75 -160 q-72 -62 -187 -64 l0 0 ZM453 -18 q108 1 193 44 q84 44 131 124 l17 0 l0 -150 l239 0 l0 747 q-1 175 -114 272 q-113 96 -325 97 q-198 -2 -320 -86 q-123 -84 -141 -230 l234 0 q18 56 73 85 q56 29 142 29 q101 0 153 -43 q53 -43 53 -124 l0 -92 l-282 -17 q-200 -12 -307 -96 q-107 -83 -108 -232 q3 -152 102 -239 q99 -87 260 -89 l0 0 ZM371 1242 q63 1 102 41 q40 39 41 100 q-1 61 -41 101 q-39 39 -102 40 q-62 -1 -102 -40 q-40 -40 -41 -101 q1 -61 41 -100 q40 -40 102 -41 l0 0 ZM816 1242 q63 1 102 41 q40 39 41 100 q-1 61 -41 101 q-39 39 -102 40 q-62 -1 -102 -40 q-40 -40 -41 -101 q1 -61 41 -100 q40 -40 102 -41 l0 0 Z" /><glyph glyph-name="" unicode="&#x1df;" d="M526 177 q-84 1 -136 39 q-51 38 -53 108 q0 67 50 104 q50 37 154 44 l247 16 l0 -87 q-2 -97 -75 -160 q-72 -62 -187 -64 l0 0 ZM453 -18 q108 1 193 44 q84 44 131 124 l17 0 l0 -150 l239 0 l0 747 q-1 175 -114 272 q-113 96 -325 97 q-198 -2 -320 -86 q-123 -84 -141 -230 l234 0 q18 56 73 85 q56 29 142 29 q101 0 153 -43 q53 -43 53 -124 l0 -92 l-282 -17 q-200 -12 -307 -96 q-107 -83 -108 -232 q3 -152 102 -239 q99 -87 260 -89 l0 0 ZM380 1243 q60 1 97 39 q37 37 38 95 q-1 58 -38 96 q-37 38 -97 39 q-60 -1 -97 -39 q-38 -38 -39 -96 q1 -58 39 -95 q37 -38 97 -39 l0 0 ZM808 1243 q60 1 97 39 q38 37 39 95 q-1 58 -39 96 q-37 38 -97 39 q-60 -1 -97 -39 q-37 -38 -38 -96 q1 -58 38 -95 q37 -38 97 -39 l0 0 ZM950 1821 l-712 0 l0 -164 l712 0 l0 164 Z" /><glyph glyph-name="" unicode="å" d="M526 177 q-84 1 -136 39 q-51 38 -53 108 q0 67 50 104 q50 37 154 44 l247 16 l0 -87 q-2 -97 -75 -160 q-72 -62 -187 -64 l0 0 ZM453 -18 q108 1 193 44 q84 44 131 124 l17 0 l0 -150 l239 0 l0 747 q-1 175 -114 272 q-113 96 -325 97 q-198 -2 -320 -86 q-123 -84 -141 -230 l234 0 q18 56 73 85 q56 29 142 29 q101 0 153 -43 q53 -43 53 -124 l0 -92 l-282 -17 q-200 -12 -307 -96 q-107 -83 -108 -232 q3 -152 102 -239 q99 -87 260 -89 l0 0 ZM594 1243 q104 2 171 67 q67 66 69 169 q-2 103 -69 168 q-67 65 -171 67 q-104 -2 -171 -67 q-68 -65 -70 -168 q2 -103 70 -169 q67 -65 171 -67 l0 0 ZM594 1368 q-50 1 -80 31 q-31 31 -32 79 q1 48 32 79 q30 31 80 32 q49 -1 80 -31 q30 -31 31 -80 q-1 -48 -31 -79 q-31 -30 -80 -31 l0 0 Z" /><glyph glyph-name="" unicode="&#x1fb;" d="M526 177 q-84 1 -136 39 q-51 38 -53 108 q0 67 50 104 q50 37 154 44 l247 16 l0 -87 q-2 -97 -75 -160 q-72 -62 -187 -64 l0 0 ZM453 -18 q108 1 193 44 q84 44 131 124 l17 0 l0 -150 l239 0 l0 747 q-1 175 -114 272 q-113 96 -325 97 q-198 -2 -320 -86 q-123 -84 -141 -230 l234 0 q18 56 73 85 q56 29 142 29 q101 0 153 -43 q53 -43 53 -124 l0 -92 l-282 -17 q-200 -12 -307 -96 q-107 -83 -108 -232 q3 -152 102 -239 q99 -87 260 -89 l0 0 ZM594 1210 q94 2 155 61 q61 59 63 152 q-2 93 -63 152 q-61 60 -155 62 q-94 -2 -155 -62 q-61 -59 -63 -152 q2 -93 63 -152 q61 -59 155 -61 l0 0 ZM499 1423 q1 41 28 68 q26 26 67 27 q41 -1 67 -27 q27 -27 28 -68 q-1 -42 -28 -68 q-26 -26 -67 -27 q-41 1 -67 27 q-27 26 -28 68 l0 0 ZM496 1718 l197 0 l197 233 l-232 0 l-162 -233 Z" /><glyph glyph-name="" unicode="ã" d="M526 177 q-84 1 -136 39 q-51 38 -53 108 q0 67 50 104 q50 37 154 44 l247 16 l0 -87 q-2 -97 -75 -160 q-72 -62 -187 -64 l0 0 ZM453 -18 q108 1 193 44 q84 44 131 124 l17 0 l0 -150 l239 0 l0 747 q-1 175 -114 272 q-113 96 -325 97 q-198 -2 -320 -86 q-123 -84 -141 -230 l234 0 q18 56 73 85 q56 29 142 29 q101 0 153 -43 q53 -43 53 -124 l0 -92 l-282 -17 q-200 -12 -307 -96 q-107 -83 -108 -232 q3 -152 102 -239 q99 -87 260 -89 l0 0 ZM743 1244 q116 2 182 84 q67 82 68 225 l-170 0 q-1 -75 -23 -110 q-23 -35 -69 -35 q-55 9 -112 74 q-57 65 -168 74 q-116 -2 -183 -84 q-67 -82 -68 -226 l171 0 q1 75 23 111 q23 36 69 36 q54 -9 111 -74 q57 -66 169 -75 l0 0 Z" /><glyph glyph-name="" unicode="&#x1eb1;" d="M526 177 q-84 1 -136 39 q-51 38 -53 108 q0 67 50 104 q50 37 154 44 l247 16 l0 -87 q-2 -97 -75 -160 q-72 -62 -187 -64 l0 0 ZM453 -18 q108 1 193 44 q84 44 131 124 l17 0 l0 -150 l239 0 l0 747 q-1 175 -114 272 q-113 96 -325 97 q-198 -2 -320 -86 q-123 -84 -141 -230 l234 0 q18 56 73 85 q56 29 142 29 q101 0 153 -43 q53 -43 53 -124 l0 -92 l-282 -17 q-200 -12 -307 -96 q-107 -83 -108 -232 q3 -152 102 -239 q99 -87 260 -89 l0 0 ZM710 1605 l-186 323 l-231 0 l227 -323 l190 0 ZM981 1585 l-188 0 q-2 -83 -53 -134 q-52 -51 -146 -52 q-94 1 -146 52 q-51 51 -53 134 l-188 0 q2 -151 103 -245 q102 -94 284 -97 q182 3 284 97 q101 94 103 245 l0 0 Z" /><glyph glyph-name="" unicode="&#x1e1;" d="M526 177 q-84 1 -136 39 q-51 38 -53 108 q0 67 50 104 q50 37 154 44 l247 16 l0 -87 q-2 -97 -75 -160 q-72 -62 -187 -64 l0 0 ZM453 -18 q108 1 193 44 q84 44 131 124 l17 0 l0 -150 l239 0 l0 747 q-1 175 -114 272 q-113 96 -325 97 q-198 -2 -320 -86 q-123 -84 -141 -230 l234 0 q18 56 73 85 q56 29 142 29 q101 0 153 -43 q53 -43 53 -124 l0 -92 l-282 -17 q-200 -12 -307 -96 q-107 -83 -108 -232 q3 -152 102 -239 q99 -87 260 -89 l0 0 ZM594 1243 q62 1 100 40 q38 38 39 98 q-1 61 -39 99 q-38 39 -100 40 q-62 -1 -100 -40 q-38 -38 -39 -99 q1 -60 39 -98 q38 -39 100 -40 l0 0 ZM950 1821 l-712 0 l0 -164 l712 0 l0 164 Z" /><glyph glyph-name="" unicode="&#x1e01;" d="M526 177 q-84 1 -136 39 q-51 38 -53 108 q0 67 50 104 q50 37 154 44 l247 16 l0 -87 q-2 -97 -75 -160 q-72 -62 -187 -64 l0 0 ZM453 -18 q108 1 193 44 q84 44 131 124 l17 0 l0 -150 l239 0 l0 747 q-1 175 -114 272 q-113 96 -325 97 q-198 -2 -320 -86 q-123 -84 -141 -230 l234 0 q18 56 73 85 q56 29 142 29 q101 0 153 -43 q53 -43 53 -124 l0 -92 l-282 -17 q-200 -12 -307 -96 q-107 -83 -108 -232 q3 -152 102 -239 q99 -87 260 -89 l0 0 ZM575 -571 q104 2 171 67 q67 66 69 169 q-2 103 -69 168 q-67 65 -171 67 q-104 -2 -171 -67 q-68 -65 -70 -168 q2 -103 70 -169 q67 -65 171 -67 l0 0 ZM575 -446 q-50 1 -80 31 q-31 31 -32 79 q1 48 32 79 q30 31 80 32 q49 -1 80 -31 q30 -31 31 -80 q-1 -48 -31 -79 q-31 -30 -80 -31 l0 0 Z" /><glyph glyph-name="" unicode="â" d="M526 177 q-84 1 -136 39 q-51 38 -53 108 q0 67 50 104 q50 37 154 44 l247 16 l0 -87 q-2 -97 -75 -160 q-72 -62 -187 -64 l0 0 ZM453 -18 q108 1 193 44 q84 44 131 124 l17 0 l0 -150 l239 0 l0 747 q-1 175 -114 272 q-113 96 -325 97 q-198 -2 -320 -86 q-123 -84 -141 -230 l234 0 q18 56 73 85 q56 29 142 29 q101 0 153 -43 q53 -43 53 -124 l0 -92 l-282 -17 q-200 -12 -307 -96 q-107 -83 -108 -232 q3 -152 102 -239 q99 -87 260 -89 l0 0 ZM723 1591 l-259 0 l-277 -348 l239 0 l159 215 l17 0 l159 -215 l239 0 l-277 348 Z" /><glyph glyph-name="" unicode="&#x1ead;" d="M526 177 q-84 1 -136 39 q-51 38 -53 108 q0 67 50 104 q50 37 154 44 l247 16 l0 -87 q-2 -97 -75 -160 q-72 -62 -187 -64 l0 0 ZM453 -18 q108 1 193 44 q84 44 131 124 l17 0 l0 -150 l239 0 l0 747 q-1 175 -114 272 q-113 96 -325 97 q-198 -2 -320 -86 q-123 -84 -141 -230 l234 0 q18 56 73 85 q56 29 142 29 q101 0 153 -43 q53 -43 53 -124 l0 -92 l-282 -17 q-200 -12 -307 -96 q-107 -83 -108 -232 q3 -152 102 -239 q99 -87 260 -89 l0 0 ZM723 1591 l-259 0 l-277 -348 l239 0 l159 215 l17 0 l159 -215 l239 0 l-277 348 ZM575 -413 q64 1 104 38 q39 37 40 95 q-1 58 -40 95 q-40 37 -104 38 q-64 -1 -103 -38 q-40 -37 -41 -95 q1 -58 41 -95 q39 -37 103 -38 l0 0 Z" /><glyph glyph-name="" unicode="&#x1ea5;" d="M526 177 q-84 1 -136 39 q-51 38 -53 108 q0 67 50 104 q50 37 154 44 l247 16 l0 -87 q-2 -97 -75 -160 q-72 -62 -187 -64 l0 0 ZM453 -18 q108 1 193 44 q84 44 131 124 l17 0 l0 -150 l239 0 l0 747 q-1 175 -114 272 q-113 96 -325 97 q-198 -2 -320 -86 q-123 -84 -141 -230 l234 0 q18 56 73 85 q56 29 142 29 q101 0 153 -43 q53 -43 53 -124 l0 -92 l-282 -17 q-200 -12 -307 -96 q-107 -83 -108 -232 q3 -152 102 -239 q99 -87 260 -89 l0 0 ZM718 1588 l-248 0 l-275 -336 l233 0 l157 202 l18 0 l157 -202 l233 0 l-275 336 ZM804 1605 l208 0 l227 323 l-244 0 l-191 -323 Z" /><glyph glyph-name="" unicode="&#x1eab;" d="M526 177 q-84 1 -136 39 q-51 38 -53 108 q0 67 50 104 q50 37 154 44 l247 16 l0 -87 q-2 -97 -75 -160 q-72 -62 -187 -64 l0 0 ZM453 -18 q108 1 193 44 q84 44 131 124 l17 0 l0 -150 l239 0 l0 747 q-1 175 -114 272 q-113 96 -325 97 q-198 -2 -320 -86 q-123 -84 -141 -230 l234 0 q18 56 73 85 q56 29 142 29 q101 0 153 -43 q53 -43 53 -124 l0 -92 l-282 -17 q-200 -12 -307 -96 q-107 -83 -108 -232 q3 -152 102 -239 q99 -87 260 -89 l0 0 ZM723 1578 l-258 0 l-278 -335 l241 0 l157 202 l18 0 l157 -202 l241 0 l-278 335 ZM747 1661 q113 1 177 80 q65 78 66 221 l-170 0 q-1 -74 -23 -107 q-23 -33 -69 -32 q-57 9 -114 72 q-57 62 -173 71 q-113 -1 -177 -80 q-65 -79 -66 -223 l170 0 q1 75 23 109 q23 34 69 33 q57 -9 114 -72 q57 -63 173 -72 l0 0 Z" /><glyph glyph-name="" unicode="&#x1ea7;" d="M526 177 q-84 1 -136 39 q-51 38 -53 108 q0 67 50 104 q50 37 154 44 l247 16 l0 -87 q-2 -97 -75 -160 q-72 -62 -187 -64 l0 0 ZM453 -18 q108 1 193 44 q84 44 131 124 l17 0 l0 -150 l239 0 l0 747 q-1 175 -114 272 q-113 96 -325 97 q-198 -2 -320 -86 q-123 -84 -141 -230 l234 0 q18 56 73 85 q56 29 142 29 q101 0 153 -43 q53 -43 53 -124 l0 -92 l-282 -17 q-200 -12 -307 -96 q-107 -83 -108 -232 q3 -152 102 -239 q99 -87 260 -89 l0 0 ZM723 1578 l-258 0 l-278 -335 l241 0 l157 202 l18 0 l157 -202 l241 0 l-278 335 ZM1079 1605 l-191 323 l-244 0 l227 -323 l208 0 Z" /><glyph glyph-name="" unicode="&#x1ea9;" d="M526 177 q-84 1 -136 39 q-51 38 -53 108 q0 67 50 104 q50 37 154 44 l247 16 l0 -87 q-2 -97 -75 -160 q-72 -62 -187 -64 l0 0 ZM453 -18 q108 1 193 44 q84 44 131 124 l17 0 l0 -150 l239 0 l0 747 q-1 175 -114 272 q-113 96 -325 97 q-198 -2 -320 -86 q-123 -84 -141 -230 l234 0 q18 56 73 85 q56 29 142 29 q101 0 153 -43 q53 -43 53 -124 l0 -92 l-282 -17 q-200 -12 -307 -96 q-107 -83 -108 -232 q3 -152 102 -239 q99 -87 260 -89 l0 0 ZM768 1766 q20 9 47 15 q28 5 59 5 q46 0 74 -21 q28 -21 29 -56 q-1 -33 -29 -61 q-28 -29 -77 -45 l86 -110 q90 34 141 97 q51 62 52 141 q-1 94 -66 147 q-65 52 -180 53 q-37 0 -74 -6 q-36 -5 -62 -15 l0 -144 ZM723 1578 l-258 0 l-278 -335 l241 0 l157 202 l18 0 l157 -202 l241 0 l-278 335 Z" /><glyph glyph-name="" unicode="&#x103;" d="M526 177 q-84 1 -136 39 q-51 38 -53 108 q0 67 50 104 q50 37 154 44 l247 16 l0 -87 q-2 -97 -75 -160 q-72 -62 -187 -64 l0 0 ZM453 -18 q108 1 193 44 q84 44 131 124 l17 0 l0 -150 l239 0 l0 747 q-1 175 -114 272 q-113 96 -325 97 q-198 -2 -320 -86 q-123 -84 -141 -230 l234 0 q18 56 73 85 q56 29 142 29 q101 0 153 -43 q53 -43 53 -124 l0 -92 l-282 -17 q-200 -12 -307 -96 q-107 -83 -108 -232 q3 -152 102 -239 q99 -87 260 -89 l0 0 ZM206 1585 q2 -152 103 -246 q102 -93 284 -96 q182 3 284 96 q101 94 103 246 l-188 0 q-2 -83 -53 -134 q-52 -51 -146 -52 q-94 1 -146 52 q-51 51 -53 134 l-188 0 Z" /><glyph glyph-name="" unicode="&#x1eaf;" d="M526 177 q-84 1 -136 39 q-51 38 -53 108 q0 67 50 104 q50 37 154 44 l247 16 l0 -87 q-2 -97 -75 -160 q-72 -62 -187 -64 l0 0 ZM453 -18 q108 1 193 44 q84 44 131 124 l17 0 l0 -150 l239 0 l0 747 q-1 175 -114 272 q-113 96 -325 97 q-198 -2 -320 -86 q-123 -84 -141 -230 l234 0 q18 56 73 85 q56 29 142 29 q101 0 153 -43 q53 -43 53 -124 l0 -92 l-282 -17 q-200 -12 -307 -96 q-107 -83 -108 -232 q3 -152 102 -239 q99 -87 260 -89 l0 0 ZM477 1605 l190 0 l227 323 l-231 0 l-186 -323 ZM981 1585 l-188 0 q-2 -83 -53 -134 q-52 -51 -146 -52 q-94 1 -146 52 q-51 51 -53 134 l-188 0 q2 -151 103 -245 q102 -94 284 -97 q182 3 284 97 q101 94 103 245 l0 0 Z" /><glyph glyph-name="" unicode="&#x1eb5;" d="M526 177 q-84 1 -136 39 q-51 38 -53 108 q0 67 50 104 q50 37 154 44 l247 16 l0 -87 q-2 -97 -75 -160 q-72 -62 -187 -64 l0 0 ZM453 -18 q108 1 193 44 q84 44 131 124 l17 0 l0 -150 l239 0 l0 747 q-1 175 -114 272 q-113 96 -325 97 q-198 -2 -320 -86 q-123 -84 -141 -230 l234 0 q18 56 73 85 q56 29 142 29 q101 0 153 -43 q53 -43 53 -124 l0 -92 l-282 -17 q-200 -12 -307 -96 q-107 -83 -108 -232 q3 -152 102 -239 q99 -87 260 -89 l0 0 ZM981 1585 l-188 0 q-2 -83 -53 -134 q-52 -51 -146 -52 q-94 1 -146 52 q-51 51 -53 134 l-188 0 q2 -151 103 -245 q102 -94 284 -97 q182 3 284 97 q101 94 103 245 l0 0 ZM747 1661 q113 1 177 80 q65 78 66 221 l-170 0 q-1 -74 -23 -107 q-23 -33 -69 -32 q-57 9 -114 72 q-57 62 -173 71 q-113 -2 -177 -76 q-65 -75 -66 -200 l170 0 q1 55 23 85 q23 30 69 30 q57 -9 114 -72 q57 -63 173 -72 l0 0 Z" /><glyph glyph-name="" unicode="&#x1eb3;" d="M526 177 q-84 1 -136 39 q-51 38 -53 108 q0 67 50 104 q50 37 154 44 l247 16 l0 -87 q-2 -97 -75 -160 q-72 -62 -187 -64 l0 0 ZM453 -18 q108 1 193 44 q84 44 131 124 l17 0 l0 -150 l239 0 l0 747 q-1 175 -114 272 q-113 96 -325 97 q-198 -2 -320 -86 q-123 -84 -141 -230 l234 0 q18 56 73 85 q56 29 142 29 q101 0 153 -43 q53 -43 53 -124 l0 -92 l-282 -17 q-200 -12 -307 -96 q-107 -83 -108 -232 q3 -152 102 -239 q99 -87 260 -89 l0 0 ZM981 1579 l-188 0 q-2 -79 -53 -129 q-52 -49 -146 -51 q-94 2 -146 51 q-51 50 -53 129 l-188 0 q2 -146 103 -240 q102 -93 284 -96 q182 3 284 96 q101 94 103 240 l0 0 ZM393 1791 q20 9 47 15 q27 5 57 5 q45 -1 72 -21 q27 -20 28 -54 q0 -30 -27 -57 q-26 -27 -76 -44 l84 -105 q87 32 137 91 q49 59 50 136 q-1 91 -64 142 q-64 51 -176 52 q-37 0 -72 -6 q-35 -5 -60 -15 l0 -139 Z" /><glyph glyph-name="" unicode="&#x1eb7;" d="M526 177 q-84 1 -136 39 q-51 38 -53 108 q0 67 50 104 q50 37 154 44 l247 16 l0 -87 q-2 -97 -75 -160 q-72 -62 -187 -64 l0 0 ZM453 -18 q108 1 193 44 q84 44 131 124 l17 0 l0 -150 l239 0 l0 747 q-1 175 -114 272 q-113 96 -325 97 q-198 -2 -320 -86 q-123 -84 -141 -230 l234 0 q18 56 73 85 q56 29 142 29 q101 0 153 -43 q53 -43 53 -124 l0 -92 l-282 -17 q-200 -12 -307 -96 q-107 -83 -108 -232 q3 -152 102 -239 q99 -87 260 -89 l0 0 ZM575 -413 q64 1 104 38 q39 37 40 95 q-1 58 -40 95 q-40 37 -104 38 q-64 -1 -103 -38 q-40 -37 -41 -95 q1 -58 41 -95 q39 -37 103 -38 l0 0 ZM206 1585 q2 -152 103 -246 q102 -93 284 -96 q182 3 284 96 q101 94 103 246 l-188 0 q-2 -83 -53 -134 q-52 -51 -146 -52 q-94 1 -146 52 q-51 51 -53 134 l-188 0 Z" /><glyph glyph-name="" unicode="&#x203;" d="M526 177 q-84 1 -136 39 q-51 38 -53 108 q0 67 50 104 q50 37 154 44 l247 16 l0 -87 q-2 -97 -75 -160 q-72 -62 -187 -64 l0 0 ZM453 -18 q108 1 193 44 q84 44 131 124 l17 0 l0 -150 l239 0 l0 747 q-1 175 -114 272 q-113 96 -325 97 q-198 -2 -320 -86 q-123 -84 -141 -230 l234 0 q18 56 73 85 q56 29 142 29 q101 0 153 -43 q53 -43 53 -124 l0 -92 l-282 -17 q-200 -12 -307 -96 q-107 -83 -108 -232 q3 -152 102 -239 q99 -87 260 -89 l0 0 ZM207 1243 l188 0 q2 83 53 134 q52 51 146 52 q94 -1 146 -52 q51 -51 53 -134 l188 0 q-2 152 -103 246 q-102 93 -284 96 q-182 -3 -284 -96 q-101 -94 -103 -246 l0 0 Z" /><glyph glyph-name="" unicode="&#x1ce;" d="M526 177 q-84 1 -136 39 q-51 38 -53 108 q0 67 50 104 q50 37 154 44 l247 16 l0 -87 q-2 -97 -75 -160 q-72 -62 -187 -64 l0 0 ZM453 -18 q108 1 193 44 q84 44 131 124 l17 0 l0 -150 l239 0 l0 747 q-1 175 -114 272 q-113 96 -325 97 q-198 -2 -320 -86 q-123 -84 -141 -230 l234 0 q18 56 73 85 q56 29 142 29 q101 0 153 -43 q53 -43 53 -124 l0 -92 l-282 -17 q-200 -12 -307 -96 q-107 -83 -108 -232 q3 -152 102 -239 q99 -87 260 -89 l0 0 ZM723 1243 l277 348 l-239 0 l-159 -215 l-17 0 l-159 215 l-239 0 l277 -348 l259 0 Z" /><glyph glyph-name="" unicode="&#x227;" d="M526 177 q-84 1 -136 39 q-51 38 -53 108 q0 67 50 104 q50 37 154 44 l247 16 l0 -87 q-2 -97 -75 -160 q-72 -62 -187 -64 l0 0 ZM453 -18 q108 1 193 44 q84 44 131 124 l17 0 l0 -150 l239 0 l0 747 q-1 175 -114 272 q-113 96 -325 97 q-198 -2 -320 -86 q-123 -84 -141 -230 l234 0 q18 56 73 85 q56 29 142 29 q101 0 153 -43 q53 -43 53 -124 l0 -92 l-282 -17 q-200 -12 -307 -96 q-107 -83 -108 -232 q3 -152 102 -239 q99 -87 260 -89 l0 0 ZM594 1281 q65 1 106 43 q42 42 43 106 q-1 64 -43 105 q-41 42 -106 43 q-66 -1 -107 -43 q-41 -41 -42 -105 q1 -64 42 -106 q41 -42 107 -43 l0 0 Z" /><glyph glyph-name="" unicode="&#x1ea1;" d="M526 177 q-84 1 -136 39 q-51 38 -53 108 q0 67 50 104 q50 37 154 44 l247 16 l0 -87 q-2 -97 -75 -160 q-72 -62 -187 -64 l0 0 ZM453 -18 q108 1 193 44 q84 44 131 124 l17 0 l0 -150 l239 0 l0 747 q-1 175 -114 272 q-113 96 -325 97 q-198 -2 -320 -86 q-123 -84 -141 -230 l234 0 q18 56 73 85 q56 29 142 29 q101 0 153 -43 q53 -43 53 -124 l0 -92 l-282 -17 q-200 -12 -307 -96 q-107 -83 -108 -232 q3 -152 102 -239 q99 -87 260 -89 l0 0 ZM575 -413 q64 1 104 38 q39 37 40 95 q-1 58 -40 95 q-40 37 -104 38 q-64 -1 -103 -38 q-40 -37 -41 -95 q1 -58 41 -95 q39 -37 103 -38 l0 0 Z" /><glyph glyph-name="" unicode="&#x1ea3;" d="M526 177 q-84 1 -136 39 q-51 38 -53 108 q0 67 50 104 q50 37 154 44 l247 16 l0 -87 q-2 -97 -75 -160 q-72 -62 -187 -64 l0 0 ZM453 -18 q108 1 193 44 q84 44 131 124 l17 0 l0 -150 l239 0 l0 747 q-1 175 -114 272 q-113 96 -325 97 q-198 -2 -320 -86 q-123 -84 -141 -230 l234 0 q18 56 73 85 q56 29 142 29 q101 0 153 -43 q53 -43 53 -124 l0 -92 l-282 -17 q-200 -12 -307 -96 q-107 -83 -108 -232 q3 -152 102 -239 q99 -87 260 -89 l0 0 ZM428 1487 q20 9 50 15 q30 6 63 6 q48 -1 76 -22 q28 -21 29 -55 q-1 -34 -30 -62 q-30 -29 -79 -45 l87 -110 q90 34 143 97 q52 62 53 142 q-2 93 -67 147 q-66 53 -177 54 q-44 0 -83 -7 q-39 -7 -65 -16 l0 -144 Z" /><glyph glyph-name="" unicode="&#x201;" d="M526 177 q-84 1 -136 39 q-51 38 -53 108 q0 67 50 104 q50 37 154 44 l247 16 l0 -87 q-2 -97 -75 -160 q-72 -62 -187 -64 l0 0 ZM453 -18 q108 1 193 44 q84 44 131 124 l17 0 l0 -150 l239 0 l0 747 q-1 175 -114 272 q-113 96 -325 97 q-198 -2 -320 -86 q-123 -84 -141 -230 l234 0 q18 56 73 85 q56 29 142 29 q101 0 153 -43 q53 -43 53 -124 l0 -92 l-282 -17 q-200 -12 -307 -96 q-107 -83 -108 -232 q3 -152 102 -239 q99 -87 260 -89 l0 0 ZM510 1275 l-227 347 l-241 0 l256 -347 l212 0 ZM933 1275 l-227 347 l-241 0 l256 -347 l212 0 Z" /><glyph glyph-name="" unicode="&#x101;" d="M526 177 q-84 1 -136 39 q-51 38 -53 108 q0 67 50 104 q50 37 154 44 l247 16 l0 -87 q-2 -97 -75 -160 q-72 -62 -187 -64 l0 0 ZM453 -18 q108 1 193 44 q84 44 131 124 l17 0 l0 -150 l239 0 l0 747 q-1 175 -114 272 q-113 96 -325 97 q-198 -2 -320 -86 q-123 -84 -141 -230 l234 0 q18 56 73 85 q56 29 142 29 q101 0 153 -43 q53 -43 53 -124 l0 -92 l-282 -17 q-200 -12 -307 -96 q-107 -83 -108 -232 q3 -152 102 -239 q99 -87 260 -89 l0 0 ZM950 1469 l-712 0 l0 -164 l712 0 l0 164 Z" /><glyph glyph-name="" unicode="&#x105;" d="M526 177 q-87 1 -137 40 q-51 39 -52 107 q0 68 50 105 q51 36 154 43 l247 16 l0 -87 q-2 -98 -75 -160 q-73 -62 -187 -64 l0 0 ZM1008 -434 l0 154 q-10 -3 -28 -5 q-19 -2 -40 -2 q-55 1 -85 27 q-31 27 -31 70 q1 60 51 109 q50 49 131 75 l27 6 l0 747 q-1 177 -115 272 q-114 96 -324 97 q-198 -2 -321 -86 q-123 -84 -140 -230 l234 0 q18 56 73 85 q55 29 142 29 q100 0 153 -43 q53 -43 53 -124 l0 -92 l-282 -17 q-202 -13 -308 -96 q-106 -84 -107 -232 q2 -149 100 -237 q98 -89 262 -91 q108 1 193 44 q84 44 131 124 l17 0 l0 -149 q-75 -33 -124 -96 q-49 -63 -51 -142 q2 -97 73 -156 q72 -59 190 -61 q45 0 75 6 q30 6 51 14 l0 0 Z" /><glyph glyph-name="" unicode="b" d="M760 -18 q209 3 328 152 q119 149 121 413 q-2 265 -121 414 q-118 149 -328 151 q-114 -1 -201 -51 q-88 -51 -132 -141 l-17 0 l0 597 l-248 0 l0 -1517 l239 0 l0 173 l17 0 q48 -91 137 -140 q89 -50 205 -51 l0 0 ZM682 901 q128 -1 199 -94 q72 -93 73 -260 q-1 -166 -72 -259 q-71 -93 -200 -95 q-129 2 -202 95 q-73 94 -74 259 q1 165 75 259 q73 93 201 95 l0 0 Z" /><glyph glyph-name="" unicode="&#x1e07;" d="M1017 -218 l-720 0 l0 -164 l720 0 l0 164 ZM760 -18 q209 3 328 152 q119 149 121 413 q-2 265 -121 414 q-118 149 -328 151 q-114 -1 -201 -51 q-88 -51 -132 -141 l-17 0 l0 597 l-248 0 l0 -1517 l239 0 l0 173 l17 0 q48 -91 137 -140 q89 -50 205 -51 l0 0 ZM682 901 q128 -1 199 -94 q72 -93 73 -260 q-1 -166 -72 -259 q-71 -93 -200 -95 q-129 2 -202 95 q-73 94 -74 259 q1 165 75 259 q73 93 201 95 l0 0 Z" /><glyph glyph-name="" unicode="&#x1e05;" d="M657 -413 q64 1 104 38 q39 37 40 95 q-1 58 -40 95 q-40 37 -104 38 q-64 -1 -103 -38 q-40 -37 -41 -95 q1 -58 41 -95 q39 -37 103 -38 l0 0 ZM760 -18 q209 3 328 152 q119 149 121 413 q-2 265 -121 414 q-118 149 -328 151 q-114 -1 -201 -51 q-88 -51 -132 -141 l-17 0 l0 597 l-248 0 l0 -1517 l239 0 l0 173 l17 0 q48 -91 137 -140 q89 -50 205 -51 l0 0 ZM682 901 q128 -1 199 -94 q72 -93 73 -260 q-1 -166 -72 -259 q-71 -93 -200 -95 q-129 2 -202 95 q-73 94 -74 259 q1 165 75 259 q73 93 201 95 l0 0 Z" /><glyph glyph-name="" unicode="&#x1e03;" d="M286 1652 q63 1 103 42 q40 40 41 102 q-1 63 -41 103 q-40 41 -103 42 q-64 -1 -103 -42 q-40 -40 -41 -103 q1 -62 41 -102 q39 -41 103 -42 l0 0 ZM760 -18 q209 3 328 152 q119 149 121 413 q-2 265 -121 414 q-118 149 -328 151 q-114 -1 -201 -51 q-88 -51 -132 -141 l-17 0 l0 597 l-248 0 l0 -1517 l239 0 l0 173 l17 0 q48 -91 137 -140 q89 -50 205 -51 l0 0 ZM682 901 q128 -1 199 -94 q72 -93 73 -260 q-1 -166 -72 -259 q-71 -93 -200 -95 q-129 2 -202 95 q-73 94 -74 259 q1 165 75 259 q73 93 201 95 l0 0 Z" /><glyph glyph-name="" unicode="c" d="M1097 726 q-21 175 -143 281 q-122 106 -334 109 q-249 -2 -384 -150 q-136 -148 -138 -416 q2 -272 138 -421 q136 -149 385 -151 q209 2 332 106 q123 103 144 277 l-236 0 q-20 -86 -82 -130 q-62 -45 -159 -45 q-128 1 -199 96 q-71 94 -72 268 q1 171 72 264 q71 93 199 94 q102 -1 163 -51 q61 -50 78 -131 l236 0 Z" /><glyph glyph-name="" unicode="&#x107;" d="M1097 726 q-21 175 -143 281 q-122 106 -334 109 q-249 -2 -384 -150 q-136 -148 -138 -416 q2 -272 138 -421 q136 -149 385 -151 q209 2 332 106 q123 103 144 277 l-236 0 q-20 -86 -82 -130 q-62 -45 -159 -45 q-128 1 -199 96 q-71 94 -72 268 q1 171 72 264 q71 93 199 94 q102 -1 163 -51 q61 -50 78 -131 l236 0 ZM721 1275 l284 347 l-277 0 l-249 -347 l242 0 Z" /><glyph glyph-name="" unicode="&#x10d;" d="M748 1243 l277 348 l-239 0 l-159 -215 l-17 0 l-159 215 l-239 0 l277 -348 l259 0 ZM1097 726 q-21 175 -143 281 q-122 106 -334 109 q-249 -2 -384 -150 q-136 -148 -138 -416 q2 -272 138 -421 q136 -149 385 -151 q209 2 332 106 q123 103 144 277 l-236 0 q-20 -86 -82 -130 q-62 -45 -159 -45 q-128 1 -199 96 q-71 94 -72 268 q1 171 72 264 q71 93 199 94 q102 -1 163 -51 q61 -50 78 -131 l236 0 Z" /><glyph glyph-name="" unicode="&#x109;" d="M748 1591 l-259 0 l-277 -348 l239 0 l159 215 l17 0 l159 -215 l239 0 l-277 348 ZM1097 726 q-21 175 -143 281 q-122 106 -334 109 q-249 -2 -384 -150 q-136 -148 -138 -416 q2 -272 138 -421 q136 -149 385 -151 q209 2 332 106 q123 103 144 277 l-236 0 q-20 -86 -82 -130 q-62 -45 -159 -45 q-128 1 -199 96 q-71 94 -72 268 q1 171 72 264 q71 93 199 94 q102 -1 163 -51 q61 -50 78 -131 l236 0 Z" /><glyph glyph-name="" unicode="&#x10b;" d="M1097 726 q-21 175 -143 281 q-122 106 -334 109 q-249 -2 -384 -150 q-136 -148 -138 -416 q2 -272 138 -421 q136 -149 385 -151 q209 2 332 106 q123 103 144 277 l-236 0 q-20 -86 -82 -130 q-62 -45 -159 -45 q-128 1 -199 96 q-71 94 -72 268 q1 171 72 264 q71 93 199 94 q102 -1 163 -51 q61 -50 78 -131 l236 0 ZM619 1281 q65 1 106 43 q42 42 43 106 q-1 64 -43 105 q-41 42 -106 43 q-66 -1 -107 -43 q-41 -41 -42 -105 q1 -64 42 -106 q41 -42 107 -43 l0 0 Z" /><glyph glyph-name="" unicode="ç" d="M1097 726 q-21 175 -143 281 q-122 106 -334 109 q-249 -2 -384 -150 q-136 -148 -138 -416 q1 -249 117 -396 q115 -146 327 -172 l-47 -114 l0 -104 l59 0 q72 0 105 -14 q33 -14 32 -45 q0 -32 -29 -48 q-29 -16 -85 -16 q-30 0 -65 4 q-35 5 -53 10 l0 -125 q29 -8 66 -13 q36 -5 80 -5 q124 1 191 54 q67 53 68 145 q0 80 -53 124 q-52 45 -150 48 l40 100 q173 22 275 122 q102 100 121 256 l-236 0 q-20 -86 -82 -130 q-62 -45 -159 -45 q-128 1 -199 96 q-71 94 -72 268 q1 171 72 264 q71 93 199 94 q102 -1 163 -51 q61 -50 78 -131 l236 0 Z" /><glyph glyph-name="" unicode="&#x1e09;" d="M1005 1622 l-277 0 l-249 -347 l242 0 l284 347 ZM1097 726 q-21 175 -143 281 q-122 106 -334 109 q-249 -2 -384 -150 q-136 -148 -138 -416 q1 -249 117 -396 q115 -146 327 -172 l-47 -114 l0 -104 l59 0 q72 0 105 -14 q33 -14 32 -45 q0 -32 -29 -48 q-29 -16 -85 -16 q-30 0 -65 4 q-35 5 -53 10 l0 -125 q29 -8 66 -13 q36 -5 80 -5 q124 1 191 54 q67 53 68 145 q0 80 -53 124 q-52 45 -150 48 l40 100 q173 22 275 122 q102 100 121 256 l-236 0 q-20 -86 -82 -130 q-62 -45 -159 -45 q-128 1 -199 96 q-71 94 -72 268 q1 171 72 264 q71 93 199 94 q102 -1 163 -51 q61 -50 78 -131 l236 0 Z" /><glyph glyph-name="" unicode="d" d="M548 -18 q115 1 204 51 q88 49 136 140 l17 0 l0 -173 l240 0 l0 1517 l-248 0 l0 -597 l-17 0 q-45 91 -131 141 q-87 50 -201 51 q-209 -3 -328 -152 q-120 -150 -122 -412 q2 -264 121 -413 q119 -150 329 -153 l0 0 ZM625 901 q129 -2 201 -95 q73 -94 74 -259 q-1 -166 -73 -259 q-73 -93 -202 -95 q-129 1 -200 94 q-72 93 -73 260 q1 167 73 260 q72 93 200 94 l0 0 Z" /><glyph glyph-name="" unicode="&#x1e0b;" d="M1021 1652 q63 1 103 42 q40 40 41 102 q-1 63 -41 103 q-40 41 -103 42 q-64 -1 -103 -42 q-40 -40 -41 -103 q1 -62 41 -102 q39 -41 103 -42 l0 0 ZM548 -18 q115 1 204 51 q88 49 136 140 l17 0 l0 -173 l240 0 l0 1517 l-248 0 l0 -597 l-17 0 q-45 91 -131 141 q-87 50 -201 51 q-209 -3 -328 -152 q-120 -150 -122 -412 q2 -264 121 -413 q119 -150 329 -153 l0 0 ZM625 901 q129 -2 201 -95 q73 -94 74 -259 q-1 -166 -73 -259 q-73 -93 -202 -95 q-129 1 -200 94 q-72 93 -73 260 q1 167 73 260 q72 93 200 94 l0 0 Z" /><glyph glyph-name="" unicode="&#x1e13;" d="M548 -18 q115 1 204 51 q88 49 136 140 l17 0 l0 -173 l240 0 l0 1517 l-248 0 l0 -597 l-17 0 q-45 91 -131 141 q-87 50 -201 51 q-209 -3 -328 -152 q-120 -150 -122 -412 q2 -264 121 -413 q119 -150 329 -153 l0 0 ZM625 901 q129 -2 201 -95 q73 -94 74 -259 q-1 -166 -73 -259 q-73 -93 -202 -95 q-129 1 -200 94 q-72 93 -73 260 q1 167 73 260 q72 93 200 94 l0 0 ZM812 -148 l-248 0 l-291 -284 l254 0 l152 160 l18 0 l152 -160 l254 0 l-291 284 Z" /><glyph glyph-name="" unicode="&#x1e11;" d="M685 -512 l149 364 l-253 0 l-121 -364 l225 0 ZM548 -18 q115 1 204 51 q88 49 136 140 l17 0 l0 -173 l240 0 l0 1517 l-248 0 l0 -597 l-17 0 q-45 91 -131 141 q-87 50 -201 51 q-209 -3 -328 -152 q-120 -150 -122 -412 q2 -264 121 -413 q119 -150 329 -153 l0 0 ZM625 901 q129 -2 201 -95 q73 -94 74 -259 q-1 -166 -73 -259 q-73 -93 -202 -95 q-129 1 -200 94 q-72 93 -73 260 q1 167 73 260 q72 93 200 94 l0 0 Z" /><glyph glyph-name="" unicode="&#x1e0f;" d="M1048 -218 l-720 0 l0 -164 l720 0 l0 164 ZM548 -18 q115 1 204 51 q88 49 136 140 l17 0 l0 -173 l240 0 l0 1517 l-248 0 l0 -597 l-17 0 q-45 91 -131 141 q-87 50 -201 51 q-209 -3 -328 -152 q-120 -150 -122 -412 q2 -264 121 -413 q119 -150 329 -153 l0 0 ZM625 901 q129 -2 201 -95 q73 -94 74 -259 q-1 -166 -73 -259 q-73 -93 -202 -95 q-129 1 -200 94 q-72 93 -73 260 q1 167 73 260 q72 93 200 94 l0 0 Z" /><glyph glyph-name="" unicode="&#x10f;" d="M1286 1517 l0 -498 l171 0 l50 498 l-221 0 ZM548 -18 q115 1 204 51 q88 49 136 140 l17 0 l0 -173 l240 0 l0 1517 l-248 0 l0 -597 l-17 0 q-45 91 -131 141 q-87 50 -201 51 q-209 -3 -328 -152 q-120 -150 -122 -412 q2 -264 121 -413 q119 -150 329 -153 l0 0 ZM625 901 q129 -2 201 -95 q73 -94 74 -259 q-1 -166 -73 -259 q-73 -93 -202 -95 q-129 1 -200 94 q-72 93 -73 260 q1 167 73 260 q72 93 200 94 l0 0 Z" /><glyph glyph-name="" unicode="&#x1e0d;" d="M688 -413 q64 1 104 38 q39 37 40 95 q-1 58 -40 95 q-40 37 -104 38 q-64 -1 -103 -38 q-40 -37 -41 -95 q1 -58 41 -95 q39 -37 103 -38 l0 0 ZM548 -18 q115 1 204 51 q88 49 136 140 l17 0 l0 -173 l240 0 l0 1517 l-248 0 l0 -597 l-17 0 q-45 91 -131 141 q-87 50 -201 51 q-209 -3 -328 -152 q-120 -150 -122 -412 q2 -264 121 -413 q119 -150 329 -153 l0 0 ZM625 901 q129 -2 201 -95 q73 -94 74 -259 q-1 -166 -73 -259 q-73 -93 -202 -95 q-129 1 -200 94 q-72 93 -73 260 q1 167 73 260 q72 93 200 94 l0 0 Z" /><glyph glyph-name="" unicode="&#x111;" d="M633 193 q-129 1 -201 94 q-71 93 -72 260 q1 167 73 260 q71 93 200 94 q129 -2 201 -95 q73 -94 74 -259 q-1 -166 -73 -259 q-73 -93 -202 -95 l0 0 ZM1296 1405 l-144 0 l0 112 l-248 0 l0 -112 l-242 0 l0 -142 l242 0 l0 -343 l-16 0 q-45 91 -132 141 q-87 50 -200 51 q-209 -3 -329 -152 q-120 -150 -122 -412 q2 -264 122 -413 q119 -150 329 -153 q114 1 203 51 q89 49 137 140 l17 0 l0 -173 l239 0 l0 1263 l144 0 l0 142 Z" /><glyph glyph-name="" unicode="e" d="M611 919 q113 -1 180 -72 q67 -71 72 -194 l-515 0 q10 122 80 193 q70 71 183 73 l0 0 ZM865 301 q-27 -61 -89 -93 q-62 -33 -155 -33 q-124 1 -196 80 q-72 78 -78 216 l0 13 l764 0 l0 80 q-2 261 -132 405 q-131 145 -367 147 q-240 -3 -376 -154 q-136 -152 -138 -419 q2 -266 137 -414 q135 -149 379 -151 q195 2 322 87 q127 85 164 236 l-235 0 Z" /><glyph glyph-name="" unicode="è" d="M758 1275 l-249 347 l-277 0 l284 -347 l242 0 ZM611 919 q113 -1 180 -72 q67 -71 72 -194 l-515 0 q10 122 80 193 q70 71 183 73 l0 0 ZM865 301 q-27 -61 -89 -93 q-62 -33 -155 -33 q-124 1 -196 80 q-72 78 -78 216 l0 13 l764 0 l0 80 q-2 261 -132 405 q-131 145 -367 147 q-240 -3 -376 -154 q-136 -152 -138 -419 q2 -266 137 -414 q135 -149 379 -151 q195 2 322 87 q127 85 164 236 l-235 0 Z" /><glyph glyph-name="" unicode="&#x205;" d="M611 919 q113 -1 180 -72 q67 -71 72 -194 l-515 0 q10 122 80 193 q70 71 183 73 l0 0 ZM865 301 q-27 -61 -89 -93 q-62 -33 -155 -33 q-124 1 -196 80 q-72 78 -78 216 l0 13 l764 0 l0 80 q-2 261 -132 405 q-131 145 -367 147 q-240 -3 -376 -154 q-136 -152 -138 -419 q2 -266 137 -414 q135 -149 379 -151 q195 2 322 87 q127 85 164 236 l-235 0 ZM528 1275 l-227 347 l-241 0 l256 -347 l212 0 ZM951 1275 l-227 347 l-241 0 l256 -347 l212 0 Z" /><glyph glyph-name="" unicode="é" d="M714 1275 l284 347 l-277 0 l-249 -347 l242 0 ZM611 919 q113 -1 180 -72 q67 -71 72 -194 l-515 0 q10 122 80 193 q70 71 183 73 l0 0 ZM865 301 q-27 -61 -89 -93 q-62 -33 -155 -33 q-124 1 -196 80 q-72 78 -78 216 l0 13 l764 0 l0 80 q-2 261 -132 405 q-131 145 -367 147 q-240 -3 -376 -154 q-136 -152 -138 -419 q2 -266 137 -414 q135 -149 379 -151 q195 2 322 87 q127 85 164 236 l-235 0 Z" /><glyph glyph-name="" unicode="ê" d="M741 1591 l-259 0 l-277 -348 l239 0 l159 215 l17 0 l159 -215 l239 0 l-277 348 ZM611 919 q113 -1 180 -72 q67 -71 72 -194 l-515 0 q10 122 80 193 q70 71 183 73 l0 0 ZM865 301 q-27 -61 -89 -93 q-62 -33 -155 -33 q-124 1 -196 80 q-72 78 -78 216 l0 13 l764 0 l0 80 q-2 261 -132 405 q-131 145 -367 147 q-240 -3 -376 -154 q-136 -152 -138 -419 q2 -266 137 -414 q135 -149 379 -151 q195 2 322 87 q127 85 164 236 l-235 0 Z" /><glyph glyph-name="" unicode="&#x1ec3;" d="M786 1766 q20 9 47 15 q28 5 59 5 q46 0 74 -21 q28 -21 29 -56 q-1 -33 -29 -61 q-28 -29 -77 -45 l86 -110 q90 34 141 97 q51 62 52 141 q-1 94 -66 147 q-65 52 -180 53 q-37 0 -74 -6 q-36 -5 -62 -15 l0 -144 ZM741 1578 l-258 0 l-278 -335 l241 0 l157 202 l18 0 l157 -202 l241 0 l-278 335 ZM611 919 q113 -1 180 -72 q67 -71 72 -194 l-515 0 q10 122 80 193 q70 71 183 73 l0 0 ZM865 301 q-27 -61 -89 -93 q-62 -33 -155 -33 q-124 1 -196 80 q-72 78 -78 216 l0 13 l764 0 l0 80 q-2 261 -132 405 q-131 145 -367 147 q-240 -3 -376 -154 q-136 -152 -138 -419 q2 -266 137 -414 q135 -149 379 -151 q195 2 322 87 q127 85 164 236 l-235 0 Z" /><glyph glyph-name="" unicode="&#x1ec1;" d="M741 1578 l-258 0 l-278 -335 l241 0 l157 202 l18 0 l157 -202 l241 0 l-278 335 ZM1097 1605 l-191 323 l-244 0 l227 -323 l208 0 ZM611 919 q113 -1 180 -72 q67 -71 72 -194 l-515 0 q10 122 80 193 q70 71 183 73 l0 0 ZM865 301 q-27 -61 -89 -93 q-62 -33 -155 -33 q-124 1 -196 80 q-72 78 -78 216 l0 13 l764 0 l0 80 q-2 261 -132 405 q-131 145 -367 147 q-240 -3 -376 -154 q-136 -152 -138 -419 q2 -266 137 -414 q135 -149 379 -151 q195 2 322 87 q127 85 164 236 l-235 0 Z" /><glyph glyph-name="" unicode="&#x1ec5;" d="M611 919 q113 -1 180 -72 q67 -71 72 -194 l-515 0 q10 122 80 193 q70 71 183 73 l0 0 ZM865 301 q-27 -61 -89 -93 q-62 -33 -155 -33 q-124 1 -196 80 q-72 78 -78 216 l0 13 l764 0 l0 80 q-2 261 -132 405 q-131 145 -367 147 q-240 -3 -376 -154 q-136 -152 -138 -419 q2 -266 137 -414 q135 -149 379 -151 q195 2 322 87 q127 85 164 236 l-235 0 ZM741 1578 l-258 0 l-278 -335 l241 0 l157 202 l18 0 l157 -202 l241 0 l-278 335 ZM765 1661 q113 1 177 80 q65 78 66 221 l-170 0 q-1 -74 -23 -107 q-23 -33 -69 -32 q-57 9 -114 72 q-57 62 -173 71 q-113 -1 -177 -80 q-65 -79 -66 -223 l170 0 q1 75 23 109 q23 34 69 33 q57 -9 114 -72 q57 -63 173 -72 l0 0 Z" /><glyph glyph-name="" unicode="&#x1ec7;" d="M741 1591 l-259 0 l-277 -348 l239 0 l159 215 l17 0 l159 -215 l239 0 l-277 348 ZM611 919 q113 -1 180 -72 q67 -71 72 -194 l-515 0 q10 122 80 193 q70 71 183 73 l0 0 ZM865 301 q-27 -61 -89 -93 q-62 -33 -155 -33 q-124 1 -196 80 q-72 78 -78 216 l0 13 l764 0 l0 80 q-2 261 -132 405 q-131 145 -367 147 q-240 -3 -376 -154 q-136 -152 -138 -419 q2 -266 137 -414 q135 -149 379 -151 q195 2 322 87 q127 85 164 236 l-235 0 ZM615 -413 q64 1 104 38 q39 37 40 95 q-1 58 -40 95 q-40 37 -104 38 q-64 -1 -103 -38 q-40 -37 -41 -95 q1 -58 41 -95 q39 -37 103 -38 l0 0 Z" /><glyph glyph-name="" unicode="&#x1ebf;" d="M736 1588 l-248 0 l-275 -336 l233 0 l157 202 l18 0 l157 -202 l233 0 l-275 336 ZM822 1605 l208 0 l227 323 l-244 0 l-191 -323 ZM611 919 q113 -1 180 -72 q67 -71 72 -194 l-515 0 q10 122 80 193 q70 71 183 73 l0 0 ZM865 301 q-27 -61 -89 -93 q-62 -33 -155 -33 q-124 1 -196 80 q-72 78 -78 216 l0 13 l764 0 l0 80 q-2 261 -132 405 q-131 145 -367 147 q-240 -3 -376 -154 q-136 -152 -138 -419 q2 -266 137 -414 q135 -149 379 -151 q195 2 322 87 q127 85 164 236 l-235 0 Z" /><glyph glyph-name="" unicode="ë" d="M611 919 q113 -1 180 -72 q67 -71 72 -194 l-515 0 q10 122 80 193 q70 71 183 73 l0 0 ZM865 301 q-27 -61 -89 -93 q-62 -33 -155 -33 q-124 1 -196 80 q-72 78 -78 216 l0 13 l764 0 l0 80 q-2 261 -132 405 q-131 145 -367 147 q-240 -3 -376 -154 q-136 -152 -138 -419 q2 -266 137 -414 q135 -149 379 -151 q195 2 322 87 q127 85 164 236 l-235 0 ZM389 1242 q63 1 102 41 q40 39 41 100 q-1 61 -41 101 q-39 39 -102 40 q-62 -1 -102 -40 q-40 -40 -41 -101 q1 -61 41 -100 q40 -40 102 -41 l0 0 ZM834 1242 q63 1 102 41 q40 39 41 100 q-1 61 -41 101 q-39 39 -102 40 q-62 -1 -102 -40 q-40 -40 -41 -101 q1 -61 41 -100 q40 -40 102 -41 l0 0 Z" /><glyph glyph-name="" unicode="&#x1eb9;" d="M615 -413 q64 1 104 38 q39 37 40 95 q-1 58 -40 95 q-40 37 -104 38 q-64 -1 -103 -38 q-40 -37 -41 -95 q1 -58 41 -95 q39 -37 103 -38 l0 0 ZM611 919 q113 -1 180 -72 q67 -71 72 -194 l-515 0 q10 122 80 193 q70 71 183 73 l0 0 ZM865 301 q-27 -61 -89 -93 q-62 -33 -155 -33 q-124 1 -196 80 q-72 78 -78 216 l0 13 l764 0 l0 80 q-2 261 -132 405 q-131 145 -367 147 q-240 -3 -376 -154 q-136 -152 -138 -419 q2 -266 137 -414 q135 -149 379 -151 q195 2 322 87 q127 85 164 236 l-235 0 Z" /><glyph glyph-name="" unicode="&#x207;" d="M611 919 q113 -1 180 -72 q67 -71 72 -194 l-515 0 q10 122 80 193 q70 71 183 73 l0 0 ZM865 301 q-27 -61 -89 -93 q-62 -33 -155 -33 q-124 1 -196 80 q-72 78 -78 216 l0 13 l764 0 l0 80 q-2 261 -132 405 q-131 145 -367 147 q-240 -3 -376 -154 q-136 -152 -138 -419 q2 -266 137 -414 q135 -149 379 -151 q195 2 322 87 q127 85 164 236 l-235 0 ZM225 1243 l188 0 q2 83 53 134 q52 51 146 52 q94 -1 146 -52 q51 -51 53 -134 l188 0 q-2 152 -103 246 q-102 93 -284 96 q-182 -3 -284 -96 q-101 -94 -103 -246 l0 0 Z" /><glyph glyph-name="" unicode="&#x1ebb;" d="M611 919 q113 -1 180 -72 q67 -71 72 -194 l-515 0 q10 122 80 193 q70 71 183 73 l0 0 ZM865 301 q-27 -61 -89 -93 q-62 -33 -155 -33 q-124 1 -196 80 q-72 78 -78 216 l0 13 l764 0 l0 80 q-2 261 -132 405 q-131 145 -367 147 q-240 -3 -376 -154 q-136 -152 -138 -419 q2 -266 137 -414 q135 -149 379 -151 q195 2 322 87 q127 85 164 236 l-235 0 ZM446 1480 q20 9 50 15 q30 6 63 6 q48 -1 76 -22 q28 -21 29 -55 q-1 -34 -30 -62 q-30 -29 -79 -45 l87 -110 q90 34 143 97 q52 62 53 142 q-2 93 -67 147 q-66 53 -177 54 q-44 0 -83 -7 q-39 -7 -65 -16 l0 -144 Z" /><glyph glyph-name="" unicode="&#x11b;" d="M741 1243 l277 348 l-239 0 l-159 -215 l-17 0 l-159 215 l-239 0 l277 -348 l259 0 ZM611 919 q113 -1 180 -72 q67 -71 72 -194 l-515 0 q10 122 80 193 q70 71 183 73 l0 0 ZM865 301 q-27 -61 -89 -93 q-62 -33 -155 -33 q-124 1 -196 80 q-72 78 -78 216 l0 13 l764 0 l0 80 q-2 261 -132 405 q-131 145 -367 147 q-240 -3 -376 -154 q-136 -152 -138 -419 q2 -266 137 -414 q135 -149 379 -151 q195 2 322 87 q127 85 164 236 l-235 0 Z" /><glyph glyph-name="" unicode="&#x113;" d="M611 919 q113 -1 180 -72 q67 -71 72 -194 l-515 0 q10 122 80 193 q70 71 183 73 l0 0 ZM865 301 q-27 -61 -89 -93 q-62 -33 -155 -33 q-124 1 -196 80 q-72 78 -78 216 l0 13 l764 0 l0 80 q-2 261 -132 405 q-131 145 -367 147 q-240 -3 -376 -154 q-136 -152 -138 -419 q2 -266 137 -414 q135 -149 379 -151 q195 2 322 87 q127 85 164 236 l-235 0 ZM968 1469 l-712 0 l0 -164 l712 0 l0 164 Z" /><glyph glyph-name="" unicode="&#x1e15;" d="M611 919 q113 -1 180 -72 q67 -71 72 -194 l-515 0 q10 122 80 193 q70 71 183 73 l0 0 ZM865 301 q-27 -61 -89 -93 q-62 -33 -155 -33 q-124 1 -196 80 q-72 78 -78 216 l0 13 l764 0 l0 80 q-2 261 -132 405 q-131 145 -367 147 q-240 -3 -376 -154 q-136 -152 -138 -419 q2 -266 137 -414 q135 -149 379 -151 q195 2 322 87 q127 85 164 236 l-235 0 ZM744 1607 l-207 301 l-264 0 l242 -301 l229 0 ZM968 1454 l-712 0 l0 -164 l712 0 l0 164 Z" /><glyph glyph-name="" unicode="&#x1e17;" d="M611 919 q113 -1 180 -72 q67 -71 72 -194 l-515 0 q10 122 80 193 q70 71 183 73 l0 0 ZM865 301 q-27 -61 -89 -93 q-62 -33 -155 -33 q-124 1 -196 80 q-72 78 -78 216 l0 13 l764 0 l0 80 q-2 261 -132 405 q-131 145 -367 147 q-240 -3 -376 -154 q-136 -152 -138 -419 q2 -266 137 -414 q135 -149 379 -151 q195 2 322 87 q127 85 164 236 l-235 0 ZM480 1607 l229 0 l242 301 l-264 0 l-207 -301 ZM968 1454 l-712 0 l0 -164 l712 0 l0 164 Z" /><glyph glyph-name="" unicode="&#x1ebd;" d="M611 919 q113 -1 180 -72 q67 -71 72 -194 l-515 0 q10 122 80 193 q70 71 183 73 l0 0 ZM865 301 q-27 -61 -89 -93 q-62 -33 -155 -33 q-124 1 -196 80 q-72 78 -78 216 l0 13 l764 0 l0 80 q-2 261 -132 405 q-131 145 -367 147 q-240 -3 -376 -154 q-136 -152 -138 -419 q2 -266 137 -414 q135 -149 379 -151 q195 2 322 87 q127 85 164 236 l-235 0 ZM761 1244 q116 2 182 84 q67 82 68 225 l-170 0 q-1 -75 -23 -110 q-23 -35 -69 -35 q-55 9 -112 74 q-57 65 -168 74 q-116 -2 -183 -84 q-67 -82 -68 -226 l171 0 q1 75 23 111 q23 36 69 36 q54 -9 111 -74 q57 -66 169 -75 l0 0 Z" /><glyph glyph-name="" unicode="&#x1e19;" d="M611 919 q113 -1 180 -72 q67 -71 72 -194 l-515 0 q10 122 80 193 q70 71 183 73 l0 0 ZM865 301 q-27 -61 -89 -93 q-62 -33 -155 -33 q-124 1 -196 80 q-72 78 -78 216 l0 13 l764 0 l0 80 q-2 261 -132 405 q-131 145 -367 147 q-240 -3 -376 -154 q-136 -152 -138 -419 q2 -266 137 -414 q135 -149 379 -151 q195 2 322 87 q127 85 164 236 l-235 0 ZM739 -148 l-248 0 l-291 -284 l254 0 l152 160 l18 0 l152 -160 l254 0 l-291 284 Z" /><glyph glyph-name="" unicode="&#x115;" d="M611 919 q113 -1 180 -72 q67 -71 72 -194 l-515 0 q10 122 80 193 q70 71 183 73 l0 0 ZM865 301 q-27 -61 -89 -93 q-62 -33 -155 -33 q-124 1 -196 80 q-72 78 -78 216 l0 13 l764 0 l0 80 q-2 261 -132 405 q-131 145 -367 147 q-240 -3 -376 -154 q-136 -152 -138 -419 q2 -266 137 -414 q135 -149 379 -151 q195 2 322 87 q127 85 164 236 l-235 0 ZM224 1585 q2 -152 103 -246 q102 -93 284 -96 q182 3 284 96 q101 94 103 246 l-188 0 q-2 -83 -53 -134 q-52 -51 -146 -52 q-94 1 -146 52 q-51 51 -53 134 l-188 0 Z" /><glyph glyph-name="" unicode="&#x1e1b;" d="M771 -426 q108 1 173 75 q64 74 66 211 l-165 0 q-4 -74 -29 -101 q-25 -27 -60 -26 q-60 9 -118 73 q-58 63 -179 72 q-108 0 -173 -73 q-64 -74 -66 -215 l166 0 q3 72 26 101 q23 29 62 28 q70 -9 126 -72 q56 -64 171 -73 l0 0 ZM611 919 q113 -1 180 -72 q67 -71 72 -194 l-515 0 q10 122 80 193 q70 71 183 73 l0 0 ZM865 301 q-27 -61 -89 -93 q-62 -33 -155 -33 q-124 1 -196 80 q-72 78 -78 216 l0 13 l764 0 l0 80 q-2 261 -132 405 q-131 145 -367 147 q-240 -3 -376 -154 q-136 -152 -138 -419 q2 -266 137 -414 q135 -149 379 -151 q195 2 322 87 q127 85 164 236 l-235 0 Z" /><glyph glyph-name="" unicode="&#x117;" d="M612 1281 q65 1 106 43 q42 42 43 106 q-1 64 -43 105 q-41 42 -106 43 q-66 -1 -107 -43 q-41 -41 -42 -105 q1 -64 42 -106 q41 -42 107 -43 l0 0 ZM611 919 q113 -1 180 -72 q67 -71 72 -194 l-515 0 q10 122 80 193 q70 71 183 73 l0 0 ZM865 301 q-27 -61 -89 -93 q-62 -33 -155 -33 q-124 1 -196 80 q-72 78 -78 216 l0 13 l764 0 l0 80 q-2 261 -132 405 q-131 145 -367 147 q-240 -3 -376 -154 q-136 -152 -138 -419 q2 -266 137 -414 q135 -149 379 -151 q195 2 322 87 q127 85 164 236 l-235 0 Z" /><glyph glyph-name="" unicode="&#x229;" d="M348 653 q10 122 80 193 q70 71 183 73 q113 -1 180 -72 q67 -71 72 -194 l-515 0 ZM1111 484 l0 80 q-2 261 -132 405 q-131 145 -367 147 q-240 -3 -376 -154 q-136 -152 -138 -419 q2 -243 116 -389 q114 -145 322 -172 l-47 -114 l0 -104 l59 0 q72 0 105 -14 q33 -14 32 -45 q0 -32 -29 -48 q-29 -16 -85 -16 q-30 0 -65 4 q-35 5 -53 10 l0 -125 q29 -8 66 -13 q36 -5 80 -5 q124 1 191 54 q67 53 68 145 q0 80 -53 124 q-52 45 -150 48 l40 99 q162 19 267 102 q105 83 138 217 l-235 0 q-27 -61 -89 -93 q-62 -33 -155 -33 q-124 1 -196 80 q-72 78 -78 216 l0 13 l764 0 Z" /><glyph glyph-name="" unicode="&#x1e1d;" d="M810 1585 q-2 -83 -53 -134 q-52 -51 -146 -52 q-94 1 -146 52 q-51 51 -53 134 l-188 0 q2 -152 103 -246 q102 -93 284 -96 q182 3 284 96 q101 94 103 246 l-188 0 ZM348 653 q10 122 80 193 q70 71 183 73 q113 -1 180 -72 q67 -71 72 -194 l-515 0 ZM1111 484 l0 80 q-2 261 -132 405 q-131 145 -367 147 q-240 -3 -376 -154 q-136 -152 -138 -419 q2 -243 116 -389 q114 -145 322 -172 l-47 -114 l0 -104 l59 0 q72 0 105 -14 q33 -14 32 -45 q0 -32 -29 -48 q-29 -16 -85 -16 q-30 0 -65 4 q-35 5 -53 10 l0 -125 q29 -8 66 -13 q36 -5 80 -5 q124 1 191 54 q67 53 68 145 q0 80 -53 124 q-52 45 -150 48 l40 99 q162 19 267 102 q105 83 138 217 l-235 0 q-27 -61 -89 -93 q-62 -33 -155 -33 q-124 1 -196 80 q-72 78 -78 216 l0 13 l764 0 Z" /><glyph glyph-name="" unicode="&#x119;" d="M824 -454 q48 0 78 7 q30 6 47 13 l0 154 q-8 -2 -26 -5 q-18 -2 -42 -2 q-50 0 -82 26 q-32 25 -33 74 q0 55 41 110 q40 55 120 119 q69 56 115 128 q46 71 58 131 l-235 0 q-27 -61 -89 -93 q-62 -33 -155 -33 q-124 1 -196 80 q-72 78 -78 216 l0 13 l764 0 l0 80 q-2 261 -132 405 q-131 145 -367 147 q-240 -3 -376 -154 q-136 -152 -138 -419 q2 -266 137 -414 q135 -149 379 -151 q20 0 43 3 q23 3 35 7 l0 -17 q-63 -38 -97 -92 q-34 -54 -34 -116 q1 -95 72 -155 q70 -60 191 -62 l0 0 ZM611 919 q113 -1 180 -72 q67 -71 72 -194 l-515 0 q10 122 80 193 q70 71 183 73 l0 0 Z" /><glyph glyph-name="" unicode="f" d="M232 0 l247 0 l0 889 l235 0 l0 198 l-238 0 l0 88 q0 75 38 110 q38 35 115 35 q28 0 54 -2 q25 -3 41 -6 l0 185 q-31 5 -60 8 q-29 3 -65 3 q-181 1 -274 -74 q-93 -75 -93 -240 l0 -107 l-179 0 l0 -198 l179 0 l0 -889 Z" /><glyph glyph-name="" unicode="&#x1e1f;" d="M450 1628 q63 1 103 42 q40 40 41 102 q-1 63 -41 103 q-40 41 -103 42 q-64 -1 -103 -42 q-40 -40 -41 -103 q1 -62 41 -102 q39 -41 103 -42 l0 0 ZM232 0 l247 0 l0 889 l235 0 l0 198 l-238 0 l0 88 q0 75 38 110 q38 35 115 35 q28 0 54 -2 q25 -3 41 -6 l0 185 q-31 5 -60 8 q-29 3 -65 3 q-181 1 -274 -74 q-93 -75 -93 -240 l0 -107 l-179 0 l0 -198 l179 0 l0 -889 Z" /><glyph glyph-name="" unicode="g" d="M622 218 q-130 2 -200 92 q-70 91 -71 249 q1 159 71 249 q70 91 200 93 q130 -2 203 -93 q73 -90 74 -249 q-1 -158 -74 -249 q-72 -90 -203 -92 l0 0 ZM622 -416 q242 2 380 111 q138 109 141 301 l0 1098 l-239 0 l0 -175 l-17 0 q-47 90 -136 141 q-90 51 -203 52 q-211 -3 -331 -151 q-119 -148 -121 -402 q2 -250 121 -395 q118 -145 327 -148 q115 0 200 47 q86 46 134 134 l17 0 l0 -207 q-1 -103 -71 -160 q-70 -56 -198 -57 q-103 1 -165 33 q-62 33 -75 90 l-249 0 q17 -143 145 -226 q127 -84 340 -86 l0 0 Z" /><glyph glyph-name="" unicode="&#x1f5;" d="M727 1275 l284 347 l-277 0 l-249 -347 l242 0 ZM622 218 q-130 2 -200 92 q-70 91 -71 249 q1 159 71 249 q70 91 200 93 q130 -2 203 -93 q73 -90 74 -249 q-1 -158 -74 -249 q-72 -90 -203 -92 l0 0 ZM622 -416 q242 2 380 111 q138 109 141 301 l0 1098 l-239 0 l0 -175 l-17 0 q-47 90 -136 141 q-90 51 -203 52 q-211 -3 -331 -151 q-119 -148 -121 -402 q2 -250 121 -395 q118 -145 327 -148 q115 0 200 47 q86 46 134 134 l17 0 l0 -207 q-1 -103 -71 -160 q-70 -56 -198 -57 q-103 1 -165 33 q-62 33 -75 90 l-249 0 q17 -143 145 -226 q127 -84 340 -86 l0 0 Z" /><glyph glyph-name="" unicode="&#x1e7;" d="M754 1243 l277 348 l-239 0 l-159 -215 l-17 0 l-159 215 l-239 0 l277 -348 l259 0 ZM622 218 q-130 2 -200 92 q-70 91 -71 249 q1 159 71 249 q70 91 200 93 q130 -2 203 -93 q73 -90 74 -249 q-1 -158 -74 -249 q-72 -90 -203 -92 l0 0 ZM622 -416 q242 2 380 111 q138 109 141 301 l0 1098 l-239 0 l0 -175 l-17 0 q-47 90 -136 141 q-90 51 -203 52 q-211 -3 -331 -151 q-119 -148 -121 -402 q2 -250 121 -395 q118 -145 327 -148 q115 0 200 47 q86 46 134 134 l17 0 l0 -207 q-1 -103 -71 -160 q-70 -56 -198 -57 q-103 1 -165 33 q-62 33 -75 90 l-249 0 q17 -143 145 -226 q127 -84 340 -86 l0 0 Z" /><glyph glyph-name="" unicode="&#x11d;" d="M754 1591 l-259 0 l-277 -348 l239 0 l159 215 l17 0 l159 -215 l239 0 l-277 348 ZM622 218 q-130 2 -200 92 q-70 91 -71 249 q1 159 71 249 q70 91 200 93 q130 -2 203 -93 q73 -90 74 -249 q-1 -158 -74 -249 q-72 -90 -203 -92 l0 0 ZM622 -416 q242 2 380 111 q138 109 141 301 l0 1098 l-239 0 l0 -175 l-17 0 q-47 90 -136 141 q-90 51 -203 52 q-211 -3 -331 -151 q-119 -148 -121 -402 q2 -250 121 -395 q118 -145 327 -148 q115 0 200 47 q86 46 134 134 l17 0 l0 -207 q-1 -103 -71 -160 q-70 -56 -198 -57 q-103 1 -165 33 q-62 33 -75 90 l-249 0 q17 -143 145 -226 q127 -84 340 -86 l0 0 Z" /><glyph glyph-name="" unicode="&#x11f;" d="M237 1585 q2 -152 103 -246 q102 -93 284 -96 q182 3 284 96 q101 94 103 246 l-188 0 q-2 -83 -53 -134 q-52 -51 -146 -52 q-94 1 -146 52 q-51 51 -53 134 l-188 0 ZM622 218 q-130 2 -200 92 q-70 91 -71 249 q1 159 71 249 q70 91 200 93 q130 -2 203 -93 q73 -90 74 -249 q-1 -158 -74 -249 q-72 -90 -203 -92 l0 0 ZM622 -416 q242 2 380 111 q138 109 141 301 l0 1098 l-239 0 l0 -175 l-17 0 q-47 90 -136 141 q-90 51 -203 52 q-211 -3 -331 -151 q-119 -148 -121 -402 q2 -250 121 -395 q118 -145 327 -148 q115 0 200 47 q86 46 134 134 l17 0 l0 -207 q-1 -103 -71 -160 q-70 -56 -198 -57 q-103 1 -165 33 q-62 33 -75 90 l-249 0 q17 -143 145 -226 q127 -84 340 -86 l0 0 Z" /><glyph glyph-name="" unicode="&#x1e21;" d="M981 1469 l-712 0 l0 -164 l712 0 l0 164 ZM622 218 q-130 2 -200 92 q-70 91 -71 249 q1 159 71 249 q70 91 200 93 q130 -2 203 -93 q73 -90 74 -249 q-1 -158 -74 -249 q-72 -90 -203 -92 l0 0 ZM622 -416 q242 2 380 111 q138 109 141 301 l0 1098 l-239 0 l0 -175 l-17 0 q-47 90 -136 141 q-90 51 -203 52 q-211 -3 -331 -151 q-119 -148 -121 -402 q2 -250 121 -395 q118 -145 327 -148 q115 0 200 47 q86 46 134 134 l17 0 l0 -207 q-1 -103 -71 -160 q-70 -56 -198 -57 q-103 1 -165 33 q-62 33 -75 90 l-249 0 q17 -143 145 -226 q127 -84 340 -86 l0 0 Z" /><glyph glyph-name="" unicode="&#x121;" d="M625 1281 q65 1 106 43 q42 42 43 106 q-1 64 -43 105 q-41 42 -106 43 q-66 -1 -107 -43 q-41 -41 -42 -105 q1 -64 42 -106 q41 -42 107 -43 l0 0 ZM622 218 q-130 2 -200 92 q-70 91 -71 249 q1 159 71 249 q70 91 200 93 q130 -2 203 -93 q73 -90 74 -249 q-1 -158 -74 -249 q-72 -90 -203 -92 l0 0 ZM622 -416 q242 2 380 111 q138 109 141 301 l0 1098 l-239 0 l0 -175 l-17 0 q-47 90 -136 141 q-90 51 -203 52 q-211 -3 -331 -151 q-119 -148 -121 -402 q2 -250 121 -395 q118 -145 327 -148 q115 0 200 47 q86 46 134 134 l17 0 l0 -207 q-1 -103 -71 -160 q-70 -56 -198 -57 q-103 1 -165 33 q-62 33 -75 90 l-249 0 q17 -143 145 -226 q127 -84 340 -86 l0 0 Z" /><glyph glyph-name="" unicode="&#x123;" d="M646 1654 l-149 -364 l253 0 l121 364 l-225 0 ZM622 218 q-130 2 -200 92 q-70 91 -71 249 q1 159 71 249 q70 91 200 93 q130 -2 203 -93 q73 -90 74 -249 q-1 -158 -74 -249 q-72 -90 -203 -92 l0 0 ZM622 -416 q242 2 380 111 q138 109 141 301 l0 1098 l-239 0 l0 -175 l-17 0 q-47 90 -136 141 q-90 51 -203 52 q-211 -3 -331 -151 q-119 -148 -121 -402 q2 -250 121 -395 q118 -145 327 -148 q115 0 200 47 q86 46 134 134 l17 0 l0 -207 q-1 -103 -71 -160 q-70 -56 -198 -57 q-103 1 -165 33 q-62 33 -75 90 l-249 0 q17 -143 145 -226 q127 -84 340 -86 l0 0 Z" /><glyph glyph-name="" unicode="h" d="M162 0 l248 0 l0 635 q1 119 66 190 q65 71 188 73 q108 0 164 -63 q56 -63 56 -188 l0 -647 l248 0 l0 706 q-2 196 -100 302 q-99 105 -276 106 q-123 -1 -208 -52 q-84 -52 -124 -145 l-18 0 l0 600 l-244 0 l0 -1517 Z" /><glyph glyph-name="" unicode="&#x1e27;" d="M162 0 l248 0 l0 635 q1 119 66 190 q65 71 188 73 q108 0 164 -63 q56 -63 56 -188 l0 -647 l248 0 l0 706 q-2 196 -100 302 q-99 105 -276 106 q-123 -1 -208 -52 q-84 -52 -124 -145 l-18 0 l0 600 l-244 0 l0 -1517 ZM61 1651 q63 1 102 41 q40 39 41 100 q-1 61 -41 101 q-39 39 -102 40 q-62 -1 -102 -40 q-40 -40 -41 -101 q1 -61 41 -100 q40 -40 102 -41 l0 0 ZM506 1651 q63 1 102 41 q40 39 41 100 q-1 61 -41 101 q-39 39 -102 40 q-62 -1 -102 -40 q-40 -40 -41 -101 q1 -61 41 -100 q40 -40 102 -41 l0 0 Z" /><glyph glyph-name="" unicode="&#x21f;" d="M162 0 l248 0 l0 635 q1 119 66 190 q65 71 188 73 q108 0 164 -63 q56 -63 56 -188 l0 -647 l248 0 l0 706 q-2 196 -100 302 q-99 105 -276 106 q-123 -1 -208 -52 q-84 -52 -124 -145 l-18 0 l0 600 l-244 0 l0 -1517 ZM173 1659 l222 0 l288 310 l-235 0 l-155 -174 l-18 0 l-155 174 l-235 0 l288 -310 Z" /><glyph glyph-name="" unicode="&#x125;" d="M162 0 l248 0 l0 635 q1 119 66 190 q65 71 188 73 q108 0 164 -63 q56 -63 56 -188 l0 -647 l248 0 l0 706 q-2 196 -100 302 q-99 105 -276 106 q-123 -1 -208 -52 q-84 -52 -124 -145 l-18 0 l0 600 l-244 0 l0 -1517 ZM168 1980 l-290 -321 l242 0 l155 183 l18 0 l155 -183 l242 0 l-290 321 l-232 0 Z" /><glyph glyph-name="" unicode="&#x1e25;" d="M162 0 l248 0 l0 635 q1 119 66 190 q65 71 188 73 q108 0 164 -63 q56 -63 56 -188 l0 -647 l248 0 l0 706 q-2 196 -100 302 q-99 105 -276 106 q-123 -1 -208 -52 q-84 -52 -124 -145 l-18 0 l0 600 l-244 0 l0 -1517 ZM652 -413 q64 1 104 38 q39 37 40 95 q-1 58 -40 95 q-40 37 -104 38 q-64 -1 -103 -38 q-40 -37 -41 -95 q1 -58 41 -95 q39 -37 103 -38 l0 0 Z" /><glyph glyph-name="" unicode="&#x1e23;" d="M162 0 l248 0 l0 635 q1 119 66 190 q65 71 188 73 q108 0 164 -63 q56 -63 56 -188 l0 -647 l248 0 l0 706 q-2 196 -100 302 q-99 105 -276 106 q-123 -1 -208 -52 q-84 -52 -124 -145 l-18 0 l0 600 l-244 0 l0 -1517 ZM284 1652 q63 1 103 42 q40 40 41 102 q-1 63 -41 103 q-40 41 -103 42 q-64 -1 -103 -42 q-40 -40 -41 -103 q1 -62 41 -102 q39 -41 103 -42 l0 0 Z" /><glyph glyph-name="" unicode="&#x1e2b;" d="M265 -112 q1 -138 102 -223 q101 -86 285 -89 q184 3 285 89 q101 85 102 223 l-190 0 q-1 -74 -52 -117 q-52 -44 -145 -45 q-93 1 -145 45 q-51 43 -52 117 l-190 0 ZM162 0 l248 0 l0 635 q1 119 66 190 q65 71 188 73 q108 0 164 -63 q56 -63 56 -188 l0 -647 l248 0 l0 706 q-2 196 -100 302 q-99 105 -276 106 q-123 -1 -208 -52 q-84 -52 -124 -145 l-18 0 l0 600 l-244 0 l0 -1517 Z" /><glyph glyph-name="" unicode="&#x1e29;" d="M303 -498 q124 1 191 54 q66 53 67 145 q-1 80 -54 125 q-54 45 -151 47 l54 131 l0 631 q1 119 66 190 q65 71 188 73 q108 0 164 -63 q56 -63 56 -188 l0 -647 l248 0 l0 706 q-2 196 -100 302 q-99 105 -276 106 q-123 -1 -208 -52 q-84 -52 -124 -145 l-18 0 l0 600 l-244 0 l0 -1517 l89 0 l-59 -142 l0 -104 l59 0 q74 0 106 -14 q32 -14 31 -46 q0 -31 -29 -47 q-29 -16 -85 -16 q-31 0 -65 4 q-34 4 -53 10 l0 -125 q28 -8 65 -13 q37 -5 82 -5 l0 0 Z" /><glyph glyph-name="" unicode="&#x127;" d="M406 917 l0 346 l243 0 l0 142 l-243 0 l0 112 l-244 0 l0 -112 l-144 0 l0 -142 l144 0 l0 -1263 l248 0 l0 635 q1 119 66 190 q65 71 188 73 q108 0 164 -63 q56 -63 56 -188 l0 -647 l248 0 l0 706 q-2 196 -100 302 q-99 105 -276 106 q-123 -1 -208 -52 q-84 -52 -124 -145 l-18 0 Z" /><glyph glyph-name="" unicode="&#x1e96;" d="M162 0 l248 0 l0 635 q1 119 66 190 q65 71 188 73 q108 0 164 -63 q56 -63 56 -188 l0 -647 l248 0 l0 706 q-2 196 -100 302 q-99 105 -276 106 q-123 -1 -208 -52 q-84 -52 -124 -145 l-18 0 l0 600 l-244 0 l0 -1517 ZM1012 -218 l-720 0 l0 -164 l720 0 l0 164 Z" /><glyph glyph-name="" unicode="i" d="M155 0 l247 0 l0 1094 l-247 0 l0 -1094 ZM278 1272 q69 1 111 39 q41 38 42 98 q-1 60 -42 98 q-42 38 -111 39 q-69 -1 -110 -39 q-42 -38 -43 -98 q1 -60 43 -98 q41 -38 110 -39 l0 0 Z" /><glyph glyph-name="" unicode="ì" d="M424 1275 l-249 347 l-277 0 l284 -347 l242 0 ZM155 0 l247 0 l0 1094 l-247 0 l0 -1094 Z" /><glyph glyph-name="" unicode="&#x209;" d="M155 0 l247 0 l0 1094 l-247 0 l0 -1094 ZM194 1275 l-227 347 l-241 0 l256 -347 l212 0 ZM617 1275 l-227 347 l-241 0 l256 -347 l212 0 Z" /><glyph glyph-name="" unicode="í" d="M380 1275 l284 347 l-277 0 l-249 -347 l242 0 ZM155 0 l247 0 l0 1094 l-247 0 l0 -1094 Z" /><glyph glyph-name="" unicode="î" d="M407 1591 l-259 0 l-277 -348 l239 0 l159 215 l17 0 l159 -215 l239 0 l-277 348 ZM155 0 l247 0 l0 1094 l-247 0 l0 -1094 Z" /><glyph glyph-name="" unicode="&#x1d0;" d="M407 1243 l277 348 l-239 0 l-159 -215 l-17 0 l-159 215 l-239 0 l277 -348 l259 0 ZM155 0 l247 0 l0 1094 l-247 0 l0 -1094 Z" /><glyph glyph-name="" unicode="ï" d="M155 0 l247 0 l0 1094 l-247 0 l0 -1094 ZM55 1242 q63 1 102 41 q40 39 41 100 q-1 61 -41 101 q-39 39 -102 40 q-62 -1 -102 -40 q-40 -40 -41 -101 q1 -61 41 -100 q40 -40 102 -41 l0 0 ZM500 1242 q63 1 102 41 q40 39 41 100 q-1 61 -41 101 q-39 39 -102 40 q-62 -1 -102 -40 q-40 -40 -41 -101 q1 -61 41 -100 q40 -40 102 -41 l0 0 Z" /><glyph glyph-name="" unicode="&#x1e2f;" d="M161 1617 l214 0 l236 311 l-250 0 l-200 -311 ZM55 1244 q63 1 102 41 q40 39 41 100 q-1 61 -41 101 q-39 39 -102 40 q-62 -1 -102 -40 q-40 -40 -41 -101 q1 -61 41 -100 q40 -40 102 -41 l0 0 ZM500 1244 q63 1 102 41 q40 39 41 100 q-1 61 -41 101 q-39 39 -102 40 q-62 -1 -102 -40 q-40 -40 -41 -101 q1 -61 41 -100 q40 -40 102 -41 l0 0 ZM155 0 l247 0 l0 1094 l-247 0 l0 -1094 Z" /><glyph glyph-name="" unicode="&#x12d;" d="M155 0 l247 0 l0 1094 l-247 0 l0 -1094 ZM-110 1585 q2 -152 103 -246 q102 -93 284 -96 q182 3 284 96 q101 94 103 246 l-188 0 q-2 -83 -53 -134 q-52 -51 -146 -52 q-94 1 -146 52 q-51 51 -53 134 l-188 0 Z" /></font>
</defs>
</svg>
