<?xml version="1.0" standalone="no"?><!DOCTYPE svg PUBLIC "-//W3C//DTD SVG 1.1//EN" "http://www.w3.org/Graphics/SVG/1.1/DTD/svg11.dtd" ><svg xmlns="http://www.w3.org/2000/svg"><metadata></metadata><defs><font id="SF UI Display Black; 12.0d0e2; 2016-05-11" horiz-adv-x="2798"><font-face font-family="SF UI Display" font-weight="900" font-stretch="normal" units-per-em="2048" panose-1="0 0 10 0 0 0 0 0 0 0" ascent="1950" descent="-494" x-height="0" bbox="-660 -603 2718 2234" underline-thickness="260" underline-position="-250" unicode-range="U+0020-f189" /><missing-glyph horiz-adv-x="2048" d="M100 -494 l1848 0 l0 128 l-1848 0 l0 -128 ZM100 -31 l1848 0 l0 128 l-1848 0 l0 -128 ZM100 432 l1848 0 l0 129 l-1848 0 l0 -129 ZM100 896 l1848 0 l0 128 l-1848 0 l0 -128 ZM100 1359 l1848 0 l0 128 l-1848 0 l0 -128 ZM100 1822 l1848 0 l0 128 l-1848 0 l0 -128 Z" /><glyph glyph-name="" unicode=" " d="" /><glyph glyph-name="" unicode="a" d="M1052 0 l452 0 l-471 1443 l-532 0 l-471 -1443 l432 0 l75 287 l440 0 l75 -287 ZM753 1110 l8 0 l139 -524 l-286 0 l139 524 Z" /><glyph glyph-name="" unicode="à" d="M1052 0 l452 0 l-471 1443 l-532 0 l-471 -1443 l432 0 l75 287 l440 0 l75 -287 ZM753 1110 l8 0 l139 -524 l-286 0 l139 524 ZM621 1564 l306 0 l-232 321 l-348 0 l274 -321 Z" /><glyph glyph-name="" unicode="á" d="M1052 0 l452 0 l-471 1443 l-532 0 l-471 -1443 l432 0 l75 287 l440 0 l75 -287 ZM753 1110 l8 0 l139 -524 l-286 0 l139 524 ZM907 1555 l274 321 l-348 0 l-232 -321 l306 0 Z" /><glyph glyph-name="" unicode="ä" d="M1052 0 l452 0 l-471 1443 l-532 0 l-471 -1443 l432 0 l75 287 l440 0 l75 -287 ZM753 1110 l8 0 l139 -524 l-286 0 l139 524 ZM545 1536 q70 2 114 44 q43 43 44 106 q-1 64 -44 106 q-44 42 -114 44 q-70 -2 -113 -44 q-44 -42 -45 -106 q1 -63 45 -106 q43 -42 113 -44 l0 0 ZM989 1536 q70 2 114 44 q43 43 44 106 q-1 64 -44 106 q-44 42 -114 44 q-70 -2 -113 -44 q-44 -42 -45 -106 q1 -63 45 -106 q43 -42 113 -44 l0 0 Z" /><glyph glyph-name="" unicode="&#x1de;" d="M1052 0 l452 0 l-471 1443 l-532 0 l-471 -1443 l432 0 l75 287 l440 0 l75 -287 ZM753 1110 l8 0 l139 -524 l-286 0 l139 524 ZM545 1836 q-70 -2 -113 -44 q-44 -42 -45 -106 q1 -63 45 -106 q43 -42 113 -44 q70 2 114 44 q43 43 44 106 q-1 64 -44 106 q-44 42 -114 44 l0 0 ZM393 2120 l0 -180 l748 0 l0 180 l-748 0 ZM989 1836 q-70 -2 -113 -44 q-44 -42 -45 -106 q1 -63 45 -106 q43 -42 113 -44 q70 2 114 44 q43 43 44 106 q-1 64 -44 106 q-44 42 -114 44 l0 0 Z" /><glyph glyph-name="" unicode="å" d="M1052 0 l452 0 l-471 1443 l-532 0 l-471 -1443 l432 0 l75 287 l440 0 l75 -287 ZM753 1110 l8 0 l139 -524 l-286 0 l139 524 ZM767 1520 q92 2 154 63 q62 60 65 149 q-3 91 -65 151 q-62 60 -154 62 q-92 -2 -155 -62 q-62 -60 -65 -151 q3 -89 65 -149 q63 -61 155 -63 l0 0 ZM767 1656 q-33 1 -56 22 q-23 22 -24 54 q1 33 24 55 q23 22 56 23 q33 -1 56 -23 q23 -22 24 -55 q-1 -32 -24 -54 q-23 -21 -56 -22 l0 0 Z" /><glyph glyph-name="" unicode="&#x1fa;" d="M1052 0 l452 0 l-471 1443 l-532 0 l-471 -1443 l432 0 l75 287 l440 0 l75 -287 ZM753 1110 l8 0 l139 -524 l-286 0 l139 524 ZM767 1518 q95 2 153 58 q58 55 60 147 q-2 92 -60 148 q-58 55 -153 57 q-95 -2 -154 -58 q-58 -56 -60 -147 q2 -91 60 -147 q59 -56 154 -58 l0 0 ZM767 1653 q-31 1 -51 20 q-19 19 -20 50 q1 31 20 50 q20 18 51 19 q31 -1 50 -19 q19 -19 20 -50 q-1 -31 -20 -50 q-19 -19 -50 -20 l0 0 ZM745 2201 l-115 -202 l276 0 l162 202 l-323 0 Z" /><glyph glyph-name="" unicode="ã" d="M1052 0 l452 0 l-471 1443 l-532 0 l-471 -1443 l432 0 l75 287 l440 0 l75 -287 ZM753 1110 l8 0 l139 -524 l-286 0 l139 524 ZM920 1546 q104 1 176 79 q72 78 75 219 l-201 0 q-2 -47 -18 -76 q-17 -29 -51 -30 q-48 7 -105 60 q-57 52 -163 59 q-104 -1 -176 -76 q-72 -76 -75 -217 l201 0 q2 41 18 70 q17 30 51 31 q48 -7 105 -59 q57 -53 163 -60 l0 0 Z" /><glyph glyph-name="" unicode="&#x1eb0;" d="M1052 0 l452 0 l-471 1443 l-532 0 l-471 -1443 l432 0 l75 287 l440 0 l75 -287 ZM753 1110 l8 0 l139 -524 l-286 0 l139 524 ZM1162 1850 l-236 0 q-3 -51 -44 -89 q-41 -37 -115 -39 q-74 2 -115 39 q-41 38 -44 89 l-236 0 q2 -125 104 -217 q101 -92 291 -97 q190 5 291 97 q102 92 104 217 l0 0 ZM923 1925 l-202 281 l-322 0 l238 -281 l286 0 Z" /><glyph glyph-name="" unicode="&#x1e0;" d="M1052 0 l452 0 l-471 1443 l-532 0 l-471 -1443 l432 0 l75 287 l440 0 l75 -287 ZM753 1110 l8 0 l139 -524 l-286 0 l139 524 ZM767 1536 q70 2 114 44 q43 43 44 106 q-1 64 -44 106 q-44 42 -114 44 q-70 -2 -113 -44 q-44 -42 -45 -106 q1 -63 45 -106 q43 -42 113 -44 l0 0 ZM1141 2120 l-748 0 l0 -180 l748 0 l0 180 Z" /><glyph glyph-name="" unicode="&#x1e00;" d="M1052 0 l452 0 l-471 1443 l-532 0 l-471 -1443 l432 0 l75 287 l440 0 l75 -287 ZM753 1110 l8 0 l139 -524 l-286 0 l139 524 ZM767 -603 q102 3 171 69 q69 67 72 166 q-3 100 -72 167 q-69 66 -171 69 q-102 -3 -171 -69 q-70 -67 -73 -167 q3 -99 73 -166 q69 -66 171 -69 l0 0 ZM767 -452 q-36 1 -62 25 q-25 24 -26 59 q1 36 26 61 q26 24 62 25 q36 -1 62 -25 q25 -25 26 -61 q-1 -35 -26 -59 q-26 -24 -62 -25 l0 0 Z" /><glyph glyph-name="" unicode="â" d="M1052 0 l452 0 l-471 1443 l-532 0 l-471 -1443 l432 0 l75 287 l440 0 l75 -287 ZM753 1110 l8 0 l139 -524 l-286 0 l139 524 ZM610 1872 l-255 -336 l276 0 l132 192 l8 0 l132 -192 l276 0 l-255 336 l-314 0 Z" /><glyph glyph-name="" unicode="&#x1eac;" d="M1052 0 l452 0 l-471 1443 l-532 0 l-471 -1443 l432 0 l75 287 l440 0 l75 -287 ZM753 1110 l8 0 l139 -524 l-286 0 l139 524 ZM610 1872 l-255 -336 l276 0 l132 192 l8 0 l132 -192 l276 0 l-255 336 l-314 0 ZM767 -524 q77 2 126 52 q49 50 51 125 q-2 75 -51 124 q-49 50 -126 52 q-77 -2 -126 -52 q-49 -49 -51 -124 q2 -75 51 -125 q49 -50 126 -52 l0 0 Z" /><glyph glyph-name="" unicode="&#x1ea4;" d="M1052 0 l452 0 l-471 1443 l-532 0 l-471 -1443 l432 0 l75 287 l440 0 l75 -287 ZM753 1110 l8 0 l139 -524 l-286 0 l139 524 ZM612 1842 l-255 -306 l280 0 l126 166 l8 0 l126 -166 l280 0 l-255 306 l-310 0 ZM811 1925 l286 0 l238 281 l-322 0 l-202 -281 Z" /><glyph glyph-name="" unicode="&#x1eaa;" d="M1052 0 l452 0 l-471 1443 l-532 0 l-471 -1443 l432 0 l75 287 l440 0 l75 -287 ZM753 1110 l8 0 l139 -524 l-286 0 l139 524 ZM913 1913 q105 1 176 79 q70 78 73 219 l-201 0 q-2 -47 -18 -76 q-17 -29 -51 -30 q-49 8 -107 61 q-58 52 -164 60 q-105 -1 -175 -76 q-71 -76 -74 -217 l201 0 q2 41 18 70 q17 30 51 31 q49 -8 107 -60 q58 -53 164 -61 l0 0 ZM612 1842 l-255 -306 l280 0 l126 166 l8 0 l126 -166 l280 0 l-255 306 l-310 0 Z" /><glyph glyph-name="" unicode="&#x1ea6;" d="M1052 0 l452 0 l-471 1443 l-532 0 l-471 -1443 l432 0 l75 287 l440 0 l75 -287 ZM753 1110 l8 0 l139 -524 l-286 0 l139 524 ZM612 1842 l-255 -306 l280 0 l126 166 l8 0 l126 -166 l280 0 l-255 306 l-310 0 ZM1143 1925 l-202 281 l-322 0 l238 -281 l286 0 Z" /><glyph glyph-name="" unicode="&#x1ea8;" d="M1052 0 l452 0 l-471 1443 l-532 0 l-471 -1443 l432 0 l75 287 l440 0 l75 -287 ZM753 1110 l8 0 l139 -524 l-286 0 l139 524 ZM612 1842 l-255 -306 l280 0 l126 166 l8 0 l126 -166 l280 0 l-255 306 l-310 0 ZM878 2016 q22 8 54 13 q32 5 57 5 q51 0 78 -21 q28 -20 28 -57 q1 -28 -14 -54 q-15 -26 -56 -44 l107 -135 q91 40 139 110 q49 69 49 148 q-1 109 -74 170 q-73 60 -203 61 q-49 0 -93 -8 q-44 -7 -72 -21 l0 -167 Z" /><glyph glyph-name="" unicode="&#x102;" d="M1052 0 l452 0 l-471 1443 l-532 0 l-471 -1443 l432 0 l75 287 l440 0 l75 -287 ZM753 1110 l8 0 l139 -524 l-286 0 l139 524 ZM372 1870 q5 -139 105 -234 q101 -96 290 -100 q190 4 290 100 q100 95 105 234 l-236 0 q-3 -66 -43 -106 q-41 -41 -116 -42 q-75 1 -115 42 q-41 40 -44 106 l-236 0 Z" /><glyph glyph-name="" unicode="&#x1eae;" d="M1052 0 l452 0 l-471 1443 l-532 0 l-471 -1443 l432 0 l75 287 l440 0 l75 -287 ZM753 1110 l8 0 l139 -524 l-286 0 l139 524 ZM372 1850 q2 -125 104 -217 q101 -92 291 -97 q190 5 291 97 q102 92 104 217 l-236 0 q-3 -51 -44 -89 q-41 -37 -115 -39 q-74 2 -115 39 q-41 38 -44 89 l-236 0 ZM611 1925 l286 0 l238 281 l-322 0 l-202 -281 Z" /><glyph glyph-name="" unicode="&#x1eb4;" d="M1052 0 l452 0 l-471 1443 l-532 0 l-471 -1443 l432 0 l75 287 l440 0 l75 -287 ZM753 1110 l8 0 l139 -524 l-286 0 l139 524 ZM372 1850 q2 -125 104 -217 q101 -92 291 -97 q190 5 291 97 q102 92 104 217 l-236 0 q-3 -51 -44 -89 q-41 -37 -115 -39 q-74 2 -115 39 q-41 38 -44 89 l-236 0 ZM913 1913 q105 1 176 79 q70 78 73 219 l-201 0 q-2 -47 -18 -76 q-17 -29 -51 -30 q-49 8 -107 61 q-58 52 -164 60 q-105 -1 -175 -75 q-71 -74 -74 -208 l201 0 q2 34 18 62 q17 27 51 29 q49 -8 107 -60 q58 -53 164 -61 l0 0 Z" /><glyph glyph-name="" unicode="&#x1eb2;" d="M1052 0 l452 0 l-471 1443 l-532 0 l-471 -1443 l432 0 l75 287 l440 0 l75 -287 ZM753 1110 l8 0 l139 -524 l-286 0 l139 524 ZM547 2048 q22 10 48 15 q26 5 53 5 q47 0 74 -17 q27 -18 28 -48 q0 -28 -24 -53 q-24 -25 -69 -43 l94 -107 q86 31 144 100 q59 68 61 141 q-1 89 -67 139 q-66 50 -183 51 q-42 0 -88 -8 q-46 -8 -71 -19 l0 -156 ZM372 1850 q5 -138 114 -225 q108 -86 281 -89 q173 3 282 89 q108 87 113 225 l-236 0 q-5 -57 -48 -92 q-44 -35 -111 -36 q-67 1 -111 36 q-43 35 -48 92 l-236 0 Z" /><glyph glyph-name="" unicode="&#x1eb6;" d="M1052 0 l452 0 l-471 1443 l-532 0 l-471 -1443 l432 0 l75 287 l440 0 l75 -287 ZM753 1110 l8 0 l139 -524 l-286 0 l139 524 ZM372 1870 q5 -139 105 -234 q101 -96 290 -100 q190 4 290 100 q100 95 105 234 l-236 0 q-3 -66 -43 -106 q-41 -41 -116 -42 q-75 1 -115 42 q-41 40 -44 106 l-236 0 ZM767 -524 q77 2 126 52 q49 50 51 125 q-2 75 -51 124 q-49 50 -126 52 q-77 -2 -126 -52 q-49 -49 -51 -124 q2 -75 51 -125 q49 -50 126 -52 l0 0 Z" /><glyph glyph-name="" unicode="&#x202;" d="M1052 0 l452 0 l-471 1443 l-532 0 l-471 -1443 l432 0 l75 287 l440 0 l75 -287 ZM753 1110 l8 0 l139 -524 l-286 0 l139 524 ZM372 1536 l236 0 q3 66 44 106 q40 41 115 42 q75 -1 116 -42 q40 -40 43 -106 l236 0 q-5 139 -105 235 q-100 95 -290 99 q-189 -4 -290 -99 q-100 -96 -105 -235 l0 0 Z" /><glyph glyph-name="" unicode="&#x1cd;" d="M1052 0 l452 0 l-471 1443 l-532 0 l-471 -1443 l432 0 l75 287 l440 0 l75 -287 ZM753 1110 l8 0 l139 -524 l-286 0 l139 524 ZM610 1536 l314 0 l255 336 l-276 0 l-132 -192 l-8 0 l-132 192 l-276 0 l255 -336 Z" /><glyph glyph-name="" unicode="&#x226;" d="M1052 0 l452 0 l-471 1443 l-532 0 l-471 -1443 l432 0 l75 287 l440 0 l75 -287 ZM753 1110 l8 0 l139 -524 l-286 0 l139 524 ZM767 1536 q77 2 126 52 q49 50 51 125 q-2 75 -51 124 q-49 50 -126 52 q-77 -2 -126 -52 q-49 -49 -51 -124 q2 -75 51 -125 q49 -50 126 -52 l0 0 Z" /><glyph glyph-name="" unicode="&#x1ea0;" d="M1052 0 l452 0 l-471 1443 l-532 0 l-471 -1443 l432 0 l75 287 l440 0 l75 -287 ZM753 1110 l8 0 l139 -524 l-286 0 l139 524 ZM767 -524 q77 2 126 52 q49 50 51 125 q-2 75 -51 124 q-49 50 -126 52 q-77 -2 -126 -52 q-49 -49 -51 -124 q2 -75 51 -125 q49 -50 126 -52 l0 0 Z" /><glyph glyph-name="" unicode="&#x1ea2;" d="M1052 0 l452 0 l-471 1443 l-532 0 l-471 -1443 l432 0 l75 287 l440 0 l75 -287 ZM753 1110 l8 0 l139 -524 l-286 0 l139 524 ZM558 1807 q22 8 54 13 q32 5 57 5 q51 0 78 -21 q28 -20 28 -57 q-1 -34 -28 -65 q-28 -31 -74 -49 l111 -133 q96 43 155 115 q59 72 61 157 q-1 109 -74 170 q-73 60 -203 61 q-49 0 -93 -8 q-44 -7 -72 -21 l0 -167 Z" /><glyph glyph-name="" unicode="&#x200;" d="M1052 0 l452 0 l-471 1443 l-532 0 l-471 -1443 l432 0 l75 287 l440 0 l75 -287 ZM753 1110 l8 0 l139 -524 l-286 0 l139 524 ZM861 1555 l306 0 l-232 321 l-348 0 l274 -321 ZM381 1555 l306 0 l-232 321 l-348 0 l274 -321 Z" /><glyph glyph-name="" unicode="&#x100;" d="M1052 0 l452 0 l-471 1443 l-532 0 l-471 -1443 l432 0 l75 287 l440 0 l75 -287 ZM753 1110 l8 0 l139 -524 l-286 0 l139 524 ZM1141 1786 l-748 0 l0 -180 l748 0 l0 180 Z" /><glyph glyph-name="" unicode="&#x104;" d="M753 1110 l8 0 l139 -524 l-286 0 l139 524 ZM1381 -468 l0 193 q-7 -4 -27 -6 q-20 -3 -45 -3 q-60 0 -92 24 q-32 24 -32 70 q3 67 71 121 q68 54 159 63 l89 6 l-471 1443 l-532 0 l-471 -1443 l432 0 l75 287 l440 0 l78 -298 q-74 -47 -113 -109 q-39 -63 -39 -134 q2 -108 85 -173 q83 -65 221 -67 q56 0 99 7 q44 6 73 19 l0 0 Z" /><glyph glyph-name="" unicode="b" d="M833 0 q235 3 370 115 q136 113 139 305 q-4 146 -106 241 q-102 95 -252 102 l0 8 q128 18 209 102 q81 84 84 210 q-2 170 -123 264 q-122 95 -345 96 l-709 0 l0 -1443 l733 0 ZM524 1152 l170 0 q81 -1 126 -38 q44 -38 45 -105 q-1 -66 -48 -105 q-46 -38 -129 -39 l-164 0 l0 287 ZM524 291 l0 331 l184 0 q96 -1 149 -43 q53 -42 54 -120 q-1 -82 -54 -125 q-53 -43 -152 -43 l-181 0 Z" /><glyph glyph-name="" unicode="&#x1e06;" d="M833 0 q235 3 370 115 q136 113 139 305 q-4 146 -106 241 q-102 95 -252 102 l0 8 q128 18 209 102 q81 84 84 210 q-2 170 -123 264 q-122 95 -345 96 l-709 0 l0 -1443 l733 0 ZM524 1152 l170 0 q81 -1 126 -38 q44 -38 45 -105 q-1 -66 -48 -105 q-46 -38 -129 -39 l-164 0 l0 287 ZM524 291 l0 331 l184 0 q96 -1 149 -43 q53 -42 54 -120 q-1 -82 -54 -125 q-53 -43 -152 -43 l-181 0 ZM1065 -240 l-748 0 l0 -180 l748 0 l0 180 Z" /><glyph glyph-name="" unicode="&#x1e04;" d="M833 0 q235 3 370 115 q136 113 139 305 q-4 146 -106 241 q-102 95 -252 102 l0 8 q128 18 209 102 q81 84 84 210 q-2 170 -123 264 q-122 95 -345 96 l-709 0 l0 -1443 l733 0 ZM524 1152 l170 0 q81 -1 126 -38 q44 -38 45 -105 q-1 -66 -48 -105 q-46 -38 -129 -39 l-164 0 l0 287 ZM524 291 l0 331 l184 0 q96 -1 149 -43 q53 -42 54 -120 q-1 -82 -54 -125 q-53 -43 -152 -43 l-181 0 ZM691 -524 q77 2 126 52 q49 50 51 125 q-2 75 -51 124 q-49 50 -126 52 q-77 -2 -126 -52 q-49 -49 -51 -124 q2 -75 51 -125 q49 -50 126 -52 l0 0 Z" /><glyph glyph-name="" unicode="&#x1e02;" d="M833 0 q235 3 370 115 q136 113 139 305 q-4 146 -106 241 q-102 95 -252 102 l0 8 q128 18 209 102 q81 84 84 210 q-2 170 -123 264 q-122 95 -345 96 l-709 0 l0 -1443 l733 0 ZM524 1152 l170 0 q81 -1 126 -38 q44 -38 45 -105 q-1 -66 -48 -105 q-46 -38 -129 -39 l-164 0 l0 287 ZM524 291 l0 331 l184 0 q96 -1 149 -43 q53 -42 54 -120 q-1 -82 -54 -125 q-53 -43 -152 -43 l-181 0 ZM691 1536 q77 2 126 52 q49 50 51 125 q-2 75 -51 124 q-49 50 -126 52 q-77 -2 -126 -52 q-49 -49 -51 -124 q2 -75 51 -125 q49 -50 126 -52 l0 0 Z" /><glyph glyph-name="" unicode="c" d="M781 -25 q297 4 481 169 q184 164 191 438 l-406 0 q-11 -127 -83 -200 q-71 -73 -182 -74 q-133 1 -208 110 q-76 108 -77 305 q1 195 77 303 q75 107 207 109 q112 -2 183 -75 q72 -73 81 -198 l406 0 q-7 273 -192 437 q-186 165 -478 169 q-334 -2 -523 -194 q-190 -193 -193 -552 q3 -359 192 -552 q189 -193 524 -195 l0 0 Z" /><glyph glyph-name="" unicode="&#x106;" d="M781 -25 q297 4 481 169 q184 164 191 438 l-406 0 q-11 -127 -83 -200 q-71 -73 -182 -74 q-133 1 -208 110 q-76 108 -77 305 q1 195 77 303 q75 107 207 109 q112 -2 183 -75 q72 -73 81 -198 l406 0 q-7 273 -192 437 q-186 165 -478 169 q-334 -2 -523 -194 q-190 -193 -193 -552 q3 -359 192 -552 q189 -193 524 -195 l0 0 ZM897 1555 l274 321 l-348 0 l-232 -321 l306 0 Z" /><glyph glyph-name="" unicode="&#x10c;" d="M781 -25 q297 4 481 169 q184 164 191 438 l-406 0 q-11 -127 -83 -200 q-71 -73 -182 -74 q-133 1 -208 110 q-76 108 -77 305 q1 195 77 303 q75 107 207 109 q112 -2 183 -75 q72 -73 81 -198 l406 0 q-7 273 -192 437 q-186 165 -478 169 q-334 -2 -523 -194 q-190 -193 -193 -552 q3 -359 192 -552 q189 -193 524 -195 l0 0 ZM600 1536 l314 0 l255 336 l-276 0 l-132 -192 l-8 0 l-132 192 l-276 0 l255 -336 Z" /><glyph glyph-name="" unicode="&#x108;" d="M781 -25 q297 4 481 169 q184 164 191 438 l-406 0 q-11 -127 -83 -200 q-71 -73 -182 -74 q-133 1 -208 110 q-76 108 -77 305 q1 195 77 303 q75 107 207 109 q112 -2 183 -75 q72 -73 81 -198 l406 0 q-7 273 -192 437 q-186 165 -478 169 q-334 -2 -523 -194 q-190 -193 -193 -552 q3 -359 192 -552 q189 -193 524 -195 l0 0 ZM600 1872 l-255 -336 l276 0 l132 192 l8 0 l132 -192 l276 0 l-255 336 l-314 0 Z" /><glyph glyph-name="" unicode="&#x10a;" d="M781 -25 q297 4 481 169 q184 164 191 438 l-406 0 q-11 -127 -83 -200 q-71 -73 -182 -74 q-133 1 -208 110 q-76 108 -77 305 q1 195 77 303 q75 107 207 109 q112 -2 183 -75 q72 -73 81 -198 l406 0 q-7 273 -192 437 q-186 165 -478 169 q-334 -2 -523 -194 q-190 -193 -193 -552 q3 -359 192 -552 q189 -193 524 -195 l0 0 ZM757 1536 q77 2 126 52 q49 50 51 125 q-2 75 -51 124 q-49 50 -126 52 q-77 -2 -126 -52 q-49 -49 -51 -124 q2 -75 51 -125 q49 -50 126 -52 l0 0 Z" /><glyph glyph-name="" unicode="ç" d="M1047 582 q-11 -127 -83 -200 q-71 -73 -182 -74 q-133 1 -208 110 q-76 108 -77 305 q1 195 77 303 q75 107 207 109 q112 -2 183 -75 q72 -73 81 -198 l406 0 q-7 273 -192 437 q-186 165 -478 169 q-334 -2 -523 -194 q-190 -193 -193 -552 q3 -329 162 -519 q160 -190 446 -222 l-43 -79 l0 -127 l56 0 q55 0 78 -10 q23 -10 22 -36 q0 -19 -22 -28 q-23 -9 -72 -9 q-27 0 -54 3 q-26 3 -45 9 l0 -141 q20 -7 56 -11 q35 -4 77 -4 q131 0 197 49 q66 49 66 146 q-1 77 -45 122 q-44 45 -117 46 l35 68 q264 27 425 188 q160 161 166 415 l-406 0 Z" /><glyph glyph-name="" unicode="&#x1e08;" d="M1171 1876 l-348 0 l-232 -321 l306 0 l274 321 ZM1047 582 q-11 -127 -83 -200 q-71 -73 -182 -74 q-133 1 -208 110 q-76 108 -77 305 q1 195 77 303 q75 107 207 109 q112 -2 183 -75 q72 -73 81 -198 l406 0 q-7 273 -192 437 q-186 165 -478 169 q-334 -2 -523 -194 q-190 -193 -193 -552 q3 -329 162 -519 q160 -190 446 -222 l-43 -79 l0 -127 l56 0 q55 0 78 -10 q23 -10 22 -36 q0 -19 -22 -28 q-23 -9 -72 -9 q-27 0 -54 3 q-26 3 -45 9 l0 -141 q20 -7 56 -11 q35 -4 77 -4 q131 0 197 49 q66 49 66 146 q-1 77 -45 122 q-44 45 -117 46 l35 68 q264 27 425 188 q160 161 166 415 l-406 0 Z" /><glyph glyph-name="" unicode="d" d="M100 1443 l0 -1443 l617 0 q330 2 511 193 q182 190 184 539 q-2 348 -183 529 q-181 181 -512 182 l-617 0 ZM524 1106 l133 0 q153 -1 238 -96 q84 -95 85 -278 q0 -199 -82 -297 q-82 -98 -241 -98 l-133 0 l0 769 Z" /><glyph glyph-name="" unicode="&#x1e0a;" d="M100 1443 l0 -1443 l617 0 q330 2 511 193 q182 190 184 539 q-2 348 -183 529 q-181 181 -512 182 l-617 0 ZM524 1106 l133 0 q153 -1 238 -96 q84 -95 85 -278 q0 -199 -82 -297 q-82 -98 -241 -98 l-133 0 l0 769 ZM739 1536 q77 2 126 52 q49 50 51 125 q-2 75 -51 124 q-49 50 -126 52 q-77 -2 -126 -52 q-49 -49 -51 -124 q2 -75 51 -125 q49 -50 126 -52 l0 0 Z" /><glyph glyph-name="" unicode="&#x1e12;" d="M100 1443 l0 -1443 l617 0 q330 2 511 193 q182 190 184 539 q-2 348 -183 529 q-181 181 -512 182 l-617 0 ZM524 1106 l133 0 q153 -1 238 -96 q84 -95 85 -278 q0 -199 -82 -297 q-82 -98 -241 -98 l-133 0 l0 769 ZM582 -154 l-255 -336 l276 0 l132 192 l8 0 l132 -192 l276 0 l-255 336 l-314 0 Z" /><glyph glyph-name="" unicode="&#x1e10;" d="M100 1443 l0 -1443 l617 0 q330 2 511 193 q182 190 184 539 q-2 348 -183 529 q-181 181 -512 182 l-617 0 ZM524 1106 l133 0 q153 -1 238 -96 q84 -95 85 -278 q0 -199 -82 -297 q-82 -98 -241 -98 l-133 0 l0 769 ZM710 -457 l203 321 l-359 0 l-152 -321 l308 0 Z" /><glyph glyph-name="" unicode="&#x1e0e;" d="M100 1443 l0 -1443 l617 0 q330 2 511 193 q182 190 184 539 q-2 348 -183 529 q-181 181 -512 182 l-617 0 ZM524 1106 l133 0 q153 -1 238 -96 q84 -95 85 -278 q0 -199 -82 -297 q-82 -98 -241 -98 l-133 0 l0 769 ZM1113 -240 l-748 0 l0 -180 l748 0 l0 180 Z" /><glyph glyph-name="" unicode="&#x10e;" d="M100 1443 l0 -1443 l617 0 q330 2 511 193 q182 190 184 539 q-2 348 -183 529 q-181 181 -512 182 l-617 0 ZM524 1106 l133 0 q153 -1 238 -96 q84 -95 85 -278 q0 -199 -82 -297 q-82 -98 -241 -98 l-133 0 l0 769 ZM582 1536 l314 0 l255 336 l-276 0 l-132 -192 l-8 0 l-132 192 l-276 0 l255 -336 Z" /><glyph glyph-name="" unicode="&#x1e0c;" d="M100 1443 l0 -1443 l617 0 q330 2 511 193 q182 190 184 539 q-2 348 -183 529 q-181 181 -512 182 l-617 0 ZM524 1106 l133 0 q153 -1 238 -96 q84 -95 85 -278 q0 -199 -82 -297 q-82 -98 -241 -98 l-133 0 l0 769 ZM739 -524 q77 2 126 52 q49 50 51 125 q-2 75 -51 124 q-49 50 -126 52 q-77 -2 -126 -52 q-49 -49 -51 -124 q2 -75 51 -125 q49 -50 126 -52 l0 0 Z" /><glyph glyph-name="" unicode="&#x110;" d="M550 337 l0 244 l233 0 l0 279 l-233 0 l0 246 l133 0 q153 -1 238 -96 q84 -95 85 -278 q0 -199 -82 -297 q-82 -98 -241 -98 l-133 0 ZM126 1443 l0 -583 l-66 0 l0 -279 l66 0 l0 -581 l617 0 q330 2 511 193 q182 190 184 539 q-2 348 -183 529 q-181 181 -512 182 l-617 0 Z" /><glyph glyph-name="" unicode="e" d="M1118 337 l-594 0 l0 232 l557 0 l0 304 l-557 0 l0 233 l594 0 l0 337 l-1018 0 l0 -1443 l1018 0 l0 337 Z" /><glyph glyph-name="" unicode="è" d="M1118 337 l-594 0 l0 232 l557 0 l0 304 l-557 0 l0 233 l594 0 l0 337 l-1018 0 l0 -1443 l1018 0 l0 337 ZM462 1564 l306 0 l-232 321 l-348 0 l274 -321 Z" /><glyph glyph-name="" unicode="&#x204;" d="M1118 337 l-594 0 l0 232 l557 0 l0 304 l-557 0 l0 233 l594 0 l0 337 l-1018 0 l0 -1443 l1018 0 l0 337 ZM702 1555 l306 0 l-232 321 l-348 0 l274 -321 ZM222 1555 l306 0 l-232 321 l-348 0 l274 -321 Z" /><glyph glyph-name="" unicode="é" d="M1118 337 l-594 0 l0 232 l557 0 l0 304 l-557 0 l0 233 l594 0 l0 337 l-1018 0 l0 -1443 l1018 0 l0 337 ZM748 1555 l274 321 l-348 0 l-232 -321 l306 0 Z" /><glyph glyph-name="" unicode="ê" d="M1118 337 l-594 0 l0 232 l557 0 l0 304 l-557 0 l0 233 l594 0 l0 337 l-1018 0 l0 -1443 l1018 0 l0 337 ZM451 1872 l-255 -336 l276 0 l132 192 l8 0 l132 -192 l276 0 l-255 336 l-314 0 Z" /><glyph glyph-name="" unicode="&#x1ec2;" d="M1118 337 l-594 0 l0 232 l557 0 l0 304 l-557 0 l0 233 l594 0 l0 337 l-1018 0 l0 -1443 l1018 0 l0 337 ZM453 1842 l-255 -306 l280 0 l126 166 l8 0 l126 -166 l280 0 l-255 306 l-310 0 ZM719 2016 q22 8 54 13 q32 5 57 5 q51 0 78 -21 q28 -20 28 -57 q1 -28 -14 -54 q-15 -26 -56 -44 l107 -135 q91 40 139 110 q49 69 49 148 q-1 109 -74 170 q-73 60 -203 61 q-49 0 -93 -8 q-44 -7 -72 -21 l0 -167 Z" /><glyph glyph-name="" unicode="&#x1ec0;" d="M1118 337 l-594 0 l0 232 l557 0 l0 304 l-557 0 l0 233 l594 0 l0 337 l-1018 0 l0 -1443 l1018 0 l0 337 ZM453 1842 l-255 -306 l280 0 l126 166 l8 0 l126 -166 l280 0 l-255 306 l-310 0 ZM984 1925 l-202 281 l-322 0 l238 -281 l286 0 Z" /><glyph glyph-name="" unicode="&#x1ec4;" d="M1118 337 l-594 0 l0 232 l557 0 l0 304 l-557 0 l0 233 l594 0 l0 337 l-1018 0 l0 -1443 l1018 0 l0 337 ZM754 1913 q105 1 176 79 q70 78 73 219 l-201 0 q-2 -47 -18 -76 q-17 -29 -51 -30 q-49 8 -107 61 q-58 52 -164 60 q-105 -1 -175 -76 q-71 -76 -74 -217 l201 0 q2 41 18 70 q17 30 51 31 q49 -8 107 -60 q58 -53 164 -61 l0 0 ZM453 1842 l-255 -306 l280 0 l126 166 l8 0 l126 -166 l280 0 l-255 306 l-310 0 Z" /><glyph glyph-name="" unicode="&#x1ec6;" d="M1118 337 l-594 0 l0 232 l557 0 l0 304 l-557 0 l0 233 l594 0 l0 337 l-1018 0 l0 -1443 l1018 0 l0 337 ZM451 1872 l-255 -336 l276 0 l132 192 l8 0 l132 -192 l276 0 l-255 336 l-314 0 ZM608 -524 q77 2 126 52 q49 50 51 125 q-2 75 -51 124 q-49 50 -126 52 q-77 -2 -126 -52 q-49 -49 -51 -124 q2 -75 51 -125 q49 -50 126 -52 l0 0 Z" /><glyph glyph-name="" unicode="&#x1ebe;" d="M1118 337 l-594 0 l0 232 l557 0 l0 304 l-557 0 l0 233 l594 0 l0 337 l-1018 0 l0 -1443 l1018 0 l0 337 ZM453 1842 l-255 -306 l280 0 l126 166 l8 0 l126 -166 l280 0 l-255 306 l-310 0 ZM652 1925 l286 0 l238 281 l-322 0 l-202 -281 Z" /><glyph glyph-name="" unicode="ë" d="M1118 337 l-594 0 l0 232 l557 0 l0 304 l-557 0 l0 233 l594 0 l0 337 l-1018 0 l0 -1443 l1018 0 l0 337 ZM386 1536 q70 2 114 44 q43 43 44 106 q-1 64 -44 106 q-44 42 -114 44 q-70 -2 -113 -44 q-44 -42 -45 -106 q1 -63 45 -106 q43 -42 113 -44 l0 0 ZM830 1536 q70 2 114 44 q43 43 44 106 q-1 64 -44 106 q-44 42 -114 44 q-70 -2 -113 -44 q-44 -42 -45 -106 q1 -63 45 -106 q43 -42 113 -44 l0 0 Z" /><glyph glyph-name="" unicode="&#x1eb8;" d="M1118 337 l-594 0 l0 232 l557 0 l0 304 l-557 0 l0 233 l594 0 l0 337 l-1018 0 l0 -1443 l1018 0 l0 337 ZM608 -524 q77 2 126 52 q49 50 51 125 q-2 75 -51 124 q-49 50 -126 52 q-77 -2 -126 -52 q-49 -49 -51 -124 q2 -75 51 -125 q49 -50 126 -52 l0 0 Z" /><glyph glyph-name="" unicode="&#x206;" d="M1118 337 l-594 0 l0 232 l557 0 l0 304 l-557 0 l0 233 l594 0 l0 337 l-1018 0 l0 -1443 l1018 0 l0 337 ZM213 1536 l236 0 q3 66 44 106 q40 41 115 42 q75 -1 116 -42 q40 -40 43 -106 l236 0 q-5 139 -105 235 q-100 95 -290 99 q-189 -4 -290 -99 q-100 -96 -105 -235 l0 0 Z" /><glyph glyph-name="" unicode="&#x1eba;" d="M1118 337 l-594 0 l0 232 l557 0 l0 304 l-557 0 l0 233 l594 0 l0 337 l-1018 0 l0 -1443 l1018 0 l0 337 ZM399 1807 q22 8 54 13 q32 5 57 5 q51 0 78 -21 q28 -20 28 -57 q-1 -34 -28 -65 q-28 -31 -74 -49 l111 -133 q96 43 155 115 q59 72 61 157 q-1 109 -74 170 q-73 60 -203 61 q-49 0 -93 -8 q-44 -7 -72 -21 l0 -167 Z" /><glyph glyph-name="" unicode="&#x11a;" d="M1118 337 l-594 0 l0 232 l557 0 l0 304 l-557 0 l0 233 l594 0 l0 337 l-1018 0 l0 -1443 l1018 0 l0 337 ZM451 1536 l314 0 l255 336 l-276 0 l-132 -192 l-8 0 l-132 192 l-276 0 l255 -336 Z" /><glyph glyph-name="" unicode="&#x112;" d="M1118 337 l-594 0 l0 232 l557 0 l0 304 l-557 0 l0 233 l594 0 l0 337 l-1018 0 l0 -1443 l1018 0 l0 337 ZM982 1786 l-748 0 l0 -180 l748 0 l0 180 Z" /><glyph glyph-name="" unicode="&#x1e14;" d="M1118 337 l-594 0 l0 232 l557 0 l0 304 l-557 0 l0 233 l594 0 l0 337 l-1018 0 l0 -1443 l1018 0 l0 337 ZM234 1606 l748 0 l0 180 l-748 0 l0 -180 ZM764 1925 l-202 281 l-322 0 l238 -281 l286 0 Z" /><glyph glyph-name="" unicode="&#x1e16;" d="M1118 337 l-594 0 l0 232 l557 0 l0 304 l-557 0 l0 233 l594 0 l0 337 l-1018 0 l0 -1443 l1018 0 l0 337 ZM982 1606 l0 180 l-748 0 l0 -180 l748 0 ZM452 1925 l286 0 l238 281 l-322 0 l-202 -281 Z" /><glyph glyph-name="" unicode="&#x1ebc;" d="M1118 337 l-594 0 l0 232 l557 0 l0 304 l-557 0 l0 233 l594 0 l0 337 l-1018 0 l0 -1443 l1018 0 l0 337 ZM761 1546 q104 1 176 79 q72 78 75 219 l-201 0 q-2 -47 -18 -76 q-17 -29 -51 -30 q-48 7 -105 60 q-57 52 -163 59 q-104 -1 -176 -76 q-72 -76 -75 -217 l201 0 q2 41 18 70 q17 30 51 31 q48 -7 105 -59 q57 -53 163 -60 l0 0 Z" /><glyph glyph-name="" unicode="&#x1e18;" d="M1118 337 l-594 0 l0 232 l557 0 l0 304 l-557 0 l0 233 l594 0 l0 337 l-1018 0 l0 -1443 l1018 0 l0 337 ZM451 -154 l-255 -336 l276 0 l132 192 l8 0 l132 -192 l276 0 l-255 336 l-314 0 Z" /><glyph glyph-name="" unicode="&#x114;" d="M1118 337 l-594 0 l0 232 l557 0 l0 304 l-557 0 l0 233 l594 0 l0 337 l-1018 0 l0 -1443 l1018 0 l0 337 ZM213 1870 q5 -139 105 -234 q101 -96 290 -100 q190 4 290 100 q100 95 105 234 l-236 0 q-3 -66 -43 -106 q-41 -41 -116 -42 q-75 1 -115 42 q-41 40 -44 106 l-236 0 Z" /><glyph glyph-name="" unicode="&#x1e1a;" d="M1118 337 l-594 0 l0 232 l557 0 l0 304 l-557 0 l0 233 l594 0 l0 337 l-1018 0 l0 -1443 l1018 0 l0 337 ZM761 -456 q104 1 176 79 q72 78 75 219 l-201 0 q-2 -47 -18 -76 q-17 -29 -51 -30 q-48 7 -105 60 q-57 52 -163 59 q-104 -1 -176 -76 q-72 -76 -75 -217 l201 0 q2 41 18 70 q17 30 51 31 q48 -7 105 -59 q57 -53 163 -60 l0 0 Z" /><glyph glyph-name="" unicode="&#x116;" d="M1118 337 l-594 0 l0 232 l557 0 l0 304 l-557 0 l0 233 l594 0 l0 337 l-1018 0 l0 -1443 l1018 0 l0 337 ZM608 1536 q77 2 126 52 q49 50 51 125 q-2 75 -51 124 q-49 50 -126 52 q-77 -2 -126 -52 q-49 -49 -51 -124 q2 -75 51 -125 q49 -50 126 -52 l0 0 Z" /><glyph glyph-name="" unicode="&#x228;" d="M1118 1106 l0 337 l-1018 0 l0 -1443 l435 0 l-54 -98 l0 -127 l56 0 q55 0 78 -10 q23 -10 22 -36 q0 -19 -22 -28 q-23 -9 -72 -9 q-27 0 -54 3 q-26 3 -45 9 l0 -141 q20 -7 56 -11 q35 -4 77 -4 q131 0 197 49 q66 49 66 146 q-1 77 -45 122 q-44 45 -117 46 l46 89 l394 0 l0 337 l-594 0 l0 232 l557 0 l0 304 l-557 0 l0 233 l594 0 Z" /><glyph glyph-name="" unicode="&#x1e1c;" d="M767 1870 q-3 -66 -43 -106 q-41 -41 -116 -42 q-75 1 -115 42 q-41 40 -44 106 l-236 0 q5 -139 105 -234 q101 -96 290 -100 q190 4 290 100 q100 95 105 234 l-236 0 ZM1118 1106 l0 337 l-1018 0 l0 -1443 l435 0 l-54 -98 l0 -127 l56 0 q55 0 78 -10 q23 -10 22 -36 q0 -19 -22 -28 q-23 -9 -72 -9 q-27 0 -54 3 q-26 3 -45 9 l0 -141 q20 -7 56 -11 q35 -4 77 -4 q131 0 197 49 q66 49 66 146 q-1 77 -45 122 q-44 45 -117 46 l46 89 l394 0 l0 337 l-594 0 l0 232 l557 0 l0 304 l-557 0 l0 233 l594 0 Z" /><glyph glyph-name="" unicode="&#x118;" d="M892 -494 q56 0 99 7 q44 6 73 19 l0 193 q-7 -4 -28 -6 q-20 -3 -44 -3 q-60 0 -92 24 q-32 24 -32 70 q3 61 61 114 q58 53 139 68 l50 8 l0 337 l-594 0 l0 232 l557 0 l0 304 l-557 0 l0 233 l594 0 l0 337 l-1018 0 l0 -1443 l656 0 l0 -4 q-76 -36 -122 -104 q-46 -69 -47 -147 q2 -108 85 -173 q82 -64 220 -66 l0 0 Z" /><glyph glyph-name="" unicode="f" d="M524 0 l0 511 l534 0 l0 318 l-534 0 l0 277 l590 0 l0 337 l-1014 0 l0 -1443 l424 0 Z" /><glyph glyph-name="" unicode="&#x1e1e;" d="M524 0 l0 511 l534 0 l0 318 l-534 0 l0 277 l590 0 l0 337 l-1014 0 l0 -1443 l424 0 ZM582 1536 q77 2 126 52 q49 50 51 125 q-2 75 -51 124 q-49 50 -126 52 q-77 -2 -126 -52 q-49 -49 -51 -124 q2 -75 51 -125 q49 -50 126 -52 l0 0 Z" /><glyph glyph-name="" unicode="g" d="M1462 614 l0 190 l-628 0 l0 -282 l220 0 l-2 -20 q-10 -88 -77 -140 q-66 -52 -171 -53 q-141 2 -223 111 q-82 110 -84 309 q1 194 76 299 q74 105 210 106 q93 -1 158 -48 q65 -46 87 -127 l417 0 q-29 226 -208 366 q-180 139 -456 143 q-337 -2 -525 -195 q-188 -193 -191 -550 q3 -361 193 -554 q190 -192 536 -194 q317 3 491 171 q175 169 177 468 l0 0 Z" /><glyph glyph-name="" unicode="&#x1f4;" d="M1462 614 l0 190 l-628 0 l0 -282 l220 0 l-2 -20 q-10 -88 -77 -140 q-66 -52 -171 -53 q-141 2 -223 111 q-82 110 -84 309 q1 194 76 299 q74 105 210 106 q93 -1 158 -48 q65 -46 87 -127 l417 0 q-29 226 -208 366 q-180 139 -456 143 q-337 -2 -525 -195 q-188 -193 -191 -550 q3 -361 193 -554 q190 -192 536 -194 q317 3 491 171 q175 169 177 468 l0 0 ZM896 1555 l274 321 l-348 0 l-232 -321 l306 0 Z" /><glyph glyph-name="" unicode="&#x1e6;" d="M1462 614 l0 190 l-628 0 l0 -282 l220 0 l-2 -20 q-10 -88 -77 -140 q-66 -52 -171 -53 q-141 2 -223 111 q-82 110 -84 309 q1 194 76 299 q74 105 210 106 q93 -1 158 -48 q65 -46 87 -127 l417 0 q-29 226 -208 366 q-180 139 -456 143 q-337 -2 -525 -195 q-188 -193 -191 -550 q3 -361 193 -554 q190 -192 536 -194 q317 3 491 171 q175 169 177 468 l0 0 ZM599 1536 l314 0 l255 336 l-276 0 l-132 -192 l-8 0 l-132 192 l-276 0 l255 -336 Z" /><glyph glyph-name="" unicode="&#x11c;" d="M1462 614 l0 190 l-628 0 l0 -282 l220 0 l-2 -20 q-10 -88 -77 -140 q-66 -52 -171 -53 q-141 2 -223 111 q-82 110 -84 309 q1 194 76 299 q74 105 210 106 q93 -1 158 -48 q65 -46 87 -127 l417 0 q-29 226 -208 366 q-180 139 -456 143 q-337 -2 -525 -195 q-188 -193 -191 -550 q3 -361 193 -554 q190 -192 536 -194 q317 3 491 171 q175 169 177 468 l0 0 ZM599 1872 l-255 -336 l276 0 l132 192 l8 0 l132 -192 l276 0 l-255 336 l-314 0 Z" /><glyph glyph-name="" unicode="&#x11e;" d="M1462 614 l0 190 l-628 0 l0 -282 l220 0 l-2 -20 q-10 -88 -77 -140 q-66 -52 -171 -53 q-141 2 -223 111 q-82 110 -84 309 q1 194 76 299 q74 105 210 106 q93 -1 158 -48 q65 -46 87 -127 l417 0 q-29 226 -208 366 q-180 139 -456 143 q-337 -2 -525 -195 q-188 -193 -191 -550 q3 -361 193 -554 q190 -192 536 -194 q317 3 491 171 q175 169 177 468 l0 0 ZM361 1870 q5 -139 105 -234 q101 -96 290 -100 q190 4 290 100 q100 95 105 234 l-236 0 q-3 -66 -43 -106 q-41 -41 -116 -42 q-75 1 -115 42 q-41 40 -44 106 l-236 0 Z" /><glyph glyph-name="" unicode="&#x1e20;" d="M1462 614 l0 190 l-628 0 l0 -282 l220 0 l-2 -20 q-10 -88 -77 -140 q-66 -52 -171 -53 q-141 2 -223 111 q-82 110 -84 309 q1 194 76 299 q74 105 210 106 q93 -1 158 -48 q65 -46 87 -127 l417 0 q-29 226 -208 366 q-180 139 -456 143 q-337 -2 -525 -195 q-188 -193 -191 -550 q3 -361 193 -554 q190 -192 536 -194 q317 3 491 171 q175 169 177 468 l0 0 ZM1130 1786 l-748 0 l0 -180 l748 0 l0 180 Z" /><glyph glyph-name="" unicode="&#x120;" d="M1462 614 l0 190 l-628 0 l0 -282 l220 0 l-2 -20 q-10 -88 -77 -140 q-66 -52 -171 -53 q-141 2 -223 111 q-82 110 -84 309 q1 194 76 299 q74 105 210 106 q93 -1 158 -48 q65 -46 87 -127 l417 0 q-29 226 -208 366 q-180 139 -456 143 q-337 -2 -525 -195 q-188 -193 -191 -550 q3 -361 193 -554 q190 -192 536 -194 q317 3 491 171 q175 169 177 468 l0 0 ZM756 1536 q77 2 126 52 q49 50 51 125 q-2 75 -51 124 q-49 50 -126 52 q-77 -2 -126 -52 q-49 -49 -51 -124 q2 -75 51 -125 q49 -50 126 -52 l0 0 Z" /><glyph glyph-name="" unicode="&#x122;" d="M1462 614 l0 190 l-628 0 l0 -282 l220 0 l-2 -20 q-10 -88 -77 -140 q-66 -52 -171 -53 q-141 2 -223 111 q-82 110 -84 309 q1 194 76 299 q74 105 210 106 q93 -1 158 -48 q65 -46 87 -127 l417 0 q-29 226 -208 366 q-180 139 -456 143 q-337 -2 -525 -195 q-188 -193 -191 -550 q3 -361 193 -554 q190 -192 536 -194 q317 3 491 171 q175 169 177 468 l0 0 ZM727 -457 l203 321 l-359 0 l-152 -321 l308 0 Z" /><glyph glyph-name="" unicode="h" d="M1456 0 l0 1443 l-424 0 l0 -548 l-508 0 l0 548 l-424 0 l0 -1443 l424 0 l0 558 l508 0 l0 -558 l424 0 Z" /><glyph glyph-name="" unicode="&#x1e26;" d="M1456 0 l0 1443 l-424 0 l0 -548 l-508 0 l0 548 l-424 0 l0 -1443 l424 0 l0 558 l508 0 l0 -558 l424 0 ZM556 1536 q70 2 114 44 q43 43 44 106 q-1 64 -44 106 q-44 42 -114 44 q-70 -2 -113 -44 q-44 -42 -45 -106 q1 -63 45 -106 q43 -42 113 -44 l0 0 ZM1000 1536 q70 2 114 44 q43 43 44 106 q-1 64 -44 106 q-44 42 -114 44 q-70 -2 -113 -44 q-44 -42 -45 -106 q1 -63 45 -106 q43 -42 113 -44 l0 0 Z" /><glyph glyph-name="" unicode="&#x21e;" d="M1456 0 l0 1443 l-424 0 l0 -548 l-508 0 l0 548 l-424 0 l0 -1443 l424 0 l0 558 l508 0 l0 -558 l424 0 ZM621 1536 l314 0 l255 336 l-276 0 l-132 -192 l-8 0 l-132 192 l-276 0 l255 -336 Z" /><glyph glyph-name="" unicode="&#x124;" d="M1456 0 l0 1443 l-424 0 l0 -548 l-508 0 l0 548 l-424 0 l0 -1443 l424 0 l0 558 l508 0 l0 -558 l424 0 ZM621 1872 l-255 -336 l276 0 l132 192 l8 0 l132 -192 l276 0 l-255 336 l-314 0 Z" /><glyph glyph-name="" unicode="&#x1e24;" d="M1456 0 l0 1443 l-424 0 l0 -548 l-508 0 l0 548 l-424 0 l0 -1443 l424 0 l0 558 l508 0 l0 -558 l424 0 ZM778 -524 q77 2 126 52 q49 50 51 125 q-2 75 -51 124 q-49 50 -126 52 q-77 -2 -126 -52 q-49 -49 -51 -124 q2 -75 51 -125 q49 -50 126 -52 l0 0 Z" /><glyph glyph-name="" unicode="&#x1e22;" d="M1456 0 l0 1443 l-424 0 l0 -548 l-508 0 l0 548 l-424 0 l0 -1443 l424 0 l0 558 l508 0 l0 -558 l424 0 ZM778 1536 q77 2 126 52 q49 50 51 125 q-2 75 -51 124 q-49 50 -126 52 q-77 -2 -126 -52 q-49 -49 -51 -124 q2 -75 51 -125 q49 -50 126 -52 l0 0 Z" /><glyph glyph-name="" unicode="&#x1e2a;" d="M1456 0 l0 1443 l-424 0 l0 -548 l-508 0 l0 548 l-424 0 l0 -1443 l424 0 l0 558 l508 0 l0 -558 l424 0 ZM383 -156 q5 -139 105 -234 q101 -96 290 -100 q190 4 290 100 q100 95 105 234 l-236 0 q-3 -66 -43 -106 q-41 -41 -116 -42 q-75 1 -115 42 q-41 40 -44 106 l-236 0 Z" /><glyph glyph-name="" unicode="&#x1e28;" d="M1032 1443 l0 -548 l-508 0 l0 548 l-424 0 l0 -1443 l235 0 l-54 -98 l0 -127 l56 0 q55 0 78 -10 q23 -10 22 -36 q0 -19 -22 -28 q-23 -9 -72 -9 q-27 0 -54 3 q-26 3 -45 9 l0 -141 q20 -7 56 -11 q35 -4 77 -4 q131 0 197 49 q66 49 66 146 q-1 77 -45 122 q-44 45 -117 46 l46 89 l0 16 l0 542 l508 0 l0 -558 l424 0 l0 1443 l-424 0 Z" /><glyph glyph-name="" unicode="&#x126;" d="M1058 895 l-508 0 l0 133 l508 0 l0 -133 ZM1558 1307 l-76 0 l0 136 l-424 0 l0 -136 l-508 0 l0 136 l-424 0 l0 -136 l-75 0 l0 -279 l75 0 l0 -1028 l424 0 l0 558 l508 0 l0 -558 l424 0 l0 1028 l76 0 l0 279 Z" /><glyph glyph-name="" unicode="i" d="M524 0 l0 1443 l-424 0 l0 -1443 l424 0 Z" /><glyph glyph-name="" unicode="&#x130;" d="M524 0 l0 1443 l-424 0 l0 -1443 l424 0 ZM312 1536 q77 2 126 52 q49 50 51 125 q-2 75 -51 124 q-49 50 -126 52 q-77 -2 -126 -52 q-49 -49 -51 -124 q2 -75 51 -125 q49 -50 126 -52 l0 0 Z" /><glyph glyph-name="" unicode="ì" d="M524 0 l0 1443 l-424 0 l0 -1443 l424 0 ZM166 1564 l306 0 l-232 321 l-348 0 l274 -321 Z" /><glyph glyph-name="" unicode="&#x208;" d="M524 0 l0 1443 l-424 0 l0 -1443 l424 0 ZM406 1555 l306 0 l-232 321 l-348 0 l274 -321 ZM-74 1555 l306 0 l-232 321 l-348 0 l274 -321 Z" /><glyph glyph-name="" unicode="í" d="M524 0 l0 1443 l-424 0 l0 -1443 l424 0 ZM452 1555 l274 321 l-348 0 l-232 -321 l306 0 Z" /><glyph glyph-name="" unicode="î" d="M524 0 l0 1443 l-424 0 l0 -1443 l424 0 ZM155 1872 l-255 -336 l276 0 l132 192 l8 0 l132 -192 l276 0 l-255 336 l-314 0 Z" /><glyph glyph-name="" unicode="&#x1cf;" d="M524 0 l0 1443 l-424 0 l0 -1443 l424 0 ZM155 1536 l314 0 l255 336 l-276 0 l-132 -192 l-8 0 l-132 192 l-276 0 l255 -336 Z" /><glyph glyph-name="" unicode="ï" d="M524 0 l0 1443 l-424 0 l0 -1443 l424 0 ZM90 1536 q70 2 114 44 q43 43 44 106 q-1 64 -44 106 q-44 42 -114 44 q-70 -2 -113 -44 q-44 -42 -45 -106 q1 -63 45 -106 q43 -42 113 -44 l0 0 ZM534 1536 q70 2 114 44 q43 43 44 106 q-1 64 -44 106 q-44 42 -114 44 q-70 -2 -113 -44 q-44 -42 -45 -106 q1 -63 45 -106 q43 -42 113 -44 l0 0 Z" /><glyph glyph-name="" unicode="&#x1e2e;" d="M524 0 l0 1443 l-424 0 l0 -1443 l424 0 ZM156 1925 l286 0 l238 281 l-322 0 l-202 -281 ZM90 1536 q70 2 114 44 q43 43 44 106 q-1 64 -44 106 q-44 42 -114 44 q-70 -2 -113 -44 q-44 -42 -45 -106 q1 -63 45 -106 q43 -42 113 -44 l0 0 ZM534 1536 q70 2 114 44 q43 43 44 106 q-1 64 -44 106 q-44 42 -114 44 q-70 -2 -113 -44 q-44 -42 -45 -106 q1 -63 45 -106 q43 -42 113 -44 l0 0 Z" /><glyph glyph-name="" unicode="&#x12c;" d="M524 0 l0 1443 l-424 0 l0 -1443 l424 0 ZM-83 1870 q5 -139 105 -234 q101 -96 290 -100 q190 4 290 100 q100 95 105 234 l-236 0 q-3 -66 -43 -106 q-41 -41 -116 -42 q-75 1 -115 42 q-41 40 -44 106 l-236 0 Z" /><glyph glyph-name="" unicode="&#x1eca;" d="M524 0 l0 1443 l-424 0 l0 -1443 l424 0 ZM312 -524 q77 2 126 52 q49 50 51 125 q-2 75 -51 124 q-49 50 -126 52 q-77 -2 -126 -52 q-49 -49 -51 -124 q2 -75 51 -125 q49 -50 126 -52 l0 0 Z" /><glyph glyph-name="" unicode="&#x20a;" d="M524 0 l0 1443 l-424 0 l0 -1443 l424 0 ZM-83 1536 l236 0 q3 66 44 106 q40 41 115 42 q75 -1 116 -42 q40 -40 43 -106 l236 0 q-5 139 -105 235 q-100 95 -290 99 q-189 -4 -290 -99 q-100 -96 -105 -235 l0 0 Z" /><glyph glyph-name="" unicode="&#x12a;" d="M524 0 l0 1443 l-424 0 l0 -1443 l424 0 ZM686 1786 l-748 0 l0 -180 l748 0 l0 180 Z" /><glyph glyph-name="" unicode="&#x1e2c;" d="M524 0 l0 1443 l-424 0 l0 -1443 l424 0 ZM465 -456 q104 1 176 79 q72 78 75 219 l-201 0 q-2 -47 -18 -76 q-17 -29 -51 -30 q-48 7 -105 60 q-57 52 -163 59 q-104 -1 -176 -76 q-72 -76 -75 -217 l201 0 q2 41 18 70 q17 30 51 31 q48 -7 105 -59 q57 -53 163 -60 l0 0 Z" /><glyph glyph-name="" unicode="&#x1ec8;" d="M524 0 l0 1443 l-424 0 l0 -1443 l424 0 ZM103 1807 q22 8 54 13 q32 5 57 5 q51 0 78 -21 q28 -20 28 -57 q-1 -34 -28 -65 q-28 -31 -74 -49 l111 -133 q96 43 155 115 q59 72 61 157 q-1 109 -74 170 q-73 60 -203 61 q-49 0 -93 -8 q-44 -7 -72 -21 l0 -167 Z" /><glyph glyph-name="" unicode="&#x128;" d="M524 0 l0 1443 l-424 0 l0 -1443 l424 0 ZM465 1546 q104 1 176 79 q72 78 75 219 l-201 0 q-2 -47 -18 -76 q-17 -29 -51 -30 q-48 7 -105 60 q-57 52 -163 59 q-104 -1 -176 -76 q-72 -76 -75 -217 l201 0 q2 41 18 70 q17 30 51 31 q48 -7 105 -59 q57 -53 163 -60 l0 0 Z" /><glyph glyph-name="" unicode="&#x12e;" d="M100 -58 q-41 -40 -64 -90 q-22 -51 -22 -106 q2 -108 83 -173 q81 -65 217 -67 q77 0 118 8 q41 7 64 18 l0 193 q-15 -4 -35 -6 q-20 -3 -37 -3 q-68 0 -103 27 q-35 27 -35 75 q4 68 66 114 q63 46 132 60 l40 8 l0 1443 l-424 0 l0 -1501 Z" /><glyph glyph-name="" unicode="j" d="M20 511 q3 -253 153 -393 q150 -141 415 -143 q265 1 412 136 q147 135 149 390 l0 942 l-424 0 l0 -939 q0 -86 -37 -130 q-36 -44 -106 -44 q-73 1 -114 48 q-41 48 -42 133 l-406 0 Z" /><glyph glyph-name="" unicode="&#x134;" d="M20 511 q3 -253 153 -393 q150 -141 415 -143 q265 1 412 136 q147 135 149 390 l0 942 l-424 0 l0 -939 q0 -86 -37 -130 q-36 -44 -106 -44 q-73 1 -114 48 q-41 48 -42 133 l-406 0 ZM789 1872 l-255 -336 l276 0 l132 192 l8 0 l132 -192 l276 0 l-255 336 l-314 0 Z" /><glyph glyph-name="" unicode="k" d="M524 0 l0 378 l113 152 l315 -530 l493 0 l-497 802 l475 641 l-445 0 l-446 -612 l-8 0 l0 612 l-424 0 l0 -1443 l424 0 Z" /><glyph glyph-name="" unicode="&#x1e30;" d="M524 0 l0 378 l113 152 l315 -530 l493 0 l-497 802 l475 641 l-445 0 l-446 -612 l-8 0 l0 612 l-424 0 l0 -1443 l424 0 ZM863 1555 l274 321 l-348 0 l-232 -321 l306 0 Z" /><glyph glyph-name="" unicode="&#x1e8;" d="M524 0 l0 378 l113 152 l315 -530 l493 0 l-497 802 l475 641 l-445 0 l-446 -612 l-8 0 l0 612 l-424 0 l0 -1443 l424 0 ZM566 1536 l314 0 l255 336 l-276 0 l-132 -192 l-8 0 l-132 192 l-276 0 l255 -336 Z" /><glyph glyph-name="" unicode="&#x1e32;" d="M524 0 l0 378 l113 152 l315 -530 l493 0 l-497 802 l475 641 l-445 0 l-446 -612 l-8 0 l0 612 l-424 0 l0 -1443 l424 0 ZM723 -524 q77 2 126 52 q49 50 51 125 q-2 75 -51 124 q-49 50 -126 52 q-77 -2 -126 -52 q-49 -49 -51 -124 q2 -75 51 -125 q49 -50 126 -52 l0 0 Z" /><glyph glyph-name="" unicode="&#x1e34;" d="M524 0 l0 378 l113 152 l315 -530 l493 0 l-497 802 l475 641 l-445 0 l-446 -612 l-8 0 l0 612 l-424 0 l0 -1443 l424 0 ZM1097 -240 l-748 0 l0 -180 l748 0 l0 180 Z" /><glyph glyph-name="" unicode="&#x136;" d="M524 0 l0 378 l113 152 l315 -530 l493 0 l-497 802 l475 641 l-445 0 l-446 -612 l-8 0 l0 612 l-424 0 l0 -1443 l424 0 ZM694 -457 l203 321 l-359 0 l-152 -321 l308 0 Z" /><glyph glyph-name="" unicode="l" d="M1090 337 l-566 0 l0 1106 l-424 0 l0 -1443 l990 0 l0 337 Z" /><glyph glyph-name="" unicode="&#x139;" d="M1090 337 l-566 0 l0 1106 l-424 0 l0 -1443 l990 0 l0 337 ZM451 1555 l274 321 l-348 0 l-232 -321 l306 0 Z" /><glyph glyph-name="" unicode="&#x1e3c;" d="M1090 337 l-566 0 l0 1106 l-424 0 l0 -1443 l990 0 l0 337 ZM418 -154 l-255 -336 l276 0 l132 192 l8 0 l132 -192 l276 0 l-255 336 l-314 0 Z" /><glyph glyph-name="" unicode="&#x1e36;" d="M1090 337 l-566 0 l0 1106 l-424 0 l0 -1443 l990 0 l0 337 ZM575 -524 q77 2 126 52 q49 50 51 125 q-2 75 -51 124 q-49 50 -126 52 q-77 -2 -126 -52 q-49 -49 -51 -124 q2 -75 51 -125 q49 -50 126 -52 l0 0 Z" /><glyph glyph-name="" unicode="&#x1e38;" d="M1090 337 l-566 0 l0 1106 l-424 0 l0 -1443 l990 0 l0 337 ZM575 -524 q77 2 126 52 q49 50 51 125 q-2 75 -51 124 q-49 50 -126 52 q-77 -2 -126 -52 q-49 -49 -51 -124 q2 -75 51 -125 q49 -50 126 -52 l0 0 ZM685 1786 l-748 0 l0 -180 l748 0 l0 180 Z" /><glyph glyph-name="" unicode="&#x1e3a;" d="M1090 337 l-566 0 l0 1106 l-424 0 l0 -1443 l990 0 l0 337 ZM949 -240 l-748 0 l0 -180 l748 0 l0 180 Z" /><glyph glyph-name="" unicode="&#x13b;" d="M1090 337 l-566 0 l0 1106 l-424 0 l0 -1443 l990 0 l0 337 ZM546 -457 l203 321 l-359 0 l-152 -321 l308 0 Z" /><glyph glyph-name="" unicode="&#x13d;" d="M760 1443 l0 -518 l272 0 l50 518 l-322 0 ZM1090 337 l-566 0 l0 1106 l-424 0 l0 -1443 l990 0 l0 337 Z" /><glyph glyph-name="" unicode="&#x141;" d="M550 337 l0 467 l250 136 l0 256 l-250 -136 l0 383 l-424 0 l0 -614 l-72 -39 l0 -256 l72 39 l0 -573 l990 0 l0 337 l-566 0 Z" /><glyph glyph-name="" unicode="m" d="M1733 0 l0 1443 l-490 0 l-322 -842 l-8 0 l-323 842 l-490 0 l0 -1443 l370 0 l0 836 l8 0 l325 -819 l227 0 l325 819 l8 0 l0 -836 l370 0 Z" /><glyph glyph-name="" unicode="&#x1e3e;" d="M1733 0 l0 1443 l-490 0 l-322 -842 l-8 0 l-323 842 l-490 0 l0 -1443 l370 0 l0 836 l8 0 l325 -819 l227 0 l325 819 l8 0 l0 -836 l370 0 ZM1057 1555 l274 321 l-348 0 l-232 -321 l306 0 Z" /><glyph glyph-name="" unicode="&#x1e40;" d="M1733 0 l0 1443 l-490 0 l-322 -842 l-8 0 l-323 842 l-490 0 l0 -1443 l370 0 l0 836 l8 0 l325 -819 l227 0 l325 819 l8 0 l0 -836 l370 0 ZM917 1536 q77 2 126 52 q49 50 51 125 q-2 75 -51 124 q-49 50 -126 52 q-77 -2 -126 -52 q-49 -49 -51 -124 q2 -75 51 -125 q49 -50 126 -52 l0 0 Z" /><glyph glyph-name="" unicode="&#x1e42;" d="M1733 0 l0 1443 l-490 0 l-322 -842 l-8 0 l-323 842 l-490 0 l0 -1443 l370 0 l0 836 l8 0 l325 -819 l227 0 l325 819 l8 0 l0 -836 l370 0 ZM917 -524 q77 2 126 52 q49 50 51 125 q-2 75 -51 124 q-49 50 -126 52 q-77 -2 -126 -52 q-49 -49 -51 -124 q2 -75 51 -125 q49 -50 126 -52 l0 0 Z" /><glyph glyph-name="" unicode="n" d="M500 0 l0 760 l8 0 l561 -760 l325 0 l0 1443 l-400 0 l0 -748 l-8 0 l-557 748 l-329 0 l0 -1443 l400 0 Z" /><glyph glyph-name="" unicode="&#x1f8;" d="M500 0 l0 760 l8 0 l561 -760 l325 0 l0 1443 l-400 0 l0 -748 l-8 0 l-557 748 l-329 0 l0 -1443 l400 0 ZM601 1564 l306 0 l-232 321 l-348 0 l274 -321 Z" /><glyph glyph-name="" unicode="&#x143;" d="M500 0 l0 760 l8 0 l561 -760 l325 0 l0 1443 l-400 0 l0 -748 l-8 0 l-557 748 l-329 0 l0 -1443 l400 0 ZM887 1555 l274 321 l-348 0 l-232 -321 l306 0 Z" /><glyph glyph-name="" unicode="ñ" d="M500 0 l0 760 l8 0 l561 -760 l325 0 l0 1443 l-400 0 l0 -748 l-8 0 l-557 748 l-329 0 l0 -1443 l400 0 ZM900 1546 q104 1 176 79 q72 78 75 219 l-201 0 q-2 -47 -18 -76 q-17 -29 -51 -30 q-48 7 -105 60 q-57 52 -163 59 q-104 -1 -176 -76 q-72 -76 -75 -217 l201 0 q2 41 18 70 q17 30 51 31 q48 -7 105 -59 q57 -53 163 -60 l0 0 Z" /><glyph glyph-name="" unicode="&#x1e46;" d="M500 0 l0 760 l8 0 l561 -760 l325 0 l0 1443 l-400 0 l0 -748 l-8 0 l-557 748 l-329 0 l0 -1443 l400 0 ZM747 -524 q77 2 126 52 q49 50 51 125 q-2 75 -51 124 q-49 50 -126 52 q-77 -2 -126 -52 q-49 -49 -51 -124 q2 -75 51 -125 q49 -50 126 -52 l0 0 Z" /><glyph glyph-name="" unicode="&#x1e44;" d="M500 0 l0 760 l8 0 l561 -760 l325 0 l0 1443 l-400 0 l0 -748 l-8 0 l-557 748 l-329 0 l0 -1443 l400 0 ZM747 1536 q77 2 126 52 q49 50 51 125 q-2 75 -51 124 q-49 50 -126 52 q-77 -2 -126 -52 q-49 -49 -51 -124 q2 -75 51 -125 q49 -50 126 -52 l0 0 Z" /><glyph glyph-name="" unicode="&#x147;" d="M500 0 l0 760 l8 0 l561 -760 l325 0 l0 1443 l-400 0 l0 -748 l-8 0 l-557 748 l-329 0 l0 -1443 l400 0 ZM590 1536 l314 0 l255 336 l-276 0 l-132 -192 l-8 0 l-132 192 l-276 0 l255 -336 Z" /><glyph glyph-name="" unicode="&#x1e4a;" d="M500 0 l0 760 l8 0 l561 -760 l325 0 l0 1443 l-400 0 l0 -748 l-8 0 l-557 748 l-329 0 l0 -1443 l400 0 ZM590 -154 l-255 -336 l276 0 l132 192 l8 0 l132 -192 l276 0 l-255 336 l-314 0 Z" /><glyph glyph-name="" unicode="&#x1e48;" d="M500 0 l0 760 l8 0 l561 -760 l325 0 l0 1443 l-400 0 l0 -748 l-8 0 l-557 748 l-329 0 l0 -1443 l400 0 ZM1121 -240 l-748 0 l0 -180 l748 0 l0 180 Z" /><glyph glyph-name="" unicode="&#x145;" d="M500 0 l0 760 l8 0 l561 -760 l325 0 l0 1443 l-400 0 l0 -748 l-8 0 l-557 748 l-329 0 l0 -1443 l400 0 ZM718 -457 l203 321 l-359 0 l-152 -321 l308 0 Z" /><glyph glyph-name="" unicode="o" d="M792 1468 q-338 -3 -531 -201 q-192 -197 -196 -546 q4 -349 196 -546 q192 -197 531 -200 q338 3 531 200 q192 197 196 546 q-4 349 -196 546 q-193 198 -531 201 l0 0 ZM792 1130 q135 -2 214 -111 q79 -108 81 -298 q-2 -189 -81 -297 q-79 -109 -214 -111 q-135 2 -214 111 q-79 108 -81 297 q2 190 81 298 q79 109 214 111 l0 0 Z" /><glyph glyph-name="" unicode="ö" d="M792 1468 q-338 -3 -531 -201 q-192 -197 -196 -546 q4 -349 196 -546 q192 -197 531 -200 q338 3 531 200 q192 197 196 546 q-4 349 -196 546 q-193 198 -531 201 l0 0 ZM792 1130 q135 -2 214 -111 q79 -108 81 -298 q-2 -189 -81 -297 q-79 -109 -214 -111 q-135 2 -214 111 q-79 108 -81 297 q2 190 81 298 q79 109 214 111 l0 0 ZM570 1536 q70 2 114 44 q43 43 44 106 q-1 64 -44 106 q-44 42 -114 44 q-70 -2 -113 -44 q-44 -42 -45 -106 q1 -63 45 -106 q43 -42 113 -44 l0 0 ZM1014 1536 q70 2 114 44 q43 43 44 106 q-1 64 -44 106 q-44 42 -114 44 q-70 -2 -113 -44 q-44 -42 -45 -106 q1 -63 45 -106 q43 -42 113 -44 l0 0 Z" /><glyph glyph-name="" unicode="ø" d="M1033 974 q26 -50 40 -113 q14 -64 14 -140 q-2 -189 -81 -297 q-79 -109 -214 -111 q-66 1 -120 28 l361 633 ZM579 422 q-39 53 -60 129 q-22 75 -22 170 q2 190 81 298 q79 109 214 111 q45 0 85 -13 q39 -13 72 -39 l-370 -656 ZM1317 1472 l-118 51 l-69 -122 q-73 33 -158 50 q-85 17 -180 17 q-338 -3 -531 -201 q-192 -197 -196 -546 q1 -224 84 -388 q83 -164 236 -256 l-59 -105 l103 -58 l64 112 q132 -51 299 -51 q338 3 531 200 q192 197 196 546 q-1 208 -73 365 q-71 156 -205 252 l76 134 Z" /><glyph glyph-name="" unicode="õ" d="M792 1468 q-338 -3 -531 -201 q-192 -197 -196 -546 q4 -349 196 -546 q192 -197 531 -200 q338 3 531 200 q192 197 196 546 q-4 349 -196 546 q-193 198 -531 201 l0 0 ZM792 1130 q135 -2 214 -111 q79 -108 81 -298 q-2 -189 -81 -297 q-79 -109 -214 -111 q-135 2 -214 111 q-79 108 -81 297 q2 190 81 298 q79 109 214 111 l0 0 ZM945 1546 q104 1 176 79 q72 78 75 219 l-201 0 q-2 -47 -18 -76 q-17 -29 -51 -30 q-48 7 -105 60 q-57 52 -163 59 q-104 -1 -176 -76 q-72 -76 -75 -217 l201 0 q2 41 18 70 q17 30 51 31 q48 -7 105 -59 q57 -53 163 -60 l0 0 Z" /><glyph glyph-name="" unicode="ó" d="M792 1468 q-338 -3 -531 -201 q-192 -197 -196 -546 q4 -349 196 -546 q192 -197 531 -200 q338 3 531 200 q192 197 196 546 q-4 349 -196 546 q-193 198 -531 201 l0 0 ZM792 1130 q135 -2 214 -111 q79 -108 81 -298 q-2 -189 -81 -297 q-79 -109 -214 -111 q-135 2 -214 111 q-79 108 -81 297 q2 190 81 298 q79 109 214 111 l0 0 ZM932 1555 l274 321 l-348 0 l-232 -321 l306 0 Z" /><glyph glyph-name="" unicode="ô" d="M792 1468 q-338 -3 -531 -201 q-192 -197 -196 -546 q4 -349 196 -546 q192 -197 531 -200 q338 3 531 200 q192 197 196 546 q-4 349 -196 546 q-193 198 -531 201 l0 0 ZM792 1130 q135 -2 214 -111 q79 -108 81 -298 q-2 -189 -81 -297 q-79 -109 -214 -111 q-135 2 -214 111 q-79 108 -81 297 q2 190 81 298 q79 109 214 111 l0 0 ZM635 1872 l-255 -336 l276 0 l132 192 l8 0 l132 -192 l276 0 l-255 336 l-314 0 Z" /><glyph glyph-name="" unicode="ò" d="M792 1468 q-338 -3 -531 -201 q-192 -197 -196 -546 q4 -349 196 -546 q192 -197 531 -200 q338 3 531 200 q192 197 196 546 q-4 349 -196 546 q-193 198 -531 201 l0 0 ZM792 1130 q135 -2 214 -111 q79 -108 81 -298 q-2 -189 -81 -297 q-79 -109 -214 -111 q-135 2 -214 111 q-79 108 -81 297 q2 190 81 298 q79 109 214 111 l0 0 ZM646 1564 l306 0 l-232 321 l-348 0 l274 -321 Z" /><glyph glyph-name="" unicode="&#x1ed4;" d="M792 1468 q-338 -3 -531 -201 q-192 -197 -196 -546 q4 -349 196 -546 q192 -197 531 -200 q338 3 531 200 q192 197 196 546 q-4 349 -196 546 q-193 198 -531 201 l0 0 ZM792 1130 q135 -2 214 -111 q79 -108 81 -298 q-2 -189 -81 -297 q-79 -109 -214 -111 q-135 2 -214 111 q-79 108 -81 297 q2 190 81 298 q79 109 214 111 l0 0 ZM637 1842 l-255 -306 l280 0 l126 166 l8 0 l126 -166 l280 0 l-255 306 l-310 0 ZM903 2016 q22 8 54 13 q32 5 57 5 q51 0 78 -21 q28 -20 28 -57 q1 -28 -14 -54 q-15 -26 -56 -44 l107 -135 q91 40 139 110 q49 69 49 148 q-1 109 -74 170 q-73 60 -203 61 q-49 0 -93 -8 q-44 -7 -72 -21 l0 -167 Z" /><glyph glyph-name="" unicode="&#x1ed2;" d="M792 1468 q-338 -3 -531 -201 q-192 -197 -196 -546 q4 -349 196 -546 q192 -197 531 -200 q338 3 531 200 q192 197 196 546 q-4 349 -196 546 q-193 198 -531 201 l0 0 ZM792 1130 q135 -2 214 -111 q79 -108 81 -298 q-2 -189 -81 -297 q-79 -109 -214 -111 q-135 2 -214 111 q-79 108 -81 297 q2 190 81 298 q79 109 214 111 l0 0 ZM637 1842 l-255 -306 l280 0 l126 166 l8 0 l126 -166 l280 0 l-255 306 l-310 0 ZM1168 1925 l-202 281 l-322 0 l238 -281 l286 0 Z" /><glyph glyph-name="" unicode="&#x1ecc;" d="M792 1468 q-338 -3 -531 -201 q-192 -197 -196 -546 q4 -349 196 -546 q192 -197 531 -200 q338 3 531 200 q192 197 196 546 q-4 349 -196 546 q-193 198 -531 201 l0 0 ZM792 1130 q135 -2 214 -111 q79 -108 81 -298 q-2 -189 -81 -297 q-79 -109 -214 -111 q-135 2 -214 111 q-79 108 -81 297 q2 190 81 298 q79 109 214 111 l0 0 ZM792 -524 q77 2 126 52 q49 50 51 125 q-2 75 -51 124 q-49 50 -126 52 q-77 -2 -126 -52 q-49 -49 -51 -124 q2 -75 51 -125 q49 -50 126 -52 l0 0 Z" /><glyph glyph-name="" unicode="&#x20c;" d="M792 1468 q-338 -3 -531 -201 q-192 -197 -196 -546 q4 -349 196 -546 q192 -197 531 -200 q338 3 531 200 q192 197 196 546 q-4 349 -196 546 q-193 198 -531 201 l0 0 ZM792 1130 q135 -2 214 -111 q79 -108 81 -298 q-2 -189 -81 -297 q-79 -109 -214 -111 q-135 2 -214 111 q-79 108 -81 297 q2 190 81 298 q79 109 214 111 l0 0 ZM886 1555 l306 0 l-232 321 l-348 0 l274 -321 ZM406 1555 l306 0 l-232 321 l-348 0 l274 -321 Z" /><glyph glyph-name="" unicode="&#x1e4c;" d="M792 1468 q-338 -3 -531 -201 q-192 -197 -196 -546 q4 -349 196 -546 q192 -197 531 -200 q338 3 531 200 q192 197 196 546 q-4 349 -196 546 q-193 198 -531 201 l0 0 ZM792 1130 q135 -2 214 -111 q79 -108 81 -298 q-2 -189 -81 -297 q-79 -109 -214 -111 q-135 2 -214 111 q-79 108 -81 297 q2 190 81 298 q79 109 214 111 l0 0 ZM938 1536 q105 1 176 79 q70 78 73 219 l-201 0 q-2 -47 -18 -76 q-17 -29 -51 -30 q-49 8 -107 61 q-58 52 -164 60 q-105 -1 -175 -76 q-71 -76 -74 -217 l201 0 q2 41 18 70 q17 30 51 31 q49 -8 107 -60 q58 -53 164 -61 l0 0 ZM636 1925 l286 0 l238 281 l-322 0 l-202 -281 Z" /><glyph glyph-name="" unicode="&#x1e52;" d="M792 1468 q-338 -3 -531 -201 q-192 -197 -196 -546 q4 -349 196 -546 q192 -197 531 -200 q338 3 531 200 q192 197 196 546 q-4 349 -196 546 q-193 198 -531 201 l0 0 ZM792 1130 q135 -2 214 -111 q79 -108 81 -298 q-2 -189 -81 -297 q-79 -109 -214 -111 q-135 2 -214 111 q-79 108 -81 297 q2 190 81 298 q79 109 214 111 l0 0 ZM1166 1606 l0 180 l-748 0 l0 -180 l748 0 ZM636 1925 l286 0 l238 281 l-322 0 l-202 -281 Z" /><glyph glyph-name="" unicode="&#x1ed6;" d="M792 1468 q-338 -3 -531 -201 q-192 -197 -196 -546 q4 -349 196 -546 q192 -197 531 -200 q338 3 531 200 q192 197 196 546 q-4 349 -196 546 q-193 198 -531 201 l0 0 ZM792 1130 q135 -2 214 -111 q79 -108 81 -298 q-2 -189 -81 -297 q-79 -109 -214 -111 q-135 2 -214 111 q-79 108 -81 297 q2 190 81 298 q79 109 214 111 l0 0 ZM938 1913 q105 1 176 79 q70 78 73 219 l-201 0 q-2 -47 -18 -76 q-17 -29 -51 -30 q-49 8 -107 61 q-58 52 -164 60 q-105 -1 -175 -76 q-71 -76 -74 -217 l201 0 q2 41 18 70 q17 30 51 31 q49 -8 107 -60 q58 -53 164 -61 l0 0 ZM637 1842 l-255 -306 l280 0 l126 166 l8 0 l126 -166 l280 0 l-255 306 l-310 0 Z" /><glyph glyph-name="" unicode="&#x230;" d="M792 1468 q-338 -3 -531 -201 q-192 -197 -196 -546 q4 -349 196 -546 q192 -197 531 -200 q338 3 531 200 q192 197 196 546 q-4 349 -196 546 q-193 198 -531 201 l0 0 ZM792 1130 q135 -2 214 -111 q79 -108 81 -298 q-2 -189 -81 -297 q-79 -109 -214 -111 q-135 2 -214 111 q-79 108 -81 297 q2 190 81 298 q79 109 214 111 l0 0 ZM792 1536 q70 2 114 44 q43 43 44 106 q-1 64 -44 106 q-44 42 -114 44 q-70 -2 -113 -44 q-44 -42 -45 -106 q1 -63 45 -106 q43 -42 113 -44 l0 0 ZM1166 2120 l-748 0 l0 -180 l748 0 l0 180 Z" /><glyph glyph-name="" unicode="&#x1e50;" d="M792 1468 q-338 -3 -531 -201 q-192 -197 -196 -546 q4 -349 196 -546 q192 -197 531 -200 q338 3 531 200 q192 197 196 546 q-4 349 -196 546 q-193 198 -531 201 l0 0 ZM792 1130 q135 -2 214 -111 q79 -108 81 -298 q-2 -189 -81 -297 q-79 -109 -214 -111 q-135 2 -214 111 q-79 108 -81 297 q2 190 81 298 q79 109 214 111 l0 0 ZM418 1606 l748 0 l0 180 l-748 0 l0 -180 ZM948 1925 l-202 281 l-322 0 l238 -281 l286 0 Z" /><glyph glyph-name="" unicode="&#x1d1;" d="M792 1468 q-338 -3 -531 -201 q-192 -197 -196 -546 q4 -349 196 -546 q192 -197 531 -200 q338 3 531 200 q192 197 196 546 q-4 349 -196 546 q-193 198 -531 201 l0 0 ZM792 1130 q135 -2 214 -111 q79 -108 81 -298 q-2 -189 -81 -297 q-79 -109 -214 -111 q-135 2 -214 111 q-79 108 -81 297 q2 190 81 298 q79 109 214 111 l0 0 ZM635 1536 l314 0 l255 336 l-276 0 l-132 -192 l-8 0 l-132 192 l-276 0 l255 -336 Z" /><glyph glyph-name="" unicode="&#x1fe;" d="M1231 1876 l-348 0 l-232 -321 l306 0 l274 321 ZM1033 974 q26 -50 40 -113 q14 -64 14 -140 q-2 -189 -81 -297 q-79 -109 -214 -111 q-66 1 -120 28 l361 633 ZM579 422 q-39 53 -60 129 q-22 75 -22 170 q2 190 81 298 q79 109 214 111 q45 0 85 -13 q39 -13 72 -39 l-370 -656 ZM1317 1472 l-118 51 l-69 -122 q-73 33 -158 50 q-85 17 -180 17 q-338 -3 -531 -201 q-192 -197 -196 -546 q1 -224 84 -388 q83 -164 236 -256 l-59 -105 l103 -58 l64 112 q132 -51 299 -51 q338 3 531 200 q192 197 196 546 q-1 208 -73 365 q-71 156 -205 252 l76 134 Z" /><glyph glyph-name="" unicode="&#x150;" d="M792 1468 q-338 -3 -531 -201 q-192 -197 -196 -546 q4 -349 196 -546 q192 -197 531 -200 q338 3 531 200 q192 197 196 546 q-4 349 -196 546 q-193 198 -531 201 l0 0 ZM792 1130 q135 -2 214 -111 q79 -108 81 -298 q-2 -189 -81 -297 q-79 -109 -214 -111 q-135 2 -214 111 q-79 108 -81 297 q2 190 81 298 q79 109 214 111 l0 0 ZM1178 1555 l274 321 l-348 0 l-232 -321 l306 0 ZM698 1555 l274 321 l-348 0 l-232 -321 l306 0 Z" /><glyph glyph-name="" unicode="&#x14e;" d="M792 1468 q-338 -3 -531 -201 q-192 -197 -196 -546 q4 -349 196 -546 q192 -197 531 -200 q338 3 531 200 q192 197 196 546 q-4 349 -196 546 q-193 198 -531 201 l0 0 ZM792 1130 q135 -2 214 -111 q79 -108 81 -298 q-2 -189 -81 -297 q-79 -109 -214 -111 q-135 2 -214 111 q-79 108 -81 297 q2 190 81 298 q79 109 214 111 l0 0 ZM397 1870 q5 -139 105 -234 q101 -96 290 -100 q190 4 290 100 q100 95 105 234 l-236 0 q-3 -66 -43 -106 q-41 -41 -116 -42 q-75 1 -115 42 q-41 40 -44 106 l-236 0 Z" /><glyph glyph-name="" unicode="&#x20e;" d="M792 1468 q-338 -3 -531 -201 q-192 -197 -196 -546 q4 -349 196 -546 q192 -197 531 -200 q338 3 531 200 q192 197 196 546 q-4 349 -196 546 q-193 198 -531 201 l0 0 ZM792 1130 q135 -2 214 -111 q79 -108 81 -298 q-2 -189 -81 -297 q-79 -109 -214 -111 q-135 2 -214 111 q-79 108 -81 297 q2 190 81 298 q79 109 214 111 l0 0 ZM397 1536 l236 0 q3 66 44 106 q40 41 115 42 q75 -1 116 -42 q40 -40 43 -106 l236 0 q-5 139 -105 235 q-100 95 -290 99 q-189 -4 -290 -99 q-100 -96 -105 -235 l0 0 Z" /><glyph glyph-name="" unicode="&#x1ece;" d="M792 1468 q-338 -3 -531 -201 q-192 -197 -196 -546 q4 -349 196 -546 q192 -197 531 -200 q338 3 531 200 q192 197 196 546 q-4 349 -196 546 q-193 198 -531 201 l0 0 ZM792 1130 q135 -2 214 -111 q79 -108 81 -298 q-2 -189 -81 -297 q-79 -109 -214 -111 q-135 2 -214 111 q-79 108 -81 297 q2 190 81 298 q79 109 214 111 l0 0 ZM583 1807 q22 8 54 13 q32 5 57 5 q51 0 78 -21 q28 -20 28 -57 q-1 -34 -28 -65 q-28 -31 -74 -49 l111 -133 q96 43 155 115 q59 72 61 157 q-1 109 -74 170 q-73 60 -203 61 q-49 0 -93 -8 q-44 -7 -72 -21 l0 -167 Z" /><glyph glyph-name="" unicode="&#x22a;" d="M792 1468 q-338 -3 -531 -201 q-192 -197 -196 -546 q4 -349 196 -546 q192 -197 531 -200 q338 3 531 200 q192 197 196 546 q-4 349 -196 546 q-193 198 -531 201 l0 0 ZM792 1130 q135 -2 214 -111 q79 -108 81 -298 q-2 -189 -81 -297 q-79 -109 -214 -111 q-135 2 -214 111 q-79 108 -81 297 q2 190 81 298 q79 109 214 111 l0 0 ZM570 1836 q-70 -2 -113 -44 q-44 -42 -45 -106 q1 -63 45 -106 q43 -42 113 -44 q70 2 114 44 q43 43 44 106 q-1 64 -44 106 q-44 42 -114 44 l0 0 ZM418 2120 l0 -180 l748 0 l0 180 l-748 0 ZM1014 1836 q-70 -2 -113 -44 q-44 -42 -45 -106 q1 -63 45 -106 q43 -42 113 -44 q70 2 114 44 q43 43 44 106 q-1 64 -44 106 q-44 42 -114 44 l0 0 Z" /><glyph glyph-name="" unicode="&#x22c;" d="M792 1468 q-338 -3 -531 -201 q-192 -197 -196 -546 q4 -349 196 -546 q192 -197 531 -200 q338 3 531 200 q192 197 196 546 q-4 349 -196 546 q-193 198 -531 201 l0 0 ZM792 1130 q135 -2 214 -111 q79 -108 81 -298 q-2 -189 -81 -297 q-79 -109 -214 -111 q-135 2 -214 111 q-79 108 -81 297 q2 190 81 298 q79 109 214 111 l0 0 ZM938 1536 q105 1 176 79 q70 78 73 219 l-201 0 q-2 -47 -18 -76 q-17 -29 -51 -30 q-49 8 -107 61 q-58 52 -164 60 q-105 -1 -175 -76 q-71 -76 -74 -217 l201 0 q2 41 18 70 q17 30 51 31 q49 -8 107 -60 q58 -53 164 -61 l0 0 ZM1166 2120 l-748 0 l0 -180 l748 0 l0 180 Z" /><glyph glyph-name="" unicode="&#x22e;" d="M792 1468 q-338 -3 -531 -201 q-192 -197 -196 -546 q4 -349 196 -546 q192 -197 531 -200 q338 3 531 200 q192 197 196 546 q-4 349 -196 546 q-193 198 -531 201 l0 0 ZM792 1130 q135 -2 214 -111 q79 -108 81 -298 q-2 -189 -81 -297 q-79 -109 -214 -111 q-135 2 -214 111 q-79 108 -81 297 q2 190 81 298 q79 109 214 111 l0 0 ZM792 1536 q77 2 126 52 q49 50 51 125 q-2 75 -51 124 q-49 50 -126 52 q-77 -2 -126 -52 q-49 -49 -51 -124 q2 -75 51 -125 q49 -50 126 -52 l0 0 Z" /><glyph glyph-name="" unicode="&#x1ed8;" d="M792 1468 q-338 -3 -531 -201 q-192 -197 -196 -546 q4 -349 196 -546 q192 -197 531 -200 q338 3 531 200 q192 197 196 546 q-4 349 -196 546 q-193 198 -531 201 l0 0 ZM792 1130 q135 -2 214 -111 q79 -108 81 -298 q-2 -189 -81 -297 q-79 -109 -214 -111 q-135 2 -214 111 q-79 108 -81 297 q2 190 81 298 q79 109 214 111 l0 0 ZM635 1872 l-255 -336 l276 0 l132 192 l8 0 l132 -192 l276 0 l-255 336 l-314 0 ZM792 -524 q77 2 126 52 q49 50 51 125 q-2 75 -51 124 q-49 50 -126 52 q-77 -2 -126 -52 q-49 -49 -51 -124 q2 -75 51 -125 q49 -50 126 -52 l0 0 Z" /><glyph glyph-name="" unicode="&#x1ed0;" d="M792 1468 q-338 -3 -531 -201 q-192 -197 -196 -546 q4 -349 196 -546 q192 -197 531 -200 q338 3 531 200 q192 197 196 546 q-4 349 -196 546 q-193 198 -531 201 l0 0 ZM792 1130 q135 -2 214 -111 q79 -108 81 -298 q-2 -189 -81 -297 q-79 -109 -214 -111 q-135 2 -214 111 q-79 108 -81 297 q2 190 81 298 q79 109 214 111 l0 0 ZM637 1842 l-255 -306 l280 0 l126 166 l8 0 l126 -166 l280 0 l-255 306 l-310 0 ZM836 1925 l286 0 l238 281 l-322 0 l-202 -281 Z" /><glyph glyph-name="" unicode="&#x1e4e;" d="M792 1468 q-338 -3 -531 -201 q-192 -197 -196 -546 q4 -349 196 -546 q192 -197 531 -200 q338 3 531 200 q192 197 196 546 q-4 349 -196 546 q-193 198 -531 201 l0 0 ZM792 1130 q135 -2 214 -111 q79 -108 81 -298 q-2 -189 -81 -297 q-79 -109 -214 -111 q-135 2 -214 111 q-79 108 -81 297 q2 190 81 298 q79 109 214 111 l0 0 ZM938 1536 q105 1 176 78 q70 76 73 210 l-201 0 q-2 -40 -18 -67 q-17 -28 -51 -29 q-49 8 -107 61 q-58 52 -164 60 q-105 -1 -175 -76 q-71 -76 -74 -217 l201 0 q2 41 18 70 q17 30 51 31 q49 -8 107 -60 q58 -53 164 -61 l0 0 ZM570 2227 q-70 -2 -113 -44 q-44 -42 -45 -106 q1 -63 45 -106 q43 -42 113 -44 q70 2 114 44 q43 43 44 106 q-1 64 -44 106 q-44 42 -114 44 l0 0 ZM1014 2227 q-70 -2 -113 -44 q-44 -42 -45 -106 q1 -63 45 -106 q43 -42 113 -44 q70 2 114 44 q43 43 44 106 q-1 64 -44 106 q-44 42 -114 44 l0 0 Z" /><glyph glyph-name="" unicode="&#x14c;" d="M792 1468 q-338 -3 -531 -201 q-192 -197 -196 -546 q4 -349 196 -546 q192 -197 531 -200 q338 3 531 200 q192 197 196 546 q-4 349 -196 546 q-193 198 -531 201 l0 0 ZM792 1130 q135 -2 214 -111 q79 -108 81 -298 q-2 -189 -81 -297 q-79 -109 -214 -111 q-135 2 -214 111 q-79 108 -81 297 q2 190 81 298 q79 109 214 111 l0 0 ZM1166 1786 l-748 0 l0 -180 l748 0 l0 180 Z" /><glyph glyph-name="" unicode="&#x1ea;" d="M1039 -494 q56 0 99 7 q44 6 73 19 l0 193 q-7 -4 -28 -6 q-20 -3 -44 -3 q-60 0 -92 27 q-32 27 -32 77 q-1 55 55 122 q56 67 180 160 q130 99 199 258 q69 159 70 361 q-4 349 -196 546 q-192 197 -531 201 q-339 -4 -531 -201 q-192 -197 -196 -546 q3 -348 196 -545 q192 -197 531 -201 q26 0 58 2 q32 1 47 3 l0 -8 q-69 -30 -115 -97 q-47 -67 -49 -139 q2 -104 85 -166 q83 -62 221 -64 l0 0 ZM792 1130 q136 -2 215 -111 q78 -110 80 -298 q-2 -188 -80 -297 q-79 -109 -215 -111 q-136 2 -215 111 q-78 109 -80 297 q2 188 80 298 q79 109 215 111 l0 0 Z" /><glyph glyph-name="" unicode="&#x1ec;" d="M1166 1786 l-748 0 l0 -180 l748 0 l0 180 ZM1039 -494 q56 0 99 7 q44 6 73 19 l0 193 q-7 -4 -28 -6 q-20 -3 -44 -3 q-60 0 -92 27 q-32 27 -32 77 q-1 55 55 122 q56 67 180 160 q130 99 199 258 q69 159 70 361 q-4 349 -196 546 q-192 197 -531 201 q-339 -4 -531 -201 q-192 -197 -196 -546 q3 -348 196 -545 q192 -197 531 -201 q26 0 58 2 q32 1 47 3 l0 -8 q-69 -30 -115 -97 q-47 -67 -49 -139 q2 -104 85 -166 q83 -62 221 -64 l0 0 ZM792 1130 q136 -2 215 -111 q78 -110 80 -298 q-2 -188 -80 -297 q-79 -109 -215 -111 q-136 2 -215 111 q-78 109 -80 297 q2 188 80 298 q79 109 215 111 l0 0 Z" /><glyph glyph-name="" unicode="&#x1a0;" d="M792 -25 q339 4 532 201 q192 197 195 545 q-2 128 -47 252 q-46 124 -117 188 l0 8 l63 0 q114 0 173 61 q59 60 59 179 l0 270 l-303 0 l0 -185 q0 -41 -28 -64 q-28 -22 -80 -22 q-121 4 -213 30 q-92 26 -234 30 q-339 -4 -531 -201 q-192 -197 -196 -546 q3 -348 196 -545 q192 -197 531 -201 l0 0 ZM792 313 q-136 2 -215 111 q-78 109 -80 297 q2 188 80 298 q79 109 215 111 q136 -2 215 -111 q78 -110 80 -298 q-2 -188 -80 -297 q-79 -109 -215 -111 l0 0 Z" /><glyph glyph-name="" unicode="&#x1ee2;" d="M792 -524 q77 2 126 52 q49 50 51 125 q-2 75 -51 124 q-49 50 -126 52 q-77 -2 -126 -52 q-49 -49 -51 -124 q2 -75 51 -125 q49 -50 126 -52 l0 0 ZM792 -25 q339 4 532 201 q192 197 195 545 q-2 128 -47 252 q-46 124 -117 188 l0 8 l63 0 q114 0 173 61 q59 60 59 179 l0 270 l-303 0 l0 -185 q0 -41 -28 -64 q-28 -22 -80 -22 q-121 4 -213 30 q-92 26 -234 30 q-339 -4 -531 -201 q-192 -197 -196 -546 q3 -348 196 -545 q192 -197 531 -201 l0 0 ZM792 313 q-136 2 -215 111 q-78 109 -80 297 q2 188 80 298 q79 109 215 111 q136 -2 215 -111 q78 -110 80 -298 q-2 -188 -80 -297 q-79 -109 -215 -111 l0 0 Z" /><glyph glyph-name="" unicode="&#x1ede;" d="M583 1807 q22 8 54 13 q32 5 57 5 q51 0 78 -21 q28 -20 28 -57 q-1 -34 -28 -65 q-28 -31 -74 -49 l111 -133 q96 43 155 115 q59 72 61 157 q-1 109 -74 170 q-73 60 -203 61 q-49 0 -93 -8 q-44 -7 -72 -21 l0 -167 ZM792 -25 q339 4 532 201 q192 197 195 545 q-2 128 -47 252 q-46 124 -117 188 l0 8 l63 0 q114 0 173 61 q59 60 59 179 l0 270 l-303 0 l0 -185 q0 -41 -28 -64 q-28 -22 -80 -22 q-121 4 -213 30 q-92 26 -234 30 q-339 -4 -531 -201 q-192 -197 -196 -546 q3 -348 196 -545 q192 -197 531 -201 l0 0 ZM792 313 q-136 2 -215 111 q-78 109 -80 297 q2 188 80 298 q79 109 215 111 q136 -2 215 -111 q78 -110 80 -298 q-2 -188 -80 -297 q-79 -109 -215 -111 l0 0 Z" /><glyph glyph-name="" unicode="&#x1ee0;" d="M945 1546 q104 1 176 79 q72 78 75 219 l-201 0 q-2 -47 -18 -76 q-17 -29 -51 -30 q-48 7 -105 60 q-57 52 -163 59 q-104 -1 -176 -76 q-72 -76 -75 -217 l201 0 q2 41 18 70 q17 30 51 31 q48 -7 105 -59 q57 -53 163 -60 l0 0 ZM792 -25 q339 4 532 201 q192 197 195 545 q-2 128 -47 252 q-46 124 -117 188 l0 8 l63 0 q114 0 173 61 q59 60 59 179 l0 270 l-303 0 l0 -185 q0 -41 -28 -64 q-28 -22 -80 -22 q-121 4 -213 30 q-92 26 -234 30 q-339 -4 -531 -201 q-192 -197 -196 -546 q3 -348 196 -545 q192 -197 531 -201 l0 0 ZM792 313 q-136 2 -215 111 q-78 109 -80 297 q2 188 80 298 q79 109 215 111 q136 -2 215 -111 q78 -110 80 -298 q-2 -188 -80 -297 q-79 -109 -215 -111 l0 0 Z" /><glyph glyph-name="" unicode="&#x1edc;" d="M646 1564 l306 0 l-232 321 l-348 0 l274 -321 ZM792 -25 q339 4 532 201 q192 197 195 545 q-2 128 -47 252 q-46 124 -117 188 l0 8 l63 0 q114 0 173 61 q59 60 59 179 l0 270 l-303 0 l0 -185 q0 -41 -28 -64 q-28 -22 -80 -22 q-121 4 -213 30 q-92 26 -234 30 q-339 -4 -531 -201 q-192 -197 -196 -546 q3 -348 196 -545 q192 -197 531 -201 l0 0 ZM792 313 q-136 2 -215 111 q-78 109 -80 297 q2 188 80 298 q79 109 215 111 q136 -2 215 -111 q78 -110 80 -298 q-2 -188 -80 -297 q-79 -109 -215 -111 l0 0 Z" /><glyph glyph-name="" unicode="&#x1eda;" d="M932 1555 l274 321 l-348 0 l-232 -321 l306 0 ZM792 -25 q339 4 532 201 q192 197 195 545 q-2 128 -47 252 q-46 124 -117 188 l0 8 l63 0 q114 0 173 61 q59 60 59 179 l0 270 l-303 0 l0 -185 q0 -41 -28 -64 q-28 -22 -80 -22 q-121 4 -213 30 q-92 26 -234 30 q-339 -4 -531 -201 q-192 -197 -196 -546 q3 -348 196 -545 q192 -197 531 -201 l0 0 ZM792 313 q-136 2 -215 111 q-78 109 -80 297 q2 188 80 298 q79 109 215 111 q136 -2 215 -111 q78 -110 80 -298 q-2 -188 -80 -297 q-79 -109 -215 -111 l0 0 Z" /><glyph glyph-name="" unicode="p" d="M100 1443 l0 -1443 l424 0 l0 394 l206 0 q257 3 409 142 q153 140 157 381 q-3 244 -148 383 q-145 140 -389 143 l-659 0 ZM524 1124 l122 0 q104 0 163 -53 q58 -52 59 -155 q-1 -104 -60 -156 q-58 -53 -165 -53 l-119 0 l0 417 Z" /><glyph glyph-name="" unicode="&#x1e56;" d="M100 1443 l0 -1443 l424 0 l0 394 l206 0 q257 3 409 142 q153 140 157 381 q-3 244 -148 383 q-145 140 -389 143 l-659 0 ZM524 1124 l122 0 q104 0 163 -53 q58 -52 59 -155 q-1 -104 -60 -156 q-58 -53 -165 -53 l-119 0 l0 417 ZM673 1536 q77 2 126 52 q49 50 51 125 q-2 75 -51 124 q-49 50 -126 52 q-77 -2 -126 -52 q-49 -49 -51 -124 q2 -75 51 -125 q49 -50 126 -52 l0 0 Z" /><glyph glyph-name="" unicode="&#x1e54;" d="M100 1443 l0 -1443 l424 0 l0 394 l206 0 q257 3 409 142 q153 140 157 381 q-3 244 -148 383 q-145 140 -389 143 l-659 0 ZM524 1124 l122 0 q104 0 163 -53 q58 -52 59 -155 q-1 -104 -60 -156 q-58 -53 -165 -53 l-119 0 l0 417 ZM813 1555 l274 321 l-348 0 l-232 -321 l306 0 Z" /><glyph glyph-name="" unicode="q" d="M1495 -108 l-175 287 q98 91 148 230 q50 138 50 312 q-4 348 -196 546 q-193 197 -530 201 q-338 -4 -531 -201 q-192 -198 -196 -546 q4 -354 196 -548 q192 -195 531 -198 q65 0 127 8 q62 9 120 26 l72 -117 l384 0 ZM792 307 q-135 2 -214 113 q-79 111 -81 301 q2 190 81 301 q79 112 214 114 q135 -3 213 -114 q79 -112 81 -301 q0 -100 -29 -189 l-3 4 l-345 0 l136 -223 q-24 -6 -53 -6 l0 0 Z" /><glyph glyph-name="" unicode="r" d="M524 1130 l176 0 q87 -1 138 -52 q52 -50 53 -132 q-1 -83 -51 -132 q-51 -49 -141 -50 l-175 0 l0 366 ZM524 484 l139 0 l0 0 l228 -484 l474 0 l-274 547 q114 57 173 166 q60 110 60 240 q0 233 -147 361 q-147 127 -436 129 l-641 0 l0 -1443 l424 0 l0 484 Z" /><glyph glyph-name="" unicode="&#x158;" d="M524 1130 l176 0 q87 -1 138 -52 q52 -50 53 -132 q-1 -83 -51 -132 q-51 -49 -141 -50 l-175 0 l0 366 ZM524 484 l139 0 l0 0 l228 -484 l474 0 l-274 547 q114 57 173 166 q60 110 60 240 q0 233 -147 361 q-147 127 -436 129 l-641 0 l0 -1443 l424 0 l0 484 ZM541 1536 l314 0 l255 336 l-276 0 l-132 -192 l-8 0 l-132 192 l-276 0 l255 -336 Z" /><glyph glyph-name="" unicode="&#x1e5e;" d="M524 1130 l176 0 q87 -1 138 -52 q52 -50 53 -132 q-1 -83 -51 -132 q-51 -49 -141 -50 l-175 0 l0 366 ZM524 484 l139 0 l0 0 l228 -484 l474 0 l-274 547 q114 57 173 166 q60 110 60 240 q0 233 -147 361 q-147 127 -436 129 l-641 0 l0 -1443 l424 0 l0 484 ZM1072 -240 l-748 0 l0 -180 l748 0 l0 180 Z" /><glyph glyph-name="" unicode="&#x1e5c;" d="M524 1130 l176 0 q87 -1 138 -52 q52 -50 53 -132 q-1 -83 -51 -132 q-51 -49 -141 -50 l-175 0 l0 366 ZM524 484 l139 0 l0 0 l228 -484 l474 0 l-274 547 q114 57 173 166 q60 110 60 240 q0 233 -147 361 q-147 127 -436 129 l-641 0 l0 -1443 l424 0 l0 484 ZM698 -524 q77 2 126 52 q49 50 51 125 q-2 75 -51 124 q-49 50 -126 52 q-77 -2 -126 -52 q-49 -49 -51 -124 q2 -75 51 -125 q49 -50 126 -52 l0 0 ZM1072 1786 l-748 0 l0 -180 l748 0 l0 180 Z" /><glyph glyph-name="" unicode="&#x210;" d="M524 1130 l176 0 q87 -1 138 -52 q52 -50 53 -132 q-1 -83 -51 -132 q-51 -49 -141 -50 l-175 0 l0 366 ZM524 484 l139 0 l0 0 l228 -484 l474 0 l-274 547 q114 57 173 166 q60 110 60 240 q0 233 -147 361 q-147 127 -436 129 l-641 0 l0 -1443 l424 0 l0 484 ZM792 1555 l306 0 l-232 321 l-348 0 l274 -321 ZM312 1555 l306 0 l-232 321 l-348 0 l274 -321 Z" /><glyph glyph-name="" unicode="&#x212;" d="M524 1130 l176 0 q87 -1 138 -52 q52 -50 53 -132 q-1 -83 -51 -132 q-51 -49 -141 -50 l-175 0 l0 366 ZM524 484 l139 0 l0 0 l228 -484 l474 0 l-274 547 q114 57 173 166 q60 110 60 240 q0 233 -147 361 q-147 127 -436 129 l-641 0 l0 -1443 l424 0 l0 484 ZM303 1536 l236 0 q3 66 44 106 q40 41 115 42 q75 -1 116 -42 q40 -40 43 -106 l236 0 q-5 139 -105 235 q-100 95 -290 99 q-189 -4 -290 -99 q-100 -96 -105 -235 l0 0 Z" /><glyph glyph-name="" unicode="&#x154;" d="M524 1130 l176 0 q87 -1 138 -52 q52 -50 53 -132 q-1 -83 -51 -132 q-51 -49 -141 -50 l-175 0 l0 366 ZM524 484 l139 0 l0 0 l228 -484 l474 0 l-274 547 q114 57 173 166 q60 110 60 240 q0 233 -147 361 q-147 127 -436 129 l-641 0 l0 -1443 l424 0 l0 484 ZM838 1555 l274 321 l-348 0 l-232 -321 l306 0 Z" /><glyph glyph-name="" unicode="&#x1e5a;" d="M524 1130 l176 0 q87 -1 138 -52 q52 -50 53 -132 q-1 -83 -51 -132 q-51 -49 -141 -50 l-175 0 l0 366 ZM524 484 l139 0 l0 0 l228 -484 l474 0 l-274 547 q114 57 173 166 q60 110 60 240 q0 233 -147 361 q-147 127 -436 129 l-641 0 l0 -1443 l424 0 l0 484 ZM698 -524 q77 2 126 52 q49 50 51 125 q-2 75 -51 124 q-49 50 -126 52 q-77 -2 -126 -52 q-49 -49 -51 -124 q2 -75 51 -125 q49 -50 126 -52 l0 0 Z" /><glyph glyph-name="" unicode="&#x1e58;" d="M524 1130 l176 0 q87 -1 138 -52 q52 -50 53 -132 q-1 -83 -51 -132 q-51 -49 -141 -50 l-175 0 l0 366 ZM524 484 l139 0 l0 0 l228 -484 l474 0 l-274 547 q114 57 173 166 q60 110 60 240 q0 233 -147 361 q-147 127 -436 129 l-641 0 l0 -1443 l424 0 l0 484 ZM698 1536 q77 2 126 52 q49 50 51 125 q-2 75 -51 124 q-49 50 -126 52 q-77 -2 -126 -52 q-49 -49 -51 -124 q2 -75 51 -125 q49 -50 126 -52 l0 0 Z" /><glyph glyph-name="" unicode="&#x156;" d="M524 1130 l176 0 q87 -1 138 -52 q52 -50 53 -132 q-1 -83 -51 -132 q-51 -49 -141 -50 l-175 0 l0 366 ZM524 484 l139 0 l0 0 l228 -484 l474 0 l-274 547 q114 57 173 166 q60 110 60 240 q0 233 -147 361 q-147 127 -436 129 l-641 0 l0 -1443 l424 0 l0 484 ZM669 -457 l203 321 l-359 0 l-152 -321 l308 0 Z" /><glyph glyph-name="" unicode="s" d="M60 425 q3 -217 165 -333 q161 -116 454 -117 q291 3 460 131 q168 128 171 352 q1 175 -100 277 q-102 103 -311 139 l-198 34 q-102 17 -149 48 q-48 30 -47 81 q1 55 49 86 q48 31 132 32 q87 0 145 -38 q57 -37 61 -105 l387 0 q-3 212 -157 333 q-155 121 -444 123 q-263 -2 -426 -128 q-163 -127 -168 -348 q1 -170 105 -279 q105 -109 304 -145 l191 -34 q115 -20 162 -47 q48 -28 46 -77 q-1 -53 -55 -87 q-54 -33 -150 -34 q-88 1 -151 37 q-64 37 -75 99 l-401 0 Z" /><glyph glyph-name="" unicode="&#x160;" d="M60 425 q3 -217 165 -333 q161 -116 454 -117 q291 3 460 131 q168 128 171 352 q1 175 -100 277 q-102 103 -311 139 l-198 34 q-102 17 -149 48 q-48 30 -47 81 q1 55 49 86 q48 31 132 32 q87 0 145 -38 q57 -37 61 -105 l387 0 q-3 212 -157 333 q-155 121 -444 123 q-263 -2 -426 -128 q-163 -127 -168 -348 q1 -170 105 -279 q105 -109 304 -145 l191 -34 q115 -20 162 -47 q48 -28 46 -77 q-1 -53 -55 -87 q-54 -33 -150 -34 q-88 1 -151 37 q-64 37 -75 99 l-401 0 ZM528 1536 l314 0 l255 336 l-276 0 l-132 -192 l-8 0 l-132 192 l-276 0 l255 -336 Z" /><glyph glyph-name="" unicode="&#x15e;" d="M701 908 q-102 17 -149 48 q-48 30 -47 81 q1 55 49 86 q48 31 132 32 q87 0 145 -38 q57 -37 61 -105 l387 0 q-3 212 -157 333 q-155 121 -444 123 q-263 -2 -426 -128 q-163 -127 -168 -348 q1 -170 105 -279 q105 -109 304 -145 l191 -34 q115 -20 162 -47 q48 -28 46 -77 q-1 -53 -55 -87 q-54 -33 -150 -34 q-88 1 -151 37 q-64 37 -75 99 l-401 0 q3 -202 143 -317 q141 -114 397 -131 l-42 -75 l0 -127 l56 0 q55 0 78 -10 q23 -10 22 -36 q0 -19 -22 -28 q-23 -9 -72 -9 q-27 0 -54 3 q-26 3 -45 9 l0 -141 q20 -7 56 -11 q35 -4 77 -4 q131 0 197 49 q66 49 66 146 q-1 77 -45 122 q-44 45 -117 46 l36 70 q242 27 379 152 q137 124 140 325 q1 175 -100 277 q-102 103 -311 139 l-198 34 Z" /><glyph glyph-name="" unicode="&#x1e60;" d="M60 425 q3 -217 165 -333 q161 -116 454 -117 q291 3 460 131 q168 128 171 352 q1 175 -100 277 q-102 103 -311 139 l-198 34 q-102 17 -149 48 q-48 30 -47 81 q1 55 49 86 q48 31 132 32 q87 0 145 -38 q57 -37 61 -105 l387 0 q-3 212 -157 333 q-155 121 -444 123 q-263 -2 -426 -128 q-163 -127 -168 -348 q1 -170 105 -279 q105 -109 304 -145 l191 -34 q115 -20 162 -47 q48 -28 46 -77 q-1 -53 -55 -87 q-54 -33 -150 -34 q-88 1 -151 37 q-64 37 -75 99 l-401 0 ZM685 1536 q77 2 126 52 q49 50 51 125 q-2 75 -51 124 q-49 50 -126 52 q-77 -2 -126 -52 q-49 -49 -51 -124 q2 -75 51 -125 q49 -50 126 -52 l0 0 Z" /><glyph glyph-name="" unicode="&#x1e62;" d="M60 425 q3 -217 165 -333 q161 -116 454 -117 q291 3 460 131 q168 128 171 352 q1 175 -100 277 q-102 103 -311 139 l-198 34 q-102 17 -149 48 q-48 30 -47 81 q1 55 49 86 q48 31 132 32 q87 0 145 -38 q57 -37 61 -105 l387 0 q-3 212 -157 333 q-155 121 -444 123 q-263 -2 -426 -128 q-163 -127 -168 -348 q1 -170 105 -279 q105 -109 304 -145 l191 -34 q115 -20 162 -47 q48 -28 46 -77 q-1 -53 -55 -87 q-54 -33 -150 -34 q-88 1 -151 37 q-64 37 -75 99 l-401 0 ZM685 -524 q77 2 126 52 q49 50 51 125 q-2 75 -51 124 q-49 50 -126 52 q-77 -2 -126 -52 q-49 -49 -51 -124 q2 -75 51 -125 q49 -50 126 -52 l0 0 Z" /><glyph glyph-name="" unicode="&#x218;" d="M60 425 q3 -217 165 -333 q161 -116 454 -117 q291 3 460 131 q168 128 171 352 q1 175 -100 277 q-102 103 -311 139 l-198 34 q-102 17 -149 48 q-48 30 -47 81 q1 55 49 86 q48 31 132 32 q87 0 145 -38 q57 -37 61 -105 l387 0 q-3 212 -157 333 q-155 121 -444 123 q-263 -2 -426 -128 q-163 -127 -168 -348 q1 -170 105 -279 q105 -109 304 -145 l191 -34 q115 -20 162 -47 q48 -28 46 -77 q-1 -53 -55 -87 q-54 -33 -150 -34 q-88 1 -151 37 q-64 37 -75 99 l-401 0 ZM656 -457 l203 321 l-359 0 l-152 -321 l308 0 Z" /><glyph glyph-name="" unicode="&#x1e68;" d="M60 425 q3 -217 165 -333 q161 -116 454 -117 q291 3 460 131 q168 128 171 352 q1 175 -100 277 q-102 103 -311 139 l-198 34 q-102 17 -149 48 q-48 30 -47 81 q1 55 49 86 q48 31 132 32 q87 0 145 -38 q57 -37 61 -105 l387 0 q-3 212 -157 333 q-155 121 -444 123 q-263 -2 -426 -128 q-163 -127 -168 -348 q1 -170 105 -279 q105 -109 304 -145 l191 -34 q115 -20 162 -47 q48 -28 46 -77 q-1 -53 -55 -87 q-54 -33 -150 -34 q-88 1 -151 37 q-64 37 -75 99 l-401 0 ZM685 -524 q77 2 126 52 q49 50 51 125 q-2 75 -51 124 q-49 50 -126 52 q-77 -2 -126 -52 q-49 -49 -51 -124 q2 -75 51 -125 q49 -50 126 -52 l0 0 ZM685 1536 q77 2 126 52 q49 50 51 125 q-2 75 -51 124 q-49 50 -126 52 q-77 -2 -126 -52 q-49 -49 -51 -124 q2 -75 51 -125 q49 -50 126 -52 l0 0 Z" /><glyph glyph-name="" unicode="&#x1e66;" d="M60 425 q3 -217 165 -333 q161 -116 454 -117 q291 3 460 131 q168 128 171 352 q1 175 -100 277 q-102 103 -311 139 l-198 34 q-102 17 -149 48 q-48 30 -47 81 q1 55 49 86 q48 31 132 32 q87 0 145 -38 q57 -37 61 -105 l387 0 q-3 212 -157 333 q-155 121 -444 123 q-263 -2 -426 -128 q-163 -127 -168 -348 q1 -170 105 -279 q105 -109 304 -145 l191 -34 q115 -20 162 -47 q48 -28 46 -77 q-1 -53 -55 -87 q-54 -33 -150 -34 q-88 1 -151 37 q-64 37 -75 99 l-401 0 ZM530 1536 l310 0 l255 306 l-280 0 l-126 -166 l-8 0 l-126 166 l-280 0 l255 -306 ZM685 1870 q70 2 114 44 q43 43 44 106 q-1 64 -44 106 q-44 42 -114 44 q-70 -2 -113 -44 q-44 -42 -45 -106 q1 -63 45 -106 q43 -42 113 -44 l0 0 Z" /><glyph glyph-name="" unicode="&#x15c;" d="M60 425 q3 -217 165 -333 q161 -116 454 -117 q291 3 460 131 q168 128 171 352 q1 175 -100 277 q-102 103 -311 139 l-198 34 q-102 17 -149 48 q-48 30 -47 81 q1 55 49 86 q48 31 132 32 q87 0 145 -38 q57 -37 61 -105 l387 0 q-3 212 -157 333 q-155 121 -444 123 q-263 -2 -426 -128 q-163 -127 -168 -348 q1 -170 105 -279 q105 -109 304 -145 l191 -34 q115 -20 162 -47 q48 -28 46 -77 q-1 -53 -55 -87 q-54 -33 -150 -34 q-88 1 -151 37 q-64 37 -75 99 l-401 0 ZM528 1872 l-255 -336 l276 0 l132 192 l8 0 l132 -192 l276 0 l-255 336 l-314 0 Z" /><glyph glyph-name="" unicode="&#x1e64;" d="M60 425 q3 -217 165 -333 q161 -116 454 -117 q291 3 460 131 q168 128 171 352 q1 175 -100 277 q-102 103 -311 139 l-198 34 q-102 17 -149 48 q-48 30 -47 81 q1 55 49 86 q48 31 132 32 q87 0 145 -38 q57 -37 61 -105 l387 0 q-3 212 -157 333 q-155 121 -444 123 q-263 -2 -426 -128 q-163 -127 -168 -348 q1 -170 105 -279 q105 -109 304 -145 l191 -34 q115 -20 162 -47 q48 -28 46 -77 q-1 -53 -55 -87 q-54 -33 -150 -34 q-88 1 -151 37 q-64 37 -75 99 l-401 0 ZM959 1555 l274 321 l-348 0 l-232 -321 l306 0 ZM409 1536 q77 2 126 52 q49 50 51 125 q-2 75 -51 124 q-49 50 -126 52 q-77 -2 -126 -52 q-49 -49 -51 -124 q2 -75 51 -125 q49 -50 126 -52 l0 0 Z" /><glyph glyph-name="" unicode="&#x15a;" d="M60 425 q3 -217 165 -333 q161 -116 454 -117 q291 3 460 131 q168 128 171 352 q1 175 -100 277 q-102 103 -311 139 l-198 34 q-102 17 -149 48 q-48 30 -47 81 q1 55 49 86 q48 31 132 32 q87 0 145 -38 q57 -37 61 -105 l387 0 q-3 212 -157 333 q-155 121 -444 123 q-263 -2 -426 -128 q-163 -127 -168 -348 q1 -170 105 -279 q105 -109 304 -145 l191 -34 q115 -20 162 -47 q48 -28 46 -77 q-1 -53 -55 -87 q-54 -33 -150 -34 q-88 1 -151 37 q-64 37 -75 99 l-401 0 ZM825 1555 l274 321 l-348 0 l-232 -321 l306 0 Z" /><glyph glyph-name="" unicode="t" d="M849 0 l0 1106 l380 0 l0 337 l-1184 0 l0 -337 l380 0 l0 -1106 l424 0 Z" /><glyph glyph-name="" unicode="&#x1e70;" d="M849 0 l0 1106 l380 0 l0 337 l-1184 0 l0 -337 l380 0 l0 -1106 l424 0 ZM480 -154 l-255 -336 l276 0 l132 192 l8 0 l132 -192 l276 0 l-255 336 l-314 0 Z" /><glyph glyph-name="" unicode="&#x1e6c;" d="M849 0 l0 1106 l380 0 l0 337 l-1184 0 l0 -337 l380 0 l0 -1106 l424 0 ZM637 -524 q77 2 126 52 q49 50 51 125 q-2 75 -51 124 q-49 50 -126 52 q-77 -2 -126 -52 q-49 -49 -51 -124 q2 -75 51 -125 q49 -50 126 -52 l0 0 Z" /><glyph glyph-name="" unicode="&#x21a;" d="M849 0 l0 1106 l380 0 l0 337 l-1184 0 l0 -337 l380 0 l0 -1106 l424 0 ZM608 -457 l203 321 l-359 0 l-152 -321 l308 0 Z" /><glyph glyph-name="" unicode="&#x1e6a;" d="M849 0 l0 1106 l380 0 l0 337 l-1184 0 l0 -337 l380 0 l0 -1106 l424 0 ZM637 1536 q77 2 126 52 q49 50 51 125 q-2 75 -51 124 q-49 50 -126 52 q-77 -2 -126 -52 q-49 -49 -51 -124 q2 -75 51 -125 q49 -50 126 -52 l0 0 Z" /><glyph glyph-name="" unicode="&#x162;" d="M849 16 l0 1090 l380 0 l0 337 l-1184 0 l0 -337 l380 0 l0 -1106 l235 0 l-54 -98 l0 -127 l56 0 q55 0 78 -10 q23 -10 22 -36 q0 -19 -22 -28 q-23 -9 -72 -9 q-27 0 -54 3 q-26 3 -45 9 l0 -141 q20 -7 56 -11 q35 -4 77 -4 q131 0 197 49 q66 49 66 146 q-1 77 -45 122 q-44 45 -117 46 l46 89 l0 16 Z" /><glyph glyph-name="" unicode="&#x1e6e;" d="M849 0 l0 1106 l380 0 l0 337 l-1184 0 l0 -337 l380 0 l0 -1106 l424 0 ZM1011 -240 l-748 0 l0 -180 l748 0 l0 180 Z" /><glyph glyph-name="" unicode="&#x164;" d="M849 0 l0 1106 l380 0 l0 337 l-1184 0 l0 -337 l380 0 l0 -1106 l424 0 ZM480 1536 l314 0 l255 336 l-276 0 l-132 -192 l-8 0 l-132 192 l-276 0 l255 -336 Z" /><glyph glyph-name="" unicode="&#x166;" d="M1249 1106 l0 337 l-1184 0 l0 -337 l380 0 l0 -299 l-245 0 l0 -279 l245 0 l0 -528 l424 0 l0 528 l277 0 l0 279 l-277 0 l0 299 l380 0 Z" /><glyph glyph-name="" unicode="u" d="M524 1443 l-424 0 l0 -929 q4 -250 175 -393 q171 -143 461 -146 q290 3 461 146 q171 143 175 393 l0 929 l-424 0 l0 -882 q0 -114 -55 -174 q-54 -61 -157 -61 q-103 0 -157 61 q-55 60 -55 174 l0 882 Z" /><glyph glyph-name="" unicode="ù" d="M524 1443 l-424 0 l0 -929 q4 -250 175 -393 q171 -143 461 -146 q290 3 461 146 q171 143 175 393 l0 929 l-424 0 l0 -882 q0 -114 -55 -174 q-54 -61 -157 -61 q-103 0 -157 61 q-55 60 -55 174 l0 882 ZM590 1564 l306 0 l-232 321 l-348 0 l274 -321 Z" /><glyph glyph-name="" unicode="&#x214;" d="M524 1443 l-424 0 l0 -929 q4 -250 175 -393 q171 -143 461 -146 q290 3 461 146 q171 143 175 393 l0 929 l-424 0 l0 -882 q0 -114 -55 -174 q-54 -61 -157 -61 q-103 0 -157 61 q-55 60 -55 174 l0 882 ZM830 1555 l306 0 l-232 321 l-348 0 l274 -321 ZM350 1555 l306 0 l-232 321 l-348 0 l274 -321 Z" /><glyph glyph-name="" unicode="ú" d="M524 1443 l-424 0 l0 -929 q4 -250 175 -393 q171 -143 461 -146 q290 3 461 146 q171 143 175 393 l0 929 l-424 0 l0 -882 q0 -114 -55 -174 q-54 -61 -157 -61 q-103 0 -157 61 q-55 60 -55 174 l0 882 ZM876 1555 l274 321 l-348 0 l-232 -321 l306 0 Z" /><glyph glyph-name="" unicode="&#x170;" d="M524 1443 l-424 0 l0 -929 q4 -250 175 -393 q171 -143 461 -146 q290 3 461 146 q171 143 175 393 l0 929 l-424 0 l0 -882 q0 -114 -55 -174 q-54 -61 -157 -61 q-103 0 -157 61 q-55 60 -55 174 l0 882 ZM1122 1555 l274 321 l-348 0 l-232 -321 l306 0 ZM642 1555 l274 321 l-348 0 l-232 -321 l306 0 Z" /><glyph glyph-name="" unicode="û" d="M524 1443 l-424 0 l0 -929 q4 -250 175 -393 q171 -143 461 -146 q290 3 461 146 q171 143 175 393 l0 929 l-424 0 l0 -882 q0 -114 -55 -174 q-54 -61 -157 -61 q-103 0 -157 61 q-55 60 -55 174 l0 882 ZM579 1872 l-255 -336 l276 0 l132 192 l8 0 l132 -192 l276 0 l-255 336 l-314 0 Z" /><glyph glyph-name="" unicode="&#x1d3;" d="M524 1443 l-424 0 l0 -929 q4 -250 175 -393 q171 -143 461 -146 q290 3 461 146 q171 143 175 393 l0 929 l-424 0 l0 -882 q0 -114 -55 -174 q-54 -61 -157 -61 q-103 0 -157 61 q-55 60 -55 174 l0 882 ZM579 1536 l314 0 l255 336 l-276 0 l-132 -192 l-8 0 l-132 192 l-276 0 l255 -336 Z" /><glyph glyph-name="" unicode="&#x1e76;" d="M524 1443 l-424 0 l0 -929 q4 -250 175 -393 q171 -143 461 -146 q290 3 461 146 q171 143 175 393 l0 929 l-424 0 l0 -882 q0 -114 -55 -174 q-54 -61 -157 -61 q-103 0 -157 61 q-55 60 -55 174 l0 882 ZM579 -154 l-255 -336 l276 0 l132 192 l8 0 l132 -192 l276 0 l-255 336 l-314 0 Z" /><glyph glyph-name="" unicode="ü" d="M524 1443 l-424 0 l0 -929 q4 -250 175 -393 q171 -143 461 -146 q290 3 461 146 q171 143 175 393 l0 929 l-424 0 l0 -882 q0 -114 -55 -174 q-54 -61 -157 -61 q-103 0 -157 61 q-55 60 -55 174 l0 882 ZM514 1536 q70 2 114 44 q43 43 44 106 q-1 64 -44 106 q-44 42 -114 44 q-70 -2 -113 -44 q-44 -42 -45 -106 q1 -63 45 -106 q43 -42 113 -44 l0 0 ZM958 1536 q70 2 114 44 q43 43 44 106 q-1 64 -44 106 q-44 42 -114 44 q-70 -2 -113 -44 q-44 -42 -45 -106 q1 -63 45 -106 q43 -42 113 -44 l0 0 Z" /><glyph glyph-name="" unicode="&#x1db;" d="M524 1443 l-424 0 l0 -929 q4 -250 175 -393 q171 -143 461 -146 q290 3 461 146 q171 143 175 393 l0 929 l-424 0 l0 -882 q0 -114 -55 -174 q-54 -61 -157 -61 q-103 0 -157 61 q-55 60 -55 174 l0 882 ZM892 1925 l-202 281 l-322 0 l238 -281 l286 0 ZM514 1536 q70 2 114 44 q43 43 44 106 q-1 64 -44 106 q-44 42 -114 44 q-70 -2 -113 -44 q-44 -42 -45 -106 q1 -63 45 -106 q43 -42 113 -44 l0 0 ZM958 1536 q70 2 114 44 q43 43 44 106 q-1 64 -44 106 q-44 42 -114 44 q-70 -2 -113 -44 q-44 -42 -45 -106 q1 -63 45 -106 q43 -42 113 -44 l0 0 Z" /><glyph glyph-name="" unicode="&#x1d7;" d="M524 1443 l-424 0 l0 -929 q4 -250 175 -393 q171 -143 461 -146 q290 3 461 146 q171 143 175 393 l0 929 l-424 0 l0 -882 q0 -114 -55 -174 q-54 -61 -157 -61 q-103 0 -157 61 q-55 60 -55 174 l0 882 ZM580 1925 l286 0 l238 281 l-322 0 l-202 -281 ZM514 1536 q70 2 114 44 q43 43 44 106 q-1 64 -44 106 q-44 42 -114 44 q-70 -2 -113 -44 q-44 -42 -45 -106 q1 -63 45 -106 q43 -42 113 -44 l0 0 ZM958 1536 q70 2 114 44 q43 43 44 106 q-1 64 -44 106 q-44 42 -114 44 q-70 -2 -113 -44 q-44 -42 -45 -106 q1 -63 45 -106 q43 -42 113 -44 l0 0 Z" /><glyph glyph-name="" unicode="&#x1d5;" d="M524 1443 l-424 0 l0 -929 q4 -250 175 -393 q171 -143 461 -146 q290 3 461 146 q171 143 175 393 l0 929 l-424 0 l0 -882 q0 -114 -55 -174 q-54 -61 -157 -61 q-103 0 -157 61 q-55 60 -55 174 l0 882 ZM514 1836 q-70 -2 -113 -44 q-44 -42 -45 -106 q1 -63 45 -106 q43 -42 113 -44 q70 2 114 44 q43 43 44 106 q-1 64 -44 106 q-44 42 -114 44 l0 0 ZM362 2120 l0 -180 l748 0 l0 180 l-748 0 ZM958 1836 q-70 -2 -113 -44 q-44 -42 -45 -106 q1 -63 45 -106 q43 -42 113 -44 q70 2 114 44 q43 43 44 106 q-1 64 -44 106 q-44 42 -114 44 l0 0 Z" /><glyph glyph-name="" unicode="&#x1d9;" d="M524 1443 l-424 0 l0 -929 q4 -250 175 -393 q171 -143 461 -146 q290 3 461 146 q171 143 175 393 l0 929 l-424 0 l0 -882 q0 -114 -55 -174 q-54 -61 -157 -61 q-103 0 -157 61 q-55 60 -55 174 l0 882 ZM594 1926 l284 0 l247 305 l-267 0 l-111 -153 l-22 0 l-111 153 l-267 0 l247 -305 ZM514 1836 q-70 -2 -113 -44 q-44 -42 -45 -106 q1 -63 45 -106 q43 -42 113 -44 q70 2 114 44 q43 43 44 106 q-1 64 -44 106 q-44 42 -114 44 l0 0 ZM958 1836 q-70 -2 -113 -44 q-44 -42 -45 -106 q1 -63 45 -106 q43 -42 113 -44 q70 2 114 44 q43 43 44 106 q-1 64 -44 106 q-44 42 -114 44 l0 0 Z" /><glyph glyph-name="" unicode="&#x1e72;" d="M524 1443 l-424 0 l0 -929 q4 -250 175 -393 q171 -143 461 -146 q290 3 461 146 q171 143 175 393 l0 929 l-424 0 l0 -882 q0 -114 -55 -174 q-54 -61 -157 -61 q-103 0 -157 61 q-55 60 -55 174 l0 882 ZM514 -476 q70 2 114 44 q43 43 44 106 q-1 64 -44 106 q-44 42 -114 44 q-70 -2 -113 -44 q-44 -42 -45 -106 q1 -63 45 -106 q43 -42 113 -44 l0 0 ZM958 -476 q70 2 114 44 q43 43 44 106 q-1 64 -44 106 q-44 42 -114 44 q-70 -2 -113 -44 q-44 -42 -45 -106 q1 -63 45 -106 q43 -42 113 -44 l0 0 Z" /><glyph glyph-name="" unicode="&#x1e74;" d="M524 1443 l-424 0 l0 -929 q4 -250 175 -393 q171 -143 461 -146 q290 3 461 146 q171 143 175 393 l0 929 l-424 0 l0 -882 q0 -114 -55 -174 q-54 -61 -157 -61 q-103 0 -157 61 q-55 60 -55 174 l0 882 ZM889 -456 q104 1 176 79 q72 78 75 219 l-201 0 q-2 -47 -18 -76 q-17 -29 -51 -30 q-48 7 -105 60 q-57 52 -163 59 q-104 -1 -176 -76 q-72 -76 -75 -217 l201 0 q2 41 18 70 q17 30 51 31 q48 -7 105 -59 q57 -53 163 -60 l0 0 Z" /><glyph glyph-name="" unicode="&#x1ee6;" d="M524 1443 l-424 0 l0 -929 q4 -250 175 -393 q171 -143 461 -146 q290 3 461 146 q171 143 175 393 l0 929 l-424 0 l0 -882 q0 -114 -55 -174 q-54 -61 -157 -61 q-103 0 -157 61 q-55 60 -55 174 l0 882 ZM527 1807 q22 8 54 13 q32 5 57 5 q51 0 78 -21 q28 -20 28 -57 q-1 -34 -28 -65 q-28 -31 -74 -49 l111 -133 q96 43 155 115 q59 72 61 157 q-1 109 -74 170 q-73 60 -203 61 q-49 0 -93 -8 q-44 -7 -72 -21 l0 -167 Z" /><glyph glyph-name="" unicode="&#x16c;" d="M524 1443 l-424 0 l0 -929 q4 -250 175 -393 q171 -143 461 -146 q290 3 461 146 q171 143 175 393 l0 929 l-424 0 l0 -882 q0 -114 -55 -174 q-54 -61 -157 -61 q-103 0 -157 61 q-55 60 -55 174 l0 882 ZM341 1870 q5 -139 105 -234 q101 -96 290 -100 q190 4 290 100 q100 95 105 234 l-236 0 q-3 -66 -43 -106 q-41 -41 -116 -42 q-75 1 -115 42 q-41 40 -44 106 l-236 0 Z" /><glyph glyph-name="" unicode="&#x216;" d="M524 1443 l-424 0 l0 -929 q4 -250 175 -393 q171 -143 461 -146 q290 3 461 146 q171 143 175 393 l0 929 l-424 0 l0 -882 q0 -114 -55 -174 q-54 -61 -157 -61 q-103 0 -157 61 q-55 60 -55 174 l0 882 ZM341 1536 l236 0 q3 66 44 106 q40 41 115 42 q75 -1 116 -42 q40 -40 43 -106 l236 0 q-5 139 -105 235 q-100 95 -290 99 q-189 -4 -290 -99 q-100 -96 -105 -235 l0 0 Z" /><glyph glyph-name="" unicode="&#x1e78;" d="M524 1443 l-424 0 l0 -929 q4 -250 175 -393 q171 -143 461 -146 q290 3 461 146 q171 143 175 393 l0 929 l-424 0 l0 -882 q0 -114 -55 -174 q-54 -61 -157 -61 q-103 0 -157 61 q-55 60 -55 174 l0 882 ZM882 1536 q105 1 176 79 q70 78 73 219 l-201 0 q-2 -47 -18 -76 q-17 -29 -51 -30 q-49 8 -107 61 q-58 52 -164 60 q-105 -1 -175 -76 q-71 -76 -74 -217 l201 0 q2 41 18 70 q17 30 51 31 q49 -8 107 -60 q58 -53 164 -61 l0 0 ZM580 1925 l286 0 l238 281 l-322 0 l-202 -281 Z" /><glyph glyph-name="" unicode="&#x1ee4;" d="M524 1443 l-424 0 l0 -929 q4 -250 175 -393 q171 -143 461 -146 q290 3 461 146 q171 143 175 393 l0 929 l-424 0 l0 -882 q0 -114 -55 -174 q-54 -61 -157 -61 q-103 0 -157 61 q-55 60 -55 174 l0 882 ZM736 -524 q77 2 126 52 q49 50 51 125 q-2 75 -51 124 q-49 50 -126 52 q-77 -2 -126 -52 q-49 -49 -51 -124 q2 -75 51 -125 q49 -50 126 -52 l0 0 Z" /><glyph glyph-name="" unicode="&#x168;" d="M524 1443 l-424 0 l0 -929 q4 -250 175 -393 q171 -143 461 -146 q290 3 461 146 q171 143 175 393 l0 929 l-424 0 l0 -882 q0 -114 -55 -174 q-54 -61 -157 -61 q-103 0 -157 61 q-55 60 -55 174 l0 882 ZM889 1546 q104 1 176 79 q72 78 75 219 l-201 0 q-2 -47 -18 -76 q-17 -29 -51 -30 q-48 7 -105 60 q-57 52 -163 59 q-104 -1 -176 -76 q-72 -76 -75 -217 l201 0 q2 41 18 70 q17 30 51 31 q48 -7 105 -59 q57 -53 163 -60 l0 0 Z" /><glyph glyph-name="" unicode="&#x16a;" d="M524 1443 l-424 0 l0 -929 q4 -250 175 -393 q171 -143 461 -146 q290 3 461 146 q171 143 175 393 l0 929 l-424 0 l0 -882 q0 -114 -55 -174 q-54 -61 -157 -61 q-103 0 -157 61 q-55 60 -55 174 l0 882 ZM1110 1786 l-748 0 l0 -180 l748 0 l0 180 Z" /><glyph glyph-name="" unicode="&#x1e7a;" d="M524 1443 l-424 0 l0 -929 q4 -250 175 -393 q171 -143 461 -146 q290 3 461 146 q171 143 175 393 l0 929 l-424 0 l0 -882 q0 -114 -55 -174 q-54 -61 -157 -61 q-103 0 -157 61 q-55 60 -55 174 l0 882 ZM1110 1606 l0 180 l-748 0 l0 -180 l748 0 ZM514 1931 q70 2 114 44 q43 43 44 106 q-1 64 -44 106 q-44 42 -114 44 q-70 -2 -113 -44 q-44 -42 -45 -106 q1 -63 45 -106 q43 -42 113 -44 l0 0 ZM958 1931 q70 2 114 44 q43 43 44 106 q-1 64 -44 106 q-44 42 -114 44 q-70 -2 -113 -44 q-44 -42 -45 -106 q1 -63 45 -106 q43 -42 113 -44 l0 0 Z" /><glyph glyph-name="" unicode="&#x16e;" d="M524 1443 l-424 0 l0 -929 q4 -250 175 -393 q171 -143 461 -146 q290 3 461 146 q171 143 175 393 l0 929 l-424 0 l0 -882 q0 -114 -55 -174 q-54 -61 -157 -61 q-103 0 -157 61 q-55 60 -55 174 l0 882 ZM736 1520 q92 2 154 63 q62 60 65 149 q-3 91 -65 151 q-62 60 -154 62 q-92 -2 -155 -62 q-62 -60 -65 -151 q3 -89 65 -149 q63 -61 155 -63 l0 0 ZM736 1656 q-33 1 -56 22 q-23 22 -24 54 q1 33 24 55 q23 22 56 23 q33 -1 56 -23 q23 -22 24 -55 q-1 -32 -24 -54 q-23 -21 -56 -22 l0 0 Z" /><glyph glyph-name="" unicode="&#x172;" d="M964 -494 q56 0 99 7 q44 6 73 19 l0 193 q-7 -4 -28 -6 q-20 -3 -44 -3 q-60 0 -92 27 q-32 27 -32 77 q-1 62 54 129 q54 66 172 148 q100 70 153 177 q53 106 53 240 l0 929 l-424 0 l0 -882 q0 -114 -55 -174 q-54 -61 -157 -61 q-103 0 -157 61 q-55 60 -55 174 l0 882 l-424 0 l0 -929 q4 -248 174 -392 q170 -144 462 -147 q23 0 47 1 q24 2 39 4 l0 -8 q-70 -33 -116 -99 q-46 -66 -48 -137 q2 -104 85 -166 q83 -62 221 -64 l0 0 Z" /><glyph glyph-name="" unicode="&#x1af;" d="M736 -26 q292 3 462 147 q170 144 174 392 l0 671 l139 0 q119 1 185 63 q66 62 67 177 l0 290 l-303 0 l0 -205 q0 -32 -19 -49 q-18 -17 -49 -17 l-444 0 l0 -883 q0 -114 -55 -174 q-54 -60 -157 -60 q-103 0 -157 60 q-55 60 -55 174 l0 883 l-424 0 l0 -930 q4 -248 174 -392 q170 -144 462 -147 l0 0 Z" /><glyph glyph-name="" unicode="&#x1eea;" d="M590 1564 l306 0 l-232 321 l-348 0 l274 -321 ZM736 -26 q292 3 462 147 q170 144 174 392 l0 671 l139 0 q119 1 185 63 q66 62 67 177 l0 290 l-303 0 l0 -205 q0 -32 -19 -49 q-18 -17 -49 -17 l-444 0 l0 -883 q0 -114 -55 -174 q-54 -60 -157 -60 q-103 0 -157 60 q-55 60 -55 174 l0 883 l-424 0 l0 -930 q4 -248 174 -392 q170 -144 462 -147 l0 0 Z" /><glyph glyph-name="" unicode="&#x1ee8;" d="M876 1555 l274 321 l-348 0 l-232 -321 l306 0 ZM736 -26 q292 3 462 147 q170 144 174 392 l0 671 l139 0 q119 1 185 63 q66 62 67 177 l0 290 l-303 0 l0 -205 q0 -32 -19 -49 q-18 -17 -49 -17 l-444 0 l0 -883 q0 -114 -55 -174 q-54 -60 -157 -60 q-103 0 -157 60 q-55 60 -55 174 l0 883 l-424 0 l0 -930 q4 -248 174 -392 q170 -144 462 -147 l0 0 Z" /><glyph glyph-name="" unicode="&#x1ef0;" d="M736 -524 q77 2 126 52 q49 50 51 125 q-2 75 -51 124 q-49 50 -126 52 q-77 -2 -126 -52 q-49 -49 -51 -124 q2 -75 51 -125 q49 -50 126 -52 l0 0 ZM736 -26 q292 3 462 147 q170 144 174 392 l0 671 l139 0 q119 1 185 63 q66 62 67 177 l0 290 l-303 0 l0 -205 q0 -32 -19 -49 q-18 -17 -49 -17 l-444 0 l0 -883 q0 -114 -55 -174 q-54 -60 -157 -60 q-103 0 -157 60 q-55 60 -55 174 l0 883 l-424 0 l0 -930 q4 -248 174 -392 q170 -144 462 -147 l0 0 Z" /><glyph glyph-name="" unicode="&#x1eec;" d="M527 1807 q22 8 54 13 q32 5 57 5 q51 0 78 -21 q28 -20 28 -57 q-1 -34 -28 -65 q-28 -31 -74 -49 l111 -133 q96 43 155 115 q59 72 61 157 q-1 109 -74 170 q-73 60 -203 61 q-49 0 -93 -8 q-44 -7 -72 -21 l0 -167 ZM736 -26 q292 3 462 147 q170 144 174 392 l0 671 l139 0 q119 1 185 63 q66 62 67 177 l0 290 l-303 0 l0 -205 q0 -32 -19 -49 q-18 -17 -49 -17 l-444 0 l0 -883 q0 -114 -55 -174 q-54 -60 -157 -60 q-103 0 -157 60 q-55 60 -55 174 l0 883 l-424 0 l0 -930 q4 -248 174 -392 q170 -144 462 -147 l0 0 Z" /><glyph glyph-name="" unicode="&#x1eee;" d="M889 1546 q104 1 176 79 q72 78 75 219 l-201 0 q-2 -47 -18 -76 q-17 -29 -51 -30 q-48 7 -105 60 q-57 52 -163 59 q-104 -1 -176 -76 q-72 -76 -75 -217 l201 0 q2 41 18 70 q17 30 51 31 q48 -7 105 -59 q57 -53 163 -60 l0 0 ZM736 -26 q292 3 462 147 q170 144 174 392 l0 671 l139 0 q119 1 185 63 q66 62 67 177 l0 290 l-303 0 l0 -205 q0 -32 -19 -49 q-18 -17 -49 -17 l-444 0 l0 -883 q0 -114 -55 -174 q-54 -60 -157 -60 q-103 0 -157 60 q-55 60 -55 174 l0 883 l-424 0 l0 -930 q4 -248 174 -392 q170 -144 462 -147 l0 0 Z" /><glyph glyph-name="" unicode="v" d="M1018 0 l438 1443 l-468 0 l-231 -1041 l-8 0 l-231 1041 l-488 0 l438 -1443 l550 0 Z" /><glyph glyph-name="" unicode="&#x1e7c;" d="M1018 0 l438 1443 l-468 0 l-231 -1041 l-8 0 l-231 1041 l-488 0 l438 -1443 l550 0 ZM896 1546 q104 1 176 79 q72 78 75 219 l-201 0 q-2 -47 -18 -76 q-17 -29 -51 -30 q-48 7 -105 60 q-57 52 -163 59 q-104 -1 -176 -76 q-72 -76 -75 -217 l201 0 q2 41 18 70 q17 30 51 31 q48 -7 105 -59 q57 -53 163 -60 l0 0 Z" /><glyph glyph-name="" unicode="&#x1e7e;" d="M1018 0 l438 1443 l-468 0 l-231 -1041 l-8 0 l-231 1041 l-488 0 l438 -1443 l550 0 ZM743 -524 q77 2 126 52 q49 50 51 125 q-2 75 -51 124 q-49 50 -126 52 q-77 -2 -126 -52 q-49 -49 -51 -124 q2 -75 51 -125 q49 -50 126 -52 l0 0 Z" /><glyph glyph-name="" unicode="w" d="M1027 826 l8 0 l215 -826 l400 0 l372 1443 l-438 0 l-166 -912 l-8 0 l-215 912 l-328 0 l-215 -912 l-8 0 l-166 912 l-438 0 l372 -1443 l400 0 l215 826 Z" /><glyph glyph-name="" unicode="&#x1e80;" d="M1027 826 l8 0 l215 -826 l400 0 l372 1443 l-438 0 l-166 -912 l-8 0 l-215 912 l-328 0 l-215 -912 l-8 0 l-166 912 l-438 0 l372 -1443 l400 0 l215 826 ZM885 1564 l306 0 l-232 321 l-348 0 l274 -321 Z" /><glyph glyph-name="" unicode="&#x1e82;" d="M1027 826 l8 0 l215 -826 l400 0 l372 1443 l-438 0 l-166 -912 l-8 0 l-215 912 l-328 0 l-215 -912 l-8 0 l-166 912 l-438 0 l372 -1443 l400 0 l215 826 ZM1171 1555 l274 321 l-348 0 l-232 -321 l306 0 Z" /><glyph glyph-name="" unicode="&#x1e86;" d="M1027 826 l8 0 l215 -826 l400 0 l372 1443 l-438 0 l-166 -912 l-8 0 l-215 912 l-328 0 l-215 -912 l-8 0 l-166 912 l-438 0 l372 -1443 l400 0 l215 826 ZM1031 1536 q77 2 126 52 q49 50 51 125 q-2 75 -51 124 q-49 50 -126 52 q-77 -2 -126 -52 q-49 -49 -51 -124 q2 -75 51 -125 q49 -50 126 -52 l0 0 Z" /><glyph glyph-name="" unicode="&#x1e88;" d="M1027 826 l8 0 l215 -826 l400 0 l372 1443 l-438 0 l-166 -912 l-8 0 l-215 912 l-328 0 l-215 -912 l-8 0 l-166 912 l-438 0 l372 -1443 l400 0 l215 826 ZM1031 -524 q77 2 126 52 q49 50 51 125 q-2 75 -51 124 q-49 50 -126 52 q-77 -2 -126 -52 q-49 -49 -51 -124 q2 -75 51 -125 q49 -50 126 -52 l0 0 Z" /><glyph glyph-name="" unicode="&#x1e84;" d="M1027 826 l8 0 l215 -826 l400 0 l372 1443 l-438 0 l-166 -912 l-8 0 l-215 912 l-328 0 l-215 -912 l-8 0 l-166 912 l-438 0 l372 -1443 l400 0 l215 826 ZM809 1536 q70 2 114 44 q43 43 44 106 q-1 64 -44 106 q-44 42 -114 44 q-70 -2 -113 -44 q-44 -42 -45 -106 q1 -63 45 -106 q43 -42 113 -44 l0 0 ZM1253 1536 q70 2 114 44 q43 43 44 106 q-1 64 -44 106 q-44 42 -114 44 q-70 -2 -113 -44 q-44 -42 -45 -106 q1 -63 45 -106 q43 -42 113 -44 l0 0 Z" /><glyph glyph-name="" unicode="&#x174;" d="M1027 826 l8 0 l215 -826 l400 0 l372 1443 l-438 0 l-166 -912 l-8 0 l-215 912 l-328 0 l-215 -912 l-8 0 l-166 912 l-438 0 l372 -1443 l400 0 l215 826 ZM874 1872 l-255 -336 l276 0 l132 192 l8 0 l132 -192 l276 0 l-255 336 l-314 0 Z" /><glyph glyph-name="" unicode="x" d="M41 0 l448 0 l247 435 l9 0 l248 -435 l472 0 l-445 721 l0 8 l447 714 l-470 0 l-228 -460 l-8 0 l-227 460 l-494 0 l426 -712 l0 -8 l-425 -723 Z" /><glyph glyph-name="" unicode="&#x1e8a;" d="M41 0 l448 0 l247 435 l9 0 l248 -435 l472 0 l-445 721 l0 8 l447 714 l-470 0 l-228 -460 l-8 0 l-227 460 l-494 0 l426 -712 l0 -8 l-425 -723 ZM754 1536 q77 2 126 52 q49 50 51 125 q-2 75 -51 124 q-49 50 -126 52 q-77 -2 -126 -52 q-49 -49 -51 -124 q2 -75 51 -125 q49 -50 126 -52 l0 0 Z" /><glyph glyph-name="" unicode="&#x1e8c;" d="M41 0 l448 0 l247 435 l9 0 l248 -435 l472 0 l-445 721 l0 8 l447 714 l-470 0 l-228 -460 l-8 0 l-227 460 l-494 0 l426 -712 l0 -8 l-425 -723 ZM532 1536 q70 2 114 44 q43 43 44 106 q-1 64 -44 106 q-44 42 -114 44 q-70 -2 -113 -44 q-44 -42 -45 -106 q1 -63 45 -106 q43 -42 113 -44 l0 0 ZM976 1536 q70 2 114 44 q43 43 44 106 q-1 64 -44 106 q-44 42 -114 44 q-70 -2 -113 -44 q-44 -42 -45 -106 q1 -63 45 -106 q43 -42 113 -44 l0 0 Z" /><glyph glyph-name="" unicode="y" d="M947 0 l0 457 l493 986 l-443 0 l-253 -585 l-8 0 l-253 585 l-453 0 l493 -986 l0 -457 l424 0 Z" /><glyph glyph-name="" unicode="&#x1ef2;" d="M947 0 l0 457 l493 986 l-443 0 l-253 -585 l-8 0 l-253 585 l-453 0 l493 -986 l0 -457 l424 0 ZM589 1564 l306 0 l-232 321 l-348 0 l274 -321 Z" /><glyph glyph-name="" unicode="ý" d="M947 0 l0 457 l493 986 l-443 0 l-253 -585 l-8 0 l-253 585 l-453 0 l493 -986 l0 -457 l424 0 ZM875 1555 l274 321 l-348 0 l-232 -321 l306 0 Z" /><glyph glyph-name="" unicode="&#x1e8e;" d="M947 0 l0 457 l493 986 l-443 0 l-253 -585 l-8 0 l-253 585 l-453 0 l493 -986 l0 -457 l424 0 ZM735 1536 q77 2 126 52 q49 50 51 125 q-2 75 -51 124 q-49 50 -126 52 q-77 -2 -126 -52 q-49 -49 -51 -124 q2 -75 51 -125 q49 -50 126 -52 l0 0 Z" /><glyph glyph-name="" unicode="&#x1ef4;" d="M947 0 l0 457 l493 986 l-443 0 l-253 -585 l-8 0 l-253 585 l-453 0 l493 -986 l0 -457 l424 0 ZM735 -524 q77 2 126 52 q49 50 51 125 q-2 75 -51 124 q-49 50 -126 52 q-77 -2 -126 -52 q-49 -49 -51 -124 q2 -75 51 -125 q49 -50 126 -52 l0 0 Z" /><glyph glyph-name="" unicode="&#x178;" d="M947 0 l0 457 l493 986 l-443 0 l-253 -585 l-8 0 l-253 585 l-453 0 l493 -986 l0 -457 l424 0 ZM513 1536 q70 2 114 44 q43 43 44 106 q-1 64 -44 106 q-44 42 -114 44 q-70 -2 -113 -44 q-44 -42 -45 -106 q1 -63 45 -106 q43 -42 113 -44 l0 0 ZM957 1536 q70 2 114 44 q43 43 44 106 q-1 64 -44 106 q-44 42 -114 44 q-70 -2 -113 -44 q-44 -42 -45 -106 q1 -63 45 -106 q43 -42 113 -44 l0 0 Z" /><glyph glyph-name="" unicode="&#x1ef8;" d="M947 0 l0 457 l493 986 l-443 0 l-253 -585 l-8 0 l-253 585 l-453 0 l493 -986 l0 -457 l424 0 ZM888 1546 q104 1 176 79 q72 78 75 219 l-201 0 q-2 -47 -18 -76 q-17 -29 -51 -30 q-48 7 -105 60 q-57 52 -163 59 q-104 -1 -176 -76 q-72 -76 -75 -217 l201 0 q2 41 18 70 q17 30 51 31 q48 -7 105 -59 q57 -53 163 -60 l0 0 Z" /><glyph glyph-name="" unicode="&#x176;" d="M947 0 l0 457 l493 986 l-443 0 l-253 -585 l-8 0 l-253 585 l-453 0 l493 -986 l0 -457 l424 0 ZM578 1872 l-255 -336 l276 0 l132 192 l8 0 l132 -192 l276 0 l-255 336 l-314 0 Z" /><glyph glyph-name="" unicode="&#x232;" d="M947 0 l0 457 l493 986 l-443 0 l-253 -585 l-8 0 l-253 585 l-453 0 l493 -986 l0 -457 l424 0 ZM1109 1786 l-748 0 l0 -180 l748 0 l0 180 Z" /><glyph glyph-name="" unicode="&#x1ef6;" d="M947 0 l0 457 l493 986 l-443 0 l-253 -585 l-8 0 l-253 585 l-453 0 l493 -986 l0 -457 l424 0 ZM526 1807 q22 8 54 13 q32 5 57 5 q51 0 78 -21 q28 -20 28 -57 q-1 -34 -28 -65 q-28 -31 -74 -49 l111 -133 q96 43 155 115 q59 72 61 157 q-1 109 -74 170 q-73 60 -203 61 q-49 0 -93 -8 q-44 -7 -72 -21 l0 -167 Z" /><glyph glyph-name="" unicode="z" d="M80 0 l1161 0 l0 337 l-665 0 l0 8 l641 833 l0 265 l-1131 0 l0 -337 l637 0 l0 -8 l-643 -832 l0 -266 Z" /><glyph glyph-name="" unicode="&#x179;" d="M80 0 l1161 0 l0 337 l-665 0 l0 8 l641 833 l0 265 l-1131 0 l0 -337 l637 0 l0 -8 l-643 -832 l0 -266 ZM801 1555 l274 321 l-348 0 l-232 -321 l306 0 Z" /><glyph glyph-name="" unicode="&#x17d;" d="M80 0 l1161 0 l0 337 l-665 0 l0 8 l641 833 l0 265 l-1131 0 l0 -337 l637 0 l0 -8 l-643 -832 l0 -266 ZM504 1536 l314 0 l255 336 l-276 0 l-132 -192 l-8 0 l-132 192 l-276 0 l255 -336 Z" /><glyph glyph-name="" unicode="&#x1e90;" d="M80 0 l1161 0 l0 337 l-665 0 l0 8 l641 833 l0 265 l-1131 0 l0 -337 l637 0 l0 -8 l-643 -832 l0 -266 ZM504 1872 l-255 -336 l276 0 l132 192 l8 0 l132 -192 l276 0 l-255 336 l-314 0 Z" /><glyph glyph-name="" unicode="&#x1e94;" d="M80 0 l1161 0 l0 337 l-665 0 l0 8 l641 833 l0 265 l-1131 0 l0 -337 l637 0 l0 -8 l-643 -832 l0 -266 ZM1035 -240 l-748 0 l0 -180 l748 0 l0 180 Z" /><glyph glyph-name="" unicode="&#x1e92;" d="M80 0 l1161 0 l0 337 l-665 0 l0 8 l641 833 l0 265 l-1131 0 l0 -337 l637 0 l0 -8 l-643 -832 l0 -266 ZM661 -524 q77 2 126 52 q49 50 51 125 q-2 75 -51 124 q-49 50 -126 52 q-77 -2 -126 -52 q-49 -49 -51 -124 q2 -75 51 -125 q49 -50 126 -52 l0 0 Z" /><glyph glyph-name="" unicode="&#x17b;" d="M80 0 l1161 0 l0 337 l-665 0 l0 8 l641 833 l0 265 l-1131 0 l0 -337 l637 0 l0 -8 l-643 -832 l0 -266 ZM661 1536 q77 2 126 52 q49 50 51 125 q-2 75 -51 124 q-49 50 -126 52 q-77 -2 -126 -52 q-49 -49 -51 -124 q2 -75 51 -125 q49 -50 126 -52 l0 0 Z" /><glyph glyph-name="" unicode="æ" d="M858 1129 l112 0 l0 -543 l-300 0 l188 543 ZM970 0 l1015 0 l0 336 l-643 0 l0 233 l606 0 l0 304 l-606 0 l0 234 l643 0 l0 336 l-1395 0 l-540 -1443 l418 0 l99 286 l403 0 l0 -286 Z" /><glyph glyph-name="" unicode="&#x1e2;" d="M858 1129 l112 0 l0 -543 l-300 0 l188 543 ZM970 0 l1015 0 l0 336 l-643 0 l0 233 l606 0 l0 304 l-606 0 l0 234 l643 0 l0 336 l-1395 0 l-540 -1443 l418 0 l99 286 l403 0 l0 -286 ZM1871 1786 l-748 0 l0 -180 l748 0 l0 180 Z" /><glyph glyph-name="" unicode="&#x1fc;" d="M858 1129 l112 0 l0 -543 l-300 0 l188 543 ZM970 0 l1015 0 l0 336 l-643 0 l0 233 l606 0 l0 304 l-606 0 l0 234 l643 0 l0 336 l-1395 0 l-540 -1443 l418 0 l99 286 l403 0 l0 -286 ZM1412 1555 l274 321 l-348 0 l-232 -321 l306 0 Z" /><glyph glyph-name="" unicode="&#x152;" d="M802 1136 q135 -2 214 -114 q79 -111 81 -301 q-2 -190 -81 -301 q-79 -111 -214 -113 q-135 2 -214 113 q-79 111 -81 301 q2 190 81 301 q79 112 214 114 l0 0 ZM1160 0 l958 0 l0 337 l-594 0 l0 232 l557 0 l0 304 l-557 0 l0 233 l594 0 l0 337 l-958 0 l0 -254 q-53 140 -171 216 q-119 77 -276 78 q-278 -6 -455 -213 q-177 -208 -183 -549 q6 -340 181 -547 q176 -208 450 -214 q163 2 290 81 q127 78 164 203 l0 -244 Z" /><glyph glyph-name="" unicode="ð" d="M550 337 l0 244 l233 0 l0 279 l-233 0 l0 246 l133 0 q153 -1 238 -96 q84 -95 85 -278 q0 -199 -82 -297 q-82 -98 -241 -98 l-133 0 ZM126 1443 l0 -583 l-66 0 l0 -279 l66 0 l0 -581 l617 0 q330 2 511 193 q182 190 184 539 q-2 348 -183 529 q-181 181 -512 182 l-617 0 Z" /><glyph glyph-name="" unicode="þ" d="M142 1443 l0 -1443 l424 0 l0 242 l216 0 q259 2 406 134 q147 132 150 363 q-3 233 -142 366 q-139 132 -385 134 l-242 0 l0 204 l-427 0 ZM566 919 l132 0 q104 0 158 -46 q54 -46 54 -135 q0 -89 -55 -136 q-54 -46 -160 -46 l-129 0 l0 363 Z" /><glyph glyph-name="" unicode="&#x391;" d="M1052 0 l452 0 l-471 1443 l-532 0 l-471 -1443 l432 0 l75 287 l440 0 l75 -287 ZM753 1110 l8 0 l139 -524 l-286 0 l139 524 Z" /><glyph glyph-name="" unicode="&#x392;" d="M833 0 q235 3 370 115 q136 113 139 305 q-4 146 -106 241 q-102 95 -252 102 l0 8 q128 18 209 102 q81 84 84 210 q-2 170 -123 264 q-122 95 -345 96 l-709 0 l0 -1443 l733 0 ZM524 1152 l170 0 q81 -1 126 -38 q44 -38 45 -105 q-1 -66 -48 -105 q-46 -38 -129 -39 l-164 0 l0 287 ZM524 291 l0 331 l184 0 q96 -1 149 -43 q53 -42 54 -120 q-1 -82 -54 -125 q-53 -43 -152 -43 l-181 0 Z" /><glyph glyph-name="" unicode="&#x393;" d="M524 0 l0 1106 l570 0 l0 337 l-994 0 l0 -1443 l424 0 Z" /><glyph glyph-name="" unicode="&#x394;" d="M1440 0 l0 217 l-429 1226 l-532 0 l-429 -1226 l0 -217 l1390 0 ZM484 344 l239 775 l8 0 l232 -775 l0 -8 l-479 0 l0 8 Z" /><glyph glyph-name="" unicode="&#x395;" d="M1118 337 l-594 0 l0 232 l557 0 l0 304 l-557 0 l0 233 l594 0 l0 337 l-1018 0 l0 -1443 l1018 0 l0 337 Z" /><glyph glyph-name="" unicode="&#x396;" d="M80 0 l1161 0 l0 337 l-665 0 l0 8 l641 833 l0 265 l-1131 0 l0 -337 l637 0 l0 -8 l-643 -832 l0 -266 Z" /><glyph glyph-name="" unicode="&#x397;" d="M1456 0 l0 1443 l-424 0 l0 -548 l-508 0 l0 548 l-424 0 l0 -1443 l424 0 l0 558 l508 0 l0 -558 l424 0 Z" /><glyph glyph-name="" unicode="&#x398;" d="M1039 568 l0 294 l-418 0 l0 -294 l418 0 ZM832 1468 q-374 -4 -570 -204 q-196 -199 -197 -542 q3 -344 202 -543 q200 -200 565 -204 q364 4 564 204 q199 199 202 543 q-1 343 -197 542 q-196 200 -569 204 l0 0 ZM832 1130 q164 -1 252 -107 q87 -106 88 -301 q-1 -196 -88 -302 q-88 -106 -252 -107 q-165 1 -253 107 q-87 106 -88 302 q1 195 88 301 q88 106 253 107 l0 0 Z" /><glyph glyph-name="" unicode="&#x399;" d="M524 0 l0 1443 l-424 0 l0 -1443 l424 0 Z" /><glyph glyph-name="" unicode="&#x39a;" d="M524 0 l0 378 l113 152 l315 -530 l493 0 l-497 802 l475 641 l-445 0 l-446 -612 l-8 0 l0 612 l-424 0 l0 -1443 l424 0 Z" /><glyph glyph-name="" unicode="&#x39b;" d="M1012 0 l471 0 l-460 1443 l-532 0 l-461 -1443 l452 0 l263 1090 l8 0 l259 -1090 Z" /><glyph glyph-name="" unicode="&#x39c;" d="M1733 0 l0 1443 l-490 0 l-322 -842 l-8 0 l-323 842 l-490 0 l0 -1443 l370 0 l0 836 l8 0 l325 -819 l227 0 l325 819 l8 0 l0 -836 l370 0 Z" /><glyph glyph-name="" unicode="&#x39d;" d="M500 0 l0 760 l8 0 l561 -760 l325 0 l0 1443 l-400 0 l0 -748 l-8 0 l-557 748 l-329 0 l0 -1443 l400 0 Z" /><glyph glyph-name="" unicode="&#x39e;" d="M98 1443 l0 -346 l1116 0 l0 346 l-1116 0 ZM1127 563 l0 314 l-942 0 l0 -314 l942 0 ZM98 346 l0 -346 l1116 0 l0 346 l-1116 0 Z" /><glyph glyph-name="" unicode="&#x39f;" d="M792 1468 q-338 -3 -531 -201 q-192 -197 -196 -546 q4 -349 196 -546 q192 -197 531 -200 q338 3 531 200 q192 197 196 546 q-4 349 -196 546 q-193 198 -531 201 l0 0 ZM792 1130 q135 -2 214 -111 q79 -108 81 -298 q-2 -189 -81 -297 q-79 -109 -214 -111 q-135 2 -214 111 q-79 108 -81 297 q2 190 81 298 q79 109 214 111 l0 0 Z" /><glyph glyph-name="" unicode="&#x3a0;" d="M1436 0 l0 1443 l-1336 0 l0 -1443 l424 0 l0 1107 l488 0 l0 -1107 l424 0 Z" /><glyph glyph-name="" unicode="&#x3a1;" d="M100 1443 l0 -1443 l424 0 l0 394 l206 0 q257 3 409 142 q153 140 157 381 q-3 244 -148 383 q-145 140 -389 143 l-659 0 ZM524 1124 l122 0 q104 0 163 -53 q58 -52 59 -155 q-1 -104 -60 -156 q-58 -53 -165 -53 l-119 0 l0 417 Z" /><glyph glyph-name="" unicode="&#x3a3;" d="M601 345 l286 382 l0 8 l-251 363 l0 8 l561 0 l0 337 l-1093 0 l0 -285 l321 -436 l-345 -483 l0 -239 l1140 0 l0 337 l-619 0 l0 8 Z" /><glyph glyph-name="" unicode="&#x3a4;" d="M849 0 l0 1106 l380 0 l0 337 l-1184 0 l0 -337 l380 0 l0 -1106 l424 0 Z" /><glyph glyph-name="" unicode="&#x3a5;" d="M947 0 l0 457 l493 986 l-443 0 l-253 -585 l-8 0 l-253 585 l-453 0 l493 -986 l0 -457 l424 0 Z" /><glyph glyph-name="" unicode="&#x3a6;" d="M1488 710 q-1 -167 -86 -267 q-84 -100 -242 -121 l0 776 q158 -21 242 -121 q85 -100 86 -267 l0 0 ZM458 710 q1 167 86 267 q84 100 242 121 l0 -776 q-158 21 -242 121 q-85 100 -86 267 l0 0 ZM1160 -153 l0 158 q328 20 529 210 q201 190 207 495 q-6 305 -207 495 q-201 190 -529 210 l0 158 l-374 0 l0 -158 q-328 -20 -529 -210 q-201 -190 -207 -495 q6 -305 207 -495 q201 -190 529 -210 l0 -158 l374 0 Z" /><glyph glyph-name="" unicode="&#x3a7;" d="M41 0 l448 0 l247 435 l9 0 l248 -435 l472 0 l-445 721 l0 8 l447 714 l-470 0 l-228 -460 l-8 0 l-227 460 l-494 0 l426 -712 l0 -8 l-425 -723 Z" /><glyph glyph-name="" unicode="&#x3a8;" d="M1092 0 l0 279 q297 12 456 177 q160 164 162 452 l0 535 l-394 0 l0 -546 q1 -130 -53 -203 q-54 -73 -171 -90 l0 839 l-394 0 l0 -839 q-117 17 -171 90 q-54 73 -53 203 l0 546 l-394 0 l0 -535 q2 -288 162 -452 q159 -165 456 -177 l0 -279 l394 0 Z" /><glyph glyph-name="" unicode="&#x3a9;" d="M1117 782 q-1 -145 -55 -236 q-55 -91 -151 -142 l0 -404 l628 0 l0 316 l-273 0 l0 8 q121 62 196 191 q75 129 77 307 q-5 294 -205 468 q-199 174 -532 178 q-333 -4 -532 -178 q-200 -174 -205 -468 q2 -178 77 -307 q75 -129 196 -191 l0 -8 l-273 0 l0 -316 l628 0 l0 404 q-96 51 -151 142 q-54 91 -55 236 q3 169 89 258 q86 89 226 90 q140 -1 226 -90 q86 -89 89 -258 l0 0 Z" /><glyph glyph-name="" unicode="&#x386;" d="M1228 0 l452 0 l-471 1443 l-532 0 l-471 -1443 l432 0 l75 287 l440 0 l75 -287 ZM929 1110 l8 0 l139 -524 l-286 0 l139 524 ZM72 1102 l300 0 l166 341 l-392 0 l-74 -341 Z" /><glyph glyph-name="" unicode="&#x388;" d="M1633 337 l-594 0 l0 232 l557 0 l0 304 l-557 0 l0 233 l594 0 l0 337 l-1018 0 l0 -1443 l1018 0 l0 337 ZM20 1102 l300 0 l166 341 l-392 0 l-74 -341 Z" /><glyph glyph-name="" unicode="&#x389;" d="M1971 0 l0 1443 l-424 0 l0 -548 l-508 0 l0 548 l-424 0 l0 -1443 l424 0 l0 558 l508 0 l0 -558 l424 0 ZM20 1102 l300 0 l166 341 l-392 0 l-74 -341 Z" /><glyph glyph-name="" unicode="&#x38a;" d="M1039 0 l0 1443 l-424 0 l0 -1443 l424 0 ZM20 1102 l300 0 l166 341 l-392 0 l-74 -341 Z" /><glyph glyph-name="" unicode="&#x3aa;" d="M524 0 l0 1443 l-424 0 l0 -1443 l424 0 ZM90 1536 q70 2 114 44 q43 43 44 106 q-1 64 -44 106 q-44 42 -114 44 q-70 -2 -113 -44 q-44 -42 -45 -106 q1 -63 45 -106 q43 -42 113 -44 l0 0 ZM534 1536 q70 2 114 44 q43 43 44 106 q-1 64 -44 106 q-44 42 -114 44 q-70 -2 -113 -44 q-44 -42 -45 -106 q1 -63 45 -106 q43 -42 113 -44 l0 0 Z" /><glyph glyph-name="" unicode="&#x38c;" d="M1117 1468 q-338 -3 -531 -201 q-192 -197 -196 -546 q4 -349 196 -546 q192 -197 531 -200 q338 3 531 200 q192 197 196 546 q-4 349 -196 546 q-193 198 -531 201 l0 0 ZM1117 1130 q135 -2 214 -111 q79 -108 81 -298 q-2 -189 -81 -297 q-79 -109 -214 -111 q-135 2 -214 111 q-79 108 -81 297 q2 190 81 298 q79 109 214 111 l0 0 ZM20 1102 l300 0 l166 341 l-392 0 l-74 -341 Z" /><glyph glyph-name="" unicode="&#x38e;" d="M1471 0 l0 457 l493 986 l-443 0 l-253 -585 l-8 0 l-253 585 l-453 0 l493 -986 l0 -457 l424 0 ZM20 1102 l300 0 l166 341 l-392 0 l-74 -341 Z" /><glyph glyph-name="" unicode="&#x3ab;" d="M947 0 l0 457 l493 986 l-443 0 l-253 -585 l-8 0 l-253 585 l-453 0 l493 -986 l0 -457 l424 0 ZM513 1536 q70 2 114 44 q43 43 44 106 q-1 64 -44 106 q-44 42 -114 44 q-70 -2 -113 -44 q-44 -42 -45 -106 q1 -63 45 -106 q43 -42 113 -44 l0 0 ZM957 1536 q70 2 114 44 q43 43 44 106 q-1 64 -44 106 q-44 42 -114 44 q-70 -2 -113 -44 q-44 -42 -45 -106 q1 -63 45 -106 q43 -42 113 -44 l0 0 Z" /><glyph glyph-name="" unicode="&#x38f;" d="M1457 782 q-1 -145 -55 -236 q-55 -91 -151 -142 l0 -404 l628 0 l0 316 l-273 0 l0 8 q121 62 196 191 q75 129 77 307 q-5 294 -205 468 q-199 174 -532 178 q-333 -4 -532 -178 q-200 -174 -205 -468 q2 -178 77 -307 q75 -129 196 -191 l0 -8 l-273 0 l0 -316 l628 0 l0 404 q-96 51 -151 142 q-54 91 -55 236 q3 169 89 258 q86 89 226 90 q140 -1 226 -90 q86 -89 89 -258 l0 0 ZM20 1102 l300 0 l166 341 l-392 0 l-74 -341 Z" /><glyph glyph-name="" unicode="&#x410;" d="M1062 0 l452 0 l-471 1443 l-532 0 l-471 -1443 l432 0 l75 287 l440 0 l75 -287 ZM763 1110 l8 0 l139 -524 l-286 0 l139 524 Z" /><glyph glyph-name="" unicode="&#x4d0;" d="M1062 0 l452 0 l-471 1443 l-532 0 l-471 -1443 l432 0 l75 287 l440 0 l75 -287 ZM763 1110 l8 0 l139 -524 l-286 0 l139 524 ZM379 1877 q3 -151 106 -235 q103 -85 277 -86 q174 1 277 86 q103 84 106 235 l-229 0 q-3 -68 -44 -102 q-42 -34 -110 -34 q-68 0 -110 34 q-41 34 -44 102 l-229 0 Z" /><glyph glyph-name="" unicode="&#x4d2;" d="M1062 0 l452 0 l-471 1443 l-532 0 l-471 -1443 l432 0 l75 287 l440 0 l75 -287 ZM763 1110 l8 0 l139 -524 l-286 0 l139 524 ZM555 1536 q70 2 114 44 q43 43 44 106 q-1 64 -44 106 q-44 42 -114 44 q-70 -2 -113 -44 q-44 -42 -45 -106 q1 -63 45 -106 q43 -42 113 -44 l0 0 ZM999 1536 q70 2 114 44 q43 43 44 106 q-1 64 -44 106 q-44 42 -114 44 q-70 -2 -113 -44 q-44 -42 -45 -106 q1 -63 45 -106 q43 -42 113 -44 l0 0 Z" /><glyph glyph-name="" unicode="&#x411;" d="M1306 476 q-4 212 -154 334 q-150 122 -402 124 l-216 0 l0 173 l650 0 l0 336 l-1074 0 l0 -1443 l659 0 q244 2 389 129 q145 126 148 347 l0 0 ZM534 320 l0 315 l129 0 q100 0 155 -40 q55 -39 56 -118 q-1 -78 -56 -117 q-54 -40 -152 -40 l-132 0 Z" /><glyph glyph-name="" unicode="&#x412;" d="M843 0 q235 3 370 115 q136 113 139 305 q-4 146 -106 241 q-102 95 -252 102 l0 8 q128 18 209 102 q81 84 84 210 q-2 170 -123 264 q-122 95 -345 96 l-709 0 l0 -1443 l733 0 ZM534 1152 l170 0 q81 -1 126 -38 q44 -38 45 -105 q-1 -66 -48 -105 q-46 -38 -129 -39 l-164 0 l0 287 ZM534 291 l0 331 l184 0 q96 -1 149 -43 q53 -42 54 -120 q-1 -82 -54 -125 q-53 -43 -152 -43 l-181 0 Z" /><glyph glyph-name="" unicode="&#x413;" d="M534 0 l0 1107 l580 0 l0 336 l-1004 0 l0 -1443 l424 0 Z" /><glyph glyph-name="" unicode="&#x403;" d="M534 0 l0 1107 l580 0 l0 336 l-1004 0 l0 -1443 l424 0 ZM793 1525 l274 321 l-348 0 l-232 -321 l306 0 Z" /><glyph glyph-name="" unicode="&#x490;" d="M534 1107 l580 0 l0 621 l-400 0 l0 -285 l-604 0 l0 -1443 l424 0 l0 1107 Z" /><glyph glyph-name="" unicode="&#x4f6;" d="M1114 1107 l0 336 l-1004 0 l0 -1107 l0 -336 l224 0 l0 -285 l380 0 l0 621 l-180 0 l0 771 l580 0 Z" /><glyph glyph-name="" unicode="&#x492;" d="M1154 1107 l0 336 l-1004 0 l0 -603 l-66 0 l0 -279 l66 0 l0 -561 l424 0 l0 561 l373 0 l0 279 l-373 0 l0 267 l580 0 Z" /><glyph glyph-name="" unicode="&#x4fa;" d="M1154 1107 l0 336 l-1004 0 l0 -603 l-56 0 l0 -279 l56 0 l0 -151 l0 -385 q0 -47 -28 -69 q-29 -21 -91 -21 q-13 0 -25 1 q-13 1 -22 2 l0 -286 q20 -2 56 -4 q37 -2 69 -2 q214 1 337 93 q123 92 128 261 l0 0 l0 7 l0 403 l0 151 l513 0 l0 279 l-513 0 l0 267 l580 0 Z" /><glyph glyph-name="" unicode="&#x414;" d="M630 679 l29 429 l359 0 l0 -771 l-479 0 l0 8 q43 49 63 132 q21 84 28 202 l0 0 ZM400 0 l842 0 l0 -285 l380 0 l0 622 l-180 0 l0 1106 l-1154 0 l-45 -723 q-8 -149 -33 -236 q-25 -88 -95 -147 l-95 0 l0 -622 l380 0 l0 285 Z" /><glyph glyph-name="" unicode="&#x415;" d="M1128 337 l-594 0 l0 232 l557 0 l0 304 l-557 0 l0 233 l594 0 l0 337 l-1018 0 l0 -1443 l1018 0 l0 337 Z" /><glyph glyph-name="" unicode="&#x401;" d="M1128 337 l-594 0 l0 232 l557 0 l0 304 l-557 0 l0 233 l594 0 l0 337 l-1018 0 l0 -1443 l1018 0 l0 337 ZM396 1536 q70 2 114 44 q43 43 44 106 q-1 64 -44 106 q-44 42 -114 44 q-70 -2 -113 -44 q-44 -42 -45 -106 q1 -63 45 -106 q43 -42 113 -44 l0 0 ZM840 1536 q70 2 114 44 q43 43 44 106 q-1 64 -44 106 q-44 42 -114 44 q-70 -2 -113 -44 q-44 -42 -45 -106 q1 -63 45 -106 q43 -42 113 -44 l0 0 Z" /><glyph glyph-name="" unicode="&#x4d6;" d="M1128 337 l-594 0 l0 232 l557 0 l0 304 l-557 0 l0 233 l594 0 l0 337 l-1018 0 l0 -1443 l1018 0 l0 337 ZM227 1877 q3 -151 106 -235 q103 -85 277 -86 q174 1 277 86 q103 84 106 235 l-229 0 q-3 -68 -44 -102 q-42 -34 -110 -34 q-68 0 -110 34 q-41 34 -44 102 l-229 0 Z" /><glyph glyph-name="" unicode="&#x400;" d="M1128 337 l-594 0 l0 232 l557 0 l0 304 l-557 0 l0 233 l594 0 l0 337 l-1018 0 l0 -1443 l1018 0 l0 337 ZM472 1564 l306 0 l-232 321 l-348 0 l274 -321 Z" /><glyph glyph-name="" unicode="&#x416;" d="M1636 765 l488 678 l-450 0 l-384 -558 l-8 0 l0 558 l-408 0 l0 -558 l-8 0 l-384 558 l-455 0 l493 -686 l-505 -757 l492 0 l359 567 l8 0 l0 -567 l408 0 l0 567 l8 0 l359 -567 l497 0 l-510 765 Z" /><glyph glyph-name="" unicode="&#x4c1;" d="M1239 1870 q-3 -66 -43 -106 q-41 -41 -116 -42 q-75 1 -115 42 q-41 40 -44 106 l-236 0 q5 -139 105 -234 q101 -96 290 -100 q190 4 290 100 q100 95 105 234 l-236 0 ZM1636 765 l488 678 l-450 0 l-384 -558 l-8 0 l0 558 l-408 0 l0 -558 l-8 0 l-384 558 l-455 0 l493 -686 l-505 -757 l492 0 l359 567 l8 0 l0 -567 l408 0 l0 567 l8 0 l359 -567 l497 0 l-510 765 Z" /><glyph glyph-name="" unicode="&#x4dc;" d="M1302 1536 q70 2 114 44 q43 43 44 106 q-1 64 -44 106 q-44 42 -114 44 q-70 -2 -113 -44 q-44 -42 -45 -106 q1 -63 45 -106 q43 -42 113 -44 l0 0 ZM858 1536 q70 2 114 44 q43 43 44 106 q-1 64 -44 106 q-44 42 -114 44 q-70 -2 -113 -44 q-44 -42 -45 -106 q1 -63 45 -106 q43 -42 113 -44 l0 0 ZM1636 765 l488 678 l-450 0 l-384 -558 l-8 0 l0 558 l-408 0 l0 -558 l-8 0 l-384 558 l-455 0 l493 -686 l-505 -757 l492 0 l359 567 l8 0 l0 -567 l408 0 l0 567 l8 0 l359 -567 l497 0 l-510 765 Z" /><glyph glyph-name="" unicode="&#x496;" d="M1922 336 l-286 429 l488 678 l-450 0 l-384 -558 l-8 0 l0 558 l-408 0 l0 -558 l-8 0 l-384 558 l-455 0 l493 -686 l-505 -757 l492 0 l359 567 l8 0 l0 -567 l408 0 l0 567 l8 0 l359 -567 l15 0 l102 0 l0 -285 l380 0 l0 621 l-224 0 Z" /><glyph glyph-name="" unicode="&#x417;" d="M498 582 l185 0 q93 0 145 -36 q51 -36 52 -102 q-1 -71 -53 -113 q-52 -42 -140 -43 q-98 1 -154 42 q-57 41 -59 114 l-404 0 q13 -223 175 -352 q163 -129 433 -132 q289 3 461 124 q172 121 176 324 q-2 145 -89 238 q-87 92 -237 108 l0 8 q126 24 200 111 q74 87 76 214 q-3 182 -157 288 q-155 106 -419 108 q-273 -3 -431 -130 q-157 -128 -162 -350 l383 0 q1 77 56 123 q54 46 145 47 q90 -1 140 -37 q50 -37 51 -104 q-1 -66 -50 -103 q-50 -36 -136 -37 l-187 0 l0 -310 Z" /><glyph glyph-name="" unicode="&#x4de;" d="M498 582 l185 0 q93 0 145 -36 q51 -36 52 -102 q-1 -71 -53 -113 q-52 -42 -140 -43 q-98 1 -154 42 q-57 41 -59 114 l-404 0 q13 -223 175 -352 q163 -129 433 -132 q289 3 461 124 q172 121 176 324 q-2 145 -89 238 q-87 92 -237 108 l0 8 q126 24 200 111 q74 87 76 214 q-3 182 -157 288 q-155 106 -419 108 q-273 -3 -431 -130 q-157 -128 -162 -350 l383 0 q1 77 56 123 q54 46 145 47 q90 -1 140 -37 q50 -37 51 -104 q-1 -66 -50 -103 q-50 -36 -136 -37 l-187 0 l0 -310 ZM472 1536 q70 2 114 44 q43 43 44 106 q-1 64 -44 106 q-44 42 -114 44 q-70 -2 -113 -44 q-44 -42 -45 -106 q1 -63 45 -106 q43 -42 113 -44 l0 0 ZM916 1536 q70 2 114 44 q43 43 44 106 q-1 64 -44 106 q-44 42 -114 44 q-70 -2 -113 -44 q-44 -42 -45 -106 q1 -63 45 -106 q43 -42 113 -44 l0 0 Z" /><glyph glyph-name="" unicode="&#x498;" d="M989 762 q126 24 200 111 q74 87 76 214 q-3 182 -157 288 q-155 106 -419 108 q-273 -3 -431 -130 q-157 -128 -162 -350 l383 0 q1 77 56 123 q54 46 145 47 q90 -1 140 -37 q50 -37 51 -104 q-1 -66 -50 -103 q-50 -36 -136 -37 l-187 0 l0 -310 l185 0 q93 0 145 -36 q51 -36 52 -102 q-1 -71 -53 -113 q-52 -42 -140 -43 q-98 1 -154 42 q-57 41 -59 114 l-404 0 q10 -188 130 -311 q119 -122 322 -160 l0 -258 l380 0 l0 269 q192 44 301 155 q110 110 112 269 q-2 145 -89 238 q-87 92 -237 108 l0 8 Z" /><glyph glyph-name="" unicode="&#x418;" d="M1052 0 l424 0 l0 1443 l-404 0 l-530 -803 l-8 0 l0 803 l-424 0 l0 -1443 l404 0 l530 803 l8 0 l0 -803 Z" /><glyph glyph-name="" unicode="&#x419;" d="M1052 0 l424 0 l0 1443 l-404 0 l-530 -803 l-8 0 l0 803 l-424 0 l0 -1443 l404 0 l530 803 l8 0 l0 -803 ZM410 1827 q3 -151 106 -235 q103 -85 277 -86 q174 1 277 86 q103 84 106 235 l-229 0 q-3 -68 -44 -102 q-42 -34 -110 -34 q-68 0 -110 34 q-41 34 -44 102 l-229 0 Z" /><glyph glyph-name="" unicode="&#x40d;" d="M1052 0 l424 0 l0 1443 l-404 0 l-530 -803 l-8 0 l0 803 l-424 0 l0 -1443 l404 0 l530 803 l8 0 l0 -803 ZM664 1555 l306 0 l-232 321 l-348 0 l274 -321 Z" /><glyph glyph-name="" unicode="&#x4e2;" d="M1052 0 l424 0 l0 1443 l-404 0 l-530 -803 l-8 0 l0 803 l-424 0 l0 -1443 l404 0 l530 803 l8 0 l0 -803 ZM1154 1786 l-748 0 l0 -180 l748 0 l0 180 Z" /><glyph glyph-name="" unicode="&#x4e4;" d="M1052 0 l424 0 l0 1443 l-404 0 l-530 -803 l-8 0 l0 803 l-424 0 l0 -1443 l404 0 l530 803 l8 0 l0 -803 ZM558 1536 q70 2 114 44 q43 43 44 106 q-1 64 -44 106 q-44 42 -114 44 q-70 -2 -113 -44 q-44 -42 -45 -106 q1 -63 45 -106 q43 -42 113 -44 l0 0 ZM1002 1536 q70 2 114 44 q43 43 44 106 q-1 64 -44 106 q-44 42 -114 44 q-70 -2 -113 -44 q-44 -42 -45 -106 q1 -63 45 -106 q43 -42 113 -44 l0 0 Z" /><glyph glyph-name="" unicode="&#x48a;" d="M947 1827 q-3 -68 -44 -102 q-42 -34 -110 -34 q-68 0 -110 34 q-41 34 -44 102 l-229 0 q3 -151 106 -235 q103 -85 277 -86 q174 1 277 86 q103 84 106 235 l-229 0 ZM1476 336 l0 1107 l-404 0 l-530 -803 l-8 0 l0 803 l-424 0 l0 -1443 l404 0 l530 803 l8 0 l0 -467 l0 -336 l182 0 l-81 -285 l366 0 l135 548 l0 73 l-178 0 Z" /><glyph glyph-name="" unicode="&#x41a;" d="M903 766 l540 677 l-455 0 l-446 -558 l-8 0 l0 558 l-424 0 l0 -1443 l424 0 l0 567 l8 0 l421 -567 l507 0 l-567 766 Z" /><glyph glyph-name="" unicode="&#x40c;" d="M1197 1846 l-348 0 l-232 -321 l306 0 l274 321 ZM903 766 l540 677 l-455 0 l-446 -558 l-8 0 l0 558 l-424 0 l0 -1443 l424 0 l0 567 l8 0 l421 -567 l507 0 l-567 766 Z" /><glyph glyph-name="" unicode="&#x49a;" d="M1221 336 l-318 430 l540 677 l-455 0 l-446 -558 l-8 0 l0 558 l-424 0 l0 -1443 l424 0 l0 567 l8 0 l421 -567 l15 0 l112 0 l0 -285 l380 0 l0 621 l-249 0 Z" /><glyph glyph-name="" unicode="&#x49c;" d="M1217 728 l326 715 l-405 0 l-275 -605 l-3 0 l0 280 l-226 0 l0 -280 l-100 0 l0 605 l-424 0 l0 -1443 l424 0 l0 540 l100 0 l0 -260 l226 0 l0 260 l5 0 l248 -540 l452 0 l-348 728 Z" /><glyph glyph-name="" unicode="&#x49e;" d="M970 766 l559 677 l-455 0 l-466 -558 l-8 0 l0 166 l112 0 l0 269 l-112 0 l0 123 l-424 0 l0 -123 l-132 0 l0 -269 l132 0 l0 -1051 l424 0 l0 567 l8 0 l441 -567 l507 0 l-586 766 Z" /><glyph glyph-name="" unicode="&#x4a0;" d="M1362 766 l540 677 l-455 0 l-446 -558 l-8 0 l0 223 l0 335 l-424 0 l-514 0 l0 -335 l514 0 l0 -1108 l424 0 l0 567 l8 0 l421 -567 l507 0 l-567 766 Z" /><glyph glyph-name="" unicode="&#x4c3;" d="M1499 1443 l-445 0 l-448 -595 l-6 0 l0 595 l-424 0 l0 -1443 l424 0 l0 512 l22 0 q179 -2 285 -90 q106 -88 108 -231 q0 -110 -66 -197 q-66 -87 -193 -92 q-29 0 -52 2 q-24 2 -42 6 l0 -321 q28 -8 73 -12 q46 -5 99 -5 q271 7 437 185 q165 179 170 445 q-1 196 -113 351 q-112 155 -323 236 l494 654 Z" /><glyph glyph-name="" unicode="&#x41b;" d="M1436 0 l0 1443 l-1114 0 l-34 -810 q-3 -119 -37 -196 q-35 -76 -131 -79 q-27 0 -47 3 q-20 3 -33 6 l0 -367 q16 -5 55 -10 q38 -6 92 -6 q254 4 366 172 q112 167 121 444 l24 507 l314 0 l0 -1107 l424 0 Z" /><glyph glyph-name="" unicode="&#x4c5;" d="M1436 336 l0 1107 l-1114 0 l-34 -810 q-3 -119 -37 -196 q-35 -76 -131 -79 q-27 0 -47 3 q-20 3 -33 6 l0 -367 q16 -5 55 -10 q38 -6 92 -6 q254 4 366 172 q112 167 121 444 l24 507 l314 0 l0 -771 l0 -336 l182 0 l-81 -285 l366 0 l135 548 l0 73 l-178 0 Z" /><glyph glyph-name="" unicode="&#x52e;" d="M1436 336 l0 1107 l-1114 0 l-34 -810 q-3 -119 -37 -196 q-35 -76 -131 -79 q-27 0 -47 3 q-20 3 -33 6 l0 -367 q16 -5 55 -10 q38 -6 92 -6 q254 4 366 172 q112 167 121 444 l24 507 l314 0 l0 -771 l0 -336 l224 0 l0 -285 l380 0 l0 621 l-180 0 Z" /><glyph glyph-name="" unicode="&#x512;" d="M322 1443 l-34 -810 q-3 -119 -37 -196 q-35 -76 -131 -79 q-27 0 -47 3 q-20 3 -33 6 l0 -367 q16 -5 55 -10 q38 -6 92 -6 q254 4 366 172 q112 167 121 444 l24 507 l314 0 l0 -683 l0 -399 q0 -47 -28 -69 q-29 -21 -91 -21 q-13 0 -25 1 q-13 1 -22 2 l0 -286 q20 -2 56 -4 q37 -2 69 -2 q220 1 340 93 q121 92 125 261 l0 0 l0 7 l0 417 l0 1019 l-1114 0 Z" /><glyph glyph-name="" unicode="&#x41c;" d="M1743 0 l0 1443 l-490 0 l-322 -842 l-8 0 l-323 842 l-490 0 l0 -1443 l370 0 l0 836 l8 0 l325 -819 l227 0 l325 819 l8 0 l0 -836 l370 0 Z" /><glyph glyph-name="" unicode="&#x4cd;" d="M1743 336 l0 1107 l-490 0 l-322 -842 l-8 0 l-323 842 l-490 0 l0 -1443 l370 0 l0 836 l8 0 l325 -819 l227 0 l325 819 l8 0 l0 -500 l0 -336 l182 0 l-81 -285 l366 0 l135 548 l0 73 l-232 0 Z" /><glyph glyph-name="" unicode="&#x41d;" d="M1466 0 l0 1443 l-424 0 l0 -548 l-508 0 l0 548 l-424 0 l0 -1443 l424 0 l0 558 l508 0 l0 -558 l424 0 Z" /><glyph glyph-name="" unicode="&#x4c7;" d="M1042 1443 l0 -548 l-508 0 l0 548 l-424 0 l0 -1443 l424 0 l0 558 l508 0 l0 -148 l0 -385 q0 -47 -28 -69 q-29 -21 -91 -21 q-13 0 -25 1 q-13 1 -22 2 l0 -286 q20 -2 56 -4 q37 -2 69 -2 q220 1 340 93 q121 92 125 261 l0 0 l0 7 l0 403 l0 1033 l-424 0 Z" /><glyph glyph-name="" unicode="&#x4a2;" d="M1466 336 l0 1107 l-424 0 l0 -548 l-508 0 l0 548 l-424 0 l0 -1443 l424 0 l0 558 l508 0 l0 -222 l0 -336 l224 0 l0 -285 l380 0 l0 621 l-180 0 Z" /><glyph glyph-name="" unicode="&#x4c9;" d="M1466 336 l0 1107 l-424 0 l0 -548 l-508 0 l0 548 l-424 0 l0 -1443 l424 0 l0 558 l508 0 l0 -222 l0 -336 l182 0 l-81 -285 l366 0 l135 548 l0 73 l-178 0 Z" /><glyph glyph-name="" unicode="&#x4a4;" d="M2046 1443 l-580 0 l-424 0 l0 -335 l0 -213 l-508 0 l0 548 l-424 0 l0 -1443 l424 0 l0 558 l508 0 l0 -558 l424 0 l0 1108 l580 0 l0 335 Z" /><glyph glyph-name="" unicode="&#x41e;" d="M802 1468 q-338 -3 -531 -201 q-192 -197 -196 -546 q4 -349 196 -546 q192 -197 531 -200 q338 3 531 200 q192 197 196 546 q-4 349 -196 546 q-193 198 -531 201 l0 0 ZM802 1130 q135 -2 214 -111 q79 -108 81 -298 q-2 -189 -81 -297 q-79 -109 -214 -111 q-135 2 -214 111 q-79 108 -81 297 q2 190 81 298 q79 109 214 111 l0 0 Z" /><glyph glyph-name="" unicode="&#x4e6;" d="M802 1468 q-338 -3 -531 -201 q-192 -197 -196 -546 q4 -349 196 -546 q192 -197 531 -200 q338 3 531 200 q192 197 196 546 q-4 349 -196 546 q-193 198 -531 201 l0 0 ZM802 1130 q135 -2 214 -111 q79 -108 81 -298 q-2 -189 -81 -297 q-79 -109 -214 -111 q-135 2 -214 111 q-79 108 -81 297 q2 190 81 298 q79 109 214 111 l0 0 ZM580 1536 q70 2 114 44 q43 43 44 106 q-1 64 -44 106 q-44 42 -114 44 q-70 -2 -113 -44 q-44 -42 -45 -106 q1 -63 45 -106 q43 -42 113 -44 l0 0 ZM1024 1536 q70 2 114 44 q43 43 44 106 q-1 64 -44 106 q-44 42 -114 44 q-70 -2 -113 -44 q-44 -42 -45 -106 q1 -63 45 -106 q43 -42 113 -44 l0 0 Z" /><glyph glyph-name="" unicode="&#x4e8;" d="M1085 569 q-30 -126 -104 -197 q-74 -70 -179 -71 q-105 1 -179 71 q-75 71 -105 197 l567 0 ZM521 885 q32 122 105 189 q72 67 176 68 q103 -1 176 -68 q72 -67 104 -189 l-561 0 ZM802 1483 q-335 -3 -529 -204 q-194 -200 -198 -557 q4 -358 197 -558 q194 -201 530 -204 q335 3 528 204 q194 200 198 558 q-4 357 -198 557 q-193 201 -528 204 l0 0 Z" /><glyph glyph-name="" unicode="&#x4ea;" d="M1023 1536 q70 2 114 44 q43 43 44 106 q-1 64 -44 106 q-44 42 -114 44 q-70 -2 -113 -44 q-44 -42 -45 -106 q1 -63 45 -106 q43 -42 113 -44 l0 0 ZM579 1536 q70 2 114 44 q43 43 44 106 q-1 64 -44 106 q-44 42 -114 44 q-70 -2 -113 -44 q-44 -42 -45 -106 q1 -63 45 -106 q43 -42 113 -44 l0 0 ZM1085 569 q-30 -126 -104 -197 q-74 -70 -179 -71 q-105 1 -179 71 q-75 71 -105 197 l567 0 ZM521 885 q32 122 105 189 q72 67 176 68 q103 -1 176 -68 q72 -67 104 -189 l-561 0 ZM802 1483 q-335 -3 -529 -204 q-194 -200 -198 -557 q4 -358 197 -558 q194 -201 530 -204 q335 3 528 204 q194 200 198 558 q-4 357 -198 557 q-193 201 -528 204 l0 0 Z" /><glyph glyph-name="" unicode="&#x472;" d="M802 301 q-104 1 -176 68 q-73 67 -105 189 q14 18 45 32 q32 13 72 14 q74 -4 145 -30 q71 -27 157 -31 q37 0 76 14 q39 14 75 44 q-25 -141 -101 -220 q-76 -79 -188 -80 l0 0 ZM802 1142 q103 -1 176 -68 q72 -67 104 -188 q-14 -18 -47 -32 q-33 -13 -76 -14 q-75 4 -146 31 q-72 26 -162 30 q-37 0 -72 -13 q-35 -13 -66 -38 q27 137 103 214 q75 77 186 78 l0 0 ZM802 1483 q-335 -3 -529 -204 q-194 -200 -198 -557 q4 -358 197 -558 q194 -201 530 -204 q335 3 528 204 q194 200 198 558 q-4 357 -198 557 q-193 201 -528 204 l0 0 Z" /><glyph glyph-name="" unicode="&#x41f;" d="M1456 0 l0 1443 l-1346 0 l0 -1443 l424 0 l0 1107 l498 0 l0 -1107 l424 0 Z" /><glyph glyph-name="" unicode="&#x524;" d="M1456 336 l0 1107 l-1346 0 l0 -1443 l424 0 l0 1107 l498 0 l0 -771 l0 -336 l224 0 l0 -285 l380 0 l0 621 l-180 0 Z" /><glyph glyph-name="" unicode="&#x40f;" d="M583 0 l0 -285 l400 0 l0 285 l473 0 l0 1443 l-424 0 l0 -1107 l-498 0 l0 1107 l-424 0 l0 -1443 l473 0 Z" /><glyph glyph-name="" unicode="&#x420;" d="M110 1443 l0 -1443 l424 0 l0 394 l206 0 q257 3 409 142 q153 140 157 381 q-3 244 -148 383 q-145 140 -389 143 l-659 0 ZM534 1124 l122 0 q104 0 163 -53 q58 -52 59 -155 q-1 -104 -60 -156 q-58 -53 -165 -53 l-119 0 l0 417 Z" /><glyph glyph-name="" unicode="&#x48e;" d="M534 703 l0 420 l122 0 q107 0 166 -52 q60 -52 61 -155 q0 -75 -32 -125 l-99 154 l-167 -107 l86 -135 q-9 0 -18 0 l-119 0 ZM110 1443 l0 -1443 l424 0 l0 397 l184 0 q54 0 104 7 l138 -212 l229 156 l-100 152 q104 70 160 177 q56 107 57 240 q-3 244 -148 383 q-145 140 -389 143 l-659 0 Z" /><glyph glyph-name="" unicode="&#x421;" d="M791 -40 q286 4 468 162 q182 159 203 420 l-410 0 q-21 -109 -89 -171 q-69 -62 -171 -63 q-133 1 -208 110 q-76 108 -77 305 q1 195 77 303 q75 107 207 109 q102 -1 171 -63 q69 -62 88 -169 l410 0 q-23 257 -206 416 q-183 159 -463 164 q-334 -3 -523 -202 q-190 -199 -193 -559 q3 -360 192 -559 q189 -200 524 -203 l0 0 Z" /><glyph glyph-name="" unicode="&#x4aa;" d="M1057 582 q-11 -127 -83 -200 q-71 -73 -182 -74 q-133 1 -208 110 q-76 108 -77 305 q1 195 77 303 q75 107 207 109 q112 -2 183 -75 q72 -73 81 -198 l406 0 q-7 273 -192 437 q-186 165 -478 169 q-334 -2 -523 -194 q-190 -193 -193 -552 q3 -329 162 -519 q160 -190 446 -222 l-43 -79 l0 -127 l56 0 q55 0 78 -10 q23 -10 22 -36 q0 -19 -22 -28 q-23 -9 -72 -9 q-27 0 -54 3 q-26 3 -45 9 l0 -141 q20 -7 56 -11 q35 -4 77 -4 q131 0 197 49 q66 49 66 146 q-1 77 -45 122 q-44 45 -117 46 l35 68 q264 27 425 188 q160 161 166 415 l-406 0 Z" /><glyph glyph-name="" unicode="&#x422;" d="M859 0 l0 1106 l380 0 l0 337 l-1184 0 l0 -337 l380 0 l0 -1106 l424 0 Z" /><glyph glyph-name="" unicode="&#x4ac;" d="M1239 1106 l0 337 l-1184 0 l0 -337 l380 0 l0 -770 l0 -336 l224 0 l0 -285 l380 0 l0 621 l-180 0 l0 770 l380 0 Z" /><glyph glyph-name="" unicode="&#x423;" d="M407 -16 q223 2 351 114 q129 113 211 315 l442 1030 l-449 0 l-222 -669 l-8 0 l-243 669 l-449 0 l465 -1063 q-33 -38 -76 -49 q-44 -12 -95 -11 q-53 1 -75 5 q-22 4 -21 5 l0 -330 q2 -1 50 -8 q49 -7 119 -8 l0 0 Z" /><glyph glyph-name="" unicode="&#x40e;" d="M407 -16 q223 2 351 114 q129 113 211 315 l442 1030 l-449 0 l-222 -669 l-8 0 l-243 669 l-449 0 l465 -1063 q-33 -38 -76 -49 q-44 -12 -95 -11 q-53 1 -75 5 q-22 4 -21 5 l0 -330 q2 -1 50 -8 q49 -7 119 -8 l0 0 ZM351 1827 q3 -151 106 -235 q103 -85 277 -86 q174 1 277 86 q103 84 106 235 l-229 0 q-3 -68 -44 -102 q-42 -34 -110 -34 q-68 0 -110 34 q-41 34 -44 102 l-229 0 Z" /><glyph glyph-name="" unicode="&#x4ee;" d="M407 -16 q223 2 351 114 q129 113 211 315 l442 1030 l-449 0 l-222 -669 l-8 0 l-243 669 l-449 0 l465 -1063 q-33 -38 -76 -49 q-44 -12 -95 -11 q-53 1 -75 5 q-22 4 -21 5 l0 -330 q2 -1 50 -8 q49 -7 119 -8 l0 0 ZM1107 1788 l-748 0 l0 -180 l748 0 l0 180 Z" /><glyph glyph-name="" unicode="&#x4f0;" d="M407 -16 q223 2 351 114 q129 113 211 315 l442 1030 l-449 0 l-222 -669 l-8 0 l-243 669 l-449 0 l465 -1063 q-33 -38 -76 -49 q-44 -12 -95 -11 q-53 1 -75 5 q-22 4 -21 5 l0 -330 q2 -1 50 -8 q49 -7 119 -8 l0 0 ZM512 1536 q70 2 114 44 q43 43 44 106 q-1 64 -44 106 q-44 42 -114 44 q-70 -2 -113 -44 q-44 -42 -45 -106 q1 -63 45 -106 q43 -42 113 -44 l0 0 ZM956 1536 q70 2 114 44 q43 43 44 106 q-1 64 -44 106 q-44 42 -114 44 q-70 -2 -113 -44 q-44 -42 -45 -106 q1 -63 45 -106 q43 -42 113 -44 l0 0 Z" /><glyph glyph-name="" unicode="&#x4f2;" d="M407 -16 q223 2 351 114 q129 113 211 315 l442 1030 l-449 0 l-222 -669 l-8 0 l-243 669 l-449 0 l465 -1063 q-33 -38 -76 -49 q-44 -12 -95 -11 q-53 1 -75 5 q-22 4 -21 5 l0 -330 q2 -1 50 -8 q49 -7 119 -8 l0 0 ZM1106 1555 l274 321 l-348 0 l-232 -321 l306 0 ZM626 1555 l274 321 l-348 0 l-232 -321 l306 0 Z" /><glyph glyph-name="" unicode="&#x424;" d="M753 441 q-123 8 -197 81 q-74 72 -76 200 q2 127 76 199 q74 73 197 81 l0 -561 ZM1428 721 q-2 -127 -76 -199 q-74 -73 -197 -81 l0 561 q123 -8 197 -81 q74 -72 76 -200 l0 0 ZM746 117 l0 -157 l416 0 l0 157 q312 12 499 167 q187 155 192 437 q-5 284 -191 438 q-187 155 -500 167 l0 157 l-416 0 l0 -157 q-312 -12 -499 -167 q-187 -155 -192 -437 q5 -284 191 -438 q187 -155 500 -167 l0 0 Z" /><glyph glyph-name="" unicode="&#x425;" d="M51 0 l448 0 l247 435 l9 0 l248 -435 l472 0 l-445 721 l0 8 l447 714 l-470 0 l-228 -460 l-8 0 l-227 460 l-494 0 l426 -712 l0 -8 l-425 -723 Z" /><glyph glyph-name="" unicode="&#x4b2;" d="M1030 721 l0 8 l447 714 l-470 0 l-228 -460 l-8 0 l-227 460 l-494 0 l426 -712 l0 -8 l-425 -723 l448 0 l247 435 l9 0 l248 -435 l92 0 l0 -285 l380 0 l0 621 l-207 0 l-238 385 Z" /><glyph glyph-name="" unicode="&#x4fe;" d="M1359 608 l0 239 l-255 0 l373 596 l-470 0 l-228 -460 l-8 0 l-227 460 l-494 0 l357 -596 l-236 0 l0 -239 l237 0 l-357 -608 l448 0 l247 435 l9 0 l248 -435 l472 0 l-375 608 l259 0 Z" /><glyph glyph-name="" unicode="&#x4fc;" d="M50 1443 l428 -715 l-427 -728 l448 0 l242 423 l20 0 l142 -247 q25 -42 40 -71 q15 -29 23 -49 q9 -23 12 -39 q3 -17 3 -32 q-1 -40 -31 -64 q-31 -24 -82 -25 q-22 0 -41 1 q-19 1 -41 4 l0 -314 q30 -5 79 -9 q48 -3 105 -3 q198 2 313 107 q116 104 118 284 q1 48 -9 97 q-10 48 -39 111 q-18 40 -45 90 q-27 50 -66 113 l-213 349 l449 717 l-470 0 l-223 -448 l-20 0 l-221 448 l-494 0 Z" /><glyph glyph-name="" unicode="&#x426;" d="M1636 -285 l0 621 l-180 0 l0 1107 l-424 0 l0 -1107 l-498 0 l0 1107 l-424 0 l0 -1443 l1146 0 l0 -285 l380 0 Z" /><glyph glyph-name="" unicode="&#x4b4;" d="M1791 336 l0 1107 l-424 0 l0 -1107 l-518 0 l0 771 l362 0 l0 336 l-362 0 l-424 0 l-370 0 l0 -336 l370 0 l0 -1107 l1166 0 l0 -285 l380 0 l0 621 l-180 0 Z" /><glyph glyph-name="" unicode="&#x427;" d="M1396 0 l0 1443 l-424 0 l0 -566 q2 -4 -48 -32 q-50 -29 -173 -33 q-117 0 -177 60 q-60 60 -60 174 l0 397 l-424 0 l0 -444 q2 -246 146 -391 q144 -145 405 -148 q157 5 240 39 q82 33 83 38 l8 0 l0 -537 l424 0 Z" /><glyph glyph-name="" unicode="&#x4f4;" d="M1396 0 l0 1443 l-424 0 l0 -566 q2 -4 -48 -32 q-50 -29 -173 -33 q-117 0 -177 60 q-60 60 -60 174 l0 397 l-424 0 l0 -444 q2 -246 146 -391 q144 -145 405 -148 q157 5 240 39 q82 33 83 38 l8 0 l0 -537 l424 0 ZM536 1536 q70 2 114 44 q43 43 44 106 q-1 64 -44 106 q-44 42 -114 44 q-70 -2 -113 -44 q-44 -42 -45 -106 q1 -63 45 -106 q43 -42 113 -44 l0 0 ZM980 1536 q70 2 114 44 q43 43 44 106 q-1 64 -44 106 q-44 42 -114 44 q-70 -2 -113 -44 q-44 -42 -45 -106 q1 -63 45 -106 q43 -42 113 -44 l0 0 Z" /><glyph glyph-name="" unicode="&#x4b6;" d="M1396 336 l0 1107 l-424 0 l0 -566 q2 -4 -48 -32 q-50 -29 -173 -33 q-117 0 -177 60 q-60 60 -60 174 l0 397 l-424 0 l0 -444 q2 -246 146 -391 q144 -145 405 -148 q157 5 240 39 q82 33 83 38 l8 0 l0 -201 l0 -336 l224 0 l0 -285 l380 0 l0 621 l-180 0 Z" /><glyph glyph-name="" unicode="&#x4cb;" d="M972 1443 l0 -566 q2 -4 -48 -32 q-50 -29 -173 -33 q-117 0 -177 60 q-60 60 -60 174 l0 397 l-424 0 l0 -444 q2 -246 146 -391 q144 -145 405 -148 q157 5 240 39 q82 33 83 38 l8 0 l0 -201 l-180 0 l0 -621 l380 0 l0 285 l224 0 l0 336 l0 1107 l-424 0 Z" /><glyph glyph-name="" unicode="&#x4b8;" d="M1012 1443 l0 -546 q-17 -20 -46 -37 q-29 -18 -68 -29 l0 245 l-256 0 l0 -248 q-66 23 -97 78 q-31 55 -31 140 l0 397 l-424 0 l0 -444 q4 -249 156 -392 q151 -143 396 -147 l0 -155 l256 0 l0 191 q52 19 94 49 l20 0 l0 -545 l424 0 l0 1443 l-424 0 Z" /><glyph glyph-name="" unicode="&#x4ba;" d="M110 1443 l0 -1443 l424 0 l0 516 q30 56 88 86 q57 29 140 29 q112 0 171 -60 q59 -60 59 -174 l0 -397 l424 0 l0 444 q-4 250 -148 393 q-144 143 -386 146 q-99 0 -183 -26 q-83 -26 -145 -71 l-20 0 l0 557 l-424 0 Z" /><glyph glyph-name="" unicode="&#x526;" d="M1416 336 l0 108 q-4 250 -148 393 q-144 143 -386 146 q-99 0 -183 -26 q-83 -26 -145 -71 l-20 0 l0 557 l-424 0 l0 -1443 l424 0 l0 516 q30 56 88 86 q57 29 140 29 q112 0 171 -60 q59 -60 59 -174 l0 -61 l0 -336 l224 0 l0 -285 l380 0 l0 621 l-180 0 Z" /><glyph glyph-name="" unicode="&#x40b;" d="M1078 554 q90 -1 139 -56 q48 -56 48 -156 l0 -342 l424 0 l0 367 q0 240 -125 387 q-125 148 -381 152 q-102 0 -180 -26 q-77 -25 -135 -71 l-8 0 l0 298 l381 0 l0 336 l-1186 0 l0 -336 l381 0 l0 -1107 l424 0 l0 439 q30 49 83 81 q53 33 135 34 l0 0 Z" /><glyph glyph-name="" unicode="&#x428;" d="M110 0 l1868 0 l0 1443 l-424 0 l0 -1107 l-298 0 l0 1107 l-424 0 l0 -1107 l-298 0 l0 1107 l-424 0 l0 -1443 Z" /><glyph glyph-name="" unicode="&#x429;" d="M2158 -285 l0 621 l-180 0 l0 1107 l-424 0 l0 -1107 l-298 0 l0 1107 l-424 0 l0 -1107 l-298 0 l0 1107 l-424 0 l0 -1443 l1668 0 l0 -285 l380 0 Z" /><glyph glyph-name="" unicode="&#x42a;" d="M1054 0 q244 3 389 137 q145 135 148 369 q-4 232 -157 366 q-152 134 -409 137 l-206 0 l0 434 l-764 0 l0 -335 l340 0 l0 -1108 l659 0 ZM819 320 l0 375 l119 0 q104 0 162 -47 q58 -47 59 -141 q-1 -93 -58 -140 q-57 -47 -160 -47 l-122 0 Z" /><glyph glyph-name="" unicode="&#x42b;" d="M110 0 l659 0 q244 3 389 137 q145 135 148 369 q-4 232 -157 366 q-152 134 -409 137 l-206 0 l0 434 l-424 0 l0 -1443 ZM534 320 l0 375 l119 0 q104 0 162 -47 q58 -47 59 -141 q-1 -93 -58 -140 q-57 -47 -160 -47 l-122 0 ZM1854 0 l0 1443 l-424 0 l0 -1443 l424 0 Z" /><glyph glyph-name="" unicode="&#x4f8;" d="M110 0 l659 0 q244 3 389 137 q145 135 148 369 q-4 232 -157 366 q-152 134 -409 137 l-206 0 l0 434 l-424 0 l0 -1443 ZM534 320 l0 375 l119 0 q104 0 162 -47 q58 -47 59 -141 q-1 -93 -58 -140 q-57 -47 -160 -47 l-122 0 ZM1854 0 l0 1443 l-424 0 l0 -1443 l424 0 ZM758 1536 q70 2 114 44 q43 43 44 106 q-1 64 -44 106 q-44 42 -114 44 q-70 -2 -113 -44 q-44 -42 -45 -106 q1 -63 45 -106 q43 -42 113 -44 l0 0 ZM1202 1536 q70 2 114 44 q43 43 44 106 q-1 64 -44 106 q-44 42 -114 44 q-70 -2 -113 -44 q-44 -42 -45 -106 q1 -63 45 -106 q43 -42 113 -44 l0 0 Z" /><glyph glyph-name="" unicode="&#x48c;" d="M784 320 l0 335 l129 0 q100 0 155 -42 q55 -42 56 -126 q-1 -83 -55 -125 q-55 -42 -153 -42 l-132 0 ZM784 969 l0 155 l432 0 l0 279 l-432 0 l0 135 l-424 0 l0 -135 l-350 0 l0 -279 l350 0 l0 -1124 l669 0 q240 3 382 132 q142 129 145 354 q-4 223 -154 352 q-150 128 -402 131 l-216 0 Z" /><glyph glyph-name="" unicode="&#x462;" d="M784 320 l0 335 l129 0 q100 0 155 -42 q55 -42 56 -126 q-1 -83 -55 -125 q-55 -42 -153 -42 l-132 0 ZM784 969 l0 155 l432 0 l0 279 l-432 0 l0 135 l-424 0 l0 -135 l-350 0 l0 -279 l350 0 l0 -1124 l669 0 q240 3 382 132 q142 129 145 354 q-4 223 -154 352 q-150 128 -402 131 l-216 0 Z" /><glyph glyph-name="" unicode="&#x42c;" d="M110 0 l659 0 q244 3 389 137 q145 135 148 369 q-4 232 -157 366 q-152 134 -409 137 l-206 0 l0 434 l-424 0 l0 -1443 ZM534 320 l0 375 l119 0 q104 0 162 -47 q58 -47 59 -141 q-1 -93 -58 -140 q-57 -47 -160 -47 l-122 0 Z" /><glyph glyph-name="" unicode="&#x409;" d="M674 600 l24 507 l314 0 l0 -1107 l659 0 q244 3 389 137 q145 135 148 369 q-4 232 -157 366 q-152 134 -409 137 l-206 0 l0 434 l-1114 0 l-34 -810 q-3 -119 -37 -196 q-35 -76 -131 -79 q-27 0 -47 3 q-20 3 -33 6 l0 -367 q16 -5 55 -10 q38 -6 92 -6 q254 4 366 172 q112 167 121 444 l0 0 ZM1436 320 l0 375 l119 0 q104 0 162 -47 q58 -47 59 -141 q-1 -93 -58 -140 q-57 -47 -160 -47 l-122 0 Z" /><glyph glyph-name="" unicode="&#x40a;" d="M534 589 l488 0 l0 -589 l659 0 q247 3 390 126 q144 123 147 335 q-3 208 -155 330 q-152 121 -411 124 l-206 0 l0 528 l-424 0 l0 -528 l-488 0 l0 528 l-424 0 l0 -1443 l424 0 l0 589 ZM1446 320 l0 286 l149 0 q96 0 147 -37 q51 -36 51 -104 q0 -70 -51 -107 q-50 -38 -144 -38 l-152 0 Z" /><glyph glyph-name="" unicode="&#x42d;" d="M747 -40 q332 3 519 203 q188 199 191 559 q-3 360 -191 559 q-188 199 -519 202 q-282 -5 -467 -164 q-185 -159 -208 -416 l410 0 q19 107 90 169 q71 62 175 63 q102 -1 176 -67 q73 -67 92 -190 l-492 0 l0 -306 l494 0 q-18 -127 -92 -195 q-75 -68 -179 -69 q-104 1 -175 63 q-70 62 -91 171 l-410 0 q21 -261 205 -420 q184 -158 472 -162 l0 0 Z" /><glyph glyph-name="" unicode="&#x4ec;" d="M747 -40 q332 3 519 203 q188 199 191 559 q-3 360 -191 559 q-188 199 -519 202 q-282 -5 -467 -164 q-185 -159 -208 -416 l410 0 q19 107 90 169 q71 62 175 63 q102 -1 176 -67 q73 -67 92 -190 l-492 0 l0 -306 l494 0 q-18 -127 -92 -195 q-75 -68 -179 -69 q-104 1 -175 63 q-70 62 -91 171 l-410 0 q21 -261 205 -420 q184 -158 472 -162 l0 0 ZM528 1536 q70 2 114 44 q43 43 44 106 q-1 64 -44 106 q-44 42 -114 44 q-70 -2 -113 -44 q-44 -42 -45 -106 q1 -63 45 -106 q43 -42 113 -44 l0 0 ZM972 1536 q70 2 114 44 q43 43 44 106 q-1 64 -44 106 q-44 42 -114 44 q-70 -2 -113 -44 q-44 -42 -45 -106 q1 -63 45 -106 q43 -42 113 -44 l0 0 Z" /><glyph glyph-name="" unicode="&#x42e;" d="M1395 -40 q330 3 521 204 q191 200 195 558 q-4 357 -195 557 q-191 201 -521 204 q-287 -2 -471 -156 q-184 -154 -232 -432 l-158 0 l0 548 l-424 0 l0 -1443 l424 0 l0 559 l156 0 q46 -284 230 -440 q184 -157 475 -159 l0 0 ZM1393 1137 q128 -2 206 -113 q78 -110 80 -302 q-2 -193 -80 -303 q-78 -111 -206 -113 q-129 2 -207 113 q-78 110 -80 303 q2 192 80 302 q78 111 207 113 l0 0 Z" /><glyph glyph-name="" unicode="&#x42f;" d="M921 774 l-180 0 q-90 1 -141 48 q-50 46 -51 129 q1 81 53 130 q51 48 138 49 l181 0 l0 -356 ZM797 487 l124 0 l0 -487 l419 0 l0 1443 l-638 0 q-281 -3 -432 -134 q-152 -132 -154 -356 q2 -144 79 -248 q78 -104 205 -157 l-345 -548 l454 0 l288 487 Z" /><glyph glyph-name="" unicode="&#x494;" d="M1114 1443 l-1004 0 l0 -1443 l424 0 l0 439 q30 52 88 83 q59 31 141 32 q97 -1 150 -45 q53 -45 54 -127 q-1 -88 -55 -134 q-54 -46 -149 -46 q-56 1 -83 5 q-26 3 -26 4 l0 -312 q0 -1 42 -8 q42 -8 120 -9 q276 4 426 148 q149 145 151 386 q0 208 -128 347 q-129 138 -393 143 q-104 0 -183 -26 q-79 -25 -137 -71 l-18 0 l0 298 l580 0 l0 336 Z" /><glyph glyph-name="" unicode="&#x4a6;" d="M110 1443 l0 -1443 l424 0 l0 1107 l448 0 l0 -1107 l424 0 l0 439 q31 55 91 85 q59 30 138 30 q97 -1 150 -45 q53 -45 54 -127 q-1 -86 -54 -133 q-53 -46 -150 -47 q-34 0 -63 3 q-30 2 -46 6 l0 -312 q27 -8 71 -12 q45 -5 91 -5 q268 3 421 144 q153 141 156 390 q-3 228 -140 358 q-138 130 -381 132 q-98 0 -178 -24 q-80 -24 -142 -73 l-18 0 l0 634 l-1296 0 Z" /><glyph glyph-name="" unicode="&#x404;" d="M1462 542 l-410 0 q-21 -109 -89 -171 q-69 -62 -171 -63 q-106 1 -181 69 q-75 68 -96 195 l494 0 l0 306 l-492 0 q21 123 96 190 q74 66 178 67 q102 -1 171 -63 q69 -62 88 -169 l410 0 q-23 257 -206 416 q-183 159 -463 164 q-334 -3 -523 -202 q-190 -199 -193 -559 q3 -360 192 -559 q189 -200 524 -203 q286 4 468 162 q182 159 203 420 l0 0 Z" /><glyph glyph-name="" unicode="&#x4c0;" d="M534 0 l0 1443 l-424 0 l0 -1443 l424 0 Z" /><glyph glyph-name="" unicode="&#x406;" d="M534 0 l0 1443 l-424 0 l0 -1443 l424 0 Z" /><glyph glyph-name="" unicode="&#x407;" d="M534 0 l0 1443 l-424 0 l0 -1443 l424 0 ZM100 1536 q70 2 114 44 q43 43 44 106 q-1 64 -44 106 q-44 42 -114 44 q-70 -2 -113 -44 q-44 -42 -45 -106 q1 -63 45 -106 q43 -42 113 -44 l0 0 ZM544 1536 q70 2 114 44 q43 43 44 106 q-1 64 -44 106 q-44 42 -114 44 q-70 -2 -113 -44 q-44 -42 -45 -106 q1 -63 45 -106 q43 -42 113 -44 l0 0 Z" /><glyph glyph-name="" unicode="&#x4a8;" d="M1309 971 q63 -1 99 -52 q35 -51 36 -143 q0 -100 -34 -190 q-35 -89 -98 -154 q-70 65 -106 153 q-36 88 -36 191 q1 91 37 143 q37 51 102 52 l0 0 ZM1875 362 q-41 -28 -94 -46 q-54 -18 -113 -19 q-15 0 -28 1 q96 102 150 229 q55 127 56 258 q-3 238 -147 375 q-143 138 -391 141 q-246 -4 -390 -152 q-144 -148 -147 -388 q0 -139 49 -254 q49 -115 142 -206 q-28 -2 -58 -2 q-189 5 -298 128 q-110 122 -112 302 q1 149 75 254 q74 104 213 138 l0 366 q-324 -29 -514 -228 q-189 -200 -193 -523 q3 -347 220 -557 q216 -209 605 -215 q113 0 211 22 q97 21 184 69 q80 -46 172 -70 q91 -23 199 -23 q90 0 177 26 q86 26 162 80 l-130 294 Z" /><glyph glyph-name="" unicode="&#x4ae;" d="M957 0 l0 457 l493 986 l-443 0 l-253 -585 l-8 0 l-253 585 l-453 0 l493 -986 l0 -457 l424 0 Z" /><glyph glyph-name="" unicode="&#x4b0;" d="M1450 1443 l-443 0 l-253 -585 l-8 0 l-253 585 l-453 0 l418 -836 l-225 0 l0 -259 l300 0 l0 -348 l424 0 l0 348 l300 0 l0 259 l-225 0 l418 836 Z" /><glyph glyph-name="" unicode="&#x4bc;" d="M862 906 q15 109 84 173 q69 64 171 65 q105 -1 174 -65 q68 -63 77 -173 l-506 0 ZM859 624 l943 0 q0 3 2 46 q2 43 2 84 q-2 348 -180 537 q-178 190 -504 192 q-278 -3 -455 -151 q-177 -149 -229 -410 q-50 5 -75 36 q-25 32 -25 77 q2 49 14 82 q12 34 14 35 l-321 0 q-2 0 -17 -45 q-16 -45 -18 -131 q1 -153 106 -248 q106 -96 307 -104 q31 -314 219 -488 q188 -173 498 -176 q268 4 448 143 q180 139 211 361 l-417 0 q-24 -81 -88 -123 q-64 -42 -156 -42 q-129 2 -204 84 q-74 82 -75 225 l0 16 Z" /><glyph glyph-name="" unicode="&#x4be;" d="M1332 1536 q70 2 114 44 q43 43 44 106 q-1 64 -44 106 q-44 42 -114 44 q-70 -2 -113 -44 q-44 -42 -45 -106 q1 -63 45 -106 q43 -42 113 -44 l0 0 ZM888 1536 q70 2 114 44 q43 43 44 106 q-1 64 -44 106 q-44 42 -114 44 q-70 -2 -113 -44 q-44 -42 -45 -106 q1 -63 45 -106 q43 -42 113 -44 l0 0 ZM862 906 q15 109 84 173 q69 64 171 65 q105 -1 174 -65 q68 -63 77 -173 l-506 0 ZM859 624 l943 0 q0 3 2 46 q2 43 2 84 q-2 348 -180 537 q-178 190 -504 192 q-278 -3 -455 -151 q-177 -149 -229 -410 q-50 5 -75 36 q-25 32 -25 77 q2 49 14 82 q12 34 14 35 l-321 0 q-2 0 -17 -45 q-16 -45 -18 -131 q1 -153 106 -248 q106 -96 307 -104 q24 -259 159 -424 q135 -165 360 -218 l0 -267 l380 0 l0 265 q198 47 325 176 q128 128 152 308 l-417 0 q-24 -81 -88 -123 q-64 -42 -156 -42 q-129 2 -204 84 q-74 82 -75 225 l0 16 Z" /><glyph glyph-name="" unicode="&#x4d4;" d="M848 1129 l112 0 l0 -543 l-300 0 l188 543 ZM960 0 l1015 0 l0 336 l-643 0 l0 233 l606 0 l0 304 l-606 0 l0 234 l643 0 l0 336 l-1395 0 l-540 -1443 l418 0 l99 286 l403 0 l0 -286 Z" /><glyph glyph-name="" unicode="&#x4d8;" d="M773 -40 q312 5 498 208 q186 204 191 552 q-4 349 -193 554 q-189 204 -511 209 q-266 -2 -445 -135 q-179 -133 -228 -369 l427 0 q21 68 81 116 q59 47 167 49 q114 -3 187 -87 q73 -85 75 -222 l0 -6 l-942 0 q0 0 -2 -33 q-3 -34 -3 -101 q1 -327 180 -528 q178 -201 518 -207 l0 0 ZM773 299 q-110 2 -181 69 q-70 67 -79 179 l507 0 q-12 -113 -80 -180 q-69 -66 -167 -68 l0 0 Z" /><glyph glyph-name="" unicode="&#x4da;" d="M773 -40 q312 5 498 208 q186 204 191 552 q-4 349 -193 554 q-189 204 -511 209 q-266 -2 -445 -135 q-179 -133 -228 -369 l427 0 q21 68 81 116 q59 47 167 49 q114 -3 187 -87 q73 -85 75 -222 l0 -6 l-942 0 q0 0 -2 -33 q-3 -34 -3 -101 q1 -327 180 -528 q178 -201 518 -207 l0 0 ZM773 299 q-110 2 -181 69 q-70 67 -79 179 l507 0 q-12 -113 -80 -180 q-69 -66 -167 -68 l0 0 ZM528 1536 q70 2 114 44 q43 43 44 106 q-1 64 -44 106 q-44 42 -114 44 q-70 -2 -113 -44 q-44 -42 -45 -106 q1 -63 45 -106 q43 -42 113 -44 l0 0 ZM972 1536 q70 2 114 44 q43 43 44 106 q-1 64 -44 106 q-44 42 -114 44 q-70 -2 -113 -44 q-44 -42 -45 -106 q1 -63 45 -106 q43 -42 113 -44 l0 0 Z" /><glyph glyph-name="" unicode="&#x4e0;" d="M658 -40 q291 3 458 131 q166 129 169 351 q-3 187 -125 294 q-123 107 -329 128 l0 20 l381 294 l0 265 l-1092 0 l0 -336 l569 0 l0 -20 l-281 -209 l0 -271 l202 0 q118 -1 181 -44 q62 -43 63 -119 q-1 -71 -51 -112 q-51 -42 -136 -43 q-94 1 -147 42 q-54 40 -56 113 l-404 0 q13 -223 173 -352 q159 -129 425 -132 l0 0 Z" /><glyph glyph-name="" unicode="&#x510;" d="M887 573 l0 310 l-187 0 q-86 1 -136 39 q-49 38 -50 105 q1 69 51 107 q50 38 140 39 q91 -1 144 -47 q53 -46 57 -123 l383 0 q-7 220 -163 349 q-156 128 -435 131 q-256 -1 -411 -109 q-156 -108 -160 -305 q3 -124 80 -204 q76 -79 196 -105 l0 -20 q-151 -16 -238 -105 q-86 -90 -88 -231 q5 -204 179 -323 q175 -118 458 -121 q270 3 433 132 q162 129 175 352 l-404 0 q-9 -73 -62 -114 q-53 -41 -151 -42 q-88 1 -140 41 q-52 40 -53 104 q1 69 52 105 q52 35 145 35 l185 0 Z" /><glyph glyph-name="" unicode="&#x474;" d="M1037 0 l290 952 q12 37 24 60 q12 22 28 35 q27 24 70 24 q18 0 41 -6 q23 -5 47 -15 l113 334 q-62 36 -142 56 q-81 21 -159 21 q-79 0 -140 -18 q-61 -17 -109 -54 q-68 -50 -113 -146 q-46 -95 -78 -243 l-124 -573 l-20 0 l-232 1016 l-493 0 l445 -1443 l552 0 Z" /><glyph glyph-name="" unicode="&#x51c;" d="M1037 826 l8 0 l215 -826 l400 0 l372 1443 l-438 0 l-166 -912 l-8 0 l-215 912 l-328 0 l-215 -912 l-8 0 l-166 912 l-438 0 l372 -1443 l400 0 l215 826 Z" /><glyph glyph-name="" unicode="&#x402;" d="M1142 -118 q276 4 426 148 q149 145 151 386 q0 208 -128 347 q-129 138 -393 143 q-107 0 -189 -25 q-81 -25 -141 -72 l-8 0 l0 298 l381 0 l0 336 l-1186 0 l0 -336 l381 0 l0 -1107 l424 0 l0 439 q30 52 88 83 q59 31 141 32 q97 -1 150 -45 q53 -45 54 -127 q-1 -88 -55 -134 q-54 -46 -149 -46 q-56 1 -83 5 q-26 3 -26 4 l0 -312 q0 -1 42 -8 q42 -8 120 -9 l0 0 Z" /><glyph glyph-name="" unicode="&#x405;" d="M70 425 q3 -217 165 -333 q161 -116 454 -117 q291 3 460 131 q168 128 171 352 q1 175 -100 277 q-102 103 -311 139 l-198 34 q-102 17 -149 48 q-48 30 -47 81 q1 55 49 86 q48 31 132 32 q87 0 145 -38 q57 -37 61 -105 l387 0 q-3 212 -157 333 q-155 121 -444 123 q-263 -2 -426 -128 q-163 -127 -168 -348 q1 -170 105 -279 q105 -109 304 -145 l191 -34 q115 -20 162 -47 q48 -28 46 -77 q-1 -53 -55 -87 q-54 -33 -150 -34 q-88 1 -151 37 q-64 37 -75 99 l-401 0 Z" /><glyph glyph-name="" unicode="&#x408;" d="M30 511 q3 -253 153 -393 q150 -141 415 -143 q265 1 412 136 q147 135 149 390 l0 942 l-424 0 l0 -939 q0 -86 -37 -130 q-36 -44 -106 -44 q-73 1 -114 48 q-41 48 -42 133 l-406 0 Z" /><glyph glyph-name="" unicode="a" d="M569 259 q-58 0 -92 26 q-34 26 -35 73 q0 43 33 70 q33 26 95 31 l181 13 l0 -74 q-2 -64 -55 -101 q-53 -37 -127 -38 l0 0 ZM417 -16 q101 0 190 43 q89 42 136 125 l8 0 l0 -152 l400 0 l0 769 q-3 174 -142 277 q-139 103 -375 106 q-246 -2 -387 -106 q-141 -103 -151 -284 l366 0 q6 45 45 75 q39 30 105 31 q62 0 100 -31 q38 -30 39 -88 l0 -57 l-248 -15 q-226 -14 -345 -101 q-119 -88 -120 -249 q4 -155 112 -248 q108 -93 267 -95 l0 0 Z" /><glyph glyph-name="" unicode="à" d="M569 259 q-58 0 -92 26 q-34 26 -35 73 q0 43 33 70 q33 26 95 31 l181 13 l0 -74 q-2 -64 -55 -101 q-53 -37 -127 -38 l0 0 ZM417 -16 q101 0 190 43 q89 42 136 125 l8 0 l0 -152 l400 0 l0 769 q-3 174 -142 277 q-139 103 -375 106 q-246 -2 -387 -106 q-141 -103 -151 -284 l366 0 q6 45 45 75 q39 30 105 31 q62 0 100 -31 q38 -30 39 -88 l0 -57 l-248 -15 q-226 -14 -345 -101 q-119 -88 -120 -249 q4 -155 112 -248 q108 -93 267 -95 l0 0 ZM804 1275 l-232 321 l-347 0 l265 -321 l314 0 Z" /><glyph glyph-name="" unicode="á" d="M569 259 q-58 0 -92 26 q-34 26 -35 73 q0 43 33 70 q33 26 95 31 l181 13 l0 -74 q-2 -64 -55 -101 q-53 -37 -127 -38 l0 0 ZM417 -16 q101 0 190 43 q89 42 136 125 l8 0 l0 -152 l400 0 l0 769 q-3 174 -142 277 q-139 103 -375 106 q-246 -2 -387 -106 q-141 -103 -151 -284 l366 0 q6 45 45 75 q39 30 105 31 q62 0 100 -31 q38 -30 39 -88 l0 -57 l-248 -15 q-226 -14 -345 -101 q-119 -88 -120 -249 q4 -155 112 -248 q108 -93 267 -95 l0 0 ZM779 1275 l265 321 l-347 0 l-232 -321 l314 0 Z" /><glyph glyph-name="" unicode="ä" d="M569 259 q-58 0 -92 26 q-34 26 -35 73 q0 43 33 70 q33 26 95 31 l181 13 l0 -74 q-2 -64 -55 -101 q-53 -37 -127 -38 l0 0 ZM417 -16 q101 0 190 43 q89 42 136 125 l8 0 l0 -152 l400 0 l0 769 q-3 174 -142 277 q-139 103 -375 106 q-246 -2 -387 -106 q-141 -103 -151 -284 l366 0 q6 45 45 75 q39 30 105 31 q62 0 100 -31 q38 -30 39 -88 l0 -57 l-248 -15 q-226 -14 -345 -101 q-119 -88 -120 -249 q4 -155 112 -248 q108 -93 267 -95 l0 0 ZM408 1256 q70 2 114 44 q43 43 44 106 q-1 64 -44 106 q-44 42 -114 44 q-70 -2 -113 -44 q-44 -42 -45 -106 q1 -63 45 -106 q43 -42 113 -44 l0 0 ZM852 1256 q70 2 114 44 q43 43 44 106 q-1 64 -44 106 q-44 42 -114 44 q-70 -2 -113 -44 q-44 -42 -45 -106 q1 -63 45 -106 q43 -42 113 -44 l0 0 Z" /><glyph glyph-name="" unicode="&#x1df;" d="M569 259 q-58 0 -92 26 q-34 26 -35 73 q0 43 33 70 q33 26 95 31 l181 13 l0 -74 q-2 -64 -55 -101 q-53 -37 -127 -38 l0 0 ZM417 -16 q101 0 190 43 q89 42 136 125 l8 0 l0 -152 l400 0 l0 769 q-3 174 -142 277 q-139 103 -375 106 q-246 -2 -387 -106 q-141 -103 -151 -284 l366 0 q6 45 45 75 q39 30 105 31 q62 0 100 -31 q38 -30 39 -88 l0 -57 l-248 -15 q-226 -14 -345 -101 q-119 -88 -120 -249 q4 -155 112 -248 q108 -93 267 -95 l0 0 ZM421 1255 q66 2 107 42 q41 40 42 99 q-1 60 -42 100 q-41 40 -107 41 q-66 -1 -107 -41 q-41 -40 -42 -100 q1 -59 42 -99 q41 -40 107 -42 l0 0 ZM839 1255 q66 2 107 42 q41 40 42 99 q-1 60 -42 100 q-41 40 -107 41 q-66 -1 -107 -41 q-41 -40 -42 -100 q1 -59 42 -99 q41 -40 107 -42 l0 0 ZM982 1840 l-704 0 l0 -180 l704 0 l0 180 Z" /><glyph glyph-name="" unicode="å" d="M569 259 q-58 0 -92 26 q-34 26 -35 73 q0 43 33 70 q33 26 95 31 l181 13 l0 -74 q-2 -64 -55 -101 q-53 -37 -127 -38 l0 0 ZM417 -16 q101 0 190 43 q89 42 136 125 l8 0 l0 -152 l400 0 l0 769 q-3 174 -142 277 q-139 103 -375 106 q-246 -2 -387 -106 q-141 -103 -151 -284 l366 0 q6 45 45 75 q39 30 105 31 q62 0 100 -31 q38 -30 39 -88 l0 -57 l-248 -15 q-226 -14 -345 -101 q-119 -88 -120 -249 q4 -155 112 -248 q108 -93 267 -95 l0 0 ZM630 1235 q102 3 171 69 q69 67 72 166 q-3 100 -72 167 q-69 66 -171 69 q-102 -3 -171 -69 q-70 -67 -73 -167 q3 -99 73 -166 q69 -66 171 -69 l0 0 ZM630 1386 q-36 1 -62 25 q-25 24 -26 59 q1 36 26 61 q26 24 62 25 q36 -1 62 -25 q25 -25 26 -61 q-1 -35 -26 -59 q-26 -24 -62 -25 l0 0 Z" /><glyph glyph-name="" unicode="&#x1fb;" d="M569 259 q-58 0 -92 26 q-34 26 -35 73 q0 43 33 70 q33 26 95 31 l181 13 l0 -74 q-2 -64 -55 -101 q-53 -37 -127 -38 l0 0 ZM417 -16 q101 0 190 43 q89 42 136 125 l8 0 l0 -152 l400 0 l0 769 q-3 174 -142 277 q-139 103 -375 106 q-246 -2 -387 -106 q-141 -103 -151 -284 l366 0 q6 45 45 75 q39 30 105 31 q62 0 100 -31 q38 -30 39 -88 l0 -57 l-248 -15 q-226 -14 -345 -101 q-119 -88 -120 -249 q4 -155 112 -248 q108 -93 267 -95 l0 0 ZM633 1236 q106 2 171 64 q64 62 66 163 q-2 102 -66 164 q-65 62 -171 64 q-106 -2 -171 -64 q-64 -62 -66 -164 q2 -101 66 -163 q65 -62 171 -64 l0 0 ZM555 1463 q1 35 22 56 q22 21 56 22 q34 -1 56 -22 q21 -21 22 -56 q-1 -34 -22 -55 q-22 -21 -56 -22 q-34 1 -56 22 q-21 21 -22 55 l0 0 ZM514 1771 l268 0 l190 230 l-314 0 l-144 -230 Z" /><glyph glyph-name="" unicode="ã" d="M569 259 q-58 0 -92 26 q-34 26 -35 73 q0 43 33 70 q33 26 95 31 l181 13 l0 -74 q-2 -64 -55 -101 q-53 -37 -127 -38 l0 0 ZM417 -16 q101 0 190 43 q89 42 136 125 l8 0 l0 -152 l400 0 l0 769 q-3 174 -142 277 q-139 103 -375 106 q-246 -2 -387 -106 q-141 -103 -151 -284 l366 0 q6 45 45 75 q39 30 105 31 q62 0 100 -31 q38 -30 39 -88 l0 -57 l-248 -15 q-226 -14 -345 -101 q-119 -88 -120 -249 q4 -155 112 -248 q108 -93 267 -95 l0 0 ZM783 1258 q104 1 176 79 q72 78 75 219 l-201 0 q-2 -47 -18 -76 q-17 -29 -51 -30 q-48 7 -105 60 q-57 52 -163 59 q-104 -1 -176 -76 q-72 -76 -75 -217 l201 0 q2 41 18 70 q17 30 51 31 q48 -7 105 -59 q57 -53 163 -60 l0 0 Z" /><glyph glyph-name="" unicode="&#x1eb1;" d="M569 259 q-58 0 -92 26 q-34 26 -35 73 q0 43 33 70 q33 26 95 31 l181 13 l0 -74 q-2 -64 -55 -101 q-53 -37 -127 -38 l0 0 ZM417 -16 q101 0 190 43 q89 42 136 125 l8 0 l0 -152 l400 0 l0 769 q-3 174 -142 277 q-139 103 -375 106 q-246 -2 -387 -106 q-141 -103 -151 -284 l366 0 q6 45 45 75 q39 30 105 31 q62 0 100 -31 q38 -30 39 -88 l0 -57 l-248 -15 q-226 -14 -345 -101 q-119 -88 -120 -249 q4 -155 112 -248 q108 -93 267 -95 l0 0 ZM763 1642 l-172 268 l-313 0 l243 -268 l242 0 ZM1025 1590 l-236 0 q-3 -66 -43 -106 q-41 -41 -116 -42 q-75 1 -115 42 q-41 40 -44 106 l-236 0 q5 -139 105 -234 q101 -96 290 -100 q190 4 290 100 q100 95 105 234 l0 0 Z" /><glyph glyph-name="" unicode="&#x1e1;" d="M569 259 q-58 0 -92 26 q-34 26 -35 73 q0 43 33 70 q33 26 95 31 l181 13 l0 -74 q-2 -64 -55 -101 q-53 -37 -127 -38 l0 0 ZM417 -16 q101 0 190 43 q89 42 136 125 l8 0 l0 -152 l400 0 l0 769 q-3 174 -142 277 q-139 103 -375 106 q-246 -2 -387 -106 q-141 -103 -151 -284 l366 0 q6 45 45 75 q39 30 105 31 q62 0 100 -31 q38 -30 39 -88 l0 -57 l-248 -15 q-226 -14 -345 -101 q-119 -88 -120 -249 q4 -155 112 -248 q108 -93 267 -95 l0 0 ZM630 1242 q77 2 126 51 q49 49 51 122 q-2 73 -51 122 q-49 49 -126 51 q-77 -2 -126 -51 q-49 -49 -51 -122 q2 -73 51 -122 q49 -49 126 -51 l0 0 ZM982 1850 l-704 0 l0 -180 l704 0 l0 180 Z" /><glyph glyph-name="" unicode="&#x1e01;" d="M569 259 q-58 0 -92 26 q-34 26 -35 73 q0 43 33 70 q33 26 95 31 l181 13 l0 -74 q-2 -64 -55 -101 q-53 -37 -127 -38 l0 0 ZM417 -16 q101 0 190 43 q89 42 136 125 l8 0 l0 -152 l400 0 l0 769 q-3 174 -142 277 q-139 103 -375 106 q-246 -2 -387 -106 q-141 -103 -151 -284 l366 0 q6 45 45 75 q39 30 105 31 q62 0 100 -31 q38 -30 39 -88 l0 -57 l-248 -15 q-226 -14 -345 -101 q-119 -88 -120 -249 q4 -155 112 -248 q108 -93 267 -95 l0 0 ZM621 -603 q102 3 171 69 q69 67 72 166 q-3 100 -72 167 q-69 66 -171 69 q-102 -3 -171 -69 q-70 -67 -73 -167 q3 -99 73 -166 q69 -66 171 -69 l0 0 ZM621 -452 q-36 1 -62 25 q-25 24 -26 59 q1 36 26 61 q26 24 62 25 q36 -1 62 -25 q25 -25 26 -61 q-1 -35 -26 -59 q-26 -24 -62 -25 l0 0 Z" /><glyph glyph-name="" unicode="â" d="M569 259 q-58 0 -92 26 q-34 26 -35 73 q0 43 33 70 q33 26 95 31 l181 13 l0 -74 q-2 -64 -55 -101 q-53 -37 -127 -38 l0 0 ZM417 -16 q101 0 190 43 q89 42 136 125 l8 0 l0 -152 l400 0 l0 769 q-3 174 -142 277 q-139 103 -375 106 q-246 -2 -387 -106 q-141 -103 -151 -284 l366 0 q6 45 45 75 q39 30 105 31 q62 0 100 -31 q38 -30 39 -88 l0 -57 l-248 -15 q-226 -14 -345 -101 q-119 -88 -120 -249 q4 -155 112 -248 q108 -93 267 -95 l0 0 ZM787 1592 l-314 0 l-255 -336 l284 0 l124 180 l8 0 l124 -180 l284 0 l-255 336 Z" /><glyph glyph-name="" unicode="&#x1ead;" d="M569 259 q-58 0 -92 26 q-34 26 -35 73 q0 43 33 70 q33 26 95 31 l181 13 l0 -74 q-2 -64 -55 -101 q-53 -37 -127 -38 l0 0 ZM417 -16 q101 0 190 43 q89 42 136 125 l8 0 l0 -152 l400 0 l0 769 q-3 174 -142 277 q-139 103 -375 106 q-246 -2 -387 -106 q-141 -103 -151 -284 l366 0 q6 45 45 75 q39 30 105 31 q62 0 100 -31 q38 -30 39 -88 l0 -57 l-248 -15 q-226 -14 -345 -101 q-119 -88 -120 -249 q4 -155 112 -248 q108 -93 267 -95 l0 0 ZM787 1592 l-314 0 l-255 -336 l284 0 l124 180 l8 0 l124 -180 l284 0 l-255 336 ZM621 -524 q77 2 126 52 q49 50 51 125 q-2 75 -51 124 q-49 50 -126 52 q-77 -2 -126 -52 q-49 -49 -51 -124 q2 -75 51 -125 q49 -50 126 -52 l0 0 Z" /><glyph glyph-name="" unicode="&#x1ea5;" d="M569 259 q-58 0 -92 26 q-34 26 -35 73 q0 43 33 70 q33 26 95 31 l181 13 l0 -74 q-2 -64 -55 -101 q-53 -37 -127 -38 l0 0 ZM417 -16 q101 0 190 43 q89 42 136 125 l8 0 l0 -152 l400 0 l0 769 q-3 174 -142 277 q-139 103 -375 106 q-246 -2 -387 -106 q-141 -103 -151 -284 l366 0 q6 45 45 75 q39 30 105 31 q62 0 100 -31 q38 -30 39 -88 l0 -57 l-248 -15 q-226 -14 -345 -101 q-119 -88 -120 -249 q4 -155 112 -248 q108 -93 267 -95 l0 0 ZM787 1592 l-314 0 l-255 -336 l284 0 l124 180 l8 0 l124 -180 l284 0 l-255 336 ZM764 1651 l286 0 l238 281 l-322 0 l-202 -281 Z" /><glyph glyph-name="" unicode="&#x1eab;" d="M569 259 q-58 0 -92 26 q-34 26 -35 73 q0 43 33 70 q33 26 95 31 l181 13 l0 -74 q-2 -64 -55 -101 q-53 -37 -127 -38 l0 0 ZM417 -16 q101 0 190 43 q89 42 136 125 l8 0 l0 -152 l400 0 l0 769 q-3 174 -142 277 q-139 103 -375 106 q-246 -2 -387 -106 q-141 -103 -151 -284 l366 0 q6 45 45 75 q39 30 105 31 q62 0 100 -31 q38 -30 39 -88 l0 -57 l-248 -15 q-226 -14 -345 -101 q-119 -88 -120 -249 q4 -155 112 -248 q108 -93 267 -95 l0 0 ZM787 1572 l-314 0 l-255 -316 l284 0 l124 164 l8 0 l124 -164 l284 0 l-255 316 ZM773 1639 q104 1 176 79 q72 78 75 219 l-201 0 q-2 -47 -18 -76 q-17 -29 -51 -30 q-48 7 -105 60 q-56 52 -162 59 q-104 -1 -176 -76 q-72 -76 -75 -217 l201 0 q2 41 18 70 q17 30 51 31 q48 -7 105 -59 q56 -53 162 -60 l0 0 Z" /><glyph glyph-name="" unicode="&#x1ea7;" d="M569 259 q-58 0 -92 26 q-34 26 -35 73 q0 43 33 70 q33 26 95 31 l181 13 l0 -74 q-2 -64 -55 -101 q-53 -37 -127 -38 l0 0 ZM417 -16 q101 0 190 43 q89 42 136 125 l8 0 l0 -152 l400 0 l0 769 q-3 174 -142 277 q-139 103 -375 106 q-246 -2 -387 -106 q-141 -103 -151 -284 l366 0 q6 45 45 75 q39 30 105 31 q62 0 100 -31 q38 -30 39 -88 l0 -57 l-248 -15 q-226 -14 -345 -101 q-119 -88 -120 -249 q4 -155 112 -248 q108 -93 267 -95 l0 0 ZM787 1592 l-314 0 l-255 -336 l284 0 l124 180 l8 0 l124 -180 l284 0 l-255 336 ZM1128 1651 l-202 281 l-322 0 l238 -281 l286 0 Z" /><glyph glyph-name="" unicode="&#x1ea9;" d="M569 259 q-58 0 -92 26 q-34 26 -35 73 q0 43 33 70 q33 26 95 31 l181 13 l0 -74 q-2 -64 -55 -101 q-53 -37 -127 -38 l0 0 ZM417 -16 q101 0 190 43 q89 42 136 125 l8 0 l0 -152 l400 0 l0 769 q-3 174 -142 277 q-139 103 -375 106 q-246 -2 -387 -106 q-141 -103 -151 -284 l366 0 q6 45 45 75 q39 30 105 31 q62 0 100 -31 q38 -30 39 -88 l0 -57 l-248 -15 q-226 -14 -345 -101 q-119 -88 -120 -249 q4 -155 112 -248 q108 -93 267 -95 l0 0 ZM778 1772 q17 7 40 10 q22 3 46 3 q48 0 75 -19 q27 -20 27 -55 q0 -31 -22 -60 q-23 -30 -67 -49 l106 -121 q98 40 146 105 q48 64 48 154 q-1 101 -72 158 q-71 57 -197 58 q-36 0 -70 -5 q-34 -6 -60 -15 l0 -164 ZM787 1592 l-314 0 l-255 -336 l284 0 l124 180 l8 0 l124 -180 l284 0 l-255 336 Z" /><glyph glyph-name="" unicode="&#x103;" d="M569 259 q-58 0 -92 26 q-34 26 -35 73 q0 43 33 70 q33 26 95 31 l181 13 l0 -74 q-2 -64 -55 -101 q-53 -37 -127 -38 l0 0 ZM417 -16 q101 0 190 43 q89 42 136 125 l8 0 l0 -152 l400 0 l0 769 q-3 174 -142 277 q-139 103 -375 106 q-246 -2 -387 -106 q-141 -103 -151 -284 l366 0 q6 45 45 75 q39 30 105 31 q62 0 100 -31 q38 -30 39 -88 l0 -57 l-248 -15 q-226 -14 -345 -101 q-119 -88 -120 -249 q4 -155 112 -248 q108 -93 267 -95 l0 0 ZM235 1590 q5 -139 105 -234 q101 -96 290 -100 q190 4 290 100 q100 95 105 234 l-236 0 q-3 -66 -43 -106 q-41 -41 -116 -42 q-75 1 -115 42 q-41 40 -44 106 l-236 0 Z" /><glyph glyph-name="" unicode="&#x1eaf;" d="M569 259 q-58 0 -92 26 q-34 26 -35 73 q0 43 33 70 q33 26 95 31 l181 13 l0 -74 q-2 -64 -55 -101 q-53 -37 -127 -38 l0 0 ZM417 -16 q101 0 190 43 q89 42 136 125 l8 0 l0 -152 l400 0 l0 769 q-3 174 -142 277 q-139 103 -375 106 q-246 -2 -387 -106 q-141 -103 -151 -284 l366 0 q6 45 45 75 q39 30 105 31 q62 0 100 -31 q38 -30 39 -88 l0 -57 l-248 -15 q-226 -14 -345 -101 q-119 -88 -120 -249 q4 -155 112 -248 q108 -93 267 -95 l0 0 ZM484 1651 l286 0 l238 281 l-322 0 l-202 -281 ZM1025 1590 l-236 0 q-3 -66 -43 -106 q-41 -41 -116 -42 q-75 1 -115 42 q-41 40 -44 106 l-236 0 q5 -139 105 -234 q101 -96 290 -100 q190 4 290 100 q100 95 105 234 l0 0 Z" /><glyph glyph-name="" unicode="&#x1eb5;" d="M569 259 q-58 0 -92 26 q-34 26 -35 73 q0 43 33 70 q33 26 95 31 l181 13 l0 -74 q-2 -64 -55 -101 q-53 -37 -127 -38 l0 0 ZM417 -16 q101 0 190 43 q89 42 136 125 l8 0 l0 -152 l400 0 l0 769 q-3 174 -142 277 q-139 103 -375 106 q-246 -2 -387 -106 q-141 -103 -151 -284 l366 0 q6 45 45 75 q39 30 105 31 q62 0 100 -31 q38 -30 39 -88 l0 -57 l-248 -15 q-226 -14 -345 -101 q-119 -88 -120 -249 q4 -155 112 -248 q108 -93 267 -95 l0 0 ZM1025 1590 l-236 0 q-3 -66 -43 -106 q-41 -41 -116 -42 q-75 1 -115 42 q-41 40 -44 106 l-236 0 q5 -139 105 -234 q101 -96 290 -100 q190 4 290 100 q100 95 105 234 l0 0 ZM773 1639 q104 1 176 79 q72 78 75 219 l-201 0 q-2 -47 -18 -76 q-17 -29 -51 -30 q-48 7 -105 60 q-56 52 -162 59 q-104 -1 -176 -75 q-72 -74 -75 -208 l201 0 q2 34 18 62 q17 27 51 29 q48 -7 105 -59 q56 -53 162 -60 l0 0 Z" /><glyph glyph-name="" unicode="&#x1eb3;" d="M569 259 q-58 0 -92 26 q-34 26 -35 73 q0 43 33 70 q33 26 95 31 l181 13 l0 -74 q-2 -64 -55 -101 q-53 -37 -127 -38 l0 0 ZM417 -16 q101 0 190 43 q89 42 136 125 l8 0 l0 -152 l400 0 l0 769 q-3 174 -142 277 q-139 103 -375 106 q-246 -2 -387 -106 q-141 -103 -151 -284 l366 0 q6 45 45 75 q39 30 105 31 q62 0 100 -31 q38 -30 39 -88 l0 -57 l-248 -15 q-226 -14 -345 -101 q-119 -88 -120 -249 q4 -155 112 -248 q108 -93 267 -95 l0 0 ZM1025 1590 l-236 0 q-3 -66 -43 -106 q-41 -41 -116 -42 q-75 1 -115 42 q-41 40 -44 106 l-236 0 q5 -139 105 -234 q101 -96 290 -100 q190 4 290 100 q100 95 105 234 l0 0 ZM441 1825 q17 6 38 10 q20 3 41 3 q45 0 70 -19 q24 -18 24 -51 q1 -24 -17 -46 q-17 -22 -62 -46 l98 -111 q90 36 134 92 q43 55 43 137 q-1 94 -67 146 q-66 52 -183 53 q-34 0 -65 -5 q-31 -5 -54 -15 l0 -148 Z" /><glyph glyph-name="" unicode="&#x1eb7;" d="M569 259 q-58 0 -92 26 q-34 26 -35 73 q0 43 33 70 q33 26 95 31 l181 13 l0 -74 q-2 -64 -55 -101 q-53 -37 -127 -38 l0 0 ZM417 -16 q101 0 190 43 q89 42 136 125 l8 0 l0 -152 l400 0 l0 769 q-3 174 -142 277 q-139 103 -375 106 q-246 -2 -387 -106 q-141 -103 -151 -284 l366 0 q6 45 45 75 q39 30 105 31 q62 0 100 -31 q38 -30 39 -88 l0 -57 l-248 -15 q-226 -14 -345 -101 q-119 -88 -120 -249 q4 -155 112 -248 q108 -93 267 -95 l0 0 ZM235 1590 q5 -139 105 -234 q101 -96 290 -100 q190 4 290 100 q100 95 105 234 l-236 0 q-3 -66 -43 -106 q-41 -41 -116 -42 q-75 1 -115 42 q-41 40 -44 106 l-236 0 ZM621 -524 q77 2 126 52 q49 50 51 125 q-2 75 -51 124 q-49 50 -126 52 q-77 -2 -126 -52 q-49 -49 -51 -124 q2 -75 51 -125 q49 -50 126 -52 l0 0 Z" /><glyph glyph-name="" unicode="&#x203;" d="M569 259 q-58 0 -92 26 q-34 26 -35 73 q0 43 33 70 q33 26 95 31 l181 13 l0 -74 q-2 -64 -55 -101 q-53 -37 -127 -38 l0 0 ZM417 -16 q101 0 190 43 q89 42 136 125 l8 0 l0 -152 l400 0 l0 769 q-3 174 -142 277 q-139 103 -375 106 q-246 -2 -387 -106 q-141 -103 -151 -284 l366 0 q6 45 45 75 q39 30 105 31 q62 0 100 -31 q38 -30 39 -88 l0 -57 l-248 -15 q-226 -14 -345 -101 q-119 -88 -120 -249 q4 -155 112 -248 q108 -93 267 -95 l0 0 ZM235 1256 l236 0 q3 66 44 106 q40 41 115 42 q75 -1 116 -42 q40 -40 43 -106 l236 0 q-5 139 -105 235 q-100 95 -290 99 q-189 -4 -290 -99 q-100 -96 -105 -235 l0 0 Z" /><glyph glyph-name="" unicode="&#x1ce;" d="M569 259 q-58 0 -92 26 q-34 26 -35 73 q0 43 33 70 q33 26 95 31 l181 13 l0 -74 q-2 -64 -55 -101 q-53 -37 -127 -38 l0 0 ZM417 -16 q101 0 190 43 q89 42 136 125 l8 0 l0 -152 l400 0 l0 769 q-3 174 -142 277 q-139 103 -375 106 q-246 -2 -387 -106 q-141 -103 -151 -284 l366 0 q6 45 45 75 q39 30 105 31 q62 0 100 -31 q38 -30 39 -88 l0 -57 l-248 -15 q-226 -14 -345 -101 q-119 -88 -120 -249 q4 -155 112 -248 q108 -93 267 -95 l0 0 ZM787 1256 l255 336 l-284 0 l-124 -180 l-8 0 l-124 180 l-284 0 l255 -336 l314 0 Z" /><glyph glyph-name="" unicode="&#x227;" d="M569 259 q-58 0 -92 26 q-34 26 -35 73 q0 43 33 70 q33 26 95 31 l181 13 l0 -74 q-2 -64 -55 -101 q-53 -37 -127 -38 l0 0 ZM417 -16 q101 0 190 43 q89 42 136 125 l8 0 l0 -152 l400 0 l0 769 q-3 174 -142 277 q-139 103 -375 106 q-246 -2 -387 -106 q-141 -103 -151 -284 l366 0 q6 45 45 75 q39 30 105 31 q62 0 100 -31 q38 -30 39 -88 l0 -57 l-248 -15 q-226 -14 -345 -101 q-119 -88 -120 -249 q4 -155 112 -248 q108 -93 267 -95 l0 0 ZM628 1264 q77 2 126 51 q49 49 51 122 q-2 73 -51 122 q-49 49 -126 51 q-77 -2 -126 -51 q-49 -49 -51 -122 q2 -73 51 -122 q49 -49 126 -51 l0 0 Z" /><glyph glyph-name="" unicode="&#x1ea1;" d="M569 259 q-58 0 -92 26 q-34 26 -35 73 q0 43 33 70 q33 26 95 31 l181 13 l0 -74 q-2 -64 -55 -101 q-53 -37 -127 -38 l0 0 ZM417 -16 q101 0 190 43 q89 42 136 125 l8 0 l0 -152 l400 0 l0 769 q-3 174 -142 277 q-139 103 -375 106 q-246 -2 -387 -106 q-141 -103 -151 -284 l366 0 q6 45 45 75 q39 30 105 31 q62 0 100 -31 q38 -30 39 -88 l0 -57 l-248 -15 q-226 -14 -345 -101 q-119 -88 -120 -249 q4 -155 112 -248 q108 -93 267 -95 l0 0 ZM621 -524 q77 2 126 52 q49 50 51 125 q-2 75 -51 124 q-49 50 -126 52 q-77 -2 -126 -52 q-49 -49 -51 -124 q2 -75 51 -125 q49 -50 126 -52 l0 0 Z" /><glyph glyph-name="" unicode="&#x1ea3;" d="M569 259 q-58 0 -92 26 q-34 26 -35 73 q0 43 33 70 q33 26 95 31 l181 13 l0 -74 q-2 -64 -55 -101 q-53 -37 -127 -38 l0 0 ZM417 -16 q101 0 190 43 q89 42 136 125 l8 0 l0 -152 l400 0 l0 769 q-3 174 -142 277 q-139 103 -375 106 q-246 -2 -387 -106 q-141 -103 -151 -284 l366 0 q6 45 45 75 q39 30 105 31 q62 0 100 -31 q38 -30 39 -88 l0 -57 l-248 -15 q-226 -14 -345 -101 q-119 -88 -120 -249 q4 -155 112 -248 q108 -93 267 -95 l0 0 ZM442 1538 q21 8 48 13 q27 5 54 5 q53 0 84 -23 q30 -22 31 -60 q1 -38 -22 -66 q-23 -28 -77 -56 l108 -125 q104 51 160 120 q55 69 56 148 q-1 110 -75 173 q-74 64 -202 65 q-40 0 -87 -9 q-48 -9 -78 -21 l0 -164 Z" /><glyph glyph-name="" unicode="&#x201;" d="M569 259 q-58 0 -92 26 q-34 26 -35 73 q0 43 33 70 q33 26 95 31 l181 13 l0 -74 q-2 -64 -55 -101 q-53 -37 -127 -38 l0 0 ZM417 -16 q101 0 190 43 q89 42 136 125 l8 0 l0 -152 l400 0 l0 769 q-3 174 -142 277 q-139 103 -375 106 q-246 -2 -387 -106 q-141 -103 -151 -284 l366 0 q6 45 45 75 q39 30 105 31 q62 0 100 -31 q38 -30 39 -88 l0 -57 l-248 -15 q-226 -14 -345 -101 q-119 -88 -120 -249 q4 -155 112 -248 q108 -93 267 -95 l0 0 ZM570 1276 l-182 320 l-309 0 l211 -320 l280 0 ZM995 1276 l-183 320 l-308 0 l211 -320 l280 0 Z" /><glyph glyph-name="" unicode="&#x101;" d="M569 259 q-58 0 -92 26 q-34 26 -35 73 q0 43 33 70 q33 26 95 31 l181 13 l0 -74 q-2 -64 -55 -101 q-53 -37 -127 -38 l0 0 ZM417 -16 q101 0 190 43 q89 42 136 125 l8 0 l0 -152 l400 0 l0 769 q-3 174 -142 277 q-139 103 -375 106 q-246 -2 -387 -106 q-141 -103 -151 -284 l366 0 q6 45 45 75 q39 30 105 31 q62 0 100 -31 q38 -30 39 -88 l0 -57 l-248 -15 q-226 -14 -345 -101 q-119 -88 -120 -249 q4 -155 112 -248 q108 -93 267 -95 l0 0 ZM982 1456 l-704 0 l0 -180 l704 0 l0 180 Z" /><glyph glyph-name="" unicode="&#x105;" d="M569 259 q-58 0 -92 26 q-34 26 -35 73 q0 43 33 70 q33 26 95 31 l181 13 l0 -74 q-2 -64 -55 -101 q-53 -37 -127 -38 l0 0 ZM1087 -468 l0 193 q-7 -4 -27 -6 q-20 -3 -45 -3 q-64 1 -94 26 q-30 25 -30 68 q3 70 61 120 q58 50 139 62 l60 8 l0 769 q-3 174 -142 277 q-139 103 -375 106 q-246 -2 -387 -106 q-141 -103 -151 -284 l366 0 q6 45 45 75 q39 30 105 31 q62 0 100 -31 q38 -30 39 -88 l0 -57 l-248 -15 q-226 -14 -345 -101 q-119 -88 -120 -249 q4 -155 112 -248 q108 -93 267 -95 q101 0 190 43 q89 42 136 125 l8 0 l0 -172 q-61 -38 -101 -101 q-40 -63 -41 -133 q2 -108 84 -173 q83 -65 222 -67 q77 1 116 9 q40 9 56 17 l0 0 Z" /><glyph glyph-name="" unicode="b" d="M843 -16 q211 1 324 150 q112 149 113 428 q-1 280 -114 428 q-114 149 -328 150 q-122 -1 -208 -58 q-86 -56 -127 -160 l-8 0 l0 596 l-410 0 l0 -1518 l410 0 l0 194 l8 0 q40 -99 128 -154 q87 -55 212 -56 l0 0 ZM677 823 q84 -1 133 -71 q49 -69 50 -190 q-1 -121 -49 -190 q-49 -70 -134 -71 q-86 1 -134 70 q-48 68 -50 190 q2 121 50 191 q49 70 134 71 l0 0 Z" /><glyph glyph-name="" unicode="&#x1e07;" d="M843 -16 q211 1 324 150 q112 149 113 428 q-1 280 -114 428 q-114 149 -328 150 q-122 -1 -208 -58 q-86 -56 -127 -160 l-8 0 l0 596 l-410 0 l0 -1518 l410 0 l0 194 l8 0 q40 -99 128 -154 q87 -55 212 -56 l0 0 ZM677 823 q84 -1 133 -71 q49 -69 50 -190 q-1 -121 -49 -190 q-49 -70 -134 -71 q-86 1 -134 70 q-48 68 -50 190 q2 121 50 191 q49 70 134 71 l0 0 ZM1039 -240 l-748 0 l0 -180 l748 0 l0 180 Z" /><glyph glyph-name="" unicode="&#x1e05;" d="M843 -16 q211 1 324 150 q112 149 113 428 q-1 280 -114 428 q-114 149 -328 150 q-122 -1 -208 -58 q-86 -56 -127 -160 l-8 0 l0 596 l-410 0 l0 -1518 l410 0 l0 194 l8 0 q40 -99 128 -154 q87 -55 212 -56 l0 0 ZM677 823 q84 -1 133 -71 q49 -69 50 -190 q-1 -121 -49 -190 q-49 -70 -134 -71 q-86 1 -134 70 q-48 68 -50 190 q2 121 50 191 q49 70 134 71 l0 0 ZM665 -524 q77 2 126 52 q49 50 51 125 q-2 75 -51 124 q-49 50 -126 52 q-77 -2 -126 -52 q-49 -49 -51 -124 q2 -75 51 -125 q49 -50 126 -52 l0 0 Z" /><glyph glyph-name="" unicode="&#x1e03;" d="M843 -16 q211 1 324 150 q112 149 113 428 q-1 280 -114 428 q-114 149 -328 150 q-122 -1 -208 -58 q-86 -56 -127 -160 l-8 0 l0 596 l-410 0 l0 -1518 l410 0 l0 194 l8 0 q40 -99 128 -154 q87 -55 212 -56 l0 0 ZM677 823 q84 -1 133 -71 q49 -69 50 -190 q-1 -121 -49 -190 q-49 -70 -134 -71 q-86 1 -134 70 q-48 68 -50 190 q2 121 50 191 q49 70 134 71 l0 0 ZM290 1611 q77 2 126 52 q49 50 51 125 q-2 75 -51 124 q-49 50 -126 52 q-77 -2 -126 -52 q-49 -49 -51 -124 q2 -75 51 -125 q49 -50 126 -52 l0 0 Z" /><glyph glyph-name="" unicode="c" d="M1178 662 q-8 228 -153 358 q-145 130 -392 132 q-273 -2 -426 -157 q-154 -155 -157 -432 q3 -280 156 -434 q154 -155 429 -157 q251 2 394 128 q143 127 149 355 l-373 0 q-7 -85 -50 -130 q-43 -46 -115 -47 q-86 0 -130 73 q-45 72 -45 212 q0 138 45 210 q45 72 130 73 q70 -1 114 -49 q43 -49 51 -135 l373 0 Z" /><glyph glyph-name="" unicode="&#x107;" d="M1178 662 q-8 228 -153 358 q-145 130 -392 132 q-273 -2 -426 -157 q-154 -155 -157 -432 q3 -280 156 -434 q154 -155 429 -157 q251 2 394 128 q143 127 149 355 l-373 0 q-7 -85 -50 -130 q-43 -46 -115 -47 q-86 0 -130 73 q-45 72 -45 212 q0 138 45 210 q45 72 130 73 q70 -1 114 -49 q43 -49 51 -135 l373 0 ZM756 1275 l265 321 l-347 0 l-232 -321 l314 0 Z" /><glyph glyph-name="" unicode="&#x10d;" d="M1178 662 q-8 228 -153 358 q-145 130 -392 132 q-273 -2 -426 -157 q-154 -155 -157 -432 q3 -280 156 -434 q154 -155 429 -157 q251 2 394 128 q143 127 149 355 l-373 0 q-7 -85 -50 -130 q-43 -46 -115 -47 q-86 0 -130 73 q-45 72 -45 212 q0 138 45 210 q45 72 130 73 q70 -1 114 -49 q43 -49 51 -135 l373 0 ZM764 1256 l255 336 l-284 0 l-124 -180 l-8 0 l-124 180 l-284 0 l255 -336 l314 0 Z" /><glyph glyph-name="" unicode="&#x109;" d="M1178 662 q-8 228 -153 358 q-145 130 -392 132 q-273 -2 -426 -157 q-154 -155 -157 -432 q3 -280 156 -434 q154 -155 429 -157 q251 2 394 128 q143 127 149 355 l-373 0 q-7 -85 -50 -130 q-43 -46 -115 -47 q-86 0 -130 73 q-45 72 -45 212 q0 138 45 210 q45 72 130 73 q70 -1 114 -49 q43 -49 51 -135 l373 0 ZM764 1592 l-314 0 l-255 -336 l284 0 l124 180 l8 0 l124 -180 l284 0 l-255 336 Z" /><glyph glyph-name="" unicode="&#x10b;" d="M1178 662 q-8 228 -153 358 q-145 130 -392 132 q-273 -2 -426 -157 q-154 -155 -157 -432 q3 -280 156 -434 q154 -155 429 -157 q251 2 394 128 q143 127 149 355 l-373 0 q-7 -85 -50 -130 q-43 -46 -115 -47 q-86 0 -130 73 q-45 72 -45 212 q0 138 45 210 q45 72 130 73 q70 -1 114 -49 q43 -49 51 -135 l373 0 ZM605 1264 q77 2 126 51 q49 49 51 122 q-2 73 -51 122 q-49 49 -126 51 q-77 -2 -126 -51 q-49 -49 -51 -122 q2 -73 51 -122 q49 -49 126 -51 l0 0 Z" /><glyph glyph-name="" unicode="ç" d="M1178 662 q-8 228 -153 358 q-145 130 -392 132 q-273 -2 -426 -157 q-154 -155 -157 -432 q2 -249 126 -400 q123 -151 347 -183 l-43 -78 l0 -127 l56 0 q55 0 78 -10 q23 -10 22 -36 q0 -19 -22 -28 q-23 -9 -72 -9 q-27 0 -54 3 q-26 3 -45 9 l0 -141 q20 -7 56 -11 q35 -4 77 -4 q131 0 197 49 q66 49 66 146 q-1 77 -45 122 q-44 45 -117 46 l33 64 q217 21 340 146 q122 124 128 334 l-373 0 q-7 -85 -50 -130 q-43 -46 -115 -47 q-86 0 -130 73 q-45 72 -45 212 q0 138 45 210 q45 72 130 73 q70 -1 114 -49 q43 -49 51 -135 l373 0 Z" /><glyph glyph-name="" unicode="&#x1e09;" d="M1021 1596 l-347 0 l-232 -321 l314 0 l265 321 ZM1178 662 q-8 228 -153 358 q-145 130 -392 132 q-273 -2 -426 -157 q-154 -155 -157 -432 q2 -249 126 -400 q123 -151 347 -183 l-43 -78 l0 -127 l56 0 q55 0 78 -10 q23 -10 22 -36 q0 -19 -22 -28 q-23 -9 -72 -9 q-27 0 -54 3 q-26 3 -45 9 l0 -141 q20 -7 56 -11 q35 -4 77 -4 q131 0 197 49 q66 49 66 146 q-1 77 -45 122 q-44 45 -117 46 l33 64 q217 21 340 146 q122 124 128 334 l-373 0 q-7 -85 -50 -130 q-43 -46 -115 -47 q-86 0 -130 73 q-45 72 -45 212 q0 138 45 210 q45 72 130 73 q70 -1 114 -49 q43 -49 51 -135 l373 0 Z" /><glyph glyph-name="" unicode="d" d="M490 -16 q128 2 217 61 q90 58 120 149 l8 0 l0 -194 l410 0 l0 1518 l-410 0 l0 -596 l-8 0 q-34 96 -120 156 q-87 60 -211 62 q-212 -2 -328 -152 q-116 -150 -118 -423 q2 -276 116 -428 q115 -151 324 -153 l0 0 ZM653 823 q87 -1 135 -70 q48 -69 49 -192 q-1 -124 -48 -191 q-48 -68 -136 -69 q-87 1 -135 69 q-47 68 -48 192 q1 123 49 191 q48 69 134 70 l0 0 Z" /><glyph glyph-name="" unicode="&#x1e0b;" d="M490 -16 q128 2 217 61 q90 58 120 149 l8 0 l0 -194 l410 0 l0 1518 l-410 0 l0 -596 l-8 0 q-34 96 -120 156 q-87 60 -211 62 q-212 -2 -328 -152 q-116 -150 -118 -423 q2 -276 116 -428 q115 -151 324 -153 l0 0 ZM653 823 q87 -1 135 -70 q48 -69 49 -192 q-1 -124 -48 -191 q-48 -68 -136 -69 q-87 1 -135 69 q-47 68 -48 192 q1 123 49 191 q48 69 134 70 l0 0 ZM1053 1611 q77 2 126 52 q49 50 51 125 q-2 75 -51 124 q-49 50 -126 52 q-77 -2 -126 -52 q-49 -49 -51 -124 q2 -75 51 -125 q49 -50 126 -52 l0 0 Z" /><glyph glyph-name="" unicode="&#x1e13;" d="M490 -16 q128 2 217 61 q90 58 120 149 l8 0 l0 -194 l410 0 l0 1518 l-410 0 l0 -596 l-8 0 q-34 96 -120 156 q-87 60 -211 62 q-212 -2 -328 -152 q-116 -150 -118 -423 q2 -276 116 -428 q115 -151 324 -153 l0 0 ZM653 823 q87 -1 135 -70 q48 -69 49 -192 q-1 -124 -48 -191 q-48 -68 -136 -69 q-87 1 -135 69 q-47 68 -48 192 q1 123 49 191 q48 69 134 70 l0 0 ZM506 -154 l-255 -336 l276 0 l132 192 l8 0 l132 -192 l276 0 l-255 336 l-314 0 Z" /><glyph glyph-name="" unicode="&#x1e11;" d="M490 -16 q128 2 217 61 q90 58 120 149 l8 0 l0 -194 l410 0 l0 1518 l-410 0 l0 -596 l-8 0 q-34 96 -120 156 q-87 60 -211 62 q-212 -2 -328 -152 q-116 -150 -118 -423 q2 -276 116 -428 q115 -151 324 -153 l0 0 ZM653 823 q87 -1 135 -70 q48 -69 49 -192 q-1 -124 -48 -191 q-48 -68 -136 -69 q-87 1 -135 69 q-47 68 -48 192 q1 123 49 191 q48 69 134 70 l0 0 ZM634 -457 l203 321 l-359 0 l-152 -321 l308 0 Z" /><glyph glyph-name="" unicode="&#x1e0f;" d="M490 -16 q128 2 217 61 q90 58 120 149 l8 0 l0 -194 l410 0 l0 1518 l-410 0 l0 -596 l-8 0 q-34 96 -120 156 q-87 60 -211 62 q-212 -2 -328 -152 q-116 -150 -118 -423 q2 -276 116 -428 q115 -151 324 -153 l0 0 ZM653 823 q87 -1 135 -70 q48 -69 49 -192 q-1 -124 -48 -191 q-48 -68 -136 -69 q-87 1 -135 69 q-47 68 -48 192 q1 123 49 191 q48 69 134 70 l0 0 ZM1037 -240 l-748 0 l0 -180 l748 0 l0 180 Z" /><glyph glyph-name="" unicode="&#x10f;" d="M1398 1508 l0 -518 l243 0 l50 518 l-293 0 ZM490 -16 q128 2 217 61 q90 58 120 149 l8 0 l0 -194 l410 0 l0 1518 l-410 0 l0 -596 l-8 0 q-34 96 -120 156 q-87 60 -211 62 q-212 -2 -328 -152 q-116 -150 -118 -423 q2 -276 116 -428 q115 -151 324 -153 l0 0 ZM653 823 q87 -1 135 -70 q48 -69 49 -192 q-1 -124 -48 -191 q-48 -68 -136 -69 q-87 1 -135 69 q-47 68 -48 192 q1 123 49 191 q48 69 134 70 l0 0 Z" /><glyph glyph-name="" unicode="&#x1e0d;" d="M490 -16 q128 2 217 61 q90 58 120 149 l8 0 l0 -194 l410 0 l0 1518 l-410 0 l0 -596 l-8 0 q-34 96 -120 156 q-87 60 -211 62 q-212 -2 -328 -152 q-116 -150 -118 -423 q2 -276 116 -428 q115 -151 324 -153 l0 0 ZM653 823 q87 -1 135 -70 q48 -69 49 -192 q-1 -124 -48 -191 q-48 -68 -136 -69 q-87 1 -135 69 q-47 68 -48 192 q1 123 49 191 q48 69 134 70 l0 0 ZM663 -524 q77 2 126 52 q49 50 51 125 q-2 75 -51 124 q-49 50 -126 52 q-77 -2 -126 -52 q-49 -49 -51 -124 q2 -75 51 -125 q49 -50 126 -52 l0 0 Z" /><glyph glyph-name="" unicode="&#x111;" d="M653 301 q-87 1 -135 69 q-47 68 -48 192 q1 123 49 191 q48 69 134 70 q87 -1 135 -70 q48 -69 49 -192 q-1 -124 -48 -191 q-48 -68 -136 -69 l0 0 ZM1319 1413 l-74 0 l0 105 l-410 0 l0 -105 l-176 0 l0 -176 l176 0 l0 -315 l-8 0 q-34 96 -120 156 q-87 60 -211 62 q-212 -2 -328 -152 q-116 -150 -118 -423 q2 -276 116 -428 q115 -151 324 -153 q128 2 217 61 q90 58 120 149 l8 0 l0 -194 l410 0 l0 1237 l74 0 l0 176 Z" /><glyph glyph-name="" unicode="e" d="M631 869 q77 -1 125 -46 q48 -46 54 -125 l-358 0 q7 76 56 123 q49 47 123 48 l0 0 ZM822 363 q-20 -51 -67 -80 q-48 -29 -113 -29 q-88 2 -141 55 q-54 53 -55 140 l0 26 l747 0 l0 111 q-3 261 -155 412 q-152 151 -415 154 q-267 -3 -418 -160 q-152 -158 -155 -436 q2 -276 155 -429 q154 -153 431 -155 q232 2 378 105 q145 103 174 286 l-366 0 Z" /><glyph glyph-name="" unicode="è" d="M631 869 q77 -1 125 -46 q48 -46 54 -125 l-358 0 q7 76 56 123 q49 47 123 48 l0 0 ZM822 363 q-20 -51 -67 -80 q-48 -29 -113 -29 q-88 2 -141 55 q-54 53 -55 140 l0 26 l747 0 l0 111 q-3 261 -155 412 q-152 151 -415 154 q-267 -3 -418 -160 q-152 -158 -155 -436 q2 -276 155 -429 q154 -153 431 -155 q232 2 378 105 q145 103 174 286 l-366 0 ZM796 1275 l-232 321 l-347 0 l265 -321 l314 0 Z" /><glyph glyph-name="" unicode="&#x205;" d="M631 869 q77 -1 125 -46 q48 -46 54 -125 l-358 0 q7 76 56 123 q49 47 123 48 l0 0 ZM822 363 q-20 -51 -67 -80 q-48 -29 -113 -29 q-88 2 -141 55 q-54 53 -55 140 l0 26 l747 0 l0 111 q-3 261 -155 412 q-152 151 -415 154 q-267 -3 -418 -160 q-152 -158 -155 -436 q2 -276 155 -429 q154 -153 431 -155 q232 2 378 105 q145 103 174 286 l-366 0 ZM562 1276 l-182 320 l-309 0 l211 -320 l280 0 ZM987 1276 l-183 320 l-308 0 l211 -320 l280 0 Z" /><glyph glyph-name="" unicode="é" d="M631 869 q77 -1 125 -46 q48 -46 54 -125 l-358 0 q7 76 56 123 q49 47 123 48 l0 0 ZM822 363 q-20 -51 -67 -80 q-48 -29 -113 -29 q-88 2 -141 55 q-54 53 -55 140 l0 26 l747 0 l0 111 q-3 261 -155 412 q-152 151 -415 154 q-267 -3 -418 -160 q-152 -158 -155 -436 q2 -276 155 -429 q154 -153 431 -155 q232 2 378 105 q145 103 174 286 l-366 0 ZM771 1275 l265 321 l-347 0 l-232 -321 l314 0 Z" /><glyph glyph-name="" unicode="ê" d="M631 869 q77 -1 125 -46 q48 -46 54 -125 l-358 0 q7 76 56 123 q49 47 123 48 l0 0 ZM822 363 q-20 -51 -67 -80 q-48 -29 -113 -29 q-88 2 -141 55 q-54 53 -55 140 l0 26 l747 0 l0 111 q-3 261 -155 412 q-152 151 -415 154 q-267 -3 -418 -160 q-152 -158 -155 -436 q2 -276 155 -429 q154 -153 431 -155 q232 2 378 105 q145 103 174 286 l-366 0 ZM779 1592 l-314 0 l-255 -336 l284 0 l124 180 l8 0 l124 -180 l284 0 l-255 336 Z" /><glyph glyph-name="" unicode="&#x1ec3;" d="M631 869 q77 -1 125 -46 q48 -46 54 -125 l-358 0 q7 76 56 123 q49 47 123 48 l0 0 ZM822 363 q-20 -51 -67 -80 q-48 -29 -113 -29 q-88 2 -141 55 q-54 53 -55 140 l0 26 l747 0 l0 111 q-3 261 -155 412 q-152 151 -415 154 q-267 -3 -418 -160 q-152 -158 -155 -436 q2 -276 155 -429 q154 -153 431 -155 q232 2 378 105 q145 103 174 286 l-366 0 ZM770 1772 q17 7 40 10 q22 3 46 3 q48 0 75 -19 q27 -20 27 -55 q0 -31 -22 -60 q-23 -30 -67 -49 l106 -121 q98 40 146 105 q48 64 48 154 q-1 101 -72 158 q-71 57 -197 58 q-36 0 -70 -5 q-34 -6 -60 -15 l0 -164 ZM779 1592 l-314 0 l-255 -336 l284 0 l124 180 l8 0 l124 -180 l284 0 l-255 336 Z" /><glyph glyph-name="" unicode="&#x1ec1;" d="M631 869 q77 -1 125 -46 q48 -46 54 -125 l-358 0 q7 76 56 123 q49 47 123 48 l0 0 ZM822 363 q-20 -51 -67 -80 q-48 -29 -113 -29 q-88 2 -141 55 q-54 53 -55 140 l0 26 l747 0 l0 111 q-3 261 -155 412 q-152 151 -415 154 q-267 -3 -418 -160 q-152 -158 -155 -436 q2 -276 155 -429 q154 -153 431 -155 q232 2 378 105 q145 103 174 286 l-366 0 ZM779 1592 l-314 0 l-255 -336 l284 0 l124 180 l8 0 l124 -180 l284 0 l-255 336 ZM1120 1651 l-202 281 l-322 0 l238 -281 l286 0 Z" /><glyph glyph-name="" unicode="&#x1ec5;" d="M631 869 q77 -1 125 -46 q48 -46 54 -125 l-358 0 q7 76 56 123 q49 47 123 48 l0 0 ZM822 363 q-20 -51 -67 -80 q-48 -29 -113 -29 q-88 2 -141 55 q-54 53 -55 140 l0 26 l747 0 l0 111 q-3 261 -155 412 q-152 151 -415 154 q-267 -3 -418 -160 q-152 -158 -155 -436 q2 -276 155 -429 q154 -153 431 -155 q232 2 378 105 q145 103 174 286 l-366 0 ZM779 1572 l-314 0 l-255 -316 l284 0 l124 164 l8 0 l124 -164 l284 0 l-255 316 ZM765 1639 q104 1 176 79 q72 78 75 219 l-201 0 q-2 -47 -18 -76 q-17 -29 -51 -30 q-48 7 -105 60 q-56 52 -162 59 q-104 -1 -176 -76 q-72 -76 -75 -217 l201 0 q2 41 18 70 q17 30 51 31 q48 -7 105 -59 q56 -53 162 -60 l0 0 Z" /><glyph glyph-name="" unicode="&#x1ec7;" d="M631 869 q77 -1 125 -46 q48 -46 54 -125 l-358 0 q7 76 56 123 q49 47 123 48 l0 0 ZM822 363 q-20 -51 -67 -80 q-48 -29 -113 -29 q-88 2 -141 55 q-54 53 -55 140 l0 26 l747 0 l0 111 q-3 261 -155 412 q-152 151 -415 154 q-267 -3 -418 -160 q-152 -158 -155 -436 q2 -276 155 -429 q154 -153 431 -155 q232 2 378 105 q145 103 174 286 l-366 0 ZM779 1592 l-314 0 l-255 -336 l284 0 l124 180 l8 0 l124 -180 l284 0 l-255 336 ZM622 -524 q77 2 126 52 q49 50 51 125 q-2 75 -51 124 q-49 50 -126 52 q-77 -2 -126 -52 q-49 -49 -51 -124 q2 -75 51 -125 q49 -50 126 -52 l0 0 Z" /><glyph glyph-name="" unicode="&#x1ebf;" d="M631 869 q77 -1 125 -46 q48 -46 54 -125 l-358 0 q7 76 56 123 q49 47 123 48 l0 0 ZM822 363 q-20 -51 -67 -80 q-48 -29 -113 -29 q-88 2 -141 55 q-54 53 -55 140 l0 26 l747 0 l0 111 q-3 261 -155 412 q-152 151 -415 154 q-267 -3 -418 -160 q-152 -158 -155 -436 q2 -276 155 -429 q154 -153 431 -155 q232 2 378 105 q145 103 174 286 l-366 0 ZM779 1592 l-314 0 l-255 -336 l284 0 l124 180 l8 0 l124 -180 l284 0 l-255 336 ZM756 1651 l286 0 l238 281 l-322 0 l-202 -281 Z" /><glyph glyph-name="" unicode="ë" d="M631 869 q77 -1 125 -46 q48 -46 54 -125 l-358 0 q7 76 56 123 q49 47 123 48 l0 0 ZM822 363 q-20 -51 -67 -80 q-48 -29 -113 -29 q-88 2 -141 55 q-54 53 -55 140 l0 26 l747 0 l0 111 q-3 261 -155 412 q-152 151 -415 154 q-267 -3 -418 -160 q-152 -158 -155 -436 q2 -276 155 -429 q154 -153 431 -155 q232 2 378 105 q145 103 174 286 l-366 0 ZM400 1256 q70 2 114 44 q43 43 44 106 q-1 64 -44 106 q-44 42 -114 44 q-70 -2 -113 -44 q-44 -42 -45 -106 q1 -63 45 -106 q43 -42 113 -44 l0 0 ZM844 1256 q70 2 114 44 q43 43 44 106 q-1 64 -44 106 q-44 42 -114 44 q-70 -2 -113 -44 q-44 -42 -45 -106 q1 -63 45 -106 q43 -42 113 -44 l0 0 Z" /><glyph glyph-name="" unicode="&#x1eb9;" d="M631 869 q77 -1 125 -46 q48 -46 54 -125 l-358 0 q7 76 56 123 q49 47 123 48 l0 0 ZM822 363 q-20 -51 -67 -80 q-48 -29 -113 -29 q-88 2 -141 55 q-54 53 -55 140 l0 26 l747 0 l0 111 q-3 261 -155 412 q-152 151 -415 154 q-267 -3 -418 -160 q-152 -158 -155 -436 q2 -276 155 -429 q154 -153 431 -155 q232 2 378 105 q145 103 174 286 l-366 0 ZM622 -524 q77 2 126 52 q49 50 51 125 q-2 75 -51 124 q-49 50 -126 52 q-77 -2 -126 -52 q-49 -49 -51 -124 q2 -75 51 -125 q49 -50 126 -52 l0 0 Z" /><glyph glyph-name="" unicode="&#x207;" d="M631 869 q77 -1 125 -46 q48 -46 54 -125 l-358 0 q7 76 56 123 q49 47 123 48 l0 0 ZM822 363 q-20 -51 -67 -80 q-48 -29 -113 -29 q-88 2 -141 55 q-54 53 -55 140 l0 26 l747 0 l0 111 q-3 261 -155 412 q-152 151 -415 154 q-267 -3 -418 -160 q-152 -158 -155 -436 q2 -276 155 -429 q154 -153 431 -155 q232 2 378 105 q145 103 174 286 l-366 0 ZM227 1256 l236 0 q3 66 44 106 q40 41 115 42 q75 -1 116 -42 q40 -40 43 -106 l236 0 q-5 139 -105 235 q-100 95 -290 99 q-189 -4 -290 -99 q-100 -96 -105 -235 l0 0 Z" /><glyph glyph-name="" unicode="&#x1ebb;" d="M631 869 q77 -1 125 -46 q48 -46 54 -125 l-358 0 q7 76 56 123 q49 47 123 48 l0 0 ZM822 363 q-20 -51 -67 -80 q-48 -29 -113 -29 q-88 2 -141 55 q-54 53 -55 140 l0 26 l747 0 l0 111 q-3 261 -155 412 q-152 151 -415 154 q-267 -3 -418 -160 q-152 -158 -155 -436 q2 -276 155 -429 q154 -153 431 -155 q232 2 378 105 q145 103 174 286 l-366 0 ZM434 1538 q21 8 48 13 q27 5 54 5 q53 0 84 -23 q30 -22 31 -60 q1 -38 -22 -66 q-23 -28 -77 -56 l108 -125 q104 51 160 120 q55 69 56 148 q-1 110 -75 173 q-74 64 -202 65 q-40 0 -87 -9 q-48 -9 -78 -21 l0 -164 Z" /><glyph glyph-name="" unicode="&#x11b;" d="M631 869 q77 -1 125 -46 q48 -46 54 -125 l-358 0 q7 76 56 123 q49 47 123 48 l0 0 ZM822 363 q-20 -51 -67 -80 q-48 -29 -113 -29 q-88 2 -141 55 q-54 53 -55 140 l0 26 l747 0 l0 111 q-3 261 -155 412 q-152 151 -415 154 q-267 -3 -418 -160 q-152 -158 -155 -436 q2 -276 155 -429 q154 -153 431 -155 q232 2 378 105 q145 103 174 286 l-366 0 ZM779 1256 l255 336 l-284 0 l-124 -180 l-8 0 l-124 180 l-284 0 l255 -336 l314 0 Z" /><glyph glyph-name="" unicode="&#x113;" d="M631 869 q77 -1 125 -46 q48 -46 54 -125 l-358 0 q7 76 56 123 q49 47 123 48 l0 0 ZM822 363 q-20 -51 -67 -80 q-48 -29 -113 -29 q-88 2 -141 55 q-54 53 -55 140 l0 26 l747 0 l0 111 q-3 261 -155 412 q-152 151 -415 154 q-267 -3 -418 -160 q-152 -158 -155 -436 q2 -276 155 -429 q154 -153 431 -155 q232 2 378 105 q145 103 174 286 l-366 0 ZM974 1456 l-704 0 l0 -180 l704 0 l0 180 Z" /><glyph glyph-name="" unicode="&#x1e15;" d="M631 869 q77 -1 125 -46 q48 -46 54 -125 l-358 0 q7 76 56 123 q49 47 123 48 l0 0 ZM822 363 q-20 -51 -67 -80 q-48 -29 -113 -29 q-88 2 -141 55 q-54 53 -55 140 l0 26 l747 0 l0 111 q-3 261 -155 412 q-152 151 -415 154 q-267 -3 -418 -160 q-152 -158 -155 -436 q2 -276 155 -429 q154 -153 431 -155 q232 2 378 105 q145 103 174 286 l-366 0 ZM758 1645 l-172 287 l-322 0 l233 -287 l261 0 ZM974 1456 l-704 0 l0 -180 l704 0 l0 180 Z" /><glyph glyph-name="" unicode="&#x1e17;" d="M631 869 q77 -1 125 -46 q48 -46 54 -125 l-358 0 q7 76 56 123 q49 47 123 48 l0 0 ZM822 363 q-20 -51 -67 -80 q-48 -29 -113 -29 q-88 2 -141 55 q-54 53 -55 140 l0 26 l747 0 l0 111 q-3 261 -155 412 q-152 151 -415 154 q-267 -3 -418 -160 q-152 -158 -155 -436 q2 -276 155 -429 q154 -153 431 -155 q232 2 378 105 q145 103 174 286 l-366 0 ZM480 1651 l286 0 l238 281 l-322 0 l-202 -281 ZM974 1456 l-704 0 l0 -180 l704 0 l0 180 Z" /><glyph glyph-name="" unicode="&#x1ebd;" d="M631 869 q77 -1 125 -46 q48 -46 54 -125 l-358 0 q7 76 56 123 q49 47 123 48 l0 0 ZM822 363 q-20 -51 -67 -80 q-48 -29 -113 -29 q-88 2 -141 55 q-54 53 -55 140 l0 26 l747 0 l0 111 q-3 261 -155 412 q-152 151 -415 154 q-267 -3 -418 -160 q-152 -158 -155 -436 q2 -276 155 -429 q154 -153 431 -155 q232 2 378 105 q145 103 174 286 l-366 0 ZM775 1258 q104 1 176 79 q72 78 75 219 l-201 0 q-2 -47 -18 -76 q-17 -29 -51 -30 q-48 7 -105 60 q-57 52 -163 59 q-104 -1 -176 -76 q-72 -76 -75 -217 l201 0 q2 41 18 70 q17 30 51 31 q48 -7 105 -59 q57 -53 163 -60 l0 0 Z" /><glyph glyph-name="" unicode="&#x1e19;" d="M631 869 q77 -1 125 -46 q48 -46 54 -125 l-358 0 q7 76 56 123 q49 47 123 48 l0 0 ZM822 363 q-20 -51 -67 -80 q-48 -29 -113 -29 q-88 2 -141 55 q-54 53 -55 140 l0 26 l747 0 l0 111 q-3 261 -155 412 q-152 151 -415 154 q-267 -3 -418 -160 q-152 -158 -155 -436 q2 -276 155 -429 q154 -153 431 -155 q232 2 378 105 q145 103 174 286 l-366 0 ZM465 -154 l-255 -336 l276 0 l132 192 l8 0 l132 -192 l276 0 l-255 336 l-314 0 Z" /><glyph glyph-name="" unicode="&#x115;" d="M631 869 q77 -1 125 -46 q48 -46 54 -125 l-358 0 q7 76 56 123 q49 47 123 48 l0 0 ZM822 363 q-20 -51 -67 -80 q-48 -29 -113 -29 q-88 2 -141 55 q-54 53 -55 140 l0 26 l747 0 l0 111 q-3 261 -155 412 q-152 151 -415 154 q-267 -3 -418 -160 q-152 -158 -155 -436 q2 -276 155 -429 q154 -153 431 -155 q232 2 378 105 q145 103 174 286 l-366 0 ZM227 1590 q5 -139 105 -234 q101 -96 290 -100 q190 4 290 100 q100 95 105 234 l-236 0 q-3 -66 -43 -106 q-41 -41 -116 -42 q-75 1 -115 42 q-41 40 -44 106 l-236 0 Z" /><glyph glyph-name="" unicode="&#x1e1b;" d="M631 869 q77 -1 125 -46 q48 -46 54 -125 l-358 0 q7 76 56 123 q49 47 123 48 l0 0 ZM822 363 q-20 -51 -67 -80 q-48 -29 -113 -29 q-88 2 -141 55 q-54 53 -55 140 l0 26 l747 0 l0 111 q-3 261 -155 412 q-152 151 -415 154 q-267 -3 -418 -160 q-152 -158 -155 -436 q2 -276 155 -429 q154 -153 431 -155 q232 2 378 105 q145 103 174 286 l-366 0 ZM775 -456 q104 1 176 79 q72 78 75 219 l-201 0 q-2 -47 -18 -76 q-17 -29 -51 -30 q-48 7 -105 60 q-57 52 -163 59 q-104 -1 -176 -76 q-72 -76 -75 -217 l201 0 q2 41 18 70 q17 30 51 31 q48 -7 105 -59 q57 -53 163 -60 l0 0 Z" /><glyph glyph-name="" unicode="&#x117;" d="M631 869 q77 -1 125 -46 q48 -46 54 -125 l-358 0 q7 76 56 123 q49 47 123 48 l0 0 ZM822 363 q-20 -51 -67 -80 q-48 -29 -113 -29 q-88 2 -141 55 q-54 53 -55 140 l0 26 l747 0 l0 111 q-3 261 -155 412 q-152 151 -415 154 q-267 -3 -418 -160 q-152 -158 -155 -436 q2 -276 155 -429 q154 -153 431 -155 q232 2 378 105 q145 103 174 286 l-366 0 ZM620 1264 q77 2 126 51 q49 49 51 122 q-2 73 -51 122 q-49 49 -126 51 q-77 -2 -126 -51 q-49 -49 -51 -122 q2 -73 51 -122 q49 -49 126 -51 l0 0 Z" /><glyph glyph-name="" unicode="&#x229;" d="M452 698 q7 76 56 123 q49 47 123 48 q77 -1 125 -46 q48 -46 54 -125 l-358 0 ZM1193 475 l0 111 q-3 261 -155 412 q-152 151 -415 154 q-267 -3 -418 -160 q-152 -158 -155 -436 q2 -250 128 -400 q127 -149 359 -178 l-42 -76 l0 -127 l56 0 q55 0 78 -10 q23 -10 22 -36 q0 -19 -22 -28 q-23 -9 -72 -9 q-27 0 -54 3 q-26 3 -45 9 l0 -141 q20 -7 56 -11 q35 -4 77 -4 q131 0 197 49 q66 49 66 146 q-1 77 -45 122 q-44 45 -117 46 l34 66 q195 21 316 121 q121 101 146 265 l-366 0 q-20 -51 -67 -80 q-48 -29 -113 -29 q-88 2 -141 55 q-54 53 -55 140 l0 26 l747 0 Z" /><glyph glyph-name="" unicode="&#x1e1d;" d="M781 1590 q-3 -66 -43 -106 q-41 -41 -116 -42 q-75 1 -115 42 q-41 40 -44 106 l-236 0 q5 -139 105 -234 q101 -96 290 -100 q190 4 290 100 q100 95 105 234 l-236 0 ZM452 698 q7 76 56 123 q49 47 123 48 q77 -1 125 -46 q48 -46 54 -125 l-358 0 ZM1193 475 l0 111 q-3 261 -155 412 q-152 151 -415 154 q-267 -3 -418 -160 q-152 -158 -155 -436 q2 -250 128 -400 q127 -149 359 -178 l-42 -76 l0 -127 l56 0 q55 0 78 -10 q23 -10 22 -36 q0 -19 -22 -28 q-23 -9 -72 -9 q-27 0 -54 3 q-26 3 -45 9 l0 -141 q20 -7 56 -11 q35 -4 77 -4 q131 0 197 49 q66 49 66 146 q-1 77 -45 122 q-44 45 -117 46 l34 66 q195 21 316 121 q121 101 146 265 l-366 0 q-20 -51 -67 -80 q-48 -29 -113 -29 q-88 2 -141 55 q-54 53 -55 140 l0 26 l747 0 Z" /><glyph glyph-name="" unicode="&#x119;" d="M860 -494 q56 0 99 7 q44 6 73 19 l0 193 q-7 -4 -27 -6 q-20 -3 -45 -3 q-62 0 -93 26 q-31 26 -31 78 q0 58 53 130 q53 72 163 164 q55 46 91 112 q35 65 45 137 l-366 0 q-19 -51 -67 -80 q-47 -28 -113 -29 q-88 2 -141 55 q-54 53 -55 140 l0 26 l747 0 l0 111 q-3 261 -155 412 q-152 151 -415 154 q-267 -3 -418 -160 q-152 -158 -155 -436 q2 -276 155 -429 q154 -153 431 -155 q25 0 42 1 q17 1 27 2 l0 -8 q-71 -34 -111 -92 q-39 -58 -40 -129 q2 -108 85 -173 q83 -65 221 -67 l0 0 ZM631 869 q77 -1 125 -46 q48 -46 54 -125 l-358 0 q7 76 56 123 q49 47 123 48 l0 0 Z" /><glyph glyph-name="" unicode="f" d="M179 0 l410 0 l0 826 l190 0 l0 298 l-202 0 l0 61 q0 40 28 59 q29 19 92 19 q28 0 47 -2 q18 -2 33 -4 l0 261 q-36 5 -80 9 q-44 3 -93 3 q-230 2 -329 -71 q-98 -73 -96 -239 l0 -96 l-149 0 l0 -298 l149 0 l0 -826 Z" /><glyph glyph-name="" unicode="&#x1e1f;" d="M179 0 l410 0 l0 826 l190 0 l0 298 l-202 0 l0 61 q0 40 28 59 q29 19 92 19 q28 0 47 -2 q18 -2 33 -4 l0 261 q-36 5 -80 9 q-44 3 -93 3 q-230 2 -329 -71 q-98 -73 -96 -239 l0 -96 l-149 0 l0 -298 l149 0 l0 -826 ZM507 1617 q77 2 126 52 q49 50 51 125 q-2 75 -51 124 q-49 50 -126 52 q-77 -2 -126 -52 q-49 -49 -51 -124 q2 -75 51 -125 q49 -50 126 -52 l0 0 Z" /><glyph glyph-name="" unicode="g" d="M653 311 q-87 0 -135 64 q-47 64 -48 187 q1 123 49 191 q48 69 134 70 q87 -1 135 -70 q48 -69 49 -192 q-1 -123 -48 -186 q-48 -64 -136 -64 l0 0 ZM638 -424 q274 2 438 117 q165 114 169 317 l0 1114 l-410 0 l0 -202 l-8 0 q-34 96 -120 156 q-87 60 -211 62 q-212 -2 -328 -152 q-116 -150 -118 -423 q3 -265 121 -407 q119 -143 319 -144 q128 1 217 56 q90 54 120 144 l8 0 l0 -214 q0 -74 -47 -118 q-47 -44 -141 -45 q-72 1 -119 27 q-46 25 -57 68 l-394 0 q15 -159 160 -256 q146 -97 401 -100 l0 0 Z" /><glyph glyph-name="" unicode="&#x1f5;" d="M653 311 q-87 0 -135 64 q-47 64 -48 187 q1 123 49 191 q48 69 134 70 q87 -1 135 -70 q48 -69 49 -192 q-1 -123 -48 -186 q-48 -64 -136 -64 l0 0 ZM638 -424 q274 2 438 117 q165 114 169 317 l0 1114 l-410 0 l0 -202 l-8 0 q-34 96 -120 156 q-87 60 -211 62 q-212 -2 -328 -152 q-116 -150 -118 -423 q3 -265 121 -407 q119 -143 319 -144 q128 1 217 56 q90 54 120 144 l8 0 l0 -214 q0 -74 -47 -118 q-47 -44 -141 -45 q-72 1 -119 27 q-46 25 -57 68 l-394 0 q15 -159 160 -256 q146 -97 401 -100 l0 0 ZM812 1275 l265 321 l-347 0 l-232 -321 l314 0 Z" /><glyph glyph-name="" unicode="&#x1e7;" d="M653 311 q-87 0 -135 64 q-47 64 -48 187 q1 123 49 191 q48 69 134 70 q87 -1 135 -70 q48 -69 49 -192 q-1 -123 -48 -186 q-48 -64 -136 -64 l0 0 ZM638 -424 q274 2 438 117 q165 114 169 317 l0 1114 l-410 0 l0 -202 l-8 0 q-34 96 -120 156 q-87 60 -211 62 q-212 -2 -328 -152 q-116 -150 -118 -423 q3 -265 121 -407 q119 -143 319 -144 q128 1 217 56 q90 54 120 144 l8 0 l0 -214 q0 -74 -47 -118 q-47 -44 -141 -45 q-72 1 -119 27 q-46 25 -57 68 l-394 0 q15 -159 160 -256 q146 -97 401 -100 l0 0 ZM820 1256 l255 336 l-284 0 l-124 -180 l-8 0 l-124 180 l-284 0 l255 -336 l314 0 Z" /><glyph glyph-name="" unicode="&#x11d;" d="M653 311 q-87 0 -135 64 q-47 64 -48 187 q1 123 49 191 q48 69 134 70 q87 -1 135 -70 q48 -69 49 -192 q-1 -123 -48 -186 q-48 -64 -136 -64 l0 0 ZM638 -424 q274 2 438 117 q165 114 169 317 l0 1114 l-410 0 l0 -202 l-8 0 q-34 96 -120 156 q-87 60 -211 62 q-212 -2 -328 -152 q-116 -150 -118 -423 q3 -265 121 -407 q119 -143 319 -144 q128 1 217 56 q90 54 120 144 l8 0 l0 -214 q0 -74 -47 -118 q-47 -44 -141 -45 q-72 1 -119 27 q-46 25 -57 68 l-394 0 q15 -159 160 -256 q146 -97 401 -100 l0 0 ZM820 1592 l-314 0 l-255 -336 l284 0 l124 180 l8 0 l124 -180 l284 0 l-255 336 Z" /><glyph glyph-name="" unicode="&#x11f;" d="M653 311 q-87 0 -135 64 q-47 64 -48 187 q1 123 49 191 q48 69 134 70 q87 -1 135 -70 q48 -69 49 -192 q-1 -123 -48 -186 q-48 -64 -136 -64 l0 0 ZM638 -424 q274 2 438 117 q165 114 169 317 l0 1114 l-410 0 l0 -202 l-8 0 q-34 96 -120 156 q-87 60 -211 62 q-212 -2 -328 -152 q-116 -150 -118 -423 q3 -265 121 -407 q119 -143 319 -144 q128 1 217 56 q90 54 120 144 l8 0 l0 -214 q0 -74 -47 -118 q-47 -44 -141 -45 q-72 1 -119 27 q-46 25 -57 68 l-394 0 q15 -159 160 -256 q146 -97 401 -100 l0 0 ZM268 1590 q5 -139 105 -234 q101 -96 290 -100 q190 4 290 100 q100 95 105 234 l-236 0 q-3 -66 -43 -106 q-41 -41 -116 -42 q-75 1 -115 42 q-41 40 -44 106 l-236 0 Z" /><glyph glyph-name="" unicode="&#x1e21;" d="M653 311 q-87 0 -135 64 q-47 64 -48 187 q1 123 49 191 q48 69 134 70 q87 -1 135 -70 q48 -69 49 -192 q-1 -123 -48 -186 q-48 -64 -136 -64 l0 0 ZM638 -424 q274 2 438 117 q165 114 169 317 l0 1114 l-410 0 l0 -202 l-8 0 q-34 96 -120 156 q-87 60 -211 62 q-212 -2 -328 -152 q-116 -150 -118 -423 q3 -265 121 -407 q119 -143 319 -144 q128 1 217 56 q90 54 120 144 l8 0 l0 -214 q0 -74 -47 -118 q-47 -44 -141 -45 q-72 1 -119 27 q-46 25 -57 68 l-394 0 q15 -159 160 -256 q146 -97 401 -100 l0 0 ZM1015 1456 l-704 0 l0 -180 l704 0 l0 180 Z" /><glyph glyph-name="" unicode="&#x121;" d="M653 311 q-87 0 -135 64 q-47 64 -48 187 q1 123 49 191 q48 69 134 70 q87 -1 135 -70 q48 -69 49 -192 q-1 -123 -48 -186 q-48 -64 -136 -64 l0 0 ZM638 -424 q274 2 438 117 q165 114 169 317 l0 1114 l-410 0 l0 -202 l-8 0 q-34 96 -120 156 q-87 60 -211 62 q-212 -2 -328 -152 q-116 -150 -118 -423 q3 -265 121 -407 q119 -143 319 -144 q128 1 217 56 q90 54 120 144 l8 0 l0 -214 q0 -74 -47 -118 q-47 -44 -141 -45 q-72 1 -119 27 q-46 25 -57 68 l-394 0 q15 -159 160 -256 q146 -97 401 -100 l0 0 ZM661 1264 q77 2 126 51 q49 49 51 122 q-2 73 -51 122 q-49 49 -126 51 q-77 -2 -126 -51 q-49 -49 -51 -122 q2 -73 51 -122 q49 -49 126 -51 l0 0 Z" /><glyph glyph-name="" unicode="&#x123;" d="M653 311 q-87 0 -135 64 q-47 64 -48 187 q1 123 49 191 q48 69 134 70 q87 -1 135 -70 q48 -69 49 -192 q-1 -123 -48 -186 q-48 -64 -136 -64 l0 0 ZM638 -424 q274 2 438 117 q165 114 169 317 l0 1114 l-410 0 l0 -202 l-8 0 q-34 96 -120 156 q-87 60 -211 62 q-212 -2 -328 -152 q-116 -150 -118 -423 q3 -265 121 -407 q119 -143 319 -144 q128 1 217 56 q90 54 120 144 l8 0 l0 -214 q0 -74 -47 -118 q-47 -44 -141 -45 q-72 1 -119 27 q-46 25 -57 68 l-394 0 q15 -159 160 -256 q146 -97 401 -100 l0 0 ZM713 1596 l-203 -321 l359 0 l152 321 l-308 0 Z" /><glyph glyph-name="" unicode="h" d="M85 0 l410 0 l0 629 q0 83 42 134 q42 51 123 52 q80 -1 122 -50 q41 -49 41 -136 l0 -629 l410 0 l0 720 q-1 203 -100 314 q-99 111 -289 112 q-129 0 -218 -62 q-90 -62 -133 -180 l-8 0 l0 614 l-400 0 l0 -1518 Z" /><glyph glyph-name="" unicode="&#x1e27;" d="M85 0 l410 0 l0 629 q0 83 42 134 q42 51 123 52 q80 -1 122 -50 q41 -49 41 -136 l0 -629 l410 0 l0 720 q-1 203 -100 314 q-99 111 -289 112 q-129 0 -218 -62 q-90 -62 -133 -180 l-8 0 l0 614 l-400 0 l0 -1518 ZM66 1611 q70 2 114 44 q43 43 44 106 q-1 64 -44 106 q-44 42 -114 44 q-70 -2 -113 -44 q-44 -42 -45 -106 q1 -63 45 -106 q43 -42 113 -44 l0 0 ZM510 1611 q70 2 114 44 q43 43 44 106 q-1 64 -44 106 q-44 42 -114 44 q-70 -2 -113 -44 q-44 -42 -45 -106 q1 -63 45 -106 q43 -42 113 -44 l0 0 Z" /><glyph glyph-name="" unicode="&#x21f;" d="M85 0 l410 0 l0 629 q0 83 42 134 q42 51 123 52 q80 -1 122 -50 q41 -49 41 -136 l0 -629 l410 0 l0 720 q-1 203 -100 314 q-99 111 -289 112 q-129 0 -218 -62 q-90 -62 -133 -180 l-8 0 l0 614 l-400 0 l0 -1518 ZM131 1611 l314 0 l255 336 l-276 0 l-132 -192 l-8 0 l-132 192 l-276 0 l255 -336 Z" /><glyph glyph-name="" unicode="&#x125;" d="M85 0 l410 0 l0 629 q0 83 42 134 q42 51 123 52 q80 -1 122 -50 q41 -49 41 -136 l0 -629 l410 0 l0 720 q-1 203 -100 314 q-99 111 -289 112 q-129 0 -218 -62 q-90 -62 -133 -180 l-8 0 l0 614 l-400 0 l0 -1518 ZM131 1947 l-255 -336 l276 0 l132 192 l8 0 l132 -192 l276 0 l-255 336 l-314 0 Z" /><glyph glyph-name="" unicode="&#x1e25;" d="M85 0 l410 0 l0 629 q0 83 42 134 q42 51 123 52 q80 -1 122 -50 q41 -49 41 -136 l0 -629 l410 0 l0 720 q-1 203 -100 314 q-99 111 -289 112 q-129 0 -218 -62 q-90 -62 -133 -180 l-8 0 l0 614 l-400 0 l0 -1518 ZM654 -524 q77 2 126 52 q49 50 51 125 q-2 75 -51 124 q-49 50 -126 52 q-77 -2 -126 -52 q-49 -49 -51 -124 q2 -75 51 -125 q49 -50 126 -52 l0 0 Z" /><glyph glyph-name="" unicode="&#x1e23;" d="M85 0 l410 0 l0 629 q0 83 42 134 q42 51 123 52 q80 -1 122 -50 q41 -49 41 -136 l0 -629 l410 0 l0 720 q-1 203 -100 314 q-99 111 -289 112 q-129 0 -218 -62 q-90 -62 -133 -180 l-8 0 l0 614 l-400 0 l0 -1518 ZM288 1611 q77 2 126 52 q49 50 51 125 q-2 75 -51 124 q-49 50 -126 52 q-77 -2 -126 -52 q-49 -49 -51 -124 q2 -75 51 -125 q49 -50 126 -52 l0 0 Z" /><glyph glyph-name="" unicode="&#x1e2b;" d="M85 0 l410 0 l0 629 q0 83 42 134 q42 51 123 52 q80 -1 122 -50 q41 -49 41 -136 l0 -629 l410 0 l0 720 q-1 203 -100 314 q-99 111 -289 112 q-129 0 -218 -62 q-90 -62 -133 -180 l-8 0 l0 614 l-400 0 l0 -1518 ZM259 -156 q5 -139 105 -234 q101 -96 290 -100 q190 4 290 100 q100 95 105 234 l-236 0 q-3 -66 -43 -106 q-41 -41 -116 -42 q-75 1 -115 42 q-41 40 -44 106 l-236 0 Z" /><glyph glyph-name="" unicode="&#x1e29;" d="M485 904 l0 614 l-400 0 l0 -1518 l221 0 l-54 -98 l0 -127 l56 0 q55 0 78 -10 q23 -10 22 -36 q0 -19 -22 -28 q-23 -9 -72 -9 q-27 0 -54 3 q-26 3 -45 9 l0 -141 q20 -7 56 -11 q35 -4 77 -4 q131 0 197 49 q66 49 66 146 q-1 77 -45 122 q-44 45 -117 46 l46 89 l0 16 l0 613 q0 83 42 134 q42 51 123 52 q80 -1 122 -50 q41 -49 41 -136 l0 -629 l410 0 l0 720 q-1 203 -100 314 q-99 111 -289 112 q-129 0 -218 -62 q-90 -62 -133 -180 l-8 0 Z" /><glyph glyph-name="" unicode="&#x127;" d="M485 904 l0 333 l201 0 l0 176 l-201 0 l0 105 l-400 0 l0 -105 l-49 0 l0 -176 l49 0 l0 -1237 l410 0 l0 629 q0 83 42 134 q42 51 123 52 q80 -1 122 -50 q41 -49 41 -136 l0 -629 l410 0 l0 720 q-1 203 -100 314 q-99 111 -289 112 q-129 0 -218 -62 q-90 -62 -133 -180 l-8 0 Z" /><glyph glyph-name="" unicode="&#x1e96;" d="M85 0 l410 0 l0 629 q0 83 42 134 q42 51 123 52 q80 -1 122 -50 q41 -49 41 -136 l0 -629 l410 0 l0 720 q-1 203 -100 314 q-99 111 -289 112 q-129 0 -218 -62 q-90 -62 -133 -180 l-8 0 l0 614 l-400 0 l0 -1518 ZM1028 -240 l-748 0 l0 -180 l748 0 l0 180 Z" /><glyph glyph-name="" unicode="i" d="M80 0 l410 0 l0 1124 l-410 0 l0 -1124 ZM285 1190 q87 2 145 55 q58 54 60 140 q-2 86 -60 140 q-58 53 -145 55 q-87 -2 -145 -55 q-58 -54 -60 -140 q2 -86 60 -140 q58 -53 145 -55 l0 0 Z" /><glyph glyph-name="" unicode="ì" d="M80 0 l410 0 l0 1124 l-410 0 l0 -1124 ZM459 1275 l-232 321 l-347 0 l265 -321 l314 0 Z" /><glyph glyph-name="" unicode="&#x209;" d="M80 0 l410 0 l0 1124 l-410 0 l0 -1124 ZM225 1276 l-182 320 l-309 0 l211 -320 l280 0 ZM650 1276 l-183 320 l-308 0 l211 -320 l280 0 Z" /><glyph glyph-name="" unicode="í" d="M80 0 l410 0 l0 1124 l-410 0 l0 -1124 ZM434 1275 l265 321 l-347 0 l-232 -321 l314 0 Z" /><glyph glyph-name="" unicode="î" d="M80 0 l410 0 l0 1124 l-410 0 l0 -1124 ZM442 1592 l-314 0 l-255 -336 l284 0 l124 180 l8 0 l124 -180 l284 0 l-255 336 Z" /><glyph glyph-name="" unicode="&#x1d0;" d="M80 0 l410 0 l0 1124 l-410 0 l0 -1124 ZM442 1256 l255 336 l-284 0 l-124 -180 l-8 0 l-124 180 l-284 0 l255 -336 l314 0 Z" /><glyph glyph-name="" unicode="ï" d="M80 0 l410 0 l0 1124 l-410 0 l0 -1124 ZM63 1256 q70 2 114 44 q43 43 44 106 q-1 64 -44 106 q-44 42 -114 44 q-70 -2 -113 -44 q-44 -42 -45 -106 q1 -63 45 -106 q43 -42 113 -44 l0 0 ZM507 1256 q70 2 114 44 q43 43 44 106 q-1 64 -44 106 q-44 42 -114 44 q-70 -2 -113 -44 q-44 -42 -45 -106 q1 -63 45 -106 q43 -42 113 -44 l0 0 Z" /><glyph glyph-name="" unicode="&#x1e2f;" d="M80 0 l410 0 l0 1124 l-410 0 l0 -1124 ZM143 1651 l286 0 l238 281 l-322 0 l-202 -281 ZM63 1256 q70 2 114 44 q43 43 44 106 q-1 64 -44 106 q-44 42 -114 44 q-70 -2 -113 -44 q-44 -42 -45 -106 q1 -63 45 -106 q43 -42 113 -44 l0 0 ZM507 1256 q70 2 114 44 q43 43 44 106 q-1 64 -44 106 q-44 42 -114 44 q-70 -2 -113 -44 q-44 -42 -45 -106 q1 -63 45 -106 q43 -42 113 -44 l0 0 Z" /><glyph glyph-name="" unicode="&#x12d;" d="M80 0 l410 0 l0 1124 l-410 0 l0 -1124 ZM-110 1590 q5 -139 105 -234 q101 -96 290 -100 q190 4 290 100 q100 95 105 234 l-236 0 q-3 -66 -43 -106 q-41 -41 -116 -42 q-75 1 -115 42 q-41 40 -44 106 l-236 0 Z" /><glyph glyph-name="" unicode="&#x1ecb;" d="M80 0 l410 0 l0 1124 l-410 0 l0 -1124 ZM285 1190 q87 2 145 55 q58 54 60 140 q-2 86 -60 140 q-58 53 -145 55 q-87 -2 -145 -55 q-58 -54 -60 -140 q2 -86 60 -140 q58 -53 145 -55 l0 0 ZM285 -524 q77 2 126 52 q49 50 51 125 q-2 75 -51 124 q-49 50 -126 52 q-77 -2 -126 -52 q-49 -49 -51 -124 q2 -75 51 -125 q49 -50 126 -52 l0 0 Z" /><glyph glyph-name="" unicode="&#x20b;" d="M80 0 l410 0 l0 1124 l-410 0 l0 -1124 ZM-110 1256 l236 0 q3 66 44 106 q40 41 115 42 q75 -1 116 -42 q40 -40 43 -106 l236 0 q-5 139 -105 235 q-100 95 -290 99 q-189 -4 -290 -99 q-100 -96 -105 -235 l0 0 Z" /><glyph glyph-name="" unicode="&#x12b;" d="M80 0 l410 0 l0 1124 l-410 0 l0 -1124 ZM637 1456 l-704 0 l0 -180 l704 0 l0 180 Z" /><glyph glyph-name="" unicode="&#x1e2d;" d="M80 0 l410 0 l0 1124 l-410 0 l0 -1124 ZM285 1190 q87 2 145 55 q58 54 60 140 q-2 86 -60 140 q-58 53 -145 55 q-87 -2 -145 -55 q-58 -54 -60 -140 q2 -86 60 -140 q58 -53 145 -55 l0 0 ZM438 -456 q104 1 176 79 q72 78 75 219 l-201 0 q-2 -47 -18 -76 q-17 -29 -51 -30 q-48 7 -105 60 q-57 52 -163 59 q-104 -1 -176 -76 q-72 -76 -75 -217 l201 0 q2 41 18 70 q17 30 51 31 q48 -7 105 -59 q57 -53 163 -60 l0 0 Z" /><glyph glyph-name="" unicode="&#x1ec9;" d="M80 0 l410 0 l0 1124 l-410 0 l0 -1124 ZM97 1538 q21 8 48 13 q27 5 54 5 q53 0 84 -23 q30 -22 31 -60 q1 -38 -22 -66 q-23 -28 -77 -56 l108 -125 q104 51 160 120 q55 69 56 148 q-1 110 -75 173 q-74 64 -202 65 q-40 0 -87 -9 q-48 -9 -78 -21 l0 -164 Z" /><glyph glyph-name="" unicode="&#x129;" d="M80 0 l410 0 l0 1124 l-410 0 l0 -1124 ZM438 1258 q104 1 176 79 q72 78 75 219 l-201 0 q-2 -47 -18 -76 q-17 -29 -51 -30 q-48 7 -105 60 q-57 52 -163 59 q-104 -1 -176 -76 q-72 -76 -75 -217 l201 0 q2 41 18 70 q17 30 51 31 q48 -7 105 -59 q57 -53 163 -60 l0 0 Z" /></font>
</defs>
</svg>
