<?xml version="1.0" standalone="no"?><!DOCTYPE svg PUBLIC "-//W3C//DTD SVG 1.1//EN" "http://www.w3.org/Graphics/SVG/1.1/DTD/svg11.dtd" ><svg xmlns="http://www.w3.org/2000/svg"><metadata></metadata><defs><font id="SF UI Display Heavy; 12.0d0e2; 2016-05-11" horiz-adv-x="2766"><font-face font-family="SF UI Display" font-weight="800" font-stretch="normal" units-per-em="2048" panose-1="0 0 9 0 0 0 0 0 0 0" ascent="1950" descent="-494" x-height="0" bbox="-623 -592 2682 2230" underline-thickness="227" underline-position="-264" unicode-range="U+0020-f189" /><missing-glyph horiz-adv-x="2048" d="M100 -494 l1848 0 l0 165 l-1848 0 l0 -165 ZM100 -38 l1848 0 l0 165 l-1848 0 l0 -165 ZM100 418 l1848 0 l0 165 l-1848 0 l0 -165 ZM100 873 l1848 0 l0 165 l-1848 0 l0 -165 ZM100 1329 l1848 0 l0 165 l-1848 0 l0 -165 ZM100 1785 l1848 0 l0 165 l-1848 0 l0 -165 Z" /><glyph glyph-name="" unicode=" " d="" /><glyph glyph-name="" unicode="a" d="M1058 0 l390 0 l-485 1443 l-449 0 l-485 -1443 l374 0 l92 317 l472 0 l91 -317 ZM727 1137 l8 0 l160 -556 l-329 0 l161 556 Z" /><glyph glyph-name="" unicode="à" d="M1058 0 l390 0 l-485 1443 l-449 0 l-485 -1443 l374 0 l92 317 l472 0 l91 -317 ZM727 1137 l8 0 l160 -556 l-329 0 l161 556 ZM609 1561 l269 0 l-232 316 l-313 0 l276 -316 Z" /><glyph glyph-name="" unicode="á" d="M1058 0 l390 0 l-485 1443 l-449 0 l-485 -1443 l374 0 l92 317 l472 0 l91 -317 ZM727 1137 l8 0 l160 -556 l-329 0 l161 556 ZM863 1554 l276 316 l-313 0 l-232 -316 l269 0 Z" /><glyph glyph-name="" unicode="ä" d="M1058 0 l390 0 l-485 1443 l-449 0 l-485 -1443 l374 0 l92 317 l472 0 l91 -317 ZM727 1137 l8 0 l160 -556 l-329 0 l161 556 ZM521 1547 q65 2 106 42 q41 40 42 99 q-1 60 -42 100 q-41 40 -106 41 q-64 -1 -105 -41 q-41 -40 -42 -100 q1 -59 42 -99 q41 -40 105 -42 l0 0 ZM954 1547 q65 2 105 42 q41 40 42 99 q-1 60 -42 100 q-40 40 -105 41 q-65 -1 -105 -41 q-41 -40 -42 -100 q1 -59 42 -99 q40 -40 105 -42 l0 0 Z" /><glyph glyph-name="" unicode="&#x1de;" d="M1058 0 l390 0 l-485 1443 l-449 0 l-485 -1443 l374 0 l92 317 l472 0 l91 -317 ZM727 1137 l8 0 l160 -556 l-329 0 l161 556 ZM524 1825 q-63 -1 -103 -40 q-40 -39 -41 -98 q1 -58 41 -97 q40 -39 103 -41 q63 2 103 41 q40 39 41 97 q-1 59 -41 98 q-40 39 -103 40 l0 0 ZM377 2098 l0 -163 l722 0 l0 163 l-722 0 ZM952 1825 q-63 -1 -103 -40 q-40 -39 -41 -98 q1 -58 41 -97 q40 -39 103 -41 q63 2 103 41 q40 39 41 97 q-1 59 -41 98 q-40 39 -103 40 l0 0 Z" /><glyph glyph-name="" unicode="å" d="M1058 0 l390 0 l-485 1443 l-449 0 l-485 -1443 l374 0 l92 317 l472 0 l91 -317 ZM727 1137 l8 0 l160 -556 l-329 0 l161 556 ZM738 1517 q90 2 151 62 q61 59 63 147 q-2 89 -63 149 q-61 59 -151 61 q-90 -2 -151 -61 q-62 -60 -64 -149 q2 -88 64 -147 q61 -60 151 -62 l0 0 ZM738 1640 q-37 1 -62 25 q-25 25 -26 61 q1 37 26 62 q25 24 62 25 q37 -1 62 -25 q25 -25 26 -62 q-1 -36 -26 -61 q-25 -24 -62 -25 l0 0 Z" /><glyph glyph-name="" unicode="&#x1fa;" d="M1058 0 l390 0 l-485 1443 l-449 0 l-485 -1443 l374 0 l92 317 l472 0 l91 -317 ZM727 1137 l8 0 l160 -556 l-329 0 l161 556 ZM738 1508 q92 2 150 58 q58 56 60 146 q-2 89 -60 145 q-58 56 -150 58 q-93 -2 -150 -58 q-58 -56 -60 -145 q2 -90 60 -146 q57 -56 150 -58 l0 0 ZM738 1631 q-36 1 -59 23 q-22 23 -23 58 q1 35 23 57 q23 22 59 23 q35 -1 58 -23 q22 -22 23 -57 q-1 -35 -23 -58 q-23 -22 -58 -23 l0 0 ZM737 2176 l-116 -198 l238 0 l166 198 l-288 0 Z" /><glyph glyph-name="" unicode="ã" d="M1058 0 l390 0 l-485 1443 l-449 0 l-485 -1443 l374 0 l92 317 l472 0 l91 -317 ZM727 1137 l8 0 l160 -556 l-329 0 l161 556 ZM885 1543 q99 1 165 76 q66 76 69 211 l-181 0 q-1 -52 -17 -83 q-16 -30 -50 -31 q-49 8 -105 64 q-55 55 -160 63 q-99 -1 -165 -74 q-66 -73 -69 -209 l181 0 q1 48 18 78 q17 31 51 32 q50 -8 105 -63 q55 -56 158 -64 l0 0 Z" /><glyph glyph-name="" unicode="&#x1eb0;" d="M1058 0 l390 0 l-485 1443 l-449 0 l-485 -1443 l374 0 l92 317 l472 0 l91 -317 ZM727 1137 l8 0 l160 -556 l-329 0 l161 556 ZM1114 1850 l-210 0 q-3 -56 -47 -96 q-43 -39 -119 -41 q-76 2 -119 41 q-44 40 -47 96 l-210 0 q2 -125 100 -213 q97 -88 276 -92 q179 4 277 92 q97 88 99 213 l0 0 ZM885 1907 l-198 263 l-290 0 l237 -263 l251 0 Z" /><glyph glyph-name="" unicode="&#x1e0;" d="M1058 0 l390 0 l-485 1443 l-449 0 l-485 -1443 l374 0 l92 317 l472 0 l91 -317 ZM727 1137 l8 0 l160 -556 l-329 0 l161 556 ZM738 1545 q66 2 106 42 q41 40 42 100 q-1 60 -42 100 q-40 40 -106 42 q-66 -2 -106 -42 q-41 -40 -42 -100 q1 -60 42 -100 q40 -40 106 -42 l0 0 ZM1099 2098 l-722 0 l0 -163 l722 0 l0 163 Z" /><glyph glyph-name="" unicode="&#x1e00;" d="M1058 0 l390 0 l-485 1443 l-449 0 l-485 -1443 l374 0 l92 317 l472 0 l91 -317 ZM727 1137 l8 0 l160 -556 l-329 0 l161 556 ZM738 -592 q97 3 163 67 q66 64 69 160 q-3 96 -69 160 q-66 65 -163 67 q-98 -2 -165 -67 q-66 -64 -69 -160 q3 -96 69 -160 q67 -64 165 -67 l0 0 ZM738 -457 q-39 1 -67 27 q-27 26 -28 65 q1 39 28 66 q28 26 67 27 q39 -1 66 -27 q27 -27 28 -66 q-1 -39 -28 -65 q-27 -26 -66 -27 l0 0 Z" /><glyph glyph-name="" unicode="â" d="M1058 0 l390 0 l-485 1443 l-449 0 l-485 -1443 l374 0 l92 317 l472 0 l91 -317 ZM727 1137 l8 0 l160 -556 l-329 0 l161 556 ZM601 1867 l-263 -328 l250 0 l147 194 l6 0 l147 -194 l250 0 l-263 328 l-274 0 Z" /><glyph glyph-name="" unicode="&#x1eac;" d="M1058 0 l390 0 l-485 1443 l-449 0 l-485 -1443 l374 0 l92 317 l472 0 l91 -317 ZM727 1137 l8 0 l160 -556 l-329 0 l161 556 ZM738 -492 q71 2 117 48 q45 46 47 115 q-2 69 -47 115 q-46 46 -117 48 q-71 -2 -116 -48 q-46 -46 -48 -115 q2 -69 48 -115 q45 -46 116 -48 l0 0 ZM601 1867 l-263 -328 l250 0 l147 194 l6 0 l147 -194 l250 0 l-263 328 l-274 0 Z" /><glyph glyph-name="" unicode="&#x1ea4;" d="M1058 0 l390 0 l-485 1443 l-449 0 l-485 -1443 l374 0 l92 317 l472 0 l91 -317 ZM727 1137 l8 0 l160 -556 l-329 0 l161 556 ZM602 1832 l-258 -287 l257 0 l133 158 l10 0 l132 -158 l257 0 l-257 287 l-274 0 ZM802 1907 l251 0 l237 263 l-290 0 l-198 -263 Z" /><glyph glyph-name="" unicode="&#x1eaa;" d="M1058 0 l390 0 l-485 1443 l-449 0 l-485 -1443 l374 0 l92 317 l472 0 l91 -317 ZM727 1137 l8 0 l160 -556 l-329 0 l161 556 ZM878 1894 q99 1 165 74 q66 74 68 206 l-179 0 q-2 -51 -19 -80 q-17 -28 -51 -29 q-49 8 -102 62 q-54 54 -160 62 q-100 -1 -165 -72 q-66 -71 -68 -204 l179 0 q3 47 19 75 q17 29 52 30 q51 -8 104 -62 q53 -54 157 -62 l0 0 ZM601 1827 l-257 -282 l257 0 l132 154 l10 0 l132 -154 l257 0 l-257 282 l-274 0 Z" /><glyph glyph-name="" unicode="&#x1ea6;" d="M1058 0 l390 0 l-485 1443 l-449 0 l-485 -1443 l374 0 l92 317 l472 0 l91 -317 ZM727 1137 l8 0 l160 -556 l-329 0 l161 556 ZM601 1832 l-257 -287 l257 0 l132 158 l10 0 l132 -158 l257 0 l-257 287 l-274 0 ZM1099 1907 l-198 263 l-290 0 l237 -263 l251 0 Z" /><glyph glyph-name="" unicode="&#x1ea8;" d="M1058 0 l390 0 l-485 1443 l-449 0 l-485 -1443 l374 0 l92 317 l472 0 l91 -317 ZM727 1137 l8 0 l160 -556 l-329 0 l161 556 ZM602 1832 l-258 -287 l257 0 l133 158 l9 0 l133 -158 l257 0 l-258 287 l-273 0 ZM852 1999 q21 8 51 13 q29 5 54 5 q47 0 73 -20 q26 -20 26 -54 q1 -28 -16 -54 q-16 -26 -56 -42 l100 -118 q82 35 126 98 q44 64 44 137 q-1 98 -67 154 q-67 55 -184 56 q-44 0 -84 -7 q-41 -7 -67 -20 l0 -148 Z" /><glyph glyph-name="" unicode="&#x102;" d="M1058 0 l390 0 l-485 1443 l-449 0 l-485 -1443 l374 0 l92 317 l472 0 l91 -317 ZM727 1137 l8 0 l160 -556 l-329 0 l161 556 ZM363 1865 q5 -138 101 -230 q96 -92 274 -96 q178 4 274 96 q96 92 101 230 l-208 0 q-3 -70 -47 -114 q-43 -44 -120 -45 q-77 1 -120 45 q-43 44 -47 114 l-208 0 Z" /><glyph glyph-name="" unicode="&#x1eae;" d="M1058 0 l390 0 l-485 1443 l-449 0 l-485 -1443 l374 0 l92 317 l472 0 l91 -317 ZM727 1137 l8 0 l160 -556 l-329 0 l161 556 ZM362 1850 q2 -125 100 -213 q97 -88 276 -92 q179 4 277 92 q97 88 99 213 l-210 0 q-3 -56 -47 -96 q-43 -39 -119 -41 q-76 2 -119 41 q-44 40 -47 96 l-210 0 ZM591 1907 l251 0 l237 263 l-290 0 l-198 -263 Z" /><glyph glyph-name="" unicode="&#x1eb4;" d="M1058 0 l390 0 l-485 1443 l-449 0 l-485 -1443 l374 0 l92 317 l472 0 l91 -317 ZM727 1137 l8 0 l160 -556 l-329 0 l161 556 ZM363 1838 q3 -120 101 -205 q97 -84 274 -88 q177 4 275 88 q97 85 100 205 l-210 0 q-5 -52 -48 -88 q-42 -35 -117 -37 q-75 2 -117 37 q-43 36 -48 88 l-210 0 ZM878 1895 q100 1 166 75 q67 73 69 204 l-183 0 q-3 -50 -19 -79 q-17 -28 -50 -29 q-47 8 -101 61 q-55 53 -160 61 q-101 -1 -168 -71 q-67 -70 -69 -196 l183 0 q3 40 20 68 q17 28 51 29 q49 -8 103 -61 q54 -54 158 -62 l0 0 Z" /><glyph glyph-name="" unicode="&#x1eb2;" d="M1058 0 l390 0 l-485 1443 l-449 0 l-485 -1443 l374 0 l92 317 l472 0 l91 -317 ZM727 1137 l8 0 l160 -556 l-329 0 l161 556 ZM534 2037 q21 10 47 15 q26 6 53 6 q44 0 71 -18 q26 -19 27 -49 q0 -29 -25 -55 q-24 -26 -67 -42 l85 -101 q82 30 137 95 q54 64 56 134 q-1 86 -64 134 q-62 49 -172 50 q-40 0 -82 -8 q-42 -8 -66 -19 l0 -142 ZM363 1838 q6 -131 108 -211 q103 -80 267 -82 q165 2 268 82 q102 80 108 211 l-211 0 q-6 -56 -51 -90 q-45 -34 -114 -35 q-69 1 -114 35 q-44 34 -50 90 l-211 0 Z" /><glyph glyph-name="" unicode="&#x1eb6;" d="M1058 0 l390 0 l-485 1443 l-449 0 l-485 -1443 l374 0 l92 317 l472 0 l91 -317 ZM727 1137 l8 0 l160 -556 l-329 0 l161 556 ZM738 -492 q71 2 117 48 q45 46 47 115 q-2 69 -47 115 q-46 46 -117 48 q-71 -2 -116 -48 q-46 -46 -48 -115 q2 -69 48 -115 q45 -46 116 -48 l0 0 ZM363 1865 q5 -138 101 -230 q96 -92 274 -96 q178 4 274 96 q96 92 101 230 l-208 0 q-3 -70 -47 -114 q-43 -44 -120 -45 q-77 1 -120 45 q-43 44 -47 114 l-208 0 Z" /><glyph glyph-name="" unicode="&#x202;" d="M1058 0 l390 0 l-485 1443 l-449 0 l-485 -1443 l374 0 l92 317 l472 0 l91 -317 ZM727 1137 l8 0 l160 -556 l-329 0 l161 556 ZM363 1539 l208 0 q4 70 47 115 q43 44 120 45 q77 -1 120 -45 q44 -45 47 -115 l208 0 q-5 138 -101 230 q-96 92 -274 96 q-178 -4 -274 -96 q-96 -92 -101 -230 l0 0 Z" /><glyph glyph-name="" unicode="&#x1cd;" d="M1058 0 l390 0 l-485 1443 l-449 0 l-485 -1443 l374 0 l92 317 l472 0 l91 -317 ZM727 1137 l8 0 l160 -556 l-329 0 l161 556 ZM601 1539 l274 0 l263 328 l-250 0 l-147 -195 l-6 0 l-147 195 l-250 0 l263 -328 Z" /><glyph glyph-name="" unicode="&#x226;" d="M1058 0 l390 0 l-485 1443 l-449 0 l-485 -1443 l374 0 l92 317 l472 0 l91 -317 ZM727 1137 l8 0 l160 -556 l-329 0 l161 556 ZM738 1548 q71 2 117 48 q45 46 47 115 q-2 69 -47 115 q-46 46 -117 48 q-71 -2 -116 -48 q-46 -46 -48 -115 q2 -69 48 -115 q45 -46 116 -48 l0 0 Z" /><glyph glyph-name="" unicode="&#x1ea0;" d="M1058 0 l390 0 l-485 1443 l-449 0 l-485 -1443 l374 0 l92 317 l472 0 l91 -317 ZM727 1137 l8 0 l160 -556 l-329 0 l161 556 ZM738 -492 q71 2 117 48 q45 46 47 115 q-2 69 -47 115 q-46 46 -117 48 q-71 -2 -116 -48 q-46 -46 -48 -115 q2 -69 48 -115 q45 -46 116 -48 l0 0 Z" /><glyph glyph-name="" unicode="&#x1ea2;" d="M1058 0 l390 0 l-485 1443 l-449 0 l-485 -1443 l374 0 l92 317 l472 0 l91 -317 ZM727 1137 l8 0 l160 -556 l-329 0 l161 556 ZM541 1799 q22 8 53 13 q30 5 55 5 q48 0 74 -20 q27 -20 27 -55 q-1 -34 -27 -64 q-27 -30 -72 -47 l99 -120 q90 39 146 105 q55 67 57 146 q-1 101 -70 157 q-68 57 -188 58 q-45 0 -86 -7 q-41 -7 -68 -21 l0 -150 Z" /><glyph glyph-name="" unicode="&#x200;" d="M1058 0 l390 0 l-485 1443 l-449 0 l-485 -1443 l374 0 l92 317 l472 0 l91 -317 ZM727 1137 l8 0 l160 -556 l-329 0 l161 556 ZM830 1554 l266 0 l-231 316 l-311 0 l276 -316 ZM390 1554 l267 0 l-232 316 l-310 0 l275 -316 Z" /><glyph glyph-name="" unicode="&#x100;" d="M1058 0 l390 0 l-485 1443 l-449 0 l-485 -1443 l374 0 l92 317 l472 0 l91 -317 ZM727 1137 l8 0 l160 -556 l-329 0 l161 556 ZM1099 1777 l-722 0 l0 -163 l722 0 l0 163 Z" /><glyph glyph-name="" unicode="&#x104;" d="M727 1137 l8 0 l160 -556 l-329 0 l161 556 ZM1351 -456 l0 179 q-8 -3 -27 -5 q-19 -3 -44 -3 q-57 0 -89 25 q-32 25 -32 70 q3 65 67 118 q63 53 153 67 l69 5 l-485 1443 l-449 0 l-485 -1443 l374 0 l92 317 l472 0 l92 -323 q-76 -48 -115 -110 q-40 -61 -40 -131 q2 -104 81 -167 q80 -63 210 -65 q50 0 89 6 q39 6 67 17 l0 0 Z" /><glyph glyph-name="" unicode="b" d="M802 0 q234 2 368 113 q134 111 137 303 q-4 147 -102 242 q-98 94 -248 104 l0 8 q123 19 202 104 q78 85 81 209 q-2 169 -121 264 q-120 94 -335 96 l-675 0 l0 -1443 l693 0 ZM476 1183 l211 0 q93 -1 144 -43 q50 -42 51 -118 q-1 -79 -56 -122 q-56 -44 -157 -45 l-193 0 l0 328 ZM476 260 l0 372 l220 0 q115 0 176 -48 q61 -47 62 -136 q-1 -92 -61 -140 q-61 -48 -175 -48 l-222 0 Z" /><glyph glyph-name="" unicode="&#x1e06;" d="M802 0 q234 2 368 113 q134 111 137 303 q-4 147 -102 242 q-98 94 -248 104 l0 8 q123 19 202 104 q78 85 81 209 q-2 169 -121 264 q-120 94 -335 96 l-675 0 l0 -1443 l693 0 ZM476 1183 l211 0 q93 -1 144 -43 q50 -42 51 -118 q-1 -79 -56 -122 q-56 -44 -157 -45 l-193 0 l0 328 ZM476 260 l0 372 l220 0 q115 0 176 -48 q61 -47 62 -136 q-1 -92 -61 -140 q-61 -48 -175 -48 l-222 0 ZM1021 -235 l-722 0 l0 -163 l722 0 l0 163 Z" /><glyph glyph-name="" unicode="&#x1e04;" d="M660 -492 q71 2 117 48 q45 46 47 115 q-2 69 -47 115 q-46 46 -117 48 q-71 -2 -116 -48 q-46 -46 -48 -115 q2 -69 48 -115 q45 -46 116 -48 l0 0 ZM802 0 q234 2 368 113 q134 111 137 303 q-4 147 -102 242 q-98 94 -248 104 l0 8 q123 19 202 104 q78 85 81 209 q-2 169 -121 264 q-120 94 -335 96 l-675 0 l0 -1443 l693 0 ZM476 1183 l211 0 q93 -1 144 -43 q50 -42 51 -118 q-1 -79 -56 -122 q-56 -44 -157 -45 l-193 0 l0 328 ZM476 260 l0 372 l220 0 q115 0 176 -48 q61 -47 62 -136 q-1 -92 -61 -140 q-61 -48 -175 -48 l-222 0 Z" /><glyph glyph-name="" unicode="&#x1e02;" d="M660 1548 q71 2 117 48 q45 46 47 115 q-2 69 -47 115 q-46 46 -117 48 q-71 -2 -116 -48 q-46 -46 -48 -115 q2 -69 48 -115 q45 -46 116 -48 l0 0 ZM802 0 q234 2 368 113 q134 111 137 303 q-4 147 -102 242 q-98 94 -248 104 l0 8 q123 19 202 104 q78 85 81 209 q-2 169 -121 264 q-120 94 -335 96 l-675 0 l0 -1443 l693 0 ZM476 1183 l211 0 q93 -1 144 -43 q50 -42 51 -118 q-1 -79 -56 -122 q-56 -44 -157 -45 l-193 0 l0 328 ZM476 260 l0 372 l220 0 q115 0 176 -48 q61 -47 62 -136 q-1 -92 -61 -140 q-61 -48 -175 -48 l-222 0 Z" /><glyph glyph-name="" unicode="c" d="M770 -25 q283 3 461 156 q177 152 194 413 l-353 0 q-19 -128 -99 -201 q-80 -73 -202 -74 q-153 2 -240 121 q-86 119 -88 333 q2 212 89 331 q86 118 238 120 q123 -2 204 -77 q81 -76 96 -205 l353 0 q-14 260 -194 416 q-180 156 -459 160 q-326 -2 -512 -196 q-185 -194 -189 -550 q3 -356 189 -550 q185 -195 512 -197 l0 0 Z" /><glyph glyph-name="" unicode="&#x106;" d="M876 1554 l276 316 l-313 0 l-232 -316 l269 0 ZM770 -25 q283 3 461 156 q177 152 194 413 l-353 0 q-19 -128 -99 -201 q-80 -73 -202 -74 q-153 2 -240 121 q-86 119 -88 333 q2 212 89 331 q86 118 238 120 q123 -2 204 -77 q81 -76 96 -205 l353 0 q-14 260 -194 416 q-180 156 -459 160 q-326 -2 -512 -196 q-185 -194 -189 -550 q3 -356 189 -550 q185 -195 512 -197 l0 0 Z" /><glyph glyph-name="" unicode="&#x10c;" d="M770 -25 q283 3 461 156 q177 152 194 413 l-353 0 q-19 -128 -99 -201 q-80 -73 -202 -74 q-153 2 -240 121 q-86 119 -88 333 q2 212 89 331 q86 118 238 120 q123 -2 204 -77 q81 -76 96 -205 l353 0 q-14 260 -194 416 q-180 156 -459 160 q-326 -2 -512 -196 q-185 -194 -189 -550 q3 -356 189 -550 q185 -195 512 -197 l0 0 ZM614 1539 l274 0 l263 328 l-250 0 l-147 -195 l-6 0 l-147 195 l-250 0 l263 -328 Z" /><glyph glyph-name="" unicode="&#x108;" d="M770 -25 q283 3 461 156 q177 152 194 413 l-353 0 q-19 -128 -99 -201 q-80 -73 -202 -74 q-153 2 -240 121 q-86 119 -88 333 q2 212 89 331 q86 118 238 120 q123 -2 204 -77 q81 -76 96 -205 l353 0 q-14 260 -194 416 q-180 156 -459 160 q-326 -2 -512 -196 q-185 -194 -189 -550 q3 -356 189 -550 q185 -195 512 -197 l0 0 ZM614 1867 l-263 -328 l250 0 l147 194 l6 0 l147 -194 l250 0 l-263 328 l-274 0 Z" /><glyph glyph-name="" unicode="&#x10a;" d="M751 1548 q71 2 117 48 q45 46 47 115 q-2 69 -47 115 q-46 46 -117 48 q-71 -2 -116 -48 q-46 -46 -48 -115 q2 -69 48 -115 q45 -46 116 -48 l0 0 ZM770 -25 q283 3 461 156 q177 152 194 413 l-353 0 q-19 -128 -99 -201 q-80 -73 -202 -74 q-153 2 -240 121 q-86 119 -88 333 q2 212 89 331 q86 118 238 120 q123 -2 204 -77 q81 -76 96 -205 l353 0 q-14 260 -194 416 q-180 156 -459 160 q-326 -2 -512 -196 q-185 -194 -189 -550 q3 -356 189 -550 q185 -195 512 -197 l0 0 Z" /><glyph glyph-name="" unicode="ç" d="M1072 544 q-19 -128 -99 -201 q-80 -73 -202 -74 q-153 2 -240 121 q-86 119 -88 333 q2 212 89 331 q86 118 238 120 q123 -2 204 -77 q81 -76 96 -205 l353 0 q-14 260 -194 416 q-180 156 -459 160 q-326 -2 -512 -196 q-185 -194 -189 -550 q3 -329 162 -520 q159 -192 444 -222 l-46 -92 l0 -114 l56 0 q61 0 87 -11 q26 -12 25 -40 q0 -23 -24 -34 q-24 -11 -76 -11 q-29 0 -58 3 q-28 3 -47 9 l0 -131 q24 -7 59 -11 q36 -4 78 -4 q123 0 187 49 q65 49 65 142 q-1 76 -47 119 q-46 43 -126 44 l38 80 q253 25 408 174 q155 150 171 392 l-353 0 Z" /><glyph glyph-name="" unicode="&#x1e08;" d="M1152 1870 l-313 0 l-232 -316 l269 0 l276 316 ZM1072 544 q-19 -128 -99 -201 q-80 -73 -202 -74 q-153 2 -240 121 q-86 119 -88 333 q2 212 89 331 q86 118 238 120 q123 -2 204 -77 q81 -76 96 -205 l353 0 q-14 260 -194 416 q-180 156 -459 160 q-326 -2 -512 -196 q-185 -194 -189 -550 q3 -329 162 -520 q159 -192 444 -222 l-46 -92 l0 -114 l56 0 q61 0 87 -11 q26 -12 25 -40 q0 -23 -24 -34 q-24 -11 -76 -11 q-29 0 -58 3 q-28 3 -47 9 l0 -131 q24 -7 59 -11 q36 -4 78 -4 q123 0 187 49 q65 49 65 142 q-1 76 -47 119 q-46 43 -126 44 l38 80 q253 25 408 174 q155 150 171 392 l-353 0 Z" /><glyph glyph-name="" unicode="d" d="M109 1443 l0 -1443 l589 0 q329 2 509 192 q180 190 182 538 q-2 346 -182 529 q-180 183 -509 184 l-589 0 ZM476 1147 l173 0 q175 -1 271 -107 q95 -107 96 -311 q-1 -216 -94 -324 q-93 -109 -273 -109 l-173 0 l0 851 Z" /><glyph glyph-name="" unicode="&#x1e0a;" d="M694 1548 q71 2 117 48 q45 46 47 115 q-2 69 -47 115 q-46 46 -117 48 q-71 -2 -116 -48 q-46 -46 -48 -115 q2 -69 48 -115 q45 -46 116 -48 l0 0 ZM109 1443 l0 -1443 l589 0 q329 2 509 192 q180 190 182 538 q-2 346 -182 529 q-180 183 -509 184 l-589 0 ZM476 1147 l173 0 q175 -1 271 -107 q95 -107 96 -311 q-1 -216 -94 -324 q-93 -109 -273 -109 l-173 0 l0 851 Z" /><glyph glyph-name="" unicode="&#x1e12;" d="M109 1443 l0 -1443 l589 0 q329 2 509 192 q180 190 182 538 q-2 346 -182 529 q-180 183 -509 184 l-589 0 ZM476 1147 l173 0 q175 -1 271 -107 q95 -107 96 -311 q-1 -216 -94 -324 q-93 -109 -273 -109 l-173 0 l0 851 ZM557 -156 l-263 -328 l250 0 l147 194 l6 0 l147 -194 l250 0 l-263 328 l-274 0 Z" /><glyph glyph-name="" unicode="&#x1e10;" d="M668 -477 l183 333 l-310 0 l-138 -333 l265 0 ZM109 1443 l0 -1443 l589 0 q329 2 509 192 q180 190 182 538 q-2 346 -182 529 q-180 183 -509 184 l-589 0 ZM476 1147 l173 0 q175 -1 271 -107 q95 -107 96 -311 q-1 -216 -94 -324 q-93 -109 -273 -109 l-173 0 l0 851 Z" /><glyph glyph-name="" unicode="&#x1e0e;" d="M1055 -235 l-722 0 l0 -163 l722 0 l0 163 ZM109 1443 l0 -1443 l589 0 q329 2 509 192 q180 190 182 538 q-2 346 -182 529 q-180 183 -509 184 l-589 0 ZM476 1147 l173 0 q175 -1 271 -107 q95 -107 96 -311 q-1 -216 -94 -324 q-93 -109 -273 -109 l-173 0 l0 851 Z" /><glyph glyph-name="" unicode="&#x10e;" d="M557 1539 l274 0 l263 328 l-250 0 l-147 -195 l-6 0 l-147 195 l-250 0 l263 -328 ZM109 1443 l0 -1443 l589 0 q329 2 509 192 q180 190 182 538 q-2 346 -182 529 q-180 183 -509 184 l-589 0 ZM476 1147 l173 0 q175 -1 271 -107 q95 -107 96 -311 q-1 -216 -94 -324 q-93 -109 -273 -109 l-173 0 l0 851 Z" /><glyph glyph-name="" unicode="&#x1e0c;" d="M694 -492 q71 2 117 48 q45 46 47 115 q-2 69 -47 115 q-46 46 -117 48 q-71 -2 -116 -48 q-46 -46 -48 -115 q2 -69 48 -115 q45 -46 116 -48 l0 0 ZM109 1443 l0 -1443 l589 0 q329 2 509 192 q180 190 182 538 q-2 346 -182 529 q-180 183 -509 184 l-589 0 ZM476 1147 l173 0 q175 -1 271 -107 q95 -107 96 -311 q-1 -216 -94 -324 q-93 -109 -273 -109 l-173 0 l0 851 Z" /><glyph glyph-name="" unicode="&#x110;" d="M499 296 l0 304 l243 0 l0 252 l-243 0 l0 295 l173 0 q175 -1 271 -107 q95 -107 96 -311 q-1 -216 -94 -324 q-93 -109 -273 -109 l-173 0 ZM132 1443 l0 -591 l-80 0 l0 -252 l80 0 l0 -600 l589 0 q329 2 509 192 q180 190 182 538 q-2 346 -182 529 q-180 183 -509 184 l-589 0 Z" /><glyph glyph-name="" unicode="e" d="M1098 296 l-622 0 l0 294 l585 0 l0 270 l-585 0 l0 287 l622 0 l0 296 l-989 0 l0 -1443 l989 0 l0 296 Z" /><glyph glyph-name="" unicode="è" d="M474 1561 l269 0 l-232 316 l-313 0 l276 -316 ZM1098 296 l-622 0 l0 294 l585 0 l0 270 l-585 0 l0 287 l622 0 l0 296 l-989 0 l0 -1443 l989 0 l0 296 Z" /><glyph glyph-name="" unicode="&#x204;" d="M695 1554 l266 0 l-231 316 l-311 0 l276 -316 ZM255 1554 l267 0 l-232 316 l-310 0 l275 -316 ZM1098 296 l-622 0 l0 294 l585 0 l0 270 l-585 0 l0 287 l622 0 l0 296 l-989 0 l0 -1443 l989 0 l0 296 Z" /><glyph glyph-name="" unicode="é" d="M728 1554 l276 316 l-313 0 l-232 -316 l269 0 ZM1098 296 l-622 0 l0 294 l585 0 l0 270 l-585 0 l0 287 l622 0 l0 296 l-989 0 l0 -1443 l989 0 l0 296 Z" /><glyph glyph-name="" unicode="ê" d="M466 1867 l-263 -328 l250 0 l147 194 l6 0 l147 -194 l250 0 l-263 328 l-274 0 ZM1098 296 l-622 0 l0 294 l585 0 l0 270 l-585 0 l0 287 l622 0 l0 296 l-989 0 l0 -1443 l989 0 l0 296 Z" /><glyph glyph-name="" unicode="&#x1ec2;" d="M1098 296 l-622 0 l0 294 l585 0 l0 270 l-585 0 l0 287 l622 0 l0 296 l-989 0 l0 -1443 l989 0 l0 296 ZM467 1832 l-258 -287 l257 0 l133 158 l9 0 l133 -158 l257 0 l-258 287 l-273 0 ZM717 1999 q21 8 51 13 q29 5 54 5 q47 0 73 -20 q26 -20 26 -54 q1 -28 -16 -54 q-16 -26 -56 -42 l100 -118 q82 35 126 98 q44 64 44 137 q-1 98 -67 154 q-67 55 -184 56 q-44 0 -84 -7 q-41 -7 -67 -20 l0 -148 Z" /><glyph glyph-name="" unicode="&#x1ec0;" d="M1098 296 l-622 0 l0 294 l585 0 l0 270 l-585 0 l0 287 l622 0 l0 296 l-989 0 l0 -1443 l989 0 l0 296 ZM466 1832 l-257 -287 l257 0 l132 158 l10 0 l132 -158 l257 0 l-257 287 l-274 0 ZM964 1907 l-198 263 l-290 0 l237 -263 l251 0 Z" /><glyph glyph-name="" unicode="&#x1ec4;" d="M743 1894 q99 1 165 74 q66 74 68 206 l-179 0 q-2 -51 -19 -80 q-17 -28 -51 -29 q-49 8 -102 62 q-54 54 -160 62 q-100 -1 -165 -72 q-66 -71 -68 -204 l179 0 q3 47 19 75 q17 29 52 30 q51 -8 104 -62 q53 -54 157 -62 l0 0 ZM466 1827 l-257 -282 l257 0 l132 154 l10 0 l132 -154 l257 0 l-257 282 l-274 0 ZM1098 296 l-622 0 l0 294 l585 0 l0 270 l-585 0 l0 287 l622 0 l0 296 l-989 0 l0 -1443 l989 0 l0 296 Z" /><glyph glyph-name="" unicode="&#x1ec6;" d="M603 -492 q71 2 117 48 q45 46 47 115 q-2 69 -47 115 q-46 46 -117 48 q-71 -2 -116 -48 q-46 -46 -48 -115 q2 -69 48 -115 q45 -46 116 -48 l0 0 ZM466 1867 l-263 -328 l250 0 l147 194 l6 0 l147 -194 l250 0 l-263 328 l-274 0 ZM1098 296 l-622 0 l0 294 l585 0 l0 270 l-585 0 l0 287 l622 0 l0 296 l-989 0 l0 -1443 l989 0 l0 296 Z" /><glyph glyph-name="" unicode="&#x1ebe;" d="M1098 296 l-622 0 l0 294 l585 0 l0 270 l-585 0 l0 287 l622 0 l0 296 l-989 0 l0 -1443 l989 0 l0 296 ZM467 1832 l-258 -287 l257 0 l133 158 l10 0 l132 -158 l257 0 l-257 287 l-274 0 ZM667 1907 l251 0 l237 263 l-290 0 l-198 -263 Z" /><glyph glyph-name="" unicode="ë" d="M386 1547 q65 2 106 42 q41 40 42 99 q-1 60 -42 100 q-41 40 -106 41 q-64 -1 -105 -41 q-41 -40 -42 -100 q1 -59 42 -99 q41 -40 105 -42 l0 0 ZM819 1547 q65 2 105 42 q41 40 42 99 q-1 60 -42 100 q-40 40 -105 41 q-65 -1 -105 -41 q-41 -40 -42 -100 q1 -59 42 -99 q40 -40 105 -42 l0 0 ZM1098 296 l-622 0 l0 294 l585 0 l0 270 l-585 0 l0 287 l622 0 l0 296 l-989 0 l0 -1443 l989 0 l0 296 Z" /><glyph glyph-name="" unicode="&#x1eb8;" d="M603 -492 q71 2 117 48 q45 46 47 115 q-2 69 -47 115 q-46 46 -117 48 q-71 -2 -116 -48 q-46 -46 -48 -115 q2 -69 48 -115 q45 -46 116 -48 l0 0 ZM1098 296 l-622 0 l0 294 l585 0 l0 270 l-585 0 l0 287 l622 0 l0 296 l-989 0 l0 -1443 l989 0 l0 296 Z" /><glyph glyph-name="" unicode="&#x206;" d="M1098 296 l-622 0 l0 294 l585 0 l0 270 l-585 0 l0 287 l622 0 l0 296 l-989 0 l0 -1443 l989 0 l0 296 ZM228 1539 l208 0 q4 70 47 115 q43 44 120 45 q77 -1 120 -45 q44 -45 47 -115 l208 0 q-5 138 -101 230 q-96 92 -274 96 q-178 -4 -274 -96 q-96 -92 -101 -230 l0 0 Z" /><glyph glyph-name="" unicode="&#x1eba;" d="M1098 296 l-622 0 l0 294 l585 0 l0 270 l-585 0 l0 287 l622 0 l0 296 l-989 0 l0 -1443 l989 0 l0 296 ZM406 1799 q22 8 53 13 q30 5 55 5 q48 0 74 -20 q27 -20 27 -55 q-1 -34 -27 -64 q-27 -30 -72 -47 l99 -120 q90 39 146 105 q55 67 57 146 q-1 101 -70 157 q-68 57 -188 58 q-45 0 -86 -7 q-41 -7 -68 -21 l0 -150 Z" /><glyph glyph-name="" unicode="&#x11a;" d="M466 1539 l274 0 l263 328 l-250 0 l-147 -195 l-6 0 l-147 195 l-250 0 l263 -328 ZM1098 296 l-622 0 l0 294 l585 0 l0 270 l-585 0 l0 287 l622 0 l0 296 l-989 0 l0 -1443 l989 0 l0 296 Z" /><glyph glyph-name="" unicode="&#x112;" d="M1098 296 l-622 0 l0 294 l585 0 l0 270 l-585 0 l0 287 l622 0 l0 296 l-989 0 l0 -1443 l989 0 l0 296 ZM964 1777 l-722 0 l0 -163 l722 0 l0 163 Z" /><glyph glyph-name="" unicode="&#x1e14;" d="M242 1614 l722 0 l0 163 l-722 0 l0 -163 ZM738 1907 l-198 263 l-290 0 l238 -263 l250 0 ZM1098 296 l-622 0 l0 294 l585 0 l0 270 l-585 0 l0 287 l622 0 l0 296 l-989 0 l0 -1443 l989 0 l0 296 Z" /><glyph glyph-name="" unicode="&#x1e16;" d="M964 1614 l0 163 l-722 0 l0 -163 l722 0 ZM468 1907 l250 0 l238 263 l-290 0 l-198 -263 ZM1098 296 l-622 0 l0 294 l585 0 l0 270 l-585 0 l0 287 l622 0 l0 296 l-989 0 l0 -1443 l989 0 l0 296 Z" /><glyph glyph-name="" unicode="&#x1ebc;" d="M1098 296 l-622 0 l0 294 l585 0 l0 270 l-585 0 l0 287 l622 0 l0 296 l-989 0 l0 -1443 l989 0 l0 296 ZM750 1543 q99 1 165 76 q66 76 69 211 l-181 0 q-1 -52 -17 -83 q-16 -30 -50 -31 q-49 8 -105 64 q-55 55 -160 63 q-99 -1 -165 -74 q-66 -73 -69 -209 l181 0 q1 48 18 78 q17 31 51 32 q50 -8 105 -63 q55 -56 158 -64 l0 0 Z" /><glyph glyph-name="" unicode="&#x1e18;" d="M1098 296 l-622 0 l0 294 l585 0 l0 270 l-585 0 l0 287 l622 0 l0 296 l-989 0 l0 -1443 l989 0 l0 296 ZM466 -156 l-263 -328 l250 0 l147 194 l6 0 l147 -194 l250 0 l-263 328 l-274 0 Z" /><glyph glyph-name="" unicode="&#x114;" d="M1098 296 l-622 0 l0 294 l585 0 l0 270 l-585 0 l0 287 l622 0 l0 296 l-989 0 l0 -1443 l989 0 l0 296 ZM228 1865 q5 -138 101 -230 q96 -92 274 -96 q178 4 274 96 q96 92 101 230 l-208 0 q-3 -70 -47 -114 q-43 -44 -120 -45 q-77 1 -120 45 q-43 44 -47 114 l-208 0 Z" /><glyph glyph-name="" unicode="&#x1e1a;" d="M750 -447 q99 1 165 76 q66 76 69 211 l-181 0 q-1 -52 -17 -83 q-16 -30 -50 -31 q-49 8 -105 64 q-55 55 -160 63 q-99 -1 -165 -74 q-66 -73 -69 -209 l181 0 q1 48 18 78 q17 31 51 32 q50 -8 105 -63 q55 -56 158 -64 l0 0 ZM1098 296 l-622 0 l0 294 l585 0 l0 270 l-585 0 l0 287 l622 0 l0 296 l-989 0 l0 -1443 l989 0 l0 296 Z" /><glyph glyph-name="" unicode="&#x116;" d="M603 1548 q71 2 117 48 q45 46 47 115 q-2 69 -47 115 q-46 46 -117 48 q-71 -2 -116 -48 q-46 -46 -48 -115 q2 -69 48 -115 q45 -46 116 -48 l0 0 ZM1098 296 l-622 0 l0 294 l585 0 l0 270 l-585 0 l0 287 l622 0 l0 296 l-989 0 l0 -1443 l989 0 l0 296 Z" /><glyph glyph-name="" unicode="&#x228;" d="M1098 1147 l0 296 l-989 0 l0 -1443 l428 0 l-56 -112 l0 -114 l56 0 q61 0 87 -11 q26 -12 25 -40 q0 -23 -24 -34 q-24 -11 -76 -11 q-29 0 -58 3 q-28 3 -47 9 l0 -131 q24 -7 59 -11 q36 -4 78 -4 q123 0 187 49 q65 49 65 142 q-1 76 -47 119 q-46 43 -126 44 l48 102 l390 0 l0 296 l-622 0 l0 294 l585 0 l0 270 l-585 0 l0 287 l622 0 Z" /><glyph glyph-name="" unicode="&#x1e1c;" d="M770 1865 q-3 -70 -47 -114 q-43 -44 -120 -45 q-77 1 -120 45 q-43 44 -47 114 l-208 0 q5 -138 101 -230 q96 -92 274 -96 q178 4 274 96 q96 92 101 230 l-208 0 ZM1098 1147 l0 296 l-989 0 l0 -1443 l428 0 l-56 -112 l0 -114 l56 0 q61 0 87 -11 q26 -12 25 -40 q0 -23 -24 -34 q-24 -11 -76 -11 q-29 0 -58 3 q-28 3 -47 9 l0 -131 q24 -7 59 -11 q36 -4 78 -4 q123 0 187 49 q65 49 65 142 q-1 76 -47 119 q-46 43 -126 44 l48 102 l390 0 l0 296 l-622 0 l0 294 l585 0 l0 270 l-585 0 l0 287 l622 0 Z" /><glyph glyph-name="" unicode="&#x118;" d="M889 -479 q50 0 89 6 q39 6 67 17 l0 179 q-8 -3 -27 -5 q-20 -3 -43 -3 q-58 0 -89 25 q-32 25 -32 70 q3 61 59 113 q57 53 137 70 l48 10 l0 293 l-622 0 l0 294 l585 0 l0 270 l-585 0 l0 287 l622 0 l0 296 l-989 0 l0 -1443 l653 0 l0 -4 q-74 -38 -118 -103 q-44 -66 -45 -141 q2 -104 81 -167 q79 -62 209 -64 l0 0 Z" /><glyph glyph-name="" unicode="f" d="M476 0 l0 538 l559 0 l0 281 l-559 0 l0 328 l615 0 l0 296 l-982 0 l0 -1443 l367 0 Z" /><glyph glyph-name="" unicode="&#x1e1e;" d="M581 1548 q71 2 117 48 q45 46 47 115 q-2 69 -47 115 q-46 46 -117 48 q-71 -2 -116 -48 q-46 -46 -48 -115 q2 -69 48 -115 q45 -46 116 -48 l0 0 ZM476 0 l0 538 l559 0 l0 281 l-559 0 l0 328 l615 0 l0 296 l-982 0 l0 -1443 l367 0 Z" /><glyph glyph-name="" unicode="g" d="M1437 610 l0 177 l-618 0 l0 -252 l264 0 l-1 -22 q-9 -110 -87 -176 q-79 -65 -205 -67 q-160 2 -253 122 q-92 121 -94 337 q1 212 88 327 q86 116 243 117 q107 -1 182 -55 q75 -54 103 -151 l363 0 q-32 224 -207 361 q-175 136 -442 140 q-330 -3 -515 -196 q-186 -194 -189 -548 q3 -358 190 -552 q186 -195 523 -197 q311 3 482 170 q171 167 173 465 l0 0 Z" /><glyph glyph-name="" unicode="&#x1f4;" d="M878 1554 l276 316 l-313 0 l-232 -316 l269 0 ZM1437 610 l0 177 l-618 0 l0 -252 l264 0 l-1 -22 q-9 -110 -87 -176 q-79 -65 -205 -67 q-160 2 -253 122 q-92 121 -94 337 q1 212 88 327 q86 116 243 117 q107 -1 182 -55 q75 -54 103 -151 l363 0 q-32 224 -207 361 q-175 136 -442 140 q-330 -3 -515 -196 q-186 -194 -189 -548 q3 -358 190 -552 q186 -195 523 -197 q311 3 482 170 q171 167 173 465 l0 0 Z" /><glyph glyph-name="" unicode="&#x1e6;" d="M616 1539 l274 0 l263 328 l-250 0 l-147 -195 l-6 0 l-147 195 l-250 0 l263 -328 ZM1437 610 l0 177 l-618 0 l0 -252 l264 0 l-1 -22 q-9 -110 -87 -176 q-79 -65 -205 -67 q-160 2 -253 122 q-92 121 -94 337 q1 212 88 327 q86 116 243 117 q107 -1 182 -55 q75 -54 103 -151 l363 0 q-32 224 -207 361 q-175 136 -442 140 q-330 -3 -515 -196 q-186 -194 -189 -548 q3 -358 190 -552 q186 -195 523 -197 q311 3 482 170 q171 167 173 465 l0 0 Z" /><glyph glyph-name="" unicode="&#x11c;" d="M616 1867 l-263 -328 l250 0 l147 194 l6 0 l147 -194 l250 0 l-263 328 l-274 0 ZM1437 610 l0 177 l-618 0 l0 -252 l264 0 l-1 -22 q-9 -110 -87 -176 q-79 -65 -205 -67 q-160 2 -253 122 q-92 121 -94 337 q1 212 88 327 q86 116 243 117 q107 -1 182 -55 q75 -54 103 -151 l363 0 q-32 224 -207 361 q-175 136 -442 140 q-330 -3 -515 -196 q-186 -194 -189 -548 q3 -358 190 -552 q186 -195 523 -197 q311 3 482 170 q171 167 173 465 l0 0 Z" /><glyph glyph-name="" unicode="&#x11e;" d="M1437 610 l0 177 l-618 0 l0 -252 l264 0 l-1 -22 q-9 -110 -87 -176 q-79 -65 -205 -67 q-160 2 -253 122 q-92 121 -94 337 q1 212 88 327 q86 116 243 117 q107 -1 182 -55 q75 -54 103 -151 l363 0 q-32 224 -207 361 q-175 136 -442 140 q-330 -3 -515 -196 q-186 -194 -189 -548 q3 -358 190 -552 q186 -195 523 -197 q311 3 482 170 q171 167 173 465 l0 0 ZM378 1865 q5 -138 101 -230 q96 -92 274 -96 q178 4 274 96 q96 92 101 230 l-208 0 q-3 -70 -47 -114 q-43 -44 -120 -45 q-77 1 -120 45 q-43 44 -47 114 l-208 0 Z" /><glyph glyph-name="" unicode="&#x1e20;" d="M1437 610 l0 177 l-618 0 l0 -252 l264 0 l-1 -22 q-9 -110 -87 -176 q-79 -65 -205 -67 q-160 2 -253 122 q-92 121 -94 337 q1 212 88 327 q86 116 243 117 q107 -1 182 -55 q75 -54 103 -151 l363 0 q-32 224 -207 361 q-175 136 -442 140 q-330 -3 -515 -196 q-186 -194 -189 -548 q3 -358 190 -552 q186 -195 523 -197 q311 3 482 170 q171 167 173 465 l0 0 ZM1114 1777 l-722 0 l0 -163 l722 0 l0 163 Z" /><glyph glyph-name="" unicode="&#x120;" d="M753 1548 q71 2 117 48 q45 46 47 115 q-2 69 -47 115 q-46 46 -117 48 q-71 -2 -116 -48 q-46 -46 -48 -115 q2 -69 48 -115 q45 -46 116 -48 l0 0 ZM1437 610 l0 177 l-618 0 l0 -252 l264 0 l-1 -22 q-9 -110 -87 -176 q-79 -65 -205 -67 q-160 2 -253 122 q-92 121 -94 337 q1 212 88 327 q86 116 243 117 q107 -1 182 -55 q75 -54 103 -151 l363 0 q-32 224 -207 361 q-175 136 -442 140 q-330 -3 -515 -196 q-186 -194 -189 -548 q3 -358 190 -552 q186 -195 523 -197 q311 3 482 170 q171 167 173 465 l0 0 Z" /><glyph glyph-name="" unicode="&#x122;" d="M727 -477 l183 333 l-310 0 l-138 -333 l265 0 ZM1437 610 l0 177 l-618 0 l0 -252 l264 0 l-1 -22 q-9 -110 -87 -176 q-79 -65 -205 -67 q-160 2 -253 122 q-92 121 -94 337 q1 212 88 327 q86 116 243 117 q107 -1 182 -55 q75 -54 103 -151 l363 0 q-32 224 -207 361 q-175 136 -442 140 q-330 -3 -515 -196 q-186 -194 -189 -548 q3 -358 190 -552 q186 -195 523 -197 q311 3 482 170 q171 167 173 465 l0 0 Z" /><glyph glyph-name="" unicode="h" d="M1417 0 l0 1443 l-366 0 l0 -566 l-575 0 l0 566 l-367 0 l0 -1443 l367 0 l0 581 l575 0 l0 -581 l366 0 Z" /><glyph glyph-name="" unicode="&#x1e26;" d="M1417 0 l0 1443 l-366 0 l0 -566 l-575 0 l0 566 l-367 0 l0 -1443 l367 0 l0 581 l575 0 l0 -581 l366 0 ZM546 1547 q65 2 106 42 q41 40 42 99 q-1 60 -42 100 q-41 40 -106 41 q-64 -1 -105 -41 q-41 -40 -42 -100 q1 -59 42 -99 q41 -40 105 -42 l0 0 ZM979 1547 q65 2 105 42 q41 40 42 99 q-1 60 -42 100 q-40 40 -105 41 q-65 -1 -105 -41 q-41 -40 -42 -100 q1 -59 42 -99 q40 -40 105 -42 l0 0 Z" /><glyph glyph-name="" unicode="&#x21e;" d="M1417 0 l0 1443 l-366 0 l0 -566 l-575 0 l0 566 l-367 0 l0 -1443 l367 0 l0 581 l575 0 l0 -581 l366 0 ZM626 1539 l274 0 l263 328 l-250 0 l-147 -195 l-6 0 l-147 195 l-250 0 l263 -328 Z" /><glyph glyph-name="" unicode="&#x124;" d="M1417 0 l0 1443 l-366 0 l0 -566 l-575 0 l0 566 l-367 0 l0 -1443 l367 0 l0 581 l575 0 l0 -581 l366 0 ZM626 1867 l-263 -328 l250 0 l147 194 l6 0 l147 -194 l250 0 l-263 328 l-274 0 Z" /><glyph glyph-name="" unicode="&#x1e24;" d="M1417 0 l0 1443 l-366 0 l0 -566 l-575 0 l0 566 l-367 0 l0 -1443 l367 0 l0 581 l575 0 l0 -581 l366 0 ZM763 -492 q71 2 117 48 q45 46 47 115 q-2 69 -47 115 q-46 46 -117 48 q-71 -2 -116 -48 q-46 -46 -48 -115 q2 -69 48 -115 q45 -46 116 -48 l0 0 Z" /><glyph glyph-name="" unicode="&#x1e22;" d="M1417 0 l0 1443 l-366 0 l0 -566 l-575 0 l0 566 l-367 0 l0 -1443 l367 0 l0 581 l575 0 l0 -581 l366 0 ZM763 1548 q71 2 117 48 q45 46 47 115 q-2 69 -47 115 q-46 46 -117 48 q-71 -2 -116 -48 q-46 -46 -48 -115 q2 -69 48 -115 q45 -46 116 -48 l0 0 Z" /><glyph glyph-name="" unicode="&#x1e2a;" d="M388 -165 q5 -138 101 -230 q96 -92 274 -96 q178 4 274 96 q96 92 101 230 l-208 0 q-3 -70 -47 -114 q-43 -44 -120 -45 q-77 1 -120 45 q-43 44 -47 114 l-208 0 ZM1417 0 l0 1443 l-366 0 l0 -566 l-575 0 l0 566 l-367 0 l0 -1443 l367 0 l0 581 l575 0 l0 -581 l366 0 Z" /><glyph glyph-name="" unicode="&#x1e28;" d="M1051 1443 l0 -566 l-575 0 l0 566 l-367 0 l0 -1443 l196 0 l-56 -112 l0 -114 l56 0 q61 0 87 -11 q26 -12 25 -40 q0 -23 -24 -34 q-24 -11 -76 -11 q-29 0 -58 3 q-28 3 -47 9 l0 -131 q24 -7 59 -11 q36 -4 78 -4 q123 0 187 49 q65 49 65 142 q-1 76 -47 119 q-46 43 -126 44 l48 102 l0 14 l0 567 l575 0 l0 -581 l366 0 l0 1443 l-366 0 Z" /><glyph glyph-name="" unicode="&#x126;" d="M1071 877 l-575 0 l0 162 l575 0 l0 -162 ZM1527 1286 l-90 0 l0 157 l-366 0 l0 -157 l-575 0 l0 157 l-367 0 l0 -157 l-89 0 l0 -247 l89 0 l0 -1039 l367 0 l0 581 l575 0 l0 -581 l366 0 l0 1039 l90 0 l0 247 Z" /><glyph glyph-name="" unicode="i" d="M476 0 l0 1443 l-367 0 l0 -1443 l367 0 Z" /><glyph glyph-name="" unicode="&#x130;" d="M476 0 l0 1443 l-367 0 l0 -1443 l367 0 ZM293 1548 q71 2 117 48 q45 46 47 115 q-2 69 -47 115 q-46 46 -117 48 q-71 -2 -116 -48 q-46 -46 -48 -115 q2 -69 48 -115 q45 -46 116 -48 l0 0 Z" /><glyph glyph-name="" unicode="ì" d="M476 0 l0 1443 l-367 0 l0 -1443 l367 0 ZM164 1561 l269 0 l-232 316 l-313 0 l276 -316 Z" /><glyph glyph-name="" unicode="&#x208;" d="M476 0 l0 1443 l-367 0 l0 -1443 l367 0 ZM385 1554 l266 0 l-231 316 l-311 0 l276 -316 ZM-55 1554 l267 0 l-232 316 l-310 0 l275 -316 Z" /><glyph glyph-name="" unicode="í" d="M476 0 l0 1443 l-367 0 l0 -1443 l367 0 ZM418 1554 l276 316 l-313 0 l-232 -316 l269 0 Z" /><glyph glyph-name="" unicode="î" d="M476 0 l0 1443 l-367 0 l0 -1443 l367 0 ZM156 1867 l-263 -328 l250 0 l147 194 l6 0 l147 -194 l250 0 l-263 328 l-274 0 Z" /><glyph glyph-name="" unicode="&#x1cf;" d="M476 0 l0 1443 l-367 0 l0 -1443 l367 0 ZM156 1539 l274 0 l263 328 l-250 0 l-147 -195 l-6 0 l-147 195 l-250 0 l263 -328 Z" /><glyph glyph-name="" unicode="ï" d="M476 0 l0 1443 l-367 0 l0 -1443 l367 0 ZM76 1547 q65 2 106 42 q41 40 42 99 q-1 60 -42 100 q-41 40 -106 41 q-64 -1 -105 -41 q-41 -40 -42 -100 q1 -59 42 -99 q41 -40 105 -42 l0 0 ZM509 1547 q65 2 105 42 q41 40 42 99 q-1 60 -42 100 q-40 40 -105 41 q-65 -1 -105 -41 q-41 -40 -42 -100 q1 -59 42 -99 q40 -40 105 -42 l0 0 Z" /><glyph glyph-name="" unicode="&#x1e2e;" d="M476 0 l0 1443 l-367 0 l0 -1443 l367 0 ZM158 1907 l250 0 l238 263 l-290 0 l-198 -263 ZM79 1549 q63 2 103 41 q40 39 41 97 q-1 59 -41 98 q-40 39 -103 40 q-63 -1 -103 -40 q-40 -39 -41 -98 q1 -58 41 -97 q40 -39 103 -41 l0 0 ZM507 1549 q63 2 103 41 q40 39 41 97 q-1 59 -41 98 q-40 39 -103 40 q-63 -1 -103 -40 q-40 -39 -41 -98 q1 -58 41 -97 q40 -39 103 -41 l0 0 Z" /><glyph glyph-name="" unicode="&#x12c;" d="M476 0 l0 1443 l-367 0 l0 -1443 l367 0 ZM-82 1865 q5 -138 101 -230 q96 -92 274 -96 q178 4 274 96 q96 92 101 230 l-208 0 q-3 -70 -47 -114 q-43 -44 -120 -45 q-77 1 -120 45 q-43 44 -47 114 l-208 0 Z" /><glyph glyph-name="" unicode="&#x1eca;" d="M476 0 l0 1443 l-367 0 l0 -1443 l367 0 ZM293 -492 q71 2 117 48 q45 46 47 115 q-2 69 -47 115 q-46 46 -117 48 q-71 -2 -116 -48 q-46 -46 -48 -115 q2 -69 48 -115 q45 -46 116 -48 l0 0 Z" /><glyph glyph-name="" unicode="&#x20a;" d="M476 0 l0 1443 l-367 0 l0 -1443 l367 0 ZM-82 1539 l208 0 q4 70 47 115 q43 44 120 45 q77 -1 120 -45 q44 -45 47 -115 l208 0 q-5 138 -101 230 q-96 92 -274 96 q-178 -4 -274 -96 q-96 -92 -101 -230 l0 0 Z" /><glyph glyph-name="" unicode="&#x12a;" d="M476 0 l0 1443 l-367 0 l0 -1443 l367 0 ZM654 1777 l-722 0 l0 -163 l722 0 l0 163 Z" /><glyph glyph-name="" unicode="&#x1e2c;" d="M476 0 l0 1443 l-367 0 l0 -1443 l367 0 ZM440 -447 q99 1 165 76 q66 76 69 211 l-181 0 q-1 -52 -17 -83 q-16 -30 -50 -31 q-49 8 -105 64 q-55 55 -160 63 q-99 -1 -165 -74 q-66 -73 -69 -209 l181 0 q1 48 18 78 q17 31 51 32 q50 -8 105 -63 q55 -56 158 -64 l0 0 Z" /><glyph glyph-name="" unicode="&#x1ec8;" d="M476 0 l0 1443 l-367 0 l0 -1443 l367 0 ZM96 1799 q22 8 53 13 q30 5 55 5 q48 0 74 -20 q27 -20 27 -55 q-1 -34 -27 -64 q-27 -30 -72 -47 l99 -120 q90 39 146 105 q55 67 57 146 q-1 101 -70 157 q-68 57 -188 58 q-45 0 -86 -7 q-41 -7 -68 -21 l0 -150 Z" /><glyph glyph-name="" unicode="&#x128;" d="M476 0 l0 1443 l-367 0 l0 -1443 l367 0 ZM440 1543 q99 1 165 76 q66 76 69 211 l-181 0 q-1 -52 -17 -83 q-16 -30 -50 -31 q-49 8 -105 64 q-55 55 -160 63 q-99 -1 -165 -74 q-66 -73 -69 -209 l181 0 q1 48 18 78 q17 31 51 32 q50 -8 105 -63 q55 -56 158 -64 l0 0 Z" /><glyph glyph-name="" unicode="&#x12e;" d="M109 -44 q-48 -41 -73 -93 q-26 -53 -26 -111 q2 -104 80 -166 q78 -63 207 -65 q66 0 103 7 q37 6 61 16 l0 179 q-14 -3 -34 -5 q-19 -3 -37 -3 q-63 1 -97 27 q-35 27 -35 74 q3 64 60 110 q56 47 126 67 l32 7 l0 1443 l-367 0 l0 -1487 Z" /><glyph glyph-name="" unicode="j" d="M25 470 q3 -232 144 -363 q140 -132 386 -134 q250 1 389 131 q138 130 140 374 l0 965 l-366 0 l0 -963 q0 -96 -43 -146 q-43 -51 -124 -51 q-80 1 -125 50 q-46 50 -48 137 l-353 0 Z" /><glyph glyph-name="" unicode="&#x134;" d="M25 470 q3 -232 144 -363 q140 -132 386 -134 q250 1 389 131 q138 130 140 374 l0 965 l-366 0 l0 -963 q0 -96 -43 -146 q-43 -51 -124 -51 q-80 1 -125 50 q-46 50 -48 137 l-353 0 ZM771 1867 l-263 -328 l250 0 l147 194 l6 0 l147 -194 l250 0 l-263 328 l-274 0 Z" /><glyph glyph-name="" unicode="k" d="M476 0 l0 408 l123 156 l368 -564 l431 0 l-532 802 l503 641 l-394 0 l-491 -634 l-8 0 l0 634 l-367 0 l0 -1443 l367 0 Z" /><glyph glyph-name="" unicode="&#x1e30;" d="M821 1554 l276 316 l-313 0 l-232 -316 l269 0 ZM476 0 l0 408 l123 156 l368 -564 l431 0 l-532 802 l503 641 l-394 0 l-491 -634 l-8 0 l0 634 l-367 0 l0 -1443 l367 0 Z" /><glyph glyph-name="" unicode="&#x1e8;" d="M476 0 l0 408 l123 156 l368 -564 l431 0 l-532 802 l503 641 l-394 0 l-491 -634 l-8 0 l0 634 l-367 0 l0 -1443 l367 0 ZM559 1539 l274 0 l263 328 l-250 0 l-147 -195 l-6 0 l-147 195 l-250 0 l263 -328 Z" /><glyph glyph-name="" unicode="&#x1e32;" d="M696 -492 q71 2 117 48 q45 46 47 115 q-2 69 -47 115 q-46 46 -117 48 q-71 -2 -116 -48 q-46 -46 -48 -115 q2 -69 48 -115 q45 -46 116 -48 l0 0 ZM476 0 l0 408 l123 156 l368 -564 l431 0 l-532 802 l503 641 l-394 0 l-491 -634 l-8 0 l0 634 l-367 0 l0 -1443 l367 0 Z" /><glyph glyph-name="" unicode="&#x1e34;" d="M476 0 l0 408 l123 156 l368 -564 l431 0 l-532 802 l503 641 l-394 0 l-491 -634 l-8 0 l0 634 l-367 0 l0 -1443 l367 0 ZM1057 -235 l-722 0 l0 -163 l722 0 l0 163 Z" /><glyph glyph-name="" unicode="&#x136;" d="M476 0 l0 408 l123 156 l368 -564 l431 0 l-532 802 l503 641 l-394 0 l-491 -634 l-8 0 l0 634 l-367 0 l0 -1443 l367 0 ZM670 -477 l183 333 l-310 0 l-138 -333 l265 0 Z" /><glyph glyph-name="" unicode="l" d="M1073 296 l-597 0 l0 1147 l-367 0 l0 -1443 l964 0 l0 296 Z" /><glyph glyph-name="" unicode="&#x139;" d="M417 1554 l276 316 l-313 0 l-232 -316 l269 0 ZM1073 296 l-597 0 l0 1147 l-367 0 l0 -1443 l964 0 l0 296 Z" /><glyph glyph-name="" unicode="&#x1e3c;" d="M1073 296 l-597 0 l0 1147 l-367 0 l0 -1443 l964 0 l0 296 ZM439 -156 l-263 -328 l250 0 l147 194 l6 0 l147 -194 l250 0 l-263 328 l-274 0 Z" /><glyph glyph-name="" unicode="&#x1e36;" d="M576 -492 q71 2 117 48 q45 46 47 115 q-2 69 -47 115 q-46 46 -117 48 q-71 -2 -116 -48 q-46 -46 -48 -115 q2 -69 48 -115 q45 -46 116 -48 l0 0 ZM1073 296 l-597 0 l0 1147 l-367 0 l0 -1443 l964 0 l0 296 Z" /><glyph glyph-name="" unicode="&#x1e38;" d="M576 -492 q71 2 117 48 q45 46 47 115 q-2 69 -47 115 q-46 46 -117 48 q-71 -2 -116 -48 q-46 -46 -48 -115 q2 -69 48 -115 q45 -46 116 -48 l0 0 ZM1073 296 l-597 0 l0 1147 l-367 0 l0 -1443 l964 0 l0 296 ZM653 1777 l-722 0 l0 -163 l722 0 l0 163 Z" /><glyph glyph-name="" unicode="&#x1e3a;" d="M937 -235 l-722 0 l0 -163 l722 0 l0 163 ZM1073 296 l-597 0 l0 1147 l-367 0 l0 -1443 l964 0 l0 296 Z" /><glyph glyph-name="" unicode="&#x13b;" d="M550 -477 l183 333 l-310 0 l-138 -333 l265 0 ZM1073 296 l-597 0 l0 1147 l-367 0 l0 -1443 l964 0 l0 296 Z" /><glyph glyph-name="" unicode="&#x13d;" d="M720 1443 l0 -511 l236 0 l50 511 l-286 0 ZM1073 296 l-597 0 l0 1147 l-367 0 l0 -1443 l964 0 l0 296 Z" /><glyph glyph-name="" unicode="&#x141;" d="M496 296 l0 501 l270 142 l0 229 l-270 -142 l0 417 l-367 0 l0 -610 l-83 -44 l0 -229 l83 44 l0 -604 l964 0 l0 296 l-597 0 Z" /><glyph glyph-name="" unicode="m" d="M1693 0 l0 1443 l-424 0 l-364 -927 l-8 0 l-364 927 l-424 0 l0 -1443 l323 0 l0 901 l8 0 l356 -886 l210 0 l357 886 l7 0 l0 -901 l323 0 Z" /><glyph glyph-name="" unicode="&#x1e3e;" d="M1026 1554 l276 316 l-313 0 l-232 -316 l269 0 ZM1693 0 l0 1443 l-424 0 l-364 -927 l-8 0 l-364 927 l-424 0 l0 -1443 l323 0 l0 901 l8 0 l356 -886 l210 0 l357 886 l7 0 l0 -901 l323 0 Z" /><glyph glyph-name="" unicode="&#x1e40;" d="M901 1548 q71 2 117 48 q45 46 47 115 q-2 69 -47 115 q-46 46 -117 48 q-71 -2 -116 -48 q-46 -46 -48 -115 q2 -69 48 -115 q45 -46 116 -48 l0 0 ZM1693 0 l0 1443 l-424 0 l-364 -927 l-8 0 l-364 927 l-424 0 l0 -1443 l323 0 l0 901 l8 0 l356 -886 l210 0 l357 886 l7 0 l0 -901 l323 0 Z" /><glyph glyph-name="" unicode="&#x1e42;" d="M901 -492 q71 2 117 48 q45 46 47 115 q-2 69 -47 115 q-46 46 -117 48 q-71 -2 -116 -48 q-46 -46 -48 -115 q2 -69 48 -115 q45 -46 116 -48 l0 0 ZM1693 0 l0 1443 l-424 0 l-364 -927 l-8 0 l-364 927 l-424 0 l0 -1443 l323 0 l0 901 l8 0 l356 -886 l210 0 l357 886 l7 0 l0 -901 l323 0 Z" /><glyph glyph-name="" unicode="n" d="M457 0 l0 847 l8 0 l615 -847 l290 0 l0 1443 l-348 0 l0 -839 l-8 0 l-612 839 l-293 0 l0 -1443 l348 0 Z" /><glyph glyph-name="" unicode="&#x1f8;" d="M611 1561 l269 0 l-232 316 l-313 0 l276 -316 ZM457 0 l0 847 l8 0 l615 -847 l290 0 l0 1443 l-348 0 l0 -839 l-8 0 l-612 839 l-293 0 l0 -1443 l348 0 Z" /><glyph glyph-name="" unicode="&#x143;" d="M865 1554 l276 316 l-313 0 l-232 -316 l269 0 ZM457 0 l0 847 l8 0 l615 -847 l290 0 l0 1443 l-348 0 l0 -839 l-8 0 l-612 839 l-293 0 l0 -1443 l348 0 Z" /><glyph glyph-name="" unicode="ñ" d="M887 1543 q99 1 165 76 q66 76 69 211 l-181 0 q-1 -52 -17 -83 q-16 -30 -50 -31 q-49 8 -105 64 q-55 55 -160 63 q-99 -1 -165 -74 q-66 -73 -69 -209 l181 0 q1 48 18 78 q17 31 51 32 q50 -8 105 -63 q55 -56 158 -64 l0 0 ZM457 0 l0 847 l8 0 l615 -847 l290 0 l0 1443 l-348 0 l0 -839 l-8 0 l-612 839 l-293 0 l0 -1443 l348 0 Z" /><glyph glyph-name="" unicode="&#x1e46;" d="M740 -492 q71 2 117 48 q45 46 47 115 q-2 69 -47 115 q-46 46 -117 48 q-71 -2 -116 -48 q-46 -46 -48 -115 q2 -69 48 -115 q45 -46 116 -48 l0 0 ZM457 0 l0 847 l8 0 l615 -847 l290 0 l0 1443 l-348 0 l0 -839 l-8 0 l-612 839 l-293 0 l0 -1443 l348 0 Z" /><glyph glyph-name="" unicode="&#x1e44;" d="M740 1548 q71 2 117 48 q45 46 47 115 q-2 69 -47 115 q-46 46 -117 48 q-71 -2 -116 -48 q-46 -46 -48 -115 q2 -69 48 -115 q45 -46 116 -48 l0 0 ZM457 0 l0 847 l8 0 l615 -847 l290 0 l0 1443 l-348 0 l0 -839 l-8 0 l-612 839 l-293 0 l0 -1443 l348 0 Z" /><glyph glyph-name="" unicode="&#x147;" d="M603 1539 l274 0 l263 328 l-250 0 l-147 -195 l-6 0 l-147 195 l-250 0 l263 -328 ZM457 0 l0 847 l8 0 l615 -847 l290 0 l0 1443 l-348 0 l0 -839 l-8 0 l-612 839 l-293 0 l0 -1443 l348 0 Z" /><glyph glyph-name="" unicode="&#x1e4a;" d="M457 0 l0 847 l8 0 l615 -847 l290 0 l0 1443 l-348 0 l0 -839 l-8 0 l-612 839 l-293 0 l0 -1443 l348 0 ZM603 -156 l-263 -328 l250 0 l147 194 l6 0 l147 -194 l250 0 l-263 328 l-274 0 Z" /><glyph glyph-name="" unicode="&#x1e48;" d="M1101 -235 l-722 0 l0 -163 l722 0 l0 163 ZM457 0 l0 847 l8 0 l615 -847 l290 0 l0 1443 l-348 0 l0 -839 l-8 0 l-612 839 l-293 0 l0 -1443 l348 0 Z" /><glyph glyph-name="" unicode="&#x145;" d="M714 -477 l183 333 l-310 0 l-138 -333 l265 0 ZM457 0 l0 847 l8 0 l615 -847 l290 0 l0 1443 l-348 0 l0 -839 l-8 0 l-612 839 l-293 0 l0 -1443 l348 0 Z" /><glyph glyph-name="" unicode="o" d="M782 1468 q-331 -4 -520 -201 q-189 -197 -193 -546 q4 -348 192 -545 q189 -197 521 -201 q331 4 520 201 q188 197 192 545 q-4 349 -192 546 q-189 197 -520 201 l0 0 ZM782 1170 q156 -2 246 -121 q91 -119 93 -328 q-2 -208 -93 -327 q-90 -119 -246 -121 q-156 2 -247 121 q-90 119 -92 327 q2 209 93 328 q90 119 246 121 l0 0 Z" /><glyph glyph-name="" unicode="ö" d="M565 1547 q65 2 106 42 q41 40 42 99 q-1 60 -42 100 q-41 40 -106 41 q-64 -1 -105 -41 q-41 -40 -42 -100 q1 -59 42 -99 q41 -40 105 -42 l0 0 ZM998 1547 q65 2 105 42 q41 40 42 99 q-1 60 -42 100 q-40 40 -105 41 q-65 -1 -105 -41 q-41 -40 -42 -100 q1 -59 42 -99 q40 -40 105 -42 l0 0 ZM782 1468 q-331 -4 -520 -201 q-189 -197 -193 -546 q4 -348 192 -545 q189 -197 521 -201 q331 4 520 201 q188 197 192 545 q-4 349 -192 546 q-189 197 -520 201 l0 0 ZM782 1170 q156 -2 246 -121 q91 -119 93 -328 q-2 -208 -93 -327 q-90 -119 -246 -121 q-156 2 -247 121 q-90 119 -92 327 q2 209 93 328 q90 119 246 121 l0 0 Z" /><glyph glyph-name="" unicode="ø" d="M1055 1008 q32 -56 49 -128 q17 -73 17 -159 q-2 -208 -93 -327 q-90 -119 -246 -121 q-43 0 -82 10 q-38 10 -72 29 l427 696 ZM535 394 q-44 59 -68 141 q-24 83 -24 186 q2 209 93 328 q90 119 246 121 q55 0 102 -16 q48 -16 87 -46 l-436 -714 ZM1332 1459 l-113 56 l-78 -128 q-76 40 -166 60 q-90 21 -193 21 q-331 -4 -520 -201 q-189 -197 -193 -546 q1 -212 75 -371 q73 -159 210 -254 l-68 -111 l103 -62 l70 115 q71 -31 151 -47 q81 -16 172 -16 q331 4 520 201 q188 197 192 545 q-1 198 -65 349 q-64 152 -183 249 l86 140 Z" /><glyph glyph-name="" unicode="õ" d="M782 1468 q-331 -4 -520 -201 q-189 -197 -193 -546 q4 -348 192 -545 q189 -197 521 -201 q331 4 520 201 q188 197 192 545 q-4 349 -192 546 q-189 197 -520 201 l0 0 ZM782 1170 q156 -2 246 -121 q91 -119 93 -328 q-2 -208 -93 -327 q-90 -119 -246 -121 q-156 2 -247 121 q-90 119 -92 327 q2 209 93 328 q90 119 246 121 l0 0 ZM929 1543 q99 1 165 76 q66 76 69 211 l-181 0 q-1 -52 -17 -83 q-16 -30 -50 -31 q-49 8 -105 64 q-55 55 -160 63 q-99 -1 -165 -74 q-66 -73 -69 -209 l181 0 q1 48 18 78 q17 31 51 32 q50 -8 105 -63 q55 -56 158 -64 l0 0 Z" /><glyph glyph-name="" unicode="ó" d="M907 1554 l276 316 l-313 0 l-232 -316 l269 0 ZM782 1468 q-331 -4 -520 -201 q-189 -197 -193 -546 q4 -348 192 -545 q189 -197 521 -201 q331 4 520 201 q188 197 192 545 q-4 349 -192 546 q-189 197 -520 201 l0 0 ZM782 1170 q156 -2 246 -121 q91 -119 93 -328 q-2 -208 -93 -327 q-90 -119 -246 -121 q-156 2 -247 121 q-90 119 -92 327 q2 209 93 328 q90 119 246 121 l0 0 Z" /><glyph glyph-name="" unicode="ô" d="M645 1867 l-263 -328 l250 0 l147 194 l6 0 l147 -194 l250 0 l-263 328 l-274 0 ZM782 1468 q-331 -4 -520 -201 q-189 -197 -193 -546 q4 -348 192 -545 q189 -197 521 -201 q331 4 520 201 q188 197 192 545 q-4 349 -192 546 q-189 197 -520 201 l0 0 ZM782 1170 q156 -2 246 -121 q91 -119 93 -328 q-2 -208 -93 -327 q-90 -119 -246 -121 q-156 2 -247 121 q-90 119 -92 327 q2 209 93 328 q90 119 246 121 l0 0 Z" /><glyph glyph-name="" unicode="ò" d="M653 1561 l269 0 l-232 316 l-313 0 l276 -316 ZM782 1468 q-331 -4 -520 -201 q-189 -197 -193 -546 q4 -348 192 -545 q189 -197 521 -201 q331 4 520 201 q188 197 192 545 q-4 349 -192 546 q-189 197 -520 201 l0 0 ZM782 1170 q156 -2 246 -121 q91 -119 93 -328 q-2 -208 -93 -327 q-90 -119 -246 -121 q-156 2 -247 121 q-90 119 -92 327 q2 209 93 328 q90 119 246 121 l0 0 Z" /><glyph glyph-name="" unicode="&#x1ed4;" d="M646 1832 l-258 -287 l257 0 l133 158 l9 0 l133 -158 l257 0 l-258 287 l-273 0 ZM896 1999 q21 8 51 13 q29 5 54 5 q47 0 73 -20 q26 -20 26 -54 q1 -28 -16 -54 q-16 -26 -56 -42 l100 -118 q82 35 126 98 q44 64 44 137 q-1 98 -67 154 q-67 55 -184 56 q-44 0 -84 -7 q-41 -7 -67 -20 l0 -148 ZM782 1468 q-331 -4 -520 -201 q-189 -197 -193 -546 q4 -348 192 -545 q189 -197 521 -201 q331 4 520 201 q188 197 192 545 q-4 349 -192 546 q-189 197 -520 201 l0 0 ZM782 1170 q156 -2 246 -121 q91 -119 93 -328 q-2 -208 -93 -327 q-90 -119 -246 -121 q-156 2 -247 121 q-90 119 -92 327 q2 209 93 328 q90 119 246 121 l0 0 Z" /><glyph glyph-name="" unicode="&#x1ed2;" d="M645 1832 l-257 -287 l257 0 l132 158 l10 0 l132 -158 l257 0 l-257 287 l-274 0 ZM1143 1907 l-198 263 l-290 0 l237 -263 l251 0 ZM782 1468 q-331 -4 -520 -201 q-189 -197 -193 -546 q4 -348 192 -545 q189 -197 521 -201 q331 4 520 201 q188 197 192 545 q-4 349 -192 546 q-189 197 -520 201 l0 0 ZM782 1170 q156 -2 246 -121 q91 -119 93 -328 q-2 -208 -93 -327 q-90 -119 -246 -121 q-156 2 -247 121 q-90 119 -92 327 q2 209 93 328 q90 119 246 121 l0 0 Z" /><glyph glyph-name="" unicode="&#x1ecc;" d="M782 -492 q71 2 117 48 q45 46 47 115 q-2 69 -47 115 q-46 46 -117 48 q-71 -2 -116 -48 q-46 -46 -48 -115 q2 -69 48 -115 q45 -46 116 -48 l0 0 ZM782 1468 q-331 -4 -520 -201 q-189 -197 -193 -546 q4 -348 192 -545 q189 -197 521 -201 q331 4 520 201 q188 197 192 545 q-4 349 -192 546 q-189 197 -520 201 l0 0 ZM782 1170 q156 -2 246 -121 q91 -119 93 -328 q-2 -208 -93 -327 q-90 -119 -246 -121 q-156 2 -247 121 q-90 119 -92 327 q2 209 93 328 q90 119 246 121 l0 0 Z" /><glyph glyph-name="" unicode="&#x20c;" d="M874 1554 l266 0 l-231 316 l-311 0 l276 -316 ZM434 1554 l267 0 l-232 316 l-310 0 l275 -316 ZM782 1468 q-331 -4 -520 -201 q-189 -197 -193 -546 q4 -348 192 -545 q189 -197 521 -201 q331 4 520 201 q188 197 192 545 q-4 349 -192 546 q-189 197 -520 201 l0 0 ZM782 1170 q156 -2 246 -121 q91 -119 93 -328 q-2 -208 -93 -327 q-90 -119 -246 -121 q-156 2 -247 121 q-90 119 -92 327 q2 209 93 328 q90 119 246 121 l0 0 Z" /><glyph glyph-name="" unicode="&#x1e4c;" d="M782 1468 q-331 -4 -520 -201 q-189 -197 -193 -546 q4 -348 192 -545 q189 -197 521 -201 q331 4 520 201 q188 197 192 545 q-4 349 -192 546 q-189 197 -520 201 l0 0 ZM782 1170 q156 -2 246 -121 q91 -119 93 -328 q-2 -208 -93 -327 q-90 -119 -246 -121 q-156 2 -247 121 q-90 119 -92 327 q2 209 93 328 q90 119 246 121 l0 0 ZM923 1536 q99 1 164 76 q66 76 68 211 l-180 0 q-2 -52 -18 -83 q-16 -30 -50 -31 q-49 8 -106 64 q-56 56 -161 64 q-100 -1 -165 -73 q-65 -73 -67 -209 l180 0 q2 47 19 77 q16 31 50 32 q51 -8 107 -64 q56 -56 159 -64 l0 0 ZM647 1907 l251 0 l237 263 l-290 0 l-198 -263 Z" /><glyph glyph-name="" unicode="&#x1e52;" d="M1143 1614 l0 163 l-722 0 l0 -163 l722 0 ZM647 1907 l250 0 l238 263 l-290 0 l-198 -263 ZM782 1468 q-331 -4 -520 -201 q-189 -197 -193 -546 q4 -348 192 -545 q189 -197 521 -201 q331 4 520 201 q188 197 192 545 q-4 349 -192 546 q-189 197 -520 201 l0 0 ZM782 1170 q156 -2 246 -121 q91 -119 93 -328 q-2 -208 -93 -327 q-90 -119 -246 -121 q-156 2 -247 121 q-90 119 -92 327 q2 209 93 328 q90 119 246 121 l0 0 Z" /><glyph glyph-name="" unicode="&#x1ed6;" d="M922 1894 q99 1 165 74 q66 74 68 206 l-179 0 q-2 -51 -19 -80 q-17 -28 -51 -29 q-49 8 -102 62 q-54 54 -160 62 q-100 -1 -165 -72 q-66 -71 -68 -204 l179 0 q3 47 19 75 q17 29 52 30 q51 -8 104 -62 q53 -54 157 -62 l0 0 ZM645 1827 l-257 -282 l257 0 l132 154 l10 0 l132 -154 l257 0 l-257 282 l-274 0 ZM782 1468 q-331 -4 -520 -201 q-189 -197 -193 -546 q4 -348 192 -545 q189 -197 521 -201 q331 4 520 201 q188 197 192 545 q-4 349 -192 546 q-189 197 -520 201 l0 0 ZM782 1170 q156 -2 246 -121 q91 -119 93 -328 q-2 -208 -93 -327 q-90 -119 -246 -121 q-156 2 -247 121 q-90 119 -92 327 q2 209 93 328 q90 119 246 121 l0 0 Z" /><glyph glyph-name="" unicode="&#x230;" d="M782 1545 q66 2 106 42 q41 40 42 100 q-1 60 -42 100 q-40 40 -106 42 q-66 -2 -106 -42 q-41 -40 -42 -100 q1 -60 42 -100 q40 -40 106 -42 l0 0 ZM1143 2098 l-722 0 l0 -163 l722 0 l0 163 ZM782 1468 q-331 -4 -520 -201 q-189 -197 -193 -546 q4 -348 192 -545 q189 -197 521 -201 q331 4 520 201 q188 197 192 545 q-4 349 -192 546 q-189 197 -520 201 l0 0 ZM782 1170 q156 -2 246 -121 q91 -119 93 -328 q-2 -208 -93 -327 q-90 -119 -246 -121 q-156 2 -247 121 q-90 119 -92 327 q2 209 93 328 q90 119 246 121 l0 0 Z" /><glyph glyph-name="" unicode="&#x1e50;" d="M421 1614 l722 0 l0 163 l-722 0 l0 -163 ZM917 1907 l-198 263 l-290 0 l238 -263 l250 0 ZM782 1468 q-331 -4 -520 -201 q-189 -197 -193 -546 q4 -348 192 -545 q189 -197 521 -201 q331 4 520 201 q188 197 192 545 q-4 349 -192 546 q-189 197 -520 201 l0 0 ZM782 1170 q156 -2 246 -121 q91 -119 93 -328 q-2 -208 -93 -327 q-90 -119 -246 -121 q-156 2 -247 121 q-90 119 -92 327 q2 209 93 328 q90 119 246 121 l0 0 Z" /><glyph glyph-name="" unicode="&#x1d1;" d="M645 1539 l274 0 l263 328 l-250 0 l-147 -195 l-6 0 l-147 195 l-250 0 l263 -328 ZM782 1468 q-331 -4 -520 -201 q-189 -197 -193 -546 q4 -348 192 -545 q189 -197 521 -201 q331 4 520 201 q188 197 192 545 q-4 349 -192 546 q-189 197 -520 201 l0 0 ZM782 1170 q156 -2 246 -121 q91 -119 93 -328 q-2 -208 -93 -327 q-90 -119 -246 -121 q-156 2 -247 121 q-90 119 -92 327 q2 209 93 328 q90 119 246 121 l0 0 Z" /><glyph glyph-name="" unicode="&#x1fe;" d="M1208 1870 l-313 0 l-232 -316 l269 0 l276 316 ZM1055 1008 q32 -56 49 -128 q17 -73 17 -159 q-2 -208 -93 -327 q-90 -119 -246 -121 q-43 0 -82 10 q-38 10 -72 29 l427 696 ZM535 394 q-44 59 -68 141 q-24 83 -24 186 q2 209 93 328 q90 119 246 121 q55 0 102 -16 q48 -16 87 -46 l-436 -714 ZM1332 1459 l-113 56 l-78 -128 q-76 40 -166 60 q-90 21 -193 21 q-331 -4 -520 -201 q-189 -197 -193 -546 q1 -212 75 -371 q73 -159 210 -254 l-68 -111 l103 -62 l70 115 q71 -31 151 -47 q81 -16 172 -16 q331 4 520 201 q188 197 192 545 q-1 198 -65 349 q-64 152 -183 249 l86 140 Z" /><glyph glyph-name="" unicode="&#x150;" d="M1130 1554 l275 316 l-310 0 l-232 -316 l267 0 ZM690 1554 l276 316 l-311 0 l-231 -316 l266 0 ZM782 1468 q-331 -4 -520 -201 q-189 -197 -193 -546 q4 -348 192 -545 q189 -197 521 -201 q331 4 520 201 q188 197 192 545 q-4 349 -192 546 q-189 197 -520 201 l0 0 ZM782 1170 q156 -2 246 -121 q91 -119 93 -328 q-2 -208 -93 -327 q-90 -119 -246 -121 q-156 2 -247 121 q-90 119 -92 327 q2 209 93 328 q90 119 246 121 l0 0 Z" /><glyph glyph-name="" unicode="&#x14e;" d="M782 1468 q-331 -4 -520 -201 q-189 -197 -193 -546 q4 -348 192 -545 q189 -197 521 -201 q331 4 520 201 q188 197 192 545 q-4 349 -192 546 q-189 197 -520 201 l0 0 ZM782 1170 q156 -2 246 -121 q91 -119 93 -328 q-2 -208 -93 -327 q-90 -119 -246 -121 q-156 2 -247 121 q-90 119 -92 327 q2 209 93 328 q90 119 246 121 l0 0 ZM407 1865 q5 -138 101 -230 q96 -92 274 -96 q178 4 274 96 q96 92 101 230 l-208 0 q-3 -70 -47 -114 q-43 -44 -120 -45 q-77 1 -120 45 q-43 44 -47 114 l-208 0 Z" /><glyph glyph-name="" unicode="&#x20e;" d="M407 1539 l208 0 q4 70 47 115 q43 44 120 45 q77 -1 120 -45 q44 -45 47 -115 l208 0 q-5 138 -101 230 q-96 92 -274 96 q-178 -4 -274 -96 q-96 -92 -101 -230 l0 0 ZM782 1468 q-331 -4 -520 -201 q-189 -197 -193 -546 q4 -348 192 -545 q189 -197 521 -201 q331 4 520 201 q188 197 192 545 q-4 349 -192 546 q-189 197 -520 201 l0 0 ZM782 1170 q156 -2 246 -121 q91 -119 93 -328 q-2 -208 -93 -327 q-90 -119 -246 -121 q-156 2 -247 121 q-90 119 -92 327 q2 209 93 328 q90 119 246 121 l0 0 Z" /><glyph glyph-name="" unicode="&#x1ece;" d="M585 1799 q22 8 53 13 q30 5 55 5 q48 0 74 -20 q27 -20 27 -55 q-1 -34 -27 -64 q-27 -30 -72 -47 l99 -120 q90 39 146 105 q55 67 57 146 q-1 101 -70 157 q-68 57 -188 58 q-45 0 -86 -7 q-41 -7 -68 -21 l0 -150 ZM782 1468 q-331 -4 -520 -201 q-189 -197 -193 -546 q4 -348 192 -545 q189 -197 521 -201 q331 4 520 201 q188 197 192 545 q-4 349 -192 546 q-189 197 -520 201 l0 0 ZM782 1170 q156 -2 246 -121 q91 -119 93 -328 q-2 -208 -93 -327 q-90 -119 -246 -121 q-156 2 -247 121 q-90 119 -92 327 q2 209 93 328 q90 119 246 121 l0 0 Z" /><glyph glyph-name="" unicode="&#x22a;" d="M782 1468 q-331 -4 -520 -201 q-189 -197 -193 -546 q4 -348 192 -545 q189 -197 521 -201 q331 4 520 201 q188 197 192 545 q-4 349 -192 546 q-189 197 -520 201 l0 0 ZM782 1170 q156 -2 246 -121 q91 -119 93 -328 q-2 -208 -93 -327 q-90 -119 -246 -121 q-156 2 -247 121 q-90 119 -92 327 q2 209 93 328 q90 119 246 121 l0 0 ZM568 1825 q-63 -1 -103 -40 q-40 -39 -41 -98 q1 -58 41 -97 q40 -39 103 -41 q63 2 103 41 q40 39 41 97 q-1 59 -41 98 q-40 39 -103 40 l0 0 ZM421 2098 l0 -163 l722 0 l0 163 l-722 0 ZM996 1825 q-63 -1 -103 -40 q-40 -39 -41 -98 q1 -58 41 -97 q40 -39 103 -41 q63 2 103 41 q40 39 41 97 q-1 59 -41 98 q-40 39 -103 40 l0 0 Z" /><glyph glyph-name="" unicode="&#x22c;" d="M923 1536 q99 1 164 76 q66 76 68 211 l-181 0 q-1 -52 -17 -83 q-16 -30 -50 -31 q-49 8 -106 64 q-56 56 -161 64 q-100 -1 -165 -73 q-65 -73 -67 -209 l180 0 q1 47 18 77 q17 31 51 32 q50 -8 106 -64 q57 -56 160 -64 l0 0 ZM1143 2098 l-722 0 l0 -163 l722 0 l0 163 ZM782 1468 q-331 -4 -520 -201 q-189 -197 -193 -546 q4 -348 192 -545 q189 -197 521 -201 q331 4 520 201 q188 197 192 545 q-4 349 -192 546 q-189 197 -520 201 l0 0 ZM782 1170 q156 -2 246 -121 q91 -119 93 -328 q-2 -208 -93 -327 q-90 -119 -246 -121 q-156 2 -247 121 q-90 119 -92 327 q2 209 93 328 q90 119 246 121 l0 0 Z" /><glyph glyph-name="" unicode="&#x22e;" d="M782 1548 q71 2 117 48 q45 46 47 115 q-2 69 -47 115 q-46 46 -117 48 q-71 -2 -116 -48 q-46 -46 -48 -115 q2 -69 48 -115 q45 -46 116 -48 l0 0 ZM782 1468 q-331 -4 -520 -201 q-189 -197 -193 -546 q4 -348 192 -545 q189 -197 521 -201 q331 4 520 201 q188 197 192 545 q-4 349 -192 546 q-189 197 -520 201 l0 0 ZM782 1170 q156 -2 246 -121 q91 -119 93 -328 q-2 -208 -93 -327 q-90 -119 -246 -121 q-156 2 -247 121 q-90 119 -92 327 q2 209 93 328 q90 119 246 121 l0 0 Z" /><glyph glyph-name="" unicode="&#x1ed8;" d="M782 -492 q71 2 117 48 q45 46 47 115 q-2 69 -47 115 q-46 46 -117 48 q-71 -2 -116 -48 q-46 -46 -48 -115 q2 -69 48 -115 q45 -46 116 -48 l0 0 ZM645 1867 l-263 -328 l250 0 l147 194 l6 0 l147 -194 l250 0 l-263 328 l-274 0 ZM782 1468 q-331 -4 -520 -201 q-189 -197 -193 -546 q4 -348 192 -545 q189 -197 521 -201 q331 4 520 201 q188 197 192 545 q-4 349 -192 546 q-189 197 -520 201 l0 0 ZM782 1170 q156 -2 246 -121 q91 -119 93 -328 q-2 -208 -93 -327 q-90 -119 -246 -121 q-156 2 -247 121 q-90 119 -92 327 q2 209 93 328 q90 119 246 121 l0 0 Z" /><glyph glyph-name="" unicode="&#x1ed0;" d="M646 1832 l-258 -287 l257 0 l133 158 l10 0 l132 -158 l257 0 l-257 287 l-274 0 ZM846 1907 l251 0 l237 263 l-290 0 l-198 -263 ZM782 1468 q-331 -4 -520 -201 q-189 -197 -193 -546 q4 -348 192 -545 q189 -197 521 -201 q331 4 520 201 q188 197 192 545 q-4 349 -192 546 q-189 197 -520 201 l0 0 ZM782 1170 q156 -2 246 -121 q91 -119 93 -328 q-2 -208 -93 -327 q-90 -119 -246 -121 q-156 2 -247 121 q-90 119 -92 327 q2 209 93 328 q90 119 246 121 l0 0 Z" /><glyph glyph-name="" unicode="&#x1e4e;" d="M924 1536 q99 1 164 75 q66 74 68 204 l-181 0 q-1 -47 -17 -76 q-16 -29 -50 -30 q-49 8 -106 64 q-56 56 -161 64 q-101 -1 -166 -73 q-65 -73 -67 -209 l181 0 q1 47 18 77 q17 31 51 32 q50 -8 106 -64 q57 -56 160 -64 l0 0 ZM568 2196 q-63 -1 -103 -40 q-40 -39 -41 -98 q1 -58 41 -97 q40 -39 103 -41 q63 2 103 41 q40 39 41 97 q-1 59 -41 98 q-40 39 -103 40 l0 0 ZM996 2196 q-63 -1 -103 -40 q-40 -39 -41 -98 q1 -58 41 -97 q40 -39 103 -41 q63 2 103 41 q40 39 41 97 q-1 59 -41 98 q-40 39 -103 40 l0 0 ZM782 1468 q-331 -4 -520 -201 q-189 -197 -193 -546 q4 -348 192 -545 q189 -197 521 -201 q331 4 520 201 q188 197 192 545 q-4 349 -192 546 q-189 197 -520 201 l0 0 ZM782 1170 q156 -2 246 -121 q91 -119 93 -328 q-2 -208 -93 -327 q-90 -119 -246 -121 q-156 2 -247 121 q-90 119 -92 327 q2 209 93 328 q90 119 246 121 l0 0 Z" /><glyph glyph-name="" unicode="&#x14c;" d="M782 1468 q-331 -4 -520 -201 q-189 -197 -193 -546 q4 -348 192 -545 q189 -197 521 -201 q331 4 520 201 q188 197 192 545 q-4 349 -192 546 q-189 197 -520 201 l0 0 ZM782 1170 q156 -2 246 -121 q91 -119 93 -328 q-2 -208 -93 -327 q-90 -119 -246 -121 q-156 2 -247 121 q-90 119 -92 327 q2 209 93 328 q90 119 246 121 l0 0 ZM1143 1777 l-722 0 l0 -163 l722 0 l0 163 Z" /><glyph glyph-name="" unicode="&#x1ea;" d="M1035 -479 q50 0 89 6 q39 6 67 17 l0 179 q-8 -3 -28 -5 q-20 -3 -43 -3 q-57 0 -89 28 q-32 27 -32 75 q-1 54 50 117 q50 63 161 148 q140 110 212 271 q72 161 72 367 q-3 349 -192 546 q-188 197 -520 201 q-332 -4 -521 -201 q-188 -197 -192 -546 q3 -348 192 -545 q188 -197 521 -201 q30 0 64 3 q34 3 53 7 l0 -7 q-67 -36 -110 -100 q-44 -65 -45 -134 q2 -100 81 -161 q79 -60 210 -62 l0 0 ZM782 1170 q156 -2 247 -122 q90 -120 92 -327 q-2 -207 -92 -326 q-91 -120 -247 -122 q-157 2 -247 122 q-90 119 -92 326 q2 207 92 327 q90 120 247 122 l0 0 Z" /><glyph glyph-name="" unicode="&#x1ec;" d="M1035 -479 q50 0 89 6 q39 6 67 17 l0 179 q-8 -3 -28 -5 q-20 -3 -43 -3 q-57 0 -89 28 q-32 27 -32 75 q-1 54 50 117 q50 63 161 148 q140 110 212 271 q72 161 72 367 q-3 349 -192 546 q-188 197 -520 201 q-332 -4 -521 -201 q-188 -197 -192 -546 q3 -348 192 -545 q188 -197 521 -201 q30 0 64 3 q34 3 53 7 l0 -7 q-67 -36 -110 -100 q-44 -65 -45 -134 q2 -100 81 -161 q79 -60 210 -62 l0 0 ZM782 1170 q156 -2 247 -122 q90 -120 92 -327 q-2 -207 -92 -326 q-91 -120 -247 -122 q-157 2 -247 122 q-90 119 -92 326 q2 207 92 327 q90 120 247 122 l0 0 ZM1143 1777 l-722 0 l0 -163 l722 0 l0 163 Z" /><glyph glyph-name="" unicode="&#x1a0;" d="M782 -25 q333 4 521 201 q188 197 191 545 q-2 141 -51 273 q-49 132 -126 198 l0 7 l62 0 q106 0 163 58 q56 57 57 166 l0 252 l-269 0 l0 -175 q0 -44 -27 -66 q-28 -22 -81 -22 q-119 4 -212 28 q-94 25 -228 28 q-332 -4 -521 -201 q-188 -197 -192 -546 q3 -348 192 -545 q188 -197 521 -201 l0 0 ZM782 273 q-157 2 -247 122 q-90 119 -92 326 q2 207 92 327 q90 120 247 122 q156 -2 247 -122 q90 -119 92 -327 q-2 -207 -92 -326 q-91 -120 -247 -122 l0 0 Z" /><glyph glyph-name="" unicode="&#x1ee2;" d="M782 -492 q71 2 117 48 q45 46 47 115 q-2 69 -47 115 q-46 46 -117 48 q-71 -2 -116 -48 q-46 -46 -48 -115 q2 -69 48 -115 q45 -46 116 -48 l0 0 ZM782 -25 q333 4 521 201 q188 197 191 545 q-2 141 -51 273 q-49 132 -126 198 l0 7 l62 0 q106 0 163 58 q56 57 57 166 l0 252 l-269 0 l0 -175 q0 -44 -27 -66 q-28 -22 -81 -22 q-119 4 -212 28 q-94 25 -228 28 q-332 -4 -521 -201 q-188 -197 -192 -546 q3 -348 192 -545 q188 -197 521 -201 l0 0 ZM782 273 q-157 2 -247 122 q-90 119 -92 326 q2 207 92 327 q90 120 247 122 q156 -2 247 -122 q90 -119 92 -327 q-2 -207 -92 -326 q-91 -120 -247 -122 l0 0 Z" /><glyph glyph-name="" unicode="&#x1ede;" d="M585 1799 q22 8 53 13 q30 5 55 5 q48 0 74 -20 q27 -20 27 -55 q-1 -34 -27 -64 q-27 -30 -72 -47 l99 -120 q90 39 146 105 q55 67 57 146 q-1 101 -70 157 q-68 57 -188 58 q-45 0 -86 -7 q-41 -7 -68 -21 l0 -150 ZM782 -25 q333 4 521 201 q188 197 191 545 q-2 141 -51 273 q-49 132 -126 198 l0 7 l62 0 q106 0 163 58 q56 57 57 166 l0 252 l-269 0 l0 -175 q0 -44 -27 -66 q-28 -22 -81 -22 q-119 4 -212 28 q-94 25 -228 28 q-332 -4 -521 -201 q-188 -197 -192 -546 q3 -348 192 -545 q188 -197 521 -201 l0 0 ZM782 273 q-157 2 -247 122 q-90 119 -92 326 q2 207 92 327 q90 120 247 122 q156 -2 247 -122 q90 -119 92 -327 q-2 -207 -92 -326 q-91 -120 -247 -122 l0 0 Z" /><glyph glyph-name="" unicode="&#x1ee0;" d="M782 -25 q333 4 521 201 q188 197 191 545 q-2 141 -51 273 q-49 132 -126 198 l0 7 l62 0 q106 0 163 58 q56 57 57 166 l0 252 l-269 0 l0 -175 q0 -44 -27 -66 q-28 -22 -81 -22 q-119 4 -212 28 q-94 25 -228 28 q-332 -4 -521 -201 q-188 -197 -192 -546 q3 -348 192 -545 q188 -197 521 -201 l0 0 ZM782 273 q-157 2 -247 122 q-90 119 -92 326 q2 207 92 327 q90 120 247 122 q156 -2 247 -122 q90 -119 92 -327 q-2 -207 -92 -326 q-91 -120 -247 -122 l0 0 ZM929 1543 q99 1 165 76 q66 76 69 211 l-181 0 q-1 -52 -17 -83 q-16 -30 -50 -31 q-49 8 -105 64 q-55 55 -160 63 q-99 -1 -165 -74 q-66 -73 -69 -209 l181 0 q1 48 18 78 q17 31 51 32 q50 -8 105 -63 q55 -56 158 -64 l0 0 Z" /><glyph glyph-name="" unicode="&#x1edc;" d="M653 1561 l269 0 l-232 316 l-313 0 l276 -316 ZM782 -25 q333 4 521 201 q188 197 191 545 q-2 141 -51 273 q-49 132 -126 198 l0 7 l62 0 q106 0 163 58 q56 57 57 166 l0 252 l-269 0 l0 -175 q0 -44 -27 -66 q-28 -22 -81 -22 q-119 4 -212 28 q-94 25 -228 28 q-332 -4 -521 -201 q-188 -197 -192 -546 q3 -348 192 -545 q188 -197 521 -201 l0 0 ZM782 273 q-157 2 -247 122 q-90 119 -92 326 q2 207 92 327 q90 120 247 122 q156 -2 247 -122 q90 -119 92 -327 q-2 -207 -92 -326 q-91 -120 -247 -122 l0 0 Z" /><glyph glyph-name="" unicode="&#x1eda;" d="M907 1554 l276 316 l-313 0 l-232 -316 l269 0 ZM782 -25 q333 4 521 201 q188 197 191 545 q-2 141 -51 273 q-49 132 -126 198 l0 7 l62 0 q106 0 163 58 q56 57 57 166 l0 252 l-269 0 l0 -175 q0 -44 -27 -66 q-28 -22 -81 -22 q-119 4 -212 28 q-94 25 -228 28 q-332 -4 -521 -201 q-188 -197 -192 -546 q3 -348 192 -545 q188 -197 521 -201 l0 0 ZM782 273 q-157 2 -247 122 q-90 119 -92 326 q2 207 92 327 q90 120 247 122 q156 -2 247 -122 q90 -119 92 -327 q-2 -207 -92 -326 q-91 -120 -247 -122 l0 0 Z" /><glyph glyph-name="" unicode="p" d="M109 1443 l0 -1443 l367 0 l0 423 l243 0 q245 3 391 139 q147 136 151 370 q-3 235 -144 372 q-140 136 -375 139 l-633 0 ZM476 1162 l168 0 q116 0 181 -59 q64 -59 65 -172 q-1 -114 -65 -173 q-65 -59 -183 -59 l-166 0 l0 463 Z" /><glyph glyph-name="" unicode="&#x1e56;" d="M109 1443 l0 -1443 l367 0 l0 423 l243 0 q245 3 391 139 q147 136 151 370 q-3 235 -144 372 q-140 136 -375 139 l-633 0 ZM476 1162 l168 0 q116 0 181 -59 q64 -59 65 -172 q-1 -114 -65 -173 q-65 -59 -183 -59 l-166 0 l0 463 ZM633 1548 q71 2 117 48 q45 46 47 115 q-2 69 -47 115 q-46 46 -117 48 q-71 -2 -116 -48 q-46 -46 -48 -115 q2 -69 48 -115 q45 -46 116 -48 l0 0 Z" /><glyph glyph-name="" unicode="&#x1e54;" d="M758 1554 l276 316 l-313 0 l-232 -316 l269 0 ZM109 1443 l0 -1443 l367 0 l0 423 l243 0 q245 3 391 139 q147 136 151 370 q-3 235 -144 372 q-140 136 -375 139 l-633 0 ZM476 1162 l168 0 q116 0 181 -59 q64 -59 65 -172 q-1 -114 -65 -173 q-65 -59 -183 -59 l-166 0 l0 463 Z" /><glyph glyph-name="" unicode="q" d="M1459 -121 l-179 281 q105 92 159 236 q54 143 54 325 q-4 348 -192 546 q-188 197 -519 201 q-331 -4 -520 -201 q-189 -198 -193 -546 q4 -352 192 -548 q189 -195 521 -198 q134 0 249 37 l87 -133 l341 0 ZM782 268 q-156 3 -247 123 q-90 121 -92 330 q2 209 92 330 q91 121 247 124 q156 -3 246 -124 q90 -122 92 -330 q0 -76 -17 -141 q-16 -65 -48 -116 l-32 43 l-311 0 l146 -229 q-17 -5 -36 -8 q-20 -2 -40 -2 l0 0 Z" /><glyph glyph-name="" unicode="r" d="M476 1166 l216 0 q99 -1 157 -57 q58 -55 59 -149 q-1 -95 -57 -149 q-56 -54 -158 -55 l-217 0 l0 410 ZM476 505 l190 0 l0 0 l247 -505 l412 0 l-288 559 q119 54 182 164 q63 109 64 244 q-1 225 -142 350 q-141 124 -412 126 l-620 0 l0 -1443 l367 0 l0 505 Z" /><glyph glyph-name="" unicode="&#x158;" d="M476 1166 l216 0 q99 -1 157 -57 q58 -55 59 -149 q-1 -95 -57 -149 q-56 -54 -158 -55 l-217 0 l0 410 ZM476 505 l190 0 l0 0 l247 -505 l412 0 l-288 559 q119 54 182 164 q63 109 64 244 q-1 225 -142 350 q-141 124 -412 126 l-620 0 l0 -1443 l367 0 l0 505 ZM522 1539 l274 0 l263 328 l-250 0 l-147 -195 l-6 0 l-147 195 l-250 0 l263 -328 Z" /><glyph glyph-name="" unicode="&#x1e5e;" d="M476 1166 l216 0 q99 -1 157 -57 q58 -55 59 -149 q-1 -95 -57 -149 q-56 -54 -158 -55 l-217 0 l0 410 ZM476 505 l190 0 l0 0 l247 -505 l412 0 l-288 559 q119 54 182 164 q63 109 64 244 q-1 225 -142 350 q-141 124 -412 126 l-620 0 l0 -1443 l367 0 l0 505 ZM1020 -235 l-722 0 l0 -163 l722 0 l0 163 Z" /><glyph glyph-name="" unicode="&#x1e5c;" d="M659 -492 q71 2 117 48 q45 46 47 115 q-2 69 -47 115 q-46 46 -117 48 q-71 -2 -116 -48 q-46 -46 -48 -115 q2 -69 48 -115 q45 -46 116 -48 l0 0 ZM476 1166 l216 0 q99 -1 157 -57 q58 -55 59 -149 q-1 -95 -57 -149 q-56 -54 -158 -55 l-217 0 l0 410 ZM476 505 l190 0 l0 0 l247 -505 l412 0 l-288 559 q119 54 182 164 q63 109 64 244 q-1 225 -142 350 q-141 124 -412 126 l-620 0 l0 -1443 l367 0 l0 505 ZM1020 1777 l-722 0 l0 -163 l722 0 l0 163 Z" /><glyph glyph-name="" unicode="&#x210;" d="M751 1554 l266 0 l-231 316 l-311 0 l276 -316 ZM311 1554 l267 0 l-232 316 l-310 0 l275 -316 ZM476 1166 l216 0 q99 -1 157 -57 q58 -55 59 -149 q-1 -95 -57 -149 q-56 -54 -158 -55 l-217 0 l0 410 ZM476 505 l190 0 l0 0 l247 -505 l412 0 l-288 559 q119 54 182 164 q63 109 64 244 q-1 225 -142 350 q-141 124 -412 126 l-620 0 l0 -1443 l367 0 l0 505 Z" /><glyph glyph-name="" unicode="&#x212;" d="M476 1166 l216 0 q99 -1 157 -57 q58 -55 59 -149 q-1 -95 -57 -149 q-56 -54 -158 -55 l-217 0 l0 410 ZM476 505 l190 0 l0 0 l247 -505 l412 0 l-288 559 q119 54 182 164 q63 109 64 244 q-1 225 -142 350 q-141 124 -412 126 l-620 0 l0 -1443 l367 0 l0 505 ZM284 1539 l208 0 q4 70 47 115 q43 44 120 45 q77 -1 120 -45 q44 -45 47 -115 l208 0 q-5 138 -101 230 q-96 92 -274 96 q-178 -4 -274 -96 q-96 -92 -101 -230 l0 0 Z" /><glyph glyph-name="" unicode="&#x154;" d="M784 1554 l276 316 l-313 0 l-232 -316 l269 0 ZM476 1166 l216 0 q99 -1 157 -57 q58 -55 59 -149 q-1 -95 -57 -149 q-56 -54 -158 -55 l-217 0 l0 410 ZM476 505 l190 0 l0 0 l247 -505 l412 0 l-288 559 q119 54 182 164 q63 109 64 244 q-1 225 -142 350 q-141 124 -412 126 l-620 0 l0 -1443 l367 0 l0 505 Z" /><glyph glyph-name="" unicode="&#x1e5a;" d="M659 -492 q71 2 117 48 q45 46 47 115 q-2 69 -47 115 q-46 46 -117 48 q-71 -2 -116 -48 q-46 -46 -48 -115 q2 -69 48 -115 q45 -46 116 -48 l0 0 ZM476 1166 l216 0 q99 -1 157 -57 q58 -55 59 -149 q-1 -95 -57 -149 q-56 -54 -158 -55 l-217 0 l0 410 ZM476 505 l190 0 l0 0 l247 -505 l412 0 l-288 559 q119 54 182 164 q63 109 64 244 q-1 225 -142 350 q-141 124 -412 126 l-620 0 l0 -1443 l367 0 l0 505 Z" /><glyph glyph-name="" unicode="&#x1e58;" d="M659 1548 q71 2 117 48 q45 46 47 115 q-2 69 -47 115 q-46 46 -117 48 q-71 -2 -116 -48 q-46 -46 -48 -115 q2 -69 48 -115 q45 -46 116 -48 l0 0 ZM476 1166 l216 0 q99 -1 157 -57 q58 -55 59 -149 q-1 -95 -57 -149 q-56 -54 -158 -55 l-217 0 l0 410 ZM476 505 l190 0 l0 0 l247 -505 l412 0 l-288 559 q119 54 182 164 q63 109 64 244 q-1 225 -142 350 q-141 124 -412 126 l-620 0 l0 -1443 l367 0 l0 505 Z" /><glyph glyph-name="" unicode="&#x156;" d="M476 1166 l216 0 q99 -1 157 -57 q58 -55 59 -149 q-1 -95 -57 -149 q-56 -54 -158 -55 l-217 0 l0 410 ZM476 505 l190 0 l0 0 l247 -505 l412 0 l-288 559 q119 54 182 164 q63 109 64 244 q-1 225 -142 350 q-141 124 -412 126 l-620 0 l0 -1443 l367 0 l0 505 ZM633 -477 l183 333 l-310 0 l-138 -333 l265 0 Z" /><glyph glyph-name="" unicode="s" d="M63 418 q6 -211 163 -326 q157 -116 436 -117 q282 2 444 127 q162 125 165 343 q1 170 -100 271 q-100 101 -313 141 l-187 35 q-113 23 -164 58 q-52 36 -51 94 q1 67 59 106 q57 39 154 40 q101 -1 165 -45 q64 -44 71 -123 l338 0 q-5 206 -155 325 q-150 119 -423 121 q-255 -2 -412 -125 q-157 -122 -162 -335 q0 -165 102 -270 q101 -105 301 -144 l189 -37 q122 -24 174 -59 q52 -35 51 -94 q-1 -67 -64 -108 q-63 -42 -172 -43 q-104 1 -176 45 q-72 45 -84 120 l-349 0 Z" /><glyph glyph-name="" unicode="&#x160;" d="M63 418 q6 -211 163 -326 q157 -116 436 -117 q282 2 444 127 q162 125 165 343 q1 170 -100 271 q-100 101 -313 141 l-187 35 q-113 23 -164 58 q-52 36 -51 94 q1 67 59 106 q57 39 154 40 q101 -1 165 -45 q64 -44 71 -123 l338 0 q-5 206 -155 325 q-150 119 -423 121 q-255 -2 -412 -125 q-157 -122 -162 -335 q0 -165 102 -270 q101 -105 301 -144 l189 -37 q122 -24 174 -59 q52 -35 51 -94 q-1 -67 -64 -108 q-63 -42 -172 -43 q-104 1 -176 45 q-72 45 -84 120 l-349 0 ZM533 1539 l274 0 l263 328 l-250 0 l-147 -195 l-6 0 l-147 195 l-250 0 l263 -328 Z" /><glyph glyph-name="" unicode="&#x15e;" d="M671 892 q-113 23 -164 58 q-52 36 -51 94 q1 67 59 106 q57 39 154 40 q101 -1 165 -45 q64 -44 71 -123 l338 0 q-5 206 -155 325 q-150 119 -423 121 q-255 -2 -412 -125 q-157 -122 -162 -335 q0 -165 102 -270 q101 -105 301 -144 l189 -37 q122 -24 174 -59 q52 -35 51 -94 q-1 -67 -64 -108 q-63 -42 -172 -43 q-104 1 -176 45 q-72 45 -84 120 l-349 0 q5 -197 143 -310 q137 -114 383 -131 l-45 -89 l0 -114 l56 0 q61 0 87 -11 q26 -12 25 -40 q0 -23 -24 -34 q-24 -11 -76 -11 q-29 0 -58 3 q-28 3 -47 9 l0 -131 q24 -7 59 -11 q36 -4 78 -4 q123 0 187 49 q65 49 65 142 q-1 76 -47 119 q-46 43 -126 44 l38 82 q239 24 373 146 q135 121 137 319 q1 170 -100 271 q-100 101 -313 141 l-187 35 Z" /><glyph glyph-name="" unicode="&#x1e60;" d="M670 1548 q71 2 117 48 q45 46 47 115 q-2 69 -47 115 q-46 46 -117 48 q-71 -2 -116 -48 q-46 -46 -48 -115 q2 -69 48 -115 q45 -46 116 -48 l0 0 ZM63 418 q6 -211 163 -326 q157 -116 436 -117 q282 2 444 127 q162 125 165 343 q1 170 -100 271 q-100 101 -313 141 l-187 35 q-113 23 -164 58 q-52 36 -51 94 q1 67 59 106 q57 39 154 40 q101 -1 165 -45 q64 -44 71 -123 l338 0 q-5 206 -155 325 q-150 119 -423 121 q-255 -2 -412 -125 q-157 -122 -162 -335 q0 -165 102 -270 q101 -105 301 -144 l189 -37 q122 -24 174 -59 q52 -35 51 -94 q-1 -67 -64 -108 q-63 -42 -172 -43 q-104 1 -176 45 q-72 45 -84 120 l-349 0 Z" /><glyph glyph-name="" unicode="&#x1e62;" d="M666 -492 q71 2 117 48 q45 46 47 115 q-2 69 -47 115 q-46 46 -117 48 q-71 -2 -116 -48 q-46 -46 -48 -115 q2 -69 48 -115 q45 -46 116 -48 l0 0 ZM63 418 q6 -211 163 -326 q157 -116 436 -117 q282 2 444 127 q162 125 165 343 q1 170 -100 271 q-100 101 -313 141 l-187 35 q-113 23 -164 58 q-52 36 -51 94 q1 67 59 106 q57 39 154 40 q101 -1 165 -45 q64 -44 71 -123 l338 0 q-5 206 -155 325 q-150 119 -423 121 q-255 -2 -412 -125 q-157 -122 -162 -335 q0 -165 102 -270 q101 -105 301 -144 l189 -37 q122 -24 174 -59 q52 -35 51 -94 q-1 -67 -64 -108 q-63 -42 -172 -43 q-104 1 -176 45 q-72 45 -84 120 l-349 0 Z" /><glyph glyph-name="" unicode="&#x218;" d="M63 418 q6 -211 163 -326 q157 -116 436 -117 q282 2 444 127 q162 125 165 343 q1 170 -100 271 q-100 101 -313 141 l-187 35 q-113 23 -164 58 q-52 36 -51 94 q1 67 59 106 q57 39 154 40 q101 -1 165 -45 q64 -44 71 -123 l338 0 q-5 206 -155 325 q-150 119 -423 121 q-255 -2 -412 -125 q-157 -122 -162 -335 q0 -165 102 -270 q101 -105 301 -144 l189 -37 q122 -24 174 -59 q52 -35 51 -94 q-1 -67 -64 -108 q-63 -42 -172 -43 q-104 1 -176 45 q-72 45 -84 120 l-349 0 ZM640 -477 l183 333 l-310 0 l-138 -333 l265 0 Z" /><glyph glyph-name="" unicode="&#x1e68;" d="M666 -492 q71 2 117 48 q45 46 47 115 q-2 69 -47 115 q-46 46 -117 48 q-71 -2 -116 -48 q-46 -46 -48 -115 q2 -69 48 -115 q45 -46 116 -48 l0 0 ZM63 418 q6 -211 163 -326 q157 -116 436 -117 q282 2 444 127 q162 125 165 343 q1 170 -100 271 q-100 101 -313 141 l-187 35 q-113 23 -164 58 q-52 36 -51 94 q1 67 59 106 q57 39 154 40 q101 -1 165 -45 q64 -44 71 -123 l338 0 q-5 206 -155 325 q-150 119 -423 121 q-255 -2 -412 -125 q-157 -122 -162 -335 q0 -165 102 -270 q101 -105 301 -144 l189 -37 q122 -24 174 -59 q52 -35 51 -94 q-1 -67 -64 -108 q-63 -42 -172 -43 q-104 1 -176 45 q-72 45 -84 120 l-349 0 ZM670 1548 q71 2 117 48 q45 46 47 115 q-2 69 -47 115 q-46 46 -117 48 q-71 -2 -116 -48 q-46 -46 -48 -115 q2 -69 48 -115 q45 -46 116 -48 l0 0 Z" /><glyph glyph-name="" unicode="&#x1e66;" d="M533 1545 l274 0 l257 287 l-257 0 l-132 -159 l-10 0 l-132 159 l-257 0 l257 -287 ZM670 1862 q65 2 105 41 q40 40 41 99 q-1 60 -41 99 q-40 40 -105 41 q-65 -1 -105 -41 q-40 -39 -41 -99 q1 -59 41 -99 q40 -39 105 -41 l0 0 ZM63 418 q6 -211 163 -326 q157 -116 436 -117 q282 2 444 127 q162 125 165 343 q1 170 -100 271 q-100 101 -313 141 l-187 35 q-113 23 -164 58 q-52 36 -51 94 q1 67 59 106 q57 39 154 40 q101 -1 165 -45 q64 -44 71 -123 l338 0 q-5 206 -155 325 q-150 119 -423 121 q-255 -2 -412 -125 q-157 -122 -162 -335 q0 -165 102 -270 q101 -105 301 -144 l189 -37 q122 -24 174 -59 q52 -35 51 -94 q-1 -67 -64 -108 q-63 -42 -172 -43 q-104 1 -176 45 q-72 45 -84 120 l-349 0 Z" /><glyph glyph-name="" unicode="&#x15c;" d="M63 418 q6 -211 163 -326 q157 -116 436 -117 q282 2 444 127 q162 125 165 343 q1 170 -100 271 q-100 101 -313 141 l-187 35 q-113 23 -164 58 q-52 36 -51 94 q1 67 59 106 q57 39 154 40 q101 -1 165 -45 q64 -44 71 -123 l338 0 q-5 206 -155 325 q-150 119 -423 121 q-255 -2 -412 -125 q-157 -122 -162 -335 q0 -165 102 -270 q101 -105 301 -144 l189 -37 q122 -24 174 -59 q52 -35 51 -94 q-1 -67 -64 -108 q-63 -42 -172 -43 q-104 1 -176 45 q-72 45 -84 120 l-349 0 ZM533 1867 l-263 -328 l250 0 l147 194 l6 0 l147 -194 l250 0 l-263 328 l-274 0 Z" /><glyph glyph-name="" unicode="&#x1e64;" d="M922 1554 l276 316 l-313 0 l-232 -316 l269 0 ZM417 1552 q71 2 117 48 q45 46 47 115 q-2 69 -47 115 q-46 46 -117 48 q-71 -2 -116 -48 q-46 -46 -48 -115 q2 -69 48 -115 q45 -46 116 -48 l0 0 ZM63 418 q6 -211 163 -326 q157 -116 436 -117 q282 2 444 127 q162 125 165 343 q1 170 -100 271 q-100 101 -313 141 l-187 35 q-113 23 -164 58 q-52 36 -51 94 q1 67 59 106 q57 39 154 40 q101 -1 165 -45 q64 -44 71 -123 l338 0 q-5 206 -155 325 q-150 119 -423 121 q-255 -2 -412 -125 q-157 -122 -162 -335 q0 -165 102 -270 q101 -105 301 -144 l189 -37 q122 -24 174 -59 q52 -35 51 -94 q-1 -67 -64 -108 q-63 -42 -172 -43 q-104 1 -176 45 q-72 45 -84 120 l-349 0 Z" /><glyph glyph-name="" unicode="&#x15a;" d="M795 1554 l276 316 l-313 0 l-232 -316 l269 0 ZM63 418 q6 -211 163 -326 q157 -116 436 -117 q282 2 444 127 q162 125 165 343 q1 170 -100 271 q-100 101 -313 141 l-187 35 q-113 23 -164 58 q-52 36 -51 94 q1 67 59 106 q57 39 154 40 q101 -1 165 -45 q64 -44 71 -123 l338 0 q-5 206 -155 325 q-150 119 -423 121 q-255 -2 -412 -125 q-157 -122 -162 -335 q0 -165 102 -270 q101 -105 301 -144 l189 -37 q122 -24 174 -59 q52 -35 51 -94 q-1 -67 -64 -108 q-63 -42 -172 -43 q-104 1 -176 45 q-72 45 -84 120 l-349 0 Z" /><glyph glyph-name="" unicode="t" d="M813 0 l0 1147 l400 0 l0 296 l-1167 0 l0 -296 l400 0 l0 -1147 l367 0 Z" /><glyph glyph-name="" unicode="&#x1e70;" d="M813 0 l0 1147 l400 0 l0 296 l-1167 0 l0 -296 l400 0 l0 -1147 l367 0 ZM492 -156 l-263 -328 l250 0 l147 194 l6 0 l147 -194 l250 0 l-263 328 l-274 0 Z" /><glyph glyph-name="" unicode="&#x1e6c;" d="M629 -492 q71 2 117 48 q45 46 47 115 q-2 69 -47 115 q-46 46 -117 48 q-71 -2 -116 -48 q-46 -46 -48 -115 q2 -69 48 -115 q45 -46 116 -48 l0 0 ZM813 0 l0 1147 l400 0 l0 296 l-1167 0 l0 -296 l400 0 l0 -1147 l367 0 Z" /><glyph glyph-name="" unicode="&#x21a;" d="M603 -477 l183 333 l-310 0 l-138 -333 l265 0 ZM813 0 l0 1147 l400 0 l0 296 l-1167 0 l0 -296 l400 0 l0 -1147 l367 0 Z" /><glyph glyph-name="" unicode="&#x1e6a;" d="M629 1548 q71 2 117 48 q45 46 47 115 q-2 69 -47 115 q-46 46 -117 48 q-71 -2 -116 -48 q-46 -46 -48 -115 q2 -69 48 -115 q45 -46 116 -48 l0 0 ZM813 0 l0 1147 l400 0 l0 296 l-1167 0 l0 -296 l400 0 l0 -1147 l367 0 Z" /><glyph glyph-name="" unicode="&#x162;" d="M813 14 l0 1133 l400 0 l0 296 l-1167 0 l0 -296 l400 0 l0 -1147 l196 0 l-56 -112 l0 -114 l56 0 q61 0 87 -11 q26 -12 25 -40 q0 -23 -24 -34 q-24 -11 -76 -11 q-29 0 -58 3 q-28 3 -47 9 l0 -131 q24 -7 59 -11 q36 -4 78 -4 q123 0 187 49 q65 49 65 142 q-1 76 -47 119 q-46 43 -126 44 l48 102 l0 14 Z" /><glyph glyph-name="" unicode="&#x1e6e;" d="M990 -235 l-722 0 l0 -163 l722 0 l0 163 ZM813 0 l0 1147 l400 0 l0 296 l-1167 0 l0 -296 l400 0 l0 -1147 l367 0 Z" /><glyph glyph-name="" unicode="&#x164;" d="M492 1539 l274 0 l263 328 l-250 0 l-147 -195 l-6 0 l-147 195 l-250 0 l263 -328 ZM813 0 l0 1147 l400 0 l0 296 l-1167 0 l0 -296 l400 0 l0 -1147 l367 0 Z" /><glyph glyph-name="" unicode="&#x166;" d="M1228 1147 l0 296 l-1167 0 l0 -296 l400 0 l0 -343 l-254 0 l0 -247 l254 0 l0 -557 l367 0 l0 557 l288 0 l0 247 l-288 0 l0 343 l400 0 Z" /><glyph glyph-name="" unicode="u" d="M476 1443 l-367 0 l0 -931 q4 -246 170 -390 q166 -144 452 -147 q285 3 451 147 q166 144 170 390 l0 931 l-367 0 l0 -892 q-1 -127 -66 -197 q-65 -70 -188 -71 q-124 1 -189 71 q-65 70 -66 197 l0 892 Z" /><glyph glyph-name="" unicode="ù" d="M602 1561 l269 0 l-232 316 l-313 0 l276 -316 ZM476 1443 l-367 0 l0 -931 q4 -246 170 -390 q166 -144 452 -147 q285 3 451 147 q166 144 170 390 l0 931 l-367 0 l0 -892 q-1 -127 -66 -197 q-65 -70 -188 -71 q-124 1 -189 71 q-65 70 -66 197 l0 892 Z" /><glyph glyph-name="" unicode="&#x214;" d="M823 1554 l266 0 l-231 316 l-311 0 l276 -316 ZM383 1554 l267 0 l-232 316 l-310 0 l275 -316 ZM476 1443 l-367 0 l0 -931 q4 -246 170 -390 q166 -144 452 -147 q285 3 451 147 q166 144 170 390 l0 931 l-367 0 l0 -892 q-1 -127 -66 -197 q-65 -70 -188 -71 q-124 1 -189 71 q-65 70 -66 197 l0 892 Z" /><glyph glyph-name="" unicode="ú" d="M856 1554 l276 316 l-313 0 l-232 -316 l269 0 ZM476 1443 l-367 0 l0 -931 q4 -246 170 -390 q166 -144 452 -147 q285 3 451 147 q166 144 170 390 l0 931 l-367 0 l0 -892 q-1 -127 -66 -197 q-65 -70 -188 -71 q-124 1 -189 71 q-65 70 -66 197 l0 892 Z" /><glyph glyph-name="" unicode="&#x170;" d="M476 1443 l-367 0 l0 -931 q4 -246 170 -390 q166 -144 452 -147 q285 3 451 147 q166 144 170 390 l0 931 l-367 0 l0 -892 q-1 -127 -66 -197 q-65 -70 -188 -71 q-124 1 -189 71 q-65 70 -66 197 l0 892 ZM1079 1554 l275 316 l-310 0 l-232 -316 l267 0 ZM639 1554 l276 316 l-311 0 l-231 -316 l266 0 Z" /><glyph glyph-name="" unicode="û" d="M594 1867 l-263 -328 l250 0 l147 194 l6 0 l147 -194 l250 0 l-263 328 l-274 0 ZM476 1443 l-367 0 l0 -931 q4 -246 170 -390 q166 -144 452 -147 q285 3 451 147 q166 144 170 390 l0 931 l-367 0 l0 -892 q-1 -127 -66 -197 q-65 -70 -188 -71 q-124 1 -189 71 q-65 70 -66 197 l0 892 Z" /><glyph glyph-name="" unicode="&#x1d3;" d="M594 1539 l274 0 l263 328 l-250 0 l-147 -195 l-6 0 l-147 195 l-250 0 l263 -328 ZM476 1443 l-367 0 l0 -931 q4 -246 170 -390 q166 -144 452 -147 q285 3 451 147 q166 144 170 390 l0 931 l-367 0 l0 -892 q-1 -127 -66 -197 q-65 -70 -188 -71 q-124 1 -189 71 q-65 70 -66 197 l0 892 Z" /><glyph glyph-name="" unicode="&#x1e76;" d="M476 1443 l-367 0 l0 -931 q4 -246 170 -390 q166 -144 452 -147 q285 3 451 147 q166 144 170 390 l0 931 l-367 0 l0 -892 q-1 -127 -66 -197 q-65 -70 -188 -71 q-124 1 -189 71 q-65 70 -66 197 l0 892 ZM594 -156 l-263 -328 l250 0 l147 194 l6 0 l147 -194 l250 0 l-263 328 l-274 0 Z" /><glyph glyph-name="" unicode="ü" d="M514 1547 q65 2 106 42 q41 40 42 99 q-1 60 -42 100 q-41 40 -106 41 q-64 -1 -105 -41 q-41 -40 -42 -100 q1 -59 42 -99 q41 -40 105 -42 l0 0 ZM947 1547 q65 2 105 42 q41 40 42 99 q-1 60 -42 100 q-40 40 -105 41 q-65 -1 -105 -41 q-41 -40 -42 -100 q1 -59 42 -99 q40 -40 105 -42 l0 0 ZM476 1443 l-367 0 l0 -931 q4 -246 170 -390 q166 -144 452 -147 q285 3 451 147 q166 144 170 390 l0 931 l-367 0 l0 -892 q-1 -127 -66 -197 q-65 -70 -188 -71 q-124 1 -189 71 q-65 70 -66 197 l0 892 Z" /><glyph glyph-name="" unicode="&#x1db;" d="M866 1907 l-198 263 l-290 0 l238 -263 l250 0 ZM517 1549 q63 2 103 41 q40 39 41 97 q-1 59 -41 98 q-40 39 -103 40 q-63 -1 -103 -40 q-40 -39 -41 -98 q1 -58 41 -97 q40 -39 103 -41 l0 0 ZM945 1549 q63 2 103 41 q40 39 41 97 q-1 59 -41 98 q-40 39 -103 40 q-63 -1 -103 -40 q-40 -39 -41 -98 q1 -58 41 -97 q40 -39 103 -41 l0 0 ZM476 1443 l-367 0 l0 -931 q4 -246 170 -390 q166 -144 452 -147 q285 3 451 147 q166 144 170 390 l0 931 l-367 0 l0 -892 q-1 -127 -66 -197 q-65 -70 -188 -71 q-124 1 -189 71 q-65 70 -66 197 l0 892 Z" /><glyph glyph-name="" unicode="&#x1d7;" d="M596 1907 l250 0 l238 263 l-290 0 l-198 -263 ZM517 1549 q63 2 103 41 q40 39 41 97 q-1 59 -41 98 q-40 39 -103 40 q-63 -1 -103 -40 q-40 -39 -41 -98 q1 -58 41 -97 q40 -39 103 -41 l0 0 ZM945 1549 q63 2 103 41 q40 39 41 97 q-1 59 -41 98 q-40 39 -103 40 q-63 -1 -103 -40 q-40 -39 -41 -98 q1 -58 41 -97 q40 -39 103 -41 l0 0 ZM476 1443 l-367 0 l0 -931 q4 -246 170 -390 q166 -144 452 -147 q285 3 451 147 q166 144 170 390 l0 931 l-367 0 l0 -892 q-1 -127 -66 -197 q-65 -70 -188 -71 q-124 1 -189 71 q-65 70 -66 197 l0 892 Z" /><glyph glyph-name="" unicode="&#x1d5;" d="M476 1443 l-367 0 l0 -931 q4 -246 170 -390 q166 -144 452 -147 q285 3 451 147 q166 144 170 390 l0 931 l-367 0 l0 -892 q-1 -127 -66 -197 q-65 -70 -188 -71 q-124 1 -189 71 q-65 70 -66 197 l0 892 ZM517 1825 q-63 -1 -103 -40 q-40 -39 -41 -98 q1 -58 41 -97 q40 -39 103 -41 q63 2 103 41 q40 39 41 97 q-1 59 -41 98 q-40 39 -103 40 l0 0 ZM370 2098 l0 -163 l722 0 l0 163 l-722 0 ZM945 1825 q-63 -1 -103 -40 q-40 -39 -41 -98 q1 -58 41 -97 q40 -39 103 -41 q63 2 103 41 q40 39 41 97 q-1 59 -41 98 q-40 39 -103 40 l0 0 Z" /><glyph glyph-name="" unicode="&#x1d9;" d="M604 1908 l254 0 l251 281 l-247 0 l-121 -145 l-20 0 l-121 145 l-247 0 l251 -281 ZM517 1825 q-63 -1 -103 -40 q-40 -39 -41 -98 q1 -58 41 -97 q40 -39 103 -41 q63 2 103 41 q40 39 41 97 q-1 59 -41 98 q-40 39 -103 40 l0 0 ZM945 1825 q-63 -1 -103 -40 q-40 -39 -41 -98 q1 -58 41 -97 q40 -39 103 -41 q63 2 103 41 q40 39 41 97 q-1 59 -41 98 q-40 39 -103 40 l0 0 ZM476 1443 l-367 0 l0 -931 q4 -246 170 -390 q166 -144 452 -147 q285 3 451 147 q166 144 170 390 l0 931 l-367 0 l0 -892 q-1 -127 -66 -197 q-65 -70 -188 -71 q-124 1 -189 71 q-65 70 -66 197 l0 892 Z" /><glyph glyph-name="" unicode="&#x1e72;" d="M476 1443 l-367 0 l0 -931 q4 -246 170 -390 q166 -144 452 -147 q285 3 451 147 q166 144 170 390 l0 931 l-367 0 l0 -892 q-1 -127 -66 -197 q-65 -70 -188 -71 q-124 1 -189 71 q-65 70 -66 197 l0 892 ZM514 -454 q65 2 106 42 q41 40 42 99 q-1 60 -42 100 q-41 40 -106 41 q-64 -1 -105 -41 q-41 -40 -42 -100 q1 -59 42 -99 q41 -40 105 -42 l0 0 ZM947 -454 q65 2 105 42 q41 40 42 99 q-1 60 -42 100 q-40 40 -105 41 q-65 -1 -105 -41 q-41 -40 -42 -100 q1 -59 42 -99 q40 -40 105 -42 l0 0 Z" /><glyph glyph-name="" unicode="&#x1e74;" d="M878 -447 q99 1 165 76 q66 76 69 211 l-181 0 q-1 -52 -17 -83 q-16 -30 -50 -31 q-49 8 -105 64 q-55 55 -160 63 q-99 -1 -165 -74 q-66 -73 -69 -209 l181 0 q1 48 18 78 q17 31 51 32 q50 -8 105 -63 q55 -56 158 -64 l0 0 ZM476 1443 l-367 0 l0 -931 q4 -246 170 -390 q166 -144 452 -147 q285 3 451 147 q166 144 170 390 l0 931 l-367 0 l0 -892 q-1 -127 -66 -197 q-65 -70 -188 -71 q-124 1 -189 71 q-65 70 -66 197 l0 892 Z" /><glyph glyph-name="" unicode="&#x1ee6;" d="M476 1443 l-367 0 l0 -931 q4 -246 170 -390 q166 -144 452 -147 q285 3 451 147 q166 144 170 390 l0 931 l-367 0 l0 -892 q-1 -127 -66 -197 q-65 -70 -188 -71 q-124 1 -189 71 q-65 70 -66 197 l0 892 ZM534 1799 q22 8 53 13 q30 5 55 5 q48 0 74 -20 q27 -20 27 -55 q-1 -34 -27 -64 q-27 -30 -72 -47 l99 -120 q90 39 146 105 q55 67 57 146 q-1 101 -70 157 q-68 57 -188 58 q-45 0 -86 -7 q-41 -7 -68 -21 l0 -150 Z" /><glyph glyph-name="" unicode="&#x16c;" d="M476 1443 l-367 0 l0 -931 q4 -246 170 -390 q166 -144 452 -147 q285 3 451 147 q166 144 170 390 l0 931 l-367 0 l0 -892 q-1 -127 -66 -197 q-65 -70 -188 -71 q-124 1 -189 71 q-65 70 -66 197 l0 892 ZM356 1865 q5 -138 101 -230 q96 -92 274 -96 q178 4 274 96 q96 92 101 230 l-208 0 q-3 -70 -47 -114 q-43 -44 -120 -45 q-77 1 -120 45 q-43 44 -47 114 l-208 0 Z" /><glyph glyph-name="" unicode="&#x216;" d="M476 1443 l-367 0 l0 -931 q4 -246 170 -390 q166 -144 452 -147 q285 3 451 147 q166 144 170 390 l0 931 l-367 0 l0 -892 q-1 -127 -66 -197 q-65 -70 -188 -71 q-124 1 -189 71 q-65 70 -66 197 l0 892 ZM356 1539 l208 0 q4 70 47 115 q43 44 120 45 q77 -1 120 -45 q44 -45 47 -115 l208 0 q-5 138 -101 230 q-96 92 -274 96 q-178 -4 -274 -96 q-96 -92 -101 -230 l0 0 Z" /><glyph glyph-name="" unicode="&#x1e78;" d="M476 1443 l-367 0 l0 -931 q4 -246 170 -390 q166 -144 452 -147 q285 3 451 147 q166 144 170 390 l0 931 l-367 0 l0 -892 q-1 -127 -66 -197 q-65 -70 -188 -71 q-124 1 -189 71 q-65 70 -66 197 l0 892 ZM872 1536 q99 1 164 76 q66 76 68 211 l-180 0 q-2 -52 -18 -83 q-16 -30 -50 -31 q-49 8 -106 64 q-56 56 -161 64 q-100 -1 -165 -73 q-65 -73 -67 -209 l180 0 q2 47 19 77 q16 31 50 32 q51 -8 107 -64 q56 -56 159 -64 l0 0 ZM596 1907 l251 0 l237 263 l-290 0 l-198 -263 Z" /><glyph glyph-name="" unicode="&#x1ee4;" d="M731 -492 q71 2 117 48 q45 46 47 115 q-2 69 -47 115 q-46 46 -117 48 q-71 -2 -116 -48 q-46 -46 -48 -115 q2 -69 48 -115 q45 -46 116 -48 l0 0 ZM476 1443 l-367 0 l0 -931 q4 -246 170 -390 q166 -144 452 -147 q285 3 451 147 q166 144 170 390 l0 931 l-367 0 l0 -892 q-1 -127 -66 -197 q-65 -70 -188 -71 q-124 1 -189 71 q-65 70 -66 197 l0 892 Z" /><glyph glyph-name="" unicode="&#x168;" d="M476 1443 l-367 0 l0 -931 q4 -246 170 -390 q166 -144 452 -147 q285 3 451 147 q166 144 170 390 l0 931 l-367 0 l0 -892 q-1 -127 -66 -197 q-65 -70 -188 -71 q-124 1 -189 71 q-65 70 -66 197 l0 892 ZM878 1543 q99 1 165 76 q66 76 69 211 l-181 0 q-1 -52 -17 -83 q-16 -30 -50 -31 q-49 8 -105 64 q-55 55 -160 63 q-99 -1 -165 -74 q-66 -73 -69 -209 l181 0 q1 48 18 78 q17 31 51 32 q50 -8 105 -63 q55 -56 158 -64 l0 0 Z" /><glyph glyph-name="" unicode="&#x16a;" d="M476 1443 l-367 0 l0 -931 q4 -246 170 -390 q166 -144 452 -147 q285 3 451 147 q166 144 170 390 l0 931 l-367 0 l0 -892 q-1 -127 -66 -197 q-65 -70 -188 -71 q-124 1 -189 71 q-65 70 -66 197 l0 892 ZM1092 1777 l-722 0 l0 -163 l722 0 l0 163 Z" /><glyph glyph-name="" unicode="&#x1e7a;" d="M1092 1614 l0 163 l-722 0 l0 -163 l722 0 ZM517 1918 q63 2 103 41 q40 39 41 97 q-1 59 -41 98 q-40 39 -103 40 q-63 -1 -103 -40 q-40 -39 -41 -98 q1 -58 41 -97 q40 -39 103 -41 l0 0 ZM945 1918 q63 2 103 41 q40 39 41 97 q-1 59 -41 98 q-40 39 -103 40 q-63 -1 -103 -40 q-40 -39 -41 -98 q1 -58 41 -97 q40 -39 103 -41 l0 0 ZM476 1443 l-367 0 l0 -931 q4 -246 170 -390 q166 -144 452 -147 q285 3 451 147 q166 144 170 390 l0 931 l-367 0 l0 -892 q-1 -127 -66 -197 q-65 -70 -188 -71 q-124 1 -189 71 q-65 70 -66 197 l0 892 Z" /><glyph glyph-name="" unicode="&#x16e;" d="M731 1517 q90 2 151 62 q61 59 63 147 q-2 89 -63 149 q-61 59 -151 61 q-90 -2 -151 -61 q-62 -60 -64 -149 q2 -88 64 -147 q61 -60 151 -62 l0 0 ZM731 1640 q-37 1 -62 25 q-25 25 -26 61 q1 37 26 62 q25 24 62 25 q37 -1 62 -25 q25 -25 26 -62 q-1 -36 -26 -61 q-25 -24 -62 -25 l0 0 ZM476 1443 l-367 0 l0 -931 q4 -246 170 -390 q166 -144 452 -147 q285 3 451 147 q166 144 170 390 l0 931 l-367 0 l0 -892 q-1 -127 -66 -197 q-65 -70 -188 -71 q-124 1 -189 71 q-65 70 -66 197 l0 892 Z" /><glyph glyph-name="" unicode="&#x172;" d="M965 -479 q50 0 89 6 q39 6 67 17 l0 179 q-9 -3 -28 -5 q-20 -3 -43 -3 q-57 0 -89 28 q-32 27 -32 75 q-1 59 49 122 q49 63 155 139 q109 80 164 189 q55 109 55 244 l0 931 l-367 0 l0 -892 q-1 -128 -67 -198 q-65 -69 -187 -70 q-122 1 -188 70 q-66 70 -67 198 l0 892 l-367 0 l0 -931 q4 -246 170 -390 q166 -144 452 -147 q25 0 52 3 q28 2 46 7 l0 -7 q-69 -38 -111 -102 q-43 -64 -44 -132 q2 -100 81 -161 q79 -60 210 -62 l0 0 Z" /><glyph glyph-name="" unicode="&#x1af;" d="M731 -26 q285 3 451 147 q166 144 170 390 l0 704 l118 0 q113 1 176 60 q63 58 64 167 l0 266 l-269 0 l0 -194 q0 -35 -19 -53 q-20 -18 -55 -18 l-382 0 l0 -893 q-1 -128 -67 -197 q-65 -69 -187 -70 q-122 1 -188 70 q-66 69 -67 197 l0 893 l-367 0 l0 -932 q4 -246 170 -390 q167 -144 452 -147 l0 0 Z" /><glyph glyph-name="" unicode="&#x1eea;" d="M602 1561 l269 0 l-232 316 l-313 0 l276 -316 ZM731 -26 q285 3 451 147 q166 144 170 390 l0 704 l118 0 q113 1 176 60 q63 58 64 167 l0 266 l-269 0 l0 -194 q0 -35 -19 -53 q-20 -18 -55 -18 l-382 0 l0 -893 q-1 -128 -67 -197 q-65 -69 -187 -70 q-122 1 -188 70 q-66 69 -67 197 l0 893 l-367 0 l0 -932 q4 -246 170 -390 q167 -144 452 -147 l0 0 Z" /><glyph glyph-name="" unicode="&#x1ee8;" d="M856 1554 l276 316 l-313 0 l-232 -316 l269 0 ZM731 -26 q285 3 451 147 q166 144 170 390 l0 704 l118 0 q113 1 176 60 q63 58 64 167 l0 266 l-269 0 l0 -194 q0 -35 -19 -53 q-20 -18 -55 -18 l-382 0 l0 -893 q-1 -128 -67 -197 q-65 -69 -187 -70 q-122 1 -188 70 q-66 69 -67 197 l0 893 l-367 0 l0 -932 q4 -246 170 -390 q167 -144 452 -147 l0 0 Z" /><glyph glyph-name="" unicode="&#x1ef0;" d="M731 -492 q71 2 117 48 q45 46 47 115 q-2 69 -47 115 q-46 46 -117 48 q-71 -2 -116 -48 q-46 -46 -48 -115 q2 -69 48 -115 q45 -46 116 -48 l0 0 ZM731 -26 q285 3 451 147 q166 144 170 390 l0 704 l118 0 q113 1 176 60 q63 58 64 167 l0 266 l-269 0 l0 -194 q0 -35 -19 -53 q-20 -18 -55 -18 l-382 0 l0 -893 q-1 -128 -67 -197 q-65 -69 -187 -70 q-122 1 -188 70 q-66 69 -67 197 l0 893 l-367 0 l0 -932 q4 -246 170 -390 q167 -144 452 -147 l0 0 Z" /><glyph glyph-name="" unicode="&#x1eec;" d="M534 1799 q22 8 53 13 q30 5 55 5 q48 0 74 -20 q27 -20 27 -55 q-1 -34 -27 -64 q-27 -30 -72 -47 l99 -120 q90 39 146 105 q55 67 57 146 q-1 101 -70 157 q-68 57 -188 58 q-45 0 -86 -7 q-41 -7 -68 -21 l0 -150 ZM731 -26 q285 3 451 147 q166 144 170 390 l0 704 l118 0 q113 1 176 60 q63 58 64 167 l0 266 l-269 0 l0 -194 q0 -35 -19 -53 q-20 -18 -55 -18 l-382 0 l0 -893 q-1 -128 -67 -197 q-65 -69 -187 -70 q-122 1 -188 70 q-66 69 -67 197 l0 893 l-367 0 l0 -932 q4 -246 170 -390 q167 -144 452 -147 l0 0 Z" /><glyph glyph-name="" unicode="&#x1eee;" d="M878 1543 q99 1 165 76 q66 76 69 211 l-181 0 q-1 -52 -17 -83 q-16 -30 -50 -31 q-49 8 -105 64 q-55 55 -160 63 q-99 -1 -165 -74 q-66 -73 -69 -209 l181 0 q1 48 18 78 q17 31 51 32 q50 -8 105 -63 q55 -56 158 -64 l0 0 ZM731 -26 q285 3 451 147 q166 144 170 390 l0 704 l118 0 q113 1 176 60 q63 58 64 167 l0 266 l-269 0 l0 -194 q0 -35 -19 -53 q-20 -18 -55 -18 l-382 0 l0 -893 q-1 -128 -67 -197 q-65 -69 -187 -70 q-122 1 -188 70 q-66 69 -67 197 l0 893 l-367 0 l0 -932 q4 -246 170 -390 q167 -144 452 -147 l0 0 Z" /><glyph glyph-name="" unicode="v" d="M951 0 l460 1443 l-402 0 l-277 -1084 l-8 0 l-278 1084 l-417 0 l460 -1443 l462 0 Z" /><glyph glyph-name="" unicode="&#x1e7c;" d="M867 1543 q99 1 165 76 q66 76 69 211 l-181 0 q-1 -52 -17 -83 q-16 -30 -50 -31 q-49 8 -105 64 q-55 55 -160 63 q-99 -1 -165 -74 q-66 -73 -69 -209 l181 0 q1 48 18 78 q17 31 51 32 q50 -8 105 -63 q55 -56 158 -64 l0 0 ZM951 0 l460 1443 l-402 0 l-277 -1084 l-8 0 l-278 1084 l-417 0 l460 -1443 l462 0 Z" /><glyph glyph-name="" unicode="&#x1e7e;" d="M720 -492 q71 2 117 48 q45 46 47 115 q-2 69 -47 115 q-46 46 -117 48 q-71 -2 -116 -48 q-46 -46 -48 -115 q2 -69 48 -115 q45 -46 116 -48 l0 0 ZM951 0 l460 1443 l-402 0 l-277 -1084 l-8 0 l-278 1084 l-417 0 l460 -1443 l462 0 Z" /><glyph glyph-name="" unicode="w" d="M1007 901 l8 0 l243 -901 l346 0 l377 1443 l-379 0 l-195 -975 l-8 0 l-241 975 l-294 0 l-241 -975 l-8 0 l-195 975 l-379 0 l377 -1443 l346 0 l243 901 Z" /><glyph glyph-name="" unicode="&#x1e80;" d="M882 1561 l269 0 l-232 316 l-313 0 l276 -316 ZM1007 901 l8 0 l243 -901 l346 0 l377 1443 l-379 0 l-195 -975 l-8 0 l-241 975 l-294 0 l-241 -975 l-8 0 l-195 975 l-379 0 l377 -1443 l346 0 l243 901 Z" /><glyph glyph-name="" unicode="&#x1e82;" d="M1136 1554 l276 316 l-313 0 l-232 -316 l269 0 ZM1007 901 l8 0 l243 -901 l346 0 l377 1443 l-379 0 l-195 -975 l-8 0 l-241 975 l-294 0 l-241 -975 l-8 0 l-195 975 l-379 0 l377 -1443 l346 0 l243 901 Z" /><glyph glyph-name="" unicode="&#x1e86;" d="M1011 1548 q71 2 117 48 q45 46 47 115 q-2 69 -47 115 q-46 46 -117 48 q-71 -2 -116 -48 q-46 -46 -48 -115 q2 -69 48 -115 q45 -46 116 -48 l0 0 ZM1007 901 l8 0 l243 -901 l346 0 l377 1443 l-379 0 l-195 -975 l-8 0 l-241 975 l-294 0 l-241 -975 l-8 0 l-195 975 l-379 0 l377 -1443 l346 0 l243 901 Z" /><glyph glyph-name="" unicode="&#x1e88;" d="M1011 -492 q71 2 117 48 q45 46 47 115 q-2 69 -47 115 q-46 46 -117 48 q-71 -2 -116 -48 q-46 -46 -48 -115 q2 -69 48 -115 q45 -46 116 -48 l0 0 ZM1007 901 l8 0 l243 -901 l346 0 l377 1443 l-379 0 l-195 -975 l-8 0 l-241 975 l-294 0 l-241 -975 l-8 0 l-195 975 l-379 0 l377 -1443 l346 0 l243 901 Z" /><glyph glyph-name="" unicode="&#x1e84;" d="M794 1547 q65 2 106 42 q41 40 42 99 q-1 60 -42 100 q-41 40 -106 41 q-64 -1 -105 -41 q-41 -40 -42 -100 q1 -59 42 -99 q41 -40 105 -42 l0 0 ZM1227 1547 q65 2 105 42 q41 40 42 99 q-1 60 -42 100 q-40 40 -105 41 q-65 -1 -105 -41 q-41 -40 -42 -100 q1 -59 42 -99 q40 -40 105 -42 l0 0 ZM1007 901 l8 0 l243 -901 l346 0 l377 1443 l-379 0 l-195 -975 l-8 0 l-241 975 l-294 0 l-241 -975 l-8 0 l-195 975 l-379 0 l377 -1443 l346 0 l243 901 Z" /><glyph glyph-name="" unicode="&#x174;" d="M874 1867 l-263 -328 l250 0 l147 194 l6 0 l147 -194 l250 0 l-263 328 l-274 0 ZM1007 901 l8 0 l243 -901 l346 0 l377 1443 l-379 0 l-195 -975 l-8 0 l-241 975 l-294 0 l-241 -975 l-8 0 l-195 975 l-379 0 l377 -1443 l346 0 l243 901 Z" /><glyph glyph-name="" unicode="x" d="M42 0 l390 0 l281 468 l8 0 l280 -468 l412 0 l-455 720 l0 7 l459 716 l-407 0 l-267 -488 l-7 0 l-265 488 l-428 0 l440 -712 l0 -8 l-441 -723 Z" /><glyph glyph-name="" unicode="&#x1e8a;" d="M42 0 l390 0 l281 468 l8 0 l280 -468 l412 0 l-455 720 l0 7 l459 716 l-407 0 l-267 -488 l-7 0 l-265 488 l-428 0 l440 -712 l0 -8 l-441 -723 ZM729 1548 q71 2 117 48 q45 46 47 115 q-2 69 -47 115 q-46 46 -117 48 q-71 -2 -116 -48 q-46 -46 -48 -115 q2 -69 48 -115 q45 -46 116 -48 l0 0 Z" /><glyph glyph-name="" unicode="&#x1e8c;" d="M42 0 l390 0 l281 468 l8 0 l280 -468 l412 0 l-455 720 l0 7 l459 716 l-407 0 l-267 -488 l-7 0 l-265 488 l-428 0 l440 -712 l0 -8 l-441 -723 ZM512 1547 q65 2 106 42 q41 40 42 99 q-1 60 -42 100 q-41 40 -106 41 q-64 -1 -105 -41 q-41 -40 -42 -100 q1 -59 42 -99 q41 -40 105 -42 l0 0 ZM945 1547 q65 2 105 42 q41 40 42 99 q-1 60 -42 100 q-40 40 -105 41 q-65 -1 -105 -41 q-41 -40 -42 -100 q1 -59 42 -99 q40 -40 105 -42 l0 0 Z" /><glyph glyph-name="" unicode="y" d="M893 0 l0 496 l497 947 l-387 0 l-286 -600 l-7 0 l-287 600 l-394 0 l497 -947 l0 -496 l367 0 Z" /><glyph glyph-name="" unicode="&#x1ef2;" d="M893 0 l0 496 l497 947 l-387 0 l-286 -600 l-7 0 l-287 600 l-394 0 l497 -947 l0 -496 l367 0 ZM581 1561 l269 0 l-232 316 l-313 0 l276 -316 Z" /><glyph glyph-name="" unicode="ý" d="M893 0 l0 496 l497 947 l-387 0 l-286 -600 l-7 0 l-287 600 l-394 0 l497 -947 l0 -496 l367 0 ZM835 1554 l276 316 l-313 0 l-232 -316 l269 0 Z" /><glyph glyph-name="" unicode="&#x1e8e;" d="M893 0 l0 496 l497 947 l-387 0 l-286 -600 l-7 0 l-287 600 l-394 0 l497 -947 l0 -496 l367 0 ZM710 1548 q71 2 117 48 q45 46 47 115 q-2 69 -47 115 q-46 46 -117 48 q-71 -2 -116 -48 q-46 -46 -48 -115 q2 -69 48 -115 q45 -46 116 -48 l0 0 Z" /><glyph glyph-name="" unicode="&#x1ef4;" d="M893 0 l0 496 l497 947 l-387 0 l-286 -600 l-7 0 l-287 600 l-394 0 l497 -947 l0 -496 l367 0 ZM710 -492 q71 2 117 48 q45 46 47 115 q-2 69 -47 115 q-46 46 -117 48 q-71 -2 -116 -48 q-46 -46 -48 -115 q2 -69 48 -115 q45 -46 116 -48 l0 0 Z" /><glyph glyph-name="" unicode="&#x178;" d="M893 0 l0 496 l497 947 l-387 0 l-286 -600 l-7 0 l-287 600 l-394 0 l497 -947 l0 -496 l367 0 ZM493 1547 q65 2 106 42 q41 40 42 99 q-1 60 -42 100 q-41 40 -106 41 q-64 -1 -105 -41 q-41 -40 -42 -100 q1 -59 42 -99 q41 -40 105 -42 l0 0 ZM926 1547 q65 2 105 42 q41 40 42 99 q-1 60 -42 100 q-40 40 -105 41 q-65 -1 -105 -41 q-41 -40 -42 -100 q1 -59 42 -99 q40 -40 105 -42 l0 0 Z" /><glyph glyph-name="" unicode="&#x1ef8;" d="M893 0 l0 496 l497 947 l-387 0 l-286 -600 l-7 0 l-287 600 l-394 0 l497 -947 l0 -496 l367 0 ZM857 1543 q99 1 165 76 q66 76 69 211 l-181 0 q-1 -52 -17 -83 q-16 -30 -50 -31 q-49 8 -105 64 q-55 55 -160 63 q-99 -1 -165 -74 q-66 -73 -69 -209 l181 0 q1 48 18 78 q17 31 51 32 q50 -8 105 -63 q55 -56 158 -64 l0 0 Z" /><glyph glyph-name="" unicode="&#x176;" d="M893 0 l0 496 l497 947 l-387 0 l-286 -600 l-7 0 l-287 600 l-394 0 l497 -947 l0 -496 l367 0 ZM573 1867 l-263 -328 l250 0 l147 194 l6 0 l147 -194 l250 0 l-263 328 l-274 0 Z" /><glyph glyph-name="" unicode="&#x232;" d="M893 0 l0 496 l497 947 l-387 0 l-286 -600 l-7 0 l-287 600 l-394 0 l497 -947 l0 -496 l367 0 ZM1071 1777 l-722 0 l0 -163 l722 0 l0 163 Z" /><glyph glyph-name="" unicode="&#x1ef6;" d="M893 0 l0 496 l497 947 l-387 0 l-286 -600 l-7 0 l-287 600 l-394 0 l497 -947 l0 -496 l367 0 ZM513 1799 q22 8 53 13 q30 5 55 5 q48 0 74 -20 q27 -20 27 -55 q-1 -34 -27 -64 q-27 -30 -72 -47 l99 -120 q90 39 146 105 q55 67 57 146 q-1 101 -70 157 q-68 57 -188 58 q-45 0 -86 -7 q-41 -7 -68 -21 l0 -150 Z" /><glyph glyph-name="" unicode="z" d="M84 0 l1139 0 l0 296 l-705 0 l0 7 l683 907 l0 233 l-1106 0 l0 -296 l675 0 l0 -7 l-686 -907 l0 -233 Z" /><glyph glyph-name="" unicode="&#x179;" d="M779 1554 l276 316 l-313 0 l-232 -316 l269 0 ZM84 0 l1139 0 l0 296 l-705 0 l0 7 l683 907 l0 233 l-1106 0 l0 -296 l675 0 l0 -7 l-686 -907 l0 -233 Z" /><glyph glyph-name="" unicode="&#x17d;" d="M84 0 l1139 0 l0 296 l-705 0 l0 7 l683 907 l0 233 l-1106 0 l0 -296 l675 0 l0 -7 l-686 -907 l0 -233 ZM517 1539 l274 0 l263 328 l-250 0 l-147 -195 l-6 0 l-147 195 l-250 0 l263 -328 Z" /><glyph glyph-name="" unicode="&#x1e90;" d="M84 0 l1139 0 l0 296 l-705 0 l0 7 l683 907 l0 233 l-1106 0 l0 -296 l675 0 l0 -7 l-686 -907 l0 -233 ZM517 1867 l-263 -328 l250 0 l147 194 l6 0 l147 -194 l250 0 l-263 328 l-274 0 Z" /><glyph glyph-name="" unicode="&#x1e94;" d="M84 0 l1139 0 l0 296 l-705 0 l0 7 l683 907 l0 233 l-1106 0 l0 -296 l675 0 l0 -7 l-686 -907 l0 -233 ZM1015 -235 l-722 0 l0 -163 l722 0 l0 163 Z" /><glyph glyph-name="" unicode="&#x1e92;" d="M654 -492 q71 2 117 48 q45 46 47 115 q-2 69 -47 115 q-46 46 -117 48 q-71 -2 -116 -48 q-46 -46 -48 -115 q2 -69 48 -115 q45 -46 116 -48 l0 0 ZM84 0 l1139 0 l0 296 l-705 0 l0 7 l683 907 l0 233 l-1106 0 l0 -296 l675 0 l0 -7 l-686 -907 l0 -233 Z" /><glyph glyph-name="" unicode="&#x17b;" d="M654 1548 q71 2 117 48 q45 46 47 115 q-2 69 -47 115 q-46 46 -117 48 q-71 -2 -116 -48 q-46 -46 -48 -115 q2 -69 48 -115 q45 -46 116 -48 l0 0 ZM84 0 l1139 0 l0 296 l-705 0 l0 7 l683 907 l0 233 l-1106 0 l0 -296 l675 0 l0 -7 l-686 -907 l0 -233 Z" /><glyph glyph-name="" unicode="æ" d="M845 1167 l123 0 l0 -575 l-343 0 l220 575 ZM968 0 l982 0 l0 295 l-655 0 l0 293 l618 0 l0 270 l-618 0 l0 290 l655 0 l0 295 l-1336 0 l-575 -1443 l363 0 l127 327 l439 0 l0 -327 Z" /><glyph glyph-name="" unicode="&#x1e2;" d="M845 1167 l123 0 l0 -575 l-343 0 l220 575 ZM968 0 l982 0 l0 295 l-655 0 l0 293 l618 0 l0 270 l-618 0 l0 290 l655 0 l0 295 l-1336 0 l-575 -1443 l363 0 l127 327 l439 0 l0 -327 ZM1835 1777 l-722 0 l0 -163 l722 0 l0 163 Z" /><glyph glyph-name="" unicode="&#x1fc;" d="M1380 1554 l276 316 l-313 0 l-232 -316 l269 0 ZM845 1167 l123 0 l0 -575 l-343 0 l220 575 ZM968 0 l982 0 l0 295 l-655 0 l0 293 l618 0 l0 270 l-618 0 l0 290 l655 0 l0 295 l-1336 0 l-575 -1443 l363 0 l127 327 l439 0 l0 -327 Z" /><glyph glyph-name="" unicode="&#x152;" d="M791 1175 q156 -3 247 -124 q91 -121 93 -330 q-2 -209 -93 -330 q-91 -120 -247 -123 q-156 3 -247 123 q-91 121 -93 330 q2 209 93 330 q91 121 247 124 l0 0 ZM1180 0 l938 0 l0 296 l-617 0 l0 294 l580 0 l0 270 l-580 0 l0 287 l617 0 l0 296 l-938 0 l0 -247 q-58 135 -178 209 q-120 73 -279 74 q-286 -5 -464 -210 q-177 -205 -182 -548 q5 -341 181 -546 q176 -206 460 -211 q163 2 290 77 q126 75 172 199 l0 -240 Z" /><glyph glyph-name="" unicode="ð" d="M499 296 l0 304 l243 0 l0 252 l-243 0 l0 295 l173 0 q175 -1 271 -107 q95 -107 96 -311 q-1 -216 -94 -324 q-93 -109 -273 -109 l-173 0 ZM132 1443 l0 -591 l-80 0 l0 -252 l80 0 l0 -600 l589 0 q329 2 509 192 q180 190 182 538 q-2 346 -182 529 q-180 183 -509 184 l-589 0 Z" /><glyph glyph-name="" unicode="þ" d="M146 1443 l0 -1443 l367 0 l0 266 l252 0 q238 2 380 128 q142 127 145 350 q-3 226 -139 352 q-135 126 -363 128 l-273 0 l0 219 l-369 0 ZM513 942 l177 0 q109 0 169 -50 q59 -50 60 -148 q-1 -99 -61 -149 q-60 -51 -171 -51 l-174 0 l0 398 Z" /><glyph glyph-name="" unicode="&#x391;" d="M1058 0 l390 0 l-485 1443 l-449 0 l-485 -1443 l374 0 l92 317 l472 0 l91 -317 ZM727 1137 l8 0 l160 -556 l-329 0 l161 556 Z" /><glyph glyph-name="" unicode="&#x392;" d="M802 0 q234 2 368 113 q134 111 137 303 q-4 147 -102 242 q-98 94 -248 104 l0 8 q123 19 202 104 q78 85 81 209 q-2 169 -121 264 q-120 94 -335 96 l-675 0 l0 -1443 l693 0 ZM476 1183 l211 0 q93 -1 144 -43 q50 -42 51 -118 q-1 -79 -56 -122 q-56 -44 -157 -45 l-193 0 l0 328 ZM476 260 l0 372 l220 0 q115 0 176 -48 q61 -47 62 -136 q-1 -92 -61 -140 q-61 -48 -175 -48 l-222 0 Z" /><glyph glyph-name="" unicode="&#x393;" d="M476 0 l0 1147 l595 0 l0 296 l-962 0 l0 -1443 l367 0 Z" /><glyph glyph-name="" unicode="&#x394;" d="M1394 0 l0 196 l-447 1247 l-449 0 l-447 -1247 l0 -196 l1343 0 ZM430 303 l275 843 l7 0 l270 -843 l0 -8 l-552 0 l0 8 Z" /><glyph glyph-name="" unicode="&#x395;" d="M1098 296 l-622 0 l0 294 l585 0 l0 270 l-585 0 l0 287 l622 0 l0 296 l-989 0 l0 -1443 l989 0 l0 296 Z" /><glyph glyph-name="" unicode="&#x396;" d="M84 0 l1139 0 l0 296 l-705 0 l0 7 l683 907 l0 233 l-1106 0 l0 -296 l675 0 l0 -7 l-686 -907 l0 -233 Z" /><glyph glyph-name="" unicode="&#x397;" d="M1417 0 l0 1443 l-366 0 l0 -566 l-575 0 l0 566 l-367 0 l0 -1443 l367 0 l0 581 l575 0 l0 -581 l366 0 Z" /><glyph glyph-name="" unicode="&#x398;" d="M1043 585 l0 262 l-462 0 l0 -262 l462 0 ZM814 1468 q-360 -4 -552 -203 q-191 -200 -193 -543 q3 -345 197 -544 q194 -199 548 -203 q352 4 546 203 q194 199 197 544 q-2 343 -193 543 q-191 199 -550 203 l0 0 ZM814 1170 q180 -2 276 -118 q97 -117 98 -330 q-1 -214 -98 -331 q-96 -116 -276 -118 q-180 2 -277 118 q-97 117 -98 331 q1 213 98 330 q97 116 277 118 l0 0 Z" /><glyph glyph-name="" unicode="&#x399;" d="M476 0 l0 1443 l-367 0 l0 -1443 l367 0 Z" /><glyph glyph-name="" unicode="&#x39a;" d="M476 0 l0 408 l123 156 l368 -564 l431 0 l-532 802 l503 641 l-394 0 l-491 -634 l-8 0 l0 634 l-367 0 l0 -1443 l367 0 Z" /><glyph glyph-name="" unicode="&#x39b;" d="M1018 0 l405 0 l-473 1443 l-448 0 l-473 -1443 l390 0 l297 1119 l8 0 l294 -1119 Z" /><glyph glyph-name="" unicode="&#x39c;" d="M1693 0 l0 1443 l-424 0 l-364 -927 l-8 0 l-364 927 l-424 0 l0 -1443 l323 0 l0 901 l8 0 l356 -886 l210 0 l357 886 l7 0 l0 -901 l323 0 Z" /><glyph glyph-name="" unicode="&#x39d;" d="M457 0 l0 847 l8 0 l615 -847 l290 0 l0 1443 l-348 0 l0 -839 l-8 0 l-612 839 l-293 0 l0 -1443 l348 0 Z" /><glyph glyph-name="" unicode="&#x39e;" d="M98 1443 l0 -303 l1102 0 l0 303 l-1102 0 ZM1113 584 l0 279 l-928 0 l0 -279 l928 0 ZM98 303 l0 -303 l1102 0 l0 303 l-1102 0 Z" /><glyph glyph-name="" unicode="&#x39f;" d="M782 1468 q-331 -4 -520 -201 q-189 -197 -193 -546 q4 -348 192 -545 q189 -197 521 -201 q331 4 520 201 q188 197 192 545 q-4 349 -192 546 q-189 197 -520 201 l0 0 ZM782 1170 q156 -2 246 -121 q91 -119 93 -328 q-2 -208 -93 -327 q-90 -119 -246 -121 q-156 2 -247 121 q-90 119 -92 327 q2 209 93 328 q90 119 246 121 l0 0 Z" /><glyph glyph-name="" unicode="&#x3a0;" d="M1397 0 l0 1443 l-1288 0 l0 -1443 l367 0 l0 1148 l555 0 l0 -1148 l366 0 Z" /><glyph glyph-name="" unicode="&#x3a1;" d="M109 1443 l0 -1443 l367 0 l0 423 l243 0 q245 3 391 139 q147 136 151 370 q-3 235 -144 372 q-140 136 -375 139 l-633 0 ZM476 1162 l168 0 q116 0 181 -59 q64 -59 65 -172 q-1 -114 -65 -173 q-65 -59 -183 -59 l-166 0 l0 463 Z" /><glyph glyph-name="" unicode="&#x3a3;" d="M534 303 l311 426 l0 7 l-279 404 l0 7 l610 0 l0 296 l-1069 0 l0 -251 l340 -469 l-363 -510 l0 -213 l1116 0 l0 296 l-666 0 l0 7 Z" /><glyph glyph-name="" unicode="&#x3a4;" d="M813 0 l0 1147 l400 0 l0 296 l-1167 0 l0 -296 l400 0 l0 -1147 l367 0 Z" /><glyph glyph-name="" unicode="&#x3a5;" d="M893 0 l0 496 l497 947 l-387 0 l-286 -600 l-7 0 l-287 600 l-394 0 l497 -947 l0 -496 l367 0 Z" /><glyph glyph-name="" unicode="&#x3a6;" d="M1460 712 q-1 -179 -94 -284 q-94 -106 -266 -124 l0 816 q172 -19 266 -124 q93 -105 94 -284 l0 0 ZM411 712 q1 179 95 284 q93 105 265 124 l0 -816 q-172 18 -265 124 q-94 105 -95 284 l0 0 ZM1100 -131 l0 155 q321 19 515 204 q195 185 200 484 q-5 299 -200 484 q-194 185 -515 204 l0 155 l-329 0 l0 -155 q-321 -19 -515 -204 q-195 -185 -200 -484 q5 -299 200 -484 q194 -185 515 -204 l0 -155 l329 0 Z" /><glyph glyph-name="" unicode="&#x3a7;" d="M42 0 l390 0 l281 468 l8 0 l280 -468 l412 0 l-455 720 l0 7 l459 716 l-407 0 l-267 -488 l-7 0 l-265 488 l-428 0 l440 -712 l0 -8 l-441 -723 Z" /><glyph glyph-name="" unicode="&#x3a8;" d="M1042 0 l0 293 q289 10 448 171 q159 162 161 442 l0 537 l-344 0 l0 -544 q0 -144 -65 -224 q-65 -80 -200 -94 l0 862 l-344 0 l0 -862 q-135 14 -200 94 q-65 80 -65 224 l0 544 l-344 0 l0 -537 q2 -280 161 -441 q159 -162 448 -172 l0 -293 l344 0 Z" /><glyph glyph-name="" unicode="&#x3a9;" d="M1146 785 q-1 -156 -62 -260 q-61 -105 -176 -171 l0 -354 l604 0 l0 280 l-282 0 l0 7 q127 72 204 209 q76 136 78 320 q-5 295 -199 472 q-195 176 -520 180 q-325 -4 -520 -180 q-194 -177 -199 -472 q2 -184 78 -320 q77 -137 204 -209 l0 -7 l-282 0 l0 -280 l604 0 l0 354 q-115 66 -176 171 q-61 104 -62 260 q2 184 98 284 q96 100 255 101 q159 -1 255 -101 q96 -100 98 -284 l0 0 Z" /><glyph glyph-name="" unicode="&#x386;" d="M1192 0 l390 0 l-485 1443 l-449 0 l-485 -1443 l374 0 l92 317 l472 0 l91 -317 ZM861 1137 l8 0 l160 -556 l-329 0 l161 556 ZM79 1109 l263 0 l164 334 l-352 0 l-75 -334 Z" /><glyph glyph-name="" unicode="&#x388;" d="M29 1109 l263 0 l164 334 l-352 0 l-75 -334 ZM1572 296 l-622 0 l0 294 l585 0 l0 270 l-585 0 l0 287 l622 0 l0 296 l-989 0 l0 -1443 l989 0 l0 296 Z" /><glyph glyph-name="" unicode="&#x389;" d="M29 1109 l263 0 l164 334 l-352 0 l-75 -334 ZM1891 0 l0 1443 l-366 0 l0 -566 l-575 0 l0 566 l-367 0 l0 -1443 l367 0 l0 581 l575 0 l0 -581 l366 0 Z" /><glyph glyph-name="" unicode="&#x38a;" d="M950 0 l0 1443 l-367 0 l0 -1443 l367 0 ZM29 1109 l263 0 l164 334 l-352 0 l-75 -334 Z" /><glyph glyph-name="" unicode="&#x3aa;" d="M476 0 l0 1443 l-367 0 l0 -1443 l367 0 ZM76 1547 q65 2 106 42 q41 40 42 99 q-1 60 -42 100 q-41 40 -106 41 q-64 -1 -105 -41 q-41 -40 -42 -100 q1 -59 42 -99 q41 -40 105 -42 l0 0 ZM509 1547 q65 2 105 42 q41 40 42 99 q-1 60 -42 100 q-40 40 -105 41 q-65 -1 -105 -41 q-41 -40 -42 -100 q1 -59 42 -99 q40 -40 105 -42 l0 0 Z" /><glyph glyph-name="" unicode="&#x38c;" d="M1073 1468 q-331 -4 -520 -201 q-189 -197 -193 -546 q4 -348 192 -545 q189 -197 521 -201 q331 4 520 201 q188 197 192 545 q-4 349 -192 546 q-189 197 -520 201 l0 0 ZM1073 1170 q156 -2 246 -121 q91 -119 93 -328 q-2 -208 -93 -327 q-90 -119 -246 -121 q-156 2 -247 121 q-90 119 -92 327 q2 209 93 328 q90 119 246 121 l0 0 ZM24 1109 l263 0 l164 334 l-352 0 l-75 -334 Z" /><glyph glyph-name="" unicode="&#x38e;" d="M25 1109 l263 0 l164 334 l-352 0 l-75 -334 ZM1381 0 l0 496 l497 947 l-387 0 l-286 -600 l-7 0 l-287 600 l-394 0 l497 -947 l0 -496 l367 0 Z" /><glyph glyph-name="" unicode="&#x3ab;" d="M893 0 l0 496 l497 947 l-387 0 l-286 -600 l-7 0 l-287 600 l-394 0 l497 -947 l0 -496 l367 0 ZM493 1547 q65 2 106 42 q41 40 42 99 q-1 60 -42 100 q-41 40 -106 41 q-64 -1 -105 -41 q-41 -40 -42 -100 q1 -59 42 -99 q41 -40 105 -42 l0 0 ZM926 1547 q65 2 105 42 q41 40 42 99 q-1 60 -42 100 q-40 40 -105 41 q-65 -1 -105 -41 q-41 -40 -42 -100 q1 -59 42 -99 q40 -40 105 -42 l0 0 Z" /><glyph glyph-name="" unicode="&#x38f;" d="M1449 785 q-1 -156 -62 -260 q-61 -105 -176 -171 l0 -354 l604 0 l0 280 l-282 0 l0 7 q127 72 204 209 q76 136 78 320 q-5 295 -199 472 q-195 176 -520 180 q-325 -4 -520 -180 q-194 -177 -199 -472 q2 -184 78 -320 q77 -137 204 -209 l0 -7 l-282 0 l0 -280 l604 0 l0 354 q-115 66 -176 171 q-61 104 -62 260 q2 184 98 284 q96 100 255 101 q159 -1 255 -101 q96 -100 98 -284 l0 0 ZM31 1109 l263 0 l164 334 l-352 0 l-75 -334 Z" /><glyph glyph-name="" unicode="&#x410;" d="M1068 0 l390 0 l-485 1443 l-449 0 l-485 -1443 l374 0 l92 317 l472 0 l91 -317 ZM737 1137 l8 0 l160 -556 l-329 0 l161 556 Z" /><glyph glyph-name="" unicode="&#x4d0;" d="M1068 0 l390 0 l-485 1443 l-449 0 l-485 -1443 l374 0 l92 317 l472 0 l91 -317 ZM737 1137 l8 0 l160 -556 l-329 0 l161 556 ZM369 1870 q3 -147 102 -230 q99 -83 264 -85 q165 2 264 85 q99 83 102 230 l-204 0 q-3 -72 -47 -111 q-43 -39 -115 -40 q-72 1 -115 40 q-44 39 -47 111 l-204 0 Z" /><glyph glyph-name="" unicode="&#x4d2;" d="M1068 0 l390 0 l-485 1443 l-449 0 l-485 -1443 l374 0 l92 317 l472 0 l91 -317 ZM737 1137 l8 0 l160 -556 l-329 0 l161 556 ZM531 1547 q65 2 106 42 q41 40 42 99 q-1 60 -42 100 q-41 40 -106 41 q-64 -1 -105 -41 q-41 -40 -42 -100 q1 -59 42 -99 q41 -40 105 -42 l0 0 ZM964 1547 q65 2 105 42 q41 40 42 99 q-1 60 -42 100 q-40 40 -105 41 q-65 -1 -105 -41 q-41 -40 -42 -100 q1 -59 42 -99 q40 -40 105 -42 l0 0 Z" /><glyph glyph-name="" unicode="&#x411;" d="M1266 466 q-4 207 -148 328 q-145 121 -386 124 l-246 0 l0 230 l653 0 l0 295 l-1020 0 l0 -1443 l628 0 q235 3 375 127 q141 124 144 339 l0 0 ZM486 283 l0 369 l169 0 q113 0 174 -47 q62 -47 63 -138 q-1 -91 -62 -137 q-62 -47 -173 -47 l-171 0 Z" /><glyph glyph-name="" unicode="&#x412;" d="M812 0 q234 2 368 113 q134 111 137 303 q-4 147 -102 242 q-98 94 -248 104 l0 8 q123 19 202 104 q78 85 81 209 q-2 169 -121 264 q-120 94 -335 96 l-675 0 l0 -1443 l693 0 ZM486 1183 l211 0 q93 -1 144 -43 q50 -42 51 -118 q-1 -79 -56 -122 q-56 -44 -157 -45 l-193 0 l0 328 ZM486 260 l0 372 l220 0 q115 0 176 -48 q61 -47 62 -136 q-1 -92 -61 -140 q-61 -48 -175 -48 l-222 0 Z" /><glyph glyph-name="" unicode="&#x413;" d="M486 0 l0 1148 l603 0 l0 295 l-970 0 l0 -1443 l367 0 Z" /><glyph glyph-name="" unicode="&#x403;" d="M761 1531 l276 316 l-313 0 l-232 -316 l269 0 ZM486 0 l0 1148 l603 0 l0 295 l-970 0 l0 -1443 l367 0 Z" /><glyph glyph-name="" unicode="&#x490;" d="M486 1148 l603 0 l0 580 l-345 0 l0 -285 l-625 0 l0 -1443 l367 0 l0 1148 Z" /><glyph glyph-name="" unicode="&#x4f6;" d="M1089 1148 l0 295 l-970 0 l0 -1443 l11 0 l217 0 l0 -285 l329 0 l0 580 l-190 0 l0 853 l603 0 Z" /><glyph glyph-name="" unicode="&#x492;" d="M1120 1148 l0 295 l-970 0 l0 -618 l-80 0 l0 -247 l80 0 l0 -578 l367 0 l0 578 l409 0 l0 247 l-409 0 l0 323 l603 0 Z" /><glyph glyph-name="" unicode="&#x4fa;" d="M1120 1148 l0 295 l-970 0 l0 -618 l-73 0 l0 -247 l73 0 l0 -578 l1 0 q-1 -54 -31 -78 q-31 -24 -98 -24 q-10 0 -22 0 q-13 1 -20 2 l0 -254 q15 -2 46 -4 q31 -1 56 -1 q206 1 320 91 q113 89 115 261 l0 7 l0 383 l0 195 l516 0 l0 247 l-516 0 l0 323 l603 0 Z" /><glyph glyph-name="" unicode="&#x414;" d="M590 644 l33 505 l405 0 l0 -853 l-531 0 l0 8 q45 52 66 137 q20 84 27 203 l0 0 ZM352 0 l893 0 l0 -285 l329 0 l0 581 l-180 0 l0 1147 l-1092 0 l-47 -767 q-8 -147 -36 -236 q-27 -89 -99 -144 l-98 0 l0 -581 l330 0 l0 285 Z" /><glyph glyph-name="" unicode="&#x415;" d="M1108 296 l-622 0 l0 294 l585 0 l0 270 l-585 0 l0 287 l622 0 l0 296 l-989 0 l0 -1443 l989 0 l0 296 Z" /><glyph glyph-name="" unicode="&#x401;" d="M396 1547 q65 2 106 42 q41 40 42 99 q-1 60 -42 100 q-41 40 -106 41 q-64 -1 -105 -41 q-41 -40 -42 -100 q1 -59 42 -99 q41 -40 105 -42 l0 0 ZM829 1547 q65 2 105 42 q41 40 42 99 q-1 60 -42 100 q-40 40 -105 41 q-65 -1 -105 -41 q-41 -40 -42 -100 q1 -59 42 -99 q40 -40 105 -42 l0 0 ZM1108 296 l-622 0 l0 294 l585 0 l0 270 l-585 0 l0 287 l622 0 l0 296 l-989 0 l0 -1443 l989 0 l0 296 Z" /><glyph glyph-name="" unicode="&#x4d6;" d="M242 1870 q3 -147 102 -230 q99 -83 264 -85 q165 2 264 85 q99 83 102 230 l-204 0 q-3 -72 -47 -111 q-43 -39 -115 -40 q-72 1 -115 40 q-44 39 -47 111 l-204 0 ZM1108 296 l-622 0 l0 294 l585 0 l0 270 l-585 0 l0 287 l622 0 l0 296 l-989 0 l0 -1443 l989 0 l0 296 Z" /><glyph glyph-name="" unicode="&#x400;" d="M484 1561 l269 0 l-232 316 l-313 0 l276 -316 ZM1108 296 l-622 0 l0 294 l585 0 l0 270 l-585 0 l0 287 l622 0 l0 296 l-989 0 l0 -1443 l989 0 l0 296 Z" /><glyph glyph-name="" unicode="&#x416;" d="M1549 761 l518 682 l-397 0 l-430 -583 l-8 0 l0 583 l-354 0 l0 -583 l-8 0 l-430 583 l-401 0 l522 -687 l-545 -756 l431 0 l423 599 l8 0 l0 -599 l354 0 l0 599 l8 0 l422 -599 l437 0 l-550 761 Z" /><glyph glyph-name="" unicode="&#x4c1;" d="M1224 1865 q-3 -70 -47 -114 q-43 -44 -120 -45 q-77 1 -120 45 q-43 44 -47 114 l-208 0 q5 -138 101 -230 q96 -92 274 -96 q178 4 274 96 q96 92 101 230 l-208 0 ZM1549 761 l518 682 l-397 0 l-430 -583 l-8 0 l0 583 l-354 0 l0 -583 l-8 0 l-430 583 l-401 0 l522 -687 l-545 -756 l431 0 l423 599 l8 0 l0 -599 l354 0 l0 599 l8 0 l422 -599 l437 0 l-550 761 Z" /><glyph glyph-name="" unicode="&#x4dc;" d="M1273 1547 q65 2 105 42 q41 40 42 99 q-1 60 -42 100 q-40 40 -105 41 q-65 -1 -105 -41 q-41 -40 -42 -100 q1 -59 42 -99 q40 -40 105 -42 l0 0 ZM840 1547 q65 2 106 42 q41 40 42 99 q-1 60 -42 100 q-41 40 -106 41 q-64 -1 -105 -41 q-41 -40 -42 -100 q1 -59 42 -99 q41 -40 105 -42 l0 0 ZM1549 761 l518 682 l-397 0 l-430 -583 l-8 0 l0 583 l-354 0 l0 -583 l-8 0 l-430 583 l-401 0 l522 -687 l-545 -756 l431 0 l423 599 l8 0 l0 -599 l354 0 l0 599 l8 0 l422 -599 l437 0 l-550 761 Z" /><glyph glyph-name="" unicode="&#x496;" d="M1886 295 l-337 466 l518 682 l-397 0 l-430 -583 l-8 0 l0 583 l-354 0 l0 -583 l-8 0 l-430 583 l-401 0 l522 -687 l-545 -756 l431 0 l423 599 l8 0 l0 -599 l354 0 l0 599 l8 0 l422 -599 l12 0 l100 0 l0 -285 l330 0 l0 580 l-218 0 Z" /><glyph glyph-name="" unicode="&#x417;" d="M473 600 l189 0 q108 -1 168 -45 q60 -44 61 -123 q-1 -82 -62 -131 q-60 -50 -162 -51 q-111 1 -176 48 q-65 47 -70 130 l-350 0 q13 -215 171 -340 q157 -124 418 -127 q273 3 438 124 q165 120 169 319 q-2 146 -87 239 q-86 92 -235 110 l0 8 q124 25 198 113 q74 88 76 214 q-3 180 -151 286 q-148 106 -399 108 q-259 -2 -410 -125 q-152 -123 -159 -337 l334 0 q4 86 65 136 q60 50 162 51 q101 -1 157 -44 q56 -44 57 -121 q-1 -77 -58 -122 q-58 -45 -155 -46 l-189 0 l0 -274 Z" /><glyph glyph-name="" unicode="&#x4de;" d="M453 1547 q65 2 106 42 q41 40 42 99 q-1 60 -42 100 q-41 40 -106 41 q-64 -1 -105 -41 q-41 -40 -42 -100 q1 -59 42 -99 q41 -40 105 -42 l0 0 ZM886 1547 q65 2 105 42 q41 40 42 99 q-1 60 -42 100 q-40 40 -105 41 q-65 -1 -105 -41 q-41 -40 -42 -100 q1 -59 42 -99 q40 -40 105 -42 l0 0 ZM473 600 l189 0 q108 -1 168 -45 q60 -44 61 -123 q-1 -82 -62 -131 q-60 -50 -162 -51 q-111 1 -176 48 q-65 47 -70 130 l-350 0 q13 -215 171 -340 q157 -124 418 -127 q273 3 438 124 q165 120 169 319 q-2 146 -87 239 q-86 92 -235 110 l0 8 q124 25 198 113 q74 88 76 214 q-3 180 -151 286 q-148 106 -399 108 q-259 -2 -410 -125 q-152 -123 -159 -337 l334 0 q4 86 65 136 q60 50 162 51 q101 -1 157 -44 q56 -44 57 -121 q-1 -77 -58 -122 q-58 -45 -155 -46 l-189 0 l0 -274 Z" /><glyph glyph-name="" unicode="&#x498;" d="M945 761 q124 25 198 113 q74 88 76 214 q-3 180 -151 286 q-148 106 -399 108 q-259 -2 -410 -125 q-152 -123 -159 -337 l334 0 q4 86 65 136 q60 50 162 51 q101 -1 157 -44 q56 -44 57 -121 q-1 -77 -58 -122 q-58 -45 -155 -46 l-189 0 l0 -274 l189 0 q108 -1 168 -45 q60 -44 61 -123 q-1 -82 -62 -131 q-60 -50 -162 -51 q-111 1 -176 48 q-65 47 -70 130 l-350 0 q10 -184 129 -303 q119 -119 321 -153 l0 -257 l330 0 l0 265 q192 42 303 153 q111 111 113 271 q-2 146 -87 239 q-86 92 -235 110 l0 8 Z" /><glyph glyph-name="" unicode="&#x418;" d="M1069 0 l366 0 l0 1443 l-351 0 l-589 -885 l-10 0 l0 885 l-366 0 l0 -1443 l351 0 l589 884 l10 0 l0 -884 Z" /><glyph glyph-name="" unicode="&#x419;" d="M411 1832 q3 -147 102 -230 q99 -83 264 -85 q165 2 264 85 q99 83 102 230 l-204 0 q-3 -72 -47 -111 q-43 -39 -115 -40 q-72 1 -115 40 q-44 39 -47 111 l-204 0 ZM1069 0 l366 0 l0 1443 l-351 0 l-589 -885 l-10 0 l0 885 l-366 0 l0 -1443 l351 0 l589 884 l10 0 l0 -884 Z" /><glyph glyph-name="" unicode="&#x40d;" d="M668 1554 l269 0 l-232 316 l-313 0 l276 -316 ZM1069 0 l366 0 l0 1443 l-351 0 l-589 -885 l-10 0 l0 885 l-366 0 l0 -1443 l351 0 l589 884 l10 0 l0 -884 Z" /><glyph glyph-name="" unicode="&#x4e2;" d="M1069 0 l366 0 l0 1443 l-351 0 l-589 -885 l-10 0 l0 885 l-366 0 l0 -1443 l351 0 l589 884 l10 0 l0 -884 ZM1130 1777 l-722 0 l0 -163 l722 0 l0 163 Z" /><glyph glyph-name="" unicode="&#x4e4;" d="M549 1547 q65 2 106 42 q41 40 42 99 q-1 60 -42 100 q-41 40 -106 41 q-64 -1 -105 -41 q-41 -40 -42 -100 q1 -59 42 -99 q41 -40 105 -42 l0 0 ZM982 1547 q65 2 105 42 q41 40 42 99 q-1 60 -42 100 q-40 40 -105 41 q-65 -1 -105 -41 q-41 -40 -42 -100 q1 -59 42 -99 q40 -40 105 -42 l0 0 ZM1069 0 l366 0 l0 1443 l-351 0 l-589 -885 l-10 0 l0 885 l-366 0 l0 -1443 l351 0 l589 884 l10 0 l0 -884 Z" /><glyph glyph-name="" unicode="&#x48a;" d="M939 1832 q-3 -72 -47 -111 q-43 -39 -115 -40 q-72 1 -115 40 q-44 39 -47 111 l-204 0 q3 -147 102 -230 q99 -83 264 -85 q165 2 264 85 q99 83 102 230 l-204 0 ZM1435 295 l0 1148 l-351 0 l-589 -885 l-10 0 l0 885 l-366 0 l0 -1443 l351 0 l589 884 l10 0 l0 -589 l0 -295 l178 0 l-81 -285 l319 0 l128 512 l0 68 l-178 0 Z" /><glyph glyph-name="" unicode="&#x41a;" d="M815 763 l567 680 l-401 0 l-487 -583 l-8 0 l0 583 l-367 0 l0 -1443 l367 0 l0 599 l8 0 l479 -599 l445 0 l-603 763 Z" /><glyph glyph-name="" unicode="&#x40c;" d="M1142 1847 l-313 0 l-232 -316 l269 0 l276 316 ZM815 763 l567 680 l-401 0 l-487 -583 l-8 0 l0 583 l-367 0 l0 -1443 l367 0 l0 599 l8 0 l479 -599 l445 0 l-603 763 Z" /><glyph glyph-name="" unicode="&#x49a;" d="M1185 295 l-370 468 l567 680 l-401 0 l-487 -583 l-8 0 l0 583 l-367 0 l0 -1443 l367 0 l0 599 l8 0 l479 -599 l11 0 l109 0 l0 -285 l330 0 l0 580 l-238 0 Z" /><glyph glyph-name="" unicode="&#x49c;" d="M1120 733 l369 710 l-360 0 l-321 -612 l-12 0 l0 288 l-207 0 l0 -288 l-103 0 l0 612 l-367 0 l0 -1443 l367 0 l0 570 l103 0 l0 -277 l207 0 l0 277 l14 0 l310 -570 l402 0 l-402 733 Z" /><glyph glyph-name="" unicode="&#x49e;" d="M877 761 l586 682 l-401 0 l-499 -576 l-16 0 l0 209 l150 0 l0 241 l-150 0 l0 126 l-367 0 l0 -126 l-143 0 l0 -241 l143 0 l0 -1076 l367 0 l0 590 l16 0 l491 -590 l443 0 l-620 761 Z" /><glyph glyph-name="" unicode="&#x4a0;" d="M1304 763 l567 680 l-401 0 l-487 -583 l-8 0 l0 289 l0 294 l-367 0 l-552 0 l0 -294 l552 0 l0 -1149 l367 0 l0 599 l8 0 l479 -599 l445 0 l-603 763 Z" /><glyph glyph-name="" unicode="&#x4c3;" d="M1429 1443 l-393 0 l-492 -604 l-8 0 l0 604 l-366 0 l0 -1443 l366 0 l0 544 l25 0 q201 -3 318 -99 q117 -97 120 -257 q-1 -132 -75 -225 q-75 -93 -212 -97 q-27 0 -49 2 q-22 1 -40 5 l0 -283 q25 -6 64 -10 q39 -4 84 -4 q268 6 430 180 q163 173 167 442 q-1 205 -124 362 q-122 157 -347 230 l532 653 Z" /><glyph glyph-name="" unicode="&#x41b;" d="M1390 0 l0 1443 l-1057 0 l-38 -830 q-5 -140 -43 -221 q-38 -80 -136 -82 q-23 0 -43 3 q-19 3 -31 6 l0 -319 q16 -5 50 -9 q34 -5 79 -5 q235 3 341 162 q107 159 118 438 l29 562 l365 0 l0 -1148 l366 0 Z" /><glyph glyph-name="" unicode="&#x4c5;" d="M1390 295 l0 1148 l-1057 0 l-38 -830 q-5 -140 -43 -221 q-38 -80 -136 -82 q-23 0 -43 3 q-19 3 -31 6 l0 -319 q16 -5 50 -9 q34 -5 79 -5 q235 3 341 162 q107 159 118 438 l29 562 l365 0 l0 -853 l0 -295 l177 0 l-80 -285 l319 0 l128 512 l0 68 l-178 0 Z" /><glyph glyph-name="" unicode="&#x52e;" d="M1390 295 l0 1148 l-1057 0 l-38 -830 q-5 -140 -43 -221 q-38 -80 -136 -82 q-23 0 -43 3 q-19 3 -31 6 l0 -319 q16 -5 50 -9 q34 -5 79 -5 q235 3 341 162 q107 159 118 438 l29 562 l365 0 l0 -853 l0 -295 l216 0 l0 -285 l330 0 l0 580 l-180 0 Z" /><glyph glyph-name="" unicode="&#x512;" d="M333 1443 l-38 -830 q-5 -140 -43 -221 q-38 -80 -136 -82 q-23 0 -43 3 q-19 3 -31 6 l0 -319 q16 -5 50 -9 q34 -5 79 -5 q235 3 341 162 q107 159 118 438 l29 562 l365 0 l0 -754 l0 -388 q1 -57 -30 -82 q-31 -26 -100 -26 q-10 0 -22 0 q-12 1 -20 2 l0 -254 q16 -2 47 -4 q31 -1 56 -1 q211 1 323 91 q111 89 112 261 l0 7 l0 394 l0 1049 l-1057 0 Z" /><glyph glyph-name="" unicode="&#x41c;" d="M1703 0 l0 1443 l-424 0 l-364 -927 l-8 0 l-364 927 l-424 0 l0 -1443 l323 0 l0 901 l8 0 l356 -886 l210 0 l357 886 l7 0 l0 -901 l323 0 Z" /><glyph glyph-name="" unicode="&#x4cd;" d="M1703 295 l0 1148 l-424 0 l-364 -927 l-8 0 l-364 927 l-424 0 l0 -1443 l323 0 l0 901 l8 0 l356 -886 l210 0 l357 886 l7 0 l0 -606 l0 -295 l178 0 l-80 -285 l319 0 l128 512 l0 68 l-222 0 Z" /><glyph glyph-name="" unicode="&#x41d;" d="M1427 0 l0 1443 l-366 0 l0 -566 l-575 0 l0 566 l-367 0 l0 -1443 l367 0 l0 581 l575 0 l0 -581 l366 0 Z" /><glyph glyph-name="" unicode="&#x4c7;" d="M1061 1443 l0 -566 l-575 0 l0 566 l-367 0 l0 -1443 l367 0 l0 581 l575 0 l0 -198 l0 -377 q1 -57 -30 -82 q-31 -26 -99 -26 q-10 0 -22 0 q-13 1 -20 2 l0 -254 q15 -2 46 -4 q31 -1 56 -1 q211 1 323 91 q111 89 112 261 l0 7 l0 383 l0 1060 l-366 0 Z" /><glyph glyph-name="" unicode="&#x4a2;" d="M1427 295 l0 1148 l-366 0 l0 -566 l-575 0 l0 566 l-367 0 l0 -1443 l367 0 l0 581 l575 0 l0 -286 l0 -295 l217 0 l0 -285 l329 0 l0 580 l-180 0 Z" /><glyph glyph-name="" unicode="&#x4c9;" d="M1427 295 l0 1148 l-366 0 l0 -566 l-575 0 l0 566 l-367 0 l0 -1443 l367 0 l0 581 l575 0 l0 -286 l0 -295 l177 0 l-80 -285 l319 0 l128 512 l0 68 l-178 0 Z" /><glyph glyph-name="" unicode="&#x4a4;" d="M2030 1443 l-603 0 l-366 0 l0 -294 l0 -272 l-575 0 l0 566 l-367 0 l0 -1443 l367 0 l0 581 l575 0 l0 -581 l366 0 l0 1149 l603 0 l0 294 Z" /><glyph glyph-name="" unicode="&#x41e;" d="M792 1468 q-331 -4 -520 -201 q-189 -197 -193 -546 q4 -348 192 -545 q189 -197 521 -201 q331 4 520 201 q188 197 192 545 q-4 349 -192 546 q-189 197 -520 201 l0 0 ZM792 1170 q156 -2 246 -121 q91 -119 93 -328 q-2 -208 -93 -327 q-90 -119 -246 -121 q-156 2 -247 121 q-90 119 -92 327 q2 209 93 328 q90 119 246 121 l0 0 Z" /><glyph glyph-name="" unicode="&#x4e6;" d="M575 1547 q65 2 106 42 q41 40 42 99 q-1 60 -42 100 q-41 40 -106 41 q-64 -1 -105 -41 q-41 -40 -42 -100 q1 -59 42 -99 q41 -40 105 -42 l0 0 ZM1008 1547 q65 2 105 42 q41 40 42 99 q-1 60 -42 100 q-40 40 -105 41 q-65 -1 -105 -41 q-41 -40 -42 -100 q1 -59 42 -99 q40 -40 105 -42 l0 0 ZM792 1468 q-331 -4 -520 -201 q-189 -197 -193 -546 q4 -348 192 -545 q189 -197 521 -201 q331 4 520 201 q188 197 192 545 q-4 349 -192 546 q-189 197 -520 201 l0 0 ZM792 1170 q156 -2 246 -121 q91 -119 93 -328 q-2 -208 -93 -327 q-90 -119 -246 -121 q-156 2 -247 121 q-90 119 -92 327 q2 209 93 328 q90 119 246 121 l0 0 Z" /><glyph glyph-name="" unicode="&#x4e8;" d="M1121 592 q-28 -155 -114 -242 q-87 -88 -216 -89 q-130 1 -216 89 q-87 87 -115 242 l661 0 ZM463 867 q30 148 116 231 q86 83 212 84 q126 -1 212 -84 q85 -83 115 -231 l-655 0 ZM791 1482 q-329 -4 -518 -204 q-190 -201 -194 -556 q4 -356 193 -557 q188 -200 519 -204 q330 4 519 204 q188 201 192 557 q-4 355 -193 556 q-189 200 -518 204 l0 0 Z" /><glyph glyph-name="" unicode="&#x4ea;" d="M1008 1547 q65 2 105 42 q41 40 42 99 q-1 60 -42 100 q-40 40 -105 41 q-65 -1 -105 -41 q-41 -40 -42 -100 q1 -59 42 -99 q40 -40 105 -42 l0 0 ZM575 1547 q65 2 106 42 q41 40 42 99 q-1 60 -42 100 q-41 40 -106 41 q-64 -1 -105 -41 q-41 -40 -42 -100 q1 -59 42 -99 q41 -40 105 -42 l0 0 ZM1121 592 q-28 -155 -114 -242 q-87 -88 -216 -89 q-130 1 -216 89 q-87 87 -115 242 l661 0 ZM463 867 q30 148 116 231 q86 83 212 84 q126 -1 212 -84 q85 -83 115 -231 l-655 0 ZM791 1482 q-329 -4 -518 -204 q-190 -201 -194 -556 q4 -356 193 -557 q188 -200 519 -204 q330 4 519 204 q188 201 192 557 q-4 355 -193 556 q-189 200 -518 204 l0 0 Z" /><glyph glyph-name="" unicode="&#x472;" d="M791 261 q-127 1 -212 85 q-86 83 -116 231 q17 21 52 37 q35 15 86 16 q88 -5 169 -37 q82 -33 189 -38 q45 0 87 15 q43 15 79 45 q-24 -166 -111 -259 q-88 -93 -223 -95 l0 0 ZM791 1182 q126 -1 211 -83 q85 -81 116 -228 q-17 -22 -54 -37 q-36 -16 -89 -17 q-91 5 -172 38 q-82 32 -191 37 q-44 0 -83 -14 q-39 -15 -72 -42 q26 163 113 254 q88 91 221 92 l0 0 ZM791 1482 q-329 -4 -518 -204 q-190 -201 -194 -556 q4 -356 193 -557 q188 -200 519 -204 q330 4 519 204 q188 201 192 557 q-4 355 -193 556 q-189 200 -518 204 l0 0 Z" /><glyph glyph-name="" unicode="&#x41f;" d="M1415 0 l0 1443 l-1296 0 l0 -1443 l367 0 l0 1148 l563 0 l0 -1148 l366 0 Z" /><glyph glyph-name="" unicode="&#x524;" d="M1415 295 l0 1148 l-1296 0 l0 -1443 l367 0 l0 1148 l563 0 l0 -853 l0 -295 l216 0 l0 -285 l330 0 l0 580 l-180 0 Z" /><glyph glyph-name="" unicode="&#x40f;" d="M595 0 l0 -285 l345 0 l0 285 l475 0 l0 1443 l-367 0 l0 -1148 l-562 0 l0 1148 l-367 0 l0 -1443 l476 0 Z" /><glyph glyph-name="" unicode="&#x420;" d="M119 1443 l0 -1443 l367 0 l0 423 l243 0 q245 3 391 139 q147 136 151 370 q-3 235 -144 372 q-140 136 -375 139 l-633 0 ZM486 1162 l168 0 q116 0 181 -59 q64 -59 65 -172 q-1 -114 -65 -173 q-65 -59 -183 -59 l-166 0 l0 463 Z" /><glyph glyph-name="" unicode="&#x48e;" d="M483 696 l0 465 l169 0 q119 0 184 -58 q65 -59 66 -173 q0 -49 -12 -88 q-13 -38 -36 -67 l-115 175 l-156 -100 l98 -153 q-8 -1 -16 -1 q-8 0 -16 0 l-166 0 ZM117 1443 l0 -1443 l366 0 l0 425 l215 0 q62 0 117 9 l146 -225 l208 143 l-113 171 q101 68 156 173 q55 104 56 235 q-3 235 -143 372 q-140 137 -376 140 l-632 0 Z" /><glyph glyph-name="" unicode="&#x421;" d="M780 -36 q274 3 449 150 q175 146 204 395 l-357 0 q-26 -113 -103 -176 q-78 -63 -192 -64 q-153 2 -240 121 q-86 119 -88 333 q2 212 89 331 q86 118 238 120 q113 -1 192 -67 q78 -65 103 -179 l356 0 q-27 246 -205 397 q-177 150 -446 154 q-326 -3 -512 -202 q-185 -199 -189 -555 q3 -357 189 -556 q185 -199 512 -202 l0 0 Z" /><glyph glyph-name="" unicode="&#x4aa;" d="M1082 544 q-19 -128 -99 -201 q-80 -73 -202 -74 q-153 2 -240 121 q-86 119 -88 333 q2 212 89 331 q86 118 238 120 q123 -2 204 -77 q81 -76 96 -205 l353 0 q-14 260 -194 416 q-180 156 -459 160 q-326 -2 -512 -196 q-185 -194 -189 -550 q3 -329 162 -520 q159 -192 444 -222 l-46 -92 l0 -114 l56 0 q61 0 87 -11 q26 -12 25 -40 q0 -23 -24 -34 q-24 -11 -76 -11 q-29 0 -58 3 q-28 3 -47 9 l0 -131 q24 -7 59 -11 q36 -4 78 -4 q123 0 187 49 q65 49 65 142 q-1 76 -47 119 q-46 43 -126 44 l38 80 q253 25 408 174 q155 150 171 392 l-353 0 Z" /><glyph glyph-name="" unicode="&#x422;" d="M823 0 l0 1147 l400 0 l0 296 l-1167 0 l0 -296 l400 0 l0 -1147 l367 0 Z" /><glyph glyph-name="" unicode="&#x4ac;" d="M1223 1147 l0 296 l-1167 0 l0 -296 l400 0 l0 -852 l0 -295 l217 0 l0 -285 l330 0 l0 580 l-180 0 l0 852 l400 0 Z" /><glyph glyph-name="" unicode="&#x423;" d="M380 -15 q207 1 329 109 q123 109 209 319 l442 1030 l-387 0 l-259 -732 l-10 0 l-277 732 l-388 0 l471 -1080 q-35 -48 -81 -65 q-47 -17 -105 -16 q-46 0 -67 4 q-22 4 -25 5 l0 -290 q5 -2 47 -9 q42 -6 101 -7 l0 0 Z" /><glyph glyph-name="" unicode="&#x40e;" d="M342 1832 q3 -147 102 -230 q99 -83 264 -85 q165 2 264 85 q99 83 102 230 l-204 0 q-3 -72 -47 -111 q-43 -39 -115 -40 q-72 1 -115 40 q-44 39 -47 111 l-204 0 ZM380 -15 q207 1 329 109 q123 109 209 319 l442 1030 l-387 0 l-259 -732 l-10 0 l-277 732 l-388 0 l471 -1080 q-35 -48 -81 -65 q-47 -17 -105 -16 q-46 0 -67 4 q-22 4 -25 5 l0 -290 q5 -2 47 -9 q42 -6 101 -7 l0 0 Z" /><glyph glyph-name="" unicode="&#x4ee;" d="M380 -15 q207 1 329 109 q123 109 209 319 l442 1030 l-387 0 l-259 -732 l-10 0 l-277 732 l-388 0 l471 -1080 q-35 -48 -81 -65 q-47 -17 -105 -16 q-46 0 -67 4 q-22 4 -25 5 l0 -290 q5 -2 47 -9 q42 -6 101 -7 l0 0 ZM1069 1779 l-722 0 l0 -163 l722 0 l0 163 Z" /><glyph glyph-name="" unicode="&#x4f0;" d="M491 1547 q65 2 106 42 q41 40 42 99 q-1 60 -42 100 q-41 40 -106 41 q-64 -1 -105 -41 q-41 -40 -42 -100 q1 -59 42 -99 q41 -40 105 -42 l0 0 ZM924 1547 q65 2 105 42 q41 40 42 99 q-1 60 -42 100 q-40 40 -105 41 q-65 -1 -105 -41 q-41 -40 -42 -100 q1 -59 42 -99 q40 -40 105 -42 l0 0 ZM380 -15 q207 1 329 109 q123 109 209 319 l442 1030 l-387 0 l-259 -732 l-10 0 l-277 732 l-388 0 l471 -1080 q-35 -48 -81 -65 q-47 -17 -105 -16 q-46 0 -67 4 q-22 4 -25 5 l0 -290 q5 -2 47 -9 q42 -6 101 -7 l0 0 Z" /><glyph glyph-name="" unicode="&#x4f2;" d="M380 -15 q207 1 329 109 q123 109 209 319 l442 1030 l-387 0 l-259 -732 l-10 0 l-277 732 l-388 0 l471 -1080 q-35 -48 -81 -65 q-47 -17 -105 -16 q-46 0 -67 4 q-22 4 -25 5 l0 -290 q5 -2 47 -9 q42 -6 101 -7 l0 0 ZM1049 1554 l275 316 l-310 0 l-232 -316 l267 0 ZM609 1554 l276 316 l-311 0 l-231 -316 l266 0 Z" /><glyph glyph-name="" unicode="&#x424;" d="M746 406 q-144 9 -229 91 q-85 82 -87 226 q2 143 87 225 q85 83 229 92 l0 -634 ZM1411 722 q-2 -143 -87 -225 q-85 -82 -229 -91 l0 634 q144 -9 229 -91 q85 -83 87 -227 l0 0 ZM741 120 l0 -155 l359 0 l0 155 q308 12 491 168 q184 155 188 434 q-4 281 -187 436 q-182 155 -492 167 l0 153 l-359 0 l0 -153 q-308 -12 -491 -167 q-184 -156 -188 -435 q4 -280 187 -436 q182 -155 492 -167 l0 0 Z" /><glyph glyph-name="" unicode="&#x425;" d="M52 0 l390 0 l281 468 l8 0 l280 -468 l412 0 l-455 720 l0 7 l459 716 l-407 0 l-267 -488 l-7 0 l-265 488 l-428 0 l440 -712 l0 -8 l-441 -723 Z" /><glyph glyph-name="" unicode="&#x4b2;" d="M1237 295 l-269 425 l0 7 l459 716 l-407 0 l-267 -488 l-7 0 l-265 488 l-428 0 l440 -712 l0 -8 l-441 -723 l390 0 l281 468 l8 0 l280 -468 l103 0 l0 -285 l330 0 l0 580 l-207 0 Z" /><glyph glyph-name="" unicode="&#x4fe;" d="M1314 619 l0 216 l-277 0 l390 608 l-407 0 l-267 -488 l-7 0 l-265 488 l-428 0 l376 -608 l-264 0 l0 -216 l265 0 l-378 -619 l390 0 l281 468 l8 0 l280 -468 l412 0 l-391 619 l282 0 Z" /><glyph glyph-name="" unicode="&#x4fc;" d="M53 1443 l442 -715 l-443 -728 l390 0 l276 457 l19 0 l162 -269 q27 -44 45 -77 q19 -34 30 -60 q12 -27 17 -48 q4 -21 4 -41 q-1 -45 -33 -71 q-33 -26 -87 -27 q-21 0 -39 1 q-18 1 -37 4 l0 -275 q25 -5 66 -8 q41 -3 91 -3 q184 2 292 101 q109 98 111 265 q1 50 -11 100 q-11 50 -41 112 q-20 43 -48 93 q-28 50 -67 112 l-225 358 l461 719 l-408 0 l-261 -478 l-19 0 l-259 478 l-428 0 Z" /><glyph glyph-name="" unicode="&#x426;" d="M1595 -285 l0 580 l-180 0 l0 1148 l-366 0 l0 -1148 l-563 0 l0 1148 l-367 0 l0 -1443 l1146 0 l0 -285 l330 0 Z" /><glyph glyph-name="" unicode="&#x4b4;" d="M1759 295 l0 1148 l-366 0 l0 -1148 l-578 0 l0 853 l386 0 l0 295 l-386 0 l-366 0 l-393 0 l0 -295 l393 0 l0 -1148 l1161 0 l0 -285 l329 0 l0 580 l-180 0 Z" /><glyph glyph-name="" unicode="&#x427;" d="M1354 0 l0 1443 l-367 0 l0 -575 q-12 -17 -72 -48 q-60 -31 -182 -34 q-132 1 -200 69 q-68 68 -68 195 l0 393 l-367 0 l0 -428 q2 -242 145 -387 q143 -146 406 -150 q146 4 230 37 q83 33 98 48 l10 0 l0 -563 l367 0 Z" /><glyph glyph-name="" unicode="&#x4f4;" d="M1354 0 l0 1443 l-367 0 l0 -575 q-12 -17 -72 -48 q-60 -31 -182 -34 q-132 1 -200 69 q-68 68 -68 195 l0 393 l-367 0 l0 -428 q2 -242 145 -387 q143 -146 406 -150 q146 4 230 37 q83 33 98 48 l10 0 l0 -563 l367 0 ZM525 1547 q65 2 106 42 q41 40 42 99 q-1 60 -42 100 q-41 40 -106 41 q-64 -1 -105 -41 q-41 -40 -42 -100 q1 -59 42 -99 q41 -40 105 -42 l0 0 ZM958 1547 q65 2 105 42 q41 40 42 99 q-1 60 -42 100 q-40 40 -105 41 q-65 -1 -105 -41 q-41 -40 -42 -100 q1 -59 42 -99 q40 -40 105 -42 l0 0 Z" /><glyph glyph-name="" unicode="&#x4b6;" d="M1354 295 l0 1148 l-367 0 l0 -575 q-12 -17 -72 -48 q-60 -31 -182 -34 q-132 1 -200 69 q-68 68 -68 195 l0 393 l-367 0 l0 -428 q2 -242 145 -387 q143 -146 406 -150 q146 4 230 37 q83 33 98 48 l10 0 l0 -268 l0 -295 l217 0 l0 -285 l330 0 l0 580 l-180 0 Z" /><glyph glyph-name="" unicode="&#x4cb;" d="M987 1443 l0 -575 q-12 -17 -72 -48 q-60 -31 -182 -34 q-132 1 -200 69 q-68 68 -68 195 l0 393 l-367 0 l0 -428 q2 -242 145 -387 q143 -146 406 -150 q146 4 230 37 q83 33 98 48 l10 0 l0 -268 l-180 0 l0 -580 l330 0 l0 285 l217 0 l0 295 l0 1148 l-367 0 Z" /><glyph glyph-name="" unicode="&#x4b8;" d="M1018 1443 l0 -560 q-24 -27 -63 -48 q-39 -22 -91 -34 l0 266 l-230 0 l0 -269 q-87 23 -128 87 q-41 64 -41 165 l0 393 l-367 0 l0 -428 q3 -240 147 -384 q144 -144 389 -153 l0 -186 l230 0 l0 212 q39 11 74 27 q34 16 63 38 l17 0 l0 -569 l366 0 l0 1443 l-366 0 Z" /><glyph glyph-name="" unicode="&#x4ba;" d="M119 1443 l0 -1443 l367 0 l0 544 q37 57 103 89 q65 31 156 31 q129 -1 196 -69 q68 -68 68 -195 l0 -400 l366 0 l0 435 q-3 244 -146 389 q-142 145 -392 148 q-102 -1 -186 -27 q-84 -27 -146 -73 l-19 0 l0 571 l-367 0 Z" /><glyph glyph-name="" unicode="&#x526;" d="M1375 295 l0 140 q-3 244 -146 389 q-142 145 -392 148 q-102 -1 -186 -27 q-84 -27 -146 -73 l-19 0 l0 571 l-367 0 l0 -1443 l367 0 l0 544 q37 57 103 89 q65 31 156 31 q129 -1 196 -69 q68 -68 68 -195 l0 -105 l0 -295 l216 0 l0 -285 l330 0 l0 580 l-180 0 Z" /><glyph glyph-name="" unicode="&#x40b;" d="M1073 599 q106 -1 162 -65 q56 -63 56 -179 l0 -355 l367 0 l0 376 q0 238 -126 382 q-126 144 -374 148 q-104 0 -186 -28 q-81 -28 -141 -80 l-8 0 l0 350 l401 0 l0 295 l-1168 0 l0 -295 l401 0 l0 -1148 l366 0 l0 462 q33 58 97 97 q63 39 153 40 l0 0 Z" /><glyph glyph-name="" unicode="&#x428;" d="M119 0 l1801 0 l0 1443 l-366 0 l0 -1148 l-351 0 l0 1148 l-366 0 l0 -1148 l-351 0 l0 1148 l-367 0 l0 -1443 Z" /><glyph glyph-name="" unicode="&#x429;" d="M2100 -285 l0 580 l-180 0 l0 1148 l-366 0 l0 -1148 l-351 0 l0 1148 l-366 0 l0 -1148 l-351 0 l0 1148 l-367 0 l0 -1443 l1652 0 l0 -285 l329 0 Z" /><glyph glyph-name="" unicode="&#x42a;" d="M1024 0 q235 3 375 134 q141 132 144 359 q-4 226 -151 358 q-146 131 -391 134 l-241 0 l0 458 l-704 0 l0 -294 l338 0 l0 -1149 l630 0 ZM760 283 l0 424 l164 0 q116 0 180 -54 q64 -54 65 -159 q-1 -104 -64 -157 q-63 -54 -179 -54 l-166 0 Z" /><glyph glyph-name="" unicode="&#x42b;" d="M1775 0 l0 1443 l-367 0 l0 -1443 l367 0 ZM119 0 l630 0 q236 3 376 135 q140 132 143 358 q-4 226 -150 357 q-147 132 -391 135 l-241 0 l0 458 l-367 0 l0 -1443 ZM486 283 l0 424 l163 0 q117 0 181 -54 q64 -54 65 -159 q-1 -104 -64 -157 q-63 -54 -179 -54 l-166 0 Z" /><glyph glyph-name="" unicode="&#x4f8;" d="M1775 0 l0 1443 l-367 0 l0 -1443 l367 0 ZM119 0 l630 0 q236 3 376 135 q140 132 143 358 q-4 226 -150 357 q-147 132 -391 135 l-241 0 l0 458 l-367 0 l0 -1443 ZM486 283 l0 424 l163 0 q117 0 181 -54 q64 -54 65 -159 q-1 -104 -64 -157 q-63 -54 -179 -54 l-166 0 ZM729 1547 q65 2 106 42 q41 40 42 99 q-1 60 -42 100 q-41 40 -106 41 q-64 -1 -105 -41 q-41 -40 -42 -100 q1 -59 42 -99 q41 -40 105 -42 l0 0 ZM1162 1547 q65 2 105 42 q41 40 42 99 q-1 60 -42 100 q-40 40 -105 41 q-65 -1 -105 -41 q-41 -40 -42 -100 q1 -59 42 -99 q40 -40 105 -42 l0 0 Z" /><glyph glyph-name="" unicode="&#x48c;" d="M721 283 l0 393 l171 0 q113 0 174 -50 q62 -49 63 -147 q-1 -97 -62 -146 q-61 -50 -173 -50 l-173 0 ZM721 955 l0 176 l418 0 l0 249 l-418 0 l0 150 l-367 0 l0 -150 l-343 0 l0 -249 l343 0 l0 -1131 l637 0 q232 3 370 130 q139 128 142 348 q-4 219 -148 347 q-145 127 -386 130 l-248 0 Z" /><glyph glyph-name="" unicode="&#x462;" d="M721 283 l0 393 l171 0 q113 0 174 -50 q62 -49 63 -147 q-1 -97 -62 -146 q-61 -50 -173 -50 l-173 0 ZM721 955 l0 176 l418 0 l0 249 l-418 0 l0 150 l-367 0 l0 -150 l-343 0 l0 -249 l343 0 l0 -1131 l637 0 q232 3 370 130 q139 128 142 348 q-4 219 -148 347 q-145 127 -386 130 l-248 0 Z" /><glyph glyph-name="" unicode="&#x42c;" d="M119 0 l630 0 q236 3 376 135 q140 132 143 358 q-4 226 -150 357 q-147 132 -391 135 l-241 0 l0 458 l-367 0 l0 -1443 ZM486 283 l0 424 l163 0 q117 0 181 -54 q64 -54 65 -159 q-1 -104 -64 -157 q-63 -54 -179 -54 l-166 0 Z" /><glyph glyph-name="" unicode="&#x409;" d="M630 586 l29 562 l365 0 l0 -1148 l629 0 q236 3 376 134 q141 132 144 359 q-4 226 -151 358 q-146 131 -391 134 l-241 0 l0 458 l-1057 0 l-38 -830 q-3 -132 -40 -216 q-37 -84 -139 -87 q-23 0 -43 3 q-19 3 -31 6 l0 -319 q16 -5 50 -9 q33 -5 79 -5 q238 4 344 165 q105 162 115 435 l0 0 ZM1390 283 l0 424 l164 0 q116 0 180 -54 q64 -54 65 -159 q-1 -104 -64 -157 q-63 -54 -179 -54 l-166 0 Z" /><glyph glyph-name="" unicode="&#x40a;" d="M486 605 l550 0 l0 -605 l630 0 q237 3 377 124 q139 121 142 327 q-3 201 -149 320 q-146 118 -393 121 l-240 0 l0 551 l-367 0 l0 -551 l-550 0 l0 551 l-367 0 l0 -1443 l367 0 l0 605 ZM1403 283 l0 335 l186 0 q110 0 169 -43 q58 -42 59 -121 q-1 -83 -59 -127 q-58 -44 -167 -44 l-188 0 Z" /><glyph glyph-name="" unicode="&#x42d;" d="M732 -36 q324 3 508 202 q183 199 186 556 q-3 356 -187 555 q-183 199 -507 202 q-271 -4 -451 -154 q-179 -151 -207 -397 l357 0 q25 114 105 179 q80 66 196 67 q123 -1 208 -82 q85 -81 104 -228 l-527 0 l0 -272 l529 0 q-16 -153 -102 -238 q-85 -84 -213 -85 q-116 1 -196 64 q-79 63 -106 176 l-356 0 q29 -249 206 -395 q177 -147 453 -150 l0 0 Z" /><glyph glyph-name="" unicode="&#x4ec;" d="M732 -36 q324 3 508 202 q183 199 186 556 q-3 356 -187 555 q-183 199 -507 202 q-271 -4 -451 -154 q-179 -151 -207 -397 l357 0 q25 114 105 179 q80 66 196 67 q123 -1 208 -82 q85 -81 104 -228 l-527 0 l0 -272 l529 0 q-16 -153 -102 -238 q-85 -84 -213 -85 q-116 1 -196 64 q-79 63 -106 176 l-356 0 q29 -249 206 -395 q177 -147 453 -150 l0 0 ZM517 1547 q65 2 106 42 q41 40 42 99 q-1 60 -42 100 q-41 40 -106 41 q-64 -1 -105 -41 q-41 -40 -42 -100 q1 -59 42 -99 q41 -40 105 -42 l0 0 ZM950 1547 q65 2 105 42 q41 40 42 99 q-1 60 -42 100 q-40 40 -105 41 q-65 -1 -105 -41 q-41 -40 -42 -100 q1 -59 42 -99 q40 -40 105 -42 l0 0 Z" /><glyph glyph-name="" unicode="&#x42e;" d="M1360 -39 q325 4 511 204 q185 201 189 557 q-4 355 -189 556 q-186 200 -511 204 q-286 -2 -466 -161 q-181 -159 -224 -444 l-184 0 l0 566 l-367 0 l0 -1443 l367 0 l0 582 l182 0 q39 -293 220 -456 q181 -162 472 -165 l0 0 ZM1359 1178 q149 -2 238 -124 q88 -121 90 -332 q-2 -212 -90 -333 q-89 -122 -238 -124 q-151 2 -240 124 q-88 121 -90 333 q2 211 91 332 q88 122 239 124 l0 0 Z" /><glyph glyph-name="" unicode="&#x42f;" d="M929 761 l-212 0 q-106 1 -164 54 q-58 53 -59 148 q1 94 60 148 q59 54 162 55 l213 0 l0 -405 ZM766 503 l163 0 l0 -503 l363 0 l0 1443 l-616 0 q-263 -3 -409 -132 q-146 -129 -148 -347 q2 -149 83 -254 q81 -106 214 -155 l-361 -555 l397 0 l314 503 Z" /><glyph glyph-name="" unicode="&#x494;" d="M1076 1443 l-957 0 l0 -1443 l367 0 l0 462 q33 62 102 99 q68 37 158 38 q108 -1 168 -54 q60 -54 61 -149 q-1 -100 -59 -153 q-57 -54 -159 -54 q-52 1 -80 5 q-28 4 -33 6 l0 -277 q4 -2 45 -9 q40 -7 109 -8 q259 3 401 143 q142 139 144 373 q0 209 -129 344 q-129 135 -382 140 q-104 0 -187 -28 q-82 -29 -142 -80 l-17 0 l0 350 l590 0 l0 295 Z" /><glyph glyph-name="" unicode="&#x4a6;" d="M119 1443 l0 -1443 l367 0 l0 1148 l510 0 l0 -1148 l366 0 l0 462 q35 64 104 100 q69 36 157 37 q108 -1 168 -54 q60 -54 61 -149 q-1 -98 -58 -152 q-56 -54 -160 -55 q-35 0 -66 3 q-31 3 -48 8 l0 -277 q25 -8 68 -12 q42 -5 87 -5 q253 3 397 140 q145 136 148 376 q-3 225 -138 353 q-136 129 -373 131 q-100 0 -183 -27 q-83 -28 -146 -81 l-18 0 l0 645 l-1243 0 Z" /><glyph glyph-name="" unicode="&#x404;" d="M1433 509 l-357 0 q-26 -113 -103 -176 q-78 -63 -192 -64 q-129 1 -216 85 q-86 85 -105 238 l529 0 l0 272 l-527 0 q21 147 107 228 q86 81 211 82 q113 -1 192 -67 q78 -65 103 -179 l356 0 q-27 246 -205 397 q-177 150 -446 154 q-326 -3 -512 -202 q-185 -199 -189 -555 q3 -357 189 -556 q185 -199 512 -202 q274 3 449 150 q175 146 204 395 l0 0 Z" /><glyph glyph-name="" unicode="&#x4c0;" d="M486 0 l0 1443 l-367 0 l0 -1443 l367 0 Z" /><glyph glyph-name="" unicode="&#x406;" d="M486 0 l0 1443 l-367 0 l0 -1443 l367 0 Z" /><glyph glyph-name="" unicode="&#x407;" d="M486 0 l0 1443 l-367 0 l0 -1443 l367 0 ZM86 1547 q65 2 106 42 q41 40 42 99 q-1 60 -42 100 q-41 40 -106 41 q-64 -1 -105 -41 q-41 -40 -42 -100 q1 -59 42 -99 q41 -40 105 -42 l0 0 ZM519 1547 q65 2 105 42 q41 40 42 99 q-1 60 -42 100 q-40 40 -105 41 q-65 -1 -105 -41 q-41 -40 -42 -100 q1 -59 42 -99 q40 -40 105 -42 l0 0 Z" /><glyph glyph-name="" unicode="&#x4a8;" d="M1301 1010 q80 -1 125 -64 q46 -62 47 -167 q-1 -119 -45 -223 q-45 -104 -127 -175 q-86 73 -130 175 q-45 103 -45 220 q0 106 46 169 q45 63 129 65 l0 0 ZM1866 321 q-44 -29 -100 -47 q-56 -18 -115 -19 q-31 0 -61 3 q107 104 170 242 q63 138 64 286 q-3 237 -143 375 q-140 137 -381 140 q-239 -4 -379 -152 q-140 -148 -143 -386 q1 -151 56 -276 q56 -126 161 -223 q-43 -3 -90 -4 q-207 5 -332 138 q-126 132 -129 338 q1 163 85 279 q84 115 241 152 l0 320 q-316 -31 -501 -231 q-186 -201 -190 -514 q4 -349 221 -561 q218 -211 602 -217 q109 0 205 22 q95 22 181 68 q79 -45 168 -68 q89 -23 193 -23 q88 0 172 25 q84 24 159 76 l-114 257 Z" /><glyph glyph-name="" unicode="&#x4ae;" d="M901 0 l0 496 l497 947 l-387 0 l-286 -600 l-7 0 l-287 600 l-394 0 l497 -947 l0 -496 l367 0 Z" /><glyph glyph-name="" unicode="&#x4b0;" d="M1398 1443 l-387 0 l-286 -600 l-7 0 l-287 600 l-394 0 l427 -813 l-249 0 l0 -231 l319 0 l0 -399 l367 0 l0 399 l318 0 l0 231 l-248 0 l427 813 Z" /><glyph glyph-name="" unicode="&#x4bc;" d="M790 896 q18 133 97 209 q80 76 197 78 q124 -1 202 -77 q78 -76 89 -210 l-585 0 ZM786 643 l967 0 q0 4 2 45 q1 41 1 73 q-2 342 -176 530 q-174 188 -491 191 q-271 -3 -445 -154 q-174 -152 -224 -419 q-59 4 -88 37 q-29 33 -29 86 q2 51 14 87 q12 36 14 38 l-284 0 q-2 0 -17 -45 q-16 -45 -18 -128 q1 -147 102 -240 q102 -93 293 -101 q24 -322 208 -500 q184 -179 493 -182 q257 4 430 135 q173 131 208 344 l-362 0 q-29 -89 -100 -134 q-72 -46 -176 -46 q-149 2 -235 98 q-86 96 -87 262 l0 23 Z" /><glyph glyph-name="" unicode="&#x4be;" d="M1297 1547 q65 2 105 42 q41 40 42 99 q-1 60 -42 100 q-40 40 -105 41 q-65 -1 -105 -41 q-41 -40 -42 -100 q1 -59 42 -99 q40 -40 105 -42 l0 0 ZM864 1547 q65 2 106 42 q41 40 42 99 q-1 60 -42 100 q-41 40 -106 41 q-64 -1 -105 -41 q-41 -40 -42 -100 q1 -59 42 -99 q41 -40 105 -42 l0 0 ZM790 896 q18 133 97 209 q80 76 197 78 q124 -1 202 -77 q78 -76 89 -210 l-585 0 ZM786 643 l967 0 q0 4 2 45 q1 41 1 73 q-2 342 -176 530 q-174 188 -491 191 q-271 -3 -445 -154 q-174 -152 -224 -419 q-59 4 -88 37 q-29 33 -29 86 q2 51 14 87 q12 36 14 38 l-284 0 q-2 0 -17 -45 q-16 -45 -18 -128 q1 -147 102 -240 q102 -93 293 -101 q20 -274 158 -445 q138 -172 372 -220 l0 -263 l330 0 l0 262 q195 41 323 164 q128 122 156 299 l-362 0 q-29 -89 -100 -134 q-72 -46 -176 -46 q-149 2 -235 98 q-86 96 -87 262 l0 23 Z" /><glyph glyph-name="" unicode="&#x4d4;" d="M840 1167 l123 0 l0 -575 l-343 0 l220 575 ZM963 0 l982 0 l0 295 l-655 0 l0 293 l618 0 l0 270 l-618 0 l0 290 l655 0 l0 295 l-1336 0 l-575 -1443 l363 0 l127 327 l439 0 l0 -327 Z" /><glyph glyph-name="" unicode="&#x4d8;" d="M759 -39 q307 5 489 208 q182 204 186 551 q-4 350 -189 554 q-184 204 -502 208 q-253 -2 -425 -128 q-173 -126 -226 -351 l370 0 q29 80 97 129 q68 50 184 51 q137 -3 222 -101 q86 -99 87 -259 l0 -11 l-969 0 q0 -1 -2 -35 q-2 -33 -2 -86 q3 -328 178 -527 q175 -198 502 -203 l0 0 ZM760 260 q-128 2 -208 82 q-80 80 -91 217 l589 0 q-15 -137 -94 -217 q-79 -80 -196 -82 l0 0 Z" /><glyph glyph-name="" unicode="&#x4da;" d="M519 1547 q65 2 106 42 q41 40 42 99 q-1 60 -42 100 q-41 40 -106 41 q-64 -1 -105 -41 q-41 -40 -42 -100 q1 -59 42 -99 q41 -40 105 -42 l0 0 ZM952 1547 q65 2 105 42 q41 40 42 99 q-1 60 -42 100 q-40 40 -105 41 q-65 -1 -105 -41 q-41 -40 -42 -100 q1 -59 42 -99 q40 -40 105 -42 l0 0 ZM759 -39 q307 5 489 208 q182 204 186 551 q-4 350 -189 554 q-184 204 -502 208 q-253 -2 -425 -128 q-173 -126 -226 -351 l370 0 q29 80 97 129 q68 50 184 51 q137 -3 222 -101 q86 -99 87 -259 l0 -11 l-969 0 q0 -1 -2 -35 q-2 -33 -2 -86 q3 -328 178 -527 q175 -198 502 -203 l0 0 ZM760 260 q-128 2 -208 82 q-80 80 -91 217 l589 0 q-15 -137 -94 -217 q-79 -80 -196 -82 l0 0 Z" /><glyph glyph-name="" unicode="&#x4e0;" d="M640 -39 q276 3 436 130 q160 127 163 344 q-3 193 -126 302 q-123 108 -333 126 l0 19 l396 328 l0 233 l-1054 0 l0 -295 l592 0 l0 -19 l-310 -253 l0 -244 l182 0 q136 0 208 -50 q71 -50 72 -146 q-1 -86 -60 -135 q-59 -50 -159 -51 q-105 1 -167 48 q-61 47 -67 130 l-349 0 q13 -215 167 -340 q154 -124 409 -127 l0 0 Z" /><glyph glyph-name="" unicode="&#x510;" d="M868 593 l0 274 l-189 0 q-98 1 -155 47 q-57 46 -58 124 q1 79 57 124 q56 44 157 45 q101 -1 161 -51 q59 -50 65 -136 l334 0 q-9 213 -159 336 q-149 123 -414 126 q-244 -2 -392 -109 q-149 -108 -153 -299 q2 -123 78 -205 q76 -82 196 -109 l0 -19 q-149 -16 -236 -106 q-87 -90 -89 -235 q5 -199 173 -317 q167 -119 436 -122 q261 3 419 127 q157 125 170 340 l-350 0 q-9 -83 -72 -130 q-63 -47 -173 -48 q-103 1 -164 49 q-62 48 -63 125 q1 81 61 125 q60 44 170 44 l190 0 Z" /><glyph glyph-name="" unicode="&#x474;" d="M968 0 l319 991 q14 42 28 67 q13 26 29 40 q14 13 32 19 q17 6 39 6 q19 0 43 -5 q23 -6 47 -15 l98 289 q-55 32 -127 50 q-72 19 -141 19 q-72 0 -127 -16 q-55 -16 -99 -49 q-62 -46 -105 -133 q-43 -86 -75 -221 l-173 -661 l-19 0 l-277 1062 l-421 0 l465 -1443 l464 0 Z" /><glyph glyph-name="" unicode="&#x51c;" d="M1012 901 l8 0 l243 -901 l346 0 l377 1443 l-379 0 l-195 -975 l-8 0 l-241 975 l-294 0 l-241 -975 l-8 0 l-195 975 l-379 0 l377 -1443 l346 0 l243 901 Z" /><glyph glyph-name="" unicode="&#x402;" d="M1136 -94 q259 3 401 143 q142 139 144 373 q0 209 -129 344 q-130 135 -382 140 q-108 0 -193 -28 q-84 -28 -146 -80 l-8 0 l0 350 l401 0 l0 295 l-1168 0 l0 -295 l401 0 l0 -1148 l366 0 l0 462 q33 62 102 99 q69 37 159 38 q108 -1 168 -54 q60 -54 61 -149 q-1 -100 -59 -153 q-57 -54 -159 -54 q-52 1 -81 5 q-28 4 -33 6 l0 -277 q5 -2 45 -9 q41 -7 110 -8 l0 0 Z" /><glyph glyph-name="" unicode="&#x405;" d="M73 418 q6 -211 163 -326 q157 -116 436 -117 q282 2 444 127 q162 125 165 343 q1 170 -100 271 q-100 101 -313 141 l-187 35 q-113 23 -164 58 q-52 36 -51 94 q1 67 59 106 q57 39 154 40 q101 -1 165 -45 q64 -44 71 -123 l338 0 q-5 206 -155 325 q-150 119 -423 121 q-255 -2 -412 -125 q-157 -122 -162 -335 q0 -165 102 -270 q101 -105 301 -144 l189 -37 q122 -24 174 -59 q52 -35 51 -94 q-1 -67 -64 -108 q-63 -42 -172 -43 q-104 1 -176 45 q-72 45 -84 120 l-349 0 Z" /><glyph glyph-name="" unicode="&#x408;" d="M35 470 q3 -232 144 -363 q140 -132 386 -134 q250 1 389 131 q138 130 140 374 l0 965 l-366 0 l0 -963 q0 -96 -43 -146 q-43 -51 -124 -51 q-80 1 -125 50 q-46 50 -48 137 l-353 0 Z" /><glyph glyph-name="" unicode="a" d="M546 231 q-69 1 -109 31 q-40 30 -41 84 q0 51 40 82 q40 30 116 36 l205 14 l0 -77 q-2 -78 -63 -123 q-60 -46 -148 -47 l0 0 ZM421 -15 q104 0 194 46 q90 45 137 129 l7 0 l0 -160 l344 0 l0 762 q-3 170 -136 272 q-132 101 -358 103 q-228 -2 -363 -103 q-135 -100 -144 -271 l319 0 q8 53 53 86 q45 33 118 34 q76 0 120 -36 q44 -36 45 -104 l0 -64 l-261 -16 q-219 -14 -335 -99 q-115 -86 -116 -242 q4 -152 110 -243 q105 -92 266 -94 l0 0 Z" /><glyph glyph-name="" unicode="à" d="M546 231 q-69 1 -109 31 q-40 30 -41 84 q0 51 40 82 q40 30 116 36 l205 14 l0 -77 q-2 -78 -63 -123 q-60 -46 -148 -47 l0 0 ZM421 -15 q104 0 194 46 q90 45 137 129 l7 0 l0 -160 l344 0 l0 762 q-3 170 -136 272 q-132 101 -358 103 q-228 -2 -363 -103 q-135 -100 -144 -271 l319 0 q8 53 53 86 q45 33 118 34 q76 0 120 -36 q44 -36 45 -104 l0 -64 l-261 -16 q-219 -14 -335 -99 q-115 -86 -116 -242 q4 -152 110 -243 q105 -92 266 -94 l0 0 ZM753 1269 l-227 316 l-312 0 l264 -316 l275 0 Z" /><glyph glyph-name="" unicode="á" d="M546 231 q-69 1 -109 31 q-40 30 -41 84 q0 51 40 82 q40 30 116 36 l205 14 l0 -77 q-2 -78 -63 -123 q-60 -46 -148 -47 l0 0 ZM421 -15 q104 0 194 46 q90 45 137 129 l7 0 l0 -160 l344 0 l0 762 q-3 170 -136 272 q-132 101 -358 103 q-228 -2 -363 -103 q-135 -100 -144 -271 l319 0 q8 53 53 86 q45 33 118 34 q76 0 120 -36 q44 -36 45 -104 l0 -64 l-261 -16 q-219 -14 -335 -99 q-115 -86 -116 -242 q4 -152 110 -243 q105 -92 266 -94 l0 0 ZM736 1269 l264 316 l-312 0 l-227 -316 l275 0 Z" /><glyph glyph-name="" unicode="ä" d="M546 231 q-69 1 -109 31 q-40 30 -41 84 q0 51 40 82 q40 30 116 36 l205 14 l0 -77 q-2 -78 -63 -123 q-60 -46 -148 -47 l0 0 ZM421 -15 q104 0 194 46 q90 45 137 129 l7 0 l0 -160 l344 0 l0 762 q-3 170 -136 272 q-132 101 -358 103 q-228 -2 -363 -103 q-135 -100 -144 -271 l319 0 q8 53 53 86 q45 33 118 34 q76 0 120 -36 q44 -36 45 -104 l0 -64 l-261 -16 q-219 -14 -335 -99 q-115 -86 -116 -242 q4 -152 110 -243 q105 -92 266 -94 l0 0 ZM388 1257 q65 2 106 42 q41 40 42 99 q-1 60 -42 100 q-41 40 -106 41 q-64 -1 -105 -41 q-41 -40 -42 -100 q1 -59 42 -99 q41 -40 105 -42 l0 0 ZM821 1257 q65 2 105 42 q41 40 42 99 q-1 60 -42 100 q-40 40 -105 41 q-65 -1 -105 -41 q-41 -40 -42 -100 q1 -59 42 -99 q40 -40 105 -42 l0 0 Z" /><glyph glyph-name="" unicode="&#x1df;" d="M546 231 q-69 1 -109 31 q-40 30 -41 84 q0 51 40 82 q40 30 116 36 l205 14 l0 -77 q-2 -78 -63 -123 q-60 -46 -148 -47 l0 0 ZM421 -15 q104 0 194 46 q90 45 137 129 l7 0 l0 -160 l344 0 l0 762 q-3 170 -136 272 q-132 101 -358 103 q-228 -2 -363 -103 q-135 -100 -144 -271 l319 0 q8 53 53 86 q45 33 118 34 q76 0 120 -36 q44 -36 45 -104 l0 -64 l-261 -16 q-219 -14 -335 -99 q-115 -86 -116 -242 q4 -152 110 -243 q105 -92 266 -94 l0 0 ZM399 1256 q61 2 100 40 q38 37 39 93 q-1 57 -39 94 q-39 38 -100 39 q-61 -1 -99 -39 q-39 -37 -40 -94 q1 -56 40 -93 q38 -38 99 -40 l0 0 ZM811 1256 q61 2 100 40 q38 37 39 93 q-1 57 -39 94 q-39 38 -100 39 q-61 -1 -99 -39 q-39 -37 -40 -94 q1 -56 40 -93 q38 -38 99 -40 l0 0 ZM949 1822 l-688 0 l0 -163 l688 0 l0 163 Z" /><glyph glyph-name="" unicode="å" d="M546 231 q-69 1 -109 31 q-40 30 -41 84 q0 51 40 82 q40 30 116 36 l205 14 l0 -77 q-2 -78 -63 -123 q-60 -46 -148 -47 l0 0 ZM421 -15 q104 0 194 46 q90 45 137 129 l7 0 l0 -160 l344 0 l0 762 q-3 170 -136 272 q-132 101 -358 103 q-228 -2 -363 -103 q-135 -100 -144 -271 l319 0 q8 53 53 86 q45 33 118 34 q76 0 120 -36 q44 -36 45 -104 l0 -64 l-261 -16 q-219 -14 -335 -99 q-115 -86 -116 -242 q4 -152 110 -243 q105 -92 266 -94 l0 0 ZM605 1223 q97 3 163 67 q66 64 69 160 q-3 96 -69 160 q-66 65 -163 67 q-98 -2 -165 -67 q-66 -64 -69 -160 q3 -96 69 -160 q67 -64 165 -67 l0 0 ZM605 1358 q-39 1 -67 27 q-27 26 -28 65 q1 39 28 66 q28 26 67 27 q39 -1 66 -27 q27 -27 28 -66 q-1 -39 -28 -65 q-27 -26 -66 -27 l0 0 Z" /><glyph glyph-name="" unicode="&#x1fb;" d="M546 231 q-69 1 -109 31 q-40 30 -41 84 q0 51 40 82 q40 30 116 36 l205 14 l0 -77 q-2 -78 -63 -123 q-60 -46 -148 -47 l0 0 ZM421 -15 q104 0 194 46 q90 45 137 129 l7 0 l0 -160 l344 0 l0 762 q-3 170 -136 272 q-132 101 -358 103 q-228 -2 -363 -103 q-135 -100 -144 -271 l319 0 q8 53 53 86 q45 33 118 34 q76 0 120 -36 q44 -36 45 -104 l0 -64 l-261 -16 q-219 -14 -335 -99 q-115 -86 -116 -242 q4 -152 110 -243 q105 -92 266 -94 l0 0 ZM607 1224 q101 2 164 63 q62 61 64 157 q-2 97 -64 158 q-63 61 -164 63 q-101 -2 -163 -63 q-63 -61 -65 -158 q2 -96 65 -157 q62 -61 163 -63 l0 0 ZM520 1444 q1 38 25 62 q24 24 62 25 q38 -1 62 -25 q24 -24 25 -62 q-1 -38 -25 -61 q-24 -24 -62 -25 q-38 1 -62 25 q-24 23 -25 61 l0 0 ZM501 1743 l233 0 l183 222 l-277 0 l-139 -222 Z" /><glyph glyph-name="" unicode="ã" d="M546 231 q-69 1 -109 31 q-40 30 -41 84 q0 51 40 82 q40 30 116 36 l205 14 l0 -77 q-2 -78 -63 -123 q-60 -46 -148 -47 l0 0 ZM421 -15 q104 0 194 46 q90 45 137 129 l7 0 l0 -160 l344 0 l0 762 q-3 170 -136 272 q-132 101 -358 103 q-228 -2 -363 -103 q-135 -100 -144 -271 l319 0 q8 53 53 86 q45 33 118 34 q76 0 120 -36 q44 -36 45 -104 l0 -64 l-261 -16 q-219 -14 -335 -99 q-115 -86 -116 -242 q4 -152 110 -243 q105 -92 266 -94 l0 0 ZM753 1258 q99 1 165 76 q66 76 69 211 l-181 0 q-1 -52 -17 -83 q-16 -30 -50 -31 q-49 8 -105 64 q-55 55 -160 63 q-99 -1 -165 -74 q-66 -73 -69 -209 l181 0 q1 48 18 78 q17 31 51 32 q50 -8 105 -63 q55 -56 158 -64 l0 0 Z" /><glyph glyph-name="" unicode="&#x1eb1;" d="M546 231 q-69 1 -109 31 q-40 30 -41 84 q0 51 40 82 q40 30 116 36 l205 14 l0 -77 q-2 -78 -63 -123 q-60 -46 -148 -47 l0 0 ZM421 -15 q104 0 194 46 q90 45 137 129 l7 0 l0 -160 l344 0 l0 762 q-3 170 -136 272 q-132 101 -358 103 q-228 -2 -363 -103 q-135 -100 -144 -271 l319 0 q8 53 53 86 q45 33 118 34 q76 0 120 -36 q44 -36 45 -104 l0 -64 l-261 -16 q-219 -14 -335 -99 q-115 -86 -116 -242 q4 -152 110 -243 q105 -92 266 -94 l0 0 ZM730 1620 l-173 276 l-279 0 l237 -276 l215 0 ZM981 1581 l-209 0 q-3 -72 -46 -116 q-43 -44 -121 -45 q-78 1 -121 45 q-43 44 -46 116 l-209 0 q5 -139 101 -231 q96 -92 275 -95 q179 3 275 95 q96 92 101 231 l0 0 Z" /><glyph glyph-name="" unicode="&#x1e1;" d="M546 231 q-69 1 -109 31 q-40 30 -41 84 q0 51 40 82 q40 30 116 36 l205 14 l0 -77 q-2 -78 -63 -123 q-60 -46 -148 -47 l0 0 ZM421 -15 q104 0 194 46 q90 45 137 129 l7 0 l0 -160 l344 0 l0 762 q-3 170 -136 272 q-132 101 -358 103 q-228 -2 -363 -103 q-135 -100 -144 -271 l319 0 q8 53 53 86 q45 33 118 34 q76 0 120 -36 q44 -36 45 -104 l0 -64 l-261 -16 q-219 -14 -335 -99 q-115 -86 -116 -242 q4 -152 110 -243 q105 -92 266 -94 l0 0 ZM605 1246 q71 2 117 48 q45 45 47 113 q-2 68 -47 114 q-46 45 -117 47 q-71 -2 -116 -47 q-46 -46 -48 -114 q2 -68 48 -113 q45 -46 116 -48 l0 0 ZM949 1830 l-688 0 l0 -163 l688 0 l0 163 Z" /><glyph glyph-name="" unicode="&#x1e01;" d="M546 231 q-69 1 -109 31 q-40 30 -41 84 q0 51 40 82 q40 30 116 36 l205 14 l0 -77 q-2 -78 -63 -123 q-60 -46 -148 -47 l0 0 ZM421 -15 q104 0 194 46 q90 45 137 129 l7 0 l0 -160 l344 0 l0 762 q-3 170 -136 272 q-132 101 -358 103 q-228 -2 -363 -103 q-135 -100 -144 -271 l319 0 q8 53 53 86 q45 33 118 34 q76 0 120 -36 q44 -36 45 -104 l0 -64 l-261 -16 q-219 -14 -335 -99 q-115 -86 -116 -242 q4 -152 110 -243 q105 -92 266 -94 l0 0 ZM595 -592 q97 3 163 67 q66 64 69 160 q-3 96 -69 160 q-66 65 -163 67 q-98 -2 -165 -67 q-66 -64 -69 -160 q3 -96 69 -160 q67 -64 165 -67 l0 0 ZM595 -457 q-39 1 -67 27 q-27 26 -28 65 q1 39 28 66 q28 26 67 27 q39 -1 66 -27 q27 -27 28 -66 q-1 -39 -28 -65 q-27 -26 -66 -27 l0 0 Z" /><glyph glyph-name="" unicode="â" d="M546 231 q-69 1 -109 31 q-40 30 -41 84 q0 51 40 82 q40 30 116 36 l205 14 l0 -77 q-2 -78 -63 -123 q-60 -46 -148 -47 l0 0 ZM421 -15 q104 0 194 46 q90 45 137 129 l7 0 l0 -160 l344 0 l0 762 q-3 170 -136 272 q-132 101 -358 103 q-228 -2 -363 -103 q-135 -100 -144 -271 l319 0 q8 53 53 86 q45 33 118 34 q76 0 120 -36 q44 -36 45 -104 l0 -64 l-261 -16 q-219 -14 -335 -99 q-115 -86 -116 -242 q4 -152 110 -243 q105 -92 266 -94 l0 0 ZM739 1582 l-269 0 l-260 -327 l255 0 l136 184 l8 0 l135 -184 l256 0 l-261 327 Z" /><glyph glyph-name="" unicode="&#x1ead;" d="M546 231 q-69 1 -109 31 q-40 30 -41 84 q0 51 40 82 q40 30 116 36 l205 14 l0 -77 q-2 -78 -63 -123 q-60 -46 -148 -47 l0 0 ZM421 -15 q104 0 194 46 q90 45 137 129 l7 0 l0 -160 l344 0 l0 762 q-3 170 -136 272 q-132 101 -358 103 q-228 -2 -363 -103 q-135 -100 -144 -271 l319 0 q8 53 53 86 q45 33 118 34 q76 0 120 -36 q44 -36 45 -104 l0 -64 l-261 -16 q-219 -14 -335 -99 q-115 -86 -116 -242 q4 -152 110 -243 q105 -92 266 -94 l0 0 ZM739 1582 l-269 0 l-260 -327 l255 0 l136 184 l8 0 l135 -184 l256 0 l-261 327 ZM595 -492 q71 2 117 48 q45 46 47 115 q-2 69 -47 115 q-46 46 -117 48 q-71 -2 -116 -48 q-46 -46 -48 -115 q2 -69 48 -115 q45 -46 116 -48 l0 0 Z" /><glyph glyph-name="" unicode="&#x1ea5;" d="M546 231 q-69 1 -109 31 q-40 30 -41 84 q0 51 40 82 q40 30 116 36 l205 14 l0 -77 q-2 -78 -63 -123 q-60 -46 -148 -47 l0 0 ZM421 -15 q104 0 194 46 q90 45 137 129 l7 0 l0 -160 l344 0 l0 762 q-3 170 -136 272 q-132 101 -358 103 q-228 -2 -363 -103 q-135 -100 -144 -271 l319 0 q8 53 53 86 q45 33 118 34 q76 0 120 -36 q44 -36 45 -104 l0 -64 l-261 -16 q-219 -14 -335 -99 q-115 -86 -116 -242 q4 -152 110 -243 q105 -92 266 -94 l0 0 ZM745 1572 l-280 0 l-256 -317 l255 0 l137 180 l8 0 l137 -180 l255 0 l-256 317 ZM747 1627 l250 0 l232 285 l-286 0 l-196 -285 Z" /><glyph glyph-name="" unicode="&#x1eab;" d="M546 231 q-69 1 -109 31 q-40 30 -41 84 q0 51 40 82 q40 30 116 36 l205 14 l0 -77 q-2 -78 -63 -123 q-60 -46 -148 -47 l0 0 ZM421 -15 q104 0 194 46 q90 45 137 129 l7 0 l0 -160 l344 0 l0 762 q-3 170 -136 272 q-132 101 -358 103 q-228 -2 -363 -103 q-135 -100 -144 -271 l319 0 q8 53 53 86 q45 33 118 34 q76 0 120 -36 q44 -36 45 -104 l0 -64 l-261 -16 q-219 -14 -335 -99 q-115 -86 -116 -242 q4 -152 110 -243 q105 -92 266 -94 l0 0 ZM745 1557 l-280 0 l-256 -302 l255 0 l137 167 l8 0 l137 -167 l255 0 l-256 302 ZM744 1629 q99 1 165 76 q66 76 69 211 l-181 0 q-1 -52 -17 -82 q-16 -30 -50 -31 q-49 8 -104 63 q-56 55 -160 63 q-99 -1 -165 -73 q-66 -73 -69 -209 l181 0 q1 47 18 77 q17 31 51 32 q50 -8 104 -63 q55 -56 158 -64 l0 0 Z" /><glyph glyph-name="" unicode="&#x1ea7;" d="M546 231 q-69 1 -109 31 q-40 30 -41 84 q0 51 40 82 q40 30 116 36 l205 14 l0 -77 q-2 -78 -63 -123 q-60 -46 -148 -47 l0 0 ZM421 -15 q104 0 194 46 q90 45 137 129 l7 0 l0 -160 l344 0 l0 762 q-3 170 -136 272 q-132 101 -358 103 q-228 -2 -363 -103 q-135 -100 -144 -271 l319 0 q8 53 53 86 q45 33 118 34 q76 0 120 -36 q44 -36 45 -104 l0 -64 l-261 -16 q-219 -14 -335 -99 q-115 -86 -116 -242 q4 -152 110 -243 q105 -92 266 -94 l0 0 ZM745 1572 l-280 0 l-256 -317 l255 0 l137 180 l8 0 l137 -180 l255 0 l-256 317 ZM1070 1627 l-195 285 l-286 0 l232 -285 l249 0 Z" /><glyph glyph-name="" unicode="&#x1ea9;" d="M546 231 q-69 1 -109 31 q-40 30 -41 84 q0 51 40 82 q40 30 116 36 l205 14 l0 -77 q-2 -78 -63 -123 q-60 -46 -148 -47 l0 0 ZM421 -15 q104 0 194 46 q90 45 137 129 l7 0 l0 -160 l344 0 l0 762 q-3 170 -136 272 q-132 101 -358 103 q-228 -2 -363 -103 q-135 -100 -144 -271 l319 0 q8 53 53 86 q45 33 118 34 q76 0 120 -36 q44 -36 45 -104 l0 -64 l-261 -16 q-219 -14 -335 -99 q-115 -86 -116 -242 q4 -152 110 -243 q105 -92 266 -94 l0 0 ZM739 1762 q19 7 42 11 q22 3 47 3 q46 0 72 -19 q26 -19 26 -54 q0 -31 -23 -60 q-22 -28 -66 -47 l97 -109 q181 72 181 240 q-1 95 -68 149 q-66 54 -183 55 q-35 0 -68 -6 q-33 -6 -57 -15 l0 -148 ZM745 1572 l-280 0 l-256 -317 l255 0 l137 180 l8 0 l137 -180 l255 0 l-256 317 Z" /><glyph glyph-name="" unicode="&#x103;" d="M546 231 q-69 1 -109 31 q-40 30 -41 84 q0 51 40 82 q40 30 116 36 l205 14 l0 -77 q-2 -78 -63 -123 q-60 -46 -148 -47 l0 0 ZM421 -15 q104 0 194 46 q90 45 137 129 l7 0 l0 -160 l344 0 l0 762 q-3 170 -136 272 q-132 101 -358 103 q-228 -2 -363 -103 q-135 -100 -144 -271 l319 0 q8 53 53 86 q45 33 118 34 q76 0 120 -36 q44 -36 45 -104 l0 -64 l-261 -16 q-219 -14 -335 -99 q-115 -86 -116 -242 q4 -152 110 -243 q105 -92 266 -94 l0 0 ZM227 1581 q5 -139 102 -232 q97 -93 276 -97 q179 4 276 97 q97 93 102 232 l-210 0 q-3 -71 -46 -115 q-44 -45 -122 -46 q-78 1 -121 46 q-44 44 -47 115 l-210 0 Z" /><glyph glyph-name="" unicode="&#x1eaf;" d="M546 231 q-69 1 -109 31 q-40 30 -41 84 q0 51 40 82 q40 30 116 36 l205 14 l0 -77 q-2 -78 -63 -123 q-60 -46 -148 -47 l0 0 ZM421 -15 q104 0 194 46 q90 45 137 129 l7 0 l0 -160 l344 0 l0 762 q-3 170 -136 272 q-132 101 -358 103 q-228 -2 -363 -103 q-135 -100 -144 -271 l319 0 q8 53 53 86 q45 33 118 34 q76 0 120 -36 q44 -36 45 -104 l0 -64 l-261 -16 q-219 -14 -335 -99 q-115 -86 -116 -242 q4 -152 110 -243 q105 -92 266 -94 l0 0 ZM470 1627 l249 0 l232 285 l-285 0 l-196 -285 ZM981 1581 l-209 0 q-3 -72 -46 -116 q-43 -44 -121 -45 q-78 1 -121 45 q-43 44 -46 116 l-209 0 q5 -139 101 -231 q96 -92 275 -95 q179 3 275 95 q96 92 101 231 l0 0 Z" /><glyph glyph-name="" unicode="&#x1eb5;" d="M546 231 q-69 1 -109 31 q-40 30 -41 84 q0 51 40 82 q40 30 116 36 l205 14 l0 -77 q-2 -78 -63 -123 q-60 -46 -148 -47 l0 0 ZM421 -15 q104 0 194 46 q90 45 137 129 l7 0 l0 -160 l344 0 l0 762 q-3 170 -136 272 q-132 101 -358 103 q-228 -2 -363 -103 q-135 -100 -144 -271 l319 0 q8 53 53 86 q45 33 118 34 q76 0 120 -36 q44 -36 45 -104 l0 -64 l-261 -16 q-219 -14 -335 -99 q-115 -86 -116 -242 q4 -152 110 -243 q105 -92 266 -94 l0 0 ZM981 1581 l-209 0 q-3 -72 -46 -116 q-43 -44 -121 -45 q-78 1 -121 45 q-43 44 -46 116 l-209 0 q5 -139 101 -231 q96 -92 275 -95 q179 3 275 95 q96 92 101 231 l0 0 ZM744 1629 q99 1 165 76 q66 76 69 211 l-181 0 q-1 -52 -17 -82 q-16 -30 -50 -31 q-49 8 -104 63 q-56 55 -160 63 q-99 -1 -165 -73 q-66 -71 -69 -202 l181 0 q1 42 18 71 q17 30 51 31 q50 -8 104 -63 q55 -56 158 -64 l0 0 Z" /><glyph glyph-name="" unicode="&#x1eb3;" d="M546 231 q-69 1 -109 31 q-40 30 -41 84 q0 51 40 82 q40 30 116 36 l205 14 l0 -77 q-2 -78 -63 -123 q-60 -46 -148 -47 l0 0 ZM421 -15 q104 0 194 46 q90 45 137 129 l7 0 l0 -160 l344 0 l0 762 q-3 170 -136 272 q-132 101 -358 103 q-228 -2 -363 -103 q-135 -100 -144 -271 l319 0 q8 53 53 86 q45 33 118 34 q76 0 120 -36 q44 -36 45 -104 l0 -64 l-261 -16 q-219 -14 -335 -99 q-115 -86 -116 -242 q4 -152 110 -243 q105 -92 266 -94 l0 0 ZM981 1581 l-209 0 q-3 -72 -46 -116 q-43 -44 -121 -45 q-78 1 -121 45 q-43 44 -46 116 l-209 0 q5 -139 101 -231 q96 -92 275 -95 q179 3 275 95 q96 92 101 231 l0 0 ZM423 1802 q19 8 40 11 q21 4 44 4 q43 0 67 -19 q24 -19 24 -51 q1 -27 -18 -49 q-19 -23 -63 -45 l91 -102 q85 33 126 86 q42 54 42 132 q-1 89 -63 139 q-62 50 -173 51 q-34 0 -64 -6 q-31 -5 -53 -15 l0 -136 Z" /><glyph glyph-name="" unicode="&#x1eb7;" d="M546 231 q-69 1 -109 31 q-40 30 -41 84 q0 51 40 82 q40 30 116 36 l205 14 l0 -77 q-2 -78 -63 -123 q-60 -46 -148 -47 l0 0 ZM421 -15 q104 0 194 46 q90 45 137 129 l7 0 l0 -160 l344 0 l0 762 q-3 170 -136 272 q-132 101 -358 103 q-228 -2 -363 -103 q-135 -100 -144 -271 l319 0 q8 53 53 86 q45 33 118 34 q76 0 120 -36 q44 -36 45 -104 l0 -64 l-261 -16 q-219 -14 -335 -99 q-115 -86 -116 -242 q4 -152 110 -243 q105 -92 266 -94 l0 0 ZM595 -492 q71 2 117 48 q45 46 47 115 q-2 69 -47 115 q-46 46 -117 48 q-71 -2 -116 -48 q-46 -46 -48 -115 q2 -69 48 -115 q45 -46 116 -48 l0 0 ZM227 1581 q5 -139 102 -232 q97 -93 276 -97 q179 4 276 97 q97 93 102 232 l-210 0 q-3 -71 -46 -115 q-44 -45 -122 -46 q-78 1 -121 46 q-44 44 -47 115 l-210 0 Z" /><glyph glyph-name="" unicode="&#x203;" d="M546 231 q-69 1 -109 31 q-40 30 -41 84 q0 51 40 82 q40 30 116 36 l205 14 l0 -77 q-2 -78 -63 -123 q-60 -46 -148 -47 l0 0 ZM421 -15 q104 0 194 46 q90 45 137 129 l7 0 l0 -160 l344 0 l0 762 q-3 170 -136 272 q-132 101 -358 103 q-228 -2 -363 -103 q-135 -100 -144 -271 l319 0 q8 53 53 86 q45 33 118 34 q76 0 120 -36 q44 -36 45 -104 l0 -64 l-261 -16 q-219 -14 -335 -99 q-115 -86 -116 -242 q4 -152 110 -243 q105 -92 266 -94 l0 0 ZM227 1255 l210 0 q3 70 47 115 q43 45 121 46 q78 -1 122 -46 q43 -45 46 -115 l210 0 q-5 139 -102 232 q-97 92 -276 96 q-179 -4 -276 -96 q-97 -93 -102 -232 l0 0 Z" /><glyph glyph-name="" unicode="&#x1ce;" d="M546 231 q-69 1 -109 31 q-40 30 -41 84 q0 51 40 82 q40 30 116 36 l205 14 l0 -77 q-2 -78 -63 -123 q-60 -46 -148 -47 l0 0 ZM421 -15 q104 0 194 46 q90 45 137 129 l7 0 l0 -160 l344 0 l0 762 q-3 170 -136 272 q-132 101 -358 103 q-228 -2 -363 -103 q-135 -100 -144 -271 l319 0 q8 53 53 86 q45 33 118 34 q76 0 120 -36 q44 -36 45 -104 l0 -64 l-261 -16 q-219 -14 -335 -99 q-115 -86 -116 -242 q4 -152 110 -243 q105 -92 266 -94 l0 0 ZM739 1255 l261 327 l-256 0 l-135 -184 l-8 0 l-136 184 l-255 0 l260 -327 l269 0 Z" /><glyph glyph-name="" unicode="&#x227;" d="M546 231 q-69 1 -109 31 q-40 30 -41 84 q0 51 40 82 q40 30 116 36 l205 14 l0 -77 q-2 -78 -63 -123 q-60 -46 -148 -47 l0 0 ZM421 -15 q104 0 194 46 q90 45 137 129 l7 0 l0 -160 l344 0 l0 762 q-3 170 -136 272 q-132 101 -358 103 q-228 -2 -363 -103 q-135 -100 -144 -271 l319 0 q8 53 53 86 q45 33 118 34 q76 0 120 -36 q44 -36 45 -104 l0 -64 l-261 -16 q-219 -14 -335 -99 q-115 -86 -116 -242 q4 -152 110 -243 q105 -92 266 -94 l0 0 ZM603 1263 q71 2 117 48 q46 45 48 114 q-2 68 -48 114 q-46 45 -117 47 q-71 -2 -116 -47 q-46 -46 -48 -114 q2 -69 48 -114 q45 -46 116 -48 l0 0 Z" /><glyph glyph-name="" unicode="&#x1ea1;" d="M546 231 q-69 1 -109 31 q-40 30 -41 84 q0 51 40 82 q40 30 116 36 l205 14 l0 -77 q-2 -78 -63 -123 q-60 -46 -148 -47 l0 0 ZM421 -15 q104 0 194 46 q90 45 137 129 l7 0 l0 -160 l344 0 l0 762 q-3 170 -136 272 q-132 101 -358 103 q-228 -2 -363 -103 q-135 -100 -144 -271 l319 0 q8 53 53 86 q45 33 118 34 q76 0 120 -36 q44 -36 45 -104 l0 -64 l-261 -16 q-219 -14 -335 -99 q-115 -86 -116 -242 q4 -152 110 -243 q105 -92 266 -94 l0 0 ZM595 -492 q71 2 117 48 q45 46 47 115 q-2 69 -47 115 q-46 46 -117 48 q-71 -2 -116 -48 q-46 -46 -48 -115 q2 -69 48 -115 q45 -46 116 -48 l0 0 Z" /><glyph glyph-name="" unicode="&#x1ea3;" d="M546 231 q-69 1 -109 31 q-40 30 -41 84 q0 51 40 82 q40 30 116 36 l205 14 l0 -77 q-2 -78 -63 -123 q-60 -46 -148 -47 l0 0 ZM421 -15 q104 0 194 46 q90 45 137 129 l7 0 l0 -160 l344 0 l0 762 q-3 170 -136 272 q-132 101 -358 103 q-228 -2 -363 -103 q-135 -100 -144 -271 l319 0 q8 53 53 86 q45 33 118 34 q76 0 120 -36 q44 -36 45 -104 l0 -64 l-261 -16 q-219 -14 -335 -99 q-115 -86 -116 -242 q4 -152 110 -243 q105 -92 266 -94 l0 0 ZM434 1513 q48 19 102 19 q50 -1 79 -22 q29 -22 30 -59 q1 -38 -22 -66 q-23 -27 -75 -52 l97 -116 q97 46 150 111 q52 65 53 140 q-1 103 -69 163 q-69 59 -187 60 q-40 0 -83 -8 q-44 -8 -75 -20 l0 -150 Z" /><glyph glyph-name="" unicode="&#x201;" d="M546 231 q-69 1 -109 31 q-40 30 -41 84 q0 51 40 82 q40 30 116 36 l205 14 l0 -77 q-2 -78 -63 -123 q-60 -46 -148 -47 l0 0 ZM421 -15 q104 0 194 46 q90 45 137 129 l7 0 l0 -160 l344 0 l0 762 q-3 170 -136 272 q-132 101 -358 103 q-228 -2 -363 -103 q-135 -100 -144 -271 l319 0 q8 53 53 86 q45 33 118 34 q76 0 120 -36 q44 -36 45 -104 l0 -64 l-261 -16 q-219 -14 -335 -99 q-115 -86 -116 -242 q4 -152 110 -243 q105 -92 266 -94 l0 0 ZM538 1270 l-185 315 l-282 0 l221 -315 l246 0 ZM938 1270 l-186 315 l-282 0 l222 -315 l246 0 Z" /><glyph glyph-name="" unicode="&#x101;" d="M546 231 q-69 1 -109 31 q-40 30 -41 84 q0 51 40 82 q40 30 116 36 l205 14 l0 -77 q-2 -78 -63 -123 q-60 -46 -148 -47 l0 0 ZM421 -15 q104 0 194 46 q90 45 137 129 l7 0 l0 -160 l344 0 l0 762 q-3 170 -136 272 q-132 101 -358 103 q-228 -2 -363 -103 q-135 -100 -144 -271 l319 0 q8 53 53 86 q45 33 118 34 q76 0 120 -36 q44 -36 45 -104 l0 -64 l-261 -16 q-219 -14 -335 -99 q-115 -86 -116 -242 q4 -152 110 -243 q105 -92 266 -94 l0 0 ZM949 1449 l-688 0 l0 -163 l688 0 l0 163 Z" /><glyph glyph-name="" unicode="&#x105;" d="M546 231 q-69 1 -109 31 q-40 30 -41 84 q0 51 40 82 q40 30 116 36 l205 14 l0 -77 q-2 -78 -63 -123 q-60 -46 -148 -47 l0 0 ZM1053 -456 l0 179 q-9 -3 -28 -5 q-19 -3 -43 -3 q-61 1 -91 27 q-30 25 -30 68 q2 66 57 116 q55 49 137 67 l48 7 l0 762 q-3 170 -136 272 q-132 101 -358 103 q-228 -2 -363 -103 q-135 -100 -144 -271 l319 0 q8 53 53 86 q45 33 118 34 q76 0 120 -36 q44 -36 45 -104 l0 -64 l-261 -16 q-219 -14 -335 -99 q-115 -86 -116 -242 q4 -152 110 -243 q105 -92 266 -94 q104 0 194 46 q90 45 137 129 l7 0 l0 -172 q-67 -37 -110 -100 q-43 -63 -44 -136 q2 -104 81 -166 q79 -63 211 -65 q65 1 102 8 q36 7 54 15 l0 0 Z" /><glyph glyph-name="" unicode="b" d="M797 -15 q211 2 326 151 q115 148 116 421 q-1 273 -117 421 q-116 148 -328 150 q-120 -1 -207 -55 q-86 -55 -130 -155 l-8 0 l0 597 l-354 0 l0 -1515 l352 0 l0 191 l7 0 q44 -98 132 -151 q88 -54 211 -55 l0 0 ZM663 849 q98 -2 155 -80 q58 -78 59 -212 q-1 -136 -58 -214 q-57 -77 -156 -79 q-99 2 -157 79 q-57 78 -58 213 q1 134 59 213 q57 78 156 80 l0 0 Z" /><glyph glyph-name="" unicode="&#x1e07;" d="M1015 -235 l-722 0 l0 -163 l722 0 l0 163 ZM797 -15 q211 2 326 151 q115 148 116 421 q-1 273 -117 421 q-116 148 -328 150 q-120 -1 -207 -55 q-86 -55 -130 -155 l-8 0 l0 597 l-354 0 l0 -1515 l352 0 l0 191 l7 0 q44 -98 132 -151 q88 -54 211 -55 l0 0 ZM663 849 q98 -2 155 -80 q58 -78 59 -212 q-1 -136 -58 -214 q-57 -77 -156 -79 q-99 2 -157 79 q-57 78 -58 213 q1 134 59 213 q57 78 156 80 l0 0 Z" /><glyph glyph-name="" unicode="&#x1e05;" d="M654 -492 q71 2 117 48 q45 46 47 115 q-2 69 -47 115 q-46 46 -117 48 q-71 -2 -116 -48 q-46 -46 -48 -115 q2 -69 48 -115 q45 -46 116 -48 l0 0 ZM797 -15 q211 2 326 151 q115 148 116 421 q-1 273 -117 421 q-116 148 -328 150 q-120 -1 -207 -55 q-86 -55 -130 -155 l-8 0 l0 597 l-354 0 l0 -1515 l352 0 l0 191 l7 0 q44 -98 132 -151 q88 -54 211 -55 l0 0 ZM663 849 q98 -2 155 -80 q58 -78 59 -212 q-1 -136 -58 -214 q-57 -77 -156 -79 q-99 2 -157 79 q-57 78 -58 213 q1 134 59 213 q57 78 156 80 l0 0 Z" /><glyph glyph-name="" unicode="&#x1e03;" d="M272 1620 q71 2 117 48 q45 46 47 115 q-2 69 -47 115 q-46 46 -117 48 q-71 -2 -116 -48 q-46 -46 -48 -115 q2 -69 48 -115 q45 -46 116 -48 l0 0 ZM797 -15 q211 2 326 151 q115 148 116 421 q-1 273 -117 421 q-116 148 -328 150 q-120 -1 -207 -55 q-86 -55 -130 -155 l-8 0 l0 597 l-354 0 l0 -1515 l352 0 l0 191 l7 0 q44 -98 132 -151 q88 -54 211 -55 l0 0 ZM663 849 q98 -2 155 -80 q58 -78 59 -212 q-1 -136 -58 -214 q-57 -77 -156 -79 q-99 2 -157 79 q-57 78 -58 213 q1 134 59 213 q57 78 156 80 l0 0 Z" /><glyph glyph-name="" unicode="c" d="M1138 677 q-10 209 -149 333 q-138 124 -374 127 q-261 -3 -410 -156 q-148 -153 -151 -424 q3 -274 151 -426 q149 -153 412 -155 q236 2 374 122 q137 119 148 331 l-326 0 q-10 -87 -60 -134 q-50 -47 -132 -48 q-99 1 -154 80 q-54 79 -55 230 q1 148 55 229 q55 80 154 81 q82 -1 132 -52 q50 -51 60 -138 l325 0 Z" /><glyph glyph-name="" unicode="&#x107;" d="M1138 677 q-10 209 -149 333 q-138 124 -374 127 q-261 -3 -410 -156 q-148 -153 -151 -424 q3 -274 151 -426 q149 -153 412 -155 q236 2 374 122 q137 119 148 331 l-326 0 q-10 -87 -60 -134 q-50 -47 -132 -48 q-99 1 -154 80 q-54 79 -55 230 q1 148 55 229 q55 80 154 81 q82 -1 132 -52 q50 -51 60 -138 l325 0 ZM726 1269 l264 316 l-312 0 l-227 -316 l275 0 Z" /><glyph glyph-name="" unicode="&#x10d;" d="M729 1255 l261 327 l-256 0 l-135 -184 l-8 0 l-136 184 l-255 0 l260 -327 l269 0 ZM1138 677 q-10 209 -149 333 q-138 124 -374 127 q-261 -3 -410 -156 q-148 -153 -151 -424 q3 -274 151 -426 q149 -153 412 -155 q236 2 374 122 q137 119 148 331 l-326 0 q-10 -87 -60 -134 q-50 -47 -132 -48 q-99 1 -154 80 q-54 79 -55 230 q1 148 55 229 q55 80 154 81 q82 -1 132 -52 q50 -51 60 -138 l325 0 Z" /><glyph glyph-name="" unicode="&#x109;" d="M729 1582 l-269 0 l-260 -327 l255 0 l136 184 l8 0 l135 -184 l256 0 l-261 327 ZM1138 677 q-10 209 -149 333 q-138 124 -374 127 q-261 -3 -410 -156 q-148 -153 -151 -424 q3 -274 151 -426 q149 -153 412 -155 q236 2 374 122 q137 119 148 331 l-326 0 q-10 -87 -60 -134 q-50 -47 -132 -48 q-99 1 -154 80 q-54 79 -55 230 q1 148 55 229 q55 80 154 81 q82 -1 132 -52 q50 -51 60 -138 l325 0 Z" /><glyph glyph-name="" unicode="&#x10b;" d="M1138 677 q-10 209 -149 333 q-138 124 -374 127 q-261 -3 -410 -156 q-148 -153 -151 -424 q3 -274 151 -426 q149 -153 412 -155 q236 2 374 122 q137 119 148 331 l-326 0 q-10 -87 -60 -134 q-50 -47 -132 -48 q-99 1 -154 80 q-54 79 -55 230 q1 148 55 229 q55 80 154 81 q82 -1 132 -52 q50 -51 60 -138 l325 0 ZM593 1263 q71 2 117 48 q46 45 48 114 q-2 68 -48 114 q-46 45 -117 47 q-71 -2 -116 -47 q-46 -46 -48 -114 q2 -69 48 -114 q45 -46 116 -48 l0 0 Z" /><glyph glyph-name="" unicode="ç" d="M813 429 q-10 -87 -60 -134 q-50 -47 -132 -48 q-99 1 -154 80 q-54 79 -55 230 q1 148 55 229 q55 80 154 81 q82 -1 132 -52 q50 -51 60 -138 l325 0 q-10 209 -149 333 q-138 124 -374 127 q-261 -3 -410 -156 q-148 -153 -151 -424 q2 -247 124 -396 q123 -149 342 -179 l-47 -94 l0 -114 l56 0 q61 0 87 -11 q26 -12 25 -40 q0 -23 -24 -34 q-24 -11 -76 -11 q-29 0 -58 3 q-28 3 -47 9 l0 -131 q24 -7 59 -11 q36 -4 78 -4 q123 0 187 49 q65 49 65 142 q-1 76 -47 119 q-46 43 -126 44 l38 81 q204 21 322 138 q118 118 127 312 l-326 0 Z" /><glyph glyph-name="" unicode="&#x1e09;" d="M990 1585 l-312 0 l-227 -316 l275 0 l264 316 ZM813 429 q-10 -87 -60 -134 q-50 -47 -132 -48 q-99 1 -154 80 q-54 79 -55 230 q1 148 55 229 q55 80 154 81 q82 -1 132 -52 q50 -51 60 -138 l325 0 q-10 209 -149 333 q-138 124 -374 127 q-261 -3 -410 -156 q-148 -153 -151 -424 q2 -247 124 -396 q123 -149 342 -179 l-47 -94 l0 -114 l56 0 q61 0 87 -11 q26 -12 25 -40 q0 -23 -24 -34 q-24 -11 -76 -11 q-29 0 -58 3 q-28 3 -47 9 l0 -131 q24 -7 59 -11 q36 -4 78 -4 q123 0 187 49 q65 49 65 142 q-1 76 -47 119 q-46 43 -126 44 l38 81 q204 21 322 138 q118 118 127 312 l-326 0 Z" /><glyph glyph-name="" unicode="d" d="M499 -15 q125 2 215 58 q89 57 125 148 l6 0 l0 -191 l353 0 l0 1515 l-355 0 l0 -597 l-7 0 q-38 95 -125 152 q-86 57 -209 58 q-210 -2 -328 -152 q-118 -150 -120 -417 q2 -270 119 -421 q117 -151 326 -153 l0 0 ZM631 849 q100 -1 157 -79 q56 -78 57 -214 q-1 -137 -57 -214 q-57 -77 -157 -78 q-101 1 -157 78 q-57 77 -58 215 q1 136 58 214 q57 77 157 78 l0 0 Z" /><glyph glyph-name="" unicode="&#x1e0b;" d="M1031 1620 q71 2 117 48 q45 46 47 115 q-2 69 -47 115 q-46 46 -117 48 q-71 -2 -116 -48 q-46 -46 -48 -115 q2 -69 48 -115 q45 -46 116 -48 l0 0 ZM499 -15 q125 2 215 58 q89 57 125 148 l6 0 l0 -191 l353 0 l0 1515 l-355 0 l0 -597 l-7 0 q-38 95 -125 152 q-86 57 -209 58 q-210 -2 -328 -152 q-118 -150 -120 -417 q2 -270 119 -421 q117 -151 326 -153 l0 0 ZM631 849 q100 -1 157 -79 q56 -78 57 -214 q-1 -137 -57 -214 q-57 -77 -157 -78 q-101 1 -157 78 q-57 77 -58 215 q1 136 58 214 q57 77 157 78 l0 0 Z" /><glyph glyph-name="" unicode="&#x1e13;" d="M499 -15 q125 2 215 58 q89 57 125 148 l6 0 l0 -191 l353 0 l0 1515 l-355 0 l0 -597 l-7 0 q-38 95 -125 152 q-86 57 -209 58 q-210 -2 -328 -152 q-118 -150 -120 -417 q2 -270 119 -421 q117 -151 326 -153 l0 0 ZM631 849 q100 -1 157 -79 q56 -78 57 -214 q-1 -137 -57 -214 q-57 -77 -157 -78 q-101 1 -157 78 q-57 77 -58 215 q1 136 58 214 q57 77 157 78 l0 0 ZM494 -156 l-263 -328 l250 0 l147 194 l6 0 l147 -194 l250 0 l-263 328 l-274 0 Z" /><glyph glyph-name="" unicode="&#x1e11;" d="M605 -477 l183 333 l-310 0 l-138 -333 l265 0 ZM499 -15 q125 2 215 58 q89 57 125 148 l6 0 l0 -191 l353 0 l0 1515 l-355 0 l0 -597 l-7 0 q-38 95 -125 152 q-86 57 -209 58 q-210 -2 -328 -152 q-118 -150 -120 -417 q2 -270 119 -421 q117 -151 326 -153 l0 0 ZM631 849 q100 -1 157 -79 q56 -78 57 -214 q-1 -137 -57 -214 q-57 -77 -157 -78 q-101 1 -157 78 q-57 77 -58 215 q1 136 58 214 q57 77 157 78 l0 0 Z" /><glyph glyph-name="" unicode="&#x1e0f;" d="M992 -235 l-722 0 l0 -163 l722 0 l0 163 ZM499 -15 q125 2 215 58 q89 57 125 148 l6 0 l0 -191 l353 0 l0 1515 l-355 0 l0 -597 l-7 0 q-38 95 -125 152 q-86 57 -209 58 q-210 -2 -328 -152 q-118 -150 -120 -417 q2 -270 119 -421 q117 -151 326 -153 l0 0 ZM631 849 q100 -1 157 -79 q56 -78 57 -214 q-1 -137 -57 -214 q-57 -77 -157 -78 q-101 1 -157 78 q-57 77 -58 215 q1 136 58 214 q57 77 157 78 l0 0 Z" /><glyph glyph-name="" unicode="&#x10f;" d="M1350 1508 l0 -511 l212 0 l45 511 l-257 0 ZM499 -15 q125 2 215 58 q89 57 125 148 l6 0 l0 -191 l353 0 l0 1515 l-355 0 l0 -597 l-7 0 q-38 95 -125 152 q-86 57 -209 58 q-210 -2 -328 -152 q-118 -150 -120 -417 q2 -270 119 -421 q117 -151 326 -153 l0 0 ZM631 849 q100 -1 157 -79 q56 -78 57 -214 q-1 -137 -57 -214 q-57 -77 -157 -78 q-101 1 -157 78 q-57 77 -58 215 q1 136 58 214 q57 77 157 78 l0 0 Z" /><glyph glyph-name="" unicode="&#x1e0d;" d="M631 -492 q71 2 117 48 q45 46 47 115 q-2 69 -47 115 q-46 46 -117 48 q-71 -2 -116 -48 q-46 -46 -48 -115 q2 -69 48 -115 q45 -46 116 -48 l0 0 ZM499 -15 q125 2 215 58 q89 57 125 148 l6 0 l0 -191 l353 0 l0 1515 l-355 0 l0 -597 l-7 0 q-38 95 -125 152 q-86 57 -209 58 q-210 -2 -328 -152 q-118 -150 -120 -417 q2 -270 119 -421 q117 -151 326 -153 l0 0 ZM631 849 q100 -1 157 -79 q56 -78 57 -214 q-1 -137 -57 -214 q-57 -77 -157 -78 q-101 1 -157 78 q-57 77 -58 215 q1 136 58 214 q57 77 157 78 l0 0 Z" /><glyph glyph-name="" unicode="&#x111;" d="M631 264 q-101 1 -157 78 q-57 77 -58 215 q1 136 58 214 q57 77 157 78 q100 -1 157 -79 q56 -78 57 -214 q-1 -137 -57 -214 q-57 -77 -157 -78 l0 0 ZM1285 1408 l-87 0 l0 107 l-355 0 l0 -107 l-193 0 l0 -164 l193 0 l0 -326 l-7 0 q-38 95 -125 152 q-86 57 -209 58 q-210 -2 -328 -152 q-118 -150 -120 -417 q2 -270 119 -421 q117 -151 326 -153 q125 2 215 58 q89 57 125 148 l6 0 l0 -191 l353 0 l0 1244 l87 0 l0 164 Z" /><glyph glyph-name="" unicode="e" d="M611 885 q90 -1 145 -55 q55 -55 61 -148 l-414 0 q8 91 65 146 q56 55 143 57 l0 0 ZM825 350 q-21 -57 -74 -89 q-54 -32 -128 -33 q-101 2 -162 64 q-60 61 -62 165 l0 22 l753 0 l0 101 q-3 257 -148 406 q-146 148 -398 151 q-256 -3 -403 -158 q-146 -156 -149 -428 q2 -271 150 -422 q148 -151 414 -153 q219 2 359 102 q140 99 168 272 l-320 0 Z" /><glyph glyph-name="" unicode="è" d="M753 1269 l-227 316 l-312 0 l264 -316 l275 0 ZM611 885 q90 -1 145 -55 q55 -55 61 -148 l-414 0 q8 91 65 146 q56 55 143 57 l0 0 ZM825 350 q-21 -57 -74 -89 q-54 -32 -128 -33 q-101 2 -162 64 q-60 61 -62 165 l0 22 l753 0 l0 101 q-3 257 -148 406 q-146 148 -398 151 q-256 -3 -403 -158 q-146 -156 -149 -428 q2 -271 150 -422 q148 -151 414 -153 q219 2 359 102 q140 99 168 272 l-320 0 Z" /><glyph glyph-name="" unicode="&#x205;" d="M611 885 q90 -1 145 -55 q55 -55 61 -148 l-414 0 q8 91 65 146 q56 55 143 57 l0 0 ZM825 350 q-21 -57 -74 -89 q-54 -32 -128 -33 q-101 2 -162 64 q-60 61 -62 165 l0 22 l753 0 l0 101 q-3 257 -148 406 q-146 148 -398 151 q-256 -3 -403 -158 q-146 -156 -149 -428 q2 -271 150 -422 q148 -151 414 -153 q219 2 359 102 q140 99 168 272 l-320 0 ZM538 1270 l-185 315 l-282 0 l221 -315 l246 0 ZM938 1270 l-186 315 l-282 0 l222 -315 l246 0 Z" /><glyph glyph-name="" unicode="é" d="M736 1269 l264 316 l-312 0 l-227 -316 l275 0 ZM611 885 q90 -1 145 -55 q55 -55 61 -148 l-414 0 q8 91 65 146 q56 55 143 57 l0 0 ZM825 350 q-21 -57 -74 -89 q-54 -32 -128 -33 q-101 2 -162 64 q-60 61 -62 165 l0 22 l753 0 l0 101 q-3 257 -148 406 q-146 148 -398 151 q-256 -3 -403 -158 q-146 -156 -149 -428 q2 -271 150 -422 q148 -151 414 -153 q219 2 359 102 q140 99 168 272 l-320 0 Z" /><glyph glyph-name="" unicode="ê" d="M739 1582 l-269 0 l-260 -327 l255 0 l136 184 l8 0 l135 -184 l256 0 l-261 327 ZM611 885 q90 -1 145 -55 q55 -55 61 -148 l-414 0 q8 91 65 146 q56 55 143 57 l0 0 ZM825 350 q-21 -57 -74 -89 q-54 -32 -128 -33 q-101 2 -162 64 q-60 61 -62 165 l0 22 l753 0 l0 101 q-3 257 -148 406 q-146 148 -398 151 q-256 -3 -403 -158 q-146 -156 -149 -428 q2 -271 150 -422 q148 -151 414 -153 q219 2 359 102 q140 99 168 272 l-320 0 Z" /><glyph glyph-name="" unicode="&#x1ec3;" d="M739 1762 q19 7 42 11 q22 3 47 3 q46 0 72 -19 q26 -19 26 -54 q0 -31 -23 -60 q-22 -28 -66 -47 l97 -109 q181 72 181 240 q-1 95 -68 149 q-66 54 -183 55 q-35 0 -68 -6 q-33 -6 -57 -15 l0 -148 ZM745 1572 l-280 0 l-256 -317 l255 0 l137 180 l8 0 l137 -180 l255 0 l-256 317 ZM611 885 q90 -1 145 -55 q55 -55 61 -148 l-414 0 q8 91 65 146 q56 55 143 57 l0 0 ZM825 350 q-21 -57 -74 -89 q-54 -32 -128 -33 q-101 2 -162 64 q-60 61 -62 165 l0 22 l753 0 l0 101 q-3 257 -148 406 q-146 148 -398 151 q-256 -3 -403 -158 q-146 -156 -149 -428 q2 -271 150 -422 q148 -151 414 -153 q219 2 359 102 q140 99 168 272 l-320 0 Z" /><glyph glyph-name="" unicode="&#x1ec1;" d="M745 1572 l-280 0 l-256 -317 l255 0 l137 180 l8 0 l137 -180 l255 0 l-256 317 ZM1070 1627 l-195 285 l-286 0 l232 -285 l249 0 ZM611 885 q90 -1 145 -55 q55 -55 61 -148 l-414 0 q8 91 65 146 q56 55 143 57 l0 0 ZM825 350 q-21 -57 -74 -89 q-54 -32 -128 -33 q-101 2 -162 64 q-60 61 -62 165 l0 22 l753 0 l0 101 q-3 257 -148 406 q-146 148 -398 151 q-256 -3 -403 -158 q-146 -156 -149 -428 q2 -271 150 -422 q148 -151 414 -153 q219 2 359 102 q140 99 168 272 l-320 0 Z" /><glyph glyph-name="" unicode="&#x1ec5;" d="M611 885 q90 -1 145 -55 q55 -55 61 -148 l-414 0 q8 91 65 146 q56 55 143 57 l0 0 ZM825 350 q-21 -57 -74 -89 q-54 -32 -128 -33 q-101 2 -162 64 q-60 61 -62 165 l0 22 l753 0 l0 101 q-3 257 -148 406 q-146 148 -398 151 q-256 -3 -403 -158 q-146 -156 -149 -428 q2 -271 150 -422 q148 -151 414 -153 q219 2 359 102 q140 99 168 272 l-320 0 ZM745 1557 l-280 0 l-256 -302 l255 0 l137 167 l8 0 l137 -167 l255 0 l-256 302 ZM744 1629 q99 1 165 76 q66 76 69 211 l-181 0 q-1 -52 -17 -82 q-16 -30 -50 -31 q-49 8 -104 63 q-56 55 -160 63 q-99 -1 -165 -73 q-66 -73 -69 -209 l181 0 q1 47 18 77 q17 31 51 32 q50 -8 104 -63 q55 -56 158 -64 l0 0 Z" /><glyph glyph-name="" unicode="&#x1ec7;" d="M739 1582 l-269 0 l-260 -327 l255 0 l136 184 l8 0 l135 -184 l256 0 l-261 327 ZM611 885 q90 -1 145 -55 q55 -55 61 -148 l-414 0 q8 91 65 146 q56 55 143 57 l0 0 ZM825 350 q-21 -57 -74 -89 q-54 -32 -128 -33 q-101 2 -162 64 q-60 61 -62 165 l0 22 l753 0 l0 101 q-3 257 -148 406 q-146 148 -398 151 q-256 -3 -403 -158 q-146 -156 -149 -428 q2 -271 150 -422 q148 -151 414 -153 q219 2 359 102 q140 99 168 272 l-320 0 ZM607 -492 q71 2 117 48 q45 46 47 115 q-2 69 -47 115 q-46 46 -117 48 q-71 -2 -116 -48 q-46 -46 -48 -115 q2 -69 48 -115 q45 -46 116 -48 l0 0 Z" /><glyph glyph-name="" unicode="&#x1ebf;" d="M745 1572 l-280 0 l-256 -317 l255 0 l137 180 l8 0 l137 -180 l255 0 l-256 317 ZM747 1627 l250 0 l232 285 l-286 0 l-196 -285 ZM611 885 q90 -1 145 -55 q55 -55 61 -148 l-414 0 q8 91 65 146 q56 55 143 57 l0 0 ZM825 350 q-21 -57 -74 -89 q-54 -32 -128 -33 q-101 2 -162 64 q-60 61 -62 165 l0 22 l753 0 l0 101 q-3 257 -148 406 q-146 148 -398 151 q-256 -3 -403 -158 q-146 -156 -149 -428 q2 -271 150 -422 q148 -151 414 -153 q219 2 359 102 q140 99 168 272 l-320 0 Z" /><glyph glyph-name="" unicode="ë" d="M611 885 q90 -1 145 -55 q55 -55 61 -148 l-414 0 q8 91 65 146 q56 55 143 57 l0 0 ZM825 350 q-21 -57 -74 -89 q-54 -32 -128 -33 q-101 2 -162 64 q-60 61 -62 165 l0 22 l753 0 l0 101 q-3 257 -148 406 q-146 148 -398 151 q-256 -3 -403 -158 q-146 -156 -149 -428 q2 -271 150 -422 q148 -151 414 -153 q219 2 359 102 q140 99 168 272 l-320 0 ZM388 1257 q65 2 106 42 q41 40 42 99 q-1 60 -42 100 q-41 40 -106 41 q-64 -1 -105 -41 q-41 -40 -42 -100 q1 -59 42 -99 q41 -40 105 -42 l0 0 ZM821 1257 q65 2 105 42 q41 40 42 99 q-1 60 -42 100 q-40 40 -105 41 q-65 -1 -105 -41 q-41 -40 -42 -100 q1 -59 42 -99 q40 -40 105 -42 l0 0 Z" /><glyph glyph-name="" unicode="&#x1eb9;" d="M607 -492 q71 2 117 48 q45 46 47 115 q-2 69 -47 115 q-46 46 -117 48 q-71 -2 -116 -48 q-46 -46 -48 -115 q2 -69 48 -115 q45 -46 116 -48 l0 0 ZM611 885 q90 -1 145 -55 q55 -55 61 -148 l-414 0 q8 91 65 146 q56 55 143 57 l0 0 ZM825 350 q-21 -57 -74 -89 q-54 -32 -128 -33 q-101 2 -162 64 q-60 61 -62 165 l0 22 l753 0 l0 101 q-3 257 -148 406 q-146 148 -398 151 q-256 -3 -403 -158 q-146 -156 -149 -428 q2 -271 150 -422 q148 -151 414 -153 q219 2 359 102 q140 99 168 272 l-320 0 Z" /><glyph glyph-name="" unicode="&#x207;" d="M611 885 q90 -1 145 -55 q55 -55 61 -148 l-414 0 q8 91 65 146 q56 55 143 57 l0 0 ZM825 350 q-21 -57 -74 -89 q-54 -32 -128 -33 q-101 2 -162 64 q-60 61 -62 165 l0 22 l753 0 l0 101 q-3 257 -148 406 q-146 148 -398 151 q-256 -3 -403 -158 q-146 -156 -149 -428 q2 -271 150 -422 q148 -151 414 -153 q219 2 359 102 q140 99 168 272 l-320 0 ZM227 1255 l210 0 q3 70 47 115 q43 45 121 46 q78 -1 122 -46 q43 -45 46 -115 l210 0 q-5 139 -102 232 q-97 92 -276 96 q-179 -4 -276 -96 q-97 -93 -102 -232 l0 0 Z" /><glyph glyph-name="" unicode="&#x1ebb;" d="M611 885 q90 -1 145 -55 q55 -55 61 -148 l-414 0 q8 91 65 146 q56 55 143 57 l0 0 ZM825 350 q-21 -57 -74 -89 q-54 -32 -128 -33 q-101 2 -162 64 q-60 61 -62 165 l0 22 l753 0 l0 101 q-3 257 -148 406 q-146 148 -398 151 q-256 -3 -403 -158 q-146 -156 -149 -428 q2 -271 150 -422 q148 -151 414 -153 q219 2 359 102 q140 99 168 272 l-320 0 ZM434 1513 q48 19 102 19 q50 -1 79 -22 q29 -22 30 -59 q1 -38 -22 -66 q-23 -27 -75 -52 l97 -116 q97 46 150 111 q52 65 53 140 q-1 103 -69 163 q-69 59 -187 60 q-40 0 -83 -8 q-44 -8 -75 -20 l0 -150 Z" /><glyph glyph-name="" unicode="&#x11b;" d="M739 1255 l261 327 l-256 0 l-135 -184 l-8 0 l-136 184 l-255 0 l260 -327 l269 0 ZM611 885 q90 -1 145 -55 q55 -55 61 -148 l-414 0 q8 91 65 146 q56 55 143 57 l0 0 ZM825 350 q-21 -57 -74 -89 q-54 -32 -128 -33 q-101 2 -162 64 q-60 61 -62 165 l0 22 l753 0 l0 101 q-3 257 -148 406 q-146 148 -398 151 q-256 -3 -403 -158 q-146 -156 -149 -428 q2 -271 150 -422 q148 -151 414 -153 q219 2 359 102 q140 99 168 272 l-320 0 Z" /><glyph glyph-name="" unicode="&#x113;" d="M611 885 q90 -1 145 -55 q55 -55 61 -148 l-414 0 q8 91 65 146 q56 55 143 57 l0 0 ZM825 350 q-21 -57 -74 -89 q-54 -32 -128 -33 q-101 2 -162 64 q-60 61 -62 165 l0 22 l753 0 l0 101 q-3 257 -148 406 q-146 148 -398 151 q-256 -3 -403 -158 q-146 -156 -149 -428 q2 -271 150 -422 q148 -151 414 -153 q219 2 359 102 q140 99 168 272 l-320 0 ZM949 1449 l-688 0 l0 -163 l688 0 l0 163 Z" /><glyph glyph-name="" unicode="&#x1e15;" d="M611 885 q90 -1 145 -55 q55 -55 61 -148 l-414 0 q8 91 65 146 q56 55 143 57 l0 0 ZM825 350 q-21 -57 -74 -89 q-54 -32 -128 -33 q-101 2 -162 64 q-60 61 -62 165 l0 22 l753 0 l0 101 q-3 257 -148 406 q-146 148 -398 151 q-256 -3 -403 -158 q-146 -156 -149 -428 q2 -271 150 -422 q148 -151 414 -153 q219 2 359 102 q140 99 168 272 l-320 0 ZM727 1632 l-170 280 l-290 0 l225 -280 l235 0 ZM949 1449 l-688 0 l0 -163 l688 0 l0 163 Z" /><glyph glyph-name="" unicode="&#x1e17;" d="M611 885 q90 -1 145 -55 q55 -55 61 -148 l-414 0 q8 91 65 146 q56 55 143 57 l0 0 ZM825 350 q-21 -57 -74 -89 q-54 -32 -128 -33 q-101 2 -162 64 q-60 61 -62 165 l0 22 l753 0 l0 101 q-3 257 -148 406 q-146 148 -398 151 q-256 -3 -403 -158 q-146 -156 -149 -428 q2 -271 150 -422 q148 -151 414 -153 q219 2 359 102 q140 99 168 272 l-320 0 ZM479 1637 l254 0 l229 275 l-291 0 l-192 -275 ZM949 1449 l-688 0 l0 -163 l688 0 l0 163 Z" /><glyph glyph-name="" unicode="&#x1ebd;" d="M611 885 q90 -1 145 -55 q55 -55 61 -148 l-414 0 q8 91 65 146 q56 55 143 57 l0 0 ZM825 350 q-21 -57 -74 -89 q-54 -32 -128 -33 q-101 2 -162 64 q-60 61 -62 165 l0 22 l753 0 l0 101 q-3 257 -148 406 q-146 148 -398 151 q-256 -3 -403 -158 q-146 -156 -149 -428 q2 -271 150 -422 q148 -151 414 -153 q219 2 359 102 q140 99 168 272 l-320 0 ZM753 1258 q99 1 165 76 q66 76 69 211 l-181 0 q-1 -52 -17 -83 q-16 -30 -50 -31 q-49 8 -105 64 q-55 55 -160 63 q-99 -1 -165 -74 q-66 -73 -69 -209 l181 0 q1 48 18 78 q17 31 51 32 q50 -8 105 -63 q55 -56 158 -64 l0 0 Z" /><glyph glyph-name="" unicode="&#x1e19;" d="M611 885 q90 -1 145 -55 q55 -55 61 -148 l-414 0 q8 91 65 146 q56 55 143 57 l0 0 ZM825 350 q-21 -57 -74 -89 q-54 -32 -128 -33 q-101 2 -162 64 q-60 61 -62 165 l0 22 l753 0 l0 101 q-3 257 -148 406 q-146 148 -398 151 q-256 -3 -403 -158 q-146 -156 -149 -428 q2 -271 150 -422 q148 -151 414 -153 q219 2 359 102 q140 99 168 272 l-320 0 ZM470 -156 l-263 -328 l250 0 l147 194 l6 0 l147 -194 l250 0 l-263 328 l-274 0 Z" /><glyph glyph-name="" unicode="&#x115;" d="M611 885 q90 -1 145 -55 q55 -55 61 -148 l-414 0 q8 91 65 146 q56 55 143 57 l0 0 ZM825 350 q-21 -57 -74 -89 q-54 -32 -128 -33 q-101 2 -162 64 q-60 61 -62 165 l0 22 l753 0 l0 101 q-3 257 -148 406 q-146 148 -398 151 q-256 -3 -403 -158 q-146 -156 -149 -428 q2 -271 150 -422 q148 -151 414 -153 q219 2 359 102 q140 99 168 272 l-320 0 ZM227 1581 q5 -139 102 -232 q97 -93 276 -97 q179 4 276 97 q97 93 102 232 l-210 0 q-3 -71 -46 -115 q-44 -45 -122 -46 q-78 1 -121 46 q-44 44 -47 115 l-210 0 Z" /><glyph glyph-name="" unicode="&#x1e1b;" d="M754 -447 q99 1 165 76 q66 76 69 211 l-181 0 q-1 -52 -17 -83 q-16 -30 -50 -31 q-49 8 -105 64 q-55 55 -160 63 q-99 -1 -165 -74 q-66 -73 -69 -209 l181 0 q1 48 18 78 q17 31 51 32 q50 -8 105 -63 q55 -56 158 -64 l0 0 ZM611 885 q90 -1 145 -55 q55 -55 61 -148 l-414 0 q8 91 65 146 q56 55 143 57 l0 0 ZM825 350 q-21 -57 -74 -89 q-54 -32 -128 -33 q-101 2 -162 64 q-60 61 -62 165 l0 22 l753 0 l0 101 q-3 257 -148 406 q-146 148 -398 151 q-256 -3 -403 -158 q-146 -156 -149 -428 q2 -271 150 -422 q148 -151 414 -153 q219 2 359 102 q140 99 168 272 l-320 0 Z" /><glyph glyph-name="" unicode="&#x117;" d="M603 1263 q71 2 117 48 q46 45 48 114 q-2 68 -48 114 q-46 45 -117 47 q-71 -2 -116 -47 q-46 -46 -48 -114 q2 -69 48 -114 q45 -46 116 -48 l0 0 ZM611 885 q90 -1 145 -55 q55 -55 61 -148 l-414 0 q8 91 65 146 q56 55 143 57 l0 0 ZM825 350 q-21 -57 -74 -89 q-54 -32 -128 -33 q-101 2 -162 64 q-60 61 -62 165 l0 22 l753 0 l0 101 q-3 257 -148 406 q-146 148 -398 151 q-256 -3 -403 -158 q-146 -156 -149 -428 q2 -271 150 -422 q148 -151 414 -153 q219 2 359 102 q140 99 168 272 l-320 0 Z" /><glyph glyph-name="" unicode="&#x229;" d="M403 682 q8 91 65 146 q56 55 143 57 q90 -1 145 -55 q55 -55 61 -148 l-414 0 ZM1152 479 l0 101 q-3 257 -148 406 q-146 148 -398 151 q-256 -3 -403 -158 q-146 -156 -149 -428 q2 -248 126 -396 q124 -147 351 -174 l-46 -93 l0 -114 l56 0 q61 0 87 -11 q26 -12 25 -40 q0 -23 -24 -34 q-24 -11 -76 -11 q-29 0 -58 3 q-28 3 -47 9 l0 -131 q24 -7 59 -11 q36 -4 78 -4 q123 0 187 49 q65 49 65 142 q-1 76 -47 119 q-46 43 -126 44 l39 82 q184 21 301 118 q116 97 141 252 l-320 0 q-21 -57 -74 -89 q-54 -32 -128 -33 q-101 2 -162 64 q-60 61 -62 165 l0 22 l753 0 Z" /><glyph glyph-name="" unicode="&#x1e1d;" d="M773 1581 q-3 -71 -46 -115 q-44 -45 -122 -46 q-78 1 -121 46 q-44 44 -47 115 l-210 0 q5 -139 102 -232 q97 -93 276 -97 q179 4 276 97 q97 93 102 232 l-210 0 ZM403 682 q8 91 65 146 q56 55 143 57 q90 -1 145 -55 q55 -55 61 -148 l-414 0 ZM1152 479 l0 101 q-3 257 -148 406 q-146 148 -398 151 q-256 -3 -403 -158 q-146 -156 -149 -428 q2 -248 126 -396 q124 -147 351 -174 l-46 -93 l0 -114 l56 0 q61 0 87 -11 q26 -12 25 -40 q0 -23 -24 -34 q-24 -11 -76 -11 q-29 0 -58 3 q-28 3 -47 9 l0 -131 q24 -7 59 -11 q36 -4 78 -4 q123 0 187 49 q65 49 65 142 q-1 76 -47 119 q-46 43 -126 44 l39 82 q184 21 301 118 q116 97 141 252 l-320 0 q-21 -57 -74 -89 q-54 -32 -128 -33 q-101 2 -162 64 q-60 61 -62 165 l0 22 l753 0 Z" /><glyph glyph-name="" unicode="&#x119;" d="M832 -479 q50 0 89 6 q39 6 67 17 l0 179 q-8 -3 -27 -5 q-19 -3 -43 -3 q-59 0 -90 26 q-31 27 -31 77 q0 57 48 125 q48 67 148 149 q63 52 102 119 q40 68 50 139 l-320 0 q-21 -57 -74 -89 q-53 -32 -128 -33 q-101 2 -162 64 q-60 61 -62 165 l0 22 l753 0 l0 101 q-3 257 -148 406 q-146 148 -398 151 q-256 -3 -403 -158 q-146 -156 -149 -428 q2 -271 150 -422 q148 -151 414 -153 q23 0 41 1 q17 1 28 3 l0 -7 q-70 -38 -108 -95 q-38 -57 -38 -126 q2 -104 81 -166 q80 -63 210 -65 l0 0 ZM611 885 q90 -1 145 -55 q55 -55 61 -148 l-414 0 q8 91 65 146 q56 55 143 57 l0 0 Z" /><glyph glyph-name="" unicode="f" d="M178 0 l354 0 l0 851 l195 0 l0 262 l-204 0 l0 70 q0 49 29 71 q29 23 93 23 q27 0 46 -2 q20 -2 35 -5 l0 234 q-34 5 -73 8 q-39 3 -83 3 q-211 1 -302 -71 q-92 -72 -90 -234 l0 -97 l-149 0 l0 -262 l149 0 l0 -851 Z" /><glyph glyph-name="" unicode="&#x1e1f;" d="M474 1615 q71 2 117 48 q45 46 47 115 q-2 69 -47 115 q-46 46 -117 48 q-71 -2 -116 -48 q-46 -46 -48 -115 q2 -69 48 -115 q45 -46 116 -48 l0 0 ZM178 0 l354 0 l0 851 l195 0 l0 262 l-204 0 l0 70 q0 49 29 71 q29 23 93 23 q27 0 46 -2 q20 -2 35 -5 l0 234 q-34 5 -73 8 q-39 3 -83 3 q-211 1 -302 -71 q-92 -72 -90 -234 l0 -97 l-149 0 l0 -262 l149 0 l0 -851 Z" /><glyph glyph-name="" unicode="g" d="M630 274 q-101 1 -157 74 q-56 73 -57 210 q1 136 58 213 q56 77 156 78 q100 -1 157 -79 q57 -77 58 -213 q-1 -136 -58 -209 q-56 -73 -157 -74 l0 0 ZM620 -420 q262 2 418 117 q156 114 160 316 l0 1100 l-353 0 l0 -195 l-6 0 q-39 95 -127 152 q-87 57 -209 58 q-211 -2 -329 -152 q-118 -149 -120 -416 q3 -261 122 -404 q119 -143 321 -145 q125 1 214 54 q90 52 125 142 l7 0 l0 -203 q0 -87 -55 -137 q-54 -51 -160 -52 q-79 1 -132 31 q-53 30 -68 81 l-344 0 q17 -154 158 -249 q140 -95 378 -98 l0 0 Z" /><glyph glyph-name="" unicode="&#x1f5;" d="M768 1269 l264 316 l-312 0 l-227 -316 l275 0 ZM630 274 q-101 1 -157 74 q-56 73 -57 210 q1 136 58 213 q56 77 156 78 q100 -1 157 -79 q57 -77 58 -213 q-1 -136 -58 -209 q-56 -73 -157 -74 l0 0 ZM620 -420 q262 2 418 117 q156 114 160 316 l0 1100 l-353 0 l0 -195 l-6 0 q-39 95 -127 152 q-87 57 -209 58 q-211 -2 -329 -152 q-118 -149 -120 -416 q3 -261 122 -404 q119 -143 321 -145 q125 1 214 54 q90 52 125 142 l7 0 l0 -203 q0 -87 -55 -137 q-54 -51 -160 -52 q-79 1 -132 31 q-53 30 -68 81 l-344 0 q17 -154 158 -249 q140 -95 378 -98 l0 0 Z" /><glyph glyph-name="" unicode="&#x1e7;" d="M771 1255 l261 327 l-256 0 l-135 -184 l-8 0 l-136 184 l-255 0 l260 -327 l269 0 ZM630 274 q-101 1 -157 74 q-56 73 -57 210 q1 136 58 213 q56 77 156 78 q100 -1 157 -79 q57 -77 58 -213 q-1 -136 -58 -209 q-56 -73 -157 -74 l0 0 ZM620 -420 q262 2 418 117 q156 114 160 316 l0 1100 l-353 0 l0 -195 l-6 0 q-39 95 -127 152 q-87 57 -209 58 q-211 -2 -329 -152 q-118 -149 -120 -416 q3 -261 122 -404 q119 -143 321 -145 q125 1 214 54 q90 52 125 142 l7 0 l0 -203 q0 -87 -55 -137 q-54 -51 -160 -52 q-79 1 -132 31 q-53 30 -68 81 l-344 0 q17 -154 158 -249 q140 -95 378 -98 l0 0 Z" /><glyph glyph-name="" unicode="&#x11d;" d="M771 1582 l-269 0 l-260 -327 l255 0 l136 184 l8 0 l135 -184 l256 0 l-261 327 ZM630 274 q-101 1 -157 74 q-56 73 -57 210 q1 136 58 213 q56 77 156 78 q100 -1 157 -79 q57 -77 58 -213 q-1 -136 -58 -209 q-56 -73 -157 -74 l0 0 ZM620 -420 q262 2 418 117 q156 114 160 316 l0 1100 l-353 0 l0 -195 l-6 0 q-39 95 -127 152 q-87 57 -209 58 q-211 -2 -329 -152 q-118 -149 -120 -416 q3 -261 122 -404 q119 -143 321 -145 q125 1 214 54 q90 52 125 142 l7 0 l0 -203 q0 -87 -55 -137 q-54 -51 -160 -52 q-79 1 -132 31 q-53 30 -68 81 l-344 0 q17 -154 158 -249 q140 -95 378 -98 l0 0 Z" /><glyph glyph-name="" unicode="&#x11f;" d="M259 1581 q5 -139 102 -232 q97 -93 276 -97 q179 4 276 97 q97 93 102 232 l-210 0 q-3 -71 -46 -115 q-44 -45 -122 -46 q-78 1 -121 46 q-44 44 -47 115 l-210 0 ZM630 274 q-101 1 -157 74 q-56 73 -57 210 q1 136 58 213 q56 77 156 78 q100 -1 157 -79 q57 -77 58 -213 q-1 -136 -58 -209 q-56 -73 -157 -74 l0 0 ZM620 -420 q262 2 418 117 q156 114 160 316 l0 1100 l-353 0 l0 -195 l-6 0 q-39 95 -127 152 q-87 57 -209 58 q-211 -2 -329 -152 q-118 -149 -120 -416 q3 -261 122 -404 q119 -143 321 -145 q125 1 214 54 q90 52 125 142 l7 0 l0 -203 q0 -87 -55 -137 q-54 -51 -160 -52 q-79 1 -132 31 q-53 30 -68 81 l-344 0 q17 -154 158 -249 q140 -95 378 -98 l0 0 Z" /><glyph glyph-name="" unicode="&#x1e21;" d="M981 1449 l-688 0 l0 -163 l688 0 l0 163 ZM630 274 q-101 1 -157 74 q-56 73 -57 210 q1 136 58 213 q56 77 156 78 q100 -1 157 -79 q57 -77 58 -213 q-1 -136 -58 -209 q-56 -73 -157 -74 l0 0 ZM620 -420 q262 2 418 117 q156 114 160 316 l0 1100 l-353 0 l0 -195 l-6 0 q-39 95 -127 152 q-87 57 -209 58 q-211 -2 -329 -152 q-118 -149 -120 -416 q3 -261 122 -404 q119 -143 321 -145 q125 1 214 54 q90 52 125 142 l7 0 l0 -203 q0 -87 -55 -137 q-54 -51 -160 -52 q-79 1 -132 31 q-53 30 -68 81 l-344 0 q17 -154 158 -249 q140 -95 378 -98 l0 0 Z" /><glyph glyph-name="" unicode="&#x121;" d="M635 1263 q71 2 117 48 q46 45 48 114 q-2 68 -48 114 q-46 45 -117 47 q-71 -2 -116 -47 q-46 -46 -48 -114 q2 -69 48 -114 q45 -46 116 -48 l0 0 ZM630 274 q-101 1 -157 74 q-56 73 -57 210 q1 136 58 213 q56 77 156 78 q100 -1 157 -79 q57 -77 58 -213 q-1 -136 -58 -209 q-56 -73 -157 -74 l0 0 ZM620 -420 q262 2 418 117 q156 114 160 316 l0 1100 l-353 0 l0 -195 l-6 0 q-39 95 -127 152 q-87 57 -209 58 q-211 -2 -329 -152 q-118 -149 -120 -416 q3 -261 122 -404 q119 -143 321 -145 q125 1 214 54 q90 52 125 142 l7 0 l0 -203 q0 -87 -55 -137 q-54 -51 -160 -52 q-79 1 -132 31 q-53 30 -68 81 l-344 0 q17 -154 158 -249 q140 -95 378 -98 l0 0 Z" /><glyph glyph-name="" unicode="&#x123;" d="M691 1602 l-183 -333 l310 0 l138 333 l-265 0 ZM630 274 q-101 1 -157 74 q-56 73 -57 210 q1 136 58 213 q56 77 156 78 q100 -1 157 -79 q57 -77 58 -213 q-1 -136 -58 -209 q-56 -73 -157 -74 l0 0 ZM620 -420 q262 2 418 117 q156 114 160 316 l0 1100 l-353 0 l0 -195 l-6 0 q-39 95 -127 152 q-87 57 -209 58 q-211 -2 -329 -152 q-118 -149 -120 -416 q3 -261 122 -404 q119 -143 321 -145 q125 1 214 54 q90 52 125 142 l7 0 l0 -203 q0 -87 -55 -137 q-54 -51 -160 -52 q-79 1 -132 31 q-53 30 -68 81 l-344 0 q17 -154 158 -249 q140 -95 378 -98 l0 0 Z" /><glyph glyph-name="" unicode="h" d="M95 0 l354 0 l0 627 q1 97 51 156 q51 58 145 60 q92 -1 138 -55 q47 -55 47 -152 l0 -636 l355 0 l0 712 q-1 199 -100 309 q-100 109 -287 111 q-128 0 -216 -58 q-88 -58 -133 -170 l-7 0 l0 611 l-347 0 l0 -1515 Z" /><glyph glyph-name="" unicode="&#x1e27;" d="M95 0 l354 0 l0 627 q1 97 51 156 q51 58 145 60 q92 -1 138 -55 q47 -55 47 -152 l0 -636 l355 0 l0 712 q-1 199 -100 309 q-100 109 -287 111 q-128 0 -216 -58 q-88 -58 -133 -170 l-7 0 l0 611 l-347 0 l0 -1515 ZM54 1619 q65 2 106 42 q41 40 42 99 q-1 60 -42 100 q-41 40 -106 41 q-64 -1 -105 -41 q-41 -40 -42 -100 q1 -59 42 -99 q41 -40 105 -42 l0 0 ZM487 1619 q65 2 105 42 q41 40 42 99 q-1 60 -42 100 q-40 40 -105 41 q-65 -1 -105 -41 q-41 -40 -42 -100 q1 -59 42 -99 q40 -40 105 -42 l0 0 Z" /><glyph glyph-name="" unicode="&#x21f;" d="M95 0 l354 0 l0 627 q1 97 51 156 q51 58 145 60 q92 -1 138 -55 q47 -55 47 -152 l0 -636 l355 0 l0 712 q-1 199 -100 309 q-100 109 -287 111 q-128 0 -216 -58 q-88 -58 -133 -170 l-7 0 l0 611 l-347 0 l0 -1515 ZM134 1611 l274 0 l263 328 l-250 0 l-147 -195 l-6 0 l-147 195 l-250 0 l263 -328 Z" /><glyph glyph-name="" unicode="&#x125;" d="M95 0 l354 0 l0 627 q1 97 51 156 q51 58 145 60 q92 -1 138 -55 q47 -55 47 -152 l0 -636 l355 0 l0 712 q-1 199 -100 309 q-100 109 -287 111 q-128 0 -216 -58 q-88 -58 -133 -170 l-7 0 l0 611 l-347 0 l0 -1515 ZM134 1939 l-263 -328 l250 0 l147 194 l6 0 l147 -194 l250 0 l-263 328 l-274 0 Z" /><glyph glyph-name="" unicode="&#x1e25;" d="M95 0 l354 0 l0 627 q1 97 51 156 q51 58 145 60 q92 -1 138 -55 q47 -55 47 -152 l0 -636 l355 0 l0 712 q-1 199 -100 309 q-100 109 -287 111 q-128 0 -216 -58 q-88 -58 -133 -170 l-7 0 l0 611 l-347 0 l0 -1515 ZM637 -492 q71 2 117 48 q45 46 47 115 q-2 69 -47 115 q-46 46 -117 48 q-71 -2 -116 -48 q-46 -46 -48 -115 q2 -69 48 -115 q45 -46 116 -48 l0 0 Z" /><glyph glyph-name="" unicode="&#x1e23;" d="M95 0 l354 0 l0 627 q1 97 51 156 q51 58 145 60 q92 -1 138 -55 q47 -55 47 -152 l0 -636 l355 0 l0 712 q-1 199 -100 309 q-100 109 -287 111 q-128 0 -216 -58 q-88 -58 -133 -170 l-7 0 l0 611 l-347 0 l0 -1515 ZM271 1620 q71 2 117 48 q45 46 47 115 q-2 69 -47 115 q-46 46 -117 48 q-71 -2 -116 -48 q-46 -46 -48 -115 q2 -69 48 -115 q45 -46 116 -48 l0 0 Z" /><glyph glyph-name="" unicode="&#x1e2b;" d="M262 -165 q5 -138 101 -230 q96 -92 274 -96 q178 4 274 96 q96 92 101 230 l-208 0 q-3 -70 -47 -114 q-43 -44 -120 -45 q-77 1 -120 45 q-43 44 -47 114 l-208 0 ZM95 0 l354 0 l0 627 q1 97 51 156 q51 58 145 60 q92 -1 138 -55 q47 -55 47 -152 l0 -636 l355 0 l0 712 q-1 199 -100 309 q-100 109 -287 111 q-128 0 -216 -58 q-88 -58 -133 -170 l-7 0 l0 611 l-347 0 l0 -1515 Z" /><glyph glyph-name="" unicode="&#x1e29;" d="M442 904 l0 611 l-347 0 l0 -1515 l184 0 l-56 -112 l0 -114 l56 0 q61 0 87 -11 q26 -12 25 -40 q0 -23 -24 -34 q-24 -11 -76 -11 q-29 0 -58 3 q-28 3 -47 9 l0 -131 q24 -7 59 -11 q36 -4 78 -4 q123 0 187 49 q65 49 65 142 q-1 76 -47 119 q-46 43 -126 44 l48 102 l0 14 l-1 0 l0 613 q1 97 51 156 q51 58 145 60 q92 -1 138 -55 q47 -55 47 -152 l0 -636 l355 0 l0 712 q-1 199 -100 309 q-100 109 -287 111 q-128 0 -216 -58 q-88 -58 -133 -170 l-7 0 Z" /><glyph glyph-name="" unicode="&#x127;" d="M442 904 l0 340 l217 0 l0 164 l-217 0 l0 107 l-347 0 l0 -107 l-64 0 l0 -164 l64 0 l0 -1244 l354 0 l0 627 q1 97 51 156 q51 58 145 60 q92 -1 138 -55 q47 -55 47 -152 l0 -636 l355 0 l0 712 q-1 199 -100 309 q-100 109 -287 111 q-128 0 -216 -58 q-88 -58 -133 -170 l-7 0 Z" /><glyph glyph-name="" unicode="&#x1e96;" d="M95 0 l354 0 l0 627 q1 97 51 156 q51 58 145 60 q92 -1 138 -55 q47 -55 47 -152 l0 -636 l355 0 l0 712 q-1 199 -100 309 q-100 109 -287 111 q-128 0 -216 -58 q-88 -58 -133 -170 l-7 0 l0 611 l-347 0 l0 -1515 ZM998 -235 l-722 0 l0 -163 l722 0 l0 163 Z" /><glyph glyph-name="" unicode="i" d="M91 0 l355 0 l0 1113 l-355 0 l0 -1113 ZM268 1205 q78 1 129 50 q52 48 54 125 q-2 77 -54 125 q-51 48 -129 50 q-77 -2 -128 -50 q-52 -48 -54 -125 q2 -77 54 -125 q51 -49 128 -50 l0 0 Z" /><glyph glyph-name="" unicode="ì" d="M416 1269 l-227 316 l-312 0 l264 -316 l275 0 ZM91 0 l355 0 l0 1113 l-355 0 l0 -1113 Z" /><glyph glyph-name="" unicode="&#x209;" d="M91 0 l355 0 l0 1113 l-355 0 l0 -1113 ZM201 1270 l-185 315 l-282 0 l221 -315 l246 0 ZM601 1270 l-186 315 l-282 0 l222 -315 l246 0 Z" /><glyph glyph-name="" unicode="í" d="M399 1269 l264 316 l-312 0 l-227 -316 l275 0 ZM91 0 l355 0 l0 1113 l-355 0 l0 -1113 Z" /><glyph glyph-name="" unicode="î" d="M402 1582 l-269 0 l-260 -327 l255 0 l136 184 l8 0 l135 -184 l256 0 l-261 327 ZM91 0 l355 0 l0 1113 l-355 0 l0 -1113 Z" /><glyph glyph-name="" unicode="&#x1d0;" d="M402 1255 l261 327 l-256 0 l-135 -184 l-8 0 l-136 184 l-255 0 l260 -327 l269 0 ZM91 0 l355 0 l0 1113 l-355 0 l0 -1113 Z" /><glyph glyph-name="" unicode="ï" d="M91 0 l355 0 l0 1113 l-355 0 l0 -1113 ZM51 1257 q65 2 106 42 q41 40 42 99 q-1 60 -42 100 q-41 40 -106 41 q-64 -1 -105 -41 q-41 -40 -42 -100 q1 -59 42 -99 q41 -40 105 -42 l0 0 ZM484 1257 q65 2 105 42 q41 40 42 99 q-1 60 -42 100 q-40 40 -105 41 q-65 -1 -105 -41 q-41 -40 -42 -100 q1 -59 42 -99 q40 -40 105 -42 l0 0 Z" /><glyph glyph-name="" unicode="&#x1e2f;" d="M142 1637 l254 0 l229 275 l-291 0 l-192 -275 ZM51 1257 q65 2 106 42 q41 40 42 99 q-1 60 -42 100 q-41 40 -106 41 q-64 -1 -105 -41 q-41 -40 -42 -100 q1 -59 42 -99 q41 -40 105 -42 l0 0 ZM484 1257 q65 2 105 42 q41 40 42 99 q-1 60 -42 100 q-40 40 -105 41 q-65 -1 -105 -41 q-41 -40 -42 -100 q1 -59 42 -99 q40 -40 105 -42 l0 0 ZM91 0 l355 0 l0 1113 l-355 0 l0 -1113 Z" /><glyph glyph-name="" unicode="&#x12d;" d="M91 0 l355 0 l0 1113 l-355 0 l0 -1113 ZM-110 1581 q5 -139 102 -232 q97 -93 276 -97 q179 4 276 97 q97 93 102 232 l-210 0 q-3 -71 -46 -115 q-44 -45 -122 -46 q-78 1 -121 46 q-44 44 -47 115 l-210 0 Z" /><glyph glyph-name="" unicode="&#x1ecb;" d="M91 0 l355 0 l0 1113 l-355 0 l0 -1113 ZM268 1205 q78 1 129 50 q52 48 54 125 q-2 77 -54 125 q-51 48 -129 50 q-77 -2 -128 -50 q-52 -48 -54 -125 q2 -77 54 -125 q51 -49 128 -50 l0 0 ZM268 -492 q71 2 117 48 q45 46 47 115 q-2 69 -47 115 q-46 46 -117 48 q-71 -2 -116 -48 q-46 -46 -48 -115 q2 -69 48 -115 q45 -46 116 -48 l0 0 Z" /><glyph glyph-name="" unicode="&#x20b;" d="M91 0 l355 0 l0 1113 l-355 0 l0 -1113 ZM-110 1255 l210 0 q3 70 47 115 q43 45 121 46 q78 -1 122 -46 q43 -45 46 -115 l210 0 q-5 139 -102 232 q-97 92 -276 96 q-179 -4 -276 -96 q-97 -93 -102 -232 l0 0 Z" /><glyph glyph-name="" unicode="&#x12b;" d="M91 0 l355 0 l0 1113 l-355 0 l0 -1113 ZM612 1449 l-688 0 l0 -163 l688 0 l0 163 Z" /><glyph glyph-name="" unicode="&#x1e2d;" d="M91 0 l355 0 l0 1113 l-355 0 l0 -1113 ZM268 1205 q78 1 129 50 q52 48 54 125 q-2 77 -54 125 q-51 48 -129 50 q-77 -2 -128 -50 q-52 -48 -54 -125 q2 -77 54 -125 q51 -49 128 -50 l0 0 ZM415 -447 q99 1 165 76 q66 76 69 211 l-181 0 q-1 -52 -17 -83 q-16 -30 -50 -31 q-49 8 -105 64 q-55 55 -160 63 q-99 -1 -165 -74 q-66 -73 -69 -209 l181 0 q1 48 18 78 q17 31 51 32 q50 -8 105 -63 q55 -56 158 -64 l0 0 Z" /><glyph glyph-name="" unicode="&#x1ec9;" d="M91 0 l355 0 l0 1113 l-355 0 l0 -1113 ZM97 1513 q48 19 102 19 q50 -1 79 -22 q29 -22 30 -59 q1 -38 -22 -66 q-23 -27 -75 -52 l97 -116 q97 46 150 111 q52 65 53 140 q-1 103 -69 163 q-69 59 -187 60 q-40 0 -83 -8 q-44 -8 -75 -20 l0 -150 Z" /><glyph glyph-name="" unicode="&#x129;" d="M91 0 l355 0 l0 1113 l-355 0 l0 -1113 ZM416 1258 q99 1 165 76 q66 76 69 211 l-181 0 q-1 -52 -17 -83 q-16 -30 -50 -31 q-49 8 -105 64 q-55 55 -160 63 q-99 -1 -165 -74 q-66 -73 -69 -209 l181 0 q1 48 18 78 q17 31 51 32 q50 -8 105 -63 q55 -56 158 -64 l0 0 Z" /></font>
</defs>
</svg>
