<?xml version="1.0" standalone="no"?><!DOCTYPE svg PUBLIC "-//W3C//DTD SVG 1.1//EN" "http://www.w3.org/Graphics/SVG/1.1/DTD/svg11.dtd" ><svg xmlns="http://www.w3.org/2000/svg"><metadata></metadata><defs><font id="SF UI Display Medium; 12.0d0e2; 2016-05-11" horiz-adv-x="2686"><font-face font-family="SF UI Display" font-weight="500" font-stretch="normal" units-per-em="2048" panose-1="0 0 6 0 0 0 0 0 0 0" ascent="1950" descent="-494" x-height="0" bbox="-541 -566 2592 2218" underline-thickness="145" underline-position="-299" unicode-range="U+0020-f189" /><missing-glyph horiz-adv-x="2048" d="M100 -494 l1848 0 l0 256 l-1848 0 l0 -256 ZM100 -56 l1848 0 l0 256 l-1848 0 l0 -256 ZM100 381 l1848 0 l0 256 l-1848 0 l0 -256 ZM100 819 l1848 0 l0 256 l-1848 0 l0 -256 ZM100 1256 l1848 0 l0 256 l-1848 0 l0 -256 ZM100 1694 l1848 0 l0 256 l-1848 0 l0 -256 Z" /><glyph glyph-name="" unicode=" " d="" /><glyph glyph-name="" unicode="a" d="M1073 0 l237 0 l-521 1443 l-242 0 l-521 -1443 l233 0 l132 390 l550 0 l132 -390 ZM663 1203 l6 0 l215 -633 l-436 0 l215 633 Z" /><glyph glyph-name="" unicode="à" d="M1073 0 l237 0 l-521 1443 l-242 0 l-521 -1443 l233 0 l132 390 l550 0 l132 -390 ZM663 1203 l6 0 l215 -633 l-436 0 l215 633 ZM581 1553 l176 0 l-231 303 l-225 0 l280 -303 Z" /><glyph glyph-name="" unicode="á" d="M1073 0 l237 0 l-521 1443 l-242 0 l-521 -1443 l233 0 l132 390 l550 0 l132 -390 ZM663 1203 l6 0 l215 -633 l-436 0 l215 633 ZM756 1551 l280 303 l-225 0 l-231 -303 l176 0 Z" /><glyph glyph-name="" unicode="ä" d="M1073 0 l237 0 l-521 1443 l-242 0 l-521 -1443 l233 0 l132 390 l550 0 l132 -390 ZM663 1203 l6 0 l215 -633 l-436 0 l215 633 ZM467 1576 q51 1 85 35 q34 34 35 84 q-1 51 -35 84 q-34 34 -85 35 q-52 -1 -86 -35 q-34 -33 -35 -84 q1 -50 35 -84 q34 -34 86 -35 l0 0 ZM870 1576 q51 1 85 35 q34 34 35 84 q-1 51 -35 84 q-34 34 -85 35 q-52 -1 -86 -35 q-34 -33 -35 -84 q1 -50 35 -84 q34 -34 86 -35 l0 0 Z" /><glyph glyph-name="" unicode="&#x1de;" d="M1073 0 l237 0 l-521 1443 l-242 0 l-521 -1443 l233 0 l132 390 l550 0 l132 -390 ZM663 1203 l6 0 l215 -633 l-436 0 l215 633 ZM476 1798 q-48 -1 -78 -32 q-31 -31 -32 -76 q1 -46 32 -76 q30 -31 78 -32 q46 1 77 32 q30 30 31 76 q-1 45 -31 76 q-31 31 -77 32 l0 0 ZM341 2042 l0 -119 l654 0 l0 119 l-654 0 ZM860 1798 q-46 -1 -76 -32 q-31 -31 -32 -76 q1 -46 32 -76 q30 -31 76 -32 q48 1 78 32 q31 30 32 76 q-1 45 -32 76 q-30 31 -78 32 l0 0 Z" /><glyph glyph-name="" unicode="å" d="M1073 0 l237 0 l-521 1443 l-242 0 l-521 -1443 l233 0 l132 390 l550 0 l132 -390 ZM663 1203 l6 0 l215 -633 l-436 0 l215 633 ZM668 1509 q86 2 143 59 q58 58 60 143 q-2 85 -60 142 q-57 57 -143 59 q-86 -2 -143 -59 q-58 -57 -60 -142 q2 -85 60 -143 q57 -57 143 -59 l0 0 ZM668 1602 q-46 1 -77 32 q-32 31 -33 77 q1 46 33 77 q31 31 77 32 q46 -1 78 -32 q31 -31 32 -77 q-1 -46 -32 -77 q-32 -31 -78 -32 l0 0 Z" /><glyph glyph-name="" unicode="&#x1fa;" d="M1073 0 l237 0 l-521 1443 l-242 0 l-521 -1443 l233 0 l132 390 l550 0 l132 -390 ZM663 1203 l6 0 l215 -633 l-436 0 l215 633 ZM668 1484 q86 2 143 58 q57 57 59 142 q-2 85 -59 142 q-57 56 -143 58 q-86 -2 -143 -59 q-57 -56 -59 -141 q2 -85 59 -142 q57 -56 143 -58 l0 0 ZM668 1575 q-47 1 -77 32 q-31 30 -32 77 q1 46 32 77 q30 30 77 31 q47 -1 77 -31 q31 -31 32 -77 q-1 -47 -32 -77 q-30 -31 -77 -32 l0 0 ZM718 2114 l-119 -188 l146 0 l175 188 l-202 0 Z" /><glyph glyph-name="" unicode="ã" d="M1073 0 l237 0 l-521 1443 l-242 0 l-521 -1443 l233 0 l132 390 l550 0 l132 -390 ZM663 1203 l6 0 l215 -633 l-436 0 l215 633 ZM801 1537 q85 1 136 70 q52 68 53 189 l-130 0 q0 -64 -16 -98 q-15 -34 -47 -34 q-51 9 -103 73 q-53 64 -153 73 q-88 -1 -139 -68 q-51 -67 -52 -189 l129 0 q1 61 18 95 q18 34 51 35 q54 -9 106 -73 q52 -64 147 -73 l0 0 Z" /><glyph glyph-name="" unicode="&#x1eb0;" d="M1073 0 l237 0 l-521 1443 l-242 0 l-521 -1443 l233 0 l132 390 l550 0 l132 -390 ZM663 1203 l6 0 l215 -633 l-436 0 l215 633 ZM998 1849 l-148 0 q-2 -69 -52 -113 q-50 -44 -130 -46 q-80 2 -130 46 q-50 44 -52 113 l-148 0 q2 -125 90 -202 q87 -77 240 -79 q153 2 240 79 q88 77 90 202 l0 0 ZM793 1863 l-188 218 l-212 0 l237 -218 l163 0 Z" /><glyph glyph-name="" unicode="&#x1e0;" d="M1073 0 l237 0 l-521 1443 l-242 0 l-521 -1443 l233 0 l132 390 l550 0 l132 -390 ZM663 1203 l6 0 l215 -633 l-436 0 l215 633 ZM668 1567 q54 1 88 36 q35 35 36 87 q-1 52 -36 86 q-34 34 -88 35 q-54 -1 -88 -35 q-35 -34 -36 -86 q1 -52 36 -87 q34 -35 88 -36 l0 0 ZM995 2042 l-654 0 l0 -119 l654 0 l0 119 Z" /><glyph glyph-name="" unicode="&#x1e00;" d="M1073 0 l237 0 l-521 1443 l-242 0 l-521 -1443 l233 0 l132 390 l550 0 l132 -390 ZM663 1203 l6 0 l215 -633 l-436 0 l215 633 ZM668 -566 q87 2 146 61 q59 58 61 144 q-2 87 -61 145 q-59 59 -146 61 q-87 -2 -146 -61 q-59 -58 -61 -145 q2 -86 61 -144 q59 -59 146 -61 l0 0 ZM668 -471 q-47 1 -78 33 q-32 31 -33 77 q1 47 33 78 q31 32 78 33 q47 -1 78 -33 q32 -31 33 -78 q-1 -46 -33 -77 q-31 -32 -78 -33 l0 0 Z" /><glyph glyph-name="" unicode="â" d="M1073 0 l237 0 l-521 1443 l-242 0 l-521 -1443 l233 0 l132 390 l550 0 l132 -390 ZM663 1203 l6 0 l215 -633 l-436 0 l215 633 ZM582 1853 l-286 -306 l188 0 l182 200 l4 0 l182 -200 l188 0 l-286 306 l-172 0 Z" /><glyph glyph-name="" unicode="&#x1eac;" d="M1073 0 l237 0 l-521 1443 l-242 0 l-521 -1443 l233 0 l132 390 l550 0 l132 -390 ZM663 1203 l6 0 l215 -633 l-436 0 l215 633 ZM668 -416 q56 1 93 39 q37 37 38 92 q-1 56 -38 93 q-37 37 -93 38 q-56 -1 -93 -38 q-37 -37 -38 -93 q1 -55 38 -92 q37 -38 93 -39 l0 0 ZM582 1853 l-286 -306 l188 0 l182 200 l4 0 l182 -200 l188 0 l-286 306 l-172 0 Z" /><glyph glyph-name="" unicode="&#x1ea4;" d="M1073 0 l237 0 l-521 1443 l-242 0 l-521 -1443 l233 0 l132 390 l550 0 l132 -390 ZM663 1203 l6 0 l215 -633 l-436 0 l215 633 ZM579 1806 l-264 -238 l200 0 l149 139 l14 0 l148 -139 l200 0 l-264 238 l-183 0 ZM782 1863 l163 0 l236 218 l-211 0 l-188 -218 Z" /><glyph glyph-name="" unicode="&#x1eaa;" d="M1073 0 l237 0 l-521 1443 l-242 0 l-521 -1443 l233 0 l132 390 l550 0 l132 -390 ZM663 1203 l6 0 l215 -633 l-436 0 l215 633 ZM794 1847 q86 1 138 63 q53 63 54 171 l-125 0 q-3 -58 -20 -87 q-17 -28 -53 -28 q-48 8 -91 65 q-43 57 -145 65 q-90 -1 -142 -61 q-52 -60 -53 -171 l125 0 q3 59 20 88 q18 28 54 28 q58 -8 98 -66 q41 -59 140 -67 l0 0 ZM577 1790 l-265 -222 l201 0 l149 124 l12 0 l149 -124 l201 0 l-265 222 l-182 0 Z" /><glyph glyph-name="" unicode="&#x1ea6;" d="M1073 0 l237 0 l-521 1443 l-242 0 l-521 -1443 l233 0 l132 390 l550 0 l132 -390 ZM663 1203 l6 0 l215 -633 l-436 0 l215 633 ZM577 1806 l-265 -238 l201 0 l149 139 l12 0 l149 -139 l201 0 l-265 238 l-182 0 ZM991 1863 l-188 218 l-212 0 l237 -218 l163 0 Z" /><glyph glyph-name="" unicode="&#x1ea8;" d="M1073 0 l237 0 l-521 1443 l-242 0 l-521 -1443 l233 0 l132 390 l550 0 l132 -390 ZM663 1203 l6 0 l215 -633 l-436 0 l215 633 ZM579 1806 l-265 -238 l200 0 l149 139 l14 0 l148 -139 l201 0 l-264 238 l-183 0 ZM790 1958 q18 8 41 13 q24 4 49 4 q36 -1 58 -18 q22 -18 23 -46 q0 -30 -20 -54 q-20 -24 -57 -38 l83 -74 q60 22 93 69 q33 48 34 106 q-1 74 -52 118 q-51 43 -137 44 q-31 0 -61 -6 q-31 -7 -54 -18 l0 -100 Z" /><glyph glyph-name="" unicode="&#x102;" d="M1073 0 l237 0 l-521 1443 l-242 0 l-521 -1443 l233 0 l132 390 l550 0 l132 -390 ZM663 1203 l6 0 l215 -633 l-436 0 l215 633 ZM343 1853 q3 -135 90 -219 q87 -84 235 -87 q148 3 235 87 q87 84 90 219 l-140 0 q-2 -81 -52 -134 q-51 -52 -133 -54 q-82 2 -133 54 q-50 53 -52 134 l-140 0 Z" /><glyph glyph-name="" unicode="&#x1eae;" d="M1073 0 l237 0 l-521 1443 l-242 0 l-521 -1443 l233 0 l132 390 l550 0 l132 -390 ZM663 1203 l6 0 l215 -633 l-436 0 l215 633 ZM338 1849 q2 -125 90 -202 q87 -77 240 -79 q153 2 240 79 q88 77 90 202 l-148 0 q-2 -69 -52 -113 q-50 -44 -130 -46 q-80 2 -130 46 q-50 44 -52 113 l-148 0 ZM543 1863 l163 0 l237 218 l-212 0 l-188 -218 Z" /><glyph glyph-name="" unicode="&#x1eb4;" d="M1073 0 l237 0 l-521 1443 l-242 0 l-521 -1443 l233 0 l132 390 l550 0 l132 -390 ZM663 1203 l6 0 l215 -633 l-436 0 l215 633 ZM342 1807 q7 -107 93 -172 q86 -65 233 -67 q148 2 233 67 q86 65 93 172 l-146 0 q-8 -53 -55 -85 q-48 -32 -125 -33 q-76 1 -124 33 q-48 32 -56 85 l-146 0 ZM792 1849 q89 2 145 65 q55 63 57 167 l-140 0 q-4 -55 -20 -83 q-17 -29 -48 -29 q-43 8 -88 64 q-45 55 -148 63 q-93 -1 -150 -63 q-56 -62 -58 -167 l140 0 q3 54 21 83 q18 29 52 29 q52 -8 95 -64 q43 -57 142 -65 l0 0 Z" /><glyph glyph-name="" unicode="&#x1eb2;" d="M1073 0 l237 0 l-521 1443 l-242 0 l-521 -1443 l233 0 l132 390 l550 0 l132 -390 ZM663 1203 l6 0 l215 -633 l-436 0 l215 633 ZM502 2011 q19 9 45 15 q26 6 53 6 q38 -1 63 -20 q25 -19 26 -50 q-1 -32 -25 -59 q-24 -27 -65 -40 l64 -86 q74 28 118 81 q44 53 45 117 q-1 78 -55 123 q-53 45 -145 46 q-37 0 -70 -7 q-33 -8 -54 -19 l0 -107 ZM344 1807 q7 -110 94 -174 q86 -64 230 -65 q144 1 232 65 q88 64 96 174 l-147 0 q-8 -54 -57 -86 q-49 -31 -124 -32 q-75 1 -123 32 q-47 32 -55 86 l-146 0 Z" /><glyph glyph-name="" unicode="&#x1eb6;" d="M1073 0 l237 0 l-521 1443 l-242 0 l-521 -1443 l233 0 l132 390 l550 0 l132 -390 ZM663 1203 l6 0 l215 -633 l-436 0 l215 633 ZM668 -416 q56 1 93 39 q37 37 38 92 q-1 56 -38 93 q-37 37 -93 38 q-56 -1 -93 -38 q-37 -37 -38 -93 q1 -55 38 -92 q37 -38 93 -39 l0 0 ZM343 1853 q3 -135 90 -219 q87 -84 235 -87 q148 3 235 87 q87 84 90 219 l-140 0 q-2 -81 -52 -134 q-51 -52 -133 -54 q-82 2 -133 54 q-50 53 -52 134 l-140 0 Z" /><glyph glyph-name="" unicode="&#x202;" d="M1073 0 l237 0 l-521 1443 l-242 0 l-521 -1443 l233 0 l132 390 l550 0 l132 -390 ZM663 1203 l6 0 l215 -633 l-436 0 l215 633 ZM343 1547 l140 0 q2 81 52 134 q51 52 133 54 q82 -2 133 -54 q50 -53 52 -134 l140 0 q-3 135 -90 219 q-87 84 -235 87 q-148 -3 -235 -87 q-87 -84 -90 -219 l0 0 Z" /><glyph glyph-name="" unicode="&#x1cd;" d="M1073 0 l237 0 l-521 1443 l-242 0 l-521 -1443 l233 0 l132 390 l550 0 l132 -390 ZM663 1203 l6 0 l215 -633 l-436 0 l215 633 ZM582 1547 l172 0 l286 306 l-188 0 l-182 -199 l-4 0 l-182 199 l-188 0 l286 -306 Z" /><glyph glyph-name="" unicode="&#x226;" d="M1073 0 l237 0 l-521 1443 l-242 0 l-521 -1443 l233 0 l132 390 l550 0 l132 -390 ZM663 1203 l6 0 l215 -633 l-436 0 l215 633 ZM668 1576 q56 1 93 39 q37 37 38 92 q-1 56 -38 93 q-37 37 -93 38 q-56 -1 -93 -38 q-37 -37 -38 -93 q1 -55 38 -92 q37 -38 93 -39 l0 0 Z" /><glyph glyph-name="" unicode="&#x1ea0;" d="M1073 0 l237 0 l-521 1443 l-242 0 l-521 -1443 l233 0 l132 390 l550 0 l132 -390 ZM663 1203 l6 0 l215 -633 l-436 0 l215 633 ZM668 -416 q56 1 93 39 q37 37 38 92 q-1 56 -38 93 q-37 37 -93 38 q-56 -1 -93 -38 q-37 -37 -38 -93 q1 -55 38 -92 q37 -38 93 -39 l0 0 Z" /><glyph glyph-name="" unicode="&#x1ea2;" d="M1073 0 l237 0 l-521 1443 l-242 0 l-521 -1443 l233 0 l132 390 l550 0 l132 -390 ZM663 1203 l6 0 l215 -633 l-436 0 l215 633 ZM499 1779 q22 10 50 14 q27 5 52 5 q40 -1 65 -20 q25 -19 26 -50 q-1 -33 -26 -60 q-25 -27 -67 -42 l70 -87 q76 28 122 81 q46 53 47 118 q-1 81 -58 127 q-57 45 -152 46 q-36 0 -69 -6 q-33 -6 -60 -17 l0 -109 Z" /><glyph glyph-name="" unicode="&#x200;" d="M1073 0 l237 0 l-521 1443 l-242 0 l-521 -1443 l233 0 l132 390 l550 0 l132 -390 ZM663 1203 l6 0 l215 -633 l-436 0 l215 633 ZM755 1551 l169 0 l-231 303 l-217 0 l279 -303 ZM415 1551 l168 0 l-231 303 l-217 0 l280 -303 Z" /><glyph glyph-name="" unicode="&#x100;" d="M1073 0 l237 0 l-521 1443 l-242 0 l-521 -1443 l233 0 l132 390 l550 0 l132 -390 ZM663 1203 l6 0 l215 -633 l-436 0 l215 633 ZM995 1755 l-654 0 l0 -119 l654 0 l0 119 Z" /><glyph glyph-name="" unicode="&#x104;" d="M663 1203 l6 0 l215 -633 l-436 0 l215 633 ZM1277 -425 l0 144 q-10 -3 -27 -4 q-18 -2 -40 -2 q-52 1 -83 27 q-30 26 -31 70 q1 60 54 111 q53 51 139 76 l21 3 l-521 1443 l-242 0 l-521 -1443 l233 0 l132 390 l550 0 l130 -383 q-82 -51 -124 -111 q-41 -61 -41 -127 q2 -95 72 -152 q69 -58 183 -60 q69 0 116 18 l0 0 Z" /><glyph glyph-name="" unicode="b" d="M726 0 q233 2 362 109 q129 107 131 299 q-2 146 -91 240 q-89 95 -237 113 l0 8 q111 21 182 109 q72 87 74 205 q-3 166 -116 262 q-113 96 -307 98 l-591 0 l0 -1443 l593 0 ZM357 1260 l312 0 q123 0 189 -54 q65 -53 66 -154 q-1 -108 -78 -165 q-77 -57 -224 -58 l-265 0 l0 431 ZM357 183 l0 475 l311 0 q159 0 240 -59 q82 -60 82 -177 q0 -117 -79 -178 q-78 -61 -230 -61 l-324 0 Z" /><glyph glyph-name="" unicode="&#x1e06;" d="M726 0 q233 2 362 109 q129 107 131 299 q-2 146 -91 240 q-89 95 -237 113 l0 8 q111 21 182 109 q72 87 74 205 q-3 166 -116 262 q-113 96 -307 98 l-591 0 l0 -1443 l593 0 ZM357 1260 l312 0 q123 0 189 -54 q65 -53 66 -154 q-1 -108 -78 -165 q-77 -57 -224 -58 l-265 0 l0 431 ZM357 183 l0 475 l311 0 q159 0 240 -59 q82 -60 82 -177 q0 -117 -79 -178 q-78 -61 -230 -61 l-324 0 ZM911 -223 l-654 0 l0 -119 l654 0 l0 119 Z" /><glyph glyph-name="" unicode="&#x1e04;" d="M584 -416 q56 1 93 39 q37 37 38 92 q-1 56 -38 93 q-37 37 -93 38 q-56 -1 -93 -38 q-37 -37 -38 -93 q1 -55 38 -92 q37 -38 93 -39 l0 0 ZM726 0 q233 2 362 109 q129 107 131 299 q-2 146 -91 240 q-89 95 -237 113 l0 8 q111 21 182 109 q72 87 74 205 q-3 166 -116 262 q-113 96 -307 98 l-591 0 l0 -1443 l593 0 ZM357 1260 l312 0 q123 0 189 -54 q65 -53 66 -154 q-1 -108 -78 -165 q-77 -57 -224 -58 l-265 0 l0 431 ZM357 183 l0 475 l311 0 q159 0 240 -59 q82 -60 82 -177 q0 -117 -79 -178 q-78 -61 -230 -61 l-324 0 Z" /><glyph glyph-name="" unicode="&#x1e02;" d="M584 1576 q56 1 93 39 q37 37 38 92 q-1 56 -38 93 q-37 37 -93 38 q-56 -1 -93 -38 q-37 -37 -38 -93 q1 -55 38 -92 q37 -38 93 -39 l0 0 ZM726 0 q233 2 362 109 q129 107 131 299 q-2 146 -91 240 q-89 95 -237 113 l0 8 q111 21 182 109 q72 87 74 205 q-3 166 -116 262 q-113 96 -307 98 l-591 0 l0 -1443 l593 0 ZM357 1260 l312 0 q123 0 189 -54 q65 -53 66 -154 q-1 -108 -78 -165 q-77 -57 -224 -58 l-265 0 l0 431 ZM357 183 l0 475 l311 0 q159 0 240 -59 q82 -60 82 -177 q0 -117 -79 -178 q-78 -61 -230 -61 l-324 0 Z" /><glyph glyph-name="" unicode="c" d="M742 -24 q251 2 410 125 q160 123 203 348 l-223 0 q-35 -131 -136 -204 q-101 -72 -253 -73 q-201 3 -316 149 q-115 145 -117 401 q2 254 118 400 q115 146 314 149 q149 -2 254 -84 q104 -81 136 -222 l222 0 q-33 229 -198 364 q-165 135 -414 138 q-306 -4 -482 -201 q-175 -198 -179 -544 q3 -348 179 -545 q175 -197 482 -201 l0 0 Z" /><glyph glyph-name="" unicode="&#x106;" d="M826 1553 l280 303 l-225 0 l-231 -303 l176 0 ZM742 -24 q251 2 410 125 q160 123 203 348 l-223 0 q-35 -131 -136 -204 q-101 -72 -253 -73 q-201 3 -316 149 q-115 145 -117 401 q2 254 118 400 q115 146 314 149 q149 -2 254 -84 q104 -81 136 -222 l222 0 q-33 229 -198 364 q-165 135 -414 138 q-306 -4 -482 -201 q-175 -198 -179 -544 q3 -348 179 -545 q175 -197 482 -201 l0 0 Z" /><glyph glyph-name="" unicode="&#x10c;" d="M742 -24 q251 2 410 125 q160 123 203 348 l-223 0 q-35 -131 -136 -204 q-101 -72 -253 -73 q-201 3 -316 149 q-115 145 -117 401 q2 254 118 400 q115 146 314 149 q149 -2 254 -84 q104 -81 136 -222 l222 0 q-33 229 -198 364 q-165 135 -414 138 q-306 -4 -482 -201 q-175 -198 -179 -544 q3 -348 179 -545 q175 -197 482 -201 l0 0 ZM652 1549 l172 0 l286 306 l-188 0 l-182 -199 l-4 0 l-182 199 l-188 0 l286 -306 Z" /><glyph glyph-name="" unicode="&#x108;" d="M742 -24 q251 2 410 125 q160 123 203 348 l-223 0 q-35 -131 -136 -204 q-101 -72 -253 -73 q-201 3 -316 149 q-115 145 -117 401 q2 254 118 400 q115 146 314 149 q149 -2 254 -84 q104 -81 136 -222 l222 0 q-33 229 -198 364 q-165 135 -414 138 q-306 -4 -482 -201 q-175 -198 -179 -544 q3 -348 179 -545 q175 -197 482 -201 l0 0 ZM652 1855 l-286 -306 l188 0 l182 200 l4 0 l182 -200 l188 0 l-286 306 l-172 0 Z" /><glyph glyph-name="" unicode="&#x10a;" d="M738 1578 q56 1 93 39 q37 37 38 92 q-1 56 -38 93 q-37 37 -93 38 q-56 -1 -93 -38 q-37 -37 -38 -93 q1 -55 38 -92 q37 -38 93 -39 l0 0 ZM742 -24 q251 2 410 125 q160 123 203 348 l-223 0 q-35 -131 -136 -204 q-101 -72 -253 -73 q-201 3 -316 149 q-115 145 -117 401 q2 254 118 400 q115 146 314 149 q149 -2 254 -84 q104 -81 136 -222 l222 0 q-33 229 -198 364 q-165 135 -414 138 q-306 -4 -482 -201 q-175 -198 -179 -544 q3 -348 179 -545 q175 -197 482 -201 l0 0 Z" /><glyph glyph-name="" unicode="ç" d="M1132 449 q-35 -131 -136 -204 q-101 -72 -253 -73 q-201 3 -316 149 q-115 145 -117 401 q2 254 118 400 q115 146 314 149 q149 -2 254 -84 q104 -81 136 -222 l222 0 q-33 229 -198 364 q-165 135 -414 138 q-306 -4 -482 -201 q-175 -198 -179 -544 q3 -330 161 -525 q159 -195 439 -219 l-51 -124 l0 -83 l55 0 q75 0 108 -15 q34 -15 33 -48 q0 -66 -115 -66 q-33 0 -67 4 q-34 4 -51 10 l0 -105 q31 -10 67 -14 q36 -4 78 -3 q103 2 164 50 q61 49 62 130 q0 75 -51 115 q-51 39 -149 39 l43 110 q224 18 366 140 q142 121 182 331 l-223 0 Z" /><glyph glyph-name="" unicode="&#x1e08;" d="M1106 1856 l-225 0 l-231 -303 l176 0 l280 303 ZM1132 449 q-35 -131 -136 -204 q-101 -72 -253 -73 q-201 3 -316 149 q-115 145 -117 401 q2 254 118 400 q115 146 314 149 q149 -2 254 -84 q104 -81 136 -222 l222 0 q-33 229 -198 364 q-165 135 -414 138 q-306 -4 -482 -201 q-175 -198 -179 -544 q3 -330 161 -525 q159 -195 439 -219 l-51 -124 l0 -83 l55 0 q75 0 108 -15 q34 -15 33 -48 q0 -66 -115 -66 q-33 0 -67 4 q-34 4 -51 10 l0 -105 q31 -10 67 -14 q36 -4 78 -3 q103 2 164 50 q61 49 62 130 q0 75 -51 115 q-51 39 -149 39 l43 110 q224 18 366 140 q142 121 182 331 l-223 0 Z" /><glyph glyph-name="" unicode="d" d="M133 1443 l0 -1443 l517 0 q325 3 503 191 q178 189 180 533 q-2 344 -180 530 q-178 187 -503 189 l-517 0 ZM357 1250 l272 0 q231 -1 353 -136 q122 -136 123 -392 q-1 -257 -123 -392 q-122 -135 -353 -136 l-272 0 l0 1056 Z" /><glyph glyph-name="" unicode="&#x1e0a;" d="M584 1576 q56 1 93 39 q37 37 38 92 q-1 56 -38 93 q-37 37 -93 38 q-56 -1 -93 -38 q-37 -37 -38 -93 q1 -55 38 -92 q37 -38 93 -39 l0 0 ZM133 1443 l0 -1443 l517 0 q325 3 503 191 q178 189 180 533 q-2 344 -180 530 q-178 187 -503 189 l-517 0 ZM357 1250 l272 0 q231 -1 353 -136 q122 -136 123 -392 q-1 -257 -123 -392 q-122 -135 -353 -136 l-272 0 l0 1056 Z" /><glyph glyph-name="" unicode="&#x1e12;" d="M133 1443 l0 -1443 l517 0 q325 3 503 191 q178 189 180 533 q-2 344 -180 530 q-178 187 -503 189 l-517 0 ZM357 1250 l272 0 q231 -1 353 -136 q122 -136 123 -392 q-1 -257 -123 -392 q-122 -135 -353 -136 l-272 0 l0 1056 ZM498 -164 l-286 -306 l188 0 l182 200 l4 0 l182 -200 l188 0 l-286 306 l-172 0 Z" /><glyph glyph-name="" unicode="&#x1e10;" d="M567 -526 l133 360 l-190 0 l-102 -360 l159 0 ZM133 1443 l0 -1443 l517 0 q325 3 503 191 q178 189 180 533 q-2 344 -180 530 q-178 187 -503 189 l-517 0 ZM357 1250 l272 0 q231 -1 353 -136 q122 -136 123 -392 q-1 -257 -123 -392 q-122 -135 -353 -136 l-272 0 l0 1056 Z" /><glyph glyph-name="" unicode="&#x1e0e;" d="M911 -223 l-654 0 l0 -119 l654 0 l0 119 ZM133 1443 l0 -1443 l517 0 q325 3 503 191 q178 189 180 533 q-2 344 -180 530 q-178 187 -503 189 l-517 0 ZM357 1250 l272 0 q231 -1 353 -136 q122 -136 123 -392 q-1 -257 -123 -392 q-122 -135 -353 -136 l-272 0 l0 1056 Z" /><glyph glyph-name="" unicode="&#x10e;" d="M498 1547 l172 0 l286 306 l-188 0 l-182 -199 l-4 0 l-182 199 l-188 0 l286 -306 ZM133 1443 l0 -1443 l517 0 q325 3 503 191 q178 189 180 533 q-2 344 -180 530 q-178 187 -503 189 l-517 0 ZM357 1250 l272 0 q231 -1 353 -136 q122 -136 123 -392 q-1 -257 -123 -392 q-122 -135 -353 -136 l-272 0 l0 1056 Z" /><glyph glyph-name="" unicode="&#x1e0c;" d="M584 -416 q56 1 93 39 q37 37 38 92 q-1 56 -38 93 q-37 37 -93 38 q-56 -1 -93 -38 q-37 -37 -38 -93 q1 -55 38 -92 q37 -38 93 -39 l0 0 ZM133 1443 l0 -1443 l517 0 q325 3 503 191 q178 189 180 533 q-2 344 -180 530 q-178 187 -503 189 l-517 0 ZM357 1250 l272 0 q231 -1 353 -136 q122 -136 123 -392 q-1 -257 -123 -392 q-122 -135 -353 -136 l-272 0 l0 1056 Z" /><glyph glyph-name="" unicode="&#x110;" d="M372 194 l0 454 l269 0 l0 184 l-269 0 l0 418 l272 0 q231 -1 353 -136 q122 -136 123 -392 q-1 -257 -123 -392 q-122 -135 -353 -136 l-272 0 ZM148 1443 l0 -611 l-118 0 l0 -184 l118 0 l0 -648 l517 0 q325 3 503 191 q178 189 180 533 q-2 344 -180 530 q-178 187 -503 189 l-517 0 Z" /><glyph glyph-name="" unicode="e" d="M1049 194 l-692 0 l0 448 l655 0 l0 186 l-655 0 l0 422 l692 0 l0 193 l-916 0 l0 -1443 l916 0 l0 194 Z" /><glyph glyph-name="" unicode="è" d="M504 1553 l176 0 l-231 303 l-225 0 l280 -303 ZM1049 194 l-692 0 l0 448 l655 0 l0 186 l-655 0 l0 422 l692 0 l0 193 l-916 0 l0 -1443 l916 0 l0 194 Z" /><glyph glyph-name="" unicode="&#x204;" d="M678 1551 l169 0 l-231 303 l-217 0 l279 -303 ZM338 1551 l168 0 l-231 303 l-217 0 l280 -303 ZM1049 194 l-692 0 l0 448 l655 0 l0 186 l-655 0 l0 422 l692 0 l0 193 l-916 0 l0 -1443 l916 0 l0 194 Z" /><glyph glyph-name="" unicode="é" d="M679 1551 l280 303 l-225 0 l-231 -303 l176 0 ZM1049 194 l-692 0 l0 448 l655 0 l0 186 l-655 0 l0 422 l692 0 l0 193 l-916 0 l0 -1443 l916 0 l0 194 Z" /><glyph glyph-name="" unicode="ê" d="M505 1853 l-286 -306 l188 0 l182 200 l4 0 l182 -200 l188 0 l-286 306 l-172 0 ZM1049 194 l-692 0 l0 448 l655 0 l0 186 l-655 0 l0 422 l692 0 l0 193 l-916 0 l0 -1443 l916 0 l0 194 Z" /><glyph glyph-name="" unicode="&#x1ec2;" d="M1049 194 l-692 0 l0 448 l655 0 l0 186 l-655 0 l0 422 l692 0 l0 193 l-916 0 l0 -1443 l916 0 l0 194 ZM502 1806 l-265 -238 l200 0 l149 139 l14 0 l148 -139 l201 0 l-264 238 l-183 0 ZM713 1958 q18 8 41 13 q24 4 49 4 q36 -1 58 -18 q22 -18 23 -46 q0 -30 -20 -54 q-20 -24 -57 -38 l83 -74 q60 22 93 69 q33 48 34 106 q-1 74 -52 118 q-51 43 -137 44 q-31 0 -61 -6 q-31 -7 -54 -18 l0 -100 Z" /><glyph glyph-name="" unicode="&#x1ec0;" d="M1049 194 l-692 0 l0 448 l655 0 l0 186 l-655 0 l0 422 l692 0 l0 193 l-916 0 l0 -1443 l916 0 l0 194 ZM500 1806 l-265 -238 l201 0 l149 139 l12 0 l149 -139 l201 0 l-265 238 l-182 0 ZM914 1863 l-188 218 l-212 0 l237 -218 l163 0 Z" /><glyph glyph-name="" unicode="&#x1ec4;" d="M717 1847 q86 1 138 63 q53 63 54 171 l-125 0 q-3 -58 -20 -87 q-17 -28 -53 -28 q-48 8 -91 65 q-43 57 -145 65 q-90 -1 -142 -61 q-52 -60 -53 -171 l125 0 q3 59 20 88 q18 28 54 28 q58 -8 98 -66 q41 -59 140 -67 l0 0 ZM500 1790 l-265 -222 l201 0 l149 124 l12 0 l149 -124 l201 0 l-265 222 l-182 0 ZM1049 194 l-692 0 l0 448 l655 0 l0 186 l-655 0 l0 422 l692 0 l0 193 l-916 0 l0 -1443 l916 0 l0 194 Z" /><glyph glyph-name="" unicode="&#x1ec6;" d="M591 -416 q56 1 93 39 q37 37 38 92 q-1 56 -38 93 q-37 37 -93 38 q-56 -1 -93 -38 q-37 -37 -38 -93 q1 -55 38 -92 q37 -38 93 -39 l0 0 ZM505 1853 l-286 -306 l188 0 l182 200 l4 0 l182 -200 l188 0 l-286 306 l-172 0 ZM1049 194 l-692 0 l0 448 l655 0 l0 186 l-655 0 l0 422 l692 0 l0 193 l-916 0 l0 -1443 l916 0 l0 194 Z" /><glyph glyph-name="" unicode="&#x1ebe;" d="M1049 194 l-692 0 l0 448 l655 0 l0 186 l-655 0 l0 422 l692 0 l0 193 l-916 0 l0 -1443 l916 0 l0 194 ZM502 1806 l-264 -238 l200 0 l149 139 l14 0 l148 -139 l200 0 l-264 238 l-183 0 ZM705 1863 l163 0 l236 218 l-211 0 l-188 -218 Z" /><glyph glyph-name="" unicode="ë" d="M390 1576 q51 1 85 35 q34 34 35 84 q-1 51 -35 84 q-34 34 -85 35 q-52 -1 -86 -35 q-34 -33 -35 -84 q1 -50 35 -84 q34 -34 86 -35 l0 0 ZM793 1576 q51 1 85 35 q34 34 35 84 q-1 51 -35 84 q-34 34 -85 35 q-52 -1 -86 -35 q-34 -33 -35 -84 q1 -50 35 -84 q34 -34 86 -35 l0 0 ZM1049 194 l-692 0 l0 448 l655 0 l0 186 l-655 0 l0 422 l692 0 l0 193 l-916 0 l0 -1443 l916 0 l0 194 Z" /><glyph glyph-name="" unicode="&#x1eb8;" d="M591 -416 q56 1 93 39 q37 37 38 92 q-1 56 -38 93 q-37 37 -93 38 q-56 -1 -93 -38 q-37 -37 -38 -93 q1 -55 38 -92 q37 -38 93 -39 l0 0 ZM1049 194 l-692 0 l0 448 l655 0 l0 186 l-655 0 l0 422 l692 0 l0 193 l-916 0 l0 -1443 l916 0 l0 194 Z" /><glyph glyph-name="" unicode="&#x206;" d="M1049 194 l-692 0 l0 448 l655 0 l0 186 l-655 0 l0 422 l692 0 l0 193 l-916 0 l0 -1443 l916 0 l0 194 ZM266 1547 l140 0 q2 81 52 134 q51 52 133 54 q82 -2 133 -54 q50 -53 52 -134 l140 0 q-3 135 -90 219 q-87 84 -235 87 q-148 -3 -235 -87 q-87 -84 -90 -219 l0 0 Z" /><glyph glyph-name="" unicode="&#x1eba;" d="M1049 194 l-692 0 l0 448 l655 0 l0 186 l-655 0 l0 422 l692 0 l0 193 l-916 0 l0 -1443 l916 0 l0 194 ZM422 1779 q22 10 50 14 q27 5 52 5 q40 -1 65 -20 q25 -19 26 -50 q-1 -33 -26 -60 q-25 -27 -67 -42 l70 -87 q76 28 122 81 q46 53 47 118 q-1 81 -58 127 q-57 45 -152 46 q-36 0 -69 -6 q-33 -6 -60 -17 l0 -109 Z" /><glyph glyph-name="" unicode="&#x11a;" d="M505 1547 l172 0 l286 306 l-188 0 l-182 -199 l-4 0 l-182 199 l-188 0 l286 -306 ZM1049 194 l-692 0 l0 448 l655 0 l0 186 l-655 0 l0 422 l692 0 l0 193 l-916 0 l0 -1443 l916 0 l0 194 Z" /><glyph glyph-name="" unicode="&#x112;" d="M1049 194 l-692 0 l0 448 l655 0 l0 186 l-655 0 l0 422 l692 0 l0 193 l-916 0 l0 -1443 l916 0 l0 194 ZM918 1755 l-654 0 l0 -119 l654 0 l0 119 Z" /><glyph glyph-name="" unicode="&#x1e14;" d="M264 1636 l654 0 l0 119 l-654 0 l0 -119 ZM675 1863 l-188 218 l-212 0 l237 -218 l163 0 ZM1049 194 l-692 0 l0 448 l655 0 l0 186 l-655 0 l0 422 l692 0 l0 193 l-916 0 l0 -1443 l916 0 l0 194 Z" /><glyph glyph-name="" unicode="&#x1e16;" d="M918 1636 l0 119 l-654 0 l0 -119 l654 0 ZM507 1863 l163 0 l237 218 l-212 0 l-188 -218 ZM1049 194 l-692 0 l0 448 l655 0 l0 186 l-655 0 l0 422 l692 0 l0 193 l-916 0 l0 -1443 l916 0 l0 194 Z" /><glyph glyph-name="" unicode="&#x1ebc;" d="M1049 194 l-692 0 l0 448 l655 0 l0 186 l-655 0 l0 422 l692 0 l0 193 l-916 0 l0 -1443 l916 0 l0 194 ZM724 1537 q85 1 136 70 q52 68 53 189 l-130 0 q0 -64 -16 -98 q-15 -34 -47 -34 q-51 9 -103 73 q-53 64 -153 73 q-88 -1 -139 -68 q-51 -67 -52 -189 l129 0 q1 61 18 95 q18 34 51 35 q54 -9 106 -73 q52 -64 147 -73 l0 0 Z" /><glyph glyph-name="" unicode="&#x1e18;" d="M1049 194 l-692 0 l0 448 l655 0 l0 186 l-655 0 l0 422 l692 0 l0 193 l-916 0 l0 -1443 l916 0 l0 194 ZM505 -164 l-286 -306 l188 0 l182 200 l4 0 l182 -200 l188 0 l-286 306 l-172 0 Z" /><glyph glyph-name="" unicode="&#x114;" d="M1049 194 l-692 0 l0 448 l655 0 l0 186 l-655 0 l0 422 l692 0 l0 193 l-916 0 l0 -1443 l916 0 l0 194 ZM266 1853 q3 -135 90 -219 q87 -84 235 -87 q148 3 235 87 q87 84 90 219 l-140 0 q-2 -81 -52 -134 q-51 -52 -133 -54 q-82 2 -133 54 q-50 53 -52 134 l-140 0 Z" /><glyph glyph-name="" unicode="&#x1e1a;" d="M724 -422 q85 1 136 70 q52 68 53 189 l-130 0 q0 -64 -16 -98 q-15 -34 -47 -34 q-51 9 -103 73 q-53 64 -153 73 q-88 -1 -139 -68 q-51 -67 -52 -189 l129 0 q1 61 18 95 q18 34 51 35 q54 -9 106 -73 q52 -64 147 -73 l0 0 ZM1049 194 l-692 0 l0 448 l655 0 l0 186 l-655 0 l0 422 l692 0 l0 193 l-916 0 l0 -1443 l916 0 l0 194 Z" /><glyph glyph-name="" unicode="&#x116;" d="M591 1576 q56 1 93 39 q37 37 38 92 q-1 56 -38 93 q-37 37 -93 38 q-56 -1 -93 -38 q-37 -37 -38 -93 q1 -55 38 -92 q37 -38 93 -39 l0 0 ZM1049 194 l-692 0 l0 448 l655 0 l0 186 l-655 0 l0 422 l692 0 l0 193 l-916 0 l0 -1443 l916 0 l0 194 Z" /><glyph glyph-name="" unicode="&#x228;" d="M1049 1250 l0 193 l-916 0 l0 -1443 l409 0 l-59 -146 l0 -83 l55 0 q75 0 108 -15 q34 -15 33 -48 q0 -66 -115 -66 q-33 0 -67 4 q-34 4 -51 10 l0 -105 q31 -10 67 -14 q36 -4 78 -3 q103 2 164 50 q61 49 62 130 q0 75 -51 115 q-51 39 -149 39 l51 132 l381 0 l0 194 l-692 0 l0 448 l655 0 l0 186 l-655 0 l0 422 l692 0 Z" /><glyph glyph-name="" unicode="&#x1e1c;" d="M776 1853 q-2 -81 -52 -134 q-51 -52 -133 -54 q-82 2 -133 54 q-50 53 -52 134 l-140 0 q3 -135 90 -219 q87 -84 235 -87 q148 3 235 87 q87 84 90 219 l-140 0 ZM1049 1250 l0 193 l-916 0 l0 -1443 l409 0 l-59 -146 l0 -83 l55 0 q75 0 108 -15 q34 -15 33 -48 q0 -66 -115 -66 q-33 0 -67 4 q-34 4 -51 10 l0 -105 q31 -10 67 -14 q36 -4 78 -3 q103 2 164 50 q61 49 62 130 q0 75 -51 115 q-51 39 -149 39 l51 132 l381 0 l0 194 l-692 0 l0 448 l655 0 l0 186 l-655 0 l0 422 l692 0 Z" /><glyph glyph-name="" unicode="&#x118;" d="M883 -443 q68 0 116 18 l0 144 q-11 -3 -28 -4 q-18 -2 -39 -2 q-52 1 -82 27 q-31 26 -32 70 q2 61 55 112 q53 51 132 75 l44 13 l0 184 l-692 0 l0 448 l655 0 l0 186 l-655 0 l0 422 l692 0 l0 193 l-916 0 l0 -1443 l643 0 l0 -4 q-70 -41 -108 -100 q-39 -59 -39 -127 q2 -95 72 -152 q69 -58 182 -60 l0 0 Z" /><glyph glyph-name="" unicode="f" d="M357 0 l0 604 l620 0 l0 189 l-620 0 l0 457 l677 0 l0 193 l-901 0 l0 -1443 l224 0 Z" /><glyph glyph-name="" unicode="&#x1e1e;" d="M579 1576 q56 1 93 39 q37 37 38 92 q-1 56 -38 93 q-37 37 -93 38 q-56 -1 -93 -38 q-37 -37 -38 -93 q1 -55 38 -92 q37 -38 93 -39 l0 0 ZM357 0 l0 604 l620 0 l0 189 l-620 0 l0 457 l677 0 l0 193 l-901 0 l0 -1443 l224 0 Z" /><glyph glyph-name="" unicode="g" d="M1376 600 l0 147 l-594 0 l0 -181 l373 0 l0 -25 q-5 -167 -113 -267 q-108 -99 -286 -102 q-208 3 -326 150 q-118 147 -120 408 q2 256 118 398 q115 141 324 143 q142 -1 242 -74 q99 -73 141 -208 l230 0 q-41 219 -205 347 q-165 128 -409 131 q-312 -4 -489 -199 q-178 -195 -181 -540 q3 -351 182 -550 q178 -198 491 -202 q295 2 458 165 q162 163 164 459 l0 0 Z" /><glyph glyph-name="" unicode="&#x1f4;" d="M835 1551 l280 303 l-225 0 l-231 -303 l176 0 ZM1376 600 l0 147 l-594 0 l0 -181 l373 0 l0 -25 q-5 -167 -113 -267 q-108 -99 -286 -102 q-208 3 -326 150 q-118 147 -120 408 q2 256 118 398 q115 141 324 143 q142 -1 242 -74 q99 -73 141 -208 l230 0 q-41 219 -205 347 q-165 128 -409 131 q-312 -4 -489 -199 q-178 -195 -181 -540 q3 -351 182 -550 q178 -198 491 -202 q295 2 458 165 q162 163 164 459 l0 0 Z" /><glyph glyph-name="" unicode="&#x1e6;" d="M661 1547 l172 0 l286 306 l-188 0 l-182 -199 l-4 0 l-182 199 l-188 0 l286 -306 ZM1376 600 l0 147 l-594 0 l0 -181 l373 0 l0 -25 q-5 -167 -113 -267 q-108 -99 -286 -102 q-208 3 -326 150 q-118 147 -120 408 q2 256 118 398 q115 141 324 143 q142 -1 242 -74 q99 -73 141 -208 l230 0 q-41 219 -205 347 q-165 128 -409 131 q-312 -4 -489 -199 q-178 -195 -181 -540 q3 -351 182 -550 q178 -198 491 -202 q295 2 458 165 q162 163 164 459 l0 0 Z" /><glyph glyph-name="" unicode="&#x11c;" d="M661 1853 l-286 -306 l188 0 l182 200 l4 0 l182 -200 l188 0 l-286 306 l-172 0 ZM1376 600 l0 147 l-594 0 l0 -181 l373 0 l0 -25 q-5 -167 -113 -267 q-108 -99 -286 -102 q-208 3 -326 150 q-118 147 -120 408 q2 256 118 398 q115 141 324 143 q142 -1 242 -74 q99 -73 141 -208 l230 0 q-41 219 -205 347 q-165 128 -409 131 q-312 -4 -489 -199 q-178 -195 -181 -540 q3 -351 182 -550 q178 -198 491 -202 q295 2 458 165 q162 163 164 459 l0 0 Z" /><glyph glyph-name="" unicode="&#x11e;" d="M1376 600 l0 147 l-594 0 l0 -181 l373 0 l0 -25 q-5 -167 -113 -267 q-108 -99 -286 -102 q-208 3 -326 150 q-118 147 -120 408 q2 256 118 398 q115 141 324 143 q142 -1 242 -74 q99 -73 141 -208 l230 0 q-41 219 -205 347 q-165 128 -409 131 q-312 -4 -489 -199 q-178 -195 -181 -540 q3 -351 182 -550 q178 -198 491 -202 q295 2 458 165 q162 163 164 459 l0 0 ZM422 1853 q3 -135 90 -219 q87 -84 235 -87 q148 3 235 87 q87 84 90 219 l-140 0 q-2 -81 -52 -134 q-51 -52 -133 -54 q-82 2 -133 54 q-50 53 -52 134 l-140 0 Z" /><glyph glyph-name="" unicode="&#x1e20;" d="M1376 600 l0 147 l-594 0 l0 -181 l373 0 l0 -25 q-5 -167 -113 -267 q-108 -99 -286 -102 q-208 3 -326 150 q-118 147 -120 408 q2 256 118 398 q115 141 324 143 q142 -1 242 -74 q99 -73 141 -208 l230 0 q-41 219 -205 347 q-165 128 -409 131 q-312 -4 -489 -199 q-178 -195 -181 -540 q3 -351 182 -550 q178 -198 491 -202 q295 2 458 165 q162 163 164 459 l0 0 ZM1074 1755 l-654 0 l0 -119 l654 0 l0 119 Z" /><glyph glyph-name="" unicode="&#x120;" d="M747 1576 q56 1 93 39 q37 37 38 92 q-1 56 -38 93 q-37 37 -93 38 q-56 -1 -93 -38 q-37 -37 -38 -93 q1 -55 38 -92 q37 -38 93 -39 l0 0 ZM1376 600 l0 147 l-594 0 l0 -181 l373 0 l0 -25 q-5 -167 -113 -267 q-108 -99 -286 -102 q-208 3 -326 150 q-118 147 -120 408 q2 256 118 398 q115 141 324 143 q142 -1 242 -74 q99 -73 141 -208 l230 0 q-41 219 -205 347 q-165 128 -409 131 q-312 -4 -489 -199 q-178 -195 -181 -540 q3 -351 182 -550 q178 -198 491 -202 q295 2 458 165 q162 163 164 459 l0 0 Z" /><glyph glyph-name="" unicode="&#x122;" d="M730 -526 l133 360 l-190 0 l-102 -360 l159 0 ZM1376 600 l0 147 l-594 0 l0 -181 l373 0 l0 -25 q-5 -167 -113 -267 q-108 -99 -286 -102 q-208 3 -326 150 q-118 147 -120 408 q2 256 118 398 q115 141 324 143 q142 -1 242 -74 q99 -73 141 -208 l230 0 q-41 219 -205 347 q-165 128 -409 131 q-312 -4 -489 -199 q-178 -195 -181 -540 q3 -351 182 -550 q178 -198 491 -202 q295 2 458 165 q162 163 164 459 l0 0 Z" /><glyph glyph-name="" unicode="h" d="M1322 0 l0 1443 l-224 0 l0 -610 l-741 0 l0 610 l-224 0 l0 -1443 l224 0 l0 639 l741 0 l0 -639 l224 0 Z" /><glyph glyph-name="" unicode="&#x1e26;" d="M1322 0 l0 1443 l-224 0 l0 -610 l-741 0 l0 610 l-224 0 l0 -1443 l224 0 l0 639 l741 0 l0 -639 l224 0 ZM526 1576 q51 1 85 35 q34 34 35 84 q-1 51 -35 84 q-34 34 -85 35 q-52 -1 -86 -35 q-34 -33 -35 -84 q1 -50 35 -84 q34 -34 86 -35 l0 0 ZM929 1576 q51 1 85 35 q34 34 35 84 q-1 51 -35 84 q-34 34 -85 35 q-52 -1 -86 -35 q-34 -33 -35 -84 q1 -50 35 -84 q34 -34 86 -35 l0 0 Z" /><glyph glyph-name="" unicode="&#x21e;" d="M1322 0 l0 1443 l-224 0 l0 -610 l-741 0 l0 610 l-224 0 l0 -1443 l224 0 l0 639 l741 0 l0 -639 l224 0 ZM641 1547 l172 0 l286 306 l-188 0 l-182 -199 l-4 0 l-182 199 l-188 0 l286 -306 Z" /><glyph glyph-name="" unicode="&#x124;" d="M1322 0 l0 1443 l-224 0 l0 -610 l-741 0 l0 610 l-224 0 l0 -1443 l224 0 l0 639 l741 0 l0 -639 l224 0 ZM641 1853 l-286 -306 l188 0 l182 200 l4 0 l182 -200 l188 0 l-286 306 l-172 0 Z" /><glyph glyph-name="" unicode="&#x1e24;" d="M1322 0 l0 1443 l-224 0 l0 -610 l-741 0 l0 610 l-224 0 l0 -1443 l224 0 l0 639 l741 0 l0 -639 l224 0 ZM727 -416 q56 1 93 39 q37 37 38 92 q-1 56 -38 93 q-37 37 -93 38 q-56 -1 -93 -38 q-37 -37 -38 -93 q1 -55 38 -92 q37 -38 93 -39 l0 0 Z" /><glyph glyph-name="" unicode="&#x1e22;" d="M1322 0 l0 1443 l-224 0 l0 -610 l-741 0 l0 610 l-224 0 l0 -1443 l224 0 l0 639 l741 0 l0 -639 l224 0 ZM727 1576 q56 1 93 39 q37 37 38 92 q-1 56 -38 93 q-37 37 -93 38 q-56 -1 -93 -38 q-37 -37 -38 -93 q1 -55 38 -92 q37 -38 93 -39 l0 0 Z" /><glyph glyph-name="" unicode="&#x1e2a;" d="M402 -189 q3 -135 90 -219 q87 -84 235 -87 q148 3 235 87 q87 84 90 219 l-140 0 q-2 -81 -52 -134 q-51 -52 -133 -54 q-82 2 -133 54 q-50 53 -52 134 l-140 0 ZM1322 0 l0 1443 l-224 0 l0 -610 l-741 0 l0 610 l-224 0 l0 -1443 l224 0 l0 639 l741 0 l0 -639 l224 0 Z" /><glyph glyph-name="" unicode="&#x1e28;" d="M1098 1443 l0 -610 l-741 0 l0 610 l-224 0 l0 -1443 l98 0 l-59 -146 l0 -83 l55 0 q75 0 108 -15 q34 -15 33 -48 q0 -66 -115 -66 q-33 0 -67 4 q-34 4 -51 10 l0 -105 q31 -10 67 -14 q36 -4 78 -3 q103 2 164 50 q61 49 62 130 q0 75 -51 115 q-51 39 -149 39 l51 132 l0 9 l0 630 l741 0 l0 -639 l224 0 l0 1443 l-224 0 Z" /><glyph glyph-name="" unicode="&#x126;" d="M1103 833 l-741 0 l0 234 l741 0 l0 -234 ZM1451 1234 l-124 0 l0 209 l-224 0 l0 -209 l-741 0 l0 209 l-224 0 l0 -209 l-125 0 l0 -167 l125 0 l0 -1067 l224 0 l0 639 l741 0 l0 -639 l224 0 l0 1067 l124 0 l0 167 Z" /><glyph glyph-name="" unicode="i" d="M357 0 l0 1443 l-224 0 l0 -1443 l224 0 Z" /><glyph glyph-name="" unicode="&#x130;" d="M357 0 l0 1443 l-224 0 l0 -1443 l224 0 ZM245 1576 q56 1 93 39 q37 37 38 92 q-1 56 -38 93 q-37 37 -93 38 q-56 -1 -93 -38 q-37 -37 -38 -93 q1 -55 38 -92 q37 -38 93 -39 l0 0 Z" /><glyph glyph-name="" unicode="ì" d="M357 0 l0 1443 l-224 0 l0 -1443 l224 0 ZM158 1553 l176 0 l-231 303 l-225 0 l280 -303 Z" /><glyph glyph-name="" unicode="&#x208;" d="M357 0 l0 1443 l-224 0 l0 -1443 l224 0 ZM332 1551 l169 0 l-231 303 l-217 0 l279 -303 ZM-8 1551 l168 0 l-231 303 l-217 0 l280 -303 Z" /><glyph glyph-name="" unicode="í" d="M357 0 l0 1443 l-224 0 l0 -1443 l224 0 ZM333 1551 l280 303 l-225 0 l-231 -303 l176 0 Z" /><glyph glyph-name="" unicode="î" d="M357 0 l0 1443 l-224 0 l0 -1443 l224 0 ZM159 1853 l-286 -306 l188 0 l182 200 l4 0 l182 -200 l188 0 l-286 306 l-172 0 Z" /><glyph glyph-name="" unicode="&#x1cf;" d="M357 0 l0 1443 l-224 0 l0 -1443 l224 0 ZM159 1547 l172 0 l286 306 l-188 0 l-182 -199 l-4 0 l-182 199 l-188 0 l286 -306 Z" /><glyph glyph-name="" unicode="ï" d="M357 0 l0 1443 l-224 0 l0 -1443 l224 0 ZM44 1576 q51 1 85 35 q34 34 35 84 q-1 51 -35 84 q-34 34 -85 35 q-52 -1 -86 -35 q-34 -33 -35 -84 q1 -50 35 -84 q34 -34 86 -35 l0 0 ZM447 1576 q51 1 85 35 q34 34 35 84 q-1 51 -35 84 q-34 34 -85 35 q-52 -1 -86 -35 q-34 -33 -35 -84 q1 -50 35 -84 q34 -34 86 -35 l0 0 Z" /><glyph glyph-name="" unicode="&#x1e2e;" d="M357 0 l0 1443 l-224 0 l0 -1443 l224 0 ZM161 1863 l163 0 l237 218 l-212 0 l-188 -218 ZM53 1582 q46 1 77 32 q30 30 31 76 q-1 45 -31 76 q-31 31 -77 32 q-48 -1 -78 -32 q-31 -31 -32 -76 q1 -46 32 -76 q30 -31 78 -32 l0 0 ZM437 1582 q48 1 78 32 q31 30 32 76 q-1 45 -32 76 q-30 31 -78 32 q-46 -1 -76 -32 q-31 -31 -32 -76 q1 -46 32 -76 q30 -31 76 -32 l0 0 Z" /><glyph glyph-name="" unicode="&#x12c;" d="M357 0 l0 1443 l-224 0 l0 -1443 l224 0 ZM-80 1853 q3 -135 90 -219 q87 -84 235 -87 q148 3 235 87 q87 84 90 219 l-140 0 q-2 -81 -52 -134 q-51 -52 -133 -54 q-82 2 -133 54 q-50 53 -52 134 l-140 0 Z" /><glyph glyph-name="" unicode="&#x1eca;" d="M357 0 l0 1443 l-224 0 l0 -1443 l224 0 ZM245 -416 q56 1 93 39 q37 37 38 92 q-1 56 -38 93 q-37 37 -93 38 q-56 -1 -93 -38 q-37 -37 -38 -93 q1 -55 38 -92 q37 -38 93 -39 l0 0 Z" /><glyph glyph-name="" unicode="&#x20a;" d="M357 0 l0 1443 l-224 0 l0 -1443 l224 0 ZM-80 1547 l140 0 q2 81 52 134 q51 52 133 54 q82 -2 133 -54 q50 -53 52 -134 l140 0 q-3 135 -90 219 q-87 84 -235 87 q-148 -3 -235 -87 q-87 -84 -90 -219 l0 0 Z" /><glyph glyph-name="" unicode="&#x12a;" d="M357 0 l0 1443 l-224 0 l0 -1443 l224 0 ZM572 1755 l-654 0 l0 -119 l654 0 l0 119 Z" /><glyph glyph-name="" unicode="&#x1e2c;" d="M357 0 l0 1443 l-224 0 l0 -1443 l224 0 ZM378 -422 q85 1 136 70 q52 68 53 189 l-130 0 q0 -64 -16 -98 q-15 -34 -47 -34 q-51 9 -103 73 q-53 64 -153 73 q-88 -1 -139 -68 q-51 -67 -52 -189 l129 0 q1 61 18 95 q18 34 51 35 q54 -9 106 -73 q52 -64 147 -73 l0 0 Z" /><glyph glyph-name="" unicode="&#x1ec8;" d="M357 0 l0 1443 l-224 0 l0 -1443 l224 0 ZM76 1779 q22 10 50 14 q27 5 52 5 q40 -1 65 -20 q25 -19 26 -50 q-1 -33 -26 -60 q-25 -27 -67 -42 l70 -87 q76 28 122 81 q46 53 47 118 q-1 81 -58 127 q-57 45 -152 46 q-36 0 -69 -6 q-33 -6 -60 -17 l0 -109 Z" /><glyph glyph-name="" unicode="&#x128;" d="M357 0 l0 1443 l-224 0 l0 -1443 l224 0 ZM378 1537 q85 1 136 70 q52 68 53 189 l-130 0 q0 -64 -16 -98 q-15 -34 -47 -34 q-51 9 -103 73 q-53 64 -153 73 q-88 -1 -139 -68 q-51 -67 -52 -189 l129 0 q1 61 18 95 q18 34 51 35 q54 -9 106 -73 q52 -64 147 -73 l0 0 Z" /><glyph glyph-name="" unicode="&#x12e;" d="M133 -10 q-64 -42 -97 -99 q-34 -57 -34 -124 q2 -94 71 -151 q68 -57 182 -59 q38 0 67 5 q28 4 51 13 l0 144 q-12 -3 -30 -4 q-17 -2 -37 -2 q-53 1 -85 27 q-31 27 -32 71 q1 53 42 100 q42 47 114 85 l12 4 l0 1443 l-224 0 l0 -1453 Z" /><glyph glyph-name="" unicode="j" d="M38 370 q3 -183 121 -291 q118 -108 316 -111 q212 1 330 119 q117 117 119 333 l0 1023 l-224 0 l0 -1022 q0 -124 -58 -188 q-58 -65 -169 -65 q-95 1 -153 56 q-58 55 -62 146 l-220 0 Z" /><glyph glyph-name="" unicode="&#x134;" d="M38 370 q3 -183 121 -291 q118 -108 316 -111 q212 1 330 119 q117 117 119 333 l0 1023 l-224 0 l0 -1022 q0 -124 -58 -188 q-58 -65 -169 -65 q-95 1 -153 56 q-58 55 -62 146 l-220 0 ZM727 1853 l-286 -306 l188 0 l182 200 l4 0 l182 -200 l188 0 l-286 306 l-172 0 Z" /><glyph glyph-name="" unicode="k" d="M357 0 l0 481 l148 169 l500 -650 l278 0 l-620 804 l572 639 l-266 0 l-603 -687 l-9 0 l0 687 l-224 0 l0 -1443 l224 0 Z" /><glyph glyph-name="" unicode="&#x1e30;" d="M717 1551 l280 303 l-225 0 l-231 -303 l176 0 ZM357 0 l0 481 l148 169 l500 -650 l278 0 l-620 804 l572 639 l-266 0 l-603 -687 l-9 0 l0 687 l-224 0 l0 -1443 l224 0 Z" /><glyph glyph-name="" unicode="&#x1e8;" d="M357 0 l0 481 l148 169 l500 -650 l278 0 l-620 804 l572 639 l-266 0 l-603 -687 l-9 0 l0 687 l-224 0 l0 -1443 l224 0 ZM543 1547 l172 0 l286 306 l-188 0 l-182 -199 l-4 0 l-182 199 l-188 0 l286 -306 Z" /><glyph glyph-name="" unicode="&#x1e32;" d="M629 -416 q56 1 93 39 q37 37 38 92 q-1 56 -38 93 q-37 37 -93 38 q-56 -1 -93 -38 q-37 -37 -38 -93 q1 -55 38 -92 q37 -38 93 -39 l0 0 ZM357 0 l0 481 l148 169 l500 -650 l278 0 l-620 804 l572 639 l-266 0 l-603 -687 l-9 0 l0 687 l-224 0 l0 -1443 l224 0 Z" /><glyph glyph-name="" unicode="&#x1e34;" d="M357 0 l0 481 l148 169 l500 -650 l278 0 l-620 804 l572 639 l-266 0 l-603 -687 l-9 0 l0 687 l-224 0 l0 -1443 l224 0 ZM956 -223 l-654 0 l0 -119 l654 0 l0 119 Z" /><glyph glyph-name="" unicode="&#x136;" d="M357 0 l0 481 l148 169 l500 -650 l278 0 l-620 804 l572 639 l-266 0 l-603 -687 l-9 0 l0 687 l-224 0 l0 -1443 l224 0 ZM612 -526 l133 360 l-190 0 l-102 -360 l159 0 Z" /><glyph glyph-name="" unicode="l" d="M1029 194 l-672 0 l0 1249 l-224 0 l0 -1443 l896 0 l0 194 Z" /><glyph glyph-name="" unicode="&#x139;" d="M333 1551 l280 303 l-225 0 l-231 -303 l176 0 ZM1029 194 l-672 0 l0 1249 l-224 0 l0 -1443 l896 0 l0 194 Z" /><glyph glyph-name="" unicode="&#x1e3c;" d="M1029 194 l-672 0 l0 1249 l-224 0 l0 -1443 l896 0 l0 194 ZM491 -164 l-286 -306 l188 0 l182 200 l4 0 l182 -200 l188 0 l-286 306 l-172 0 Z" /><glyph glyph-name="" unicode="&#x1e36;" d="M577 -416 q56 1 93 39 q37 37 38 92 q-1 56 -38 93 q-37 37 -93 38 q-56 -1 -93 -38 q-37 -37 -38 -93 q1 -55 38 -92 q37 -38 93 -39 l0 0 ZM1029 194 l-672 0 l0 1249 l-224 0 l0 -1443 l896 0 l0 194 Z" /><glyph glyph-name="" unicode="&#x1e38;" d="M577 -416 q56 1 93 39 q37 37 38 92 q-1 56 -38 93 q-37 37 -93 38 q-56 -1 -93 -38 q-37 -37 -38 -93 q1 -55 38 -92 q37 -38 93 -39 l0 0 ZM1029 194 l-672 0 l0 1249 l-224 0 l0 -1443 l896 0 l0 194 ZM572 1755 l-654 0 l0 -119 l654 0 l0 119 Z" /><glyph glyph-name="" unicode="&#x1e3a;" d="M904 -223 l-654 0 l0 -119 l654 0 l0 119 ZM1029 194 l-672 0 l0 1249 l-224 0 l0 -1443 l896 0 l0 194 Z" /><glyph glyph-name="" unicode="&#x13b;" d="M560 -526 l133 360 l-190 0 l-102 -360 l159 0 ZM1029 194 l-672 0 l0 1249 l-224 0 l0 -1443 l896 0 l0 194 Z" /><glyph glyph-name="" unicode="&#x13d;" d="M620 1443 l0 -493 l147 0 l50 493 l-197 0 ZM1029 194 l-672 0 l0 1249 l-224 0 l0 -1443 l896 0 l0 194 Z" /><glyph glyph-name="" unicode="&#x141;" d="M362 194 l0 589 l320 152 l0 163 l-320 -151 l0 496 l-224 0 l0 -602 l-114 -54 l0 -164 l114 54 l0 -677 l896 0 l0 194 l-672 0 Z" /><glyph glyph-name="" unicode="m" d="M1593 0 l0 1443 l-260 0 l-466 -1139 l-8 0 l-467 1139 l-259 0 l0 -1443 l204 0 l0 1062 l7 0 l436 -1051 l166 0 l435 1051 l7 0 l0 -1062 l205 0 Z" /><glyph glyph-name="" unicode="&#x1e3e;" d="M951 1551 l280 303 l-225 0 l-231 -303 l176 0 ZM1593 0 l0 1443 l-260 0 l-466 -1139 l-8 0 l-467 1139 l-259 0 l0 -1443 l204 0 l0 1062 l7 0 l436 -1051 l166 0 l435 1051 l7 0 l0 -1062 l205 0 Z" /><glyph glyph-name="" unicode="&#x1e40;" d="M863 1576 q56 1 93 39 q37 37 38 92 q-1 56 -38 93 q-37 37 -93 38 q-56 -1 -93 -38 q-37 -37 -38 -93 q1 -55 38 -92 q37 -38 93 -39 l0 0 ZM1593 0 l0 1443 l-260 0 l-466 -1139 l-8 0 l-467 1139 l-259 0 l0 -1443 l204 0 l0 1062 l7 0 l436 -1051 l166 0 l435 1051 l7 0 l0 -1062 l205 0 Z" /><glyph glyph-name="" unicode="&#x1e42;" d="M863 -416 q56 1 93 39 q37 37 38 92 q-1 56 -38 93 q-37 37 -93 38 q-56 -1 -93 -38 q-37 -37 -38 -93 q1 -55 38 -92 q37 -38 93 -39 l0 0 ZM1593 0 l0 1443 l-260 0 l-466 -1139 l-8 0 l-467 1139 l-259 0 l0 -1443 l204 0 l0 1062 l7 0 l436 -1051 l166 0 l435 1051 l7 0 l0 -1062 l205 0 Z" /><glyph glyph-name="" unicode="n" d="M351 0 l0 1063 l9 0 l748 -1063 l202 0 l0 1443 l-218 0 l0 -1064 l-8 0 l-748 1064 l-203 0 l0 -1443 l218 0 Z" /><glyph glyph-name="" unicode="&#x1f8;" d="M635 1553 l176 0 l-231 303 l-225 0 l280 -303 ZM351 0 l0 1063 l9 0 l748 -1063 l202 0 l0 1443 l-218 0 l0 -1064 l-8 0 l-748 1064 l-203 0 l0 -1443 l218 0 Z" /><glyph glyph-name="" unicode="&#x143;" d="M810 1551 l280 303 l-225 0 l-231 -303 l176 0 ZM351 0 l0 1063 l9 0 l748 -1063 l202 0 l0 1443 l-218 0 l0 -1064 l-8 0 l-748 1064 l-203 0 l0 -1443 l218 0 Z" /><glyph glyph-name="" unicode="ñ" d="M855 1537 q85 1 136 70 q52 68 53 189 l-130 0 q0 -64 -16 -98 q-15 -34 -47 -34 q-51 9 -103 73 q-53 64 -153 73 q-88 -1 -139 -68 q-51 -67 -52 -189 l129 0 q1 61 18 95 q18 34 51 35 q54 -9 106 -73 q52 -64 147 -73 l0 0 ZM351 0 l0 1063 l9 0 l748 -1063 l202 0 l0 1443 l-218 0 l0 -1064 l-8 0 l-748 1064 l-203 0 l0 -1443 l218 0 Z" /><glyph glyph-name="" unicode="&#x1e46;" d="M722 -416 q56 1 93 39 q37 37 38 92 q-1 56 -38 93 q-37 37 -93 38 q-56 -1 -93 -38 q-37 -37 -38 -93 q1 -55 38 -92 q37 -38 93 -39 l0 0 ZM351 0 l0 1063 l9 0 l748 -1063 l202 0 l0 1443 l-218 0 l0 -1064 l-8 0 l-748 1064 l-203 0 l0 -1443 l218 0 Z" /><glyph glyph-name="" unicode="&#x1e44;" d="M722 1576 q56 1 93 39 q37 37 38 92 q-1 56 -38 93 q-37 37 -93 38 q-56 -1 -93 -38 q-37 -37 -38 -93 q1 -55 38 -92 q37 -38 93 -39 l0 0 ZM351 0 l0 1063 l9 0 l748 -1063 l202 0 l0 1443 l-218 0 l0 -1064 l-8 0 l-748 1064 l-203 0 l0 -1443 l218 0 Z" /><glyph glyph-name="" unicode="&#x147;" d="M636 1547 l172 0 l286 306 l-188 0 l-182 -199 l-4 0 l-182 199 l-188 0 l286 -306 ZM351 0 l0 1063 l9 0 l748 -1063 l202 0 l0 1443 l-218 0 l0 -1064 l-8 0 l-748 1064 l-203 0 l0 -1443 l218 0 Z" /><glyph glyph-name="" unicode="&#x1e4a;" d="M351 0 l0 1063 l9 0 l748 -1063 l202 0 l0 1443 l-218 0 l0 -1064 l-8 0 l-748 1064 l-203 0 l0 -1443 l218 0 ZM636 -164 l-286 -306 l188 0 l182 200 l4 0 l182 -200 l188 0 l-286 306 l-172 0 Z" /><glyph glyph-name="" unicode="&#x1e48;" d="M1049 -223 l-654 0 l0 -119 l654 0 l0 119 ZM351 0 l0 1063 l9 0 l748 -1063 l202 0 l0 1443 l-218 0 l0 -1064 l-8 0 l-748 1064 l-203 0 l0 -1443 l218 0 Z" /><glyph glyph-name="" unicode="&#x145;" d="M705 -526 l133 360 l-190 0 l-102 -360 l159 0 ZM351 0 l0 1063 l9 0 l748 -1063 l202 0 l0 1443 l-218 0 l0 -1064 l-8 0 l-748 1064 l-203 0 l0 -1443 l218 0 Z" /><glyph glyph-name="" unicode="o" d="M757 1467 q-315 -4 -494 -201 q-179 -197 -182 -545 q3 -348 182 -545 q179 -196 494 -200 q315 4 494 200 q179 197 182 545 q-3 348 -182 545 q-179 197 -494 201 l0 0 ZM757 1270 q208 -3 326 -148 q118 -146 120 -401 q-2 -255 -120 -400 q-118 -145 -326 -148 q-208 3 -326 148 q-119 145 -121 400 q2 255 121 401 q118 145 326 148 l0 0 Z" /><glyph glyph-name="" unicode="ö" d="M556 1576 q51 1 85 35 q34 34 35 84 q-1 51 -35 84 q-34 34 -85 35 q-52 -1 -86 -35 q-34 -33 -35 -84 q1 -50 35 -84 q34 -34 86 -35 l0 0 ZM959 1576 q51 1 85 35 q34 34 35 84 q-1 51 -35 84 q-34 34 -85 35 q-52 -1 -86 -35 q-34 -33 -35 -84 q1 -50 35 -84 q34 -34 86 -35 l0 0 ZM757 1467 q-315 -4 -494 -201 q-179 -197 -182 -545 q3 -348 182 -545 q179 -196 494 -200 q315 4 494 200 q179 197 182 545 q-3 348 -182 545 q-179 197 -494 201 l0 0 ZM757 1270 q208 -3 326 -148 q118 -146 120 -401 q-2 -255 -120 -400 q-118 -145 -326 -148 q-208 3 -326 148 q-119 145 -121 400 q2 255 121 401 q118 145 326 148 l0 0 Z" /><glyph glyph-name="" unicode="ø" d="M1114 1078 q44 -69 66 -159 q23 -90 23 -198 q-2 -255 -120 -400 q-118 -145 -326 -148 q-72 0 -134 19 q-63 19 -114 56 l605 830 ZM420 335 q-53 71 -82 168 q-28 98 -28 218 q2 255 121 401 q118 145 326 148 q83 0 152 -25 q70 -25 125 -72 l-614 -838 ZM1370 1429 l-101 65 l-108 -147 q-81 59 -183 89 q-102 31 -221 31 q-315 -4 -494 -201 q-179 -197 -182 -545 q1 -184 53 -327 q53 -144 152 -241 l-98 -134 l101 -73 l94 129 q77 -48 171 -73 q94 -26 203 -26 q315 4 494 200 q179 197 182 545 q0 172 -47 310 q-47 138 -135 235 l119 163 Z" /><glyph glyph-name="" unicode="õ" d="M757 1467 q-315 -4 -494 -201 q-179 -197 -182 -545 q3 -348 182 -545 q179 -196 494 -200 q315 4 494 200 q179 197 182 545 q-3 348 -182 545 q-179 197 -494 201 l0 0 ZM757 1270 q208 -3 326 -148 q118 -146 120 -401 q-2 -255 -120 -400 q-118 -145 -326 -148 q-208 3 -326 148 q-119 145 -121 400 q2 255 121 401 q118 145 326 148 l0 0 ZM890 1537 q85 1 136 70 q52 68 53 189 l-130 0 q0 -64 -16 -98 q-15 -34 -47 -34 q-51 9 -103 73 q-53 64 -153 73 q-88 -1 -139 -68 q-51 -67 -52 -189 l129 0 q1 61 18 95 q18 34 51 35 q54 -9 106 -73 q52 -64 147 -73 l0 0 Z" /><glyph glyph-name="" unicode="ó" d="M845 1551 l280 303 l-225 0 l-231 -303 l176 0 ZM757 1467 q-315 -4 -494 -201 q-179 -197 -182 -545 q3 -348 182 -545 q179 -196 494 -200 q315 4 494 200 q179 197 182 545 q-3 348 -182 545 q-179 197 -494 201 l0 0 ZM757 1270 q208 -3 326 -148 q118 -146 120 -401 q-2 -255 -120 -400 q-118 -145 -326 -148 q-208 3 -326 148 q-119 145 -121 400 q2 255 121 401 q118 145 326 148 l0 0 Z" /><glyph glyph-name="" unicode="ô" d="M671 1853 l-286 -306 l188 0 l182 200 l4 0 l182 -200 l188 0 l-286 306 l-172 0 ZM757 1467 q-315 -4 -494 -201 q-179 -197 -182 -545 q3 -348 182 -545 q179 -196 494 -200 q315 4 494 200 q179 197 182 545 q-3 348 -182 545 q-179 197 -494 201 l0 0 ZM757 1270 q208 -3 326 -148 q118 -146 120 -401 q-2 -255 -120 -400 q-118 -145 -326 -148 q-208 3 -326 148 q-119 145 -121 400 q2 255 121 401 q118 145 326 148 l0 0 Z" /><glyph glyph-name="" unicode="ò" d="M670 1553 l176 0 l-231 303 l-225 0 l280 -303 ZM757 1467 q-315 -4 -494 -201 q-179 -197 -182 -545 q3 -348 182 -545 q179 -196 494 -200 q315 4 494 200 q179 197 182 545 q-3 348 -182 545 q-179 197 -494 201 l0 0 ZM757 1270 q208 -3 326 -148 q118 -146 120 -401 q-2 -255 -120 -400 q-118 -145 -326 -148 q-208 3 -326 148 q-119 145 -121 400 q2 255 121 401 q118 145 326 148 l0 0 Z" /><glyph glyph-name="" unicode="&#x1ed4;" d="M668 1806 l-265 -238 l200 0 l149 139 l14 0 l148 -139 l201 0 l-264 238 l-183 0 ZM879 1958 q18 8 41 13 q24 4 49 4 q36 -1 58 -18 q22 -18 23 -46 q0 -30 -20 -54 q-20 -24 -57 -38 l83 -74 q60 22 93 69 q33 48 34 106 q-1 74 -52 118 q-51 43 -137 44 q-31 0 -61 -6 q-31 -7 -54 -18 l0 -100 ZM757 1467 q-315 -4 -494 -201 q-179 -197 -182 -545 q3 -348 182 -545 q179 -196 494 -200 q315 4 494 200 q179 197 182 545 q-3 348 -182 545 q-179 197 -494 201 l0 0 ZM757 1270 q208 -3 326 -148 q118 -146 120 -401 q-2 -255 -120 -400 q-118 -145 -326 -148 q-208 3 -326 148 q-119 145 -121 400 q2 255 121 401 q118 145 326 148 l0 0 Z" /><glyph glyph-name="" unicode="&#x1ed2;" d="M666 1806 l-265 -238 l201 0 l149 139 l12 0 l149 -139 l201 0 l-265 238 l-182 0 ZM1080 1863 l-188 218 l-212 0 l237 -218 l163 0 ZM757 1467 q-315 -4 -494 -201 q-179 -197 -182 -545 q3 -348 182 -545 q179 -196 494 -200 q315 4 494 200 q179 197 182 545 q-3 348 -182 545 q-179 197 -494 201 l0 0 ZM757 1270 q208 -3 326 -148 q118 -146 120 -401 q-2 -255 -120 -400 q-118 -145 -326 -148 q-208 3 -326 148 q-119 145 -121 400 q2 255 121 401 q118 145 326 148 l0 0 Z" /><glyph glyph-name="" unicode="&#x1ecc;" d="M757 -416 q56 1 93 39 q37 37 38 92 q-1 56 -38 93 q-37 37 -93 38 q-56 -1 -93 -38 q-37 -37 -38 -93 q1 -55 38 -92 q37 -38 93 -39 l0 0 ZM757 1467 q-315 -4 -494 -201 q-179 -197 -182 -545 q3 -348 182 -545 q179 -196 494 -200 q315 4 494 200 q179 197 182 545 q-3 348 -182 545 q-179 197 -494 201 l0 0 ZM757 1270 q208 -3 326 -148 q118 -146 120 -401 q-2 -255 -120 -400 q-118 -145 -326 -148 q-208 3 -326 148 q-119 145 -121 400 q2 255 121 401 q118 145 326 148 l0 0 Z" /><glyph glyph-name="" unicode="&#x20c;" d="M844 1551 l169 0 l-231 303 l-217 0 l279 -303 ZM504 1551 l168 0 l-231 303 l-217 0 l280 -303 ZM757 1467 q-315 -4 -494 -201 q-179 -197 -182 -545 q3 -348 182 -545 q179 -196 494 -200 q315 4 494 200 q179 197 182 545 q-3 348 -182 545 q-179 197 -494 201 l0 0 ZM757 1270 q208 -3 326 -148 q118 -146 120 -401 q-2 -255 -120 -400 q-118 -145 -326 -148 q-208 3 -326 148 q-119 145 -121 400 q2 255 121 401 q118 145 326 148 l0 0 Z" /><glyph glyph-name="" unicode="&#x1e4c;" d="M757 1467 q-315 -4 -494 -201 q-179 -197 -182 -545 q3 -348 182 -545 q179 -196 494 -200 q315 4 494 200 q179 197 182 545 q-3 348 -182 545 q-179 197 -494 201 l0 0 ZM757 1270 q208 -3 326 -148 q118 -146 120 -401 q-2 -255 -120 -400 q-118 -145 -326 -148 q-208 3 -326 148 q-119 145 -121 400 q2 255 121 401 q118 145 326 148 l0 0 ZM887 1535 q85 1 137 70 q51 69 52 190 l-130 0 q0 -65 -16 -99 q-15 -34 -47 -34 q-51 9 -104 74 q-53 64 -153 73 q-89 -1 -139 -68 q-51 -68 -52 -190 l130 0 q0 62 18 96 q17 35 51 35 q54 -9 106 -73 q52 -65 147 -74 l0 0 ZM675 1863 l163 0 l236 218 l-211 0 l-188 -218 Z" /><glyph glyph-name="" unicode="&#x1e52;" d="M1084 1636 l0 119 l-654 0 l0 -119 l654 0 ZM673 1863 l163 0 l237 218 l-212 0 l-188 -218 ZM757 1467 q-315 -4 -494 -201 q-179 -197 -182 -545 q3 -348 182 -545 q179 -196 494 -200 q315 4 494 200 q179 197 182 545 q-3 348 -182 545 q-179 197 -494 201 l0 0 ZM757 1270 q208 -3 326 -148 q118 -146 120 -401 q-2 -255 -120 -400 q-118 -145 -326 -148 q-208 3 -326 148 q-119 145 -121 400 q2 255 121 401 q118 145 326 148 l0 0 Z" /><glyph glyph-name="" unicode="&#x1ed6;" d="M883 1847 q86 1 138 63 q53 63 54 171 l-125 0 q-3 -58 -20 -87 q-17 -28 -53 -28 q-48 8 -91 65 q-43 57 -145 65 q-90 -1 -142 -61 q-52 -60 -53 -171 l125 0 q3 59 20 88 q18 28 54 28 q58 -8 98 -66 q41 -59 140 -67 l0 0 ZM666 1790 l-265 -222 l201 0 l149 124 l12 0 l149 -124 l201 0 l-265 222 l-182 0 ZM757 1467 q-315 -4 -494 -201 q-179 -197 -182 -545 q3 -348 182 -545 q179 -196 494 -200 q315 4 494 200 q179 197 182 545 q-3 348 -182 545 q-179 197 -494 201 l0 0 ZM757 1270 q208 -3 326 -148 q118 -146 120 -401 q-2 -255 -120 -400 q-118 -145 -326 -148 q-208 3 -326 148 q-119 145 -121 400 q2 255 121 401 q118 145 326 148 l0 0 Z" /><glyph glyph-name="" unicode="&#x230;" d="M757 1567 q54 1 88 36 q35 35 36 87 q-1 52 -36 86 q-34 34 -88 35 q-54 -1 -88 -35 q-35 -34 -36 -86 q1 -52 36 -87 q34 -35 88 -36 l0 0 ZM1084 2042 l-654 0 l0 -119 l654 0 l0 119 ZM757 1467 q-315 -4 -494 -201 q-179 -197 -182 -545 q3 -348 182 -545 q179 -196 494 -200 q315 4 494 200 q179 197 182 545 q-3 348 -182 545 q-179 197 -494 201 l0 0 ZM757 1270 q208 -3 326 -148 q118 -146 120 -401 q-2 -255 -120 -400 q-118 -145 -326 -148 q-208 3 -326 148 q-119 145 -121 400 q2 255 121 401 q118 145 326 148 l0 0 Z" /><glyph glyph-name="" unicode="&#x1e50;" d="M430 1636 l654 0 l0 119 l-654 0 l0 -119 ZM841 1863 l-188 218 l-212 0 l237 -218 l163 0 ZM757 1467 q-315 -4 -494 -201 q-179 -197 -182 -545 q3 -348 182 -545 q179 -196 494 -200 q315 4 494 200 q179 197 182 545 q-3 348 -182 545 q-179 197 -494 201 l0 0 ZM757 1270 q208 -3 326 -148 q118 -146 120 -401 q-2 -255 -120 -400 q-118 -145 -326 -148 q-208 3 -326 148 q-119 145 -121 400 q2 255 121 401 q118 145 326 148 l0 0 Z" /><glyph glyph-name="" unicode="&#x1d1;" d="M671 1547 l172 0 l286 306 l-188 0 l-182 -199 l-4 0 l-182 199 l-188 0 l286 -306 ZM757 1467 q-315 -4 -494 -201 q-179 -197 -182 -545 q3 -348 182 -545 q179 -196 494 -200 q315 4 494 200 q179 197 182 545 q-3 348 -182 545 q-179 197 -494 201 l0 0 ZM757 1270 q208 -3 326 -148 q118 -146 120 -401 q-2 -255 -120 -400 q-118 -145 -326 -148 q-208 3 -326 148 q-119 145 -121 400 q2 255 121 401 q118 145 326 148 l0 0 Z" /><glyph glyph-name="" unicode="&#x1fe;" d="M1151 1854 l-225 0 l-231 -303 l176 0 l280 303 ZM1114 1078 q44 -69 66 -159 q23 -90 23 -198 q-2 -255 -120 -400 q-118 -145 -326 -148 q-72 0 -134 19 q-63 19 -114 56 l605 830 ZM420 335 q-53 71 -82 168 q-28 98 -28 218 q2 255 121 401 q118 145 326 148 q83 0 152 -25 q70 -25 125 -72 l-614 -838 ZM1370 1429 l-101 65 l-108 -147 q-81 59 -183 89 q-102 31 -221 31 q-315 -4 -494 -201 q-179 -197 -182 -545 q1 -184 53 -327 q53 -144 152 -241 l-98 -134 l101 -73 l94 129 q77 -48 171 -73 q94 -26 203 -26 q315 4 494 200 q179 197 182 545 q0 172 -47 310 q-47 138 -135 235 l119 163 Z" /><glyph glyph-name="" unicode="&#x150;" d="M1010 1551 l280 303 l-217 0 l-231 -303 l168 0 ZM670 1551 l279 303 l-217 0 l-231 -303 l169 0 ZM757 1467 q-315 -4 -494 -201 q-179 -197 -182 -545 q3 -348 182 -545 q179 -196 494 -200 q315 4 494 200 q179 197 182 545 q-3 348 -182 545 q-179 197 -494 201 l0 0 ZM757 1270 q208 -3 326 -148 q118 -146 120 -401 q-2 -255 -120 -400 q-118 -145 -326 -148 q-208 3 -326 148 q-119 145 -121 400 q2 255 121 401 q118 145 326 148 l0 0 Z" /><glyph glyph-name="" unicode="&#x14e;" d="M757 1467 q-315 -4 -494 -201 q-179 -197 -182 -545 q3 -348 182 -545 q179 -196 494 -200 q315 4 494 200 q179 197 182 545 q-3 348 -182 545 q-179 197 -494 201 l0 0 ZM757 1270 q208 -3 326 -148 q118 -146 120 -401 q-2 -255 -120 -400 q-118 -145 -326 -148 q-208 3 -326 148 q-119 145 -121 400 q2 255 121 401 q118 145 326 148 l0 0 ZM432 1853 q3 -135 90 -219 q87 -84 235 -87 q148 3 235 87 q87 84 90 219 l-140 0 q-2 -81 -52 -134 q-51 -52 -133 -54 q-82 2 -133 54 q-50 53 -52 134 l-140 0 Z" /><glyph glyph-name="" unicode="&#x20e;" d="M432 1547 l140 0 q2 81 52 134 q51 52 133 54 q82 -2 133 -54 q50 -53 52 -134 l140 0 q-3 135 -90 219 q-87 84 -235 87 q-148 -3 -235 -87 q-87 -84 -90 -219 l0 0 ZM757 1467 q-315 -4 -494 -201 q-179 -197 -182 -545 q3 -348 182 -545 q179 -196 494 -200 q315 4 494 200 q179 197 182 545 q-3 348 -182 545 q-179 197 -494 201 l0 0 ZM757 1270 q208 -3 326 -148 q118 -146 120 -401 q-2 -255 -120 -400 q-118 -145 -326 -148 q-208 3 -326 148 q-119 145 -121 400 q2 255 121 401 q118 145 326 148 l0 0 Z" /><glyph glyph-name="" unicode="&#x1ece;" d="M588 1779 q22 10 50 14 q27 5 52 5 q40 -1 65 -20 q25 -19 26 -50 q-1 -33 -26 -60 q-25 -27 -67 -42 l70 -87 q76 28 122 81 q46 53 47 118 q-1 81 -58 127 q-57 45 -152 46 q-36 0 -69 -6 q-33 -6 -60 -17 l0 -109 ZM757 1467 q-315 -4 -494 -201 q-179 -197 -182 -545 q3 -348 182 -545 q179 -196 494 -200 q315 4 494 200 q179 197 182 545 q-3 348 -182 545 q-179 197 -494 201 l0 0 ZM757 1270 q208 -3 326 -148 q118 -146 120 -401 q-2 -255 -120 -400 q-118 -145 -326 -148 q-208 3 -326 148 q-119 145 -121 400 q2 255 121 401 q118 145 326 148 l0 0 Z" /><glyph glyph-name="" unicode="&#x22a;" d="M757 1467 q-315 -4 -494 -201 q-179 -197 -182 -545 q3 -348 182 -545 q179 -196 494 -200 q315 4 494 200 q179 197 182 545 q-3 348 -182 545 q-179 197 -494 201 l0 0 ZM757 1270 q208 -3 326 -148 q118 -146 120 -401 q-2 -255 -120 -400 q-118 -145 -326 -148 q-208 3 -326 148 q-119 145 -121 400 q2 255 121 401 q118 145 326 148 l0 0 ZM565 1798 q-48 -1 -78 -32 q-31 -31 -32 -76 q1 -46 32 -76 q30 -31 78 -32 q46 1 77 32 q30 30 31 76 q-1 45 -31 76 q-31 31 -77 32 l0 0 ZM430 2042 l0 -119 l654 0 l0 119 l-654 0 ZM949 1798 q-46 -1 -76 -32 q-31 -31 -32 -76 q1 -46 32 -76 q30 -31 76 -32 q48 1 78 32 q31 30 32 76 q-1 45 -32 76 q-30 31 -78 32 l0 0 Z" /><glyph glyph-name="" unicode="&#x22c;" d="M885 1535 q85 1 137 70 q51 69 52 190 l-130 0 q0 -65 -16 -99 q-15 -34 -47 -34 q-51 9 -103 74 q-53 64 -154 73 q-88 -1 -139 -68 q-51 -68 -52 -190 l130 0 q1 62 18 96 q18 35 51 35 q54 -9 106 -73 q52 -65 147 -74 l0 0 ZM1084 2042 l-654 0 l0 -119 l654 0 l0 119 ZM757 1467 q-315 -4 -494 -201 q-179 -197 -182 -545 q3 -348 182 -545 q179 -196 494 -200 q315 4 494 200 q179 197 182 545 q-3 348 -182 545 q-179 197 -494 201 l0 0 ZM757 1270 q208 -3 326 -148 q118 -146 120 -401 q-2 -255 -120 -400 q-118 -145 -326 -148 q-208 3 -326 148 q-119 145 -121 400 q2 255 121 401 q118 145 326 148 l0 0 Z" /><glyph glyph-name="" unicode="&#x22e;" d="M757 1576 q56 1 93 39 q37 37 38 92 q-1 56 -38 93 q-37 37 -93 38 q-56 -1 -93 -38 q-37 -37 -38 -93 q1 -55 38 -92 q37 -38 93 -39 l0 0 ZM757 1467 q-315 -4 -494 -201 q-179 -197 -182 -545 q3 -348 182 -545 q179 -196 494 -200 q315 4 494 200 q179 197 182 545 q-3 348 -182 545 q-179 197 -494 201 l0 0 ZM757 1270 q208 -3 326 -148 q118 -146 120 -401 q-2 -255 -120 -400 q-118 -145 -326 -148 q-208 3 -326 148 q-119 145 -121 400 q2 255 121 401 q118 145 326 148 l0 0 Z" /><glyph glyph-name="" unicode="&#x1ed8;" d="M757 -416 q56 1 93 39 q37 37 38 92 q-1 56 -38 93 q-37 37 -93 38 q-56 -1 -93 -38 q-37 -37 -38 -93 q1 -55 38 -92 q37 -38 93 -39 l0 0 ZM671 1853 l-286 -306 l188 0 l182 200 l4 0 l182 -200 l188 0 l-286 306 l-172 0 ZM757 1467 q-315 -4 -494 -201 q-179 -197 -182 -545 q3 -348 182 -545 q179 -196 494 -200 q315 4 494 200 q179 197 182 545 q-3 348 -182 545 q-179 197 -494 201 l0 0 ZM757 1270 q208 -3 326 -148 q118 -146 120 -401 q-2 -255 -120 -400 q-118 -145 -326 -148 q-208 3 -326 148 q-119 145 -121 400 q2 255 121 401 q118 145 326 148 l0 0 Z" /><glyph glyph-name="" unicode="&#x1ed0;" d="M668 1806 l-264 -238 l200 0 l149 139 l14 0 l148 -139 l200 0 l-264 238 l-183 0 ZM871 1863 l163 0 l236 218 l-211 0 l-188 -218 ZM757 1467 q-315 -4 -494 -201 q-179 -197 -182 -545 q3 -348 182 -545 q179 -196 494 -200 q315 4 494 200 q179 197 182 545 q-3 348 -182 545 q-179 197 -494 201 l0 0 ZM757 1270 q208 -3 326 -148 q118 -146 120 -401 q-2 -255 -120 -400 q-118 -145 -326 -148 q-208 3 -326 148 q-119 145 -121 400 q2 255 121 401 q118 145 326 148 l0 0 Z" /><glyph glyph-name="" unicode="&#x1e4e;" d="M888 1535 q85 1 137 70 q51 69 52 188 l-129 0 q-1 -63 -17 -97 q-16 -34 -47 -34 q-51 9 -103 74 q-53 64 -154 73 q-88 -1 -138 -68 q-51 -68 -52 -190 l129 0 q1 62 18 96 q18 35 51 35 q54 -9 106 -73 q52 -65 147 -74 l0 0 ZM565 2119 q-48 -1 -78 -32 q-31 -31 -32 -76 q1 -46 32 -77 q30 -31 78 -32 q46 1 77 32 q30 31 31 77 q-1 45 -31 76 q-31 31 -77 32 l0 0 ZM949 2119 q-46 -1 -76 -32 q-31 -31 -32 -76 q1 -46 32 -77 q30 -31 76 -32 q48 1 78 32 q31 31 32 77 q-1 45 -32 76 q-30 31 -78 32 l0 0 ZM757 1467 q-315 -4 -494 -201 q-179 -197 -182 -545 q3 -348 182 -545 q179 -196 494 -200 q315 4 494 200 q179 197 182 545 q-3 348 -182 545 q-179 197 -494 201 l0 0 ZM757 1270 q208 -3 326 -148 q118 -146 120 -401 q-2 -255 -120 -400 q-118 -145 -326 -148 q-208 3 -326 148 q-119 145 -121 400 q2 255 121 401 q118 145 326 148 l0 0 Z" /><glyph glyph-name="" unicode="&#x14c;" d="M757 1467 q-315 -4 -494 -201 q-179 -197 -182 -545 q3 -348 182 -545 q179 -196 494 -200 q315 4 494 200 q179 197 182 545 q-3 348 -182 545 q-179 197 -494 201 l0 0 ZM757 1270 q208 -3 326 -148 q118 -146 120 -401 q-2 -255 -120 -400 q-118 -145 -326 -148 q-208 3 -326 148 q-119 145 -121 400 q2 255 121 401 q118 145 326 148 l0 0 ZM1084 1755 l-654 0 l0 -119 l654 0 l0 119 Z" /><glyph glyph-name="" unicode="&#x1ea;" d="M1024 -443 q69 0 116 18 l0 144 q-10 -3 -27 -4 q-18 -2 -40 -2 q-52 1 -82 27 q-31 27 -32 72 q0 52 36 106 q37 55 116 118 q166 137 245 304 q78 167 77 381 q-3 347 -182 545 q-179 197 -494 201 q-315 -4 -494 -201 q-179 -198 -182 -545 q3 -347 182 -544 q179 -197 494 -201 q40 0 79 6 q39 5 69 14 l0 -4 q-66 -50 -100 -107 q-35 -57 -35 -119 q2 -94 71 -151 q69 -56 183 -58 l0 0 ZM757 1270 q208 -3 326 -148 q118 -146 120 -401 q-2 -255 -120 -400 q-118 -145 -326 -148 q-208 3 -326 148 q-119 145 -121 400 q2 255 121 401 q118 145 326 148 l0 0 Z" /><glyph glyph-name="" unicode="&#x1ec;" d="M1024 -443 q69 0 116 18 l0 144 q-10 -3 -27 -4 q-18 -2 -40 -2 q-52 1 -82 27 q-31 27 -32 72 q0 52 36 106 q37 55 116 118 q166 137 245 304 q78 167 77 381 q-3 347 -182 545 q-179 197 -494 201 q-315 -4 -494 -201 q-179 -198 -182 -545 q3 -347 182 -544 q179 -197 494 -201 q40 0 79 6 q39 5 69 14 l0 -4 q-66 -50 -100 -107 q-35 -57 -35 -119 q2 -94 71 -151 q69 -56 183 -58 l0 0 ZM757 1270 q208 -3 326 -148 q118 -146 120 -401 q-2 -255 -120 -400 q-118 -145 -326 -148 q-208 3 -326 148 q-119 145 -121 400 q2 255 121 401 q118 145 326 148 l0 0 ZM1084 1755 l-654 0 l0 -119 l654 0 l0 119 Z" /><glyph glyph-name="" unicode="&#x1a0;" d="M757 -24 q315 4 494 201 q179 197 182 544 q-2 173 -61 325 q-58 151 -151 222 l0 6 l60 0 q88 1 139 50 q51 49 52 133 l0 206 l-185 0 l0 -148 q1 -49 -25 -70 q-25 -21 -84 -21 q-112 3 -209 22 q-96 18 -212 21 q-315 -4 -494 -201 q-179 -198 -182 -545 q3 -347 182 -544 q179 -197 494 -201 l0 0 ZM757 173 q-208 3 -326 148 q-119 145 -121 400 q2 255 121 401 q118 145 326 148 q208 -3 326 -148 q118 -146 120 -401 q-2 -255 -120 -400 q-118 -145 -326 -148 l0 0 Z" /><glyph glyph-name="" unicode="&#x1ee2;" d="M757 -416 q56 1 93 39 q37 37 38 92 q-1 56 -38 93 q-37 37 -93 38 q-56 -1 -93 -38 q-37 -37 -38 -93 q1 -55 38 -92 q37 -38 93 -39 l0 0 ZM757 -24 q315 4 494 201 q179 197 182 544 q-2 173 -61 325 q-58 151 -151 222 l0 6 l60 0 q88 1 139 50 q51 49 52 133 l0 206 l-185 0 l0 -148 q1 -49 -25 -70 q-25 -21 -84 -21 q-112 3 -209 22 q-96 18 -212 21 q-315 -4 -494 -201 q-179 -198 -182 -545 q3 -347 182 -544 q179 -197 494 -201 l0 0 ZM757 173 q-208 3 -326 148 q-119 145 -121 400 q2 255 121 401 q118 145 326 148 q208 -3 326 -148 q118 -146 120 -401 q-2 -255 -120 -400 q-118 -145 -326 -148 l0 0 Z" /><glyph glyph-name="" unicode="&#x1ede;" d="M588 1779 q22 10 50 14 q27 5 52 5 q40 -1 65 -20 q25 -19 26 -50 q-1 -33 -26 -60 q-25 -27 -67 -42 l70 -87 q76 28 122 81 q46 53 47 118 q-1 81 -58 127 q-57 45 -152 46 q-36 0 -69 -6 q-33 -6 -60 -17 l0 -109 ZM757 -24 q315 4 494 201 q179 197 182 544 q-2 173 -61 325 q-58 151 -151 222 l0 6 l60 0 q88 1 139 50 q51 49 52 133 l0 206 l-185 0 l0 -148 q1 -49 -25 -70 q-25 -21 -84 -21 q-112 3 -209 22 q-96 18 -212 21 q-315 -4 -494 -201 q-179 -198 -182 -545 q3 -347 182 -544 q179 -197 494 -201 l0 0 ZM757 173 q-208 3 -326 148 q-119 145 -121 400 q2 255 121 401 q118 145 326 148 q208 -3 326 -148 q118 -146 120 -401 q-2 -255 -120 -400 q-118 -145 -326 -148 l0 0 Z" /><glyph glyph-name="" unicode="&#x1ee0;" d="M757 -24 q315 4 494 201 q179 197 182 544 q-2 173 -61 325 q-58 151 -151 222 l0 6 l60 0 q88 1 139 50 q51 49 52 133 l0 206 l-185 0 l0 -148 q1 -49 -25 -70 q-25 -21 -84 -21 q-112 3 -209 22 q-96 18 -212 21 q-315 -4 -494 -201 q-179 -198 -182 -545 q3 -347 182 -544 q179 -197 494 -201 l0 0 ZM757 173 q-208 3 -326 148 q-119 145 -121 400 q2 255 121 401 q118 145 326 148 q208 -3 326 -148 q118 -146 120 -401 q-2 -255 -120 -400 q-118 -145 -326 -148 l0 0 ZM890 1537 q85 1 136 70 q52 68 53 189 l-130 0 q0 -64 -16 -98 q-15 -34 -47 -34 q-51 9 -103 73 q-53 64 -153 73 q-88 -1 -139 -68 q-51 -67 -52 -189 l129 0 q1 61 18 95 q18 34 51 35 q54 -9 106 -73 q52 -64 147 -73 l0 0 Z" /><glyph glyph-name="" unicode="&#x1edc;" d="M670 1553 l176 0 l-231 303 l-225 0 l280 -303 ZM757 -24 q315 4 494 201 q179 197 182 544 q-2 173 -61 325 q-58 151 -151 222 l0 6 l60 0 q88 1 139 50 q51 49 52 133 l0 206 l-185 0 l0 -148 q1 -49 -25 -70 q-25 -21 -84 -21 q-112 3 -209 22 q-96 18 -212 21 q-315 -4 -494 -201 q-179 -198 -182 -545 q3 -347 182 -544 q179 -197 494 -201 l0 0 ZM757 173 q-208 3 -326 148 q-119 145 -121 400 q2 255 121 401 q118 145 326 148 q208 -3 326 -148 q118 -146 120 -401 q-2 -255 -120 -400 q-118 -145 -326 -148 l0 0 Z" /><glyph glyph-name="" unicode="&#x1eda;" d="M845 1551 l280 303 l-225 0 l-231 -303 l176 0 ZM757 -24 q315 4 494 201 q179 197 182 544 q-2 173 -61 325 q-58 151 -151 222 l0 6 l60 0 q88 1 139 50 q51 49 52 133 l0 206 l-185 0 l0 -148 q1 -49 -25 -70 q-25 -21 -84 -21 q-112 3 -209 22 q-96 18 -212 21 q-315 -4 -494 -201 q-179 -198 -182 -545 q3 -347 182 -544 q179 -197 494 -201 l0 0 ZM757 173 q-208 3 -326 148 q-119 145 -121 400 q2 255 121 401 q118 145 326 148 q208 -3 326 -148 q118 -146 120 -401 q-2 -255 -120 -400 q-118 -145 -326 -148 l0 0 Z" /><glyph glyph-name="" unicode="p" d="M133 1443 l0 -1443 l224 0 l0 493 l334 0 q216 3 348 132 q131 129 135 344 q-3 214 -133 342 q-129 129 -343 132 l-565 0 ZM357 1254 l282 0 q147 -1 226 -75 q79 -74 80 -211 q-1 -137 -80 -212 q-80 -74 -226 -75 l-282 0 l0 573 Z" /><glyph glyph-name="" unicode="&#x1e56;" d="M133 1443 l0 -1443 l224 0 l0 493 l334 0 q216 3 348 132 q131 129 135 344 q-3 214 -133 342 q-129 129 -343 132 l-565 0 ZM357 1254 l282 0 q147 -1 226 -75 q79 -74 80 -211 q-1 -137 -80 -212 q-80 -74 -226 -75 l-282 0 l0 573 ZM535 1576 q56 1 93 39 q37 37 38 92 q-1 56 -38 93 q-37 37 -93 38 q-56 -1 -93 -38 q-37 -37 -38 -93 q1 -55 38 -92 q37 -38 93 -39 l0 0 Z" /><glyph glyph-name="" unicode="&#x1e54;" d="M623 1551 l280 303 l-225 0 l-231 -303 l176 0 ZM133 1443 l0 -1443 l224 0 l0 493 l334 0 q216 3 348 132 q131 129 135 344 q-3 214 -133 342 q-129 129 -343 132 l-565 0 ZM357 1254 l282 0 q147 -1 226 -75 q79 -74 80 -211 q-1 -137 -80 -212 q-80 -74 -226 -75 l-282 0 l0 573 Z" /><glyph glyph-name="" unicode="q" d="M1370 -153 l-188 267 q121 95 186 249 q64 155 65 358 q-3 347 -182 545 q-179 197 -494 201 q-315 -4 -494 -201 q-179 -198 -182 -545 q3 -348 182 -545 q179 -197 494 -200 q70 0 134 11 q64 10 122 32 l123 -172 l234 0 ZM757 172 q-208 3 -326 149 q-119 145 -121 400 q2 256 121 401 q118 146 326 149 q208 -3 326 -149 q118 -145 120 -401 q0 -140 -40 -248 q-40 -107 -114 -176 l-102 138 l-227 0 l172 -243 q-63 -20 -135 -20 l0 0 Z" /><glyph glyph-name="" unicode="r" d="M357 1255 l316 0 q131 -1 204 -69 q74 -68 75 -190 q-1 -125 -72 -192 q-70 -67 -201 -68 l-322 0 l0 519 ZM357 555 l316 0 l0 0 l294 -555 l259 0 l-324 590 q133 46 206 155 q73 109 74 257 q-2 204 -130 321 q-127 118 -352 120 l-567 0 l0 -1443 l224 0 l0 555 Z" /><glyph glyph-name="" unicode="&#x158;" d="M357 1255 l316 0 q131 -1 204 -69 q74 -68 75 -190 q-1 -125 -72 -192 q-70 -67 -201 -68 l-322 0 l0 519 ZM357 555 l316 0 l0 0 l294 -555 l259 0 l-324 590 q133 46 206 155 q73 109 74 257 q-2 204 -130 321 q-127 118 -352 120 l-567 0 l0 -1443 l224 0 l0 555 ZM478 1547 l172 0 l286 306 l-188 0 l-182 -199 l-4 0 l-182 199 l-188 0 l286 -306 Z" /><glyph glyph-name="" unicode="&#x1e5e;" d="M357 1255 l316 0 q131 -1 204 -69 q74 -68 75 -190 q-1 -125 -72 -192 q-70 -67 -201 -68 l-322 0 l0 519 ZM357 555 l316 0 l0 0 l294 -555 l259 0 l-324 590 q133 46 206 155 q73 109 74 257 q-2 204 -130 321 q-127 118 -352 120 l-567 0 l0 -1443 l224 0 l0 555 ZM891 -223 l-654 0 l0 -119 l654 0 l0 119 Z" /><glyph glyph-name="" unicode="&#x1e5c;" d="M564 -416 q56 1 93 39 q37 37 38 92 q-1 56 -38 93 q-37 37 -93 38 q-56 -1 -93 -38 q-37 -37 -38 -93 q1 -55 38 -92 q37 -38 93 -39 l0 0 ZM357 1255 l316 0 q131 -1 204 -69 q74 -68 75 -190 q-1 -125 -72 -192 q-70 -67 -201 -68 l-322 0 l0 519 ZM357 555 l316 0 l0 0 l294 -555 l259 0 l-324 590 q133 46 206 155 q73 109 74 257 q-2 204 -130 321 q-127 118 -352 120 l-567 0 l0 -1443 l224 0 l0 555 ZM891 1755 l-654 0 l0 -119 l654 0 l0 119 Z" /><glyph glyph-name="" unicode="&#x210;" d="M651 1551 l169 0 l-231 303 l-217 0 l279 -303 ZM311 1551 l168 0 l-231 303 l-217 0 l280 -303 ZM357 1255 l316 0 q131 -1 204 -69 q74 -68 75 -190 q-1 -125 -72 -192 q-70 -67 -201 -68 l-322 0 l0 519 ZM357 555 l316 0 l0 0 l294 -555 l259 0 l-324 590 q133 46 206 155 q73 109 74 257 q-2 204 -130 321 q-127 118 -352 120 l-567 0 l0 -1443 l224 0 l0 555 Z" /><glyph glyph-name="" unicode="&#x212;" d="M357 1255 l316 0 q131 -1 204 -69 q74 -68 75 -190 q-1 -125 -72 -192 q-70 -67 -201 -68 l-322 0 l0 519 ZM357 555 l316 0 l0 0 l294 -555 l259 0 l-324 590 q133 46 206 155 q73 109 74 257 q-2 204 -130 321 q-127 118 -352 120 l-567 0 l0 -1443 l224 0 l0 555 ZM239 1547 l140 0 q2 81 52 134 q51 52 133 54 q82 -2 133 -54 q50 -53 52 -134 l140 0 q-3 135 -90 219 q-87 84 -235 87 q-148 -3 -235 -87 q-87 -84 -90 -219 l0 0 Z" /><glyph glyph-name="" unicode="&#x154;" d="M652 1551 l280 303 l-225 0 l-231 -303 l176 0 ZM357 1255 l316 0 q131 -1 204 -69 q74 -68 75 -190 q-1 -125 -72 -192 q-70 -67 -201 -68 l-322 0 l0 519 ZM357 555 l316 0 l0 0 l294 -555 l259 0 l-324 590 q133 46 206 155 q73 109 74 257 q-2 204 -130 321 q-127 118 -352 120 l-567 0 l0 -1443 l224 0 l0 555 Z" /><glyph glyph-name="" unicode="&#x1e5a;" d="M564 -416 q56 1 93 39 q37 37 38 92 q-1 56 -38 93 q-37 37 -93 38 q-56 -1 -93 -38 q-37 -37 -38 -93 q1 -55 38 -92 q37 -38 93 -39 l0 0 ZM357 1255 l316 0 q131 -1 204 -69 q74 -68 75 -190 q-1 -125 -72 -192 q-70 -67 -201 -68 l-322 0 l0 519 ZM357 555 l316 0 l0 0 l294 -555 l259 0 l-324 590 q133 46 206 155 q73 109 74 257 q-2 204 -130 321 q-127 118 -352 120 l-567 0 l0 -1443 l224 0 l0 555 Z" /><glyph glyph-name="" unicode="&#x1e58;" d="M564 1576 q56 1 93 39 q37 37 38 92 q-1 56 -38 93 q-37 37 -93 38 q-56 -1 -93 -38 q-37 -37 -38 -93 q1 -55 38 -92 q37 -38 93 -39 l0 0 ZM357 1255 l316 0 q131 -1 204 -69 q74 -68 75 -190 q-1 -125 -72 -192 q-70 -67 -201 -68 l-322 0 l0 519 ZM357 555 l316 0 l0 0 l294 -555 l259 0 l-324 590 q133 46 206 155 q73 109 74 257 q-2 204 -130 321 q-127 118 -352 120 l-567 0 l0 -1443 l224 0 l0 555 Z" /><glyph glyph-name="" unicode="&#x156;" d="M357 1255 l316 0 q131 -1 204 -69 q74 -68 75 -190 q-1 -125 -72 -192 q-70 -67 -201 -68 l-322 0 l0 519 ZM357 555 l316 0 l0 0 l294 -555 l259 0 l-324 590 q133 46 206 155 q73 109 74 257 q-2 204 -130 321 q-127 118 -352 120 l-567 0 l0 -1443 l224 0 l0 555 ZM547 -526 l133 360 l-190 0 l-102 -360 l159 0 Z" /><glyph glyph-name="" unicode="s" d="M69 402 q14 -198 160 -311 q147 -113 390 -115 q259 2 407 118 q147 116 150 321 q2 157 -98 253 q-101 96 -321 147 l-159 39 q-138 34 -201 83 q-62 49 -61 125 q2 98 81 156 q80 59 212 60 q132 -1 213 -61 q82 -61 93 -170 l218 0 q-9 190 -149 303 q-140 114 -372 117 q-235 -3 -378 -117 q-143 -113 -147 -303 q-1 -150 95 -246 q95 -96 293 -143 l187 -45 q139 -34 203 -88 q64 -54 63 -137 q-2 -99 -88 -160 q-86 -61 -225 -63 q-145 1 -238 65 q-93 63 -107 172 l-221 0 Z" /><glyph glyph-name="" unicode="&#x160;" d="M69 402 q14 -198 160 -311 q147 -113 390 -115 q259 2 407 118 q147 116 150 321 q2 157 -98 253 q-101 96 -321 147 l-159 39 q-138 34 -201 83 q-62 49 -61 125 q2 98 81 156 q80 59 212 60 q132 -1 213 -61 q82 -61 93 -170 l218 0 q-9 190 -149 303 q-140 114 -372 117 q-235 -3 -378 -117 q-143 -113 -147 -303 q-1 -150 95 -246 q95 -96 293 -143 l187 -45 q139 -34 203 -88 q64 -54 63 -137 q-2 -99 -88 -160 q-86 -61 -225 -63 q-145 1 -238 65 q-93 63 -107 172 l-221 0 ZM547 1547 l172 0 l286 306 l-188 0 l-182 -199 l-4 0 l-182 199 l-188 0 l286 -306 Z" /><glyph glyph-name="" unicode="&#x15e;" d="M598 854 q-138 34 -201 83 q-62 49 -61 125 q2 98 81 156 q80 59 212 60 q132 -1 213 -61 q82 -61 93 -170 l218 0 q-9 190 -149 303 q-140 114 -372 117 q-235 -3 -378 -117 q-143 -113 -147 -303 q-1 -150 95 -246 q95 -96 293 -143 l187 -45 q139 -34 203 -88 q64 -54 63 -137 q-2 -99 -88 -160 q-86 -61 -225 -63 q-145 1 -238 65 q-93 63 -107 172 l-221 0 q12 -186 143 -297 q131 -112 350 -127 l-50 -124 l0 -83 l55 0 q75 0 108 -15 q34 -15 33 -48 q0 -66 -115 -66 q-33 0 -67 4 q-34 4 -51 10 l0 -105 q31 -10 67 -14 q36 -4 78 -3 q103 2 164 50 q61 49 62 130 q0 75 -51 115 q-51 39 -149 39 l43 110 q228 18 356 133 q129 114 131 304 q2 157 -98 253 q-101 96 -321 147 l-159 39 Z" /><glyph glyph-name="" unicode="&#x1e60;" d="M633 1576 q56 1 93 39 q37 37 38 92 q-1 56 -38 93 q-37 37 -93 38 q-56 -1 -93 -38 q-37 -37 -38 -93 q1 -55 38 -92 q37 -38 93 -39 l0 0 ZM69 402 q14 -198 160 -311 q147 -113 390 -115 q259 2 407 118 q147 116 150 321 q2 157 -98 253 q-101 96 -321 147 l-159 39 q-138 34 -201 83 q-62 49 -61 125 q2 98 81 156 q80 59 212 60 q132 -1 213 -61 q82 -61 93 -170 l218 0 q-9 190 -149 303 q-140 114 -372 117 q-235 -3 -378 -117 q-143 -113 -147 -303 q-1 -150 95 -246 q95 -96 293 -143 l187 -45 q139 -34 203 -88 q64 -54 63 -137 q-2 -99 -88 -160 q-86 -61 -225 -63 q-145 1 -238 65 q-93 63 -107 172 l-221 0 Z" /><glyph glyph-name="" unicode="&#x1e62;" d="M620 -416 q56 1 93 39 q37 37 38 92 q-1 56 -38 93 q-37 37 -93 38 q-56 -1 -93 -38 q-37 -37 -38 -93 q1 -55 38 -92 q37 -38 93 -39 l0 0 ZM69 402 q14 -198 160 -311 q147 -113 390 -115 q259 2 407 118 q147 116 150 321 q2 157 -98 253 q-101 96 -321 147 l-159 39 q-138 34 -201 83 q-62 49 -61 125 q2 98 81 156 q80 59 212 60 q132 -1 213 -61 q82 -61 93 -170 l218 0 q-9 190 -149 303 q-140 114 -372 117 q-235 -3 -378 -117 q-143 -113 -147 -303 q-1 -150 95 -246 q95 -96 293 -143 l187 -45 q139 -34 203 -88 q64 -54 63 -137 q-2 -99 -88 -160 q-86 -61 -225 -63 q-145 1 -238 65 q-93 63 -107 172 l-221 0 Z" /><glyph glyph-name="" unicode="&#x218;" d="M69 402 q14 -198 160 -311 q147 -113 390 -115 q259 2 407 118 q147 116 150 321 q2 157 -98 253 q-101 96 -321 147 l-159 39 q-138 34 -201 83 q-62 49 -61 125 q2 98 81 156 q80 59 212 60 q132 -1 213 -61 q82 -61 93 -170 l218 0 q-9 190 -149 303 q-140 114 -372 117 q-235 -3 -378 -117 q-143 -113 -147 -303 q-1 -150 95 -246 q95 -96 293 -143 l187 -45 q139 -34 203 -88 q64 -54 63 -137 q-2 -99 -88 -160 q-86 -61 -225 -63 q-145 1 -238 65 q-93 63 -107 172 l-221 0 ZM603 -526 l133 360 l-190 0 l-102 -360 l159 0 Z" /><glyph glyph-name="" unicode="&#x1e68;" d="M620 -416 q56 1 93 39 q37 37 38 92 q-1 56 -38 93 q-37 37 -93 38 q-56 -1 -93 -38 q-37 -37 -38 -93 q1 -55 38 -92 q37 -38 93 -39 l0 0 ZM69 402 q14 -198 160 -311 q147 -113 390 -115 q259 2 407 118 q147 116 150 321 q2 157 -98 253 q-101 96 -321 147 l-159 39 q-138 34 -201 83 q-62 49 -61 125 q2 98 81 156 q80 59 212 60 q132 -1 213 -61 q82 -61 93 -170 l218 0 q-9 190 -149 303 q-140 114 -372 117 q-235 -3 -378 -117 q-143 -113 -147 -303 q-1 -150 95 -246 q95 -96 293 -143 l187 -45 q139 -34 203 -88 q64 -54 63 -137 q-2 -99 -88 -160 q-86 -61 -225 -63 q-145 1 -238 65 q-93 63 -107 172 l-221 0 ZM633 1576 q56 1 93 39 q37 37 38 92 q-1 56 -38 93 q-37 37 -93 38 q-56 -1 -93 -38 q-37 -37 -38 -93 q1 -55 38 -92 q37 -38 93 -39 l0 0 Z" /><glyph glyph-name="" unicode="&#x1e66;" d="M542 1568 l182 0 l265 238 l-201 0 l-149 -140 l-12 0 l-149 140 l-201 0 l265 -238 ZM633 1840 q51 1 84 35 q33 33 34 83 q-1 50 -34 82 q-33 33 -84 34 q-51 -1 -84 -34 q-33 -32 -34 -82 q1 -50 34 -83 q33 -34 84 -35 l0 0 ZM69 402 q14 -198 160 -311 q147 -113 390 -115 q259 2 407 118 q147 116 150 321 q2 157 -98 253 q-101 96 -321 147 l-159 39 q-138 34 -201 83 q-62 49 -61 125 q2 98 81 156 q80 59 212 60 q132 -1 213 -61 q82 -61 93 -170 l218 0 q-9 190 -149 303 q-140 114 -372 117 q-235 -3 -378 -117 q-143 -113 -147 -303 q-1 -150 95 -246 q95 -96 293 -143 l187 -45 q139 -34 203 -88 q64 -54 63 -137 q-2 -99 -88 -160 q-86 -61 -225 -63 q-145 1 -238 65 q-93 63 -107 172 l-221 0 Z" /><glyph glyph-name="" unicode="&#x15c;" d="M69 402 q14 -198 160 -311 q147 -113 390 -115 q259 2 407 118 q147 116 150 321 q2 157 -98 253 q-101 96 -321 147 l-159 39 q-138 34 -201 83 q-62 49 -61 125 q2 98 81 156 q80 59 212 60 q132 -1 213 -61 q82 -61 93 -170 l218 0 q-9 190 -149 303 q-140 114 -372 117 q-235 -3 -378 -117 q-143 -113 -147 -303 q-1 -150 95 -246 q95 -96 293 -143 l187 -45 q139 -34 203 -88 q64 -54 63 -137 q-2 -99 -88 -160 q-86 -61 -225 -63 q-145 1 -238 65 q-93 63 -107 172 l-221 0 ZM547 1853 l-286 -306 l188 0 l182 200 l4 0 l182 -200 l188 0 l-286 306 l-172 0 Z" /><glyph glyph-name="" unicode="&#x1e64;" d="M830 1551 l280 303 l-225 0 l-231 -303 l176 0 ZM438 1588 q56 1 93 39 q37 37 38 92 q-1 56 -38 93 q-37 37 -93 38 q-56 -1 -93 -38 q-37 -37 -38 -93 q1 -55 38 -92 q37 -38 93 -39 l0 0 ZM69 402 q14 -198 160 -311 q147 -113 390 -115 q259 2 407 118 q147 116 150 321 q2 157 -98 253 q-101 96 -321 147 l-159 39 q-138 34 -201 83 q-62 49 -61 125 q2 98 81 156 q80 59 212 60 q132 -1 213 -61 q82 -61 93 -170 l218 0 q-9 190 -149 303 q-140 114 -372 117 q-235 -3 -378 -117 q-143 -113 -147 -303 q-1 -150 95 -246 q95 -96 293 -143 l187 -45 q139 -34 203 -88 q64 -54 63 -137 q-2 -99 -88 -160 q-86 -61 -225 -63 q-145 1 -238 65 q-93 63 -107 172 l-221 0 Z" /><glyph glyph-name="" unicode="&#x15a;" d="M721 1551 l280 303 l-225 0 l-231 -303 l176 0 ZM69 402 q14 -198 160 -311 q147 -113 390 -115 q259 2 407 118 q147 116 150 321 q2 157 -98 253 q-101 96 -321 147 l-159 39 q-138 34 -201 83 q-62 49 -61 125 q2 98 81 156 q80 59 212 60 q132 -1 213 -61 q82 -61 93 -170 l218 0 q-9 190 -149 303 q-140 114 -372 117 q-235 -3 -378 -117 q-143 -113 -147 -303 q-1 -150 95 -246 q95 -96 293 -143 l187 -45 q139 -34 203 -88 q64 -54 63 -137 q-2 -99 -88 -160 q-86 -61 -225 -63 q-145 1 -238 65 q-93 63 -107 172 l-221 0 Z" /><glyph glyph-name="" unicode="t" d="M723 0 l0 1250 l449 0 l0 193 l-1123 0 l0 -193 l450 0 l0 -1250 l224 0 Z" /><glyph glyph-name="" unicode="&#x1e70;" d="M723 0 l0 1250 l449 0 l0 193 l-1123 0 l0 -193 l450 0 l0 -1250 l224 0 ZM525 -164 l-286 -306 l188 0 l182 200 l4 0 l182 -200 l188 0 l-286 306 l-172 0 Z" /><glyph glyph-name="" unicode="&#x1e6c;" d="M611 -416 q56 1 93 39 q37 37 38 92 q-1 56 -38 93 q-37 37 -93 38 q-56 -1 -93 -38 q-37 -37 -38 -93 q1 -55 38 -92 q37 -38 93 -39 l0 0 ZM723 0 l0 1250 l449 0 l0 193 l-1123 0 l0 -193 l450 0 l0 -1250 l224 0 Z" /><glyph glyph-name="" unicode="&#x21a;" d="M594 -526 l133 360 l-190 0 l-102 -360 l159 0 ZM723 0 l0 1250 l449 0 l0 193 l-1123 0 l0 -193 l450 0 l0 -1250 l224 0 Z" /><glyph glyph-name="" unicode="&#x1e6a;" d="M611 1576 q56 1 93 39 q37 37 38 92 q-1 56 -38 93 q-37 37 -93 38 q-56 -1 -93 -38 q-37 -37 -38 -93 q1 -55 38 -92 q37 -38 93 -39 l0 0 ZM723 0 l0 1250 l449 0 l0 193 l-1123 0 l0 -193 l450 0 l0 -1250 l224 0 Z" /><glyph glyph-name="" unicode="&#x162;" d="M723 9 l0 1241 l449 0 l0 193 l-1123 0 l0 -193 l450 0 l0 -1250 l98 0 l-59 -146 l0 -83 l55 0 q75 0 108 -15 q34 -15 33 -48 q0 -66 -115 -66 q-33 0 -67 4 q-34 4 -51 10 l0 -105 q31 -10 67 -14 q36 -4 78 -3 q103 2 164 50 q61 49 62 130 q0 75 -51 115 q-51 39 -149 39 l51 132 l0 9 Z" /><glyph glyph-name="" unicode="&#x1e6e;" d="M938 -223 l-654 0 l0 -119 l654 0 l0 119 ZM723 0 l0 1250 l449 0 l0 193 l-1123 0 l0 -193 l450 0 l0 -1250 l224 0 Z" /><glyph glyph-name="" unicode="&#x164;" d="M525 1547 l172 0 l286 306 l-188 0 l-182 -199 l-4 0 l-182 199 l-188 0 l286 -306 ZM723 0 l0 1250 l449 0 l0 193 l-1123 0 l0 -193 l450 0 l0 -1250 l224 0 Z" /><glyph glyph-name="" unicode="&#x166;" d="M1176 1250 l0 193 l-1123 0 l0 -193 l450 0 l0 -454 l-278 0 l0 -168 l278 0 l0 -628 l224 0 l0 628 l316 0 l0 168 l-316 0 l0 454 l449 0 Z" /><glyph glyph-name="" unicode="u" d="M357 1443 l-224 0 l0 -936 q3 -237 156 -382 q154 -145 428 -149 q274 4 428 149 q153 145 156 382 l0 936 l-223 0 l0 -917 q-1 -157 -94 -253 q-93 -95 -267 -98 q-173 3 -266 98 q-93 96 -94 253 l0 917 Z" /><glyph glyph-name="" unicode="ù" d="M630 1553 l176 0 l-231 303 l-225 0 l280 -303 ZM357 1443 l-224 0 l0 -936 q3 -237 156 -382 q154 -145 428 -149 q274 4 428 149 q153 145 156 382 l0 936 l-223 0 l0 -917 q-1 -157 -94 -253 q-93 -95 -267 -98 q-173 3 -266 98 q-93 96 -94 253 l0 917 Z" /><glyph glyph-name="" unicode="&#x214;" d="M804 1551 l169 0 l-231 303 l-217 0 l279 -303 ZM464 1551 l168 0 l-231 303 l-217 0 l280 -303 ZM357 1443 l-224 0 l0 -936 q3 -237 156 -382 q154 -145 428 -149 q274 4 428 149 q153 145 156 382 l0 936 l-223 0 l0 -917 q-1 -157 -94 -253 q-93 -95 -267 -98 q-173 3 -266 98 q-93 96 -94 253 l0 917 Z" /><glyph glyph-name="" unicode="ú" d="M805 1551 l280 303 l-225 0 l-231 -303 l176 0 ZM357 1443 l-224 0 l0 -936 q3 -237 156 -382 q154 -145 428 -149 q274 4 428 149 q153 145 156 382 l0 936 l-223 0 l0 -917 q-1 -157 -94 -253 q-93 -95 -267 -98 q-173 3 -266 98 q-93 96 -94 253 l0 917 Z" /><glyph glyph-name="" unicode="&#x170;" d="M357 1443 l-224 0 l0 -936 q3 -237 156 -382 q154 -145 428 -149 q274 4 428 149 q153 145 156 382 l0 936 l-223 0 l0 -917 q-1 -157 -94 -253 q-93 -95 -267 -98 q-173 3 -266 98 q-93 96 -94 253 l0 917 ZM970 1551 l280 303 l-217 0 l-231 -303 l168 0 ZM630 1551 l279 303 l-217 0 l-231 -303 l169 0 Z" /><glyph glyph-name="" unicode="û" d="M631 1853 l-286 -306 l188 0 l182 200 l4 0 l182 -200 l188 0 l-286 306 l-172 0 ZM357 1443 l-224 0 l0 -936 q3 -237 156 -382 q154 -145 428 -149 q274 4 428 149 q153 145 156 382 l0 936 l-223 0 l0 -917 q-1 -157 -94 -253 q-93 -95 -267 -98 q-173 3 -266 98 q-93 96 -94 253 l0 917 Z" /><glyph glyph-name="" unicode="&#x1d3;" d="M631 1547 l172 0 l286 306 l-188 0 l-182 -199 l-4 0 l-182 199 l-188 0 l286 -306 ZM357 1443 l-224 0 l0 -936 q3 -237 156 -382 q154 -145 428 -149 q274 4 428 149 q153 145 156 382 l0 936 l-223 0 l0 -917 q-1 -157 -94 -253 q-93 -95 -267 -98 q-173 3 -266 98 q-93 96 -94 253 l0 917 Z" /><glyph glyph-name="" unicode="&#x1e76;" d="M357 1443 l-224 0 l0 -936 q3 -237 156 -382 q154 -145 428 -149 q274 4 428 149 q153 145 156 382 l0 936 l-223 0 l0 -917 q-1 -157 -94 -253 q-93 -95 -267 -98 q-173 3 -266 98 q-93 96 -94 253 l0 917 ZM631 -164 l-286 -306 l188 0 l182 200 l4 0 l182 -200 l188 0 l-286 306 l-172 0 Z" /><glyph glyph-name="" unicode="ü" d="M516 1576 q51 1 85 35 q34 34 35 84 q-1 51 -35 84 q-34 34 -85 35 q-52 -1 -86 -35 q-34 -33 -35 -84 q1 -50 35 -84 q34 -34 86 -35 l0 0 ZM919 1576 q51 1 85 35 q34 34 35 84 q-1 51 -35 84 q-34 34 -85 35 q-52 -1 -86 -35 q-34 -33 -35 -84 q1 -50 35 -84 q34 -34 86 -35 l0 0 ZM357 1443 l-224 0 l0 -936 q3 -237 156 -382 q154 -145 428 -149 q274 4 428 149 q153 145 156 382 l0 936 l-223 0 l0 -917 q-1 -157 -94 -253 q-93 -95 -267 -98 q-173 3 -266 98 q-93 96 -94 253 l0 917 Z" /><glyph glyph-name="" unicode="&#x1db;" d="M801 1863 l-188 218 l-212 0 l237 -218 l163 0 ZM525 1582 q46 1 77 32 q30 30 31 76 q-1 45 -31 76 q-31 31 -77 32 q-48 -1 -78 -32 q-31 -31 -32 -76 q1 -46 32 -76 q30 -31 78 -32 l0 0 ZM909 1582 q48 1 78 32 q31 30 32 76 q-1 45 -32 76 q-30 31 -78 32 q-46 -1 -76 -32 q-31 -31 -32 -76 q1 -46 32 -76 q30 -31 76 -32 l0 0 ZM357 1443 l-224 0 l0 -936 q3 -237 156 -382 q154 -145 428 -149 q274 4 428 149 q153 145 156 382 l0 936 l-223 0 l0 -917 q-1 -157 -94 -253 q-93 -95 -267 -98 q-173 3 -266 98 q-93 96 -94 253 l0 917 Z" /><glyph glyph-name="" unicode="&#x1d7;" d="M633 1863 l163 0 l237 218 l-212 0 l-188 -218 ZM525 1582 q46 1 77 32 q30 30 31 76 q-1 45 -31 76 q-31 31 -77 32 q-48 -1 -78 -32 q-31 -31 -32 -76 q1 -46 32 -76 q30 -31 78 -32 l0 0 ZM909 1582 q48 1 78 32 q31 30 32 76 q-1 45 -32 76 q-30 31 -78 32 q-46 -1 -76 -32 q-31 -31 -32 -76 q1 -46 32 -76 q30 -31 76 -32 l0 0 ZM357 1443 l-224 0 l0 -936 q3 -237 156 -382 q154 -145 428 -149 q274 4 428 149 q153 145 156 382 l0 936 l-223 0 l0 -917 q-1 -157 -94 -253 q-93 -95 -267 -98 q-173 3 -266 98 q-93 96 -94 253 l0 917 Z" /><glyph glyph-name="" unicode="&#x1d5;" d="M357 1443 l-224 0 l0 -936 q3 -237 156 -382 q154 -145 428 -149 q274 4 428 149 q153 145 156 382 l0 936 l-223 0 l0 -917 q-1 -157 -94 -253 q-93 -95 -267 -98 q-173 3 -266 98 q-93 96 -94 253 l0 917 ZM525 1798 q-48 -1 -78 -32 q-31 -31 -32 -76 q1 -46 32 -76 q30 -31 78 -32 q46 1 77 32 q30 30 31 76 q-1 45 -31 76 q-31 31 -77 32 l0 0 ZM390 2042 l0 -119 l654 0 l0 119 l-654 0 ZM909 1798 q-46 -1 -76 -32 q-31 -31 -32 -76 q1 -46 32 -76 q30 -31 76 -32 q48 1 78 32 q31 30 32 76 q-1 45 -32 76 q-30 31 -78 32 l0 0 Z" /><glyph glyph-name="" unicode="&#x1d9;" d="M628 1863 l178 0 l263 222 l-198 0 l-146 -125 l-16 0 l-146 125 l-198 0 l263 -222 ZM525 1798 q-48 -1 -78 -32 q-31 -31 -32 -76 q1 -46 32 -76 q30 -31 78 -32 q46 1 77 32 q30 30 31 76 q-1 45 -31 76 q-31 31 -77 32 l0 0 ZM909 1798 q-46 -1 -76 -32 q-31 -31 -32 -76 q1 -46 32 -76 q30 -31 76 -32 q48 1 78 32 q31 30 32 76 q-1 45 -32 76 q-30 31 -78 32 l0 0 ZM357 1443 l-224 0 l0 -936 q3 -237 156 -382 q154 -145 428 -149 q274 4 428 149 q153 145 156 382 l0 936 l-223 0 l0 -917 q-1 -157 -94 -253 q-93 -95 -267 -98 q-173 3 -266 98 q-93 96 -94 253 l0 917 Z" /><glyph glyph-name="" unicode="&#x1e72;" d="M357 1443 l-224 0 l0 -936 q3 -237 156 -382 q154 -145 428 -149 q274 4 428 149 q153 145 156 382 l0 936 l-223 0 l0 -917 q-1 -157 -94 -253 q-93 -95 -267 -98 q-173 3 -266 98 q-93 96 -94 253 l0 917 ZM516 -401 q51 1 85 35 q34 34 35 84 q-1 51 -35 84 q-34 34 -85 35 q-52 -1 -86 -35 q-34 -33 -35 -84 q1 -50 35 -84 q34 -34 86 -35 l0 0 ZM919 -401 q51 1 85 35 q34 34 35 84 q-1 51 -35 84 q-34 34 -85 35 q-52 -1 -86 -35 q-34 -33 -35 -84 q1 -50 35 -84 q34 -34 86 -35 l0 0 Z" /><glyph glyph-name="" unicode="&#x1e74;" d="M850 -422 q85 1 136 70 q52 68 53 189 l-130 0 q0 -64 -16 -98 q-15 -34 -47 -34 q-51 9 -103 73 q-53 64 -153 73 q-88 -1 -139 -68 q-51 -67 -52 -189 l129 0 q1 61 18 95 q18 34 51 35 q54 -9 106 -73 q52 -64 147 -73 l0 0 ZM357 1443 l-224 0 l0 -936 q3 -237 156 -382 q154 -145 428 -149 q274 4 428 149 q153 145 156 382 l0 936 l-223 0 l0 -917 q-1 -157 -94 -253 q-93 -95 -267 -98 q-173 3 -266 98 q-93 96 -94 253 l0 917 Z" /><glyph glyph-name="" unicode="&#x1ee6;" d="M357 1443 l-224 0 l0 -936 q3 -237 156 -382 q154 -145 428 -149 q274 4 428 149 q153 145 156 382 l0 936 l-223 0 l0 -917 q-1 -157 -94 -253 q-93 -95 -267 -98 q-173 3 -266 98 q-93 96 -94 253 l0 917 ZM548 1779 q22 10 50 14 q27 5 52 5 q40 -1 65 -20 q25 -19 26 -50 q-1 -33 -26 -60 q-25 -27 -67 -42 l70 -87 q76 28 122 81 q46 53 47 118 q-1 81 -58 127 q-57 45 -152 46 q-36 0 -69 -6 q-33 -6 -60 -17 l0 -109 Z" /><glyph glyph-name="" unicode="&#x16c;" d="M357 1443 l-224 0 l0 -936 q3 -237 156 -382 q154 -145 428 -149 q274 4 428 149 q153 145 156 382 l0 936 l-223 0 l0 -917 q-1 -157 -94 -253 q-93 -95 -267 -98 q-173 3 -266 98 q-93 96 -94 253 l0 917 ZM392 1853 q3 -135 90 -219 q87 -84 235 -87 q148 3 235 87 q87 84 90 219 l-140 0 q-2 -81 -52 -134 q-51 -52 -133 -54 q-82 2 -133 54 q-50 53 -52 134 l-140 0 Z" /><glyph glyph-name="" unicode="&#x216;" d="M357 1443 l-224 0 l0 -936 q3 -237 156 -382 q154 -145 428 -149 q274 4 428 149 q153 145 156 382 l0 936 l-223 0 l0 -917 q-1 -157 -94 -253 q-93 -95 -267 -98 q-173 3 -266 98 q-93 96 -94 253 l0 917 ZM392 1547 l140 0 q2 81 52 134 q51 52 133 54 q82 -2 133 -54 q50 -53 52 -134 l140 0 q-3 135 -90 219 q-87 84 -235 87 q-148 -3 -235 -87 q-87 -84 -90 -219 l0 0 Z" /><glyph glyph-name="" unicode="&#x1e78;" d="M357 1443 l-224 0 l0 -936 q3 -237 156 -382 q154 -145 428 -149 q274 4 428 149 q153 145 156 382 l0 936 l-223 0 l0 -917 q-1 -157 -94 -253 q-93 -95 -267 -98 q-173 3 -266 98 q-93 96 -94 253 l0 917 ZM847 1535 q85 1 137 70 q51 69 52 190 l-130 0 q0 -65 -16 -99 q-15 -34 -47 -34 q-51 9 -104 74 q-53 64 -153 73 q-89 -1 -139 -68 q-51 -68 -52 -190 l130 0 q0 62 18 96 q17 35 51 35 q54 -9 106 -73 q52 -65 147 -74 l0 0 ZM635 1863 l163 0 l236 218 l-211 0 l-188 -218 Z" /><glyph glyph-name="" unicode="&#x1ee4;" d="M717 -416 q56 1 93 39 q37 37 38 92 q-1 56 -38 93 q-37 37 -93 38 q-56 -1 -93 -38 q-37 -37 -38 -93 q1 -55 38 -92 q37 -38 93 -39 l0 0 ZM357 1443 l-224 0 l0 -936 q3 -237 156 -382 q154 -145 428 -149 q274 4 428 149 q153 145 156 382 l0 936 l-223 0 l0 -917 q-1 -157 -94 -253 q-93 -95 -267 -98 q-173 3 -266 98 q-93 96 -94 253 l0 917 Z" /><glyph glyph-name="" unicode="&#x168;" d="M357 1443 l-224 0 l0 -936 q3 -237 156 -382 q154 -145 428 -149 q274 4 428 149 q153 145 156 382 l0 936 l-223 0 l0 -917 q-1 -157 -94 -253 q-93 -95 -267 -98 q-173 3 -266 98 q-93 96 -94 253 l0 917 ZM850 1537 q85 1 136 70 q52 68 53 189 l-130 0 q0 -64 -16 -98 q-15 -34 -47 -34 q-51 9 -103 73 q-53 64 -153 73 q-88 -1 -139 -68 q-51 -67 -52 -189 l129 0 q1 61 18 95 q18 34 51 35 q54 -9 106 -73 q52 -64 147 -73 l0 0 Z" /><glyph glyph-name="" unicode="&#x16a;" d="M357 1443 l-224 0 l0 -936 q3 -237 156 -382 q154 -145 428 -149 q274 4 428 149 q153 145 156 382 l0 936 l-223 0 l0 -917 q-1 -157 -94 -253 q-93 -95 -267 -98 q-173 3 -266 98 q-93 96 -94 253 l0 917 ZM1044 1755 l-654 0 l0 -119 l654 0 l0 119 Z" /><glyph glyph-name="" unicode="&#x1e7a;" d="M1044 1636 l0 119 l-654 0 l0 -119 l654 0 ZM525 1887 q46 1 77 32 q30 31 31 76 q-1 46 -31 77 q-31 30 -77 31 q-48 -1 -78 -31 q-31 -31 -32 -77 q1 -45 32 -76 q30 -31 78 -32 l0 0 ZM909 1887 q48 1 78 32 q31 31 32 76 q-1 46 -32 77 q-30 30 -78 31 q-46 -1 -76 -31 q-31 -31 -32 -77 q1 -45 32 -76 q30 -31 76 -32 l0 0 ZM357 1443 l-224 0 l0 -936 q3 -237 156 -382 q154 -145 428 -149 q274 4 428 149 q153 145 156 382 l0 936 l-223 0 l0 -917 q-1 -157 -94 -253 q-93 -95 -267 -98 q-173 3 -266 98 q-93 96 -94 253 l0 917 Z" /><glyph glyph-name="" unicode="&#x16e;" d="M717 1509 q86 2 143 59 q58 58 60 143 q-2 85 -60 142 q-57 57 -143 59 q-86 -2 -143 -59 q-58 -57 -60 -142 q2 -85 60 -143 q57 -57 143 -59 l0 0 ZM717 1602 q-46 1 -77 32 q-32 31 -33 77 q1 46 33 77 q31 31 77 32 q46 -1 78 -32 q31 -31 32 -77 q-1 -46 -32 -77 q-32 -31 -78 -32 l0 0 ZM357 1443 l-224 0 l0 -936 q3 -237 156 -382 q154 -145 428 -149 q274 4 428 149 q153 145 156 382 l0 936 l-223 0 l0 -917 q-1 -157 -94 -253 q-93 -95 -267 -98 q-173 3 -266 98 q-93 96 -94 253 l0 917 Z" /><glyph glyph-name="" unicode="&#x172;" d="M966 -443 q35 0 64 5 q29 4 53 13 l0 144 q-10 -3 -28 -4 q-18 -2 -39 -2 q-52 1 -83 27 q-31 27 -32 72 q0 53 36 108 q36 54 114 116 q130 104 190 218 q61 114 60 253 l0 936 l-223 0 l0 -917 q-2 -163 -98 -256 q-95 -93 -263 -95 q-167 2 -262 95 q-96 93 -98 256 l0 917 l-224 0 l0 -936 q4 -244 160 -386 q157 -142 424 -145 q31 0 67 6 q36 5 63 14 l0 -4 q-66 -50 -100 -107 q-35 -57 -35 -119 q2 -94 71 -151 q69 -56 183 -58 l0 0 Z" /><glyph glyph-name="" unicode="&#x1af;" d="M717 -24 q268 3 424 145 q157 142 160 386 l0 784 l67 0 q99 1 155 52 q55 51 56 144 l0 207 l-185 0 l0 -167 q0 -43 -21 -63 q-22 -21 -66 -21 l-229 0 l0 -917 q-2 -164 -98 -256 q-95 -93 -263 -95 q-167 2 -262 95 q-96 93 -98 256 l0 917 l-224 0 l0 -936 q4 -244 160 -386 q157 -142 424 -145 l0 0 Z" /><glyph glyph-name="" unicode="&#x1eea;" d="M630 1553 l176 0 l-231 303 l-225 0 l280 -303 ZM717 -24 q268 3 424 145 q157 142 160 386 l0 784 l67 0 q99 1 155 52 q55 51 56 144 l0 207 l-185 0 l0 -167 q0 -43 -21 -63 q-22 -21 -66 -21 l-229 0 l0 -917 q-2 -164 -98 -256 q-95 -93 -263 -95 q-167 2 -262 95 q-96 93 -98 256 l0 917 l-224 0 l0 -936 q4 -244 160 -386 q157 -142 424 -145 l0 0 Z" /><glyph glyph-name="" unicode="&#x1ee8;" d="M805 1551 l280 303 l-225 0 l-231 -303 l176 0 ZM717 -24 q268 3 424 145 q157 142 160 386 l0 784 l67 0 q99 1 155 52 q55 51 56 144 l0 207 l-185 0 l0 -167 q0 -43 -21 -63 q-22 -21 -66 -21 l-229 0 l0 -917 q-2 -164 -98 -256 q-95 -93 -263 -95 q-167 2 -262 95 q-96 93 -98 256 l0 917 l-224 0 l0 -936 q4 -244 160 -386 q157 -142 424 -145 l0 0 Z" /><glyph glyph-name="" unicode="&#x1ef0;" d="M717 -416 q56 1 93 39 q37 37 38 92 q-1 56 -38 93 q-37 37 -93 38 q-56 -1 -93 -38 q-37 -37 -38 -93 q1 -55 38 -92 q37 -38 93 -39 l0 0 ZM717 -24 q268 3 424 145 q157 142 160 386 l0 784 l67 0 q99 1 155 52 q55 51 56 144 l0 207 l-185 0 l0 -167 q0 -43 -21 -63 q-22 -21 -66 -21 l-229 0 l0 -917 q-2 -164 -98 -256 q-95 -93 -263 -95 q-167 2 -262 95 q-96 93 -98 256 l0 917 l-224 0 l0 -936 q4 -244 160 -386 q157 -142 424 -145 l0 0 Z" /><glyph glyph-name="" unicode="&#x1eec;" d="M548 1779 q22 10 50 14 q27 5 52 5 q40 -1 65 -20 q25 -19 26 -50 q-1 -33 -26 -60 q-25 -27 -67 -42 l70 -87 q76 28 122 81 q46 53 47 118 q-1 81 -58 127 q-57 45 -152 46 q-36 0 -69 -6 q-33 -6 -60 -17 l0 -109 ZM717 -24 q268 3 424 145 q157 142 160 386 l0 784 l67 0 q99 1 155 52 q55 51 56 144 l0 207 l-185 0 l0 -167 q0 -43 -21 -63 q-22 -21 -66 -21 l-229 0 l0 -917 q-2 -164 -98 -256 q-95 -93 -263 -95 q-167 2 -262 95 q-96 93 -98 256 l0 917 l-224 0 l0 -936 q4 -244 160 -386 q157 -142 424 -145 l0 0 Z" /><glyph glyph-name="" unicode="&#x1eee;" d="M850 1537 q85 1 136 70 q52 68 53 189 l-130 0 q0 -64 -16 -98 q-15 -34 -47 -34 q-51 9 -103 73 q-53 64 -153 73 q-88 -1 -139 -68 q-51 -67 -52 -189 l129 0 q1 61 18 95 q18 34 51 35 q54 -9 106 -73 q52 -64 147 -73 l0 0 ZM717 -24 q268 3 424 145 q157 142 160 386 l0 784 l67 0 q99 1 155 52 q55 51 56 144 l0 207 l-185 0 l0 -167 q0 -43 -21 -63 q-22 -21 -66 -21 l-229 0 l0 -917 q-2 -164 -98 -256 q-95 -93 -263 -95 q-167 2 -262 95 q-96 93 -98 256 l0 917 l-224 0 l0 -936 q4 -244 160 -386 q157 -142 424 -145 l0 0 Z" /><glyph glyph-name="" unicode="v" d="M786 0 l515 1443 l-239 0 l-394 -1191 l-6 0 l-393 1191 l-243 0 l515 -1443 l245 0 Z" /><glyph glyph-name="" unicode="&#x1e7c;" d="M796 1537 q85 1 136 70 q52 68 53 189 l-130 0 q0 -64 -16 -98 q-15 -34 -47 -34 q-51 9 -103 73 q-53 64 -153 73 q-88 -1 -139 -68 q-51 -67 -52 -189 l129 0 q1 61 18 95 q18 34 51 35 q54 -9 106 -73 q52 -64 147 -73 l0 0 ZM786 0 l515 1443 l-239 0 l-394 -1191 l-6 0 l-393 1191 l-243 0 l515 -1443 l245 0 Z" /><glyph glyph-name="" unicode="&#x1e7e;" d="M663 -416 q56 1 93 39 q37 37 38 92 q-1 56 -38 93 q-37 37 -93 38 q-56 -1 -93 -38 q-37 -37 -38 -93 q1 -55 38 -92 q37 -38 93 -39 l0 0 ZM786 0 l515 1443 l-239 0 l-394 -1191 l-6 0 l-393 1191 l-243 0 l515 -1443 l245 0 Z" /><glyph glyph-name="" unicode="w" d="M956 1088 l10 0 l312 -1088 l211 0 l390 1443 l-233 0 l-267 -1130 l-8 0 l-306 1130 l-208 0 l-305 -1130 l-8 0 l-267 1130 l-233 0 l389 -1443 l212 0 l311 1088 Z" /><glyph glyph-name="" unicode="&#x1e80;" d="M874 1553 l176 0 l-231 303 l-225 0 l280 -303 ZM956 1088 l10 0 l312 -1088 l211 0 l390 1443 l-233 0 l-267 -1130 l-8 0 l-306 1130 l-208 0 l-305 -1130 l-8 0 l-267 1130 l-233 0 l389 -1443 l212 0 l311 1088 Z" /><glyph glyph-name="" unicode="&#x1e82;" d="M1049 1551 l280 303 l-225 0 l-231 -303 l176 0 ZM956 1088 l10 0 l312 -1088 l211 0 l390 1443 l-233 0 l-267 -1130 l-8 0 l-306 1130 l-208 0 l-305 -1130 l-8 0 l-267 1130 l-233 0 l389 -1443 l212 0 l311 1088 Z" /><glyph glyph-name="" unicode="&#x1e86;" d="M961 1576 q56 1 93 39 q37 37 38 92 q-1 56 -38 93 q-37 37 -93 38 q-56 -1 -93 -38 q-37 -37 -38 -93 q1 -55 38 -92 q37 -38 93 -39 l0 0 ZM956 1088 l10 0 l312 -1088 l211 0 l390 1443 l-233 0 l-267 -1130 l-8 0 l-306 1130 l-208 0 l-305 -1130 l-8 0 l-267 1130 l-233 0 l389 -1443 l212 0 l311 1088 Z" /><glyph glyph-name="" unicode="&#x1e88;" d="M961 -416 q56 1 93 39 q37 37 38 92 q-1 56 -38 93 q-37 37 -93 38 q-56 -1 -93 -38 q-37 -37 -38 -93 q1 -55 38 -92 q37 -38 93 -39 l0 0 ZM956 1088 l10 0 l312 -1088 l211 0 l390 1443 l-233 0 l-267 -1130 l-8 0 l-306 1130 l-208 0 l-305 -1130 l-8 0 l-267 1130 l-233 0 l389 -1443 l212 0 l311 1088 Z" /><glyph glyph-name="" unicode="&#x1e84;" d="M760 1576 q51 1 85 35 q34 34 35 84 q-1 51 -35 84 q-34 34 -85 35 q-52 -1 -86 -35 q-34 -33 -35 -84 q1 -50 35 -84 q34 -34 86 -35 l0 0 ZM1163 1576 q51 1 85 35 q34 34 35 84 q-1 51 -35 84 q-34 34 -85 35 q-52 -1 -86 -35 q-34 -33 -35 -84 q1 -50 35 -84 q34 -34 86 -35 l0 0 ZM956 1088 l10 0 l312 -1088 l211 0 l390 1443 l-233 0 l-267 -1130 l-8 0 l-306 1130 l-208 0 l-305 -1130 l-8 0 l-267 1130 l-233 0 l389 -1443 l212 0 l311 1088 Z" /><glyph glyph-name="" unicode="&#x174;" d="M875 1853 l-286 -306 l188 0 l182 200 l4 0 l182 -200 l188 0 l-286 306 l-172 0 ZM956 1088 l10 0 l312 -1088 l211 0 l390 1443 l-233 0 l-267 -1130 l-8 0 l-306 1130 l-208 0 l-305 -1130 l-8 0 l-267 1130 l-233 0 l389 -1443 l212 0 l311 1088 Z" /><glyph glyph-name="" unicode="x" d="M44 0 l248 0 l364 550 l7 0 l359 -550 l262 0 l-480 716 l0 6 l489 721 l-253 0 l-360 -558 l-8 0 l-356 558 l-267 0 l474 -713 l0 -7 l-479 -723 Z" /><glyph glyph-name="" unicode="&#x1e8a;" d="M44 0 l248 0 l364 550 l7 0 l359 -550 l262 0 l-480 716 l0 6 l489 721 l-253 0 l-360 -558 l-8 0 l-356 558 l-267 0 l474 -713 l0 -7 l-479 -723 ZM669 1576 q56 1 93 39 q37 37 38 92 q-1 56 -38 93 q-37 37 -93 38 q-56 -1 -93 -38 q-37 -37 -38 -93 q1 -55 38 -92 q37 -38 93 -39 l0 0 Z" /><glyph glyph-name="" unicode="&#x1e8c;" d="M44 0 l248 0 l364 550 l7 0 l359 -550 l262 0 l-480 716 l0 6 l489 721 l-253 0 l-360 -558 l-8 0 l-356 558 l-267 0 l474 -713 l0 -7 l-479 -723 ZM468 1576 q51 1 85 35 q34 34 35 84 q-1 51 -35 84 q-34 34 -85 35 q-52 -1 -86 -35 q-34 -33 -35 -84 q1 -50 35 -84 q34 -34 86 -35 l0 0 ZM871 1576 q51 1 85 35 q34 34 35 84 q-1 51 -35 84 q-34 34 -85 35 q-52 -1 -86 -35 q-34 -33 -35 -84 q1 -50 35 -84 q34 -34 86 -35 l0 0 Z" /><glyph glyph-name="" unicode="y" d="M758 0 l0 591 l509 852 l-248 0 l-368 -637 l-7 0 l-368 637 l-250 0 l508 -852 l0 -591 l224 0 Z" /><glyph glyph-name="" unicode="&#x1ef2;" d="M758 0 l0 591 l509 852 l-248 0 l-368 -637 l-7 0 l-368 637 l-250 0 l508 -852 l0 -591 l224 0 ZM559 1553 l176 0 l-231 303 l-225 0 l280 -303 Z" /><glyph glyph-name="" unicode="ý" d="M758 0 l0 591 l509 852 l-248 0 l-368 -637 l-7 0 l-368 637 l-250 0 l508 -852 l0 -591 l224 0 ZM734 1551 l280 303 l-225 0 l-231 -303 l176 0 Z" /><glyph glyph-name="" unicode="&#x1e8e;" d="M758 0 l0 591 l509 852 l-248 0 l-368 -637 l-7 0 l-368 637 l-250 0 l508 -852 l0 -591 l224 0 ZM646 1576 q56 1 93 39 q37 37 38 92 q-1 56 -38 93 q-37 37 -93 38 q-56 -1 -93 -38 q-37 -37 -38 -93 q1 -55 38 -92 q37 -38 93 -39 l0 0 Z" /><glyph glyph-name="" unicode="&#x1ef4;" d="M758 0 l0 591 l509 852 l-248 0 l-368 -637 l-7 0 l-368 637 l-250 0 l508 -852 l0 -591 l224 0 ZM646 -416 q56 1 93 39 q37 37 38 92 q-1 56 -38 93 q-37 37 -93 38 q-56 -1 -93 -38 q-37 -37 -38 -93 q1 -55 38 -92 q37 -38 93 -39 l0 0 Z" /><glyph glyph-name="" unicode="&#x178;" d="M758 0 l0 591 l509 852 l-248 0 l-368 -637 l-7 0 l-368 637 l-250 0 l508 -852 l0 -591 l224 0 ZM445 1576 q51 1 85 35 q34 34 35 84 q-1 51 -35 84 q-34 34 -85 35 q-52 -1 -86 -35 q-34 -33 -35 -84 q1 -50 35 -84 q34 -34 86 -35 l0 0 ZM848 1576 q51 1 85 35 q34 34 35 84 q-1 51 -35 84 q-34 34 -85 35 q-52 -1 -86 -35 q-34 -33 -35 -84 q1 -50 35 -84 q34 -34 86 -35 l0 0 Z" /><glyph glyph-name="" unicode="&#x1ef8;" d="M758 0 l0 591 l509 852 l-248 0 l-368 -637 l-7 0 l-368 637 l-250 0 l508 -852 l0 -591 l224 0 ZM779 1537 q85 1 136 70 q52 68 53 189 l-130 0 q0 -64 -16 -98 q-15 -34 -47 -34 q-51 9 -103 73 q-53 64 -153 73 q-88 -1 -139 -68 q-51 -67 -52 -189 l129 0 q1 61 18 95 q18 34 51 35 q54 -9 106 -73 q52 -64 147 -73 l0 0 Z" /><glyph glyph-name="" unicode="&#x176;" d="M758 0 l0 591 l509 852 l-248 0 l-368 -637 l-7 0 l-368 637 l-250 0 l508 -852 l0 -591 l224 0 ZM560 1853 l-286 -306 l188 0 l182 200 l4 0 l182 -200 l188 0 l-286 306 l-172 0 Z" /><glyph glyph-name="" unicode="&#x232;" d="M758 0 l0 591 l509 852 l-248 0 l-368 -637 l-7 0 l-368 637 l-250 0 l508 -852 l0 -591 l224 0 ZM973 1755 l-654 0 l0 -119 l654 0 l0 119 Z" /><glyph glyph-name="" unicode="&#x1ef6;" d="M758 0 l0 591 l509 852 l-248 0 l-368 -637 l-7 0 l-368 637 l-250 0 l508 -852 l0 -591 l224 0 ZM477 1779 q22 10 50 14 q27 5 52 5 q40 -1 65 -20 q25 -19 26 -50 q-1 -33 -26 -60 q-25 -27 -67 -42 l70 -87 q76 28 122 81 q46 53 47 118 q-1 81 -58 127 q-57 45 -152 46 q-36 0 -69 -6 q-33 -6 -60 -17 l0 -109 Z" /><glyph glyph-name="" unicode="z" d="M95 0 l1084 0 l0 194 l-806 0 l0 7 l787 1089 l0 153 l-1041 0 l0 -193 l766 0 l0 -8 l-790 -1089 l0 -153 Z" /><glyph glyph-name="" unicode="&#x179;" d="M725 1551 l280 303 l-225 0 l-231 -303 l176 0 ZM95 0 l1084 0 l0 194 l-806 0 l0 7 l787 1089 l0 153 l-1041 0 l0 -193 l766 0 l0 -8 l-790 -1089 l0 -153 Z" /><glyph glyph-name="" unicode="&#x17d;" d="M95 0 l1084 0 l0 194 l-806 0 l0 7 l787 1089 l0 153 l-1041 0 l0 -193 l766 0 l0 -8 l-790 -1089 l0 -153 ZM551 1547 l172 0 l286 306 l-188 0 l-182 -199 l-4 0 l-182 199 l-188 0 l286 -306 Z" /><glyph glyph-name="" unicode="&#x1e90;" d="M95 0 l1084 0 l0 194 l-806 0 l0 7 l787 1089 l0 153 l-1041 0 l0 -193 l766 0 l0 -8 l-790 -1089 l0 -153 ZM551 1853 l-286 -306 l188 0 l182 200 l4 0 l182 -200 l188 0 l-286 306 l-172 0 Z" /><glyph glyph-name="" unicode="&#x1e94;" d="M95 0 l1084 0 l0 194 l-806 0 l0 7 l787 1089 l0 153 l-1041 0 l0 -193 l766 0 l0 -8 l-790 -1089 l0 -153 ZM964 -223 l-654 0 l0 -119 l654 0 l0 119 Z" /><glyph glyph-name="" unicode="&#x1e92;" d="M637 -416 q56 1 93 39 q37 37 38 92 q-1 56 -38 93 q-37 37 -93 38 q-56 -1 -93 -38 q-37 -37 -38 -93 q1 -55 38 -92 q37 -38 93 -39 l0 0 ZM95 0 l1084 0 l0 194 l-806 0 l0 7 l787 1089 l0 153 l-1041 0 l0 -193 l766 0 l0 -8 l-790 -1089 l0 -153 Z" /><glyph glyph-name="" unicode="&#x17b;" d="M637 1576 q56 1 93 39 q37 37 38 92 q-1 56 -38 93 q-37 37 -93 38 q-56 -1 -93 -38 q-37 -37 -38 -93 q1 -55 38 -92 q37 -38 93 -39 l0 0 ZM95 0 l1084 0 l0 194 l-806 0 l0 7 l787 1089 l0 153 l-1041 0 l0 -193 l766 0 l0 -8 l-790 -1089 l0 -153 Z" /><glyph glyph-name="" unicode="æ" d="M812 1263 l151 0 l0 -656 l-449 0 l298 656 ZM963 0 l900 0 l0 193 l-685 0 l0 441 l648 0 l0 186 l-648 0 l0 430 l685 0 l0 193 l-1189 0 l-661 -1443 l227 0 l196 428 l527 0 l0 -428 Z" /><glyph glyph-name="" unicode="&#x1e2;" d="M812 1263 l151 0 l0 -656 l-449 0 l298 656 ZM963 0 l900 0 l0 193 l-685 0 l0 441 l648 0 l0 186 l-648 0 l0 430 l685 0 l0 193 l-1189 0 l-661 -1443 l227 0 l196 428 l527 0 l0 -428 ZM1744 1755 l-654 0 l0 -119 l654 0 l0 119 Z" /><glyph glyph-name="" unicode="&#x1fc;" d="M1300 1551 l280 303 l-225 0 l-231 -303 l176 0 ZM812 1263 l151 0 l0 -656 l-449 0 l298 656 ZM963 0 l900 0 l0 193 l-685 0 l0 441 l648 0 l0 186 l-648 0 l0 430 l685 0 l0 193 l-1189 0 l-661 -1443 l227 0 l196 428 l527 0 l0 -428 Z" /><glyph glyph-name="" unicode="&#x152;" d="M764 1271 q209 -3 330 -149 q120 -146 122 -401 q-2 -255 -122 -400 q-120 -146 -330 -149 q-210 3 -330 149 q-120 145 -122 400 q2 256 122 401 q120 146 330 149 l0 0 ZM1230 0 l889 0 l0 194 l-676 0 l0 448 l638 0 l0 186 l-638 0 l0 422 l676 0 l0 193 l-889 0 l0 -229 q-72 123 -196 189 q-124 66 -286 67 q-307 -4 -484 -203 q-178 -199 -182 -546 q4 -346 181 -545 q178 -199 484 -203 q160 1 287 69 q127 67 196 189 l0 -231 Z" /><glyph glyph-name="" unicode="ð" d="M372 194 l0 454 l269 0 l0 184 l-269 0 l0 418 l272 0 q231 -1 353 -136 q122 -136 123 -392 q-1 -257 -123 -392 q-122 -135 -353 -136 l-272 0 ZM148 1443 l0 -611 l-118 0 l0 -184 l118 0 l0 -648 l517 0 q325 3 503 191 q178 189 180 533 q-2 344 -180 530 q-178 187 -503 189 l-517 0 Z" /><glyph glyph-name="" unicode="þ" d="M157 1443 l0 -1443 l224 0 l0 326 l343 0 q187 2 315 114 q128 113 133 318 q-5 205 -131 317 q-126 112 -310 113 l-350 0 l0 255 l-224 0 ZM381 999 l287 0 q123 0 198 -60 q75 -60 77 -181 q-2 -122 -77 -183 q-75 -61 -198 -61 l-287 0 l0 485 Z" /><glyph glyph-name="" unicode="&#x391;" d="M1073 0 l237 0 l-521 1443 l-242 0 l-521 -1443 l233 0 l132 390 l550 0 l132 -390 ZM663 1203 l6 0 l215 -633 l-436 0 l215 633 Z" /><glyph glyph-name="" unicode="&#x392;" d="M726 0 q233 2 362 109 q129 107 131 299 q-2 146 -91 240 q-89 95 -237 113 l0 8 q111 21 182 109 q72 87 74 205 q-3 166 -116 262 q-113 96 -307 98 l-591 0 l0 -1443 l593 0 ZM357 1260 l312 0 q123 0 189 -54 q65 -53 66 -154 q-1 -108 -78 -165 q-77 -57 -224 -58 l-265 0 l0 431 ZM357 183 l0 475 l311 0 q159 0 240 -59 q82 -60 82 -177 q0 -117 -79 -178 q-78 -61 -230 -61 l-324 0 Z" /><glyph glyph-name="" unicode="&#x393;" d="M357 0 l0 1250 l657 0 l0 193 l-881 0 l0 -1443 l224 0 Z" /><glyph glyph-name="" unicode="&#x394;" d="M1278 0 l0 143 l-491 1300 l-242 0 l-491 -1300 l0 -143 l1224 0 ZM297 201 l363 1012 l6 0 l362 -1012 l0 -8 l-731 0 l0 8 Z" /><glyph glyph-name="" unicode="&#x395;" d="M1049 194 l-692 0 l0 448 l655 0 l0 186 l-655 0 l0 422 l692 0 l0 193 l-916 0 l0 -1443 l916 0 l0 194 Z" /><glyph glyph-name="" unicode="&#x396;" d="M95 0 l1084 0 l0 194 l-806 0 l0 7 l787 1089 l0 153 l-1041 0 l0 -193 l766 0 l0 -8 l-790 -1089 l0 -153 Z" /><glyph glyph-name="" unicode="&#x397;" d="M1322 0 l0 1443 l-224 0 l0 -610 l-741 0 l0 610 l-224 0 l0 -1443 l224 0 l0 639 l741 0 l0 -639 l224 0 Z" /><glyph glyph-name="" unicode="&#x398;" d="M1054 625 l0 186 l-572 0 l0 -186 l572 0 ZM768 1467 q-325 -4 -505 -202 q-179 -197 -182 -544 q3 -346 183 -544 q180 -197 504 -201 q325 4 505 201 q179 198 182 544 q-2 347 -181 544 q-180 198 -506 202 l0 0 ZM768 1270 q218 -3 338 -147 q119 -145 121 -402 q-2 -256 -121 -401 q-120 -144 -338 -147 q-216 3 -337 147 q-120 145 -122 401 q2 257 122 402 q121 144 337 147 l0 0 Z" /><glyph glyph-name="" unicode="&#x399;" d="M357 0 l0 1443 l-224 0 l0 -1443 l224 0 Z" /><glyph glyph-name="" unicode="&#x39a;" d="M357 0 l0 481 l148 169 l500 -650 l278 0 l-620 804 l572 639 l-266 0 l-603 -687 l-9 0 l0 687 l-224 0 l0 -1443 l224 0 Z" /><glyph glyph-name="" unicode="&#x39b;" d="M1033 0 l240 0 l-503 1443 l-241 0 l-503 -1443 l236 0 l383 1192 l6 0 l382 -1192 Z" /><glyph glyph-name="" unicode="&#x39c;" d="M1593 0 l0 1443 l-260 0 l-466 -1139 l-8 0 l-467 1139 l-259 0 l0 -1443 l204 0 l0 1062 l7 0 l436 -1051 l166 0 l435 1051 l7 0 l0 -1062 l205 0 Z" /><glyph glyph-name="" unicode="&#x39d;" d="M351 0 l0 1063 l9 0 l748 -1063 l202 0 l0 1443 l-218 0 l0 -1064 l-8 0 l-748 1064 l-203 0 l0 -1443 l218 0 Z" /><glyph glyph-name="" unicode="&#x39e;" d="M97 1443 l0 -197 l1069 0 l0 197 l-1069 0 ZM1079 638 l0 189 l-895 0 l0 -189 l895 0 ZM97 197 l0 -197 l1069 0 l0 197 l-1069 0 Z" /><glyph glyph-name="" unicode="&#x39f;" d="M757 1467 q-315 -4 -494 -201 q-179 -197 -182 -545 q3 -348 182 -545 q179 -196 494 -200 q315 4 494 200 q179 197 182 545 q-3 348 -182 545 q-179 197 -494 201 l0 0 ZM757 1270 q208 -3 326 -148 q118 -146 120 -401 q-2 -255 -120 -400 q-118 -145 -326 -148 q-208 3 -326 148 q-119 145 -121 400 q2 255 121 401 q118 145 326 148 l0 0 Z" /><glyph glyph-name="" unicode="&#x3a0;" d="M1302 0 l0 1443 l-1169 0 l0 -1443 l224 0 l0 1250 l721 0 l0 -1250 l224 0 Z" /><glyph glyph-name="" unicode="&#x3a1;" d="M133 1443 l0 -1443 l224 0 l0 493 l334 0 q216 3 348 132 q131 129 135 344 q-3 214 -133 342 q-129 129 -343 132 l-565 0 ZM357 1254 l282 0 q147 -1 226 -75 q79 -74 80 -211 q-1 -137 -80 -212 q-80 -74 -226 -75 l-282 0 l0 573 Z" /><glyph glyph-name="" unicode="&#x3a3;" d="M367 201 l375 532 l0 7 l-350 502 l0 8 l731 0 l0 193 l-1010 0 l0 -168 l387 -551 l-405 -576 l0 -148 l1055 0 l0 194 l-783 0 l0 7 Z" /><glyph glyph-name="" unicode="&#x3a4;" d="M723 0 l0 1250 l449 0 l0 193 l-1123 0 l0 -193 l450 0 l0 -1250 l224 0 Z" /><glyph glyph-name="" unicode="&#x3a5;" d="M758 0 l0 591 l509 852 l-248 0 l-368 -637 l-7 0 l-368 637 l-250 0 l508 -852 l0 -591 l224 0 Z" /><glyph glyph-name="" unicode="&#x3a6;" d="M1391 717 q-2 -206 -117 -326 q-115 -119 -324 -131 l0 913 q209 -12 324 -131 q115 -119 117 -325 l0 0 ZM294 717 q2 206 117 325 q115 119 324 131 l0 -913 q-209 12 -324 131 q-115 120 -117 326 l0 0 ZM950 -75 l0 146 q307 17 485 189 q177 172 181 457 q-4 284 -181 456 q-178 172 -485 190 l0 148 l-215 0 l0 -148 q-306 -18 -484 -190 q-177 -172 -181 -456 q4 -285 181 -457 q178 -172 484 -189 l0 -146 l215 0 Z" /><glyph glyph-name="" unicode="&#x3a7;" d="M44 0 l248 0 l364 550 l7 0 l359 -550 l262 0 l-480 716 l0 6 l489 721 l-253 0 l-360 -558 l-8 0 l-356 558 l-267 0 l474 -713 l0 -7 l-479 -723 Z" /><glyph glyph-name="" unicode="&#x3a8;" d="M917 0 l0 328 q270 5 427 158 q156 153 159 414 l0 543 l-218 0 l0 -540 q-1 -178 -94 -275 q-94 -98 -274 -105 l0 920 l-218 0 l0 -920 q-179 7 -273 105 q-94 97 -95 275 l0 540 l-218 0 l0 -543 q3 -261 160 -413 q156 -153 426 -159 l0 -328 l218 0 Z" /><glyph glyph-name="" unicode="&#x3a9;" d="M1217 791 q0 -184 -78 -320 q-79 -136 -239 -240 l0 -231 l545 0 l0 190 l-304 0 l0 7 q144 96 223 252 q80 156 81 353 q-4 300 -186 480 q-182 180 -488 185 q-306 -5 -488 -185 q-182 -180 -186 -480 q1 -197 81 -353 q79 -156 223 -252 l0 -7 l-304 0 l0 -190 l544 0 l0 231 q-160 104 -238 240 q-78 136 -78 320 q2 224 120 350 q118 127 326 129 q208 -2 326 -129 q118 -126 120 -350 l0 0 Z" /><glyph glyph-name="" unicode="&#x386;" d="M1105 0 l237 0 l-521 1443 l-242 0 l-521 -1443 l233 0 l132 390 l550 0 l132 -390 ZM695 1203 l6 0 l215 -633 l-436 0 l215 633 ZM98 1127 l173 0 l156 316 l-251 0 l-78 -316 Z" /><glyph glyph-name="" unicode="&#x388;" d="M52 1127 l173 0 l156 316 l-251 0 l-78 -316 ZM1421 194 l-692 0 l0 448 l655 0 l0 186 l-655 0 l0 422 l692 0 l0 193 l-916 0 l0 -1443 l916 0 l0 194 Z" /><glyph glyph-name="" unicode="&#x389;" d="M52 1127 l173 0 l156 316 l-251 0 l-78 -316 ZM1694 0 l0 1443 l-224 0 l0 -610 l-741 0 l0 610 l-224 0 l0 -1443 l224 0 l0 639 l741 0 l0 -639 l224 0 Z" /><glyph glyph-name="" unicode="&#x38a;" d="M729 0 l0 1443 l-224 0 l0 -1443 l224 0 ZM52 1127 l173 0 l156 316 l-251 0 l-78 -316 Z" /><glyph glyph-name="" unicode="&#x3aa;" d="M357 0 l0 1443 l-224 0 l0 -1443 l224 0 ZM44 1576 q51 1 85 35 q34 34 35 84 q-1 51 -35 84 q-34 34 -85 35 q-52 -1 -86 -35 q-34 -33 -35 -84 q1 -50 35 -84 q34 -34 86 -35 l0 0 ZM447 1576 q51 1 85 35 q34 34 35 84 q-1 51 -35 84 q-34 34 -85 35 q-52 -1 -86 -35 q-34 -33 -35 -84 q1 -50 35 -84 q34 -34 86 -35 l0 0 Z" /><glyph glyph-name="" unicode="&#x38c;" d="M964 1467 q-315 -4 -494 -201 q-179 -197 -182 -545 q3 -348 182 -545 q179 -196 494 -200 q315 4 494 200 q179 197 182 545 q-3 348 -182 545 q-179 197 -494 201 l0 0 ZM964 1270 q208 -3 326 -148 q118 -146 120 -401 q-2 -255 -120 -400 q-118 -145 -326 -148 q-208 3 -326 148 q-119 145 -121 400 q2 255 121 401 q118 145 326 148 l0 0 ZM33 1127 l173 0 l156 316 l-251 0 l-78 -316 Z" /><glyph glyph-name="" unicode="&#x38e;" d="M36 1127 l173 0 l156 316 l-251 0 l-78 -316 ZM1157 0 l0 591 l509 852 l-248 0 l-368 -637 l-7 0 l-368 637 l-250 0 l508 -852 l0 -591 l224 0 Z" /><glyph glyph-name="" unicode="&#x3ab;" d="M758 0 l0 591 l509 852 l-248 0 l-368 -637 l-7 0 l-368 637 l-250 0 l508 -852 l0 -591 l224 0 ZM445 1576 q51 1 85 35 q34 34 35 84 q-1 51 -35 84 q-34 34 -85 35 q-52 -1 -86 -35 q-34 -33 -35 -84 q1 -50 35 -84 q34 -34 86 -35 l0 0 ZM848 1576 q51 1 85 35 q34 34 35 84 q-1 51 -35 84 q-34 34 -85 35 q-52 -1 -86 -35 q-34 -33 -35 -84 q1 -50 35 -84 q34 -34 86 -35 l0 0 Z" /><glyph glyph-name="" unicode="&#x38f;" d="M1429 791 q0 -184 -78 -320 q-79 -136 -239 -240 l0 -231 l545 0 l0 190 l-304 0 l0 7 q144 96 223 252 q80 156 81 353 q-4 300 -186 480 q-182 180 -488 185 q-306 -5 -488 -185 q-182 -180 -186 -480 q1 -197 81 -353 q79 -156 223 -252 l0 -7 l-304 0 l0 -190 l544 0 l0 231 q-160 104 -238 240 q-78 136 -78 320 q2 224 120 350 q118 127 326 129 q208 -2 326 -129 q118 -126 120 -350 l0 0 ZM57 1127 l173 0 l156 316 l-251 0 l-78 -316 Z" /><glyph glyph-name="" unicode="&#x410;" d="M1083 0 l237 0 l-521 1443 l-242 0 l-521 -1443 l233 0 l132 390 l550 0 l132 -390 ZM673 1203 l6 0 l215 -633 l-436 0 l215 633 Z" /><glyph glyph-name="" unicode="&#x4d0;" d="M1083 0 l237 0 l-521 1443 l-242 0 l-521 -1443 l233 0 l132 390 l550 0 l132 -390 ZM673 1203 l6 0 l215 -633 l-436 0 l215 633 ZM346 1854 q2 -137 90 -219 q87 -82 233 -84 q146 2 233 84 q88 82 90 219 l-142 0 q-2 -83 -51 -134 q-49 -52 -130 -54 q-81 2 -130 54 q-49 51 -51 134 l-142 0 Z" /><glyph glyph-name="" unicode="&#x4d2;" d="M1083 0 l237 0 l-521 1443 l-242 0 l-521 -1443 l233 0 l132 390 l550 0 l132 -390 ZM673 1203 l6 0 l215 -633 l-436 0 l215 633 ZM477 1576 q51 1 85 35 q34 34 35 84 q-1 51 -35 84 q-34 34 -85 35 q-52 -1 -86 -35 q-34 -33 -35 -84 q1 -50 35 -84 q34 -34 86 -35 l0 0 ZM880 1576 q51 1 85 35 q34 34 35 84 q-1 51 -35 84 q-34 34 -85 35 q-52 -1 -86 -35 q-34 -33 -35 -84 q1 -50 35 -84 q34 -34 86 -35 l0 0 Z" /><glyph glyph-name="" unicode="&#x411;" d="M1167 441 q-4 198 -134 317 q-131 119 -346 122 l-320 0 l0 370 l660 0 l0 193 l-884 0 l0 -1443 l549 0 q213 3 343 122 q129 120 132 319 l0 0 ZM367 190 l0 503 l267 0 q146 -1 224 -65 q79 -65 80 -187 q-1 -121 -79 -186 q-78 -64 -224 -65 l-268 0 Z" /><glyph glyph-name="" unicode="&#x412;" d="M736 0 q233 2 362 109 q129 107 131 299 q-2 146 -91 240 q-89 95 -237 113 l0 8 q111 21 182 109 q72 87 74 205 q-3 166 -116 262 q-113 96 -307 98 l-591 0 l0 -1443 l593 0 ZM367 1260 l312 0 q123 0 189 -54 q65 -53 66 -154 q-1 -108 -78 -165 q-77 -57 -224 -58 l-265 0 l0 431 ZM367 183 l0 475 l311 0 q159 0 240 -59 q82 -60 82 -177 q0 -117 -79 -178 q-78 -61 -230 -61 l-324 0 Z" /><glyph glyph-name="" unicode="&#x413;" d="M368 0 l0 1248 l657 0 l0 195 l-882 0 l0 -1443 l225 0 Z" /><glyph glyph-name="" unicode="&#x403;" d="M684 1546 l280 303 l-225 0 l-231 -303 l176 0 ZM368 0 l0 1248 l657 0 l0 195 l-882 0 l0 -1443 l225 0 Z" /><glyph glyph-name="" unicode="&#x490;" d="M368 1248 l657 0 l0 480 l-208 0 l0 -285 l-674 0 l0 -1443 l225 0 l0 1248 Z" /><glyph glyph-name="" unicode="&#x4f6;" d="M1025 1248 l0 195 l-882 0 l0 -1443 l36 0 l189 0 l10 0 l0 -285 l206 0 l0 478 l-216 0 l0 1055 l657 0 Z" /><glyph glyph-name="" unicode="&#x492;" d="M1035 1248 l0 195 l-882 0 l0 -656 l-118 0 l0 -165 l118 0 l0 -622 l225 0 l0 622 l496 0 l0 165 l-496 0 l0 461 l657 0 Z" /><glyph glyph-name="" unicode="&#x4fa;" d="M1035 1248 l0 195 l-882 0 l0 -656 l-116 0 l0 -165 l116 0 l0 -305 l-1 0 l0 -358 q1 -81 -34 -118 q-35 -37 -120 -36 q-4 0 -15 1 q-11 0 -15 0 l0 -176 q6 -1 23 -1 q17 0 25 0 q183 -1 272 79 q89 80 89 250 l0 42 l1 0 l0 622 l521 0 l0 165 l-521 0 l0 461 l657 0 Z" /><glyph glyph-name="" unicode="&#x414;" d="M491 558 l44 692 l517 0 l0 -1056 l-660 0 l0 8 q51 60 72 147 q21 87 27 209 l0 0 ZM234 0 l1017 0 l0 -285 l205 0 l0 479 l-180 0 l0 1249 l-940 0 l-53 -875 q-7 -143 -40 -236 q-34 -93 -110 -138 l-105 0 l0 -479 l206 0 l0 285 Z" /><glyph glyph-name="" unicode="&#x415;" d="M1059 194 l-692 0 l0 448 l655 0 l0 186 l-655 0 l0 422 l692 0 l0 193 l-916 0 l0 -1443 l916 0 l0 194 Z" /><glyph glyph-name="" unicode="&#x401;" d="M400 1576 q51 1 85 35 q34 34 35 84 q-1 51 -35 84 q-34 34 -85 35 q-52 -1 -86 -35 q-34 -33 -35 -84 q1 -50 35 -84 q34 -34 86 -35 l0 0 ZM803 1576 q51 1 85 35 q34 34 35 84 q-1 51 -35 84 q-34 34 -85 35 q-52 -1 -86 -35 q-34 -33 -35 -84 q1 -50 35 -84 q34 -34 86 -35 l0 0 ZM1059 194 l-692 0 l0 448 l655 0 l0 186 l-655 0 l0 422 l692 0 l0 193 l-916 0 l0 -1443 l916 0 l0 194 Z" /><glyph glyph-name="" unicode="&#x4d6;" d="M280 1854 q2 -137 90 -219 q87 -82 233 -84 q146 2 233 84 q88 82 90 219 l-142 0 q-2 -83 -51 -134 q-49 -52 -130 -54 q-81 2 -130 54 q-49 51 -51 134 l-142 0 ZM1059 194 l-692 0 l0 448 l655 0 l0 186 l-655 0 l0 422 l692 0 l0 193 l-916 0 l0 -1443 l916 0 l0 194 Z" /><glyph glyph-name="" unicode="&#x400;" d="M514 1553 l176 0 l-231 303 l-225 0 l280 -303 ZM1059 194 l-692 0 l0 448 l655 0 l0 186 l-655 0 l0 422 l692 0 l0 193 l-916 0 l0 -1443 l916 0 l0 194 Z" /><glyph glyph-name="" unicode="&#x416;" d="M1332 755 l594 688 l-264 0 l-545 -646 l-8 0 l0 646 l-221 0 l0 -646 l-8 0 l-543 646 l-269 0 l596 -692 l-645 -751 l279 0 l582 677 l8 0 l0 -677 l221 0 l0 677 l8 0 l578 -677 l288 0 l-651 755 Z" /><glyph glyph-name="" unicode="&#x4c1;" d="M1185 1853 q-2 -81 -52 -134 q-51 -52 -133 -54 q-82 2 -133 54 q-50 53 -52 134 l-140 0 q3 -135 90 -219 q87 -84 235 -87 q148 3 235 87 q87 84 90 219 l-140 0 ZM1332 755 l594 688 l-264 0 l-545 -646 l-8 0 l0 646 l-221 0 l0 -646 l-8 0 l-543 646 l-269 0 l596 -692 l-645 -751 l279 0 l582 677 l8 0 l0 -677 l221 0 l0 677 l8 0 l578 -677 l288 0 l-651 755 Z" /><glyph glyph-name="" unicode="&#x4dc;" d="M1203 1576 q51 1 85 35 q34 34 35 84 q-1 51 -35 84 q-34 34 -85 35 q-52 -1 -86 -35 q-34 -33 -35 -84 q1 -50 35 -84 q34 -34 86 -35 l0 0 ZM800 1576 q51 1 85 35 q34 34 35 84 q-1 51 -35 84 q-34 34 -85 35 q-52 -1 -86 -35 q-34 -33 -35 -84 q1 -50 35 -84 q34 -34 86 -35 l0 0 ZM1332 755 l594 688 l-264 0 l-545 -646 l-8 0 l0 646 l-221 0 l0 -646 l-8 0 l-543 646 l-269 0 l596 -692 l-645 -751 l279 0 l582 677 l8 0 l0 -677 l221 0 l0 677 l8 0 l578 -677 l288 0 l-651 755 Z" /><glyph glyph-name="" unicode="&#x496;" d="M1817 193 l-485 562 l594 688 l-264 0 l-545 -646 l-8 0 l0 646 l-221 0 l0 -646 l-8 0 l-543 646 l-269 0 l596 -692 l-645 -751 l279 0 l582 677 l8 0 l0 -677 l221 0 l0 677 l8 0 l578 -677 l3 0 l98 0 l0 -285 l205 0 l0 478 l-184 0 Z" /><glyph glyph-name="" unicode="&#x417;" d="M410 644 l200 0 q146 -1 226 -64 q81 -63 82 -177 q-2 -112 -83 -179 q-82 -67 -219 -69 q-141 1 -227 63 q-87 62 -99 170 l-216 0 q13 -193 159 -307 q145 -113 384 -116 q231 4 379 122 q147 119 152 305 q-1 149 -84 243 q-83 94 -229 114 l0 8 q122 31 195 120 q72 90 74 213 q-4 174 -135 280 q-131 105 -348 108 q-227 -2 -362 -112 q-134 -111 -148 -306 l212 0 q11 108 87 169 q76 61 204 62 q126 -1 197 -60 q71 -59 72 -164 q-2 -106 -78 -170 q-75 -64 -201 -66 l-194 0 l0 -187 Z" /><glyph glyph-name="" unicode="&#x4de;" d="M410 1576 q51 1 85 35 q34 34 35 84 q-1 51 -35 84 q-34 34 -85 35 q-52 -1 -86 -35 q-34 -33 -35 -84 q1 -50 35 -84 q34 -34 86 -35 l0 0 ZM813 1576 q51 1 85 35 q34 34 35 84 q-1 51 -35 84 q-34 34 -85 35 q-52 -1 -86 -35 q-34 -33 -35 -84 q1 -50 35 -84 q34 -34 86 -35 l0 0 ZM410 644 l200 0 q146 -1 226 -64 q81 -63 82 -177 q-2 -112 -83 -179 q-82 -67 -219 -69 q-141 1 -227 63 q-87 62 -99 170 l-216 0 q13 -193 159 -307 q145 -113 384 -116 q231 4 379 122 q147 119 152 305 q-1 149 -84 243 q-83 94 -229 114 l0 8 q122 31 195 120 q72 90 74 213 q-4 174 -135 280 q-131 105 -348 108 q-227 -2 -362 -112 q-134 -111 -148 -306 l212 0 q11 108 87 169 q76 61 204 62 q126 -1 197 -60 q71 -59 72 -164 q-2 -106 -78 -170 q-75 -64 -201 -66 l-194 0 l0 -187 Z" /><glyph glyph-name="" unicode="&#x498;" d="M835 757 q122 31 195 120 q72 90 74 213 q-4 174 -135 280 q-131 105 -348 108 q-227 -2 -362 -112 q-134 -111 -148 -306 l212 0 q11 108 87 169 q76 61 204 62 q126 -1 197 -60 q71 -59 72 -164 q-2 -106 -78 -170 q-75 -64 -201 -66 l-194 0 l0 -187 l200 0 q146 -1 226 -64 q81 -63 82 -177 q-2 -112 -83 -179 q-82 -67 -219 -69 q-141 1 -227 63 q-87 62 -99 170 l-216 0 q11 -171 129 -281 q118 -110 315 -136 l0 -256 l205 0 l0 258 q189 30 306 143 q116 113 119 276 q-1 149 -84 243 q-83 94 -229 114 l0 8 Z" /><glyph glyph-name="" unicode="&#x418;" d="M1111 0 l222 0 l0 1443 l-218 0 l-735 -1089 l-15 0 l0 1089 l-222 0 l0 -1443 l218 0 l735 1086 l15 0 l0 -1086 Z" /><glyph glyph-name="" unicode="&#x419;" d="M414 1845 q2 -137 90 -219 q87 -82 233 -84 q146 2 233 84 q88 82 90 219 l-142 0 q-2 -83 -51 -134 q-49 -52 -130 -54 q-81 2 -130 54 q-49 51 -51 134 l-142 0 ZM1111 0 l222 0 l0 1443 l-218 0 l-735 -1089 l-15 0 l0 1089 l-222 0 l0 -1443 l218 0 l735 1086 l15 0 l0 -1086 Z" /><glyph glyph-name="" unicode="&#x40d;" d="M679 1551 l176 0 l-231 303 l-225 0 l280 -303 ZM1111 0 l222 0 l0 1443 l-218 0 l-735 -1089 l-15 0 l0 1089 l-222 0 l0 -1443 l218 0 l735 1086 l15 0 l0 -1086 Z" /><glyph glyph-name="" unicode="&#x4e2;" d="M1111 0 l222 0 l0 1443 l-218 0 l-735 -1089 l-15 0 l0 1089 l-222 0 l0 -1443 l218 0 l735 1086 l15 0 l0 -1086 ZM1068 1755 l-654 0 l0 -119 l654 0 l0 119 Z" /><glyph glyph-name="" unicode="&#x4e4;" d="M531 1576 q51 1 85 35 q34 34 35 84 q-1 51 -35 84 q-34 34 -85 35 q-52 -1 -86 -35 q-34 -33 -35 -84 q1 -50 35 -84 q34 -34 86 -35 l0 0 ZM934 1576 q51 1 85 35 q34 34 35 84 q-1 51 -35 84 q-34 34 -85 35 q-52 -1 -86 -35 q-34 -33 -35 -84 q1 -50 35 -84 q34 -34 86 -35 l0 0 ZM1111 0 l222 0 l0 1443 l-218 0 l-735 -1089 l-15 0 l0 1089 l-222 0 l0 -1443 l218 0 l735 1086 l15 0 l0 -1086 Z" /><glyph glyph-name="" unicode="&#x48a;" d="M918 1845 q-2 -83 -51 -134 q-49 -52 -130 -54 q-81 2 -130 54 q-49 51 -51 134 l-142 0 q2 -137 90 -219 q87 -82 233 -84 q146 2 233 84 q88 82 90 219 l-142 0 ZM1333 193 l0 1250 l-218 0 l-735 -1089 l-15 0 l0 1089 l-222 0 l0 -1443 l218 0 l735 1086 l15 0 l0 -893 l0 -193 l166 0 l-78 -285 l203 0 l111 423 l0 55 l-180 0 Z" /><glyph glyph-name="" unicode="&#x41a;" d="M596 755 l635 688 l-268 0 l-588 -646 l-8 0 l0 646 l-224 0 l0 -1443 l224 0 l0 677 l8 0 l622 -677 l293 0 l-694 755 Z" /><glyph glyph-name="" unicode="&#x40c;" d="M1003 1849 l-225 0 l-231 -303 l176 0 l280 303 ZM596 755 l635 688 l-268 0 l-588 -646 l-8 0 l0 646 l-224 0 l0 -1443 l224 0 l0 677 l8 0 l622 -677 l293 0 l-694 755 Z" /><glyph glyph-name="" unicode="&#x49a;" d="M1113 193 l-517 562 l635 688 l-268 0 l-588 -646 l-8 0 l0 646 l-224 0 l0 -1443 l224 0 l0 677 l8 0 l622 -677 l2 0 l101 0 l0 -285 l205 0 l0 478 l-192 0 Z" /><glyph glyph-name="" unicode="&#x49c;" d="M878 745 l479 698 l-252 0 l-431 -629 l-35 0 l0 306 l-160 0 l0 -306 l-112 0 l0 629 l-224 0 l0 -1443 l224 0 l0 643 l112 0 l0 -320 l160 0 l0 320 l35 0 l464 -643 l277 0 l-537 745 Z" /><glyph glyph-name="" unicode="&#x49e;" d="M644 751 l655 692 l-267 0 l-581 -620 l-35 0 l0 313 l244 0 l0 173 l-244 0 l0 134 l-224 0 l0 -134 l-172 0 l0 -173 l172 0 l0 -1136 l224 0 l0 647 l35 0 l614 -647 l287 0 l-708 751 Z" /><glyph glyph-name="" unicode="&#x4a0;" d="M1159 755 l635 688 l-268 0 l-588 -646 l-8 0 l0 453 l0 193 l-224 0 l-647 0 l0 -193 l647 0 l0 -1250 l224 0 l0 677 l8 0 l622 -677 l293 0 l-694 755 Z" /><glyph glyph-name="" unicode="&#x4c3;" d="M1257 1443 l-265 0 l-600 -627 l-13 0 l0 627 l-224 0 l0 -1443 l224 0 l0 624 l30 0 q255 -3 401 -122 q145 -120 148 -322 q-2 -184 -97 -292 q-95 -108 -258 -111 q-24 0 -42 1 q-18 1 -33 2 l0 -187 q16 -3 39 -5 q24 -2 50 -2 q259 4 412 167 q153 162 157 433 q-3 230 -150 392 q-148 163 -409 213 l630 652 Z" /><glyph glyph-name="" unicode="&#x41b;" d="M1276 0 l0 1443 l-915 0 l-48 -881 q-10 -191 -58 -281 q-47 -90 -148 -89 q-16 0 -32 2 q-17 3 -27 5 l0 -198 q15 -5 36 -8 q22 -3 48 -3 q188 -1 281 138 q93 139 108 423 l43 699 l488 0 l0 -1250 l224 0 Z" /><glyph glyph-name="" unicode="&#x4c5;" d="M1276 193 l0 1250 l-915 0 l-48 -881 q-10 -191 -58 -281 q-47 -90 -148 -89 q-16 0 -32 2 q-17 3 -27 5 l0 -198 q15 -5 36 -8 q22 -3 48 -3 q188 -1 281 138 q93 139 108 423 l43 699 l488 0 l0 -1057 l0 -193 l167 0 l-79 -285 l203 0 l111 423 l0 55 l-178 0 Z" /><glyph glyph-name="" unicode="&#x52e;" d="M1276 193 l0 1250 l-915 0 l-48 -881 q-10 -191 -58 -281 q-47 -90 -148 -89 q-16 0 -32 2 q-17 3 -27 5 l0 -198 q15 -5 36 -8 q22 -3 48 -3 q188 -1 281 138 q93 139 108 423 l43 699 l488 0 l0 -1057 l0 -193 l199 0 l0 -285 l205 0 l0 478 l-180 0 Z" /><glyph glyph-name="" unicode="&#x512;" d="M361 1443 l-48 -881 q-10 -191 -58 -281 q-47 -90 -148 -89 q-16 0 -32 2 q-17 3 -27 5 l0 -198 q15 -5 36 -8 q22 -3 48 -3 q188 -1 281 138 q93 139 108 423 l43 699 l488 0 l0 -930 l0 -320 l0 -41 q1 -81 -34 -118 q-35 -37 -120 -36 q-4 0 -15 1 q-12 0 -15 0 l0 -176 q5 -1 22 -1 q18 0 25 0 q183 -1 272 79 q89 80 89 250 l0 42 l0 320 l0 1123 l-915 0 Z" /><glyph glyph-name="" unicode="&#x41c;" d="M1603 0 l0 1443 l-260 0 l-466 -1139 l-8 0 l-467 1139 l-259 0 l0 -1443 l204 0 l0 1062 l7 0 l436 -1051 l166 0 l435 1051 l7 0 l0 -1062 l205 0 Z" /><glyph glyph-name="" unicode="&#x4cd;" d="M1603 193 l0 1250 l-260 0 l-466 -1139 l-8 0 l-467 1139 l-259 0 l0 -1443 l204 0 l0 1062 l7 0 l436 -1051 l166 0 l435 1051 l7 0 l0 -869 l0 -193 l167 0 l-79 -285 l203 0 l111 423 l0 55 l-197 0 Z" /><glyph glyph-name="" unicode="&#x41d;" d="M1332 0 l0 1443 l-224 0 l0 -610 l-741 0 l0 610 l-224 0 l0 -1443 l224 0 l0 639 l741 0 l0 -639 l224 0 Z" /><glyph glyph-name="" unicode="&#x4c7;" d="M1108 1443 l0 -610 l-741 0 l0 610 l-224 0 l0 -1443 l224 0 l0 639 l741 0 l0 -322 l0 -317 l0 -41 q1 -81 -34 -118 q-36 -37 -121 -36 q-4 0 -15 1 q-11 0 -14 0 l0 -176 q5 -1 22 -1 q17 0 25 0 q183 -1 272 79 q89 80 89 250 l0 42 l0 317 l0 1126 l-224 0 Z" /><glyph glyph-name="" unicode="&#x4a2;" d="M1332 193 l0 1250 l-224 0 l0 -610 l-741 0 l0 610 l-224 0 l0 -1443 l224 0 l0 639 l741 0 l0 -446 l0 -193 l198 0 l0 -285 l206 0 l0 478 l-180 0 Z" /><glyph glyph-name="" unicode="&#x4c9;" d="M1332 193 l0 1250 l-224 0 l0 -610 l-741 0 l0 610 l-224 0 l0 -1443 l224 0 l0 639 l741 0 l0 -446 l0 -193 l166 0 l-79 -285 l203 0 l112 423 l0 55 l-178 0 Z" /><glyph glyph-name="" unicode="&#x4a4;" d="M1990 1443 l-658 0 l-224 0 l0 -193 l0 -417 l-741 0 l0 610 l-224 0 l0 -1443 l224 0 l0 639 l741 0 l0 -639 l224 0 l0 1250 l658 0 l0 193 Z" /><glyph glyph-name="" unicode="&#x41e;" d="M767 1467 q-315 -4 -494 -201 q-179 -197 -182 -545 q3 -348 182 -545 q179 -196 494 -200 q315 4 494 200 q179 197 182 545 q-3 348 -182 545 q-179 197 -494 201 l0 0 ZM767 1270 q208 -3 326 -148 q118 -146 120 -401 q-2 -255 -120 -400 q-118 -145 -326 -148 q-208 3 -326 148 q-119 145 -121 400 q2 255 121 401 q118 145 326 148 l0 0 Z" /><glyph glyph-name="" unicode="&#x4e6;" d="M566 1576 q51 1 85 35 q34 34 35 84 q-1 51 -35 84 q-34 34 -85 35 q-52 -1 -86 -35 q-34 -33 -35 -84 q1 -50 35 -84 q34 -34 86 -35 l0 0 ZM969 1576 q51 1 85 35 q34 34 35 84 q-1 51 -35 84 q-34 34 -85 35 q-52 -1 -86 -35 q-34 -33 -35 -84 q1 -50 35 -84 q34 -34 86 -35 l0 0 ZM767 1467 q-315 -4 -494 -201 q-179 -197 -182 -545 q3 -348 182 -545 q179 -196 494 -200 q315 4 494 200 q179 197 182 545 q-3 348 -182 545 q-179 197 -494 201 l0 0 ZM767 1270 q208 -3 326 -148 q118 -146 120 -401 q-2 -255 -120 -400 q-118 -145 -326 -148 q-208 3 -326 148 q-119 145 -121 400 q2 255 121 401 q118 145 326 148 l0 0 Z" /><glyph glyph-name="" unicode="&#x4e8;" d="M1205 649 q-18 -226 -133 -355 q-114 -129 -307 -132 q-195 3 -310 132 q-115 129 -133 355 l883 0 ZM324 824 q26 214 141 335 q115 120 300 122 q186 -2 300 -122 q113 -121 138 -335 l-879 0 ZM765 1478 q-314 -4 -492 -204 q-179 -200 -182 -552 q3 -352 180 -552 q177 -201 494 -205 q316 4 492 205 q177 201 180 552 q-3 352 -180 552 q-177 200 -492 204 l0 0 Z" /><glyph glyph-name="" unicode="&#x4ea;" d="M970 1576 q51 1 85 35 q34 34 35 84 q-1 51 -35 84 q-34 34 -85 35 q-52 -1 -86 -35 q-34 -33 -35 -84 q1 -50 35 -84 q34 -34 86 -35 l0 0 ZM567 1576 q51 1 85 35 q34 34 35 84 q-1 51 -35 84 q-34 34 -85 35 q-52 -1 -86 -35 q-34 -33 -35 -84 q1 -50 35 -84 q34 -34 86 -35 l0 0 ZM1205 649 q-18 -226 -133 -355 q-114 -129 -307 -132 q-195 3 -310 132 q-115 129 -133 355 l883 0 ZM324 824 q26 214 141 335 q115 120 300 122 q186 -2 300 -122 q113 -121 138 -335 l-879 0 ZM765 1478 q-314 -4 -492 -204 q-179 -200 -182 -552 q3 -352 180 -552 q177 -201 494 -205 q316 4 492 205 q177 201 180 552 q-3 352 -180 552 q-177 200 -492 204 l0 0 Z" /><glyph glyph-name="" unicode="&#x472;" d="M765 162 q-190 2 -305 126 q-114 123 -137 341 q24 28 69 46 q44 18 118 19 q121 -7 228 -55 q107 -47 268 -55 q62 0 112 16 q50 16 87 46 q-19 -224 -133 -353 q-115 -128 -307 -131 l0 0 ZM765 1281 q185 -2 299 -122 q113 -119 138 -332 q-24 -29 -69 -48 q-46 -18 -120 -19 q-127 7 -234 55 q-107 48 -263 55 q-60 0 -108 -16 q-48 -15 -85 -44 q23 220 138 345 q116 124 304 126 l0 0 ZM765 1478 q-314 -4 -492 -204 q-179 -200 -182 -552 q3 -352 180 -552 q177 -201 494 -205 q316 4 492 205 q177 201 180 552 q-3 352 -180 552 q-177 200 -492 204 l0 0 Z" /><glyph glyph-name="" unicode="&#x41f;" d="M1313 0 l0 1443 l-1170 0 l0 -1443 l225 0 l0 1248 l722 0 l0 -1248 l223 0 Z" /><glyph glyph-name="" unicode="&#x524;" d="M1313 193 l0 1250 l-1170 0 l0 -1443 l225 0 l0 1248 l722 0 l0 -1055 l0 -193 l197 0 l0 -285 l206 0 l0 478 l-180 0 Z" /><glyph glyph-name="" unicode="&#x40f;" d="M623 0 l0 -285 l209 0 l0 285 l481 0 l0 1443 l-224 0 l0 -1250 l-722 0 l0 1250 l-224 0 l0 -1443 l480 0 Z" /><glyph glyph-name="" unicode="&#x420;" d="M143 1443 l0 -1443 l224 0 l0 493 l334 0 q216 3 348 132 q131 129 135 344 q-3 214 -133 342 q-129 129 -343 132 l-565 0 ZM367 1254 l282 0 q147 -1 226 -75 q79 -74 80 -211 q-1 -137 -80 -212 q-80 -74 -226 -75 l-282 0 l0 573 Z" /><glyph glyph-name="" unicode="&#x48e;" d="M359 678 l0 576 l282 0 q148 -1 227 -74 q79 -74 80 -215 q0 -74 -24 -131 q-23 -56 -69 -93 l-146 223 l-131 -85 l124 -197 q-28 -4 -61 -4 l-282 0 ZM135 1443 l0 -1443 l224 0 l0 494 l289 0 q40 0 78 4 q38 4 73 12 l163 -258 l158 108 l-147 222 q96 62 149 160 q53 98 54 223 q-3 216 -132 346 q-129 129 -344 132 l-565 0 Z" /><glyph glyph-name="" unicode="&#x421;" d="M752 -27 q245 2 403 120 q158 118 206 334 l-225 0 q-39 -122 -138 -188 q-99 -66 -245 -67 q-201 3 -316 149 q-115 145 -117 401 q2 254 118 400 q115 146 314 149 q142 -2 245 -77 q102 -75 139 -205 l225 0 q-40 219 -203 349 q-164 129 -406 132 q-306 -4 -482 -203 q-175 -198 -179 -545 q3 -349 179 -547 q175 -198 482 -202 l0 0 Z" /><glyph glyph-name="" unicode="&#x4aa;" d="M1142 449 q-35 -131 -136 -204 q-101 -72 -253 -73 q-201 3 -316 149 q-115 145 -117 401 q2 254 118 400 q115 146 314 149 q149 -2 254 -84 q104 -81 136 -222 l222 0 q-33 229 -198 364 q-165 135 -414 138 q-306 -4 -482 -201 q-175 -198 -179 -544 q3 -330 161 -525 q159 -195 439 -219 l-51 -124 l0 -83 l55 0 q75 0 108 -15 q34 -15 33 -48 q0 -66 -115 -66 q-33 0 -67 4 q-34 4 -51 10 l0 -105 q31 -10 67 -14 q36 -4 78 -3 q103 2 164 50 q61 49 62 130 q0 75 -51 115 q-51 39 -149 39 l43 110 q224 18 366 140 q142 121 182 331 l-223 0 Z" /><glyph glyph-name="" unicode="&#x422;" d="M733 0 l0 1250 l449 0 l0 193 l-1123 0 l0 -193 l450 0 l0 -1250 l224 0 Z" /><glyph glyph-name="" unicode="&#x4ac;" d="M1182 1250 l0 193 l-1123 0 l0 -193 l450 0 l0 -1057 l0 -193 l198 0 l0 -285 l206 0 l0 478 l-180 0 l0 1057 l449 0 Z" /><glyph glyph-name="" unicode="&#x423;" d="M313 -11 q167 -3 275 96 q108 98 204 328 l442 1030 l-234 0 l-350 -887 l-15 0 l-361 887 l-238 0 l488 -1122 q-41 -71 -95 -103 q-55 -33 -129 -32 q-29 0 -50 3 q-21 3 -33 6 l0 -193 q10 -5 36 -9 q26 -4 60 -4 l0 0 Z" /><glyph glyph-name="" unicode="&#x40e;" d="M320 1846 q2 -137 90 -219 q87 -82 233 -84 q146 2 233 84 q88 82 90 219 l-142 0 q-2 -83 -51 -134 q-49 -52 -130 -54 q-81 2 -130 54 q-49 51 -51 134 l-142 0 ZM313 -11 q167 -3 275 96 q108 98 204 328 l442 1030 l-234 0 l-350 -887 l-15 0 l-361 887 l-238 0 l488 -1122 q-41 -71 -95 -103 q-55 -33 -129 -32 q-29 0 -50 3 q-21 3 -33 6 l0 -193 q10 -5 36 -9 q26 -4 60 -4 l0 0 Z" /><glyph glyph-name="" unicode="&#x4ee;" d="M313 -11 q167 -3 275 96 q108 98 204 328 l442 1030 l-234 0 l-350 -887 l-15 0 l-361 887 l-238 0 l488 -1122 q-41 -71 -95 -103 q-55 -33 -129 -32 q-29 0 -50 3 q-21 3 -33 6 l0 -193 q10 -5 36 -9 q26 -4 60 -4 l0 0 ZM971 1755 l-654 0 l0 -119 l654 0 l0 119 Z" /><glyph glyph-name="" unicode="&#x4f0;" d="M443 1576 q51 1 85 35 q34 34 35 84 q-1 51 -35 84 q-34 34 -85 35 q-52 -1 -86 -35 q-34 -33 -35 -84 q1 -50 35 -84 q34 -34 86 -35 l0 0 ZM846 1576 q51 1 85 35 q34 34 35 84 q-1 51 -35 84 q-34 34 -85 35 q-52 -1 -86 -35 q-34 -33 -35 -84 q1 -50 35 -84 q34 -34 86 -35 l0 0 ZM313 -11 q167 -3 275 96 q108 98 204 328 l442 1030 l-234 0 l-350 -887 l-15 0 l-361 887 l-238 0 l488 -1122 q-41 -71 -95 -103 q-55 -33 -129 -32 q-29 0 -50 3 q-21 3 -33 6 l0 -193 q10 -5 36 -9 q26 -4 60 -4 l0 0 Z" /><glyph glyph-name="" unicode="&#x4f2;" d="M313 -11 q167 -3 275 96 q108 98 204 328 l442 1030 l-234 0 l-350 -887 l-15 0 l-361 887 l-238 0 l488 -1122 q-41 -71 -95 -103 q-55 -33 -129 -32 q-29 0 -50 3 q-21 3 -33 6 l0 -193 q10 -5 36 -9 q26 -4 60 -4 l0 0 ZM907 1551 l280 303 l-217 0 l-231 -303 l168 0 ZM567 1551 l279 303 l-217 0 l-231 -303 l169 0 Z" /><glyph glyph-name="" unicode="&#x424;" d="M728 319 q-197 8 -309 115 q-112 107 -114 292 q2 183 114 290 q112 107 309 116 l0 -813 ZM1369 725 q-2 -182 -114 -289 q-112 -107 -308 -117 l0 813 q196 -9 308 -116 q112 -107 114 -291 l0 0 ZM727 128 l0 -152 l221 0 l0 152 q299 12 471 169 q173 157 176 428 q-3 273 -175 430 q-172 158 -472 168 l0 144 l-221 0 l0 -144 q-300 -12 -472 -169 q-172 -157 -175 -428 q4 -273 176 -430 q172 -157 471 -168 l0 0 Z" /><glyph glyph-name="" unicode="&#x425;" d="M54 0 l248 0 l364 550 l7 0 l359 -550 l262 0 l-480 716 l0 6 l489 721 l-253 0 l-360 -558 l-8 0 l-356 558 l-267 0 l474 -713 l0 -7 l-479 -723 Z" /><glyph glyph-name="" unicode="&#x4b2;" d="M1165 193 l-351 523 l0 6 l489 721 l-253 0 l-360 -558 l-8 0 l-356 558 l-267 0 l474 -713 l0 -7 l-479 -723 l248 0 l364 550 l7 0 l359 -550 l130 0 l0 -285 l206 0 l0 478 l-203 0 Z" /><glyph glyph-name="" unicode="&#x4fe;" d="M1203 647 l0 157 l-333 0 l433 639 l-253 0 l-360 -558 l-8 0 l-356 558 l-267 0 l425 -639 l-333 0 l0 -157 l332 0 l-429 -647 l248 0 l364 550 l7 0 l359 -550 l262 0 l-434 647 l343 0 Z" /><glyph glyph-name="" unicode="&#x4fc;" d="M59 1443 l477 -717 l-482 -726 l248 0 l359 543 l17 0 l211 -324 q34 -51 59 -95 q26 -45 47 -86 q19 -37 27 -70 q8 -32 8 -64 q-1 -56 -39 -88 q-38 -31 -99 -32 q-19 0 -35 1 q-15 1 -26 4 l0 -177 q14 -3 36 -5 q23 -2 54 -2 q149 2 240 84 q91 82 93 218 q0 54 -14 107 q-14 53 -45 113 q-27 51 -57 102 q-31 51 -70 109 l-255 381 l490 724 l-252 0 l-357 -551 l-17 0 l-351 551 l-267 0 Z" /><glyph glyph-name="" unicode="&#x426;" d="M1493 -285 l0 478 l-180 0 l0 1250 l-224 0 l0 -1250 l-722 0 l0 1250 l-224 0 l0 -1443 l1145 0 l0 -285 l205 0 Z" /><glyph glyph-name="" unicode="&#x4b4;" d="M1681 193 l0 1250 l-224 0 l0 -1250 l-726 0 l0 1057 l446 0 l0 193 l-446 0 l-224 0 l-448 0 l0 -193 l448 0 l0 -1250 l1149 0 l0 -285 l205 0 l0 478 l-180 0 Z" /><glyph glyph-name="" unicode="&#x427;" d="M1249 0 l0 1443 l-224 0 l0 -598 q-48 -49 -132 -85 q-85 -36 -203 -38 q-169 1 -258 91 q-88 89 -89 249 l0 381 l-224 0 l0 -389 q1 -230 140 -378 q140 -149 411 -154 q117 2 204 33 q86 32 137 73 l14 0 l0 -628 l224 0 Z" /><glyph glyph-name="" unicode="&#x4f4;" d="M1249 0 l0 1443 l-224 0 l0 -598 q-48 -49 -132 -85 q-85 -36 -203 -38 q-169 1 -258 91 q-88 89 -89 249 l0 381 l-224 0 l0 -389 q1 -230 140 -378 q140 -149 411 -154 q117 2 204 33 q86 32 137 73 l14 0 l0 -628 l224 0 ZM501 1576 q51 1 85 35 q34 34 35 84 q-1 51 -35 84 q-34 34 -85 35 q-52 -1 -86 -35 q-34 -33 -35 -84 q1 -50 35 -84 q34 -34 86 -35 l0 0 ZM904 1576 q51 1 85 35 q34 34 35 84 q-1 51 -35 84 q-34 34 -85 35 q-52 -1 -86 -35 q-34 -33 -35 -84 q1 -50 35 -84 q34 -34 86 -35 l0 0 Z" /><glyph glyph-name="" unicode="&#x4b6;" d="M1249 193 l0 1250 l-224 0 l0 -598 q-48 -49 -132 -85 q-85 -36 -203 -38 q-169 1 -258 91 q-88 89 -89 249 l0 381 l-224 0 l0 -389 q1 -230 140 -378 q140 -149 411 -154 q117 2 204 33 q86 32 137 73 l14 0 l0 -435 l0 -193 l199 0 l0 -285 l205 0 l0 478 l-180 0 Z" /><glyph glyph-name="" unicode="&#x4cb;" d="M1025 1443 l0 -598 q-48 -49 -132 -85 q-85 -36 -203 -38 q-169 1 -258 91 q-88 89 -89 249 l0 381 l-224 0 l0 -389 q1 -230 140 -378 q140 -149 411 -154 q117 2 204 33 q86 32 137 73 l14 0 l0 -435 l-180 0 l0 -478 l206 0 l0 285 l198 0 l0 193 l0 1250 l-224 0 Z" /><glyph glyph-name="" unicode="&#x4b8;" d="M1033 1443 l0 -594 q-42 -43 -107 -75 q-64 -32 -146 -45 l0 316 l-165 0 l0 -318 q-134 21 -203 108 q-69 86 -69 227 l0 381 l-224 0 l0 -389 q1 -218 128 -363 q126 -145 368 -167 l0 -264 l165 0 l0 271 q73 12 135 37 q61 25 107 61 l11 0 l0 -629 l223 0 l0 1443 l-223 0 Z" /><glyph glyph-name="" unicode="&#x4ba;" d="M143 1443 l0 -1443 l224 0 l0 614 q53 58 139 95 q86 36 198 37 q168 -2 256 -91 q88 -90 89 -249 l0 -406 l224 0 l0 414 q-1 231 -140 378 q-140 148 -408 153 q-106 -1 -193 -31 q-87 -30 -149 -78 l-16 0 l0 607 l-224 0 Z" /><glyph glyph-name="" unicode="&#x526;" d="M1273 193 l0 221 q-1 231 -140 378 q-140 148 -408 153 q-106 -1 -193 -31 q-87 -30 -149 -78 l-16 0 l0 607 l-224 0 l0 -1443 l224 0 l0 614 q53 58 139 95 q86 36 198 37 q168 -2 256 -91 q88 -90 89 -249 l0 -213 l0 -193 l199 0 l0 -285 l205 0 l0 478 l-180 0 Z" /><glyph glyph-name="" unicode="&#x40b;" d="M1062 711 q142 -1 218 -86 q76 -84 77 -240 l0 -385 l224 0 l0 400 q-2 233 -130 368 q-127 136 -356 139 q-108 0 -199 -35 q-91 -35 -155 -101 l-8 0 l0 479 l450 0 l0 193 l-1124 0 l0 -193 l450 0 l0 -1250 l224 0 l0 518 q41 84 131 138 q89 53 198 55 l0 0 Z" /><glyph glyph-name="" unicode="&#x428;" d="M143 0 l1635 0 l0 1443 l-224 0 l0 -1250 l-482 0 l0 1250 l-224 0 l0 -1250 l-481 0 l0 1250 l-224 0 l0 -1443 Z" /><glyph glyph-name="" unicode="&#x429;" d="M1958 -285 l0 478 l-180 0 l0 1250 l-224 0 l0 -1250 l-482 0 l0 1250 l-224 0 l0 -1250 l-481 0 l0 1250 l-224 0 l0 -1443 l1610 0 l0 -285 l205 0 Z" /><glyph glyph-name="" unicode="&#x42a;" d="M948 0 q214 3 343 128 q130 126 133 335 q-4 209 -135 334 q-132 126 -348 129 l-326 0 l0 517 l-556 0 l0 -193 l332 0 l0 -1250 l557 0 ZM615 190 l0 547 l274 0 q146 -1 225 -71 q79 -70 80 -203 q-1 -132 -79 -202 q-79 -70 -226 -71 l-274 0 Z" /><glyph glyph-name="" unicode="&#x42b;" d="M1580 0 l0 1443 l-224 0 l0 -1443 l224 0 ZM143 0 l557 0 q214 3 343 129 q130 125 133 334 q-4 209 -135 334 q-131 126 -348 129 l-326 0 l0 517 l-224 0 l0 -1443 ZM367 190 l0 547 l274 0 q146 -1 225 -71 q79 -70 80 -203 q-1 -132 -80 -202 q-79 -70 -225 -71 l-274 0 Z" /><glyph glyph-name="" unicode="&#x4f8;" d="M1580 0 l0 1443 l-224 0 l0 -1443 l224 0 ZM143 0 l557 0 q214 3 343 129 q130 125 133 334 q-4 209 -135 334 q-131 126 -348 129 l-326 0 l0 517 l-224 0 l0 -1443 ZM367 190 l0 547 l274 0 q146 -1 225 -71 q79 -70 80 -203 q-1 -132 -80 -202 q-79 -70 -225 -71 l-274 0 ZM660 1576 q51 1 85 35 q34 34 35 84 q-1 51 -35 84 q-34 34 -85 35 q-52 -1 -86 -35 q-34 -33 -35 -84 q1 -50 35 -84 q34 -34 86 -35 l0 0 ZM1063 1576 q51 1 85 35 q34 34 35 84 q-1 51 -35 84 q-34 34 -85 35 q-52 -1 -86 -35 q-34 -33 -35 -84 q1 -50 35 -84 q34 -34 86 -35 l0 0 Z" /><glyph glyph-name="" unicode="&#x48c;" d="M563 190 l0 540 l276 0 q146 -1 224 -70 q79 -70 80 -201 q-1 -130 -79 -199 q-78 -69 -224 -70 l-277 0 ZM563 919 l0 230 l386 0 l0 175 l-386 0 l0 188 l-223 0 l0 -188 l-326 0 l0 -175 l326 0 l0 -1149 l559 0 q213 3 341 128 q129 124 132 331 q-4 208 -134 332 q-131 125 -346 128 l-329 0 Z" /><glyph glyph-name="" unicode="&#x462;" d="M563 190 l0 540 l276 0 q146 -1 224 -70 q79 -70 80 -201 q-1 -130 -79 -199 q-78 -69 -224 -70 l-277 0 ZM563 919 l0 230 l386 0 l0 175 l-386 0 l0 188 l-223 0 l0 -188 l-326 0 l0 -175 l326 0 l0 -1149 l559 0 q213 3 341 128 q129 124 132 331 q-4 208 -134 332 q-131 125 -346 128 l-329 0 Z" /><glyph glyph-name="" unicode="&#x42c;" d="M143 0 l557 0 q214 3 343 129 q130 125 133 334 q-4 209 -135 334 q-131 126 -348 129 l-326 0 l0 517 l-224 0 l0 -1443 ZM367 190 l0 547 l274 0 q146 -1 225 -71 q79 -70 80 -203 q-1 -132 -80 -202 q-79 -70 -225 -71 l-274 0 Z" /><glyph glyph-name="" unicode="&#x409;" d="M521 551 l43 699 l488 0 l0 -1250 l558 0 q213 3 343 128 q129 126 132 335 q-4 209 -135 334 q-131 126 -347 129 l-327 0 l0 517 l-915 0 l-48 -881 q-6 -163 -49 -265 q-42 -102 -157 -105 q-16 0 -32 2 q-17 3 -27 5 l0 -198 q14 -5 36 -8 q21 -3 48 -3 q200 2 288 149 q88 147 101 412 l0 0 ZM1276 190 l0 547 l274 0 q146 -1 226 -71 q79 -70 80 -203 q-1 -132 -80 -202 q-79 -70 -225 -71 l-275 0 Z" /><glyph glyph-name="" unicode="&#x40a;" d="M367 645 l704 0 l0 -645 l558 0 q213 3 343 119 q129 115 132 307 q-4 185 -135 296 q-131 111 -347 114 l-327 0 l0 607 l-224 0 l0 -607 l-704 0 l0 607 l-224 0 l0 -1443 l224 0 l0 645 ZM1295 190 l0 458 l280 0 q144 -1 222 -58 q78 -57 79 -164 q-1 -113 -78 -174 q-78 -61 -223 -62 l-280 0 Z" /><glyph glyph-name="" unicode="&#x42d;" d="M694 -27 q307 4 480 202 q173 198 176 547 q-3 347 -177 545 q-174 199 -479 203 q-243 -3 -408 -132 q-166 -130 -206 -349 l225 0 q38 130 142 205 q104 75 247 77 q177 -2 290 -119 q112 -117 131 -322 l-613 0 l0 -188 l616 0 q-13 -220 -127 -344 q-113 -124 -298 -126 q-146 1 -247 67 q-101 66 -141 188 l-225 0 q49 -216 209 -334 q160 -118 405 -120 l0 0 Z" /><glyph glyph-name="" unicode="&#x4ec;" d="M694 -27 q307 4 480 202 q173 198 176 547 q-3 347 -177 545 q-174 199 -479 203 q-243 -3 -408 -132 q-166 -130 -206 -349 l225 0 q38 130 142 205 q104 75 247 77 q177 -2 290 -119 q112 -117 131 -322 l-613 0 l0 -188 l616 0 q-13 -220 -127 -344 q-113 -124 -298 -126 q-146 1 -247 67 q-101 66 -141 188 l-225 0 q49 -216 209 -334 q160 -118 405 -120 l0 0 ZM494 1576 q51 1 85 35 q34 34 35 84 q-1 51 -35 84 q-34 34 -85 35 q-52 -1 -86 -35 q-34 -33 -35 -84 q1 -50 35 -84 q34 -34 86 -35 l0 0 ZM897 1576 q51 1 85 35 q34 34 35 84 q-1 51 -35 84 q-34 34 -85 35 q-52 -1 -86 -35 q-34 -33 -35 -84 q1 -50 35 -84 q34 -34 86 -35 l0 0 Z" /><glyph glyph-name="" unicode="&#x42e;" d="M1274 -35 q311 4 485 205 q174 201 177 552 q-3 352 -178 552 q-174 200 -484 204 q-283 -3 -455 -172 q-173 -170 -204 -473 l-248 0 l0 610 l-224 0 l0 -1443 l224 0 l0 639 l246 0 q23 -314 196 -493 q172 -178 465 -181 l0 0 ZM1273 1280 q203 -3 317 -151 q114 -148 116 -407 q-2 -257 -116 -407 q-114 -149 -317 -152 q-205 3 -319 152 q-114 150 -116 407 q2 259 118 407 q115 148 317 151 l0 0 Z" /><glyph glyph-name="" unicode="&#x42f;" d="M951 727 l-294 0 q-143 1 -221 69 q-78 68 -79 195 q1 126 79 194 q78 68 221 69 l294 0 l0 -527 ZM690 543 l261 0 l0 -543 l223 0 l0 1443 l-562 0 q-220 -3 -351 -125 q-131 -123 -134 -326 q2 -160 91 -270 q88 -110 239 -150 l-402 -572 l257 0 l378 543 Z" /><glyph glyph-name="" unicode="&#x494;" d="M984 1443 l-841 0 l0 -1443 l224 0 l0 518 q42 85 135 138 q93 53 204 55 q134 -2 211 -77 q77 -75 79 -204 q-1 -129 -68 -201 q-67 -71 -185 -72 q-41 0 -75 5 q-34 4 -50 10 l0 -189 q16 -6 53 -11 q36 -6 83 -6 q216 3 340 129 q124 126 126 342 q-2 212 -131 339 q-129 128 -355 131 q-105 -1 -196 -37 q-92 -36 -155 -100 l-16 0 l0 480 l617 0 l0 193 Z" /><glyph glyph-name="" unicode="&#x4a6;" d="M143 1443 l0 -1443 l225 0 l0 1248 l664 0 l0 -1248 l222 0 l0 518 q42 85 135 138 q93 53 204 55 q134 -2 211 -77 q77 -75 79 -204 q-1 -129 -67 -200 q-66 -72 -186 -73 q-37 0 -71 4 q-34 4 -53 11 l0 -189 q20 -8 57 -12 q38 -5 78 -5 q216 3 340 128 q124 125 127 343 q-3 215 -133 341 q-131 126 -353 129 q-105 0 -196 -36 q-92 -36 -155 -101 l-17 0 l0 673 l-1111 0 Z" /><glyph glyph-name="" unicode="&#x404;" d="M1361 427 l-225 0 q-39 -122 -138 -188 q-99 -66 -245 -67 q-185 2 -301 126 q-116 124 -129 344 l616 0 l0 188 l-613 0 q20 205 134 322 q115 117 292 119 q142 -2 245 -77 q102 -75 139 -205 l225 0 q-40 219 -203 349 q-164 129 -406 132 q-306 -4 -482 -203 q-175 -198 -179 -545 q3 -349 179 -547 q175 -198 482 -202 q245 2 403 120 q158 118 206 334 l0 0 Z" /><glyph glyph-name="" unicode="&#x4c0;" d="M367 0 l0 1443 l-224 0 l0 -1443 l224 0 Z" /><glyph glyph-name="" unicode="&#x406;" d="M367 0 l0 1443 l-224 0 l0 -1443 l224 0 Z" /><glyph glyph-name="" unicode="&#x407;" d="M367 0 l0 1443 l-224 0 l0 -1443 l224 0 ZM54 1576 q51 1 85 35 q34 34 35 84 q-1 51 -35 84 q-34 34 -85 35 q-52 -1 -86 -35 q-34 -33 -35 -84 q1 -50 35 -84 q34 -34 86 -35 l0 0 ZM457 1576 q51 1 85 35 q34 34 35 84 q-1 51 -35 84 q-34 34 -85 35 q-52 -1 -86 -35 q-34 -33 -35 -84 q1 -50 35 -84 q34 -34 86 -35 l0 0 Z" /><glyph glyph-name="" unicode="&#x4a8;" d="M1281 1105 q121 -3 192 -91 q70 -88 72 -227 q-1 -165 -74 -303 q-73 -138 -199 -223 q-123 91 -188 228 q-65 136 -66 285 q0 144 66 236 q66 92 197 95 l0 0 ZM1844 219 q-51 -32 -113 -49 q-62 -18 -122 -18 q-74 0 -143 18 q133 102 216 263 q83 161 86 355 q-3 235 -133 372 q-131 138 -354 141 q-223 -5 -352 -154 q-130 -148 -133 -379 q1 -179 73 -330 q71 -152 205 -259 q-37 -8 -78 -13 q-42 -4 -89 -4 q-253 4 -416 163 q-163 158 -169 429 q1 196 109 339 q107 143 308 188 l0 206 q-292 -37 -468 -239 q-175 -203 -180 -491 q5 -355 225 -570 q219 -215 591 -221 q99 0 189 22 q89 21 172 63 q76 -43 160 -65 q84 -22 178 -22 q84 0 163 22 q78 22 149 66 l-74 167 Z" /><glyph glyph-name="" unicode="&#x4ae;" d="M760 0 l0 591 l509 852 l-248 0 l-368 -637 l-7 0 l-368 637 l-250 0 l508 -852 l0 -591 l224 0 Z" /><glyph glyph-name="" unicode="&#x4b0;" d="M1269 1443 l-248 0 l-368 -637 l-7 0 l-368 637 l-250 0 l451 -756 l-308 0 l0 -161 l365 0 l0 -526 l224 0 l0 526 l366 0 l0 161 l-309 0 l452 756 Z" /><glyph glyph-name="" unicode="&#x4bc;" d="M610 872 q25 190 130 299 q105 108 262 110 q171 -2 274 -108 q103 -107 117 -301 l-783 0 ZM605 690 l1028 0 q0 5 1 41 q0 37 0 48 q-3 327 -168 512 q-166 184 -460 187 q-256 -3 -421 -163 q-165 -161 -207 -440 q-82 2 -123 41 q-40 38 -40 109 q2 56 15 99 q13 42 14 44 l-192 0 q-2 -1 -17 -45 q-15 -45 -17 -120 q1 -134 91 -220 q89 -86 258 -93 q10 -340 185 -531 q174 -191 478 -194 q228 2 384 114 q156 112 201 303 l-227 0 q-39 -108 -129 -164 q-91 -56 -226 -56 q-197 3 -312 134 q-115 131 -116 353 l0 41 Z" /><glyph glyph-name="" unicode="&#x4be;" d="M1210 1576 q51 1 85 35 q34 34 35 84 q-1 51 -35 84 q-34 34 -85 35 q-52 -1 -86 -35 q-34 -33 -35 -84 q1 -50 35 -84 q34 -34 86 -35 l0 0 ZM807 1576 q51 1 85 35 q34 34 35 84 q-1 51 -35 84 q-34 34 -85 35 q-52 -1 -86 -35 q-34 -33 -35 -84 q1 -50 35 -84 q34 -34 86 -35 l0 0 ZM610 872 q25 190 130 299 q105 108 262 110 q171 -2 274 -108 q103 -107 117 -301 l-783 0 ZM605 690 l1028 0 q0 5 1 41 q0 37 0 48 q-3 327 -168 512 q-166 184 -460 187 q-256 -3 -421 -163 q-165 -161 -207 -440 q-82 2 -123 41 q-40 38 -40 109 q2 56 15 99 q13 42 14 44 l-192 0 q-2 -1 -17 -45 q-15 -45 -17 -120 q1 -134 91 -220 q89 -86 258 -93 q9 -308 154 -495 q146 -187 403 -223 l0 -257 l205 0 l0 256 q191 26 319 134 q128 108 167 277 l-227 0 q-39 -108 -129 -164 q-91 -56 -226 -56 q-197 3 -312 134 q-115 131 -116 353 l0 41 Z" /><glyph glyph-name="" unicode="&#x4d4;" d="M818 1263 l151 0 l0 -656 l-449 0 l298 656 ZM969 0 l900 0 l0 193 l-685 0 l0 441 l648 0 l0 186 l-648 0 l0 430 l685 0 l0 193 l-1189 0 l-661 -1443 l227 0 l196 428 l527 0 l0 -428 Z" /><glyph glyph-name="" unicode="&#x4d8;" d="M725 -35 q291 5 464 208 q172 203 176 547 q-3 351 -179 553 q-175 201 -480 205 q-220 -2 -376 -111 q-156 -109 -220 -306 l229 0 q47 109 137 164 q89 56 227 56 q191 -4 307 -136 q116 -133 118 -351 l0 -23 l-1037 0 q0 -4 0 -38 q0 -35 0 -51 q6 -332 172 -523 q166 -190 462 -194 l0 0 ZM728 162 q-172 2 -276 114 q-103 112 -120 314 l792 0 q-23 -198 -129 -312 q-105 -114 -267 -116 l0 0 Z" /><glyph glyph-name="" unicode="&#x4da;" d="M500 1576 q51 1 85 35 q34 34 35 84 q-1 51 -35 84 q-34 34 -85 35 q-52 -1 -86 -35 q-34 -33 -35 -84 q1 -50 35 -84 q34 -34 86 -35 l0 0 ZM903 1576 q51 1 85 35 q34 34 35 84 q-1 51 -35 84 q-34 34 -85 35 q-52 -1 -86 -35 q-34 -33 -35 -84 q1 -50 35 -84 q34 -34 86 -35 l0 0 ZM725 -35 q291 5 464 208 q172 203 176 547 q-3 351 -179 553 q-175 201 -480 205 q-220 -2 -376 -111 q-156 -109 -220 -306 l229 0 q47 109 137 164 q89 56 227 56 q191 -4 307 -136 q116 -133 118 -351 l0 -23 l-1037 0 q0 -4 0 -38 q0 -35 0 -51 q6 -332 172 -523 q166 -190 462 -194 l0 0 ZM728 162 q-172 2 -276 114 q-103 112 -120 314 l792 0 q-23 -198 -129 -312 q-105 -114 -267 -116 l0 0 Z" /><glyph glyph-name="" unicode="&#x4e0;" d="M597 -35 q237 3 381 126 q144 123 148 327 q-3 207 -128 319 q-126 112 -344 124 l0 16 l433 413 l0 153 l-961 0 l0 -193 l651 0 l0 -17 l-383 -362 l0 -175 l132 0 q181 0 276 -68 q94 -69 95 -212 q-2 -123 -82 -192 q-80 -70 -219 -71 q-132 1 -214 64 q-83 62 -94 171 l-216 0 q13 -194 153 -307 q141 -113 372 -116 l0 0 Z" /><glyph glyph-name="" unicode="&#x510;" d="M820 642 l0 187 l-194 0 q-126 2 -201 66 q-76 65 -78 171 q1 103 71 164 q70 60 198 61 q127 -1 204 -61 q76 -61 87 -170 l212 0 q-14 195 -148 306 q-134 110 -363 112 q-216 -3 -347 -109 q-131 -106 -135 -282 q2 -121 75 -209 q73 -88 194 -118 l0 -17 q-143 -15 -231 -106 q-87 -92 -90 -245 q5 -187 155 -305 q150 -118 385 -122 q239 3 384 116 q145 114 158 307 l-215 0 q-13 -107 -99 -169 q-86 -63 -228 -64 q-143 2 -225 69 q-83 68 -85 177 q1 113 83 176 q81 64 233 65 l200 0 Z" /><glyph glyph-name="" unicode="&#x474;" d="M798 0 l390 1088 q19 53 36 86 q18 33 34 49 q14 15 33 22 q18 7 41 7 q21 0 45 -5 q25 -5 48 -13 l63 179 q-39 22 -89 35 q-51 13 -98 13 q-52 0 -94 -12 q-41 -12 -74 -37 q-48 -35 -84 -99 q-37 -64 -69 -169 l-294 -876 l-17 0 l-389 1175 l-244 0 l516 -1443 l246 0 Z" /><glyph glyph-name="" unicode="&#x51c;" d="M950 1088 l10 0 l312 -1088 l211 0 l390 1443 l-233 0 l-267 -1130 l-8 0 l-306 1130 l-208 0 l-305 -1130 l-8 0 l-267 1130 l-233 0 l389 -1443 l212 0 l311 1088 Z" /><glyph glyph-name="" unicode="&#x402;" d="M1120 -34 q217 3 340 129 q124 126 126 342 q-2 212 -131 339 q-129 128 -355 131 q-110 0 -202 -35 q-92 -35 -157 -102 l-8 0 l0 480 l450 0 l0 193 l-1124 0 l0 -193 l450 0 l0 -1250 l224 0 l0 518 q42 85 135 138 q93 53 204 55 q134 -2 211 -77 q77 -75 79 -204 q-1 -129 -68 -201 q-66 -71 -185 -72 q-41 0 -75 5 q-33 4 -50 10 l0 -189 q16 -6 53 -11 q36 -6 83 -6 l0 0 Z" /><glyph glyph-name="" unicode="&#x405;" d="M78 402 q14 -198 160 -311 q147 -113 390 -115 q259 2 407 118 q147 116 150 321 q2 157 -98 253 q-101 96 -321 147 l-159 39 q-138 34 -201 83 q-62 49 -61 125 q2 98 81 156 q80 59 212 60 q132 -1 213 -61 q82 -61 93 -170 l218 0 q-9 190 -149 303 q-140 114 -372 117 q-235 -3 -378 -117 q-143 -113 -147 -303 q-1 -150 95 -246 q95 -96 293 -143 l187 -45 q139 -34 203 -88 q64 -54 63 -137 q-2 -99 -88 -160 q-86 -61 -225 -63 q-145 1 -238 65 q-93 63 -107 172 l-221 0 Z" /><glyph glyph-name="" unicode="&#x408;" d="M48 370 q3 -183 121 -291 q118 -108 316 -111 q212 1 330 119 q117 117 119 333 l0 1023 l-224 0 l0 -1022 q0 -124 -58 -188 q-58 -65 -169 -65 q-95 1 -153 56 q-58 55 -62 146 l-220 0 Z" /><glyph glyph-name="" unicode="a" d="M488 162 q-95 1 -150 42 q-55 40 -56 111 q0 72 57 113 q57 40 168 47 l264 18 l0 -85 q-3 -109 -81 -177 q-79 -67 -202 -69 l0 0 ZM430 -11 q113 1 205 52 q91 51 138 140 l5 0 l0 -181 l207 0 l0 745 q-2 163 -119 258 q-116 95 -317 97 q-187 -3 -305 -95 q-119 -92 -127 -239 l203 0 q15 71 74 113 q59 41 149 42 q109 0 168 -49 q59 -50 60 -143 l0 -84 l-293 -17 q-202 -13 -308 -94 q-106 -80 -107 -223 q3 -147 102 -234 q100 -86 265 -88 l0 0 Z" /><glyph glyph-name="" unicode="à" d="M488 162 q-95 1 -150 42 q-55 40 -56 111 q0 72 57 113 q57 40 168 47 l264 18 l0 -85 q-3 -109 -81 -177 q-79 -67 -202 -69 l0 0 ZM430 -11 q113 1 205 52 q91 51 138 140 l5 0 l0 -181 l207 0 l0 745 q-2 163 -119 258 q-116 95 -317 97 q-187 -3 -305 -95 q-119 -92 -127 -239 l203 0 q15 71 74 113 q59 41 149 42 q109 0 168 -49 q59 -50 60 -143 l0 -84 l-293 -17 q-202 -13 -308 -94 q-106 -80 -107 -223 q3 -147 102 -234 q100 -86 265 -88 l0 0 ZM630 1255 l-215 303 l-225 0 l262 -303 l178 0 Z" /><glyph glyph-name="" unicode="á" d="M488 162 q-95 1 -150 42 q-55 40 -56 111 q0 72 57 113 q57 40 168 47 l264 18 l0 -85 q-3 -109 -81 -177 q-79 -67 -202 -69 l0 0 ZM430 -11 q113 1 205 52 q91 51 138 140 l5 0 l0 -181 l207 0 l0 745 q-2 163 -119 258 q-116 95 -317 97 q-187 -3 -305 -95 q-119 -92 -127 -239 l203 0 q15 71 74 113 q59 41 149 42 q109 0 168 -49 q59 -50 60 -143 l0 -84 l-293 -17 q-202 -13 -308 -94 q-106 -80 -107 -223 q3 -147 102 -234 q100 -86 265 -88 l0 0 ZM632 1255 l262 303 l-225 0 l-215 -303 l178 0 Z" /><glyph glyph-name="" unicode="ä" d="M488 162 q-95 1 -150 42 q-55 40 -56 111 q0 72 57 113 q57 40 168 47 l264 18 l0 -85 q-3 -109 -81 -177 q-79 -67 -202 -69 l0 0 ZM430 -11 q113 1 205 52 q91 51 138 140 l5 0 l0 -181 l207 0 l0 745 q-2 163 -119 258 q-116 95 -317 97 q-187 -3 -305 -95 q-119 -92 -127 -239 l203 0 q15 71 74 113 q59 41 149 42 q109 0 168 -49 q59 -50 60 -143 l0 -84 l-293 -17 q-202 -13 -308 -94 q-106 -80 -107 -223 q3 -147 102 -234 q100 -86 265 -88 l0 0 ZM344 1260 q51 1 85 35 q34 34 35 84 q-1 51 -35 84 q-34 34 -85 35 q-52 -1 -86 -35 q-34 -33 -35 -84 q1 -50 35 -84 q34 -34 86 -35 l0 0 ZM747 1260 q51 1 85 35 q34 34 35 84 q-1 51 -35 84 q-34 34 -85 35 q-52 -1 -86 -35 q-34 -33 -35 -84 q1 -50 35 -84 q34 -34 86 -35 l0 0 Z" /><glyph glyph-name="" unicode="&#x1df;" d="M488 162 q-95 1 -150 42 q-55 40 -56 111 q0 72 57 113 q57 40 168 47 l264 18 l0 -85 q-3 -109 -81 -177 q-79 -67 -202 -69 l0 0 ZM430 -11 q113 1 205 52 q91 51 138 140 l5 0 l0 -181 l207 0 l0 745 q-2 163 -119 258 q-116 95 -317 97 q-187 -3 -305 -95 q-119 -92 -127 -239 l203 0 q15 71 74 113 q59 41 149 42 q109 0 168 -49 q59 -50 60 -143 l0 -84 l-293 -17 q-202 -13 -308 -94 q-106 -80 -107 -223 q3 -147 102 -234 q100 -86 265 -88 l0 0 ZM346 1260 q50 1 81 33 q32 32 33 80 q-1 48 -33 80 q-31 32 -81 33 q-49 -1 -81 -33 q-33 -32 -34 -80 q1 -48 34 -80 q32 -32 81 -33 l0 0 ZM744 1260 q50 1 82 33 q32 32 33 80 q-1 48 -33 80 q-32 32 -82 33 q-49 -1 -81 -33 q-32 -32 -33 -80 q1 -48 33 -80 q32 -32 81 -33 l0 0 ZM868 1777 l-646 0 l0 -119 l646 0 l0 119 Z" /><glyph glyph-name="" unicode="å" d="M488 162 q-95 1 -150 42 q-55 40 -56 111 q0 72 57 113 q57 40 168 47 l264 18 l0 -85 q-3 -109 -81 -177 q-79 -67 -202 -69 l0 0 ZM430 -11 q113 1 205 52 q91 51 138 140 l5 0 l0 -181 l207 0 l0 745 q-2 163 -119 258 q-116 95 -317 97 q-187 -3 -305 -95 q-119 -92 -127 -239 l203 0 q15 71 74 113 q59 41 149 42 q109 0 168 -49 q59 -50 60 -143 l0 -84 l-293 -17 q-202 -13 -308 -94 q-106 -80 -107 -223 q3 -147 102 -234 q100 -86 265 -88 l0 0 ZM545 1193 q87 2 146 61 q59 58 61 144 q-2 87 -61 145 q-59 59 -146 61 q-87 -2 -146 -61 q-59 -58 -61 -145 q2 -86 61 -144 q59 -59 146 -61 l0 0 ZM545 1288 q-47 1 -78 33 q-32 31 -33 77 q1 47 33 78 q31 32 78 33 q47 -1 78 -33 q32 -31 33 -78 q-1 -46 -33 -77 q-31 -32 -78 -33 l0 0 Z" /><glyph glyph-name="" unicode="&#x1fb;" d="M488 162 q-95 1 -150 42 q-55 40 -56 111 q0 72 57 113 q57 40 168 47 l264 18 l0 -85 q-3 -109 -81 -177 q-79 -67 -202 -69 l0 0 ZM430 -11 q113 1 205 52 q91 51 138 140 l5 0 l0 -181 l207 0 l0 745 q-2 163 -119 258 q-116 95 -317 97 q-187 -3 -305 -95 q-119 -92 -127 -239 l203 0 q15 71 74 113 q59 41 149 42 q109 0 168 -49 q59 -50 60 -143 l0 -84 l-293 -17 q-202 -13 -308 -94 q-106 -80 -107 -223 q3 -147 102 -234 q100 -86 265 -88 l0 0 ZM546 1193 q88 2 145 60 q58 57 60 144 q-2 88 -60 145 q-57 58 -145 60 q-88 -2 -146 -60 q-58 -57 -60 -145 q2 -87 60 -144 q58 -58 146 -60 l0 0 ZM436 1397 q1 47 32 78 q31 31 78 32 q46 -1 77 -32 q31 -31 32 -78 q-1 -46 -32 -77 q-31 -31 -77 -32 q-47 1 -78 32 q-31 31 -32 77 l0 0 ZM471 1673 l146 0 l165 203 l-186 0 l-125 -203 Z" /><glyph glyph-name="" unicode="ã" d="M488 162 q-95 1 -150 42 q-55 40 -56 111 q0 72 57 113 q57 40 168 47 l264 18 l0 -85 q-3 -109 -81 -177 q-79 -67 -202 -69 l0 0 ZM430 -11 q113 1 205 52 q91 51 138 140 l5 0 l0 -181 l207 0 l0 745 q-2 163 -119 258 q-116 95 -317 97 q-187 -3 -305 -95 q-119 -92 -127 -239 l203 0 q15 71 74 113 q59 41 149 42 q109 0 168 -49 q59 -50 60 -143 l0 -84 l-293 -17 q-202 -13 -308 -94 q-106 -80 -107 -223 q3 -147 102 -234 q100 -86 265 -88 l0 0 ZM681 1258 q85 1 136 70 q52 68 53 189 l-130 0 q0 -64 -16 -98 q-15 -34 -47 -34 q-51 9 -103 73 q-53 64 -153 73 q-88 -1 -139 -68 q-51 -67 -52 -189 l129 0 q1 61 18 95 q18 34 51 35 q54 -9 106 -73 q52 -64 147 -73 l0 0 Z" /><glyph glyph-name="" unicode="&#x1eb1;" d="M488 162 q-95 1 -150 42 q-55 40 -56 111 q0 72 57 113 q57 40 168 47 l264 18 l0 -85 q-3 -109 -81 -177 q-79 -67 -202 -69 l0 0 ZM430 -11 q113 1 205 52 q91 51 138 140 l5 0 l0 -181 l207 0 l0 745 q-2 163 -119 258 q-116 95 -317 97 q-187 -3 -305 -95 q-119 -92 -127 -239 l203 0 q15 71 74 113 q59 41 149 42 q109 0 168 -49 q59 -50 60 -143 l0 -84 l-293 -17 q-202 -13 -308 -94 q-106 -80 -107 -223 q3 -147 102 -234 q100 -86 265 -88 l0 0 ZM651 1567 l-175 293 l-194 0 l219 -293 l150 0 ZM873 1557 l-139 0 q-2 -87 -52 -138 q-50 -51 -137 -52 q-87 1 -137 52 q-50 51 -52 138 l-139 0 q2 -138 89 -221 q87 -83 239 -85 q152 2 239 85 q87 83 89 221 l0 0 Z" /><glyph glyph-name="" unicode="&#x1e1;" d="M488 162 q-95 1 -150 42 q-55 40 -56 111 q0 72 57 113 q57 40 168 47 l264 18 l0 -85 q-3 -109 -81 -177 q-79 -67 -202 -69 l0 0 ZM430 -11 q113 1 205 52 q91 51 138 140 l5 0 l0 -181 l207 0 l0 745 q-2 163 -119 258 q-116 95 -317 97 q-187 -3 -305 -95 q-119 -92 -127 -239 l203 0 q15 71 74 113 q59 41 149 42 q109 0 168 -49 q59 -50 60 -143 l0 -84 l-293 -17 q-202 -13 -308 -94 q-106 -80 -107 -223 q3 -147 102 -234 q100 -86 265 -88 l0 0 ZM545 1258 q56 1 93 38 q38 37 39 93 q-1 55 -39 92 q-37 37 -93 39 q-55 -2 -93 -39 q-37 -37 -39 -92 q2 -56 39 -93 q38 -37 93 -38 l0 0 ZM868 1779 l-646 0 l0 -119 l646 0 l0 119 Z" /><glyph glyph-name="" unicode="&#x1e01;" d="M488 162 q-95 1 -150 42 q-55 40 -56 111 q0 72 57 113 q57 40 168 47 l264 18 l0 -85 q-3 -109 -81 -177 q-79 -67 -202 -69 l0 0 ZM430 -11 q113 1 205 52 q91 51 138 140 l5 0 l0 -181 l207 0 l0 745 q-2 163 -119 258 q-116 95 -317 97 q-187 -3 -305 -95 q-119 -92 -127 -239 l203 0 q15 71 74 113 q59 41 149 42 q109 0 168 -49 q59 -50 60 -143 l0 -84 l-293 -17 q-202 -13 -308 -94 q-106 -80 -107 -223 q3 -147 102 -234 q100 -86 265 -88 l0 0 ZM532 -566 q87 2 146 61 q59 58 61 144 q-2 87 -61 145 q-59 59 -146 61 q-87 -2 -146 -61 q-59 -58 -61 -145 q2 -86 61 -144 q59 -59 146 -61 l0 0 ZM532 -471 q-47 1 -78 33 q-32 31 -33 77 q1 47 33 78 q31 32 78 33 q47 -1 78 -33 q32 -31 33 -78 q-1 -46 -33 -77 q-31 -32 -78 -33 l0 0 Z" /><glyph glyph-name="" unicode="â" d="M488 162 q-95 1 -150 42 q-55 40 -56 111 q0 72 57 113 q57 40 168 47 l264 18 l0 -85 q-3 -109 -81 -177 q-79 -67 -202 -69 l0 0 ZM430 -11 q113 1 205 52 q91 51 138 140 l5 0 l0 -181 l207 0 l0 745 q-2 163 -119 258 q-116 95 -317 97 q-187 -3 -305 -95 q-119 -92 -127 -239 l203 0 q15 71 74 113 q59 41 149 42 q109 0 168 -49 q59 -50 60 -143 l0 -84 l-293 -17 q-202 -13 -308 -94 q-106 -80 -107 -223 q3 -147 102 -234 q100 -86 265 -88 l0 0 ZM624 1558 l-158 0 l-273 -307 l185 0 l164 194 l6 0 l164 -194 l185 0 l-273 307 Z" /><glyph glyph-name="" unicode="&#x1ead;" d="M488 162 q-95 1 -150 42 q-55 40 -56 111 q0 72 57 113 q57 40 168 47 l264 18 l0 -85 q-3 -109 -81 -177 q-79 -67 -202 -69 l0 0 ZM430 -11 q113 1 205 52 q91 51 138 140 l5 0 l0 -181 l207 0 l0 745 q-2 163 -119 258 q-116 95 -317 97 q-187 -3 -305 -95 q-119 -92 -127 -239 l203 0 q15 71 74 113 q59 41 149 42 q109 0 168 -49 q59 -50 60 -143 l0 -84 l-293 -17 q-202 -13 -308 -94 q-106 -80 -107 -223 q3 -147 102 -234 q100 -86 265 -88 l0 0 ZM624 1558 l-158 0 l-273 -307 l185 0 l164 194 l6 0 l164 -194 l185 0 l-273 307 ZM532 -416 q56 1 93 39 q37 37 38 92 q-1 56 -38 93 q-37 37 -93 38 q-56 -1 -93 -38 q-37 -37 -38 -93 q1 -55 38 -92 q37 -38 93 -39 l0 0 Z" /><glyph glyph-name="" unicode="&#x1ea5;" d="M488 162 q-95 1 -150 42 q-55 40 -56 111 q0 72 57 113 q57 40 168 47 l264 18 l0 -85 q-3 -109 -81 -177 q-79 -67 -202 -69 l0 0 ZM430 -11 q113 1 205 52 q91 51 138 140 l5 0 l0 -181 l207 0 l0 745 q-2 163 -119 258 q-116 95 -317 97 q-187 -3 -305 -95 q-119 -92 -127 -239 l203 0 q15 71 74 113 q59 41 149 42 q109 0 168 -49 q59 -50 60 -143 l0 -84 l-293 -17 q-202 -13 -308 -94 q-106 -80 -107 -223 q3 -147 102 -234 q100 -86 265 -88 l0 0 ZM643 1522 l-196 0 l-260 -271 l183 0 l172 180 l6 0 l172 -180 l183 0 l-260 271 ZM709 1568 l158 0 l218 296 l-196 0 l-180 -296 Z" /><glyph glyph-name="" unicode="&#x1eab;" d="M488 162 q-95 1 -150 42 q-55 40 -56 111 q0 72 57 113 q57 40 168 47 l264 18 l0 -85 q-3 -109 -81 -177 q-79 -67 -202 -69 l0 0 ZM430 -11 q113 1 205 52 q91 51 138 140 l5 0 l0 -181 l207 0 l0 745 q-2 163 -119 258 q-116 95 -317 97 q-187 -3 -305 -95 q-119 -92 -127 -239 l203 0 q15 71 74 113 q59 41 149 42 q109 0 168 -49 q59 -50 60 -143 l0 -84 l-293 -17 q-202 -13 -308 -94 q-106 -80 -107 -223 q3 -147 102 -234 q100 -86 265 -88 l0 0 ZM643 1519 l-196 0 l-260 -268 l183 0 l172 177 l6 0 l172 -177 l183 0 l-260 268 ZM676 1605 q85 1 137 70 q51 69 52 190 l-129 0 q-1 -65 -17 -98 q-16 -34 -47 -34 q-51 9 -103 73 q-53 64 -153 73 q-88 -1 -139 -68 q-51 -68 -52 -190 l129 0 q1 62 18 96 q18 34 51 34 q55 -9 106 -73 q52 -64 147 -73 l0 0 Z" /><glyph glyph-name="" unicode="&#x1ea7;" d="M488 162 q-95 1 -150 42 q-55 40 -56 111 q0 72 57 113 q57 40 168 47 l264 18 l0 -85 q-3 -109 -81 -177 q-79 -67 -202 -69 l0 0 ZM430 -11 q113 1 205 52 q91 51 138 140 l5 0 l0 -181 l207 0 l0 745 q-2 163 -119 258 q-116 95 -317 97 q-187 -3 -305 -95 q-119 -92 -127 -239 l203 0 q15 71 74 113 q59 41 149 42 q109 0 168 -49 q59 -50 60 -143 l0 -84 l-293 -17 q-202 -13 -308 -94 q-106 -80 -107 -223 q3 -147 102 -234 q100 -86 265 -88 l0 0 ZM643 1522 l-196 0 l-260 -271 l183 0 l172 180 l6 0 l172 -180 l183 0 l-260 271 ZM930 1568 l-181 296 l-196 0 l219 -296 l158 0 Z" /><glyph glyph-name="" unicode="&#x1ea9;" d="M488 162 q-95 1 -150 42 q-55 40 -56 111 q0 72 57 113 q57 40 168 47 l264 18 l0 -85 q-3 -109 -81 -177 q-79 -67 -202 -69 l0 0 ZM430 -11 q113 1 205 52 q91 51 138 140 l5 0 l0 -181 l207 0 l0 745 q-2 163 -119 258 q-116 95 -317 97 q-187 -3 -305 -95 q-119 -92 -127 -239 l203 0 q15 71 74 113 q59 41 149 42 q109 0 168 -49 q59 -50 60 -143 l0 -84 l-293 -17 q-202 -13 -308 -94 q-106 -80 -107 -223 q3 -147 102 -234 q100 -86 265 -88 l0 0 ZM643 1737 q23 9 47 14 q24 4 50 4 q39 -1 63 -20 q24 -20 25 -51 q0 -33 -23 -60 q-23 -27 -65 -42 l75 -80 q72 25 109 75 q38 50 38 119 q-1 80 -56 125 q-54 46 -149 47 q-32 0 -63 -6 q-31 -6 -51 -16 l0 -109 ZM643 1522 l-196 0 l-260 -271 l183 0 l172 180 l6 0 l172 -180 l183 0 l-260 271 Z" /><glyph glyph-name="" unicode="&#x103;" d="M488 162 q-95 1 -150 42 q-55 40 -56 111 q0 72 57 113 q57 40 168 47 l264 18 l0 -85 q-3 -109 -81 -177 q-79 -67 -202 -69 l0 0 ZM430 -11 q113 1 205 52 q91 51 138 140 l5 0 l0 -181 l207 0 l0 745 q-2 163 -119 258 q-116 95 -317 97 q-187 -3 -305 -95 q-119 -92 -127 -239 l203 0 q15 71 74 113 q59 41 149 42 q109 0 168 -49 q59 -50 60 -143 l0 -84 l-293 -17 q-202 -13 -308 -94 q-106 -80 -107 -223 q3 -147 102 -234 q100 -86 265 -88 l0 0 ZM209 1557 q3 -140 92 -226 q90 -86 243 -88 q153 2 243 88 q89 86 92 226 l-143 0 q-2 -84 -55 -137 q-53 -54 -137 -56 q-84 2 -137 56 q-53 53 -55 137 l-143 0 Z" /><glyph glyph-name="" unicode="&#x1eaf;" d="M488 162 q-95 1 -150 42 q-55 40 -56 111 q0 72 57 113 q57 40 168 47 l264 18 l0 -85 q-3 -109 -81 -177 q-79 -67 -202 -69 l0 0 ZM430 -11 q113 1 205 52 q91 51 138 140 l5 0 l0 -181 l207 0 l0 745 q-2 163 -119 258 q-116 95 -317 97 q-187 -3 -305 -95 q-119 -92 -127 -239 l203 0 q15 71 74 113 q59 41 149 42 q109 0 168 -49 q59 -50 60 -143 l0 -84 l-293 -17 q-202 -13 -308 -94 q-106 -80 -107 -223 q3 -147 102 -234 q100 -86 265 -88 l0 0 ZM437 1568 l158 0 l218 296 l-196 0 l-180 -296 ZM873 1557 l-139 0 q-2 -87 -52 -138 q-50 -51 -137 -52 q-87 1 -137 52 q-50 51 -52 138 l-139 0 q2 -138 89 -221 q87 -83 239 -85 q152 2 239 85 q87 83 89 221 l0 0 Z" /><glyph glyph-name="" unicode="&#x1eb5;" d="M488 162 q-95 1 -150 42 q-55 40 -56 111 q0 72 57 113 q57 40 168 47 l264 18 l0 -85 q-3 -109 -81 -177 q-79 -67 -202 -69 l0 0 ZM430 -11 q113 1 205 52 q91 51 138 140 l5 0 l0 -181 l207 0 l0 745 q-2 163 -119 258 q-116 95 -317 97 q-187 -3 -305 -95 q-119 -92 -127 -239 l203 0 q15 71 74 113 q59 41 149 42 q109 0 168 -49 q59 -50 60 -143 l0 -84 l-293 -17 q-202 -13 -308 -94 q-106 -80 -107 -223 q3 -147 102 -234 q100 -86 265 -88 l0 0 ZM873 1557 l-139 0 q-2 -87 -52 -138 q-50 -51 -137 -52 q-87 1 -137 52 q-50 51 -52 138 l-139 0 q2 -138 89 -221 q87 -83 239 -85 q152 2 239 85 q87 83 89 221 l0 0 ZM676 1605 q85 1 137 70 q51 69 52 190 l-129 0 q-1 -65 -17 -98 q-16 -34 -47 -34 q-51 9 -103 73 q-53 64 -153 73 q-88 -1 -139 -68 q-51 -67 -52 -188 l129 0 q1 61 18 94 q18 34 51 34 q55 -9 106 -73 q52 -64 147 -73 l0 0 Z" /><glyph glyph-name="" unicode="&#x1eb3;" d="M488 162 q-95 1 -150 42 q-55 40 -56 111 q0 72 57 113 q57 40 168 47 l264 18 l0 -85 q-3 -109 -81 -177 q-79 -67 -202 -69 l0 0 ZM430 -11 q113 1 205 52 q91 51 138 140 l5 0 l0 -181 l207 0 l0 745 q-2 163 -119 258 q-116 95 -317 97 q-187 -3 -305 -95 q-119 -92 -127 -239 l203 0 q15 71 74 113 q59 41 149 42 q109 0 168 -49 q59 -50 60 -143 l0 -84 l-293 -17 q-202 -13 -308 -94 q-106 -80 -107 -223 q3 -147 102 -234 q100 -86 265 -88 l0 0 ZM873 1557 l-139 0 q-2 -87 -52 -138 q-50 -51 -137 -52 q-87 1 -137 52 q-50 51 -52 138 l-139 0 q2 -138 89 -221 q87 -83 239 -85 q152 2 239 85 q87 83 89 221 l0 0 ZM380 1746 q23 9 46 14 q24 4 49 4 q38 -1 62 -20 q24 -19 25 -50 q0 -31 -22 -57 q-23 -25 -65 -42 l75 -78 q70 24 107 72 q37 48 37 116 q-1 79 -55 124 q-54 45 -148 46 q-31 0 -61 -7 q-31 -6 -50 -16 l0 -106 Z" /><glyph glyph-name="" unicode="&#x1eb7;" d="M488 162 q-95 1 -150 42 q-55 40 -56 111 q0 72 57 113 q57 40 168 47 l264 18 l0 -85 q-3 -109 -81 -177 q-79 -67 -202 -69 l0 0 ZM430 -11 q113 1 205 52 q91 51 138 140 l5 0 l0 -181 l207 0 l0 745 q-2 163 -119 258 q-116 95 -317 97 q-187 -3 -305 -95 q-119 -92 -127 -239 l203 0 q15 71 74 113 q59 41 149 42 q109 0 168 -49 q59 -50 60 -143 l0 -84 l-293 -17 q-202 -13 -308 -94 q-106 -80 -107 -223 q3 -147 102 -234 q100 -86 265 -88 l0 0 ZM532 -416 q56 1 93 39 q37 37 38 92 q-1 56 -38 93 q-37 37 -93 38 q-56 -1 -93 -38 q-37 -37 -38 -93 q1 -55 38 -92 q37 -38 93 -39 l0 0 ZM209 1557 q3 -140 92 -226 q90 -86 243 -88 q153 2 243 88 q89 86 92 226 l-143 0 q-2 -84 -55 -137 q-53 -54 -137 -56 q-84 2 -137 56 q-53 53 -55 137 l-143 0 Z" /><glyph glyph-name="" unicode="&#x203;" d="M488 162 q-95 1 -150 42 q-55 40 -56 111 q0 72 57 113 q57 40 168 47 l264 18 l0 -85 q-3 -109 -81 -177 q-79 -67 -202 -69 l0 0 ZM430 -11 q113 1 205 52 q91 51 138 140 l5 0 l0 -181 l207 0 l0 745 q-2 163 -119 258 q-116 95 -317 97 q-187 -3 -305 -95 q-119 -92 -127 -239 l203 0 q15 71 74 113 q59 41 149 42 q109 0 168 -49 q59 -50 60 -143 l0 -84 l-293 -17 q-202 -13 -308 -94 q-106 -80 -107 -223 q3 -147 102 -234 q100 -86 265 -88 l0 0 ZM210 1251 l143 0 q2 84 55 137 q53 54 137 56 q84 -2 137 -56 q53 -53 55 -137 l143 0 q-3 140 -92 226 q-90 86 -243 88 q-153 -2 -243 -88 q-89 -86 -92 -226 l0 0 Z" /><glyph glyph-name="" unicode="&#x1ce;" d="M488 162 q-95 1 -150 42 q-55 40 -56 111 q0 72 57 113 q57 40 168 47 l264 18 l0 -85 q-3 -109 -81 -177 q-79 -67 -202 -69 l0 0 ZM430 -11 q113 1 205 52 q91 51 138 140 l5 0 l0 -181 l207 0 l0 745 q-2 163 -119 258 q-116 95 -317 97 q-187 -3 -305 -95 q-119 -92 -127 -239 l203 0 q15 71 74 113 q59 41 149 42 q109 0 168 -49 q59 -50 60 -143 l0 -84 l-293 -17 q-202 -13 -308 -94 q-106 -80 -107 -223 q3 -147 102 -234 q100 -86 265 -88 l0 0 ZM624 1251 l273 307 l-185 0 l-164 -194 l-6 0 l-164 194 l-185 0 l273 -307 l158 0 Z" /><glyph glyph-name="" unicode="&#x227;" d="M488 162 q-95 1 -150 42 q-55 40 -56 111 q0 72 57 113 q57 40 168 47 l264 18 l0 -85 q-3 -109 -81 -177 q-79 -67 -202 -69 l0 0 ZM430 -11 q113 1 205 52 q91 51 138 140 l5 0 l0 -181 l207 0 l0 745 q-2 163 -119 258 q-116 95 -317 97 q-187 -3 -305 -95 q-119 -92 -127 -239 l203 0 q15 71 74 113 q59 41 149 42 q109 0 168 -49 q59 -50 60 -143 l0 -84 l-293 -17 q-202 -13 -308 -94 q-106 -80 -107 -223 q3 -147 102 -234 q100 -86 265 -88 l0 0 ZM545 1262 q57 2 94 39 q38 38 39 93 q-1 56 -39 94 q-37 38 -94 39 q-57 -1 -95 -39 q-38 -38 -39 -94 q1 -55 39 -93 q38 -37 95 -39 l0 0 Z" /><glyph glyph-name="" unicode="&#x1ea1;" d="M488 162 q-95 1 -150 42 q-55 40 -56 111 q0 72 57 113 q57 40 168 47 l264 18 l0 -85 q-3 -109 -81 -177 q-79 -67 -202 -69 l0 0 ZM430 -11 q113 1 205 52 q91 51 138 140 l5 0 l0 -181 l207 0 l0 745 q-2 163 -119 258 q-116 95 -317 97 q-187 -3 -305 -95 q-119 -92 -127 -239 l203 0 q15 71 74 113 q59 41 149 42 q109 0 168 -49 q59 -50 60 -143 l0 -84 l-293 -17 q-202 -13 -308 -94 q-106 -80 -107 -223 q3 -147 102 -234 q100 -86 265 -88 l0 0 ZM532 -416 q56 1 93 39 q37 37 38 92 q-1 56 -38 93 q-37 37 -93 38 q-56 -1 -93 -38 q-37 -37 -38 -93 q1 -55 38 -92 q37 -38 93 -39 l0 0 Z" /><glyph glyph-name="" unicode="&#x1ea3;" d="M488 162 q-95 1 -150 42 q-55 40 -56 111 q0 72 57 113 q57 40 168 47 l264 18 l0 -85 q-3 -109 -81 -177 q-79 -67 -202 -69 l0 0 ZM430 -11 q113 1 205 52 q91 51 138 140 l5 0 l0 -181 l207 0 l0 745 q-2 163 -119 258 q-116 95 -317 97 q-187 -3 -305 -95 q-119 -92 -127 -239 l203 0 q15 71 74 113 q59 41 149 42 q109 0 168 -49 q59 -50 60 -143 l0 -84 l-293 -17 q-202 -13 -308 -94 q-106 -80 -107 -223 q3 -147 102 -234 q100 -86 265 -88 l0 0 ZM417 1449 q30 13 53 18 q24 5 49 5 q41 -1 67 -22 q26 -21 27 -55 q0 -38 -23 -64 q-22 -26 -71 -44 l70 -91 q80 31 125 87 q45 55 46 122 q-1 86 -55 135 q-55 50 -149 51 q-40 0 -74 -6 q-34 -7 -65 -20 l0 -116 Z" /><glyph glyph-name="" unicode="&#x201;" d="M488 162 q-95 1 -150 42 q-55 40 -56 111 q0 72 57 113 q57 40 168 47 l264 18 l0 -85 q-3 -109 -81 -177 q-79 -67 -202 -69 l0 0 ZM430 -11 q113 1 205 52 q91 51 138 140 l5 0 l0 -181 l207 0 l0 745 q-2 163 -119 258 q-116 95 -317 97 q-187 -3 -305 -95 q-119 -92 -127 -239 l203 0 q15 71 74 113 q59 41 149 42 q109 0 168 -49 q59 -50 60 -143 l0 -84 l-293 -17 q-202 -13 -308 -94 q-106 -80 -107 -223 q3 -147 102 -234 q100 -86 265 -88 l0 0 ZM461 1255 l-194 303 l-215 0 l247 -303 l162 0 ZM796 1255 l-193 303 l-216 0 l247 -303 l162 0 Z" /><glyph glyph-name="" unicode="&#x101;" d="M488 162 q-95 1 -150 42 q-55 40 -56 111 q0 72 57 113 q57 40 168 47 l264 18 l0 -85 q-3 -109 -81 -177 q-79 -67 -202 -69 l0 0 ZM430 -11 q113 1 205 52 q91 51 138 140 l5 0 l0 -181 l207 0 l0 745 q-2 163 -119 258 q-116 95 -317 97 q-187 -3 -305 -95 q-119 -92 -127 -239 l203 0 q15 71 74 113 q59 41 149 42 q109 0 168 -49 q59 -50 60 -143 l0 -84 l-293 -17 q-202 -13 -308 -94 q-106 -80 -107 -223 q3 -147 102 -234 q100 -86 265 -88 l0 0 ZM868 1431 l-646 0 l0 -119 l646 0 l0 119 Z" /><glyph glyph-name="" unicode="&#x105;" d="M488 162 q-95 1 -150 42 q-55 40 -56 111 q0 72 57 113 q57 40 168 47 l264 18 l0 -85 q-3 -109 -81 -177 q-79 -67 -202 -69 l0 0 ZM967 -425 l0 144 q-10 -3 -27 -4 q-18 -2 -40 -2 q-52 1 -83 27 q-30 27 -31 70 q1 57 49 106 q47 48 130 78 l20 6 l0 745 q-2 163 -119 258 q-116 95 -317 97 q-187 -3 -305 -95 q-119 -92 -127 -239 l203 0 q15 71 74 113 q59 41 149 42 q109 0 168 -49 q59 -50 60 -143 l0 -84 l-293 -17 q-202 -13 -308 -94 q-106 -80 -107 -223 q3 -147 102 -234 q100 -86 265 -88 q113 1 205 52 q91 51 138 140 l5 0 l0 -175 q-82 -34 -131 -98 q-49 -64 -50 -141 q2 -94 71 -151 q69 -57 183 -59 q39 0 67 5 q28 5 49 13 l0 0 Z" /><glyph glyph-name="" unicode="b" d="M683 -11 q210 3 332 151 q121 147 124 403 q-3 256 -124 403 q-122 148 -330 151 q-116 0 -205 -50 q-89 -49 -139 -141 l-4 0 l0 602 l-217 0 l0 -1508 l209 0 l0 184 l5 0 q51 -94 140 -144 q90 -51 209 -51 l0 0 ZM628 913 q133 -2 210 -101 q77 -98 79 -269 q-2 -171 -79 -269 q-77 -99 -210 -101 q-133 2 -212 102 q-78 100 -80 268 q2 168 80 268 q79 100 212 102 l0 0 Z" /><glyph glyph-name="" unicode="&#x1e07;" d="M953 -223 l-654 0 l0 -119 l654 0 l0 119 ZM683 -11 q210 3 332 151 q121 147 124 403 q-3 256 -124 403 q-122 148 -330 151 q-116 0 -205 -50 q-89 -49 -139 -141 l-4 0 l0 602 l-217 0 l0 -1508 l209 0 l0 184 l5 0 q51 -94 140 -144 q90 -51 209 -51 l0 0 ZM628 913 q133 -2 210 -101 q77 -98 79 -269 q-2 -171 -79 -269 q-77 -99 -210 -101 q-133 2 -212 102 q-78 100 -80 268 q2 168 80 268 q79 100 212 102 l0 0 Z" /><glyph glyph-name="" unicode="&#x1e05;" d="M626 -416 q56 1 93 39 q37 37 38 92 q-1 56 -38 93 q-37 37 -93 38 q-56 -1 -93 -38 q-37 -37 -38 -93 q1 -55 38 -92 q37 -38 93 -39 l0 0 ZM683 -11 q210 3 332 151 q121 147 124 403 q-3 256 -124 403 q-122 148 -330 151 q-116 0 -205 -50 q-89 -49 -139 -141 l-4 0 l0 602 l-217 0 l0 -1508 l209 0 l0 184 l5 0 q51 -94 140 -144 q90 -51 209 -51 l0 0 ZM628 913 q133 -2 210 -101 q77 -98 79 -269 q-2 -171 -79 -269 q-77 -99 -210 -101 q-133 2 -212 102 q-78 100 -80 268 q2 168 80 268 q79 100 212 102 l0 0 Z" /><glyph glyph-name="" unicode="&#x1e03;" d="M229 1641 q56 1 93 39 q37 37 38 92 q-1 56 -38 93 q-37 37 -93 38 q-56 -1 -93 -38 q-37 -37 -38 -93 q1 -55 38 -92 q37 -38 93 -39 l0 0 ZM683 -11 q210 3 332 151 q121 147 124 403 q-3 256 -124 403 q-122 148 -330 151 q-116 0 -205 -50 q-89 -49 -139 -141 l-4 0 l0 602 l-217 0 l0 -1508 l209 0 l0 184 l5 0 q51 -94 140 -144 q90 -51 209 -51 l0 0 ZM628 913 q133 -2 210 -101 q77 -98 79 -269 q-2 -171 -79 -269 q-77 -99 -210 -101 q-133 2 -212 102 q-78 100 -80 268 q2 168 80 268 q79 100 212 102 l0 0 Z" /><glyph glyph-name="" unicode="c" d="M1039 715 q-16 161 -137 271 q-122 110 -331 114 q-233 -3 -370 -152 q-136 -148 -139 -405 q3 -260 140 -407 q137 -146 371 -149 q198 2 323 104 q124 101 145 274 l-207 0 q-20 -96 -87 -146 q-67 -50 -173 -50 q-132 1 -211 99 q-79 98 -81 275 q2 173 80 273 q78 99 211 101 q112 -2 178 -58 q66 -56 81 -144 l207 0 Z" /><glyph glyph-name="" unicode="&#x107;" d="M1039 715 q-16 161 -137 271 q-122 110 -331 114 q-233 -3 -370 -152 q-136 -148 -139 -405 q3 -260 140 -407 q137 -146 371 -149 q198 2 323 104 q124 101 145 274 l-207 0 q-20 -96 -87 -146 q-67 -50 -173 -50 q-132 1 -211 99 q-79 98 -81 275 q2 173 80 273 q78 99 211 101 q112 -2 178 -58 q66 -56 81 -144 l207 0 ZM653 1255 l262 303 l-225 0 l-215 -303 l178 0 Z" /><glyph glyph-name="" unicode="&#x10d;" d="M645 1251 l273 307 l-185 0 l-164 -194 l-6 0 l-164 194 l-185 0 l273 -307 l158 0 ZM1039 715 q-16 161 -137 271 q-122 110 -331 114 q-233 -3 -370 -152 q-136 -148 -139 -405 q3 -260 140 -407 q137 -146 371 -149 q198 2 323 104 q124 101 145 274 l-207 0 q-20 -96 -87 -146 q-67 -50 -173 -50 q-132 1 -211 99 q-79 98 -81 275 q2 173 80 273 q78 99 211 101 q112 -2 178 -58 q66 -56 81 -144 l207 0 Z" /><glyph glyph-name="" unicode="&#x109;" d="M645 1558 l-158 0 l-273 -307 l185 0 l164 194 l6 0 l164 -194 l185 0 l-273 307 ZM1039 715 q-16 161 -137 271 q-122 110 -331 114 q-233 -3 -370 -152 q-136 -148 -139 -405 q3 -260 140 -407 q137 -146 371 -149 q198 2 323 104 q124 101 145 274 l-207 0 q-20 -96 -87 -146 q-67 -50 -173 -50 q-132 1 -211 99 q-79 98 -81 275 q2 173 80 273 q78 99 211 101 q112 -2 178 -58 q66 -56 81 -144 l207 0 Z" /><glyph glyph-name="" unicode="&#x10b;" d="M1039 715 q-16 161 -137 271 q-122 110 -331 114 q-233 -3 -370 -152 q-136 -148 -139 -405 q3 -260 140 -407 q137 -146 371 -149 q198 2 323 104 q124 101 145 274 l-207 0 q-20 -96 -87 -146 q-67 -50 -173 -50 q-132 1 -211 99 q-79 98 -81 275 q2 173 80 273 q78 99 211 101 q112 -2 178 -58 q66 -56 81 -144 l207 0 ZM566 1262 q57 2 94 39 q38 38 39 93 q-1 56 -39 94 q-37 38 -94 39 q-57 -1 -95 -39 q-38 -38 -39 -94 q1 -55 39 -93 q38 -37 95 -39 l0 0 Z" /><glyph glyph-name="" unicode="ç" d="M834 365 q-20 -96 -87 -146 q-67 -50 -173 -50 q-132 1 -211 99 q-79 98 -81 275 q2 173 80 273 q78 99 211 101 q112 -2 178 -58 q66 -56 81 -144 l207 0 q-16 161 -137 271 q-122 110 -331 114 q-233 -3 -370 -152 q-136 -148 -139 -405 q3 -244 123 -388 q121 -144 330 -165 l-55 -136 l0 -83 l55 0 q75 0 108 -15 q34 -15 33 -48 q0 -66 -115 -66 q-33 0 -67 4 q-34 4 -51 10 l0 -105 q31 -10 67 -14 q36 -4 78 -3 q103 2 164 50 q61 49 62 130 q0 75 -51 115 q-51 39 -149 39 l47 123 q170 20 275 118 q106 99 125 256 l-207 0 Z" /><glyph glyph-name="" unicode="&#x1e09;" d="M915 1558 l-225 0 l-215 -303 l178 0 l262 303 ZM834 365 q-20 -96 -87 -146 q-67 -50 -173 -50 q-132 1 -211 99 q-79 98 -81 275 q2 173 80 273 q78 99 211 101 q112 -2 178 -58 q66 -56 81 -144 l207 0 q-16 161 -137 271 q-122 110 -331 114 q-233 -3 -370 -152 q-136 -148 -139 -405 q3 -244 123 -388 q121 -144 330 -165 l-55 -136 l0 -83 l55 0 q75 0 108 -15 q34 -15 33 -48 q0 -66 -115 -66 q-33 0 -67 4 q-34 4 -51 10 l0 -105 q31 -10 67 -14 q36 -4 78 -3 q103 2 164 50 q61 49 62 130 q0 75 -51 115 q-51 39 -149 39 l47 123 q170 20 275 118 q106 99 125 256 l-207 0 Z" /><glyph glyph-name="" unicode="d" d="M520 -11 q120 1 209 51 q89 51 138 144 l4 0 l0 -184 l210 0 l0 1508 l-216 0 l0 -602 l-5 0 q-47 91 -136 141 q-88 49 -206 50 q-206 -3 -329 -151 q-124 -148 -127 -402 q3 -255 127 -403 q124 -149 331 -152 l0 0 ZM575 913 q132 -2 211 -102 q78 -100 80 -268 q-2 -169 -80 -268 q-79 -100 -211 -102 q-134 2 -211 101 q-78 98 -80 269 q2 170 80 269 q78 99 211 101 l0 0 Z" /><glyph glyph-name="" unicode="&#x1e0b;" d="M975 1641 q56 1 93 39 q37 37 38 92 q-1 56 -38 93 q-37 37 -93 38 q-56 -1 -93 -38 q-37 -37 -38 -93 q1 -55 38 -92 q37 -38 93 -39 l0 0 ZM520 -11 q120 1 209 51 q89 51 138 144 l4 0 l0 -184 l210 0 l0 1508 l-216 0 l0 -602 l-5 0 q-47 91 -136 141 q-88 49 -206 50 q-206 -3 -329 -151 q-124 -148 -127 -402 q3 -255 127 -403 q124 -149 331 -152 l0 0 ZM575 913 q132 -2 211 -102 q78 -100 80 -268 q-2 -169 -80 -268 q-79 -100 -211 -102 q-134 2 -211 101 q-78 98 -80 269 q2 170 80 269 q78 99 211 101 l0 0 Z" /><glyph glyph-name="" unicode="&#x1e13;" d="M520 -11 q120 1 209 51 q89 51 138 144 l4 0 l0 -184 l210 0 l0 1508 l-216 0 l0 -602 l-5 0 q-47 91 -136 141 q-88 49 -206 50 q-206 -3 -329 -151 q-124 -148 -127 -402 q3 -255 127 -403 q124 -149 331 -152 l0 0 ZM575 913 q132 -2 211 -102 q78 -100 80 -268 q-2 -169 -80 -268 q-79 -100 -211 -102 q-134 2 -211 101 q-78 98 -80 269 q2 170 80 269 q78 99 211 101 l0 0 ZM465 -164 l-286 -306 l188 0 l182 200 l4 0 l182 -200 l188 0 l-286 306 l-172 0 Z" /><glyph glyph-name="" unicode="&#x1e11;" d="M534 -526 l133 360 l-190 0 l-102 -360 l159 0 ZM520 -11 q120 1 209 51 q89 51 138 144 l4 0 l0 -184 l210 0 l0 1508 l-216 0 l0 -602 l-5 0 q-47 91 -136 141 q-88 49 -206 50 q-206 -3 -329 -151 q-124 -148 -127 -402 q3 -255 127 -403 q124 -149 331 -152 l0 0 ZM575 913 q132 -2 211 -102 q78 -100 80 -268 q-2 -169 -80 -268 q-79 -100 -211 -102 q-134 2 -211 101 q-78 98 -80 269 q2 170 80 269 q78 99 211 101 l0 0 Z" /><glyph glyph-name="" unicode="&#x1e0f;" d="M878 -223 l-654 0 l0 -119 l654 0 l0 119 ZM520 -11 q120 1 209 51 q89 51 138 144 l4 0 l0 -184 l210 0 l0 1508 l-216 0 l0 -602 l-5 0 q-47 91 -136 141 q-88 49 -206 50 q-206 -3 -329 -151 q-124 -148 -127 -402 q3 -255 127 -403 q124 -149 331 -152 l0 0 ZM575 913 q132 -2 211 -102 q78 -100 80 -268 q-2 -169 -80 -268 q-79 -100 -211 -102 q-134 2 -211 101 q-78 98 -80 269 q2 170 80 269 q78 99 211 101 l0 0 Z" /><glyph glyph-name="" unicode="&#x10f;" d="M1232 1506 l0 -493 l134 0 l34 493 l-168 0 ZM520 -11 q120 1 209 51 q89 51 138 144 l4 0 l0 -184 l210 0 l0 1508 l-216 0 l0 -602 l-5 0 q-47 91 -136 141 q-88 49 -206 50 q-206 -3 -329 -151 q-124 -148 -127 -402 q3 -255 127 -403 q124 -149 331 -152 l0 0 ZM575 913 q132 -2 211 -102 q78 -100 80 -268 q-2 -169 -80 -268 q-79 -100 -211 -102 q-134 2 -211 101 q-78 98 -80 269 q2 170 80 269 q78 99 211 101 l0 0 Z" /><glyph glyph-name="" unicode="&#x1e0d;" d="M551 -416 q56 1 93 39 q37 37 38 92 q-1 56 -38 93 q-37 37 -93 38 q-56 -1 -93 -38 q-37 -37 -38 -93 q1 -55 38 -92 q37 -38 93 -39 l0 0 ZM520 -11 q120 1 209 51 q89 51 138 144 l4 0 l0 -184 l210 0 l0 1508 l-216 0 l0 -602 l-5 0 q-47 91 -136 141 q-88 49 -206 50 q-206 -3 -329 -151 q-124 -148 -127 -402 q3 -255 127 -403 q124 -149 331 -152 l0 0 ZM575 913 q132 -2 211 -102 q78 -100 80 -268 q-2 -169 -80 -268 q-79 -100 -211 -102 q-134 2 -211 101 q-78 98 -80 269 q2 170 80 269 q78 99 211 101 l0 0 Z" /><glyph glyph-name="" unicode="&#x111;" d="M575 173 q-134 2 -211 101 q-78 98 -80 269 q2 170 80 269 q78 99 211 101 q132 -2 211 -102 q78 -100 80 -268 q-2 -169 -80 -268 q-79 -100 -211 -102 l0 0 ZM1203 1395 l-122 0 l0 113 l-216 0 l0 -113 l-237 0 l0 -133 l237 0 l0 -356 l-5 0 q-47 91 -136 141 q-88 49 -206 50 q-206 -3 -329 -151 q-124 -148 -127 -402 q3 -255 127 -403 q124 -149 331 -152 q120 1 209 51 q89 51 138 144 l4 0 l0 -184 l210 0 l0 1262 l122 0 l0 133 Z" /><glyph glyph-name="" unicode="e" d="M563 923 q120 -2 192 -77 q73 -76 78 -204 l-551 0 q11 127 87 203 q75 76 194 78 l0 0 ZM832 318 q-24 -72 -91 -113 q-68 -41 -164 -42 q-135 2 -215 86 q-79 83 -81 226 l0 13 l769 0 l0 76 q-2 249 -131 391 q-129 142 -355 145 q-231 -3 -365 -153 q-134 -150 -137 -408 q2 -258 137 -403 q135 -146 374 -149 q186 2 313 92 q126 90 153 239 l-207 0 Z" /><glyph glyph-name="" unicode="è" d="M649 1255 l-215 303 l-225 0 l262 -303 l178 0 ZM563 923 q120 -2 192 -77 q73 -76 78 -204 l-551 0 q11 127 87 203 q75 76 194 78 l0 0 ZM832 318 q-24 -72 -91 -113 q-68 -41 -164 -42 q-135 2 -215 86 q-79 83 -81 226 l0 13 l769 0 l0 76 q-2 249 -131 391 q-129 142 -355 145 q-231 -3 -365 -153 q-134 -150 -137 -408 q2 -258 137 -403 q135 -146 374 -149 q186 2 313 92 q126 90 153 239 l-207 0 Z" /><glyph glyph-name="" unicode="&#x205;" d="M563 923 q120 -2 192 -77 q73 -76 78 -204 l-551 0 q11 127 87 203 q75 76 194 78 l0 0 ZM832 318 q-24 -72 -91 -113 q-68 -41 -164 -42 q-135 2 -215 86 q-79 83 -81 226 l0 13 l769 0 l0 76 q-2 249 -131 391 q-129 142 -355 145 q-231 -3 -365 -153 q-134 -150 -137 -408 q2 -258 137 -403 q135 -146 374 -149 q186 2 313 92 q126 90 153 239 l-207 0 ZM480 1255 l-194 303 l-215 0 l247 -303 l162 0 ZM815 1255 l-193 303 l-216 0 l247 -303 l162 0 Z" /><glyph glyph-name="" unicode="é" d="M651 1255 l262 303 l-225 0 l-215 -303 l178 0 ZM563 923 q120 -2 192 -77 q73 -76 78 -204 l-551 0 q11 127 87 203 q75 76 194 78 l0 0 ZM832 318 q-24 -72 -91 -113 q-68 -41 -164 -42 q-135 2 -215 86 q-79 83 -81 226 l0 13 l769 0 l0 76 q-2 249 -131 391 q-129 142 -355 145 q-231 -3 -365 -153 q-134 -150 -137 -408 q2 -258 137 -403 q135 -146 374 -149 q186 2 313 92 q126 90 153 239 l-207 0 Z" /><glyph glyph-name="" unicode="ê" d="M643 1558 l-158 0 l-273 -307 l185 0 l164 194 l6 0 l164 -194 l185 0 l-273 307 ZM563 923 q120 -2 192 -77 q73 -76 78 -204 l-551 0 q11 127 87 203 q75 76 194 78 l0 0 ZM832 318 q-24 -72 -91 -113 q-68 -41 -164 -42 q-135 2 -215 86 q-79 83 -81 226 l0 13 l769 0 l0 76 q-2 249 -131 391 q-129 142 -355 145 q-231 -3 -365 -153 q-134 -150 -137 -408 q2 -258 137 -403 q135 -146 374 -149 q186 2 313 92 q126 90 153 239 l-207 0 Z" /><glyph glyph-name="" unicode="&#x1ec3;" d="M662 1737 q23 9 47 14 q24 4 50 4 q39 -1 63 -20 q24 -20 25 -51 q0 -33 -23 -60 q-23 -27 -65 -42 l75 -80 q72 25 109 75 q38 50 38 119 q-1 80 -56 125 q-54 46 -149 47 q-32 0 -63 -6 q-31 -6 -51 -16 l0 -109 ZM662 1522 l-196 0 l-260 -271 l183 0 l172 180 l6 0 l172 -180 l183 0 l-260 271 ZM563 923 q120 -2 192 -77 q73 -76 78 -204 l-551 0 q11 127 87 203 q75 76 194 78 l0 0 ZM832 318 q-24 -72 -91 -113 q-68 -41 -164 -42 q-135 2 -215 86 q-79 83 -81 226 l0 13 l769 0 l0 76 q-2 249 -131 391 q-129 142 -355 145 q-231 -3 -365 -153 q-134 -150 -137 -408 q2 -258 137 -403 q135 -146 374 -149 q186 2 313 92 q126 90 153 239 l-207 0 Z" /><glyph glyph-name="" unicode="&#x1ec1;" d="M662 1522 l-196 0 l-260 -271 l183 0 l172 180 l6 0 l172 -180 l183 0 l-260 271 ZM949 1568 l-181 296 l-196 0 l219 -296 l158 0 ZM563 923 q120 -2 192 -77 q73 -76 78 -204 l-551 0 q11 127 87 203 q75 76 194 78 l0 0 ZM832 318 q-24 -72 -91 -113 q-68 -41 -164 -42 q-135 2 -215 86 q-79 83 -81 226 l0 13 l769 0 l0 76 q-2 249 -131 391 q-129 142 -355 145 q-231 -3 -365 -153 q-134 -150 -137 -408 q2 -258 137 -403 q135 -146 374 -149 q186 2 313 92 q126 90 153 239 l-207 0 Z" /><glyph glyph-name="" unicode="&#x1ec5;" d="M563 923 q120 -2 192 -77 q73 -76 78 -204 l-551 0 q11 127 87 203 q75 76 194 78 l0 0 ZM832 318 q-24 -72 -91 -113 q-68 -41 -164 -42 q-135 2 -215 86 q-79 83 -81 226 l0 13 l769 0 l0 76 q-2 249 -131 391 q-129 142 -355 145 q-231 -3 -365 -153 q-134 -150 -137 -408 q2 -258 137 -403 q135 -146 374 -149 q186 2 313 92 q126 90 153 239 l-207 0 ZM662 1519 l-196 0 l-260 -268 l183 0 l172 177 l6 0 l172 -177 l183 0 l-260 268 ZM695 1605 q85 1 137 70 q51 69 52 190 l-129 0 q-1 -65 -17 -98 q-16 -34 -47 -34 q-51 9 -103 73 q-53 64 -153 73 q-88 -1 -139 -68 q-51 -68 -52 -190 l129 0 q1 62 18 96 q18 34 51 34 q55 -9 106 -73 q52 -64 147 -73 l0 0 Z" /><glyph glyph-name="" unicode="&#x1ec7;" d="M643 1558 l-158 0 l-273 -307 l185 0 l164 194 l6 0 l164 -194 l185 0 l-273 307 ZM563 923 q120 -2 192 -77 q73 -76 78 -204 l-551 0 q11 127 87 203 q75 76 194 78 l0 0 ZM832 318 q-24 -72 -91 -113 q-68 -41 -164 -42 q-135 2 -215 86 q-79 83 -81 226 l0 13 l769 0 l0 76 q-2 249 -131 391 q-129 142 -355 145 q-231 -3 -365 -153 q-134 -150 -137 -408 q2 -258 137 -403 q135 -146 374 -149 q186 2 313 92 q126 90 153 239 l-207 0 ZM570 -416 q56 1 93 39 q37 37 38 92 q-1 56 -38 93 q-37 37 -93 38 q-56 -1 -93 -38 q-37 -37 -38 -93 q1 -55 38 -92 q37 -38 93 -39 l0 0 Z" /><glyph glyph-name="" unicode="&#x1ebf;" d="M662 1522 l-196 0 l-260 -271 l183 0 l172 180 l6 0 l172 -180 l183 0 l-260 271 ZM728 1568 l158 0 l218 296 l-196 0 l-180 -296 ZM563 923 q120 -2 192 -77 q73 -76 78 -204 l-551 0 q11 127 87 203 q75 76 194 78 l0 0 ZM832 318 q-24 -72 -91 -113 q-68 -41 -164 -42 q-135 2 -215 86 q-79 83 -81 226 l0 13 l769 0 l0 76 q-2 249 -131 391 q-129 142 -355 145 q-231 -3 -365 -153 q-134 -150 -137 -408 q2 -258 137 -403 q135 -146 374 -149 q186 2 313 92 q126 90 153 239 l-207 0 Z" /><glyph glyph-name="" unicode="ë" d="M563 923 q120 -2 192 -77 q73 -76 78 -204 l-551 0 q11 127 87 203 q75 76 194 78 l0 0 ZM832 318 q-24 -72 -91 -113 q-68 -41 -164 -42 q-135 2 -215 86 q-79 83 -81 226 l0 13 l769 0 l0 76 q-2 249 -131 391 q-129 142 -355 145 q-231 -3 -365 -153 q-134 -150 -137 -408 q2 -258 137 -403 q135 -146 374 -149 q186 2 313 92 q126 90 153 239 l-207 0 ZM363 1260 q51 1 85 35 q34 34 35 84 q-1 51 -35 84 q-34 34 -85 35 q-52 -1 -86 -35 q-34 -33 -35 -84 q1 -50 35 -84 q34 -34 86 -35 l0 0 ZM766 1260 q51 1 85 35 q34 34 35 84 q-1 51 -35 84 q-34 34 -85 35 q-52 -1 -86 -35 q-34 -33 -35 -84 q1 -50 35 -84 q34 -34 86 -35 l0 0 Z" /><glyph glyph-name="" unicode="&#x1eb9;" d="M570 -416 q56 1 93 39 q37 37 38 92 q-1 56 -38 93 q-37 37 -93 38 q-56 -1 -93 -38 q-37 -37 -38 -93 q1 -55 38 -92 q37 -38 93 -39 l0 0 ZM563 923 q120 -2 192 -77 q73 -76 78 -204 l-551 0 q11 127 87 203 q75 76 194 78 l0 0 ZM832 318 q-24 -72 -91 -113 q-68 -41 -164 -42 q-135 2 -215 86 q-79 83 -81 226 l0 13 l769 0 l0 76 q-2 249 -131 391 q-129 142 -355 145 q-231 -3 -365 -153 q-134 -150 -137 -408 q2 -258 137 -403 q135 -146 374 -149 q186 2 313 92 q126 90 153 239 l-207 0 Z" /><glyph glyph-name="" unicode="&#x207;" d="M563 923 q120 -2 192 -77 q73 -76 78 -204 l-551 0 q11 127 87 203 q75 76 194 78 l0 0 ZM832 318 q-24 -72 -91 -113 q-68 -41 -164 -42 q-135 2 -215 86 q-79 83 -81 226 l0 13 l769 0 l0 76 q-2 249 -131 391 q-129 142 -355 145 q-231 -3 -365 -153 q-134 -150 -137 -408 q2 -258 137 -403 q135 -146 374 -149 q186 2 313 92 q126 90 153 239 l-207 0 ZM229 1251 l143 0 q2 84 55 137 q53 54 137 56 q84 -2 137 -56 q53 -53 55 -137 l143 0 q-3 140 -92 226 q-90 86 -243 88 q-153 -2 -243 -88 q-89 -86 -92 -226 l0 0 Z" /><glyph glyph-name="" unicode="&#x1ebb;" d="M563 923 q120 -2 192 -77 q73 -76 78 -204 l-551 0 q11 127 87 203 q75 76 194 78 l0 0 ZM832 318 q-24 -72 -91 -113 q-68 -41 -164 -42 q-135 2 -215 86 q-79 83 -81 226 l0 13 l769 0 l0 76 q-2 249 -131 391 q-129 142 -355 145 q-231 -3 -365 -153 q-134 -150 -137 -408 q2 -258 137 -403 q135 -146 374 -149 q186 2 313 92 q126 90 153 239 l-207 0 ZM436 1449 q30 13 53 18 q24 5 49 5 q41 -1 67 -22 q26 -21 27 -55 q0 -38 -23 -64 q-22 -26 -71 -44 l70 -91 q80 31 125 87 q45 55 46 122 q-1 86 -55 135 q-55 50 -149 51 q-40 0 -74 -6 q-34 -7 -65 -20 l0 -116 Z" /><glyph glyph-name="" unicode="&#x11b;" d="M643 1251 l273 307 l-185 0 l-164 -194 l-6 0 l-164 194 l-185 0 l273 -307 l158 0 ZM563 923 q120 -2 192 -77 q73 -76 78 -204 l-551 0 q11 127 87 203 q75 76 194 78 l0 0 ZM832 318 q-24 -72 -91 -113 q-68 -41 -164 -42 q-135 2 -215 86 q-79 83 -81 226 l0 13 l769 0 l0 76 q-2 249 -131 391 q-129 142 -355 145 q-231 -3 -365 -153 q-134 -150 -137 -408 q2 -258 137 -403 q135 -146 374 -149 q186 2 313 92 q126 90 153 239 l-207 0 Z" /><glyph glyph-name="" unicode="&#x113;" d="M563 923 q120 -2 192 -77 q73 -76 78 -204 l-551 0 q11 127 87 203 q75 76 194 78 l0 0 ZM832 318 q-24 -72 -91 -113 q-68 -41 -164 -42 q-135 2 -215 86 q-79 83 -81 226 l0 13 l769 0 l0 76 q-2 249 -131 391 q-129 142 -355 145 q-231 -3 -365 -153 q-134 -150 -137 -408 q2 -258 137 -403 q135 -146 374 -149 q186 2 313 92 q126 90 153 239 l-207 0 ZM887 1431 l-646 0 l0 -119 l646 0 l0 119 Z" /><glyph glyph-name="" unicode="&#x1e15;" d="M563 923 q120 -2 192 -77 q73 -76 78 -204 l-551 0 q11 127 87 203 q75 76 194 78 l0 0 ZM832 318 q-24 -72 -91 -113 q-68 -41 -164 -42 q-135 2 -215 86 q-79 83 -81 226 l0 13 l769 0 l0 76 q-2 249 -131 391 q-129 142 -355 145 q-231 -3 -365 -153 q-134 -150 -137 -408 q2 -258 137 -403 q135 -146 374 -149 q186 2 313 92 q126 90 153 239 l-207 0 ZM650 1602 l-163 262 l-212 0 l205 -262 l170 0 ZM887 1431 l-646 0 l0 -119 l646 0 l0 119 Z" /><glyph glyph-name="" unicode="&#x1e17;" d="M563 923 q120 -2 192 -77 q73 -76 78 -204 l-551 0 q11 127 87 203 q75 76 194 78 l0 0 ZM832 318 q-24 -72 -91 -113 q-68 -41 -164 -42 q-135 2 -215 86 q-79 83 -81 226 l0 13 l769 0 l0 76 q-2 249 -131 391 q-129 142 -355 145 q-231 -3 -365 -153 q-134 -150 -137 -408 q2 -258 137 -403 q135 -146 374 -149 q186 2 313 92 q126 90 153 239 l-207 0 ZM477 1603 l174 0 l206 261 l-212 0 l-168 -261 ZM887 1431 l-646 0 l0 -119 l646 0 l0 119 Z" /><glyph glyph-name="" unicode="&#x1ebd;" d="M563 923 q120 -2 192 -77 q73 -76 78 -204 l-551 0 q11 127 87 203 q75 76 194 78 l0 0 ZM832 318 q-24 -72 -91 -113 q-68 -41 -164 -42 q-135 2 -215 86 q-79 83 -81 226 l0 13 l769 0 l0 76 q-2 249 -131 391 q-129 142 -355 145 q-231 -3 -365 -153 q-134 -150 -137 -408 q2 -258 137 -403 q135 -146 374 -149 q186 2 313 92 q126 90 153 239 l-207 0 ZM700 1258 q85 1 136 70 q52 68 53 189 l-130 0 q0 -64 -16 -98 q-15 -34 -47 -34 q-51 9 -103 73 q-53 64 -153 73 q-88 -1 -139 -68 q-51 -67 -52 -189 l129 0 q1 61 18 95 q18 34 51 35 q54 -9 106 -73 q52 -64 147 -73 l0 0 Z" /><glyph glyph-name="" unicode="&#x1e19;" d="M563 923 q120 -2 192 -77 q73 -76 78 -204 l-551 0 q11 127 87 203 q75 76 194 78 l0 0 ZM832 318 q-24 -72 -91 -113 q-68 -41 -164 -42 q-135 2 -215 86 q-79 83 -81 226 l0 13 l769 0 l0 76 q-2 249 -131 391 q-129 142 -355 145 q-231 -3 -365 -153 q-134 -150 -137 -408 q2 -258 137 -403 q135 -146 374 -149 q186 2 313 92 q126 90 153 239 l-207 0 ZM484 -164 l-286 -306 l188 0 l182 200 l4 0 l182 -200 l188 0 l-286 306 l-172 0 Z" /><glyph glyph-name="" unicode="&#x115;" d="M563 923 q120 -2 192 -77 q73 -76 78 -204 l-551 0 q11 127 87 203 q75 76 194 78 l0 0 ZM832 318 q-24 -72 -91 -113 q-68 -41 -164 -42 q-135 2 -215 86 q-79 83 -81 226 l0 13 l769 0 l0 76 q-2 249 -131 391 q-129 142 -355 145 q-231 -3 -365 -153 q-134 -150 -137 -408 q2 -258 137 -403 q135 -146 374 -149 q186 2 313 92 q126 90 153 239 l-207 0 ZM228 1557 q3 -140 92 -226 q90 -86 243 -88 q153 2 243 88 q89 86 92 226 l-143 0 q-2 -84 -55 -137 q-53 -54 -137 -56 q-84 2 -137 56 q-53 53 -55 137 l-143 0 Z" /><glyph glyph-name="" unicode="&#x1e1b;" d="M703 -422 q85 1 136 70 q52 68 53 189 l-130 0 q0 -64 -16 -98 q-15 -34 -47 -34 q-51 9 -103 73 q-53 64 -153 73 q-88 -1 -139 -68 q-51 -67 -52 -189 l129 0 q1 61 18 95 q18 34 51 35 q54 -9 106 -73 q52 -64 147 -73 l0 0 ZM563 923 q120 -2 192 -77 q73 -76 78 -204 l-551 0 q11 127 87 203 q75 76 194 78 l0 0 ZM832 318 q-24 -72 -91 -113 q-68 -41 -164 -42 q-135 2 -215 86 q-79 83 -81 226 l0 13 l769 0 l0 76 q-2 249 -131 391 q-129 142 -355 145 q-231 -3 -365 -153 q-134 -150 -137 -408 q2 -258 137 -403 q135 -146 374 -149 q186 2 313 92 q126 90 153 239 l-207 0 Z" /><glyph glyph-name="" unicode="&#x117;" d="M564 1262 q57 2 94 39 q38 38 39 93 q-1 56 -39 94 q-37 38 -94 39 q-57 -1 -95 -39 q-38 -38 -39 -94 q1 -55 39 -93 q38 -37 95 -39 l0 0 ZM563 923 q120 -2 192 -77 q73 -76 78 -204 l-551 0 q11 127 87 203 q75 76 194 78 l0 0 ZM832 318 q-24 -72 -91 -113 q-68 -41 -164 -42 q-135 2 -215 86 q-79 83 -81 226 l0 13 l769 0 l0 76 q-2 249 -131 391 q-129 142 -355 145 q-231 -3 -365 -153 q-134 -150 -137 -408 q2 -258 137 -403 q135 -146 374 -149 q186 2 313 92 q126 90 153 239 l-207 0 Z" /><glyph glyph-name="" unicode="&#x229;" d="M282 642 q11 127 87 203 q75 76 194 78 q120 -2 192 -77 q73 -76 78 -204 l-551 0 ZM1050 488 l0 76 q-2 249 -131 391 q-129 142 -355 145 q-231 -3 -365 -153 q-134 -150 -137 -408 q2 -241 122 -386 q120 -144 333 -164 l-55 -135 l0 -83 l55 0 q75 0 108 -15 q34 -15 33 -48 q0 -66 -115 -66 q-33 0 -67 4 q-34 4 -51 10 l0 -105 q31 -10 67 -14 q36 -4 78 -3 q103 2 164 50 q61 49 62 130 q0 75 -51 115 q-51 39 -149 39 l47 123 q160 19 266 106 q107 87 130 221 l-207 0 q-24 -72 -91 -113 q-68 -41 -164 -42 q-135 2 -215 86 q-79 83 -81 226 l0 13 l769 0 Z" /><glyph glyph-name="" unicode="&#x1e1d;" d="M755 1557 q-2 -84 -55 -137 q-53 -54 -137 -56 q-84 2 -137 56 q-53 53 -55 137 l-143 0 q3 -140 92 -226 q90 -86 243 -88 q153 2 243 88 q89 86 92 226 l-143 0 ZM282 642 q11 127 87 203 q75 76 194 78 q120 -2 192 -77 q73 -76 78 -204 l-551 0 ZM1050 488 l0 76 q-2 249 -131 391 q-129 142 -355 145 q-231 -3 -365 -153 q-134 -150 -137 -408 q2 -241 122 -386 q120 -144 333 -164 l-55 -135 l0 -83 l55 0 q75 0 108 -15 q34 -15 33 -48 q0 -66 -115 -66 q-33 0 -67 4 q-34 4 -51 10 l0 -105 q31 -10 67 -14 q36 -4 78 -3 q103 2 164 50 q61 49 62 130 q0 75 -51 115 q-51 39 -149 39 l47 123 q160 19 266 106 q107 87 130 221 l-207 0 q-24 -72 -91 -113 q-68 -41 -164 -42 q-135 2 -215 86 q-79 83 -81 226 l0 13 l769 0 Z" /><glyph glyph-name="" unicode="&#x119;" d="M764 -443 q69 0 116 18 l0 144 q-10 -3 -27 -4 q-18 -2 -40 -2 q-52 1 -83 27 q-30 27 -31 72 q0 57 36 112 q36 55 111 115 q83 65 132 136 q49 71 61 143 l-207 0 q-24 -72 -91 -113 q-68 -41 -164 -42 q-135 2 -215 86 q-79 83 -81 226 l0 13 l769 0 l0 76 q-2 249 -131 391 q-129 142 -355 145 q-231 -3 -365 -153 q-134 -150 -137 -408 q2 -258 137 -403 q135 -146 374 -149 q19 0 38 1 q19 2 32 4 l0 -5 q-67 -47 -100 -102 q-33 -55 -33 -118 q2 -94 71 -151 q69 -57 183 -59 l0 0 ZM563 923 q120 -2 192 -77 q73 -76 78 -204 l-551 0 q11 127 87 203 q75 76 194 78 l0 0 Z" /><glyph glyph-name="" unicode="f" d="M176 0 l216 0 l0 915 l207 0 l0 171 l-209 0 l0 93 q0 69 31 101 q30 31 96 31 q22 0 43 -2 q21 -2 38 -6 l0 165 q-26 5 -53 7 q-28 3 -57 3 q-164 1 -238 -70 q-75 -71 -74 -222 l0 -100 l-150 0 l0 -171 l150 0 l0 -915 Z" /><glyph glyph-name="" unicode="&#x1e1f;" d="M392 1607 q56 1 93 39 q37 37 38 92 q-1 56 -38 93 q-37 37 -93 38 q-56 -1 -93 -38 q-37 -37 -38 -93 q1 -55 38 -92 q37 -38 93 -39 l0 0 ZM176 0 l216 0 l0 915 l207 0 l0 171 l-209 0 l0 93 q0 69 31 101 q30 31 96 31 q22 0 43 -2 q21 -2 38 -6 l0 165 q-26 5 -53 7 q-28 3 -57 3 q-164 1 -238 -70 q-75 -71 -74 -222 l0 -100 l-150 0 l0 -171 l150 0 l0 -915 Z" /><glyph glyph-name="" unicode="g" d="M572 183 q-133 2 -210 98 q-76 97 -78 265 q2 169 78 267 q77 98 210 100 q134 -2 213 -101 q78 -99 80 -266 q-2 -166 -80 -264 q-79 -97 -213 -99 l0 0 ZM574 -409 q233 3 369 117 q135 115 138 312 l0 1066 l-210 0 l0 -180 l-4 0 q-51 91 -141 141 q-90 49 -206 50 q-211 -3 -333 -149 q-122 -147 -125 -401 q3 -251 125 -396 q122 -145 328 -148 q117 1 207 50 q90 49 138 137 l5 0 l0 -177 q-1 -115 -75 -183 q-74 -67 -208 -69 q-97 1 -167 42 q-69 41 -94 111 l-219 0 q24 -144 152 -232 q127 -88 320 -91 l0 0 Z" /><glyph glyph-name="" unicode="&#x1f5;" d="M661 1255 l262 303 l-225 0 l-215 -303 l178 0 ZM572 183 q-133 2 -210 98 q-76 97 -78 265 q2 169 78 267 q77 98 210 100 q134 -2 213 -101 q78 -99 80 -266 q-2 -166 -80 -264 q-79 -97 -213 -99 l0 0 ZM574 -409 q233 3 369 117 q135 115 138 312 l0 1066 l-210 0 l0 -180 l-4 0 q-51 91 -141 141 q-90 49 -206 50 q-211 -3 -333 -149 q-122 -147 -125 -401 q3 -251 125 -396 q122 -145 328 -148 q117 1 207 50 q90 49 138 137 l5 0 l0 -177 q-1 -115 -75 -183 q-74 -67 -208 -69 q-97 1 -167 42 q-69 41 -94 111 l-219 0 q24 -144 152 -232 q127 -88 320 -91 l0 0 Z" /><glyph glyph-name="" unicode="&#x1e7;" d="M653 1251 l273 307 l-185 0 l-164 -194 l-6 0 l-164 194 l-185 0 l273 -307 l158 0 ZM572 183 q-133 2 -210 98 q-76 97 -78 265 q2 169 78 267 q77 98 210 100 q134 -2 213 -101 q78 -99 80 -266 q-2 -166 -80 -264 q-79 -97 -213 -99 l0 0 ZM574 -409 q233 3 369 117 q135 115 138 312 l0 1066 l-210 0 l0 -180 l-4 0 q-51 91 -141 141 q-90 49 -206 50 q-211 -3 -333 -149 q-122 -147 -125 -401 q3 -251 125 -396 q122 -145 328 -148 q117 1 207 50 q90 49 138 137 l5 0 l0 -177 q-1 -115 -75 -183 q-74 -67 -208 -69 q-97 1 -167 42 q-69 41 -94 111 l-219 0 q24 -144 152 -232 q127 -88 320 -91 l0 0 Z" /><glyph glyph-name="" unicode="&#x11d;" d="M653 1558 l-158 0 l-273 -307 l185 0 l164 194 l6 0 l164 -194 l185 0 l-273 307 ZM572 183 q-133 2 -210 98 q-76 97 -78 265 q2 169 78 267 q77 98 210 100 q134 -2 213 -101 q78 -99 80 -266 q-2 -166 -80 -264 q-79 -97 -213 -99 l0 0 ZM574 -409 q233 3 369 117 q135 115 138 312 l0 1066 l-210 0 l0 -180 l-4 0 q-51 91 -141 141 q-90 49 -206 50 q-211 -3 -333 -149 q-122 -147 -125 -401 q3 -251 125 -396 q122 -145 328 -148 q117 1 207 50 q90 49 138 137 l5 0 l0 -177 q-1 -115 -75 -183 q-74 -67 -208 -69 q-97 1 -167 42 q-69 41 -94 111 l-219 0 q24 -144 152 -232 q127 -88 320 -91 l0 0 Z" /><glyph glyph-name="" unicode="&#x11f;" d="M238 1557 q3 -140 92 -226 q90 -86 243 -88 q153 2 243 88 q89 86 92 226 l-143 0 q-2 -84 -55 -137 q-53 -54 -137 -56 q-84 2 -137 56 q-53 53 -55 137 l-143 0 ZM572 183 q-133 2 -210 98 q-76 97 -78 265 q2 169 78 267 q77 98 210 100 q134 -2 213 -101 q78 -99 80 -266 q-2 -166 -80 -264 q-79 -97 -213 -99 l0 0 ZM574 -409 q233 3 369 117 q135 115 138 312 l0 1066 l-210 0 l0 -180 l-4 0 q-51 91 -141 141 q-90 49 -206 50 q-211 -3 -333 -149 q-122 -147 -125 -401 q3 -251 125 -396 q122 -145 328 -148 q117 1 207 50 q90 49 138 137 l5 0 l0 -177 q-1 -115 -75 -183 q-74 -67 -208 -69 q-97 1 -167 42 q-69 41 -94 111 l-219 0 q24 -144 152 -232 q127 -88 320 -91 l0 0 Z" /><glyph glyph-name="" unicode="&#x1e21;" d="M897 1431 l-646 0 l0 -119 l646 0 l0 119 ZM572 183 q-133 2 -210 98 q-76 97 -78 265 q2 169 78 267 q77 98 210 100 q134 -2 213 -101 q78 -99 80 -266 q-2 -166 -80 -264 q-79 -97 -213 -99 l0 0 ZM574 -409 q233 3 369 117 q135 115 138 312 l0 1066 l-210 0 l0 -180 l-4 0 q-51 91 -141 141 q-90 49 -206 50 q-211 -3 -333 -149 q-122 -147 -125 -401 q3 -251 125 -396 q122 -145 328 -148 q117 1 207 50 q90 49 138 137 l5 0 l0 -177 q-1 -115 -75 -183 q-74 -67 -208 -69 q-97 1 -167 42 q-69 41 -94 111 l-219 0 q24 -144 152 -232 q127 -88 320 -91 l0 0 Z" /><glyph glyph-name="" unicode="&#x121;" d="M574 1262 q57 2 94 39 q38 38 39 93 q-1 56 -39 94 q-37 38 -94 39 q-57 -1 -95 -39 q-38 -38 -39 -94 q1 -55 39 -93 q38 -37 95 -39 l0 0 ZM572 183 q-133 2 -210 98 q-76 97 -78 265 q2 169 78 267 q77 98 210 100 q134 -2 213 -101 q78 -99 80 -266 q-2 -166 -80 -264 q-79 -97 -213 -99 l0 0 ZM574 -409 q233 3 369 117 q135 115 138 312 l0 1066 l-210 0 l0 -180 l-4 0 q-51 91 -141 141 q-90 49 -206 50 q-211 -3 -333 -149 q-122 -147 -125 -401 q3 -251 125 -396 q122 -145 328 -148 q117 1 207 50 q90 49 138 137 l5 0 l0 -177 q-1 -115 -75 -183 q-74 -67 -208 -69 q-97 1 -167 42 q-69 41 -94 111 l-219 0 q24 -144 152 -232 q127 -88 320 -91 l0 0 Z" /><glyph glyph-name="" unicode="&#x123;" d="M634 1615 l-133 -360 l190 0 l102 360 l-159 0 ZM572 183 q-133 2 -210 98 q-76 97 -78 265 q2 169 78 267 q77 98 210 100 q134 -2 213 -101 q78 -99 80 -266 q-2 -166 -80 -264 q-79 -97 -213 -99 l0 0 ZM574 -409 q233 3 369 117 q135 115 138 312 l0 1066 l-210 0 l0 -180 l-4 0 q-51 91 -141 141 q-90 49 -206 50 q-211 -3 -333 -149 q-122 -147 -125 -401 q3 -251 125 -396 q122 -145 328 -148 q117 1 207 50 q90 49 138 137 l5 0 l0 -177 q-1 -115 -75 -183 q-74 -67 -208 -69 q-97 1 -167 42 q-69 41 -94 111 l-219 0 q24 -144 152 -232 q127 -88 320 -91 l0 0 Z" /><glyph glyph-name="" unicode="h" d="M120 0 l217 0 l0 622 q1 132 72 210 q71 78 199 80 q119 -1 180 -69 q60 -68 60 -191 l0 -652 l217 0 l0 694 q-1 186 -101 294 q-100 108 -281 110 q-124 0 -209 -49 q-85 -50 -134 -146 l-5 0 l0 605 l-215 0 l0 -1508 Z" /><glyph glyph-name="" unicode="&#x1e27;" d="M120 0 l217 0 l0 622 q1 132 72 210 q71 78 199 80 q119 -1 180 -69 q60 -68 60 -191 l0 -652 l217 0 l0 694 q-1 186 -101 294 q-100 108 -281 110 q-124 0 -209 -49 q-85 -50 -134 -146 l-5 0 l0 605 l-215 0 l0 -1508 ZM28 1641 q51 1 85 35 q34 34 35 84 q-1 51 -35 84 q-34 34 -85 35 q-52 -1 -86 -35 q-34 -33 -35 -84 q1 -50 35 -84 q34 -34 86 -35 l0 0 ZM431 1641 q51 1 85 35 q34 34 35 84 q-1 51 -35 84 q-34 34 -85 35 q-52 -1 -86 -35 q-34 -33 -35 -84 q1 -50 35 -84 q34 -34 86 -35 l0 0 Z" /><glyph glyph-name="" unicode="&#x21f;" d="M120 0 l217 0 l0 622 q1 132 72 210 q71 78 199 80 q119 -1 180 -69 q60 -68 60 -191 l0 -652 l217 0 l0 694 q-1 186 -101 294 q-100 108 -281 110 q-124 0 -209 -49 q-85 -50 -134 -146 l-5 0 l0 605 l-215 0 l0 -1508 ZM143 1612 l172 0 l286 306 l-188 0 l-182 -199 l-4 0 l-182 199 l-188 0 l286 -306 Z" /><glyph glyph-name="" unicode="&#x125;" d="M120 0 l217 0 l0 622 q1 132 72 210 q71 78 199 80 q119 -1 180 -69 q60 -68 60 -191 l0 -652 l217 0 l0 694 q-1 186 -101 294 q-100 108 -281 110 q-124 0 -209 -49 q-85 -50 -134 -146 l-5 0 l0 605 l-215 0 l0 -1508 ZM143 1918 l-286 -306 l188 0 l182 200 l4 0 l182 -200 l188 0 l-286 306 l-172 0 Z" /><glyph glyph-name="" unicode="&#x1e25;" d="M120 0 l217 0 l0 622 q1 132 72 210 q71 78 199 80 q119 -1 180 -69 q60 -68 60 -191 l0 -652 l217 0 l0 694 q-1 186 -101 294 q-100 108 -281 110 q-124 0 -209 -49 q-85 -50 -134 -146 l-5 0 l0 605 l-215 0 l0 -1508 ZM594 -416 q56 1 93 39 q37 37 38 92 q-1 56 -38 93 q-37 37 -93 38 q-56 -1 -93 -38 q-37 -37 -38 -93 q1 -55 38 -92 q37 -38 93 -39 l0 0 Z" /><glyph glyph-name="" unicode="&#x1e23;" d="M120 0 l217 0 l0 622 q1 132 72 210 q71 78 199 80 q119 -1 180 -69 q60 -68 60 -191 l0 -652 l217 0 l0 694 q-1 186 -101 294 q-100 108 -281 110 q-124 0 -209 -49 q-85 -50 -134 -146 l-5 0 l0 605 l-215 0 l0 -1508 ZM229 1641 q56 1 93 39 q37 37 38 92 q-1 56 -38 93 q-37 37 -93 38 q-56 -1 -93 -38 q-37 -37 -38 -93 q1 -55 38 -92 q37 -38 93 -39 l0 0 Z" /><glyph glyph-name="" unicode="&#x1e2b;" d="M269 -189 q3 -135 90 -219 q87 -84 235 -87 q148 3 235 87 q87 84 90 219 l-140 0 q-2 -81 -52 -134 q-51 -52 -133 -54 q-82 2 -133 54 q-50 53 -52 134 l-140 0 ZM120 0 l217 0 l0 622 q1 132 72 210 q71 78 199 80 q119 -1 180 -69 q60 -68 60 -191 l0 -652 l217 0 l0 694 q-1 186 -101 294 q-100 108 -281 110 q-124 0 -209 -49 q-85 -50 -134 -146 l-5 0 l0 605 l-215 0 l0 -1508 Z" /><glyph glyph-name="" unicode="&#x1e29;" d="M335 903 l0 605 l-215 0 l0 -1508 l91 0 l-59 -146 l0 -83 l55 0 q75 0 108 -15 q34 -15 33 -48 q0 -66 -115 -66 q-33 0 -67 4 q-34 4 -51 10 l0 -105 q31 -10 67 -14 q36 -4 78 -3 q103 2 164 50 q61 49 62 130 q0 75 -51 115 q-51 39 -149 39 l51 132 l0 9 l0 613 q1 132 72 210 q71 78 199 80 q119 -1 180 -69 q60 -68 60 -191 l0 -652 l217 0 l0 694 q-1 186 -101 294 q-100 108 -281 110 q-124 0 -209 -49 q-85 -50 -134 -146 l-5 0 Z" /><glyph glyph-name="" unicode="&#x127;" d="M335 903 l0 359 l256 0 l0 133 l-256 0 l0 113 l-215 0 l0 -113 l-102 0 l0 -133 l102 0 l0 -1262 l217 0 l0 622 q1 132 72 210 q71 78 199 80 q119 -1 180 -69 q60 -68 60 -191 l0 -652 l217 0 l0 694 q-1 186 -101 294 q-100 108 -281 110 q-124 0 -209 -49 q-85 -50 -134 -146 l-5 0 Z" /><glyph glyph-name="" unicode="&#x1e96;" d="M120 0 l217 0 l0 622 q1 132 72 210 q71 78 199 80 q119 -1 180 -69 q60 -68 60 -191 l0 -652 l217 0 l0 694 q-1 186 -101 294 q-100 108 -281 110 q-124 0 -209 -49 q-85 -50 -134 -146 l-5 0 l0 605 l-215 0 l0 -1508 ZM921 -223 l-654 0 l0 -119 l654 0 l0 119 Z" /><glyph glyph-name="" unicode="i" d="M119 0 l217 0 l0 1086 l-217 0 l0 -1086 ZM228 1241 q54 1 90 37 q36 35 37 88 q-1 54 -37 89 q-36 35 -90 36 q-54 -1 -90 -36 q-36 -35 -37 -89 q1 -53 37 -88 q36 -36 90 -37 l0 0 Z" /><glyph glyph-name="" unicode="ì" d="M313 1255 l-215 303 l-225 0 l262 -303 l178 0 ZM119 0 l217 0 l0 1086 l-217 0 l0 -1086 Z" /><glyph glyph-name="" unicode="&#x209;" d="M119 0 l217 0 l0 1086 l-217 0 l0 -1086 ZM144 1255 l-194 303 l-215 0 l247 -303 l162 0 ZM479 1255 l-193 303 l-216 0 l247 -303 l162 0 Z" /><glyph glyph-name="" unicode="í" d="M315 1255 l262 303 l-225 0 l-215 -303 l178 0 ZM119 0 l217 0 l0 1086 l-217 0 l0 -1086 Z" /><glyph glyph-name="" unicode="î" d="M307 1558 l-158 0 l-273 -307 l185 0 l164 194 l6 0 l164 -194 l185 0 l-273 307 ZM119 0 l217 0 l0 1086 l-217 0 l0 -1086 Z" /><glyph glyph-name="" unicode="&#x1d0;" d="M307 1251 l273 307 l-185 0 l-164 -194 l-6 0 l-164 194 l-185 0 l273 -307 l158 0 ZM119 0 l217 0 l0 1086 l-217 0 l0 -1086 Z" /><glyph glyph-name="" unicode="ï" d="M119 0 l217 0 l0 1086 l-217 0 l0 -1086 ZM27 1260 q51 1 85 35 q34 34 35 84 q-1 51 -35 84 q-34 34 -85 35 q-52 -1 -86 -35 q-34 -33 -35 -84 q1 -50 35 -84 q34 -34 86 -35 l0 0 ZM430 1260 q51 1 85 35 q34 34 35 84 q-1 51 -35 84 q-34 34 -85 35 q-52 -1 -86 -35 q-34 -33 -35 -84 q1 -50 35 -84 q34 -34 86 -35 l0 0 Z" /><glyph glyph-name="" unicode="&#x1e2f;" d="M141 1603 l174 0 l206 261 l-212 0 l-168 -261 ZM27 1260 q51 1 85 35 q34 34 35 84 q-1 51 -35 84 q-34 34 -85 35 q-52 -1 -86 -35 q-34 -33 -35 -84 q1 -50 35 -84 q34 -34 86 -35 l0 0 ZM430 1260 q51 1 85 35 q34 34 35 84 q-1 51 -35 84 q-34 34 -85 35 q-52 -1 -86 -35 q-34 -33 -35 -84 q1 -50 35 -84 q34 -34 86 -35 l0 0 ZM119 0 l217 0 l0 1086 l-217 0 l0 -1086 Z" /><glyph glyph-name="" unicode="&#x12d;" d="M119 0 l217 0 l0 1086 l-217 0 l0 -1086 ZM-108 1557 q3 -140 92 -226 q90 -86 243 -88 q153 2 243 88 q89 86 92 226 l-143 0 q-2 -84 -55 -137 q-53 -54 -137 -56 q-84 2 -137 56 q-53 53 -55 137 l-143 0 Z" /><glyph glyph-name="" unicode="&#x1ecb;" d="M119 0 l217 0 l0 1086 l-217 0 l0 -1086 ZM228 1241 q54 1 90 37 q36 35 37 88 q-1 54 -37 89 q-36 35 -90 36 q-54 -1 -90 -36 q-36 -35 -37 -89 q1 -53 37 -88 q36 -36 90 -37 l0 0 ZM228 -416 q56 1 93 39 q37 37 38 92 q-1 56 -38 93 q-37 37 -93 38 q-56 -1 -93 -38 q-37 -37 -38 -93 q1 -55 38 -92 q37 -38 93 -39 l0 0 Z" /><glyph glyph-name="" unicode="&#x20b;" d="M119 0 l217 0 l0 1086 l-217 0 l0 -1086 ZM-107 1251 l143 0 q2 84 55 137 q53 54 137 56 q84 -2 137 -56 q53 -53 55 -137 l143 0 q-3 140 -92 226 q-90 86 -243 88 q-153 -2 -243 -88 q-89 -86 -92 -226 l0 0 Z" /><glyph glyph-name="" unicode="&#x12b;" d="M119 0 l217 0 l0 1086 l-217 0 l0 -1086 ZM551 1431 l-646 0 l0 -119 l646 0 l0 119 Z" /><glyph glyph-name="" unicode="&#x1e2d;" d="M119 0 l217 0 l0 1086 l-217 0 l0 -1086 ZM228 1241 q54 1 90 37 q36 35 37 88 q-1 54 -37 89 q-36 35 -90 36 q-54 -1 -90 -36 q-36 -35 -37 -89 q1 -53 37 -88 q36 -36 90 -37 l0 0 ZM361 -422 q85 1 136 70 q52 68 53 189 l-130 0 q0 -64 -16 -98 q-15 -34 -47 -34 q-51 9 -103 73 q-53 64 -153 73 q-88 -1 -139 -68 q-51 -67 -52 -189 l129 0 q1 61 18 95 q18 34 51 35 q54 -9 106 -73 q52 -64 147 -73 l0 0 Z" /><glyph glyph-name="" unicode="&#x1ec9;" d="M119 0 l217 0 l0 1086 l-217 0 l0 -1086 ZM100 1449 q30 13 53 18 q24 5 49 5 q41 -1 67 -22 q26 -21 27 -55 q0 -38 -23 -64 q-22 -26 -71 -44 l70 -91 q80 31 125 87 q45 55 46 122 q-1 86 -55 135 q-55 50 -149 51 q-40 0 -74 -6 q-34 -7 -65 -20 l0 -116 Z" /><glyph glyph-name="" unicode="&#x129;" d="M119 0 l217 0 l0 1086 l-217 0 l0 -1086 ZM364 1258 q85 1 136 70 q52 68 53 189 l-130 0 q0 -64 -16 -98 q-15 -34 -47 -34 q-51 9 -103 73 q-53 64 -153 73 q-88 -1 -139 -68 q-51 -67 -52 -189 l129 0 q1 61 18 95 q18 34 51 35 q54 -9 106 -73 q52 -64 147 -73 l0 0 Z" /></font>
</defs>
</svg>
