<?xml version="1.0" standalone="no"?><!DOCTYPE svg PUBLIC "-//W3C//DTD SVG 1.1//EN" "http://www.w3.org/Graphics/SVG/1.1/DTD/svg11.dtd" ><svg xmlns="http://www.w3.org/2000/svg"><metadata></metadata><defs><font id="SF UI Display Semibold; 12.0d0e2; 2016-05-11" horiz-adv-x="2705"><font-face font-family="SF UI Display" font-weight="600" font-stretch="normal" units-per-em="2048" panose-1="0 0 7 0 0 0 0 0 0 0" ascent="1950" descent="-494" x-height="0" bbox="-554 -572 2613 2221" underline-thickness="165" underline-position="-291" unicode-range="U+0020-f189" /><missing-glyph horiz-adv-x="2048" d="M100 -494 l1848 0 l0 234 l-1848 0 l0 -234 ZM100 -52 l1848 0 l0 234 l-1848 0 l0 -234 ZM100 390 l1848 0 l0 234 l-1848 0 l0 -234 ZM100 832 l1848 0 l0 234 l-1848 0 l0 -234 ZM100 1274 l1848 0 l0 234 l-1848 0 l0 -234 ZM100 1716 l1848 0 l0 234 l-1848 0 l0 -234 Z" /><glyph glyph-name="" unicode=" " d="" /><glyph glyph-name="" unicode="a" d="M1070 0 l272 0 l-512 1443 l-291 0 l-512 -1443 l266 0 l123 373 l531 0 l123 -373 ZM678 1188 l7 0 l201 -616 l-410 0 l202 616 Z" /><glyph glyph-name="" unicode="à" d="M1070 0 l272 0 l-512 1443 l-291 0 l-512 -1443 l266 0 l123 373 l531 0 l123 -373 ZM678 1188 l7 0 l201 -616 l-410 0 l202 616 ZM587 1555 l198 0 l-231 306 l-246 0 l279 -306 Z" /><glyph glyph-name="" unicode="á" d="M1070 0 l272 0 l-512 1443 l-291 0 l-512 -1443 l266 0 l123 373 l531 0 l123 -373 ZM678 1188 l7 0 l201 -616 l-410 0 l202 616 ZM781 1552 l279 306 l-246 0 l-231 -306 l198 0 Z" /><glyph glyph-name="" unicode="ä" d="M1070 0 l272 0 l-512 1443 l-291 0 l-512 -1443 l266 0 l123 373 l531 0 l123 -373 ZM678 1188 l7 0 l201 -616 l-410 0 l202 616 ZM479 1569 q55 1 90 37 q36 35 37 87 q-1 53 -37 88 q-35 36 -90 37 q-55 -1 -90 -37 q-36 -35 -37 -88 q1 -52 37 -87 q35 -36 90 -37 l0 0 ZM889 1569 q54 1 90 37 q35 35 36 87 q-1 53 -36 88 q-36 36 -90 37 q-55 -1 -90 -37 q-36 -35 -37 -88 q1 -52 37 -87 q35 -36 90 -37 l0 0 Z" /><glyph glyph-name="" unicode="&#x1de;" d="M1070 0 l272 0 l-512 1443 l-291 0 l-512 -1443 l266 0 l123 373 l531 0 l123 -373 ZM678 1188 l7 0 l201 -616 l-410 0 l202 616 ZM487 1805 q-51 -1 -84 -34 q-33 -33 -34 -82 q1 -49 34 -81 q33 -33 84 -34 q50 1 83 34 q33 32 34 81 q-1 49 -34 82 q-33 33 -83 34 l0 0 ZM349 2055 l0 -129 l670 0 l0 129 l-670 0 ZM881 1805 q-50 -1 -83 -34 q-33 -33 -34 -82 q1 -49 34 -81 q33 -33 83 -34 q51 1 84 34 q33 32 34 81 q-1 49 -34 82 q-33 33 -84 34 l0 0 Z" /><glyph glyph-name="" unicode="å" d="M1070 0 l272 0 l-512 1443 l-291 0 l-512 -1443 l266 0 l123 373 l531 0 l123 -373 ZM678 1188 l7 0 l201 -616 l-410 0 l202 616 ZM684 1511 q86 2 145 60 q58 57 60 143 q-2 86 -60 144 q-59 58 -145 60 q-86 -2 -145 -60 q-59 -58 -61 -144 q2 -86 61 -143 q59 -58 145 -60 l0 0 ZM684 1611 q-44 1 -74 30 q-30 29 -31 73 q1 45 31 74 q30 29 74 30 q44 -1 74 -30 q30 -29 31 -74 q-1 -44 -31 -73 q-30 -29 -74 -30 l0 0 Z" /><glyph glyph-name="" unicode="&#x1fa;" d="M1070 0 l272 0 l-512 1443 l-291 0 l-512 -1443 l266 0 l123 373 l531 0 l123 -373 ZM678 1188 l7 0 l201 -616 l-410 0 l202 616 ZM684 1489 q88 2 144 59 q57 56 59 142 q-2 87 -59 143 q-56 56 -144 58 q-88 -2 -145 -58 q-57 -57 -59 -143 q2 -86 59 -142 q57 -57 145 -59 l0 0 ZM684 1588 q-44 1 -72 30 q-29 28 -30 72 q1 44 30 72 q28 29 72 30 q44 -1 72 -30 q29 -28 30 -72 q-1 -44 -30 -72 q-28 -29 -72 -30 l0 0 ZM722 2129 l-118 -191 l167 0 l173 191 l-222 0 Z" /><glyph glyph-name="" unicode="ã" d="M1070 0 l272 0 l-512 1443 l-291 0 l-512 -1443 l266 0 l123 373 l531 0 l123 -373 ZM678 1188 l7 0 l201 -616 l-410 0 l202 616 ZM819 1538 q89 1 144 72 q54 70 56 194 l-141 0 q-1 -62 -17 -95 q-16 -33 -48 -33 q-50 9 -103 71 q-54 62 -155 71 q-91 -1 -145 -70 q-55 -69 -56 -194 l141 0 q1 58 18 92 q18 33 51 34 q53 -9 106 -71 q52 -62 149 -71 l0 0 Z" /><glyph glyph-name="" unicode="&#x1eb0;" d="M1070 0 l272 0 l-512 1443 l-291 0 l-512 -1443 l266 0 l123 373 l531 0 l123 -373 ZM678 1188 l7 0 l201 -616 l-410 0 l202 616 ZM1025 1849 l-163 0 q-2 -65 -51 -109 q-48 -43 -127 -45 q-79 2 -127 45 q-49 44 -51 109 l-163 0 q2 -125 92 -204 q90 -79 249 -82 q159 3 249 82 q90 79 92 204 l0 0 ZM814 1873 l-190 229 l-230 0 l236 -229 l184 0 Z" /><glyph glyph-name="" unicode="&#x1e0;" d="M1070 0 l272 0 l-512 1443 l-291 0 l-512 -1443 l266 0 l123 373 l531 0 l123 -373 ZM678 1188 l7 0 l201 -616 l-410 0 l202 616 ZM684 1562 q57 1 93 37 q36 36 37 90 q-1 54 -37 90 q-36 36 -93 37 q-57 -1 -93 -37 q-36 -36 -37 -90 q1 -54 37 -90 q36 -36 93 -37 l0 0 ZM1019 2055 l-670 0 l0 -129 l670 0 l0 129 Z" /><glyph glyph-name="" unicode="&#x1e00;" d="M1070 0 l272 0 l-512 1443 l-291 0 l-512 -1443 l266 0 l123 373 l531 0 l123 -373 ZM678 1188 l7 0 l201 -616 l-410 0 l202 616 ZM684 -572 q89 2 150 62 q61 59 63 148 q-2 89 -63 149 q-61 60 -150 62 q-89 -2 -150 -62 q-61 -60 -63 -149 q2 -89 63 -148 q61 -60 150 -62 l0 0 ZM684 -468 q-45 1 -76 31 q-30 30 -31 75 q1 45 31 75 q31 30 76 31 q45 -1 76 -31 q30 -30 31 -75 q-1 -45 -31 -75 q-31 -30 -76 -31 l0 0 Z" /><glyph glyph-name="" unicode="â" d="M1070 0 l272 0 l-512 1443 l-291 0 l-512 -1443 l266 0 l123 373 l531 0 l123 -373 ZM678 1188 l7 0 l201 -616 l-410 0 l202 616 ZM586 1856 l-281 -310 l203 0 l174 198 l4 0 l174 -198 l203 0 l-281 310 l-196 0 Z" /><glyph glyph-name="" unicode="&#x1eac;" d="M1070 0 l272 0 l-512 1443 l-291 0 l-512 -1443 l266 0 l123 373 l531 0 l123 -373 ZM678 1188 l7 0 l201 -616 l-410 0 l202 616 ZM684 -434 q59 2 98 41 q40 39 41 98 q-1 59 -41 98 q-39 40 -98 41 q-59 -1 -98 -41 q-40 -39 -41 -98 q1 -59 41 -98 q39 -39 98 -41 l0 0 ZM586 1856 l-281 -310 l203 0 l174 198 l4 0 l174 -198 l203 0 l-281 310 l-196 0 Z" /><glyph glyph-name="" unicode="&#x1ea4;" d="M1070 0 l272 0 l-512 1443 l-291 0 l-512 -1443 l266 0 l123 373 l531 0 l123 -373 ZM678 1188 l7 0 l201 -616 l-410 0 l202 616 ZM584 1812 l-263 -249 l214 0 l145 143 l13 0 l144 -143 l214 0 l-262 249 l-205 0 ZM786 1873 l184 0 l236 229 l-230 0 l-190 -229 Z" /><glyph glyph-name="" unicode="&#x1eaa;" d="M1070 0 l272 0 l-512 1443 l-291 0 l-512 -1443 l266 0 l123 373 l531 0 l123 -373 ZM678 1188 l7 0 l201 -616 l-410 0 l202 616 ZM813 1858 q89 1 145 66 q55 65 57 179 l-138 0 q-2 -56 -19 -85 q-18 -29 -53 -29 q-48 8 -93 65 q-46 56 -149 64 q-92 -1 -147 -64 q-56 -62 -57 -178 l138 0 q3 56 20 85 q17 28 53 28 q56 -8 99 -65 q44 -58 144 -66 l0 0 ZM582 1799 l-263 -236 l214 0 l145 131 l12 0 l145 -131 l214 0 l-263 236 l-204 0 Z" /><glyph glyph-name="" unicode="&#x1ea6;" d="M1070 0 l272 0 l-512 1443 l-291 0 l-512 -1443 l266 0 l123 373 l531 0 l123 -373 ZM678 1188 l7 0 l201 -616 l-410 0 l202 616 ZM582 1812 l-263 -249 l214 0 l145 143 l12 0 l145 -143 l214 0 l-263 249 l-204 0 ZM1016 1873 l-191 229 l-230 0 l237 -229 l184 0 Z" /><glyph glyph-name="" unicode="&#x1ea8;" d="M1070 0 l272 0 l-512 1443 l-291 0 l-512 -1443 l266 0 l123 373 l531 0 l123 -373 ZM678 1188 l7 0 l201 -616 l-410 0 l202 616 ZM584 1812 l-264 -249 l214 0 l145 143 l13 0 l145 -143 l213 0 l-262 249 l-204 0 ZM804 1968 q18 8 43 12 q25 5 51 5 q38 -1 61 -19 q23 -18 24 -48 q0 -29 -19 -53 q-19 -25 -57 -39 l87 -85 q65 25 101 76 q36 51 36 114 q-1 80 -55 126 q-55 46 -148 47 q-34 0 -67 -6 q-33 -7 -57 -19 l0 -111 Z" /><glyph glyph-name="" unicode="&#x102;" d="M1070 0 l272 0 l-512 1443 l-291 0 l-512 -1443 l266 0 l123 373 l531 0 l123 -373 ZM678 1188 l7 0 l201 -616 l-410 0 l202 616 ZM347 1856 q3 -136 92 -222 q90 -85 245 -88 q155 3 245 88 q89 86 92 222 l-156 0 q-2 -79 -51 -129 q-50 -50 -130 -52 q-80 2 -129 52 q-50 50 -52 129 l-156 0 Z" /><glyph glyph-name="" unicode="&#x1eae;" d="M1070 0 l272 0 l-512 1443 l-291 0 l-512 -1443 l266 0 l123 373 l531 0 l123 -373 ZM678 1188 l7 0 l201 -616 l-410 0 l202 616 ZM343 1849 q2 -125 92 -204 q90 -79 249 -82 q159 3 249 82 q90 79 92 204 l-163 0 q-2 -65 -51 -109 q-48 -43 -127 -45 q-79 2 -127 45 q-49 44 -51 109 l-163 0 ZM554 1873 l184 0 l236 229 l-230 0 l-190 -229 Z" /><glyph glyph-name="" unicode="&#x1eb4;" d="M1070 0 l272 0 l-512 1443 l-291 0 l-512 -1443 l266 0 l123 373 l531 0 l123 -373 ZM678 1188 l7 0 l201 -616 l-410 0 l202 616 ZM346 1815 q7 -111 95 -180 q89 -70 243 -72 q154 2 243 72 q88 69 95 180 l-162 0 q-7 -53 -53 -86 q-46 -33 -123 -34 q-76 1 -122 34 q-47 33 -54 86 l-162 0 ZM812 1860 q91 2 150 67 q58 65 60 176 l-151 0 q-3 -54 -20 -82 q-16 -29 -47 -29 q-44 8 -92 63 q-47 55 -151 63 q-95 -1 -154 -65 q-59 -64 -61 -174 l151 0 q3 50 21 79 q17 29 51 30 q51 -8 97 -64 q46 -56 146 -64 l0 0 Z" /><glyph glyph-name="" unicode="&#x1eb2;" d="M1070 0 l272 0 l-512 1443 l-291 0 l-512 -1443 l266 0 l123 373 l531 0 l123 -373 ZM678 1188 l7 0 l201 -616 l-410 0 l202 616 ZM509 2017 q20 10 46 15 q25 6 52 6 q40 -1 65 -19 q25 -19 26 -50 q0 -31 -24 -58 q-24 -27 -66 -41 l69 -89 q76 28 122 84 q47 56 48 121 q-1 80 -57 126 q-55 46 -151 47 q-38 0 -73 -8 q-35 -7 -57 -19 l0 -115 ZM348 1815 q7 -115 97 -183 q91 -67 239 -69 q149 2 240 69 q92 68 99 183 l-162 0 q-7 -55 -55 -87 q-47 -32 -122 -33 q-74 1 -120 33 q-47 32 -55 87 l-161 0 Z" /><glyph glyph-name="" unicode="&#x1eb6;" d="M1070 0 l272 0 l-512 1443 l-291 0 l-512 -1443 l266 0 l123 373 l531 0 l123 -373 ZM678 1188 l7 0 l201 -616 l-410 0 l202 616 ZM684 -434 q59 2 98 41 q40 39 41 98 q-1 59 -41 98 q-39 40 -98 41 q-59 -1 -98 -41 q-40 -39 -41 -98 q1 -59 41 -98 q39 -39 98 -41 l0 0 ZM347 1856 q3 -136 92 -222 q90 -85 245 -88 q155 3 245 88 q89 86 92 222 l-156 0 q-2 -79 -51 -129 q-50 -50 -130 -52 q-80 2 -129 52 q-50 50 -52 129 l-156 0 Z" /><glyph glyph-name="" unicode="&#x202;" d="M1070 0 l272 0 l-512 1443 l-291 0 l-512 -1443 l266 0 l123 373 l531 0 l123 -373 ZM678 1188 l7 0 l201 -616 l-410 0 l202 616 ZM347 1546 l156 0 q2 78 52 128 q49 50 129 52 q80 -2 130 -52 q49 -50 51 -128 l156 0 q-3 136 -92 221 q-90 86 -245 89 q-155 -3 -245 -89 q-89 -85 -92 -221 l0 0 Z" /><glyph glyph-name="" unicode="&#x1cd;" d="M1070 0 l272 0 l-512 1443 l-291 0 l-512 -1443 l266 0 l123 373 l531 0 l123 -373 ZM678 1188 l7 0 l201 -616 l-410 0 l202 616 ZM586 1546 l196 0 l281 310 l-203 0 l-174 -198 l-4 0 l-174 198 l-203 0 l281 -310 Z" /><glyph glyph-name="" unicode="&#x226;" d="M1070 0 l272 0 l-512 1443 l-291 0 l-512 -1443 l266 0 l123 373 l531 0 l123 -373 ZM678 1188 l7 0 l201 -616 l-410 0 l202 616 ZM684 1569 q59 2 98 41 q40 39 41 98 q-1 59 -41 98 q-39 40 -98 41 q-59 -1 -98 -41 q-40 -39 -41 -98 q1 -59 41 -98 q39 -39 98 -41 l0 0 Z" /><glyph glyph-name="" unicode="&#x1ea0;" d="M1070 0 l272 0 l-512 1443 l-291 0 l-512 -1443 l266 0 l123 373 l531 0 l123 -373 ZM678 1188 l7 0 l201 -616 l-410 0 l202 616 ZM684 -434 q59 2 98 41 q40 39 41 98 q-1 59 -41 98 q-39 40 -98 41 q-59 -1 -98 -41 q-40 -39 -41 -98 q1 -59 41 -98 q39 -39 98 -41 l0 0 Z" /><glyph glyph-name="" unicode="&#x1ea2;" d="M1070 0 l272 0 l-512 1443 l-291 0 l-512 -1443 l266 0 l123 373 l531 0 l123 -373 ZM678 1188 l7 0 l201 -616 l-410 0 l202 616 ZM508 1784 q22 9 51 14 q28 4 53 4 q42 0 67 -20 q25 -19 26 -51 q-1 -33 -26 -61 q-25 -28 -68 -42 l76 -96 q80 30 128 87 q48 56 49 125 q-1 86 -61 134 q-59 48 -160 49 q-37 0 -73 -6 q-35 -7 -62 -19 l0 -118 Z" /><glyph glyph-name="" unicode="&#x200;" d="M1070 0 l272 0 l-512 1443 l-291 0 l-512 -1443 l266 0 l123 373 l531 0 l123 -373 ZM678 1188 l7 0 l201 -616 l-410 0 l202 616 ZM773 1552 l191 0 l-231 306 l-239 0 l279 -306 ZM408 1552 l192 0 l-231 306 l-239 0 l278 -306 Z" /><glyph glyph-name="" unicode="&#x100;" d="M1070 0 l272 0 l-512 1443 l-291 0 l-512 -1443 l266 0 l123 373 l531 0 l123 -373 ZM678 1188 l7 0 l201 -616 l-410 0 l202 616 ZM1019 1760 l-670 0 l0 -129 l670 0 l0 129 Z" /><glyph glyph-name="" unicode="&#x104;" d="M678 1188 l7 0 l201 -616 l-410 0 l202 616 ZM1294 -433 l0 153 q-9 -3 -27 -5 q-18 -2 -41 -2 q-53 1 -84 27 q-30 26 -31 70 q2 61 57 112 q55 52 142 75 l32 3 l-512 1443 l-291 0 l-512 -1443 l266 0 l123 373 l531 0 l121 -369 q-81 -50 -121 -111 q-41 -61 -41 -128 q2 -97 74 -156 q72 -59 189 -61 q38 0 70 5 q31 5 55 14 l0 0 Z" /><glyph glyph-name="" unicode="b" d="M744 0 q233 2 364 110 q130 108 132 300 q-2 146 -93 240 q-91 95 -241 111 l0 8 q114 21 187 108 q73 87 76 206 q-2 166 -117 262 q-115 96 -314 98 l-611 0 l0 -1443 l617 0 ZM385 1242 l289 0 q115 0 177 -51 q62 -51 63 -146 q-1 -101 -73 -155 q-72 -54 -208 -55 l-248 0 l0 407 ZM385 201 l0 451 l290 0 q148 0 224 -57 q77 -57 77 -167 q0 -111 -74 -169 q-74 -58 -217 -58 l-300 0 Z" /><glyph glyph-name="" unicode="&#x1e06;" d="M744 0 q233 2 364 110 q130 108 132 300 q-2 146 -93 240 q-91 95 -241 111 l0 8 q114 21 187 108 q73 87 76 206 q-2 166 -117 262 q-115 96 -314 98 l-611 0 l0 -1443 l617 0 ZM385 1242 l289 0 q115 0 177 -51 q62 -51 63 -146 q-1 -101 -73 -155 q-72 -54 -208 -55 l-248 0 l0 407 ZM385 201 l0 451 l290 0 q148 0 224 -57 q77 -57 77 -167 q0 -111 -74 -169 q-74 -58 -217 -58 l-300 0 ZM937 -226 l-670 0 l0 -129 l670 0 l0 129 Z" /><glyph glyph-name="" unicode="&#x1e04;" d="M602 -434 q59 2 98 41 q40 39 41 98 q-1 59 -41 98 q-39 40 -98 41 q-59 -1 -98 -41 q-40 -39 -41 -98 q1 -59 41 -98 q39 -39 98 -41 l0 0 ZM744 0 q233 2 364 110 q130 108 132 300 q-2 146 -93 240 q-91 95 -241 111 l0 8 q114 21 187 108 q73 87 76 206 q-2 166 -117 262 q-115 96 -314 98 l-611 0 l0 -1443 l617 0 ZM385 1242 l289 0 q115 0 177 -51 q62 -51 63 -146 q-1 -101 -73 -155 q-72 -54 -208 -55 l-248 0 l0 407 ZM385 201 l0 451 l290 0 q148 0 224 -57 q77 -57 77 -167 q0 -111 -74 -169 q-74 -58 -217 -58 l-300 0 Z" /><glyph glyph-name="" unicode="&#x1e02;" d="M602 1569 q59 2 98 41 q40 39 41 98 q-1 59 -41 98 q-39 40 -98 41 q-59 -1 -98 -41 q-40 -39 -41 -98 q1 -59 41 -98 q39 -39 98 -41 l0 0 ZM744 0 q233 2 364 110 q130 108 132 300 q-2 146 -93 240 q-91 95 -241 111 l0 8 q114 21 187 108 q73 87 76 206 q-2 166 -117 262 q-115 96 -314 98 l-611 0 l0 -1443 l617 0 ZM385 1242 l289 0 q115 0 177 -51 q62 -51 63 -146 q-1 -101 -73 -155 q-72 -54 -208 -55 l-248 0 l0 407 ZM385 201 l0 451 l290 0 q148 0 224 -57 q77 -57 77 -167 q0 -111 -74 -169 q-74 -58 -217 -58 l-300 0 Z" /><glyph glyph-name="" unicode="c" d="M749 -24 q258 2 422 132 q164 130 200 364 l-253 0 q-31 -131 -127 -204 q-96 -72 -241 -73 q-190 3 -298 142 q-108 139 -110 385 q2 244 111 384 q108 139 296 142 q143 -2 241 -82 q99 -80 127 -218 l254 0 q-28 236 -197 376 q-169 140 -425 143 q-311 -3 -489 -200 q-178 -197 -182 -545 q3 -350 181 -547 q178 -196 490 -199 l0 0 Z" /><glyph glyph-name="" unicode="&#x106;" d="M838 1553 l279 306 l-246 0 l-231 -306 l198 0 ZM749 -24 q258 2 422 132 q164 130 200 364 l-253 0 q-31 -131 -127 -204 q-96 -72 -241 -73 q-190 3 -298 142 q-108 139 -110 385 q2 244 111 384 q108 139 296 142 q143 -2 241 -82 q99 -80 127 -218 l254 0 q-28 236 -197 376 q-169 140 -425 143 q-311 -3 -489 -200 q-178 -197 -182 -545 q3 -350 181 -547 q178 -196 490 -199 l0 0 Z" /><glyph glyph-name="" unicode="&#x10c;" d="M749 -24 q258 2 422 132 q164 130 200 364 l-253 0 q-31 -131 -127 -204 q-96 -72 -241 -73 q-190 3 -298 142 q-108 139 -110 385 q2 244 111 384 q108 139 296 142 q143 -2 241 -82 q99 -80 127 -218 l254 0 q-28 236 -197 376 q-169 140 -425 143 q-311 -3 -489 -200 q-178 -197 -182 -545 q3 -350 181 -547 q178 -196 490 -199 l0 0 ZM643 1547 l196 0 l281 310 l-203 0 l-174 -198 l-4 0 l-174 198 l-203 0 l281 -310 Z" /><glyph glyph-name="" unicode="&#x108;" d="M749 -24 q258 2 422 132 q164 130 200 364 l-253 0 q-31 -131 -127 -204 q-96 -72 -241 -73 q-190 3 -298 142 q-108 139 -110 385 q2 244 111 384 q108 139 296 142 q143 -2 241 -82 q99 -80 127 -218 l254 0 q-28 236 -197 376 q-169 140 -425 143 q-311 -3 -489 -200 q-178 -197 -182 -545 q3 -350 181 -547 q178 -196 490 -199 l0 0 ZM643 1857 l-281 -310 l203 0 l174 198 l4 0 l174 -198 l203 0 l-281 310 l-196 0 Z" /><glyph glyph-name="" unicode="&#x10a;" d="M741 1570 q59 2 98 41 q40 39 41 98 q-1 59 -41 98 q-39 40 -98 41 q-59 -1 -98 -41 q-40 -39 -41 -98 q1 -59 41 -98 q39 -39 98 -41 l0 0 ZM749 -24 q258 2 422 132 q164 130 200 364 l-253 0 q-31 -131 -127 -204 q-96 -72 -241 -73 q-190 3 -298 142 q-108 139 -110 385 q2 244 111 384 q108 139 296 142 q143 -2 241 -82 q99 -80 127 -218 l254 0 q-28 236 -197 376 q-169 140 -425 143 q-311 -3 -489 -200 q-178 -197 -182 -545 q3 -350 181 -547 q178 -196 490 -199 l0 0 Z" /><glyph glyph-name="" unicode="ç" d="M1371 948 q-28 236 -197 376 q-169 140 -425 143 q-311 -3 -489 -200 q-178 -197 -182 -545 q3 -330 161 -524 q159 -194 440 -219 l-49 -117 l0 -90 l55 0 q71 0 103 -14 q32 -15 31 -46 q0 -62 -111 -62 q-32 0 -65 4 q-33 4 -50 10 l0 -111 q29 -9 65 -13 q36 -4 77 -4 q108 2 170 51 q62 48 63 132 q0 75 -50 116 q-50 40 -144 40 l41 103 q231 19 377 147 q145 129 179 347 l-253 0 q-31 -131 -127 -204 q-96 -72 -241 -73 q-190 3 -298 142 q-108 139 -110 385 q2 244 111 384 q108 139 296 142 q143 -2 241 -82 q99 -80 127 -218 l254 0 Z" /><glyph glyph-name="" unicode="&#x1e08;" d="M1117 1859 l-246 0 l-231 -306 l198 0 l279 306 ZM1371 948 q-28 236 -197 376 q-169 140 -425 143 q-311 -3 -489 -200 q-178 -197 -182 -545 q3 -330 161 -524 q159 -194 440 -219 l-49 -117 l0 -90 l55 0 q71 0 103 -14 q32 -15 31 -46 q0 -62 -111 -62 q-32 0 -65 4 q-33 4 -50 10 l0 -111 q29 -9 65 -13 q36 -4 77 -4 q108 2 170 51 q62 48 63 132 q0 75 -50 116 q-50 40 -144 40 l41 103 q231 19 377 147 q145 129 179 347 l-253 0 q-31 -131 -127 -204 q-96 -72 -241 -73 q-190 3 -298 142 q-108 139 -110 385 q2 244 111 384 q108 139 296 142 q143 -2 241 -82 q99 -80 127 -218 l254 0 Z" /><glyph glyph-name="" unicode="d" d="M127 1443 l0 -1443 l534 0 q326 2 505 191 q179 189 181 534 q-2 345 -181 530 q-179 186 -505 188 l-534 0 ZM385 1225 l249 0 q217 -1 333 -129 q116 -129 117 -372 q-1 -248 -116 -376 q-116 -129 -334 -130 l-249 0 l0 1007 Z" /><glyph glyph-name="" unicode="&#x1e0a;" d="M610 1569 q59 2 98 41 q40 39 41 98 q-1 59 -41 98 q-39 40 -98 41 q-59 -1 -98 -41 q-40 -39 -41 -98 q1 -59 41 -98 q39 -39 98 -41 l0 0 ZM127 1443 l0 -1443 l534 0 q326 2 505 191 q179 189 181 534 q-2 345 -181 530 q-179 186 -505 188 l-534 0 ZM385 1225 l249 0 q217 -1 333 -129 q116 -129 117 -372 q-1 -248 -116 -376 q-116 -129 -334 -130 l-249 0 l0 1007 Z" /><glyph glyph-name="" unicode="&#x1e12;" d="M127 1443 l0 -1443 l534 0 q326 2 505 191 q179 189 181 534 q-2 345 -181 530 q-179 186 -505 188 l-534 0 ZM385 1225 l249 0 q217 -1 333 -129 q116 -129 117 -372 q-1 -248 -116 -376 q-116 -129 -334 -130 l-249 0 l0 1007 ZM512 -162 l-281 -310 l203 0 l174 198 l4 0 l174 -198 l203 0 l-281 310 l-196 0 Z" /><glyph glyph-name="" unicode="&#x1e10;" d="M590 -515 l146 354 l-219 0 l-110 -354 l183 0 ZM127 1443 l0 -1443 l534 0 q326 2 505 191 q179 189 181 534 q-2 345 -181 530 q-179 186 -505 188 l-534 0 ZM385 1225 l249 0 q217 -1 333 -129 q116 -129 117 -372 q-1 -248 -116 -376 q-116 -129 -334 -130 l-249 0 l0 1007 Z" /><glyph glyph-name="" unicode="&#x1e0e;" d="M945 -226 l-670 0 l0 -129 l670 0 l0 129 ZM127 1443 l0 -1443 l534 0 q326 2 505 191 q179 189 181 534 q-2 345 -181 530 q-179 186 -505 188 l-534 0 ZM385 1225 l249 0 q217 -1 333 -129 q116 -129 117 -372 q-1 -248 -116 -376 q-116 -129 -334 -130 l-249 0 l0 1007 Z" /><glyph glyph-name="" unicode="&#x10e;" d="M512 1546 l196 0 l281 310 l-203 0 l-174 -198 l-4 0 l-174 198 l-203 0 l281 -310 ZM127 1443 l0 -1443 l534 0 q326 2 505 191 q179 189 181 534 q-2 345 -181 530 q-179 186 -505 188 l-534 0 ZM385 1225 l249 0 q217 -1 333 -129 q116 -129 117 -372 q-1 -248 -116 -376 q-116 -129 -334 -130 l-249 0 l0 1007 Z" /><glyph glyph-name="" unicode="&#x1e0c;" d="M610 -434 q59 2 98 41 q40 39 41 98 q-1 59 -41 98 q-39 40 -98 41 q-59 -1 -98 -41 q-40 -39 -41 -98 q1 -59 41 -98 q39 -39 98 -41 l0 0 ZM127 1443 l0 -1443 l534 0 q326 2 505 191 q179 189 181 534 q-2 345 -181 530 q-179 186 -505 188 l-534 0 ZM385 1225 l249 0 q217 -1 333 -129 q116 -129 117 -372 q-1 -248 -116 -376 q-116 -129 -334 -130 l-249 0 l0 1007 Z" /><glyph glyph-name="" unicode="&#x110;" d="M402 218 l0 419 l263 0 l0 200 l-263 0 l0 388 l249 0 q217 -1 333 -129 q116 -129 117 -372 q-1 -248 -116 -376 q-116 -129 -334 -130 l-249 0 ZM144 1443 l0 -606 l-109 0 l0 -200 l109 0 l0 -637 l534 0 q326 2 505 191 q179 189 181 534 q-2 345 -181 530 q-179 186 -505 188 l-534 0 Z" /><glyph glyph-name="" unicode="e" d="M1061 218 l-676 0 l0 412 l639 0 l0 205 l-639 0 l0 390 l676 0 l0 218 l-934 0 l0 -1443 l934 0 l0 218 Z" /><glyph glyph-name="" unicode="è" d="M497 1555 l198 0 l-231 306 l-246 0 l279 -306 ZM1061 218 l-676 0 l0 412 l639 0 l0 205 l-639 0 l0 390 l676 0 l0 218 l-934 0 l0 -1443 l934 0 l0 218 Z" /><glyph glyph-name="" unicode="&#x204;" d="M683 1552 l191 0 l-231 306 l-239 0 l279 -306 ZM318 1552 l192 0 l-231 306 l-239 0 l278 -306 ZM1061 218 l-676 0 l0 412 l639 0 l0 205 l-639 0 l0 390 l676 0 l0 218 l-934 0 l0 -1443 l934 0 l0 218 Z" /><glyph glyph-name="" unicode="é" d="M691 1552 l279 306 l-246 0 l-231 -306 l198 0 ZM1061 218 l-676 0 l0 412 l639 0 l0 205 l-639 0 l0 390 l676 0 l0 218 l-934 0 l0 -1443 l934 0 l0 218 Z" /><glyph glyph-name="" unicode="ê" d="M496 1856 l-281 -310 l203 0 l174 198 l4 0 l174 -198 l203 0 l-281 310 l-196 0 ZM1061 218 l-676 0 l0 412 l639 0 l0 205 l-639 0 l0 390 l676 0 l0 218 l-934 0 l0 -1443 l934 0 l0 218 Z" /><glyph glyph-name="" unicode="&#x1ec2;" d="M1061 218 l-676 0 l0 412 l639 0 l0 205 l-639 0 l0 390 l676 0 l0 218 l-934 0 l0 -1443 l934 0 l0 218 ZM494 1812 l-264 -249 l214 0 l145 143 l13 0 l145 -143 l213 0 l-262 249 l-204 0 ZM714 1968 q18 8 43 12 q25 5 51 5 q38 -1 61 -19 q23 -18 24 -48 q0 -29 -19 -53 q-19 -25 -57 -39 l87 -85 q65 25 101 76 q36 51 36 114 q-1 80 -55 126 q-55 46 -148 47 q-34 0 -67 -6 q-33 -7 -57 -19 l0 -111 Z" /><glyph glyph-name="" unicode="&#x1ec0;" d="M1061 218 l-676 0 l0 412 l639 0 l0 205 l-639 0 l0 390 l676 0 l0 218 l-934 0 l0 -1443 l934 0 l0 218 ZM492 1812 l-263 -249 l214 0 l145 143 l12 0 l145 -143 l214 0 l-263 249 l-204 0 ZM926 1873 l-191 229 l-230 0 l237 -229 l184 0 Z" /><glyph glyph-name="" unicode="&#x1ec4;" d="M723 1858 q89 1 145 66 q55 65 57 179 l-138 0 q-2 -56 -19 -85 q-18 -29 -53 -29 q-48 8 -93 65 q-46 56 -149 64 q-92 -1 -147 -64 q-56 -62 -57 -178 l138 0 q3 56 20 85 q17 28 53 28 q56 -8 99 -65 q44 -58 144 -66 l0 0 ZM492 1799 l-263 -236 l214 0 l145 131 l12 0 l145 -131 l214 0 l-263 236 l-204 0 ZM1061 218 l-676 0 l0 412 l639 0 l0 205 l-639 0 l0 390 l676 0 l0 218 l-934 0 l0 -1443 l934 0 l0 218 Z" /><glyph glyph-name="" unicode="&#x1ec6;" d="M594 -434 q59 2 98 41 q40 39 41 98 q-1 59 -41 98 q-39 40 -98 41 q-59 -1 -98 -41 q-40 -39 -41 -98 q1 -59 41 -98 q39 -39 98 -41 l0 0 ZM496 1856 l-281 -310 l203 0 l174 198 l4 0 l174 -198 l203 0 l-281 310 l-196 0 ZM1061 218 l-676 0 l0 412 l639 0 l0 205 l-639 0 l0 390 l676 0 l0 218 l-934 0 l0 -1443 l934 0 l0 218 Z" /><glyph glyph-name="" unicode="&#x1ebe;" d="M1061 218 l-676 0 l0 412 l639 0 l0 205 l-639 0 l0 390 l676 0 l0 218 l-934 0 l0 -1443 l934 0 l0 218 ZM494 1812 l-263 -249 l214 0 l145 143 l13 0 l144 -143 l214 0 l-262 249 l-205 0 ZM696 1873 l184 0 l236 229 l-230 0 l-190 -229 Z" /><glyph glyph-name="" unicode="ë" d="M389 1569 q55 1 90 37 q36 35 37 87 q-1 53 -37 88 q-35 36 -90 37 q-55 -1 -90 -37 q-36 -35 -37 -88 q1 -52 37 -87 q35 -36 90 -37 l0 0 ZM799 1569 q54 1 90 37 q35 35 36 87 q-1 53 -36 88 q-36 36 -90 37 q-55 -1 -90 -37 q-36 -35 -37 -88 q1 -52 37 -87 q35 -36 90 -37 l0 0 ZM1061 218 l-676 0 l0 412 l639 0 l0 205 l-639 0 l0 390 l676 0 l0 218 l-934 0 l0 -1443 l934 0 l0 218 Z" /><glyph glyph-name="" unicode="&#x1eb8;" d="M594 -434 q59 2 98 41 q40 39 41 98 q-1 59 -41 98 q-39 40 -98 41 q-59 -1 -98 -41 q-40 -39 -41 -98 q1 -59 41 -98 q39 -39 98 -41 l0 0 ZM1061 218 l-676 0 l0 412 l639 0 l0 205 l-639 0 l0 390 l676 0 l0 218 l-934 0 l0 -1443 l934 0 l0 218 Z" /><glyph glyph-name="" unicode="&#x206;" d="M1061 218 l-676 0 l0 412 l639 0 l0 205 l-639 0 l0 390 l676 0 l0 218 l-934 0 l0 -1443 l934 0 l0 218 ZM257 1546 l156 0 q2 78 52 128 q49 50 129 52 q80 -2 130 -52 q49 -50 51 -128 l156 0 q-3 136 -92 221 q-90 86 -245 89 q-155 -3 -245 -89 q-89 -85 -92 -221 l0 0 Z" /><glyph glyph-name="" unicode="&#x1eba;" d="M1061 218 l-676 0 l0 412 l639 0 l0 205 l-639 0 l0 390 l676 0 l0 218 l-934 0 l0 -1443 l934 0 l0 218 ZM418 1784 q22 9 51 14 q28 4 53 4 q42 0 67 -20 q25 -19 26 -51 q-1 -33 -26 -61 q-25 -28 -68 -42 l76 -96 q80 30 128 87 q48 56 49 125 q-1 86 -61 134 q-59 48 -160 49 q-37 0 -73 -6 q-35 -7 -62 -19 l0 -118 Z" /><glyph glyph-name="" unicode="&#x11a;" d="M496 1546 l196 0 l281 310 l-203 0 l-174 -198 l-4 0 l-174 198 l-203 0 l281 -310 ZM1061 218 l-676 0 l0 412 l639 0 l0 205 l-639 0 l0 390 l676 0 l0 218 l-934 0 l0 -1443 l934 0 l0 218 Z" /><glyph glyph-name="" unicode="&#x112;" d="M1061 218 l-676 0 l0 412 l639 0 l0 205 l-639 0 l0 390 l676 0 l0 218 l-934 0 l0 -1443 l934 0 l0 218 ZM929 1760 l-670 0 l0 -129 l670 0 l0 129 Z" /><glyph glyph-name="" unicode="&#x1e14;" d="M259 1631 l670 0 l0 129 l-670 0 l0 -129 ZM690 1873 l-190 229 l-230 0 l236 -229 l184 0 ZM1061 218 l-676 0 l0 412 l639 0 l0 205 l-639 0 l0 390 l676 0 l0 218 l-934 0 l0 -1443 l934 0 l0 218 Z" /><glyph glyph-name="" unicode="&#x1e16;" d="M929 1631 l0 129 l-670 0 l0 -129 l670 0 ZM498 1873 l184 0 l236 229 l-230 0 l-190 -229 ZM1061 218 l-676 0 l0 412 l639 0 l0 205 l-639 0 l0 390 l676 0 l0 218 l-934 0 l0 -1443 l934 0 l0 218 Z" /><glyph glyph-name="" unicode="&#x1ebc;" d="M1061 218 l-676 0 l0 412 l639 0 l0 205 l-639 0 l0 390 l676 0 l0 218 l-934 0 l0 -1443 l934 0 l0 218 ZM729 1538 q89 1 144 72 q54 70 56 194 l-141 0 q-1 -62 -17 -95 q-16 -33 -48 -33 q-50 9 -103 71 q-54 62 -155 71 q-91 -1 -145 -70 q-55 -69 -56 -194 l141 0 q1 58 18 92 q18 33 51 34 q53 -9 106 -71 q52 -62 149 -71 l0 0 Z" /><glyph glyph-name="" unicode="&#x1e18;" d="M1061 218 l-676 0 l0 412 l639 0 l0 205 l-639 0 l0 390 l676 0 l0 218 l-934 0 l0 -1443 l934 0 l0 218 ZM496 -162 l-281 -310 l203 0 l174 198 l4 0 l174 -198 l203 0 l-281 310 l-196 0 Z" /><glyph glyph-name="" unicode="&#x114;" d="M1061 218 l-676 0 l0 412 l639 0 l0 205 l-639 0 l0 390 l676 0 l0 218 l-934 0 l0 -1443 l934 0 l0 218 ZM257 1856 q3 -136 92 -222 q90 -85 245 -88 q155 3 245 88 q89 86 92 222 l-156 0 q-2 -79 -51 -129 q-50 -50 -130 -52 q-80 2 -129 52 q-50 50 -52 129 l-156 0 Z" /><glyph glyph-name="" unicode="&#x1e1a;" d="M729 -429 q89 1 144 72 q54 70 56 194 l-141 0 q-1 -62 -17 -95 q-16 -33 -48 -33 q-50 9 -103 71 q-54 62 -155 71 q-91 -1 -145 -70 q-55 -69 -56 -194 l141 0 q1 58 18 92 q18 33 51 34 q53 -9 106 -71 q52 -62 149 -71 l0 0 ZM1061 218 l-676 0 l0 412 l639 0 l0 205 l-639 0 l0 390 l676 0 l0 218 l-934 0 l0 -1443 l934 0 l0 218 Z" /><glyph glyph-name="" unicode="&#x116;" d="M594 1569 q59 2 98 41 q40 39 41 98 q-1 59 -41 98 q-39 40 -98 41 q-59 -1 -98 -41 q-40 -39 -41 -98 q1 -59 41 -98 q39 -39 98 -41 l0 0 ZM1061 218 l-676 0 l0 412 l639 0 l0 205 l-639 0 l0 390 l676 0 l0 218 l-934 0 l0 -1443 l934 0 l0 218 Z" /><glyph glyph-name="" unicode="&#x228;" d="M1061 1225 l0 218 l-934 0 l0 -1443 l414 0 l-58 -138 l0 -90 l55 0 q71 0 103 -14 q32 -15 31 -46 q0 -62 -111 -62 q-32 0 -65 4 q-33 4 -50 10 l0 -111 q29 -9 65 -13 q36 -4 77 -4 q108 2 170 51 q62 48 63 132 q0 75 -50 116 q-50 40 -144 40 l50 125 l384 0 l0 218 l-676 0 l0 412 l639 0 l0 205 l-639 0 l0 390 l676 0 Z" /><glyph glyph-name="" unicode="&#x1e1c;" d="M775 1856 q-2 -79 -51 -129 q-50 -50 -130 -52 q-80 2 -129 52 q-50 50 -52 129 l-156 0 q3 -136 92 -222 q90 -85 245 -88 q155 3 245 88 q89 86 92 222 l-156 0 ZM1061 1225 l0 218 l-934 0 l0 -1443 l414 0 l-58 -138 l0 -90 l55 0 q71 0 103 -14 q32 -15 31 -46 q0 -62 -111 -62 q-32 0 -65 4 q-33 4 -50 10 l0 -111 q29 -9 65 -13 q36 -4 77 -4 q108 2 170 51 q62 48 63 132 q0 75 -50 116 q-50 40 -144 40 l50 125 l384 0 l0 218 l-676 0 l0 412 l639 0 l0 205 l-639 0 l0 390 l676 0 Z" /><glyph glyph-name="" unicode="&#x118;" d="M884 -452 q77 1 126 19 l0 153 q-10 -3 -28 -5 q-19 -2 -40 -2 q-53 1 -84 27 q-31 26 -32 70 q2 61 57 112 q54 51 132 74 l46 12 l0 210 l-676 0 l0 412 l639 0 l0 205 l-639 0 l0 390 l676 0 l0 218 l-934 0 l0 -1443 l645 0 l0 -4 q-70 -41 -110 -101 q-39 -60 -40 -130 q2 -97 74 -156 q71 -59 188 -61 l0 0 Z" /><glyph glyph-name="" unicode="f" d="M385 0 l0 589 l605 0 l0 210 l-605 0 l0 426 l662 0 l0 218 l-920 0 l0 -1443 l258 0 Z" /><glyph glyph-name="" unicode="&#x1e1e;" d="M579 1569 q59 2 98 41 q40 39 41 98 q-1 59 -41 98 q-39 40 -98 41 q-59 -1 -98 -41 q-40 -39 -41 -98 q1 -59 41 -98 q39 -39 98 -41 l0 0 ZM385 0 l0 589 l605 0 l0 210 l-605 0 l0 426 l662 0 l0 218 l-920 0 l0 -1443 l258 0 Z" /><glyph glyph-name="" unicode="g" d="M1390 602 l0 154 l-600 0 l0 -197 l348 0 l-1 -24 q-5 -154 -106 -246 q-101 -92 -267 -94 q-197 2 -308 143 q-112 141 -114 392 q2 246 110 381 q108 135 305 137 q134 -1 228 -70 q94 -69 132 -194 l262 0 q-39 220 -206 350 q-167 130 -417 133 q-316 -3 -495 -198 q-180 -195 -183 -542 q3 -352 184 -550 q180 -198 499 -201 q299 2 463 166 q164 164 166 460 l0 0 Z" /><glyph glyph-name="" unicode="&#x1f4;" d="M845 1552 l279 306 l-246 0 l-231 -306 l198 0 ZM1390 602 l0 154 l-600 0 l0 -197 l348 0 l-1 -24 q-5 -154 -106 -246 q-101 -92 -267 -94 q-197 2 -308 143 q-112 141 -114 392 q2 246 110 381 q108 135 305 137 q134 -1 228 -70 q94 -69 132 -194 l262 0 q-39 220 -206 350 q-167 130 -417 133 q-316 -3 -495 -198 q-180 -195 -183 -542 q3 -352 184 -550 q180 -198 499 -201 q299 2 463 166 q164 164 166 460 l0 0 Z" /><glyph glyph-name="" unicode="&#x1e6;" d="M650 1546 l196 0 l281 310 l-203 0 l-174 -198 l-4 0 l-174 198 l-203 0 l281 -310 ZM1390 602 l0 154 l-600 0 l0 -197 l348 0 l-1 -24 q-5 -154 -106 -246 q-101 -92 -267 -94 q-197 2 -308 143 q-112 141 -114 392 q2 246 110 381 q108 135 305 137 q134 -1 228 -70 q94 -69 132 -194 l262 0 q-39 220 -206 350 q-167 130 -417 133 q-316 -3 -495 -198 q-180 -195 -183 -542 q3 -352 184 -550 q180 -198 499 -201 q299 2 463 166 q164 164 166 460 l0 0 Z" /><glyph glyph-name="" unicode="&#x11c;" d="M650 1856 l-281 -310 l203 0 l174 198 l4 0 l174 -198 l203 0 l-281 310 l-196 0 ZM1390 602 l0 154 l-600 0 l0 -197 l348 0 l-1 -24 q-5 -154 -106 -246 q-101 -92 -267 -94 q-197 2 -308 143 q-112 141 -114 392 q2 246 110 381 q108 135 305 137 q134 -1 228 -70 q94 -69 132 -194 l262 0 q-39 220 -206 350 q-167 130 -417 133 q-316 -3 -495 -198 q-180 -195 -183 -542 q3 -352 184 -550 q180 -198 499 -201 q299 2 463 166 q164 164 166 460 l0 0 Z" /><glyph glyph-name="" unicode="&#x11e;" d="M1390 602 l0 154 l-600 0 l0 -197 l348 0 l-1 -24 q-5 -154 -106 -246 q-101 -92 -267 -94 q-197 2 -308 143 q-112 141 -114 392 q2 246 110 381 q108 135 305 137 q134 -1 228 -70 q94 -69 132 -194 l262 0 q-39 220 -206 350 q-167 130 -417 133 q-316 -3 -495 -198 q-180 -195 -183 -542 q3 -352 184 -550 q180 -198 499 -201 q299 2 463 166 q164 164 166 460 l0 0 ZM411 1856 q3 -136 92 -222 q90 -85 245 -88 q155 3 245 88 q89 86 92 222 l-156 0 q-2 -79 -51 -129 q-50 -50 -130 -52 q-80 2 -129 52 q-50 50 -52 129 l-156 0 Z" /><glyph glyph-name="" unicode="&#x1e20;" d="M1390 602 l0 154 l-600 0 l0 -197 l348 0 l-1 -24 q-5 -154 -106 -246 q-101 -92 -267 -94 q-197 2 -308 143 q-112 141 -114 392 q2 246 110 381 q108 135 305 137 q134 -1 228 -70 q94 -69 132 -194 l262 0 q-39 220 -206 350 q-167 130 -417 133 q-316 -3 -495 -198 q-180 -195 -183 -542 q3 -352 184 -550 q180 -198 499 -201 q299 2 463 166 q164 164 166 460 l0 0 ZM1083 1760 l-670 0 l0 -129 l670 0 l0 129 Z" /><glyph glyph-name="" unicode="&#x120;" d="M748 1569 q59 2 98 41 q40 39 41 98 q-1 59 -41 98 q-39 40 -98 41 q-59 -1 -98 -41 q-40 -39 -41 -98 q1 -59 41 -98 q39 -39 98 -41 l0 0 ZM1390 602 l0 154 l-600 0 l0 -197 l348 0 l-1 -24 q-5 -154 -106 -246 q-101 -92 -267 -94 q-197 2 -308 143 q-112 141 -114 392 q2 246 110 381 q108 135 305 137 q134 -1 228 -70 q94 -69 132 -194 l262 0 q-39 220 -206 350 q-167 130 -417 133 q-316 -3 -495 -198 q-180 -195 -183 -542 q3 -352 184 -550 q180 -198 499 -201 q299 2 463 166 q164 164 166 460 l0 0 Z" /><glyph glyph-name="" unicode="&#x122;" d="M728 -515 l146 354 l-219 0 l-110 -354 l183 0 ZM1390 602 l0 154 l-600 0 l0 -197 l348 0 l-1 -24 q-5 -154 -106 -246 q-101 -92 -267 -94 q-197 2 -308 143 q-112 141 -114 392 q2 246 110 381 q108 135 305 137 q134 -1 228 -70 q94 -69 132 -194 l262 0 q-39 220 -206 350 q-167 130 -417 133 q-316 -3 -495 -198 q-180 -195 -183 -542 q3 -352 184 -550 q180 -198 499 -201 q299 2 463 166 q164 164 166 460 l0 0 Z" /><glyph glyph-name="" unicode="h" d="M1344 0 l0 1443 l-257 0 l0 -600 l-702 0 l0 600 l-258 0 l0 -1443 l258 0 l0 626 l702 0 l0 -626 l257 0 Z" /><glyph glyph-name="" unicode="&#x1e26;" d="M1344 0 l0 1443 l-257 0 l0 -600 l-702 0 l0 600 l-258 0 l0 -1443 l258 0 l0 626 l702 0 l0 -626 l257 0 ZM531 1569 q55 1 90 37 q36 35 37 87 q-1 53 -37 88 q-35 36 -90 37 q-55 -1 -90 -37 q-36 -35 -37 -88 q1 -52 37 -87 q35 -36 90 -37 l0 0 ZM941 1569 q54 1 90 37 q35 35 36 87 q-1 53 -36 88 q-36 36 -90 37 q-55 -1 -90 -37 q-36 -35 -37 -88 q1 -52 37 -87 q35 -36 90 -37 l0 0 Z" /><glyph glyph-name="" unicode="&#x21e;" d="M1344 0 l0 1443 l-257 0 l0 -600 l-702 0 l0 600 l-258 0 l0 -1443 l258 0 l0 626 l702 0 l0 -626 l257 0 ZM638 1546 l196 0 l281 310 l-203 0 l-174 -198 l-4 0 l-174 198 l-203 0 l281 -310 Z" /><glyph glyph-name="" unicode="&#x124;" d="M1344 0 l0 1443 l-257 0 l0 -600 l-702 0 l0 600 l-258 0 l0 -1443 l258 0 l0 626 l702 0 l0 -626 l257 0 ZM638 1856 l-281 -310 l203 0 l174 198 l4 0 l174 -198 l203 0 l-281 310 l-196 0 Z" /><glyph glyph-name="" unicode="&#x1e24;" d="M1344 0 l0 1443 l-257 0 l0 -600 l-702 0 l0 600 l-258 0 l0 -1443 l258 0 l0 626 l702 0 l0 -626 l257 0 ZM736 -434 q59 2 98 41 q40 39 41 98 q-1 59 -41 98 q-39 40 -98 41 q-59 -1 -98 -41 q-40 -39 -41 -98 q1 -59 41 -98 q39 -39 98 -41 l0 0 Z" /><glyph glyph-name="" unicode="&#x1e22;" d="M1344 0 l0 1443 l-257 0 l0 -600 l-702 0 l0 600 l-258 0 l0 -1443 l258 0 l0 626 l702 0 l0 -626 l257 0 ZM736 1569 q59 2 98 41 q40 39 41 98 q-1 59 -41 98 q-39 40 -98 41 q-59 -1 -98 -41 q-40 -39 -41 -98 q1 -59 41 -98 q39 -39 98 -41 l0 0 Z" /><glyph glyph-name="" unicode="&#x1e2a;" d="M399 -183 q3 -136 92 -222 q90 -85 245 -88 q155 3 245 88 q89 86 92 222 l-156 0 q-2 -79 -51 -129 q-50 -50 -130 -52 q-80 2 -129 52 q-50 50 -52 129 l-156 0 ZM1344 0 l0 1443 l-257 0 l0 -600 l-702 0 l0 600 l-258 0 l0 -1443 l258 0 l0 626 l702 0 l0 -626 l257 0 Z" /><glyph glyph-name="" unicode="&#x1e28;" d="M1087 1443 l0 -600 l-702 0 l0 600 l-258 0 l0 -1443 l122 0 l-58 -138 l0 -90 l55 0 q71 0 103 -14 q32 -15 31 -46 q0 -62 -111 -62 q-32 0 -65 4 q-33 4 -50 10 l0 -111 q29 -9 65 -13 q36 -4 77 -4 q108 2 170 51 q62 48 63 132 q0 75 -50 116 q-50 40 -144 40 l50 125 l0 11 l0 615 l702 0 l0 -626 l257 0 l0 1443 l-257 0 Z" /><glyph glyph-name="" unicode="&#x126;" d="M1095 843 l-702 0 l0 217 l702 0 l0 -217 ZM1469 1246 l-117 0 l0 197 l-257 0 l0 -197 l-702 0 l0 197 l-258 0 l0 -197 l-115 0 l0 -186 l115 0 l0 -1060 l258 0 l0 626 l702 0 l0 -626 l257 0 l0 1060 l117 0 l0 186 Z" /><glyph glyph-name="" unicode="i" d="M385 0 l0 1443 l-258 0 l0 -1443 l258 0 Z" /><glyph glyph-name="" unicode="&#x130;" d="M385 0 l0 1443 l-258 0 l0 -1443 l258 0 ZM256 1569 q59 2 98 41 q40 39 41 98 q-1 59 -41 98 q-39 40 -98 41 q-59 -1 -98 -41 q-40 -39 -41 -98 q1 -59 41 -98 q39 -39 98 -41 l0 0 Z" /><glyph glyph-name="" unicode="ì" d="M385 0 l0 1443 l-258 0 l0 -1443 l258 0 ZM159 1555 l198 0 l-231 306 l-246 0 l279 -306 Z" /><glyph glyph-name="" unicode="&#x208;" d="M385 0 l0 1443 l-258 0 l0 -1443 l258 0 ZM345 1552 l191 0 l-231 306 l-239 0 l279 -306 ZM-20 1552 l192 0 l-231 306 l-239 0 l278 -306 Z" /><glyph glyph-name="" unicode="í" d="M385 0 l0 1443 l-258 0 l0 -1443 l258 0 ZM353 1552 l279 306 l-246 0 l-231 -306 l198 0 Z" /><glyph glyph-name="" unicode="î" d="M385 0 l0 1443 l-258 0 l0 -1443 l258 0 ZM158 1856 l-281 -310 l203 0 l174 198 l4 0 l174 -198 l203 0 l-281 310 l-196 0 Z" /><glyph glyph-name="" unicode="&#x1cf;" d="M385 0 l0 1443 l-258 0 l0 -1443 l258 0 ZM158 1546 l196 0 l281 310 l-203 0 l-174 -198 l-4 0 l-174 198 l-203 0 l281 -310 Z" /><glyph glyph-name="" unicode="ï" d="M385 0 l0 1443 l-258 0 l0 -1443 l258 0 ZM51 1569 q55 1 90 37 q36 35 37 87 q-1 53 -37 88 q-35 36 -90 37 q-55 -1 -90 -37 q-36 -35 -37 -88 q1 -52 37 -87 q35 -36 90 -37 l0 0 ZM461 1569 q54 1 90 37 q35 35 36 87 q-1 53 -36 88 q-36 36 -90 37 q-55 -1 -90 -37 q-36 -35 -37 -88 q1 -52 37 -87 q35 -36 90 -37 l0 0 Z" /><glyph glyph-name="" unicode="&#x1e2e;" d="M385 0 l0 1443 l-258 0 l0 -1443 l258 0 ZM160 1873 l184 0 l236 229 l-230 0 l-190 -229 ZM59 1574 q50 1 83 34 q33 32 34 81 q-1 49 -34 82 q-33 33 -83 34 q-51 -1 -84 -34 q-33 -33 -34 -82 q1 -49 34 -81 q33 -33 84 -34 l0 0 ZM453 1574 q51 1 84 34 q33 32 34 81 q-1 49 -34 82 q-33 33 -84 34 q-50 -1 -83 -34 q-33 -33 -34 -82 q1 -49 34 -81 q33 -33 83 -34 l0 0 Z" /><glyph glyph-name="" unicode="&#x12c;" d="M385 0 l0 1443 l-258 0 l0 -1443 l258 0 ZM-81 1856 q3 -136 92 -222 q90 -85 245 -88 q155 3 245 88 q89 86 92 222 l-156 0 q-2 -79 -51 -129 q-50 -50 -130 -52 q-80 2 -129 52 q-50 50 -52 129 l-156 0 Z" /><glyph glyph-name="" unicode="&#x1eca;" d="M385 0 l0 1443 l-258 0 l0 -1443 l258 0 ZM256 -434 q59 2 98 41 q40 39 41 98 q-1 59 -41 98 q-39 40 -98 41 q-59 -1 -98 -41 q-40 -39 -41 -98 q1 -59 41 -98 q39 -39 98 -41 l0 0 Z" /><glyph glyph-name="" unicode="&#x20a;" d="M385 0 l0 1443 l-258 0 l0 -1443 l258 0 ZM-81 1546 l156 0 q2 78 52 128 q49 50 129 52 q80 -2 130 -52 q49 -50 51 -128 l156 0 q-3 136 -92 221 q-90 86 -245 89 q-155 -3 -245 -89 q-89 -85 -92 -221 l0 0 Z" /><glyph glyph-name="" unicode="&#x12a;" d="M385 0 l0 1443 l-258 0 l0 -1443 l258 0 ZM591 1760 l-670 0 l0 -129 l670 0 l0 129 Z" /><glyph glyph-name="" unicode="&#x1e2c;" d="M385 0 l0 1443 l-258 0 l0 -1443 l258 0 ZM391 -429 q89 1 144 72 q54 70 56 194 l-141 0 q-1 -62 -17 -95 q-16 -33 -48 -33 q-50 9 -103 71 q-54 62 -155 71 q-91 -1 -145 -70 q-55 -69 -56 -194 l141 0 q1 58 18 92 q18 33 51 34 q53 -9 106 -71 q52 -62 149 -71 l0 0 Z" /><glyph glyph-name="" unicode="&#x1ec8;" d="M385 0 l0 1443 l-258 0 l0 -1443 l258 0 ZM80 1784 q22 9 51 14 q28 4 53 4 q42 0 67 -20 q25 -19 26 -51 q-1 -33 -26 -61 q-25 -28 -68 -42 l76 -96 q80 30 128 87 q48 56 49 125 q-1 86 -61 134 q-59 48 -160 49 q-37 0 -73 -6 q-35 -7 -62 -19 l0 -118 Z" /><glyph glyph-name="" unicode="&#x128;" d="M385 0 l0 1443 l-258 0 l0 -1443 l258 0 ZM391 1538 q89 1 144 72 q54 70 56 194 l-141 0 q-1 -62 -17 -95 q-16 -33 -48 -33 q-50 9 -103 71 q-54 62 -155 71 q-91 -1 -145 -70 q-55 -69 -56 -194 l141 0 q1 58 18 92 q18 33 51 34 q53 -9 106 -71 q52 -62 149 -71 l0 0 Z" /><glyph glyph-name="" unicode="&#x12e;" d="M127 -18 q-60 -42 -91 -98 q-32 -56 -32 -120 q2 -96 73 -155 q71 -59 188 -61 q44 0 75 5 q31 6 54 14 l0 153 q-13 -3 -31 -5 q-18 -2 -37 -2 q-56 1 -88 28 q-31 26 -32 72 q1 55 46 102 q45 46 117 80 l16 5 l0 1443 l-258 0 l0 -1461 Z" /><glyph glyph-name="" unicode="j" d="M35 394 q3 -195 126 -308 q124 -114 333 -117 q221 1 343 122 q122 120 124 342 l0 1010 l-257 0 l0 -1008 q0 -117 -55 -178 q-54 -62 -158 -62 q-91 1 -146 55 q-55 53 -59 144 l-251 0 Z" /><glyph glyph-name="" unicode="&#x134;" d="M35 394 q3 -195 126 -308 q124 -114 333 -117 q221 1 343 122 q122 120 124 342 l0 1010 l-257 0 l0 -1008 q0 -117 -55 -178 q-54 -62 -158 -62 q-91 1 -146 55 q-55 53 -59 144 l-251 0 ZM738 1856 l-281 -310 l203 0 l174 198 l4 0 l174 -198 l203 0 l-281 310 l-196 0 Z" /><glyph glyph-name="" unicode="k" d="M385 0 l0 464 l142 166 l469 -630 l314 0 l-599 803 l556 640 l-297 0 l-576 -675 l-9 0 l0 675 l-258 0 l0 -1443 l258 0 Z" /><glyph glyph-name="" unicode="&#x1e30;" d="M742 1552 l279 306 l-246 0 l-231 -306 l198 0 ZM385 0 l0 464 l142 166 l469 -630 l314 0 l-599 803 l556 640 l-297 0 l-576 -675 l-9 0 l0 675 l-258 0 l0 -1443 l258 0 Z" /><glyph glyph-name="" unicode="&#x1e8;" d="M385 0 l0 464 l142 166 l469 -630 l314 0 l-599 803 l556 640 l-297 0 l-576 -675 l-9 0 l0 675 l-258 0 l0 -1443 l258 0 ZM547 1546 l196 0 l281 310 l-203 0 l-174 -198 l-4 0 l-174 198 l-203 0 l281 -310 Z" /><glyph glyph-name="" unicode="&#x1e32;" d="M645 -434 q59 2 98 41 q40 39 41 98 q-1 59 -41 98 q-39 40 -98 41 q-59 -1 -98 -41 q-40 -39 -41 -98 q1 -59 41 -98 q39 -39 98 -41 l0 0 ZM385 0 l0 464 l142 166 l469 -630 l314 0 l-599 803 l556 640 l-297 0 l-576 -675 l-9 0 l0 675 l-258 0 l0 -1443 l258 0 Z" /><glyph glyph-name="" unicode="&#x1e34;" d="M385 0 l0 464 l142 166 l469 -630 l314 0 l-599 803 l556 640 l-297 0 l-576 -675 l-9 0 l0 675 l-258 0 l0 -1443 l258 0 ZM980 -226 l-670 0 l0 -129 l670 0 l0 129 Z" /><glyph glyph-name="" unicode="&#x136;" d="M385 0 l0 464 l142 166 l469 -630 l314 0 l-599 803 l556 640 l-297 0 l-576 -675 l-9 0 l0 675 l-258 0 l0 -1443 l258 0 ZM625 -515 l146 354 l-219 0 l-110 -354 l183 0 Z" /><glyph glyph-name="" unicode="l" d="M1040 218 l-655 0 l0 1225 l-258 0 l0 -1443 l913 0 l0 218 Z" /><glyph glyph-name="" unicode="&#x139;" d="M353 1552 l279 306 l-246 0 l-231 -306 l198 0 ZM1040 218 l-655 0 l0 1225 l-258 0 l0 -1443 l913 0 l0 218 Z" /><glyph glyph-name="" unicode="&#x1e3c;" d="M1040 218 l-655 0 l0 1225 l-258 0 l0 -1443 l913 0 l0 218 ZM479 -162 l-281 -310 l203 0 l174 198 l4 0 l174 -198 l203 0 l-281 310 l-196 0 Z" /><glyph glyph-name="" unicode="&#x1e36;" d="M577 -434 q59 2 98 41 q40 39 41 98 q-1 59 -41 98 q-39 40 -98 41 q-59 -1 -98 -41 q-40 -39 -41 -98 q1 -59 41 -98 q39 -39 98 -41 l0 0 ZM1040 218 l-655 0 l0 1225 l-258 0 l0 -1443 l913 0 l0 218 Z" /><glyph glyph-name="" unicode="&#x1e38;" d="M577 -434 q59 2 98 41 q40 39 41 98 q-1 59 -41 98 q-39 40 -98 41 q-59 -1 -98 -41 q-40 -39 -41 -98 q1 -59 41 -98 q39 -39 98 -41 l0 0 ZM1040 218 l-655 0 l0 1225 l-258 0 l0 -1443 l913 0 l0 218 ZM591 1760 l-670 0 l0 -129 l670 0 l0 129 Z" /><glyph glyph-name="" unicode="&#x1e3a;" d="M912 -226 l-670 0 l0 -129 l670 0 l0 129 ZM1040 218 l-655 0 l0 1225 l-258 0 l0 -1443 l913 0 l0 218 Z" /><glyph glyph-name="" unicode="&#x13b;" d="M557 -515 l146 354 l-219 0 l-110 -354 l183 0 ZM1040 218 l-655 0 l0 1225 l-258 0 l0 -1443 l913 0 l0 218 Z" /><glyph glyph-name="" unicode="&#x13d;" d="M643 1443 l0 -498 l169 0 l50 498 l-219 0 ZM1040 218 l-655 0 l0 1225 l-258 0 l0 -1443 l913 0 l0 218 Z" /><glyph glyph-name="" unicode="&#x141;" d="M393 218 l0 567 l309 151 l0 179 l-309 -151 l0 479 l-258 0 l0 -604 l-106 -52 l0 -179 l106 52 l0 -660 l913 0 l0 218 l-655 0 Z" /><glyph glyph-name="" unicode="m" d="M1616 0 l0 1443 l-298 0 l-442 -1089 l-8 0 l-442 1089 l-299 0 l0 -1443 l233 0 l0 1024 l7 0 l417 -1012 l176 0 l417 1012 l7 0 l0 -1024 l232 0 Z" /><glyph glyph-name="" unicode="&#x1e3e;" d="M969 1552 l279 306 l-246 0 l-231 -306 l198 0 ZM1616 0 l0 1443 l-298 0 l-442 -1089 l-8 0 l-442 1089 l-299 0 l0 -1443 l233 0 l0 1024 l7 0 l417 -1012 l176 0 l417 1012 l7 0 l0 -1024 l232 0 Z" /><glyph glyph-name="" unicode="&#x1e40;" d="M872 1569 q59 2 98 41 q40 39 41 98 q-1 59 -41 98 q-39 40 -98 41 q-59 -1 -98 -41 q-40 -39 -41 -98 q1 -59 41 -98 q39 -39 98 -41 l0 0 ZM1616 0 l0 1443 l-298 0 l-442 -1089 l-8 0 l-442 1089 l-299 0 l0 -1443 l233 0 l0 1024 l7 0 l417 -1012 l176 0 l417 1012 l7 0 l0 -1024 l232 0 Z" /><glyph glyph-name="" unicode="&#x1e42;" d="M872 -434 q59 2 98 41 q40 39 41 98 q-1 59 -41 98 q-39 40 -98 41 q-59 -1 -98 -41 q-40 -39 -41 -98 q1 -59 41 -98 q39 -39 98 -41 l0 0 ZM1616 0 l0 1443 l-298 0 l-442 -1089 l-8 0 l-442 1089 l-299 0 l0 -1443 l233 0 l0 1024 l7 0 l417 -1012 l176 0 l417 1012 l7 0 l0 -1024 l232 0 Z" /><glyph glyph-name="" unicode="n" d="M376 0 l0 1012 l9 0 l717 -1012 l222 0 l0 1443 l-248 0 l0 -1011 l-9 0 l-716 1011 l-224 0 l0 -1443 l249 0 Z" /><glyph glyph-name="" unicode="&#x1f8;" d="M629 1555 l198 0 l-231 306 l-246 0 l279 -306 ZM376 0 l0 1012 l9 0 l717 -1012 l222 0 l0 1443 l-248 0 l0 -1011 l-9 0 l-716 1011 l-224 0 l0 -1443 l249 0 Z" /><glyph glyph-name="" unicode="&#x143;" d="M823 1552 l279 306 l-246 0 l-231 -306 l198 0 ZM376 0 l0 1012 l9 0 l717 -1012 l222 0 l0 1443 l-248 0 l0 -1011 l-9 0 l-716 1011 l-224 0 l0 -1443 l249 0 Z" /><glyph glyph-name="" unicode="ñ" d="M861 1538 q89 1 144 72 q54 70 56 194 l-141 0 q-1 -62 -17 -95 q-16 -33 -48 -33 q-50 9 -103 71 q-54 62 -155 71 q-91 -1 -145 -70 q-55 -69 -56 -194 l141 0 q1 58 18 92 q18 33 51 34 q53 -9 106 -71 q52 -62 149 -71 l0 0 ZM376 0 l0 1012 l9 0 l717 -1012 l222 0 l0 1443 l-248 0 l0 -1011 l-9 0 l-716 1011 l-224 0 l0 -1443 l249 0 Z" /><glyph glyph-name="" unicode="&#x1e46;" d="M726 -434 q59 2 98 41 q40 39 41 98 q-1 59 -41 98 q-39 40 -98 41 q-59 -1 -98 -41 q-40 -39 -41 -98 q1 -59 41 -98 q39 -39 98 -41 l0 0 ZM376 0 l0 1012 l9 0 l717 -1012 l222 0 l0 1443 l-248 0 l0 -1011 l-9 0 l-716 1011 l-224 0 l0 -1443 l249 0 Z" /><glyph glyph-name="" unicode="&#x1e44;" d="M726 1569 q59 2 98 41 q40 39 41 98 q-1 59 -41 98 q-39 40 -98 41 q-59 -1 -98 -41 q-40 -39 -41 -98 q1 -59 41 -98 q39 -39 98 -41 l0 0 ZM376 0 l0 1012 l9 0 l717 -1012 l222 0 l0 1443 l-248 0 l0 -1011 l-9 0 l-716 1011 l-224 0 l0 -1443 l249 0 Z" /><glyph glyph-name="" unicode="&#x147;" d="M628 1546 l196 0 l281 310 l-203 0 l-174 -198 l-4 0 l-174 198 l-203 0 l281 -310 ZM376 0 l0 1012 l9 0 l717 -1012 l222 0 l0 1443 l-248 0 l0 -1011 l-9 0 l-716 1011 l-224 0 l0 -1443 l249 0 Z" /><glyph glyph-name="" unicode="&#x1e4a;" d="M376 0 l0 1012 l9 0 l717 -1012 l222 0 l0 1443 l-248 0 l0 -1011 l-9 0 l-716 1011 l-224 0 l0 -1443 l249 0 ZM628 -162 l-281 -310 l203 0 l174 198 l4 0 l174 -198 l203 0 l-281 310 l-196 0 Z" /><glyph glyph-name="" unicode="&#x1e48;" d="M1061 -226 l-670 0 l0 -129 l670 0 l0 129 ZM376 0 l0 1012 l9 0 l717 -1012 l222 0 l0 1443 l-248 0 l0 -1011 l-9 0 l-716 1011 l-224 0 l0 -1443 l249 0 Z" /><glyph glyph-name="" unicode="&#x145;" d="M706 -515 l146 354 l-219 0 l-110 -354 l183 0 ZM376 0 l0 1012 l9 0 l717 -1012 l222 0 l0 1443 l-248 0 l0 -1011 l-9 0 l-716 1011 l-224 0 l0 -1443 l249 0 Z" /><glyph glyph-name="" unicode="o" d="M763 1467 q-319 -4 -500 -201 q-182 -197 -185 -545 q3 -348 185 -545 q181 -196 500 -200 q318 4 500 200 q181 197 184 545 q-3 348 -184 545 q-182 197 -500 201 l0 0 ZM763 1247 q195 -3 307 -142 q112 -140 114 -384 q-2 -243 -114 -383 q-112 -139 -307 -142 q-196 3 -307 142 q-112 140 -114 383 q2 244 114 384 q111 139 307 142 l0 0 Z" /><glyph glyph-name="" unicode="ö" d="M558 1569 q55 1 90 37 q36 35 37 87 q-1 53 -37 88 q-35 36 -90 37 q-55 -1 -90 -37 q-36 -35 -37 -88 q1 -52 37 -87 q35 -36 90 -37 l0 0 ZM968 1569 q54 1 90 37 q35 35 36 87 q-1 53 -36 88 q-36 36 -90 37 q-55 -1 -90 -37 q-36 -35 -37 -88 q1 -52 37 -87 q35 -36 90 -37 l0 0 ZM763 1467 q-319 -4 -500 -201 q-182 -197 -185 -545 q3 -348 185 -545 q181 -196 500 -200 q318 4 500 200 q181 197 184 545 q-3 348 -184 545 q-182 197 -500 201 l0 0 ZM763 1247 q195 -3 307 -142 q112 -140 114 -384 q-2 -243 -114 -383 q-112 -139 -307 -142 q-196 3 -307 142 q-112 140 -114 383 q2 244 114 384 q111 139 307 142 l0 0 Z" /><glyph glyph-name="" unicode="ø" d="M1099 1063 q41 -66 63 -152 q22 -86 22 -190 q-2 -243 -114 -383 q-112 -139 -307 -142 q-65 0 -122 17 q-57 17 -104 49 l562 801 ZM448 348 q-51 69 -78 163 q-28 94 -28 210 q2 244 114 384 q111 139 307 142 q76 0 140 -23 q64 -22 115 -65 l-570 -811 ZM1361 1436 l-104 63 l-100 -142 q-80 53 -179 82 q-99 28 -215 28 q-319 -4 -500 -201 q-182 -197 -185 -545 q1 -190 58 -337 q57 -148 165 -245 l-90 -128 l101 -70 l88 125 q76 -44 167 -67 q91 -23 196 -23 q318 4 500 200 q181 197 184 545 q0 178 -51 319 q-50 141 -145 239 l110 157 Z" /><glyph glyph-name="" unicode="õ" d="M763 1467 q-319 -4 -500 -201 q-182 -197 -185 -545 q3 -348 185 -545 q181 -196 500 -200 q318 4 500 200 q181 197 184 545 q-3 348 -184 545 q-182 197 -500 201 l0 0 ZM763 1247 q195 -3 307 -142 q112 -140 114 -384 q-2 -243 -114 -383 q-112 -139 -307 -142 q-196 3 -307 142 q-112 140 -114 383 q2 244 114 384 q111 139 307 142 l0 0 ZM898 1538 q89 1 144 72 q54 70 56 194 l-141 0 q-1 -62 -17 -95 q-16 -33 -48 -33 q-50 9 -103 71 q-54 62 -155 71 q-91 -1 -145 -70 q-55 -69 -56 -194 l141 0 q1 58 18 92 q18 33 51 34 q53 -9 106 -71 q52 -62 149 -71 l0 0 Z" /><glyph glyph-name="" unicode="ó" d="M860 1552 l279 306 l-246 0 l-231 -306 l198 0 ZM763 1467 q-319 -4 -500 -201 q-182 -197 -185 -545 q3 -348 185 -545 q181 -196 500 -200 q318 4 500 200 q181 197 184 545 q-3 348 -184 545 q-182 197 -500 201 l0 0 ZM763 1247 q195 -3 307 -142 q112 -140 114 -384 q-2 -243 -114 -383 q-112 -139 -307 -142 q-196 3 -307 142 q-112 140 -114 383 q2 244 114 384 q111 139 307 142 l0 0 Z" /><glyph glyph-name="" unicode="ô" d="M665 1856 l-281 -310 l203 0 l174 198 l4 0 l174 -198 l203 0 l-281 310 l-196 0 ZM763 1467 q-319 -4 -500 -201 q-182 -197 -185 -545 q3 -348 185 -545 q181 -196 500 -200 q318 4 500 200 q181 197 184 545 q-3 348 -184 545 q-182 197 -500 201 l0 0 ZM763 1247 q195 -3 307 -142 q112 -140 114 -384 q-2 -243 -114 -383 q-112 -139 -307 -142 q-196 3 -307 142 q-112 140 -114 383 q2 244 114 384 q111 139 307 142 l0 0 Z" /><glyph glyph-name="" unicode="ò" d="M666 1555 l198 0 l-231 306 l-246 0 l279 -306 ZM763 1467 q-319 -4 -500 -201 q-182 -197 -185 -545 q3 -348 185 -545 q181 -196 500 -200 q318 4 500 200 q181 197 184 545 q-3 348 -184 545 q-182 197 -500 201 l0 0 ZM763 1247 q195 -3 307 -142 q112 -140 114 -384 q-2 -243 -114 -383 q-112 -139 -307 -142 q-196 3 -307 142 q-112 140 -114 383 q2 244 114 384 q111 139 307 142 l0 0 Z" /><glyph glyph-name="" unicode="&#x1ed4;" d="M663 1812 l-264 -249 l214 0 l145 143 l13 0 l145 -143 l213 0 l-262 249 l-204 0 ZM883 1968 q18 8 43 12 q25 5 51 5 q38 -1 61 -19 q23 -18 24 -48 q0 -29 -19 -53 q-19 -25 -57 -39 l87 -85 q65 25 101 76 q36 51 36 114 q-1 80 -55 126 q-55 46 -148 47 q-34 0 -67 -6 q-33 -7 -57 -19 l0 -111 ZM763 1467 q-319 -4 -500 -201 q-182 -197 -185 -545 q3 -348 185 -545 q181 -196 500 -200 q318 4 500 200 q181 197 184 545 q-3 348 -184 545 q-182 197 -500 201 l0 0 ZM763 1247 q195 -3 307 -142 q112 -140 114 -384 q-2 -243 -114 -383 q-112 -139 -307 -142 q-196 3 -307 142 q-112 140 -114 383 q2 244 114 384 q111 139 307 142 l0 0 Z" /><glyph glyph-name="" unicode="&#x1ed2;" d="M661 1812 l-263 -249 l214 0 l145 143 l12 0 l145 -143 l214 0 l-263 249 l-204 0 ZM1095 1873 l-191 229 l-230 0 l237 -229 l184 0 ZM763 1467 q-319 -4 -500 -201 q-182 -197 -185 -545 q3 -348 185 -545 q181 -196 500 -200 q318 4 500 200 q181 197 184 545 q-3 348 -184 545 q-182 197 -500 201 l0 0 ZM763 1247 q195 -3 307 -142 q112 -140 114 -384 q-2 -243 -114 -383 q-112 -139 -307 -142 q-196 3 -307 142 q-112 140 -114 383 q2 244 114 384 q111 139 307 142 l0 0 Z" /><glyph glyph-name="" unicode="&#x1ecc;" d="M763 -434 q59 2 98 41 q40 39 41 98 q-1 59 -41 98 q-39 40 -98 41 q-59 -1 -98 -41 q-40 -39 -41 -98 q1 -59 41 -98 q39 -39 98 -41 l0 0 ZM763 1467 q-319 -4 -500 -201 q-182 -197 -185 -545 q3 -348 185 -545 q181 -196 500 -200 q318 4 500 200 q181 197 184 545 q-3 348 -184 545 q-182 197 -500 201 l0 0 ZM763 1247 q195 -3 307 -142 q112 -140 114 -384 q-2 -243 -114 -383 q-112 -139 -307 -142 q-196 3 -307 142 q-112 140 -114 383 q2 244 114 384 q111 139 307 142 l0 0 Z" /><glyph glyph-name="" unicode="&#x20c;" d="M852 1552 l191 0 l-231 306 l-239 0 l279 -306 ZM487 1552 l192 0 l-231 306 l-239 0 l278 -306 ZM763 1467 q-319 -4 -500 -201 q-182 -197 -185 -545 q3 -348 185 -545 q181 -196 500 -200 q318 4 500 200 q181 197 184 545 q-3 348 -184 545 q-182 197 -500 201 l0 0 ZM763 1247 q195 -3 307 -142 q112 -140 114 -384 q-2 -243 -114 -383 q-112 -139 -307 -142 q-196 3 -307 142 q-112 140 -114 383 q2 244 114 384 q111 139 307 142 l0 0 Z" /><glyph glyph-name="" unicode="&#x1e4c;" d="M763 1467 q-319 -4 -500 -201 q-182 -197 -185 -545 q3 -348 185 -545 q181 -196 500 -200 q318 4 500 200 q181 197 184 545 q-3 348 -184 545 q-182 197 -500 201 l0 0 ZM763 1247 q195 -3 307 -142 q112 -140 114 -384 q-2 -243 -114 -383 q-112 -139 -307 -142 q-196 3 -307 142 q-112 140 -114 383 q2 244 114 384 q111 139 307 142 l0 0 ZM895 1535 q89 1 144 72 q54 70 56 194 l-142 0 q-1 -62 -17 -95 q-16 -33 -47 -33 q-51 9 -104 72 q-54 62 -156 71 q-91 -1 -145 -70 q-54 -69 -55 -194 l141 0 q1 58 18 91 q18 33 51 34 q53 -9 106 -71 q53 -62 150 -71 l0 0 ZM668 1873 l184 0 l237 229 l-230 0 l-191 -229 Z" /><glyph glyph-name="" unicode="&#x1e52;" d="M1098 1631 l0 129 l-670 0 l0 -129 l670 0 ZM667 1873 l184 0 l236 229 l-230 0 l-190 -229 ZM763 1467 q-319 -4 -500 -201 q-182 -197 -185 -545 q3 -348 185 -545 q181 -196 500 -200 q318 4 500 200 q181 197 184 545 q-3 348 -184 545 q-182 197 -500 201 l0 0 ZM763 1247 q195 -3 307 -142 q112 -140 114 -384 q-2 -243 -114 -383 q-112 -139 -307 -142 q-196 3 -307 142 q-112 140 -114 383 q2 244 114 384 q111 139 307 142 l0 0 Z" /><glyph glyph-name="" unicode="&#x1ed6;" d="M892 1858 q89 1 145 66 q55 65 57 179 l-138 0 q-2 -56 -19 -85 q-18 -29 -53 -29 q-48 8 -93 65 q-46 56 -149 64 q-92 -1 -147 -64 q-56 -62 -57 -178 l138 0 q3 56 20 85 q17 28 53 28 q56 -8 99 -65 q44 -58 144 -66 l0 0 ZM661 1799 l-263 -236 l214 0 l145 131 l12 0 l145 -131 l214 0 l-263 236 l-204 0 ZM763 1467 q-319 -4 -500 -201 q-182 -197 -185 -545 q3 -348 185 -545 q181 -196 500 -200 q318 4 500 200 q181 197 184 545 q-3 348 -184 545 q-182 197 -500 201 l0 0 ZM763 1247 q195 -3 307 -142 q112 -140 114 -384 q-2 -243 -114 -383 q-112 -139 -307 -142 q-196 3 -307 142 q-112 140 -114 383 q2 244 114 384 q111 139 307 142 l0 0 Z" /><glyph glyph-name="" unicode="&#x230;" d="M763 1562 q57 1 93 37 q36 36 37 90 q-1 54 -37 90 q-36 36 -93 37 q-57 -1 -93 -37 q-36 -36 -37 -90 q1 -54 37 -90 q36 -36 93 -37 l0 0 ZM1098 2055 l-670 0 l0 -129 l670 0 l0 129 ZM763 1467 q-319 -4 -500 -201 q-182 -197 -185 -545 q3 -348 185 -545 q181 -196 500 -200 q318 4 500 200 q181 197 184 545 q-3 348 -184 545 q-182 197 -500 201 l0 0 ZM763 1247 q195 -3 307 -142 q112 -140 114 -384 q-2 -243 -114 -383 q-112 -139 -307 -142 q-196 3 -307 142 q-112 140 -114 383 q2 244 114 384 q111 139 307 142 l0 0 Z" /><glyph glyph-name="" unicode="&#x1e50;" d="M428 1631 l670 0 l0 129 l-670 0 l0 -129 ZM859 1873 l-190 229 l-230 0 l236 -229 l184 0 ZM763 1467 q-319 -4 -500 -201 q-182 -197 -185 -545 q3 -348 185 -545 q181 -196 500 -200 q318 4 500 200 q181 197 184 545 q-3 348 -184 545 q-182 197 -500 201 l0 0 ZM763 1247 q195 -3 307 -142 q112 -140 114 -384 q-2 -243 -114 -383 q-112 -139 -307 -142 q-196 3 -307 142 q-112 140 -114 383 q2 244 114 384 q111 139 307 142 l0 0 Z" /><glyph glyph-name="" unicode="&#x1d1;" d="M665 1546 l196 0 l281 310 l-203 0 l-174 -198 l-4 0 l-174 198 l-203 0 l281 -310 ZM763 1467 q-319 -4 -500 -201 q-182 -197 -185 -545 q3 -348 185 -545 q181 -196 500 -200 q318 4 500 200 q181 197 184 545 q-3 348 -184 545 q-182 197 -500 201 l0 0 ZM763 1247 q195 -3 307 -142 q112 -140 114 -384 q-2 -243 -114 -383 q-112 -139 -307 -142 q-196 3 -307 142 q-112 140 -114 383 q2 244 114 384 q111 139 307 142 l0 0 Z" /><glyph glyph-name="" unicode="&#x1fe;" d="M1165 1858 l-246 0 l-231 -306 l198 0 l279 306 ZM1099 1063 q41 -66 63 -152 q22 -86 22 -190 q-2 -243 -114 -383 q-112 -139 -307 -142 q-65 0 -122 17 q-57 17 -104 49 l562 801 ZM448 348 q-51 69 -78 163 q-28 94 -28 210 q2 244 114 384 q111 139 307 142 q76 0 140 -23 q64 -22 115 -65 l-570 -811 ZM1361 1436 l-104 63 l-100 -142 q-80 53 -179 82 q-99 28 -215 28 q-319 -4 -500 -201 q-182 -197 -185 -545 q1 -190 58 -337 q57 -148 165 -245 l-90 -128 l101 -70 l88 125 q76 -44 167 -67 q91 -23 196 -23 q318 4 500 200 q181 197 184 545 q0 178 -51 319 q-50 141 -145 239 l110 157 Z" /><glyph glyph-name="" unicode="&#x150;" d="M1039 1552 l278 306 l-239 0 l-231 -306 l192 0 ZM674 1552 l279 306 l-239 0 l-231 -306 l191 0 ZM763 1467 q-319 -4 -500 -201 q-182 -197 -185 -545 q3 -348 185 -545 q181 -196 500 -200 q318 4 500 200 q181 197 184 545 q-3 348 -184 545 q-182 197 -500 201 l0 0 ZM763 1247 q195 -3 307 -142 q112 -140 114 -384 q-2 -243 -114 -383 q-112 -139 -307 -142 q-196 3 -307 142 q-112 140 -114 383 q2 244 114 384 q111 139 307 142 l0 0 Z" /><glyph glyph-name="" unicode="&#x14e;" d="M763 1467 q-319 -4 -500 -201 q-182 -197 -185 -545 q3 -348 185 -545 q181 -196 500 -200 q318 4 500 200 q181 197 184 545 q-3 348 -184 545 q-182 197 -500 201 l0 0 ZM763 1247 q195 -3 307 -142 q112 -140 114 -384 q-2 -243 -114 -383 q-112 -139 -307 -142 q-196 3 -307 142 q-112 140 -114 383 q2 244 114 384 q111 139 307 142 l0 0 ZM426 1856 q3 -136 92 -222 q90 -85 245 -88 q155 3 245 88 q89 86 92 222 l-156 0 q-2 -79 -51 -129 q-50 -50 -130 -52 q-80 2 -129 52 q-50 50 -52 129 l-156 0 Z" /><glyph glyph-name="" unicode="&#x20e;" d="M426 1546 l156 0 q2 78 52 128 q49 50 129 52 q80 -2 130 -52 q49 -50 51 -128 l156 0 q-3 136 -92 221 q-90 86 -245 89 q-155 -3 -245 -89 q-89 -85 -92 -221 l0 0 ZM763 1467 q-319 -4 -500 -201 q-182 -197 -185 -545 q3 -348 185 -545 q181 -196 500 -200 q318 4 500 200 q181 197 184 545 q-3 348 -184 545 q-182 197 -500 201 l0 0 ZM763 1247 q195 -3 307 -142 q112 -140 114 -384 q-2 -243 -114 -383 q-112 -139 -307 -142 q-196 3 -307 142 q-112 140 -114 383 q2 244 114 384 q111 139 307 142 l0 0 Z" /><glyph glyph-name="" unicode="&#x1ece;" d="M587 1784 q22 9 51 14 q28 4 53 4 q42 0 67 -20 q25 -19 26 -51 q-1 -33 -26 -61 q-25 -28 -68 -42 l76 -96 q80 30 128 87 q48 56 49 125 q-1 86 -61 134 q-59 48 -160 49 q-37 0 -73 -6 q-35 -7 -62 -19 l0 -118 ZM763 1467 q-319 -4 -500 -201 q-182 -197 -185 -545 q3 -348 185 -545 q181 -196 500 -200 q318 4 500 200 q181 197 184 545 q-3 348 -184 545 q-182 197 -500 201 l0 0 ZM763 1247 q195 -3 307 -142 q112 -140 114 -384 q-2 -243 -114 -383 q-112 -139 -307 -142 q-196 3 -307 142 q-112 140 -114 383 q2 244 114 384 q111 139 307 142 l0 0 Z" /><glyph glyph-name="" unicode="&#x22a;" d="M763 1467 q-319 -4 -500 -201 q-182 -197 -185 -545 q3 -348 185 -545 q181 -196 500 -200 q318 4 500 200 q181 197 184 545 q-3 348 -184 545 q-182 197 -500 201 l0 0 ZM763 1247 q195 -3 307 -142 q112 -140 114 -384 q-2 -243 -114 -383 q-112 -139 -307 -142 q-196 3 -307 142 q-112 140 -114 383 q2 244 114 384 q111 139 307 142 l0 0 ZM566 1805 q-51 -1 -84 -34 q-33 -33 -34 -82 q1 -49 34 -81 q33 -33 84 -34 q50 1 83 34 q33 32 34 81 q-1 49 -34 82 q-33 33 -83 34 l0 0 ZM428 2055 l0 -129 l670 0 l0 129 l-670 0 ZM960 1805 q-50 -1 -83 -34 q-33 -33 -34 -82 q1 -49 34 -81 q33 -33 83 -34 q51 1 84 34 q33 32 34 81 q-1 49 -34 82 q-33 33 -84 34 l0 0 Z" /><glyph glyph-name="" unicode="&#x22c;" d="M894 1535 q89 1 143 72 q54 70 56 194 l-141 0 q-1 -62 -17 -95 q-16 -33 -48 -33 q-50 9 -104 72 q-54 62 -155 71 q-91 -1 -145 -70 q-55 -69 -56 -194 l142 0 q1 58 18 91 q17 33 51 34 q53 -9 106 -71 q53 -62 150 -71 l0 0 ZM1098 2055 l-670 0 l0 -129 l670 0 l0 129 ZM763 1467 q-319 -4 -500 -201 q-182 -197 -185 -545 q3 -348 185 -545 q181 -196 500 -200 q318 4 500 200 q181 197 184 545 q-3 348 -184 545 q-182 197 -500 201 l0 0 ZM763 1247 q195 -3 307 -142 q112 -140 114 -384 q-2 -243 -114 -383 q-112 -139 -307 -142 q-196 3 -307 142 q-112 140 -114 383 q2 244 114 384 q111 139 307 142 l0 0 Z" /><glyph glyph-name="" unicode="&#x22e;" d="M763 1569 q59 2 98 41 q40 39 41 98 q-1 59 -41 98 q-39 40 -98 41 q-59 -1 -98 -41 q-40 -39 -41 -98 q1 -59 41 -98 q39 -39 98 -41 l0 0 ZM763 1467 q-319 -4 -500 -201 q-182 -197 -185 -545 q3 -348 185 -545 q181 -196 500 -200 q318 4 500 200 q181 197 184 545 q-3 348 -184 545 q-182 197 -500 201 l0 0 ZM763 1247 q195 -3 307 -142 q112 -140 114 -384 q-2 -243 -114 -383 q-112 -139 -307 -142 q-196 3 -307 142 q-112 140 -114 383 q2 244 114 384 q111 139 307 142 l0 0 Z" /><glyph glyph-name="" unicode="&#x1ed8;" d="M763 -434 q59 2 98 41 q40 39 41 98 q-1 59 -41 98 q-39 40 -98 41 q-59 -1 -98 -41 q-40 -39 -41 -98 q1 -59 41 -98 q39 -39 98 -41 l0 0 ZM665 1856 l-281 -310 l203 0 l174 198 l4 0 l174 -198 l203 0 l-281 310 l-196 0 ZM763 1467 q-319 -4 -500 -201 q-182 -197 -185 -545 q3 -348 185 -545 q181 -196 500 -200 q318 4 500 200 q181 197 184 545 q-3 348 -184 545 q-182 197 -500 201 l0 0 ZM763 1247 q195 -3 307 -142 q112 -140 114 -384 q-2 -243 -114 -383 q-112 -139 -307 -142 q-196 3 -307 142 q-112 140 -114 383 q2 244 114 384 q111 139 307 142 l0 0 Z" /><glyph glyph-name="" unicode="&#x1ed0;" d="M663 1812 l-263 -249 l214 0 l145 143 l13 0 l144 -143 l214 0 l-262 249 l-205 0 ZM865 1873 l184 0 l236 229 l-230 0 l-190 -229 ZM763 1467 q-319 -4 -500 -201 q-182 -197 -185 -545 q3 -348 185 -545 q181 -196 500 -200 q318 4 500 200 q181 197 184 545 q-3 348 -184 545 q-182 197 -500 201 l0 0 ZM763 1247 q195 -3 307 -142 q112 -140 114 -384 q-2 -243 -114 -383 q-112 -139 -307 -142 q-196 3 -307 142 q-112 140 -114 383 q2 244 114 384 q111 139 307 142 l0 0 Z" /><glyph glyph-name="" unicode="&#x1e4e;" d="M897 1535 q89 1 143 71 q54 70 56 192 l-142 0 q-1 -60 -16 -92 q-16 -33 -48 -33 q-50 9 -104 72 q-54 62 -155 71 q-91 -1 -145 -70 q-55 -69 -56 -194 l142 0 q1 58 18 91 q17 33 51 34 q53 -9 106 -71 q53 -62 150 -71 l0 0 ZM566 2137 q-51 -1 -84 -34 q-33 -32 -34 -81 q1 -49 34 -81 q33 -33 84 -34 q50 1 83 34 q33 32 34 81 q-1 49 -34 81 q-33 33 -83 34 l0 0 ZM960 2137 q-50 -1 -83 -34 q-33 -32 -34 -81 q1 -49 34 -81 q33 -33 83 -34 q51 1 84 34 q33 32 34 81 q-1 49 -34 81 q-33 33 -84 34 l0 0 ZM763 1467 q-319 -4 -500 -201 q-182 -197 -185 -545 q3 -348 185 -545 q181 -196 500 -200 q318 4 500 200 q181 197 184 545 q-3 348 -184 545 q-182 197 -500 201 l0 0 ZM763 1247 q195 -3 307 -142 q112 -140 114 -384 q-2 -243 -114 -383 q-112 -139 -307 -142 q-196 3 -307 142 q-112 140 -114 383 q2 244 114 384 q111 139 307 142 l0 0 Z" /><glyph glyph-name="" unicode="&#x14c;" d="M763 1467 q-319 -4 -500 -201 q-182 -197 -185 -545 q3 -348 185 -545 q181 -196 500 -200 q318 4 500 200 q181 197 184 545 q-3 348 -184 545 q-182 197 -500 201 l0 0 ZM763 1247 q195 -3 307 -142 q112 -140 114 -384 q-2 -243 -114 -383 q-112 -139 -307 -142 q-196 3 -307 142 q-112 140 -114 383 q2 244 114 384 q111 139 307 142 l0 0 ZM1098 1760 l-670 0 l0 -129 l670 0 l0 129 Z" /><glyph glyph-name="" unicode="&#x1ea;" d="M1027 -452 q38 0 69 5 q31 5 56 14 l0 153 q-9 -3 -28 -5 q-18 -2 -40 -2 q-53 1 -84 28 q-30 26 -31 72 q-1 53 39 109 q40 57 126 125 q161 131 237 296 q77 165 76 378 q-3 348 -184 545 q-181 197 -500 201 q-319 -4 -500 -201 q-182 -197 -185 -545 q3 -348 184 -545 q181 -196 501 -200 q38 0 75 5 q38 5 66 13 l0 -6 q-66 -46 -103 -104 q-36 -59 -37 -123 q2 -95 73 -153 q72 -58 190 -60 l0 0 ZM763 1247 q196 -3 307 -142 q112 -140 114 -384 q-2 -243 -114 -383 q-111 -139 -307 -142 q-196 3 -307 142 q-112 140 -114 383 q2 244 114 384 q111 139 307 142 l0 0 Z" /><glyph glyph-name="" unicode="&#x1ec;" d="M1027 -452 q38 0 69 5 q31 5 56 14 l0 153 q-9 -3 -28 -5 q-18 -2 -40 -2 q-53 1 -84 28 q-30 26 -31 72 q-1 53 39 109 q40 57 126 125 q161 131 237 296 q77 165 76 378 q-3 348 -184 545 q-181 197 -500 201 q-319 -4 -500 -201 q-182 -197 -185 -545 q3 -348 184 -545 q181 -196 501 -200 q38 0 75 5 q38 5 66 13 l0 -6 q-66 -46 -103 -104 q-36 -59 -37 -123 q2 -95 73 -153 q72 -58 190 -60 l0 0 ZM763 1247 q196 -3 307 -142 q112 -140 114 -384 q-2 -243 -114 -383 q-111 -139 -307 -142 q-196 3 -307 142 q-112 140 -114 383 q2 244 114 384 q111 139 307 142 l0 0 ZM1098 1760 l-670 0 l0 -129 l670 0 l0 129 Z" /><glyph glyph-name="" unicode="&#x1a0;" d="M763 -24 q319 4 500 201 q181 197 184 544 q-2 165 -58 312 q-56 147 -145 217 l0 6 l60 0 q92 1 145 52 q52 51 53 141 l0 217 l-205 0 l0 -154 q0 -48 -25 -70 q-26 -21 -83 -21 q-114 3 -210 23 q-96 20 -216 23 q-319 -4 -500 -201 q-182 -197 -185 -545 q3 -348 184 -545 q181 -196 501 -200 l0 0 ZM763 196 q-196 3 -307 142 q-112 140 -114 383 q2 244 114 384 q111 139 307 142 q196 -3 307 -142 q112 -140 114 -384 q-2 -243 -114 -383 q-111 -139 -307 -142 l0 0 Z" /><glyph glyph-name="" unicode="&#x1ee2;" d="M763 -434 q59 2 98 41 q40 39 41 98 q-1 59 -41 98 q-39 40 -98 41 q-59 -1 -98 -41 q-40 -39 -41 -98 q1 -59 41 -98 q39 -39 98 -41 l0 0 ZM763 -24 q319 4 500 201 q181 197 184 544 q-2 165 -58 312 q-56 147 -145 217 l0 6 l60 0 q92 1 145 52 q52 51 53 141 l0 217 l-205 0 l0 -154 q0 -48 -25 -70 q-26 -21 -83 -21 q-114 3 -210 23 q-96 20 -216 23 q-319 -4 -500 -201 q-182 -197 -185 -545 q3 -348 184 -545 q181 -196 501 -200 l0 0 ZM763 196 q-196 3 -307 142 q-112 140 -114 383 q2 244 114 384 q111 139 307 142 q196 -3 307 -142 q112 -140 114 -384 q-2 -243 -114 -383 q-111 -139 -307 -142 l0 0 Z" /><glyph glyph-name="" unicode="&#x1ede;" d="M587 1784 q22 9 51 14 q28 4 53 4 q42 0 67 -20 q25 -19 26 -51 q-1 -33 -26 -61 q-25 -28 -68 -42 l76 -96 q80 30 128 87 q48 56 49 125 q-1 86 -61 134 q-59 48 -160 49 q-37 0 -73 -6 q-35 -7 -62 -19 l0 -118 ZM763 -24 q319 4 500 201 q181 197 184 544 q-2 165 -58 312 q-56 147 -145 217 l0 6 l60 0 q92 1 145 52 q52 51 53 141 l0 217 l-205 0 l0 -154 q0 -48 -25 -70 q-26 -21 -83 -21 q-114 3 -210 23 q-96 20 -216 23 q-319 -4 -500 -201 q-182 -197 -185 -545 q3 -348 184 -545 q181 -196 501 -200 l0 0 ZM763 196 q-196 3 -307 142 q-112 140 -114 383 q2 244 114 384 q111 139 307 142 q196 -3 307 -142 q112 -140 114 -384 q-2 -243 -114 -383 q-111 -139 -307 -142 l0 0 Z" /><glyph glyph-name="" unicode="&#x1ee0;" d="M763 -24 q319 4 500 201 q181 197 184 544 q-2 165 -58 312 q-56 147 -145 217 l0 6 l60 0 q92 1 145 52 q52 51 53 141 l0 217 l-205 0 l0 -154 q0 -48 -25 -70 q-26 -21 -83 -21 q-114 3 -210 23 q-96 20 -216 23 q-319 -4 -500 -201 q-182 -197 -185 -545 q3 -348 184 -545 q181 -196 501 -200 l0 0 ZM763 196 q-196 3 -307 142 q-112 140 -114 383 q2 244 114 384 q111 139 307 142 q196 -3 307 -142 q112 -140 114 -384 q-2 -243 -114 -383 q-111 -139 -307 -142 l0 0 ZM898 1538 q89 1 144 72 q54 70 56 194 l-141 0 q-1 -62 -17 -95 q-16 -33 -48 -33 q-50 9 -103 71 q-54 62 -155 71 q-91 -1 -145 -70 q-55 -69 -56 -194 l141 0 q1 58 18 92 q18 33 51 34 q53 -9 106 -71 q52 -62 149 -71 l0 0 Z" /><glyph glyph-name="" unicode="&#x1edc;" d="M666 1555 l198 0 l-231 306 l-246 0 l279 -306 ZM763 -24 q319 4 500 201 q181 197 184 544 q-2 165 -58 312 q-56 147 -145 217 l0 6 l60 0 q92 1 145 52 q52 51 53 141 l0 217 l-205 0 l0 -154 q0 -48 -25 -70 q-26 -21 -83 -21 q-114 3 -210 23 q-96 20 -216 23 q-319 -4 -500 -201 q-182 -197 -185 -545 q3 -348 184 -545 q181 -196 501 -200 l0 0 ZM763 196 q-196 3 -307 142 q-112 140 -114 383 q2 244 114 384 q111 139 307 142 q196 -3 307 -142 q112 -140 114 -384 q-2 -243 -114 -383 q-111 -139 -307 -142 l0 0 Z" /><glyph glyph-name="" unicode="&#x1eda;" d="M860 1552 l279 306 l-246 0 l-231 -306 l198 0 ZM763 -24 q319 4 500 201 q181 197 184 544 q-2 165 -58 312 q-56 147 -145 217 l0 6 l60 0 q92 1 145 52 q52 51 53 141 l0 217 l-205 0 l0 -154 q0 -48 -25 -70 q-26 -21 -83 -21 q-114 3 -210 23 q-96 20 -216 23 q-319 -4 -500 -201 q-182 -197 -185 -545 q3 -348 184 -545 q181 -196 501 -200 l0 0 ZM763 196 q-196 3 -307 142 q-112 140 -114 383 q2 244 114 384 q111 139 307 142 q196 -3 307 -142 q112 -140 114 -384 q-2 -243 -114 -383 q-111 -139 -307 -142 l0 0 Z" /><glyph glyph-name="" unicode="p" d="M127 1443 l0 -1443 l258 0 l0 477 l313 0 q223 3 358 134 q134 130 138 349 q-3 219 -135 350 q-132 130 -350 133 l-582 0 ZM385 1232 l256 0 q140 -1 215 -71 q75 -70 76 -201 q-1 -132 -77 -203 q-75 -71 -215 -72 l-255 0 l0 547 Z" /><glyph glyph-name="" unicode="&#x1e56;" d="M127 1443 l0 -1443 l258 0 l0 477 l313 0 q223 3 358 134 q134 130 138 349 q-3 219 -135 350 q-132 130 -350 133 l-582 0 ZM385 1232 l256 0 q140 -1 215 -71 q75 -70 76 -201 q-1 -132 -77 -203 q-75 -71 -215 -72 l-255 0 l0 547 ZM558 1569 q59 2 98 41 q40 39 41 98 q-1 59 -41 98 q-39 40 -98 41 q-59 -1 -98 -41 q-40 -39 -41 -98 q1 -59 41 -98 q39 -39 98 -41 l0 0 Z" /><glyph glyph-name="" unicode="&#x1e54;" d="M655 1552 l279 306 l-246 0 l-231 -306 l198 0 ZM127 1443 l0 -1443 l258 0 l0 477 l313 0 q223 3 358 134 q134 130 138 349 q-3 219 -135 350 q-132 130 -350 133 l-582 0 ZM385 1232 l256 0 q140 -1 215 -71 q75 -70 76 -201 q-1 -132 -77 -203 q-75 -71 -215 -72 l-255 0 l0 547 Z" /><glyph glyph-name="" unicode="q" d="M1391 -146 l-186 271 q118 94 180 246 q62 152 62 350 q-3 347 -184 545 q-182 197 -500 201 q-319 -4 -500 -201 q-182 -198 -185 -545 q3 -349 185 -545 q181 -197 500 -200 q69 0 133 10 q63 10 121 31 l114 -163 l260 0 ZM763 194 q-196 3 -307 143 q-112 140 -114 384 q2 244 114 385 q111 140 307 143 q195 -3 307 -143 q112 -141 114 -385 q0 -125 -35 -222 q-35 -98 -99 -163 l-85 116 l-247 0 l166 -240 q-28 -8 -58 -13 q-31 -5 -63 -5 l0 0 Z" /><glyph glyph-name="" unicode="r" d="M385 1234 l292 0 q124 -1 194 -66 q69 -65 70 -180 q-1 -118 -67 -182 q-67 -64 -191 -65 l-298 0 l0 493 ZM385 543 l286 0 l0 0 l283 -543 l295 0 l-315 582 q130 49 201 158 q70 109 71 254 q-2 209 -132 328 q-131 119 -367 121 l-580 0 l0 -1443 l258 0 l0 543 Z" /><glyph glyph-name="" unicode="&#x158;" d="M385 1234 l292 0 q124 -1 194 -66 q69 -65 70 -180 q-1 -118 -67 -182 q-67 -64 -191 -65 l-298 0 l0 493 ZM385 543 l286 0 l0 0 l283 -543 l295 0 l-315 582 q130 49 201 158 q70 109 71 254 q-2 209 -132 328 q-131 119 -367 121 l-580 0 l0 -1443 l258 0 l0 543 ZM489 1546 l196 0 l281 310 l-203 0 l-174 -198 l-4 0 l-174 198 l-203 0 l281 -310 Z" /><glyph glyph-name="" unicode="&#x1e5e;" d="M385 1234 l292 0 q124 -1 194 -66 q69 -65 70 -180 q-1 -118 -67 -182 q-67 -64 -191 -65 l-298 0 l0 493 ZM385 543 l286 0 l0 0 l283 -543 l295 0 l-315 582 q130 49 201 158 q70 109 71 254 q-2 209 -132 328 q-131 119 -367 121 l-580 0 l0 -1443 l258 0 l0 543 ZM922 -226 l-670 0 l0 -129 l670 0 l0 129 Z" /><glyph glyph-name="" unicode="&#x1e5c;" d="M587 -434 q59 2 98 41 q40 39 41 98 q-1 59 -41 98 q-39 40 -98 41 q-59 -1 -98 -41 q-40 -39 -41 -98 q1 -59 41 -98 q39 -39 98 -41 l0 0 ZM385 1234 l292 0 q124 -1 194 -66 q69 -65 70 -180 q-1 -118 -67 -182 q-67 -64 -191 -65 l-298 0 l0 493 ZM385 543 l286 0 l0 0 l283 -543 l295 0 l-315 582 q130 49 201 158 q70 109 71 254 q-2 209 -132 328 q-131 119 -367 121 l-580 0 l0 -1443 l258 0 l0 543 ZM922 1760 l-670 0 l0 -129 l670 0 l0 129 Z" /><glyph glyph-name="" unicode="&#x210;" d="M676 1552 l191 0 l-231 306 l-239 0 l279 -306 ZM311 1552 l192 0 l-231 306 l-239 0 l278 -306 ZM385 1234 l292 0 q124 -1 194 -66 q69 -65 70 -180 q-1 -118 -67 -182 q-67 -64 -191 -65 l-298 0 l0 493 ZM385 543 l286 0 l0 0 l283 -543 l295 0 l-315 582 q130 49 201 158 q70 109 71 254 q-2 209 -132 328 q-131 119 -367 121 l-580 0 l0 -1443 l258 0 l0 543 Z" /><glyph glyph-name="" unicode="&#x212;" d="M385 1234 l292 0 q124 -1 194 -66 q69 -65 70 -180 q-1 -118 -67 -182 q-67 -64 -191 -65 l-298 0 l0 493 ZM385 543 l286 0 l0 0 l283 -543 l295 0 l-315 582 q130 49 201 158 q70 109 71 254 q-2 209 -132 328 q-131 119 -367 121 l-580 0 l0 -1443 l258 0 l0 543 ZM250 1546 l156 0 q2 78 52 128 q49 50 129 52 q80 -2 130 -52 q49 -50 51 -128 l156 0 q-3 136 -92 221 q-90 86 -245 89 q-155 -3 -245 -89 q-89 -85 -92 -221 l0 0 Z" /><glyph glyph-name="" unicode="&#x154;" d="M684 1552 l279 306 l-246 0 l-231 -306 l198 0 ZM385 1234 l292 0 q124 -1 194 -66 q69 -65 70 -180 q-1 -118 -67 -182 q-67 -64 -191 -65 l-298 0 l0 493 ZM385 543 l286 0 l0 0 l283 -543 l295 0 l-315 582 q130 49 201 158 q70 109 71 254 q-2 209 -132 328 q-131 119 -367 121 l-580 0 l0 -1443 l258 0 l0 543 Z" /><glyph glyph-name="" unicode="&#x1e5a;" d="M587 -434 q59 2 98 41 q40 39 41 98 q-1 59 -41 98 q-39 40 -98 41 q-59 -1 -98 -41 q-40 -39 -41 -98 q1 -59 41 -98 q39 -39 98 -41 l0 0 ZM385 1234 l292 0 q124 -1 194 -66 q69 -65 70 -180 q-1 -118 -67 -182 q-67 -64 -191 -65 l-298 0 l0 493 ZM385 543 l286 0 l0 0 l283 -543 l295 0 l-315 582 q130 49 201 158 q70 109 71 254 q-2 209 -132 328 q-131 119 -367 121 l-580 0 l0 -1443 l258 0 l0 543 Z" /><glyph glyph-name="" unicode="&#x1e58;" d="M587 1569 q59 2 98 41 q40 39 41 98 q-1 59 -41 98 q-39 40 -98 41 q-59 -1 -98 -41 q-40 -39 -41 -98 q1 -59 41 -98 q39 -39 98 -41 l0 0 ZM385 1234 l292 0 q124 -1 194 -66 q69 -65 70 -180 q-1 -118 -67 -182 q-67 -64 -191 -65 l-298 0 l0 493 ZM385 543 l286 0 l0 0 l283 -543 l295 0 l-315 582 q130 49 201 158 q70 109 71 254 q-2 209 -132 328 q-131 119 -367 121 l-580 0 l0 -1443 l258 0 l0 543 Z" /><glyph glyph-name="" unicode="&#x156;" d="M385 1234 l292 0 q124 -1 194 -66 q69 -65 70 -180 q-1 -118 -67 -182 q-67 -64 -191 -65 l-298 0 l0 493 ZM385 543 l286 0 l0 0 l283 -543 l295 0 l-315 582 q130 49 201 158 q70 109 71 254 q-2 209 -132 328 q-131 119 -367 121 l-580 0 l0 -1443 l258 0 l0 543 ZM567 -515 l146 354 l-219 0 l-110 -354 l183 0 Z" /><glyph glyph-name="" unicode="s" d="M68 406 q11 -201 160 -315 q149 -113 401 -115 q265 2 415 120 q151 118 154 326 q1 160 -99 257 q-100 97 -318 146 l-166 38 q-132 31 -191 77 q-60 46 -59 117 q2 91 75 145 q74 54 198 55 q125 -1 202 -57 q77 -57 88 -159 l246 0 q-7 193 -150 308 q-142 115 -384 118 q-240 -3 -386 -118 q-147 -116 -151 -311 q0 -154 96 -252 q97 -98 296 -143 l187 -44 q135 -31 196 -81 q61 -49 60 -126 q-2 -92 -82 -148 q-80 -56 -213 -58 q-134 1 -222 60 q-89 59 -103 160 l-250 0 Z" /><glyph glyph-name="" unicode="&#x160;" d="M68 406 q11 -201 160 -315 q149 -113 401 -115 q265 2 415 120 q151 118 154 326 q1 160 -99 257 q-100 97 -318 146 l-166 38 q-132 31 -191 77 q-60 46 -59 117 q2 91 75 145 q74 54 198 55 q125 -1 202 -57 q77 -57 88 -159 l246 0 q-7 193 -150 308 q-142 115 -384 118 q-240 -3 -386 -118 q-147 -116 -151 -311 q0 -154 96 -252 q97 -98 296 -143 l187 -44 q135 -31 196 -81 q61 -49 60 -126 q-2 -92 -82 -148 q-80 -56 -213 -58 q-134 1 -222 60 q-89 59 -103 160 l-250 0 ZM544 1546 l196 0 l281 310 l-203 0 l-174 -198 l-4 0 l-174 198 l-203 0 l281 -310 Z" /><glyph glyph-name="" unicode="&#x15e;" d="M615 863 q-132 31 -191 77 q-60 46 -59 117 q2 91 75 145 q74 54 198 55 q125 -1 202 -57 q77 -57 88 -159 l246 0 q-7 193 -150 308 q-142 115 -384 118 q-240 -3 -386 -118 q-147 -116 -151 -311 q0 -154 96 -252 q97 -98 296 -143 l187 -44 q135 -31 196 -81 q61 -49 60 -126 q-2 -92 -82 -148 q-80 -56 -213 -58 q-134 1 -222 60 q-89 59 -103 160 l-250 0 q10 -189 143 -301 q132 -111 358 -127 l-49 -116 l0 -90 l55 0 q71 0 103 -14 q32 -15 31 -46 q0 -62 -111 -62 q-32 0 -65 4 q-33 4 -50 10 l0 -111 q29 -9 65 -13 q36 -4 77 -4 q108 2 170 51 q62 48 63 132 q0 75 -50 116 q-50 40 -144 40 l42 104 q230 19 360 135 q130 116 132 308 q1 160 -99 257 q-100 97 -318 146 l-166 38 Z" /><glyph glyph-name="" unicode="&#x1e60;" d="M642 1569 q59 2 98 41 q40 39 41 98 q-1 59 -41 98 q-39 40 -98 41 q-59 -1 -98 -41 q-40 -39 -41 -98 q1 -59 41 -98 q39 -39 98 -41 l0 0 ZM68 406 q11 -201 160 -315 q149 -113 401 -115 q265 2 415 120 q151 118 154 326 q1 160 -99 257 q-100 97 -318 146 l-166 38 q-132 31 -191 77 q-60 46 -59 117 q2 91 75 145 q74 54 198 55 q125 -1 202 -57 q77 -57 88 -159 l246 0 q-7 193 -150 308 q-142 115 -384 118 q-240 -3 -386 -118 q-147 -116 -151 -311 q0 -154 96 -252 q97 -98 296 -143 l187 -44 q135 -31 196 -81 q61 -49 60 -126 q-2 -92 -82 -148 q-80 -56 -213 -58 q-134 1 -222 60 q-89 59 -103 160 l-250 0 Z" /><glyph glyph-name="" unicode="&#x1e62;" d="M631 -434 q59 2 98 41 q40 39 41 98 q-1 59 -41 98 q-39 40 -98 41 q-59 -1 -98 -41 q-40 -39 -41 -98 q1 -59 41 -98 q39 -39 98 -41 l0 0 ZM68 406 q11 -201 160 -315 q149 -113 401 -115 q265 2 415 120 q151 118 154 326 q1 160 -99 257 q-100 97 -318 146 l-166 38 q-132 31 -191 77 q-60 46 -59 117 q2 91 75 145 q74 54 198 55 q125 -1 202 -57 q77 -57 88 -159 l246 0 q-7 193 -150 308 q-142 115 -384 118 q-240 -3 -386 -118 q-147 -116 -151 -311 q0 -154 96 -252 q97 -98 296 -143 l187 -44 q135 -31 196 -81 q61 -49 60 -126 q-2 -92 -82 -148 q-80 -56 -213 -58 q-134 1 -222 60 q-89 59 -103 160 l-250 0 Z" /><glyph glyph-name="" unicode="&#x218;" d="M68 406 q11 -201 160 -315 q149 -113 401 -115 q265 2 415 120 q151 118 154 326 q1 160 -99 257 q-100 97 -318 146 l-166 38 q-132 31 -191 77 q-60 46 -59 117 q2 91 75 145 q74 54 198 55 q125 -1 202 -57 q77 -57 88 -159 l246 0 q-7 193 -150 308 q-142 115 -384 118 q-240 -3 -386 -118 q-147 -116 -151 -311 q0 -154 96 -252 q97 -98 296 -143 l187 -44 q135 -31 196 -81 q61 -49 60 -126 q-2 -92 -82 -148 q-80 -56 -213 -58 q-134 1 -222 60 q-89 59 -103 160 l-250 0 ZM611 -515 l146 354 l-219 0 l-110 -354 l183 0 Z" /><glyph glyph-name="" unicode="&#x1e68;" d="M631 -434 q59 2 98 41 q40 39 41 98 q-1 59 -41 98 q-39 40 -98 41 q-59 -1 -98 -41 q-40 -39 -41 -98 q1 -59 41 -98 q39 -39 98 -41 l0 0 ZM68 406 q11 -201 160 -315 q149 -113 401 -115 q265 2 415 120 q151 118 154 326 q1 160 -99 257 q-100 97 -318 146 l-166 38 q-132 31 -191 77 q-60 46 -59 117 q2 91 75 145 q74 54 198 55 q125 -1 202 -57 q77 -57 88 -159 l246 0 q-7 193 -150 308 q-142 115 -384 118 q-240 -3 -386 -118 q-147 -116 -151 -311 q0 -154 96 -252 q97 -98 296 -143 l187 -44 q135 -31 196 -81 q61 -49 60 -126 q-2 -92 -82 -148 q-80 -56 -213 -58 q-134 1 -222 60 q-89 59 -103 160 l-250 0 ZM642 1569 q59 2 98 41 q40 39 41 98 q-1 59 -41 98 q-39 40 -98 41 q-59 -1 -98 -41 q-40 -39 -41 -98 q1 -59 41 -98 q39 -39 98 -41 l0 0 Z" /><glyph glyph-name="" unicode="&#x1e66;" d="M540 1563 l204 0 l263 249 l-214 0 l-145 -144 l-12 0 l-145 144 l-214 0 l263 -249 ZM642 1845 q54 1 89 36 q35 35 36 87 q-1 52 -36 87 q-35 34 -89 35 q-54 -1 -89 -35 q-35 -35 -36 -87 q1 -52 36 -87 q35 -35 89 -36 l0 0 ZM68 406 q11 -201 160 -315 q149 -113 401 -115 q265 2 415 120 q151 118 154 326 q1 160 -99 257 q-100 97 -318 146 l-166 38 q-132 31 -191 77 q-60 46 -59 117 q2 91 75 145 q74 54 198 55 q125 -1 202 -57 q77 -57 88 -159 l246 0 q-7 193 -150 308 q-142 115 -384 118 q-240 -3 -386 -118 q-147 -116 -151 -311 q0 -154 96 -252 q97 -98 296 -143 l187 -44 q135 -31 196 -81 q61 -49 60 -126 q-2 -92 -82 -148 q-80 -56 -213 -58 q-134 1 -222 60 q-89 59 -103 160 l-250 0 Z" /><glyph glyph-name="" unicode="&#x15c;" d="M68 406 q11 -201 160 -315 q149 -113 401 -115 q265 2 415 120 q151 118 154 326 q1 160 -99 257 q-100 97 -318 146 l-166 38 q-132 31 -191 77 q-60 46 -59 117 q2 91 75 145 q74 54 198 55 q125 -1 202 -57 q77 -57 88 -159 l246 0 q-7 193 -150 308 q-142 115 -384 118 q-240 -3 -386 -118 q-147 -116 -151 -311 q0 -154 96 -252 q97 -98 296 -143 l187 -44 q135 -31 196 -81 q61 -49 60 -126 q-2 -92 -82 -148 q-80 -56 -213 -58 q-134 1 -222 60 q-89 59 -103 160 l-250 0 ZM544 1856 l-281 -310 l203 0 l174 198 l4 0 l174 -198 l203 0 l-281 310 l-196 0 Z" /><glyph glyph-name="" unicode="&#x1e64;" d="M852 1552 l279 306 l-246 0 l-231 -306 l198 0 ZM434 1579 q59 2 98 41 q40 39 41 98 q-1 59 -41 98 q-39 40 -98 41 q-59 -1 -98 -41 q-40 -39 -41 -98 q1 -59 41 -98 q39 -39 98 -41 l0 0 ZM68 406 q11 -201 160 -315 q149 -113 401 -115 q265 2 415 120 q151 118 154 326 q1 160 -99 257 q-100 97 -318 146 l-166 38 q-132 31 -191 77 q-60 46 -59 117 q2 91 75 145 q74 54 198 55 q125 -1 202 -57 q77 -57 88 -159 l246 0 q-7 193 -150 308 q-142 115 -384 118 q-240 -3 -386 -118 q-147 -116 -151 -311 q0 -154 96 -252 q97 -98 296 -143 l187 -44 q135 -31 196 -81 q61 -49 60 -126 q-2 -92 -82 -148 q-80 -56 -213 -58 q-134 1 -222 60 q-89 59 -103 160 l-250 0 Z" /><glyph glyph-name="" unicode="&#x15a;" d="M739 1552 l279 306 l-246 0 l-231 -306 l198 0 ZM68 406 q11 -201 160 -315 q149 -113 401 -115 q265 2 415 120 q151 118 154 326 q1 160 -99 257 q-100 97 -318 146 l-166 38 q-132 31 -191 77 q-60 46 -59 117 q2 91 75 145 q74 54 198 55 q125 -1 202 -57 q77 -57 88 -159 l246 0 q-7 193 -150 308 q-142 115 -384 118 q-240 -3 -386 -118 q-147 -116 -151 -311 q0 -154 96 -252 q97 -98 296 -143 l187 -44 q135 -31 196 -81 q61 -49 60 -126 q-2 -92 -82 -148 q-80 -56 -213 -58 q-134 1 -222 60 q-89 59 -103 160 l-250 0 Z" /><glyph glyph-name="" unicode="t" d="M744 0 l0 1225 l438 0 l0 218 l-1134 0 l0 -218 l438 0 l0 -1225 l258 0 Z" /><glyph glyph-name="" unicode="&#x1e70;" d="M744 0 l0 1225 l438 0 l0 218 l-1134 0 l0 -218 l438 0 l0 -1225 l258 0 ZM517 -162 l-281 -310 l203 0 l174 198 l4 0 l174 -198 l203 0 l-281 310 l-196 0 Z" /><glyph glyph-name="" unicode="&#x1e6c;" d="M615 -434 q59 2 98 41 q40 39 41 98 q-1 59 -41 98 q-39 40 -98 41 q-59 -1 -98 -41 q-40 -39 -41 -98 q1 -59 41 -98 q39 -39 98 -41 l0 0 ZM744 0 l0 1225 l438 0 l0 218 l-1134 0 l0 -218 l438 0 l0 -1225 l258 0 Z" /><glyph glyph-name="" unicode="&#x21a;" d="M595 -515 l146 354 l-219 0 l-110 -354 l183 0 ZM744 0 l0 1225 l438 0 l0 218 l-1134 0 l0 -218 l438 0 l0 -1225 l258 0 Z" /><glyph glyph-name="" unicode="&#x1e6a;" d="M615 1569 q59 2 98 41 q40 39 41 98 q-1 59 -41 98 q-39 40 -98 41 q-59 -1 -98 -41 q-40 -39 -41 -98 q1 -59 41 -98 q39 -39 98 -41 l0 0 ZM744 0 l0 1225 l438 0 l0 218 l-1134 0 l0 -218 l438 0 l0 -1225 l258 0 Z" /><glyph glyph-name="" unicode="&#x162;" d="M744 11 l0 1214 l438 0 l0 218 l-1134 0 l0 -218 l438 0 l0 -1225 l122 0 l-58 -138 l0 -90 l55 0 q71 0 103 -14 q32 -15 31 -46 q0 -62 -111 -62 q-32 0 -65 4 q-33 4 -50 10 l0 -111 q29 -9 65 -13 q36 -4 77 -4 q108 2 170 51 q62 48 63 132 q0 75 -50 116 q-50 40 -144 40 l50 125 l0 11 Z" /><glyph glyph-name="" unicode="&#x1e6e;" d="M950 -226 l-670 0 l0 -129 l670 0 l0 129 ZM744 0 l0 1225 l438 0 l0 218 l-1134 0 l0 -218 l438 0 l0 -1225 l258 0 Z" /><glyph glyph-name="" unicode="&#x164;" d="M517 1546 l196 0 l281 310 l-203 0 l-174 -198 l-4 0 l-174 198 l-203 0 l281 -310 ZM744 0 l0 1225 l438 0 l0 218 l-1134 0 l0 -218 l438 0 l0 -1225 l258 0 Z" /><glyph glyph-name="" unicode="&#x166;" d="M1188 1225 l0 218 l-1134 0 l0 -218 l438 0 l0 -428 l-272 0 l0 -186 l272 0 l0 -611 l258 0 l0 611 l310 0 l0 186 l-310 0 l0 428 l438 0 Z" /><glyph glyph-name="" unicode="u" d="M385 1443 l-258 0 l0 -934 q3 -240 160 -385 q156 -144 433 -148 q277 4 434 148 q156 145 159 385 l0 934 l-257 0 l0 -911 q-1 -150 -88 -239 q-87 -90 -248 -92 q-161 2 -248 92 q-86 89 -87 239 l0 911 Z" /><glyph glyph-name="" unicode="ù" d="M623 1555 l198 0 l-231 306 l-246 0 l279 -306 ZM385 1443 l-258 0 l0 -934 q3 -240 160 -385 q156 -144 433 -148 q277 4 434 148 q156 145 159 385 l0 934 l-257 0 l0 -911 q-1 -150 -88 -239 q-87 -90 -248 -92 q-161 2 -248 92 q-86 89 -87 239 l0 911 Z" /><glyph glyph-name="" unicode="&#x214;" d="M809 1552 l191 0 l-231 306 l-239 0 l279 -306 ZM444 1552 l192 0 l-231 306 l-239 0 l278 -306 ZM385 1443 l-258 0 l0 -934 q3 -240 160 -385 q156 -144 433 -148 q277 4 434 148 q156 145 159 385 l0 934 l-257 0 l0 -911 q-1 -150 -88 -239 q-87 -90 -248 -92 q-161 2 -248 92 q-86 89 -87 239 l0 911 Z" /><glyph glyph-name="" unicode="ú" d="M817 1552 l279 306 l-246 0 l-231 -306 l198 0 ZM385 1443 l-258 0 l0 -934 q3 -240 160 -385 q156 -144 433 -148 q277 4 434 148 q156 145 159 385 l0 934 l-257 0 l0 -911 q-1 -150 -88 -239 q-87 -90 -248 -92 q-161 2 -248 92 q-86 89 -87 239 l0 911 Z" /><glyph glyph-name="" unicode="&#x170;" d="M385 1443 l-258 0 l0 -934 q3 -240 160 -385 q156 -144 433 -148 q277 4 434 148 q156 145 159 385 l0 934 l-257 0 l0 -911 q-1 -150 -88 -239 q-87 -90 -248 -92 q-161 2 -248 92 q-86 89 -87 239 l0 911 ZM996 1552 l278 306 l-239 0 l-231 -306 l192 0 ZM631 1552 l279 306 l-239 0 l-231 -306 l191 0 Z" /><glyph glyph-name="" unicode="û" d="M622 1856 l-281 -310 l203 0 l174 198 l4 0 l174 -198 l203 0 l-281 310 l-196 0 ZM385 1443 l-258 0 l0 -934 q3 -240 160 -385 q156 -144 433 -148 q277 4 434 148 q156 145 159 385 l0 934 l-257 0 l0 -911 q-1 -150 -88 -239 q-87 -90 -248 -92 q-161 2 -248 92 q-86 89 -87 239 l0 911 Z" /><glyph glyph-name="" unicode="&#x1d3;" d="M622 1546 l196 0 l281 310 l-203 0 l-174 -198 l-4 0 l-174 198 l-203 0 l281 -310 ZM385 1443 l-258 0 l0 -934 q3 -240 160 -385 q156 -144 433 -148 q277 4 434 148 q156 145 159 385 l0 934 l-257 0 l0 -911 q-1 -150 -88 -239 q-87 -90 -248 -92 q-161 2 -248 92 q-86 89 -87 239 l0 911 Z" /><glyph glyph-name="" unicode="&#x1e76;" d="M385 1443 l-258 0 l0 -934 q3 -240 160 -385 q156 -144 433 -148 q277 4 434 148 q156 145 159 385 l0 934 l-257 0 l0 -911 q-1 -150 -88 -239 q-87 -90 -248 -92 q-161 2 -248 92 q-86 89 -87 239 l0 911 ZM622 -162 l-281 -310 l203 0 l174 198 l4 0 l174 -198 l203 0 l-281 310 l-196 0 Z" /><glyph glyph-name="" unicode="ü" d="M515 1569 q55 1 90 37 q36 35 37 87 q-1 53 -37 88 q-35 36 -90 37 q-55 -1 -90 -37 q-36 -35 -37 -88 q1 -52 37 -87 q35 -36 90 -37 l0 0 ZM925 1569 q54 1 90 37 q35 35 36 87 q-1 53 -36 88 q-36 36 -90 37 q-55 -1 -90 -37 q-36 -35 -37 -88 q1 -52 37 -87 q35 -36 90 -37 l0 0 ZM385 1443 l-258 0 l0 -934 q3 -240 160 -385 q156 -144 433 -148 q277 4 434 148 q156 145 159 385 l0 934 l-257 0 l0 -911 q-1 -150 -88 -239 q-87 -90 -248 -92 q-161 2 -248 92 q-86 89 -87 239 l0 911 Z" /><glyph glyph-name="" unicode="&#x1db;" d="M816 1873 l-190 229 l-230 0 l236 -229 l184 0 ZM523 1574 q50 1 83 34 q33 32 34 81 q-1 49 -34 82 q-33 33 -83 34 q-51 -1 -84 -34 q-33 -33 -34 -82 q1 -49 34 -81 q33 -33 84 -34 l0 0 ZM917 1574 q51 1 84 34 q33 32 34 81 q-1 49 -34 82 q-33 33 -84 34 q-50 -1 -83 -34 q-33 -33 -34 -82 q1 -49 34 -81 q33 -33 83 -34 l0 0 ZM385 1443 l-258 0 l0 -934 q3 -240 160 -385 q156 -144 433 -148 q277 4 434 148 q156 145 159 385 l0 934 l-257 0 l0 -911 q-1 -150 -88 -239 q-87 -90 -248 -92 q-161 2 -248 92 q-86 89 -87 239 l0 911 Z" /><glyph glyph-name="" unicode="&#x1d7;" d="M624 1873 l184 0 l236 229 l-230 0 l-190 -229 ZM523 1574 q50 1 83 34 q33 32 34 81 q-1 49 -34 82 q-33 33 -83 34 q-51 -1 -84 -34 q-33 -33 -34 -82 q1 -49 34 -81 q33 -33 84 -34 l0 0 ZM917 1574 q51 1 84 34 q33 32 34 81 q-1 49 -34 82 q-33 33 -84 34 q-50 -1 -83 -34 q-33 -33 -34 -82 q1 -49 34 -81 q33 -33 83 -34 l0 0 ZM385 1443 l-258 0 l0 -934 q3 -240 160 -385 q156 -144 433 -148 q277 4 434 148 q156 145 159 385 l0 934 l-257 0 l0 -911 q-1 -150 -88 -239 q-87 -90 -248 -92 q-161 2 -248 92 q-86 89 -87 239 l0 911 Z" /><glyph glyph-name="" unicode="&#x1d5;" d="M385 1443 l-258 0 l0 -934 q3 -240 160 -385 q156 -144 433 -148 q277 4 434 148 q156 145 159 385 l0 934 l-257 0 l0 -911 q-1 -150 -88 -239 q-87 -90 -248 -92 q-161 2 -248 92 q-86 89 -87 239 l0 911 ZM523 1805 q-51 -1 -84 -34 q-33 -33 -34 -82 q1 -49 34 -81 q33 -33 84 -34 q50 1 83 34 q33 32 34 81 q-1 49 -34 82 q-33 33 -83 34 l0 0 ZM385 2055 l0 -129 l670 0 l0 129 l-670 0 ZM917 1805 q-50 -1 -83 -34 q-33 -33 -34 -82 q1 -49 34 -81 q33 -33 83 -34 q51 1 84 34 q33 32 34 81 q-1 49 -34 82 q-33 33 -84 34 l0 0 Z" /><glyph glyph-name="" unicode="&#x1d9;" d="M622 1873 l196 0 l260 237 l-209 0 l-141 -130 l-16 0 l-141 130 l-209 0 l260 -237 ZM523 1805 q-51 -1 -84 -34 q-33 -33 -34 -82 q1 -49 34 -81 q33 -33 84 -34 q50 1 83 34 q33 32 34 81 q-1 49 -34 82 q-33 33 -83 34 l0 0 ZM917 1805 q-50 -1 -83 -34 q-33 -33 -34 -82 q1 -49 34 -81 q33 -33 83 -34 q51 1 84 34 q33 32 34 81 q-1 49 -34 82 q-33 33 -84 34 l0 0 ZM385 1443 l-258 0 l0 -934 q3 -240 160 -385 q156 -144 433 -148 q277 4 434 148 q156 145 159 385 l0 934 l-257 0 l0 -911 q-1 -150 -88 -239 q-87 -90 -248 -92 q-161 2 -248 92 q-86 89 -87 239 l0 911 Z" /><glyph glyph-name="" unicode="&#x1e72;" d="M385 1443 l-258 0 l0 -934 q3 -240 160 -385 q156 -144 433 -148 q277 4 434 148 q156 145 159 385 l0 934 l-257 0 l0 -911 q-1 -150 -88 -239 q-87 -90 -248 -92 q-161 2 -248 92 q-86 89 -87 239 l0 911 ZM515 -414 q55 1 90 37 q36 35 37 87 q-1 53 -37 88 q-35 36 -90 37 q-55 -1 -90 -37 q-36 -35 -37 -88 q1 -52 37 -87 q35 -36 90 -37 l0 0 ZM925 -414 q54 1 90 37 q35 35 36 87 q-1 53 -36 88 q-36 36 -90 37 q-55 -1 -90 -37 q-36 -35 -37 -88 q1 -52 37 -87 q35 -36 90 -37 l0 0 Z" /><glyph glyph-name="" unicode="&#x1e74;" d="M855 -429 q89 1 144 72 q54 70 56 194 l-141 0 q-1 -62 -17 -95 q-16 -33 -48 -33 q-50 9 -103 71 q-54 62 -155 71 q-91 -1 -145 -70 q-55 -69 -56 -194 l141 0 q1 58 18 92 q18 33 51 34 q53 -9 106 -71 q52 -62 149 -71 l0 0 ZM385 1443 l-258 0 l0 -934 q3 -240 160 -385 q156 -144 433 -148 q277 4 434 148 q156 145 159 385 l0 934 l-257 0 l0 -911 q-1 -150 -88 -239 q-87 -90 -248 -92 q-161 2 -248 92 q-86 89 -87 239 l0 911 Z" /><glyph glyph-name="" unicode="&#x1ee6;" d="M385 1443 l-258 0 l0 -934 q3 -240 160 -385 q156 -144 433 -148 q277 4 434 148 q156 145 159 385 l0 934 l-257 0 l0 -911 q-1 -150 -88 -239 q-87 -90 -248 -92 q-161 2 -248 92 q-86 89 -87 239 l0 911 ZM544 1784 q22 9 51 14 q28 4 53 4 q42 0 67 -20 q25 -19 26 -51 q-1 -33 -26 -61 q-25 -28 -68 -42 l76 -96 q80 30 128 87 q48 56 49 125 q-1 86 -61 134 q-59 48 -160 49 q-37 0 -73 -6 q-35 -7 -62 -19 l0 -118 Z" /><glyph glyph-name="" unicode="&#x16c;" d="M385 1443 l-258 0 l0 -934 q3 -240 160 -385 q156 -144 433 -148 q277 4 434 148 q156 145 159 385 l0 934 l-257 0 l0 -911 q-1 -150 -88 -239 q-87 -90 -248 -92 q-161 2 -248 92 q-86 89 -87 239 l0 911 ZM383 1856 q3 -136 92 -222 q90 -85 245 -88 q155 3 245 88 q89 86 92 222 l-156 0 q-2 -79 -51 -129 q-50 -50 -130 -52 q-80 2 -129 52 q-50 50 -52 129 l-156 0 Z" /><glyph glyph-name="" unicode="&#x216;" d="M385 1443 l-258 0 l0 -934 q3 -240 160 -385 q156 -144 433 -148 q277 4 434 148 q156 145 159 385 l0 934 l-257 0 l0 -911 q-1 -150 -88 -239 q-87 -90 -248 -92 q-161 2 -248 92 q-86 89 -87 239 l0 911 ZM383 1546 l156 0 q2 78 52 128 q49 50 129 52 q80 -2 130 -52 q49 -50 51 -128 l156 0 q-3 136 -92 221 q-90 86 -245 89 q-155 -3 -245 -89 q-89 -85 -92 -221 l0 0 Z" /><glyph glyph-name="" unicode="&#x1e78;" d="M385 1443 l-258 0 l0 -934 q3 -240 160 -385 q156 -144 433 -148 q277 4 434 148 q156 145 159 385 l0 934 l-257 0 l0 -911 q-1 -150 -88 -239 q-87 -90 -248 -92 q-161 2 -248 92 q-86 89 -87 239 l0 911 ZM852 1535 q89 1 144 72 q54 70 56 194 l-142 0 q-1 -62 -17 -95 q-16 -33 -47 -33 q-51 9 -104 72 q-54 62 -156 71 q-91 -1 -145 -70 q-54 -69 -55 -194 l141 0 q1 58 18 91 q18 33 51 34 q53 -9 106 -71 q53 -62 150 -71 l0 0 ZM625 1873 l184 0 l237 229 l-230 0 l-191 -229 Z" /><glyph glyph-name="" unicode="&#x1ee4;" d="M720 -434 q59 2 98 41 q40 39 41 98 q-1 59 -41 98 q-39 40 -98 41 q-59 -1 -98 -41 q-40 -39 -41 -98 q1 -59 41 -98 q39 -39 98 -41 l0 0 ZM385 1443 l-258 0 l0 -934 q3 -240 160 -385 q156 -144 433 -148 q277 4 434 148 q156 145 159 385 l0 934 l-257 0 l0 -911 q-1 -150 -88 -239 q-87 -90 -248 -92 q-161 2 -248 92 q-86 89 -87 239 l0 911 Z" /><glyph glyph-name="" unicode="&#x168;" d="M385 1443 l-258 0 l0 -934 q3 -240 160 -385 q156 -144 433 -148 q277 4 434 148 q156 145 159 385 l0 934 l-257 0 l0 -911 q-1 -150 -88 -239 q-87 -90 -248 -92 q-161 2 -248 92 q-86 89 -87 239 l0 911 ZM855 1538 q89 1 144 72 q54 70 56 194 l-141 0 q-1 -62 -17 -95 q-16 -33 -48 -33 q-50 9 -103 71 q-54 62 -155 71 q-91 -1 -145 -70 q-55 -69 -56 -194 l141 0 q1 58 18 92 q18 33 51 34 q53 -9 106 -71 q52 -62 149 -71 l0 0 Z" /><glyph glyph-name="" unicode="&#x16a;" d="M385 1443 l-258 0 l0 -934 q3 -240 160 -385 q156 -144 433 -148 q277 4 434 148 q156 145 159 385 l0 934 l-257 0 l0 -911 q-1 -150 -88 -239 q-87 -90 -248 -92 q-161 2 -248 92 q-86 89 -87 239 l0 911 ZM1055 1760 l-670 0 l0 -129 l670 0 l0 129 Z" /><glyph glyph-name="" unicode="&#x1e7a;" d="M1055 1631 l0 129 l-670 0 l0 -129 l670 0 ZM523 1894 q50 1 83 34 q33 32 34 81 q-1 49 -34 82 q-33 33 -83 34 q-51 -1 -84 -34 q-33 -33 -34 -82 q1 -49 34 -81 q33 -33 84 -34 l0 0 ZM917 1894 q51 1 84 34 q33 32 34 81 q-1 49 -34 82 q-33 33 -84 34 q-50 -1 -83 -34 q-33 -33 -34 -82 q1 -49 34 -81 q33 -33 83 -34 l0 0 ZM385 1443 l-258 0 l0 -934 q3 -240 160 -385 q156 -144 433 -148 q277 4 434 148 q156 145 159 385 l0 934 l-257 0 l0 -911 q-1 -150 -88 -239 q-87 -90 -248 -92 q-161 2 -248 92 q-86 89 -87 239 l0 911 Z" /><glyph glyph-name="" unicode="&#x16e;" d="M720 1511 q86 2 145 60 q58 57 60 143 q-2 86 -60 144 q-59 58 -145 60 q-86 -2 -145 -60 q-59 -58 -61 -144 q2 -86 61 -143 q59 -58 145 -60 l0 0 ZM720 1611 q-44 1 -74 30 q-30 29 -31 73 q1 45 31 74 q30 29 74 30 q44 -1 74 -30 q30 -29 31 -74 q-1 -44 -31 -73 q-30 -29 -74 -30 l0 0 ZM385 1443 l-258 0 l0 -934 q3 -240 160 -385 q156 -144 433 -148 q277 4 434 148 q156 145 159 385 l0 934 l-257 0 l0 -911 q-1 -150 -88 -239 q-87 -90 -248 -92 q-161 2 -248 92 q-86 89 -87 239 l0 911 Z" /><glyph glyph-name="" unicode="&#x172;" d="M966 -452 q77 1 126 19 l0 153 q-10 -3 -28 -5 q-18 -2 -40 -2 q-53 1 -84 28 q-31 26 -32 72 q0 56 39 112 q40 56 124 121 q125 98 184 211 q59 113 58 252 l0 934 l-257 0 l0 -911 q-2 -155 -90 -242 q-89 -88 -246 -89 q-156 1 -245 89 q-88 87 -90 242 l0 911 l-258 0 l0 -934 q4 -245 163 -387 q159 -143 430 -146 q30 0 64 5 q34 5 59 13 l0 -6 q-67 -47 -103 -105 q-37 -58 -37 -122 q2 -95 74 -153 q72 -58 189 -60 l0 0 Z" /><glyph glyph-name="" unicode="&#x1af;" d="M720 -25 q272 3 431 146 q159 142 162 387 l0 765 l79 0 q103 1 160 54 q57 53 58 150 l0 221 l-205 0 l0 -174 q0 -41 -21 -61 q-21 -20 -63 -20 l-265 0 l0 -912 q-2 -154 -90 -241 q-89 -87 -246 -89 q-156 2 -245 89 q-88 87 -90 241 l0 912 l-258 0 l0 -935 q4 -245 163 -387 q159 -143 430 -146 l0 0 Z" /><glyph glyph-name="" unicode="&#x1eea;" d="M623 1555 l198 0 l-231 306 l-246 0 l279 -306 ZM720 -25 q272 3 431 146 q159 142 162 387 l0 765 l79 0 q103 1 160 54 q57 53 58 150 l0 221 l-205 0 l0 -174 q0 -41 -21 -61 q-21 -20 -63 -20 l-265 0 l0 -912 q-2 -154 -90 -241 q-89 -87 -246 -89 q-156 2 -245 89 q-88 87 -90 241 l0 912 l-258 0 l0 -935 q4 -245 163 -387 q159 -143 430 -146 l0 0 Z" /><glyph glyph-name="" unicode="&#x1ee8;" d="M817 1552 l279 306 l-246 0 l-231 -306 l198 0 ZM720 -25 q272 3 431 146 q159 142 162 387 l0 765 l79 0 q103 1 160 54 q57 53 58 150 l0 221 l-205 0 l0 -174 q0 -41 -21 -61 q-21 -20 -63 -20 l-265 0 l0 -912 q-2 -154 -90 -241 q-89 -87 -246 -89 q-156 2 -245 89 q-88 87 -90 241 l0 912 l-258 0 l0 -935 q4 -245 163 -387 q159 -143 430 -146 l0 0 Z" /><glyph glyph-name="" unicode="&#x1ef0;" d="M720 -434 q59 2 98 41 q40 39 41 98 q-1 59 -41 98 q-39 40 -98 41 q-59 -1 -98 -41 q-40 -39 -41 -98 q1 -59 41 -98 q39 -39 98 -41 l0 0 ZM720 -25 q272 3 431 146 q159 142 162 387 l0 765 l79 0 q103 1 160 54 q57 53 58 150 l0 221 l-205 0 l0 -174 q0 -41 -21 -61 q-21 -20 -63 -20 l-265 0 l0 -912 q-2 -154 -90 -241 q-89 -87 -246 -89 q-156 2 -245 89 q-88 87 -90 241 l0 912 l-258 0 l0 -935 q4 -245 163 -387 q159 -143 430 -146 l0 0 Z" /><glyph glyph-name="" unicode="&#x1eec;" d="M544 1784 q22 9 51 14 q28 4 53 4 q42 0 67 -20 q25 -19 26 -51 q-1 -33 -26 -61 q-25 -28 -68 -42 l76 -96 q80 30 128 87 q48 56 49 125 q-1 86 -61 134 q-59 48 -160 49 q-37 0 -73 -6 q-35 -7 -62 -19 l0 -118 ZM720 -25 q272 3 431 146 q159 142 162 387 l0 765 l79 0 q103 1 160 54 q57 53 58 150 l0 221 l-205 0 l0 -174 q0 -41 -21 -61 q-21 -20 -63 -20 l-265 0 l0 -912 q-2 -154 -90 -241 q-89 -87 -246 -89 q-156 2 -245 89 q-88 87 -90 241 l0 912 l-258 0 l0 -935 q4 -245 163 -387 q159 -143 430 -146 l0 0 Z" /><glyph glyph-name="" unicode="&#x1eee;" d="M855 1538 q89 1 144 72 q54 70 56 194 l-141 0 q-1 -62 -17 -95 q-16 -33 -48 -33 q-50 9 -103 71 q-54 62 -155 71 q-91 -1 -145 -70 q-55 -69 -56 -194 l141 0 q1 58 18 92 q18 33 51 34 q53 -9 106 -71 q52 -62 149 -71 l0 0 ZM720 -25 q272 3 431 146 q159 142 162 387 l0 765 l79 0 q103 1 160 54 q57 53 58 150 l0 221 l-205 0 l0 -174 q0 -41 -21 -61 q-21 -20 -63 -20 l-265 0 l0 -912 q-2 -154 -90 -241 q-89 -87 -246 -89 q-156 2 -245 89 q-88 87 -90 241 l0 912 l-258 0 l0 -935 q4 -245 163 -387 q159 -143 430 -146 l0 0 Z" /><glyph glyph-name="" unicode="v" d="M825 0 l502 1443 l-278 0 l-366 -1166 l-6 0 l-366 1166 l-284 0 l502 -1443 l296 0 Z" /><glyph glyph-name="" unicode="&#x1e7c;" d="M812 1538 q89 1 144 72 q54 70 56 194 l-141 0 q-1 -62 -17 -95 q-16 -33 -48 -33 q-50 9 -103 71 q-54 62 -155 71 q-91 -1 -145 -70 q-55 -69 -56 -194 l141 0 q1 58 18 92 q18 33 51 34 q53 -9 106 -71 q52 -62 149 -71 l0 0 ZM825 0 l502 1443 l-278 0 l-366 -1166 l-6 0 l-366 1166 l-284 0 l502 -1443 l296 0 Z" /><glyph glyph-name="" unicode="&#x1e7e;" d="M677 -434 q59 2 98 41 q40 39 41 98 q-1 59 -41 98 q-39 40 -98 41 q-59 -1 -98 -41 q-40 -39 -41 -98 q1 -59 41 -98 q39 -39 98 -41 l0 0 ZM825 0 l502 1443 l-278 0 l-366 -1166 l-6 0 l-366 1166 l-284 0 l502 -1443 l296 0 Z" /><glyph glyph-name="" unicode="w" d="M968 1044 l10 0 l295 -1044 l243 0 l387 1443 l-268 0 l-250 -1093 l-8 0 l-290 1093 l-228 0 l-290 -1093 l-8 0 l-250 1093 l-268 0 l387 -1443 l243 0 l295 1044 Z" /><glyph glyph-name="" unicode="&#x1e80;" d="M876 1555 l198 0 l-231 306 l-246 0 l279 -306 ZM968 1044 l10 0 l295 -1044 l243 0 l387 1443 l-268 0 l-250 -1093 l-8 0 l-290 1093 l-228 0 l-290 -1093 l-8 0 l-250 1093 l-268 0 l387 -1443 l243 0 l295 1044 Z" /><glyph glyph-name="" unicode="&#x1e82;" d="M1070 1552 l279 306 l-246 0 l-231 -306 l198 0 ZM968 1044 l10 0 l295 -1044 l243 0 l387 1443 l-268 0 l-250 -1093 l-8 0 l-290 1093 l-228 0 l-290 -1093 l-8 0 l-250 1093 l-268 0 l387 -1443 l243 0 l295 1044 Z" /><glyph glyph-name="" unicode="&#x1e86;" d="M973 1569 q59 2 98 41 q40 39 41 98 q-1 59 -41 98 q-39 40 -98 41 q-59 -1 -98 -41 q-40 -39 -41 -98 q1 -59 41 -98 q39 -39 98 -41 l0 0 ZM968 1044 l10 0 l295 -1044 l243 0 l387 1443 l-268 0 l-250 -1093 l-8 0 l-290 1093 l-228 0 l-290 -1093 l-8 0 l-250 1093 l-268 0 l387 -1443 l243 0 l295 1044 Z" /><glyph glyph-name="" unicode="&#x1e88;" d="M973 -434 q59 2 98 41 q40 39 41 98 q-1 59 -41 98 q-39 40 -98 41 q-59 -1 -98 -41 q-40 -39 -41 -98 q1 -59 41 -98 q39 -39 98 -41 l0 0 ZM968 1044 l10 0 l295 -1044 l243 0 l387 1443 l-268 0 l-250 -1093 l-8 0 l-290 1093 l-228 0 l-290 -1093 l-8 0 l-250 1093 l-268 0 l387 -1443 l243 0 l295 1044 Z" /><glyph glyph-name="" unicode="&#x1e84;" d="M768 1569 q55 1 90 37 q36 35 37 87 q-1 53 -37 88 q-35 36 -90 37 q-55 -1 -90 -37 q-36 -35 -37 -88 q1 -52 37 -87 q35 -36 90 -37 l0 0 ZM1178 1569 q54 1 90 37 q35 35 36 87 q-1 53 -36 88 q-36 36 -90 37 q-55 -1 -90 -37 q-36 -35 -37 -88 q1 -52 37 -87 q35 -36 90 -37 l0 0 ZM968 1044 l10 0 l295 -1044 l243 0 l387 1443 l-268 0 l-250 -1093 l-8 0 l-290 1093 l-228 0 l-290 -1093 l-8 0 l-250 1093 l-268 0 l387 -1443 l243 0 l295 1044 Z" /><glyph glyph-name="" unicode="&#x174;" d="M875 1856 l-281 -310 l203 0 l174 198 l4 0 l174 -198 l203 0 l-281 310 l-196 0 ZM968 1044 l10 0 l295 -1044 l243 0 l387 1443 l-268 0 l-250 -1093 l-8 0 l-290 1093 l-228 0 l-290 -1093 l-8 0 l-250 1093 l-268 0 l387 -1443 l243 0 l295 1044 Z" /><glyph glyph-name="" unicode="x" d="M44 0 l281 0 l344 530 l8 0 l340 -530 l297 0 l-473 717 l0 7 l481 719 l-289 0 l-338 -542 l-8 0 l-334 542 l-305 0 l466 -713 l0 -7 l-470 -723 Z" /><glyph glyph-name="" unicode="&#x1e8a;" d="M44 0 l281 0 l344 530 l8 0 l340 -530 l297 0 l-473 717 l0 7 l481 719 l-289 0 l-338 -542 l-8 0 l-334 542 l-305 0 l466 -713 l0 -7 l-470 -723 ZM683 1569 q59 2 98 41 q40 39 41 98 q-1 59 -41 98 q-39 40 -98 41 q-59 -1 -98 -41 q-40 -39 -41 -98 q1 -59 41 -98 q39 -39 98 -41 l0 0 Z" /><glyph glyph-name="" unicode="&#x1e8c;" d="M44 0 l281 0 l344 530 l8 0 l340 -530 l297 0 l-473 717 l0 7 l481 719 l-289 0 l-338 -542 l-8 0 l-334 542 l-305 0 l466 -713 l0 -7 l-470 -723 ZM478 1569 q55 1 90 37 q36 35 37 87 q-1 53 -37 88 q-35 36 -90 37 q-55 -1 -90 -37 q-36 -35 -37 -88 q1 -52 37 -87 q35 -36 90 -37 l0 0 ZM888 1569 q54 1 90 37 q35 35 36 87 q-1 53 -36 88 q-36 36 -90 37 q-55 -1 -90 -37 q-36 -35 -37 -88 q1 -52 37 -87 q35 -36 90 -37 l0 0 Z" /><glyph glyph-name="" unicode="y" d="M790 0 l0 569 l506 874 l-281 0 l-349 -628 l-6 0 l-350 628 l-283 0 l506 -874 l0 -569 l257 0 Z" /><glyph glyph-name="" unicode="&#x1ef2;" d="M790 0 l0 569 l506 874 l-281 0 l-349 -628 l-6 0 l-350 628 l-283 0 l506 -874 l0 -569 l257 0 ZM564 1555 l198 0 l-231 306 l-246 0 l279 -306 Z" /><glyph glyph-name="" unicode="ý" d="M790 0 l0 569 l506 874 l-281 0 l-349 -628 l-6 0 l-350 628 l-283 0 l506 -874 l0 -569 l257 0 ZM758 1552 l279 306 l-246 0 l-231 -306 l198 0 Z" /><glyph glyph-name="" unicode="&#x1e8e;" d="M790 0 l0 569 l506 874 l-281 0 l-349 -628 l-6 0 l-350 628 l-283 0 l506 -874 l0 -569 l257 0 ZM661 1569 q59 2 98 41 q40 39 41 98 q-1 59 -41 98 q-39 40 -98 41 q-59 -1 -98 -41 q-40 -39 -41 -98 q1 -59 41 -98 q39 -39 98 -41 l0 0 Z" /><glyph glyph-name="" unicode="&#x1ef4;" d="M790 0 l0 569 l506 874 l-281 0 l-349 -628 l-6 0 l-350 628 l-283 0 l506 -874 l0 -569 l257 0 ZM661 -434 q59 2 98 41 q40 39 41 98 q-1 59 -41 98 q-39 40 -98 41 q-59 -1 -98 -41 q-40 -39 -41 -98 q1 -59 41 -98 q39 -39 98 -41 l0 0 Z" /><glyph glyph-name="" unicode="&#x178;" d="M790 0 l0 569 l506 874 l-281 0 l-349 -628 l-6 0 l-350 628 l-283 0 l506 -874 l0 -569 l257 0 ZM456 1569 q55 1 90 37 q36 35 37 87 q-1 53 -37 88 q-35 36 -90 37 q-55 -1 -90 -37 q-36 -35 -37 -88 q1 -52 37 -87 q35 -36 90 -37 l0 0 ZM866 1569 q54 1 90 37 q35 35 36 87 q-1 53 -36 88 q-36 36 -90 37 q-55 -1 -90 -37 q-36 -35 -37 -88 q1 -52 37 -87 q35 -36 90 -37 l0 0 Z" /><glyph glyph-name="" unicode="&#x1ef8;" d="M790 0 l0 569 l506 874 l-281 0 l-349 -628 l-6 0 l-350 628 l-283 0 l506 -874 l0 -569 l257 0 ZM796 1538 q89 1 144 72 q54 70 56 194 l-141 0 q-1 -62 -17 -95 q-16 -33 -48 -33 q-50 9 -103 71 q-54 62 -155 71 q-91 -1 -145 -70 q-55 -69 -56 -194 l141 0 q1 58 18 92 q18 33 51 34 q53 -9 106 -71 q52 -62 149 -71 l0 0 Z" /><glyph glyph-name="" unicode="&#x176;" d="M790 0 l0 569 l506 874 l-281 0 l-349 -628 l-6 0 l-350 628 l-283 0 l506 -874 l0 -569 l257 0 ZM563 1856 l-281 -310 l203 0 l174 198 l4 0 l174 -198 l203 0 l-281 310 l-196 0 Z" /><glyph glyph-name="" unicode="&#x232;" d="M790 0 l0 569 l506 874 l-281 0 l-349 -628 l-6 0 l-350 628 l-283 0 l506 -874 l0 -569 l257 0 ZM996 1760 l-670 0 l0 -129 l670 0 l0 129 Z" /><glyph glyph-name="" unicode="&#x1ef6;" d="M790 0 l0 569 l506 874 l-281 0 l-349 -628 l-6 0 l-350 628 l-283 0 l506 -874 l0 -569 l257 0 ZM485 1784 q22 9 51 14 q28 4 53 4 q42 0 67 -20 q25 -19 26 -51 q-1 -33 -26 -61 q-25 -28 -68 -42 l76 -96 q80 30 128 87 q48 56 49 125 q-1 86 -61 134 q-59 48 -160 49 q-37 0 -73 -6 q-35 -7 -62 -19 l0 -118 Z" /><glyph glyph-name="" unicode="z" d="M92 0 l1097 0 l0 218 l-781 0 l0 7 l762 1046 l0 172 l-1057 0 l0 -218 l745 0 l0 -7 l-766 -1046 l0 -172 Z" /><glyph glyph-name="" unicode="&#x179;" d="M738 1552 l279 306 l-246 0 l-231 -306 l198 0 ZM92 0 l1097 0 l0 218 l-781 0 l0 7 l762 1046 l0 172 l-1057 0 l0 -218 l745 0 l0 -7 l-766 -1046 l0 -172 Z" /><glyph glyph-name="" unicode="&#x17d;" d="M92 0 l1097 0 l0 218 l-781 0 l0 7 l762 1046 l0 172 l-1057 0 l0 -218 l745 0 l0 -7 l-766 -1046 l0 -172 ZM543 1546 l196 0 l281 310 l-203 0 l-174 -198 l-4 0 l-174 198 l-203 0 l281 -310 Z" /><glyph glyph-name="" unicode="&#x1e90;" d="M92 0 l1097 0 l0 218 l-781 0 l0 7 l762 1046 l0 172 l-1057 0 l0 -218 l745 0 l0 -7 l-766 -1046 l0 -172 ZM543 1856 l-281 -310 l203 0 l174 198 l4 0 l174 -198 l203 0 l-281 310 l-196 0 Z" /><glyph glyph-name="" unicode="&#x1e94;" d="M92 0 l1097 0 l0 218 l-781 0 l0 7 l762 1046 l0 172 l-1057 0 l0 -218 l745 0 l0 -7 l-766 -1046 l0 -172 ZM976 -226 l-670 0 l0 -129 l670 0 l0 129 Z" /><glyph glyph-name="" unicode="&#x1e92;" d="M641 -434 q59 2 98 41 q40 39 41 98 q-1 59 -41 98 q-39 40 -98 41 q-59 -1 -98 -41 q-40 -39 -41 -98 q1 -59 41 -98 q39 -39 98 -41 l0 0 ZM92 0 l1097 0 l0 218 l-781 0 l0 7 l762 1046 l0 172 l-1057 0 l0 -218 l745 0 l0 -7 l-766 -1046 l0 -172 Z" /><glyph glyph-name="" unicode="&#x17b;" d="M641 1569 q59 2 98 41 q40 39 41 98 q-1 59 -41 98 q-39 40 -98 41 q-59 -1 -98 -41 q-40 -39 -41 -98 q1 -59 41 -98 q39 -39 98 -41 l0 0 ZM92 0 l1097 0 l0 218 l-781 0 l0 7 l762 1046 l0 172 l-1057 0 l0 -218 l745 0 l0 -7 l-766 -1046 l0 -172 Z" /><glyph glyph-name="" unicode="æ" d="M820 1240 l145 0 l0 -636 l-425 0 l280 636 ZM965 0 l918 0 l0 217 l-677 0 l0 406 l640 0 l0 206 l-640 0 l0 397 l677 0 l0 217 l-1223 0 l-641 -1443 l259 0 l180 404 l507 0 l0 -404 Z" /><glyph glyph-name="" unicode="&#x1e2;" d="M820 1240 l145 0 l0 -636 l-425 0 l280 636 ZM965 0 l918 0 l0 217 l-677 0 l0 406 l640 0 l0 206 l-640 0 l0 397 l677 0 l0 217 l-1223 0 l-641 -1443 l259 0 l180 404 l507 0 l0 -404 ZM1765 1760 l-670 0 l0 -129 l670 0 l0 129 Z" /><glyph glyph-name="" unicode="&#x1fc;" d="M1319 1552 l279 306 l-246 0 l-231 -306 l198 0 ZM820 1240 l145 0 l0 -636 l-425 0 l280 636 ZM965 0 l918 0 l0 217 l-677 0 l0 406 l640 0 l0 206 l-640 0 l0 397 l677 0 l0 217 l-1223 0 l-641 -1443 l259 0 l180 404 l507 0 l0 -404 Z" /><glyph glyph-name="" unicode="&#x152;" d="M771 1249 q196 -3 309 -143 q114 -141 116 -385 q-2 -244 -115 -384 q-113 -140 -310 -143 q-198 3 -311 143 q-113 140 -115 384 q2 244 115 385 q113 140 311 143 l0 0 ZM1218 0 l901 0 l0 218 l-663 0 l0 412 l625 0 l0 205 l-625 0 l0 390 l663 0 l0 218 l-901 0 l0 -234 q-69 127 -192 195 q-123 67 -284 68 q-302 -4 -479 -205 q-178 -200 -182 -546 q4 -345 181 -545 q178 -201 478 -205 q161 1 287 71 q127 69 191 191 l0 -233 Z" /><glyph glyph-name="" unicode="ð" d="M402 218 l0 419 l263 0 l0 200 l-263 0 l0 388 l249 0 q217 -1 333 -129 q116 -129 117 -372 q-1 -248 -116 -376 q-116 -129 -334 -130 l-249 0 ZM144 1443 l0 -606 l-109 0 l0 -200 l109 0 l0 -637 l534 0 q326 2 505 191 q179 189 181 534 q-2 345 -181 530 q-179 186 -505 188 l-534 0 Z" /><glyph glyph-name="" unicode="þ" d="M154 1443 l0 -1443 l258 0 l0 312 l322 0 q198 2 330 118 q131 116 136 325 q-5 210 -133 325 q-128 115 -323 117 l-331 0 l0 246 l-259 0 ZM412 986 l261 0 q120 0 191 -58 q71 -58 73 -174 q-2 -116 -73 -175 q-71 -58 -192 -58 l-260 0 l0 465 Z" /><glyph glyph-name="" unicode="&#x391;" d="M1070 0 l272 0 l-512 1443 l-291 0 l-512 -1443 l266 0 l123 373 l531 0 l123 -373 ZM678 1188 l7 0 l201 -616 l-410 0 l202 616 Z" /><glyph glyph-name="" unicode="&#x392;" d="M744 0 q233 2 364 110 q130 108 132 300 q-2 146 -93 240 q-91 95 -241 111 l0 8 q114 21 187 108 q73 87 76 206 q-2 166 -117 262 q-115 96 -314 98 l-611 0 l0 -1443 l617 0 ZM385 1242 l289 0 q115 0 177 -51 q62 -51 63 -146 q-1 -101 -73 -155 q-72 -54 -208 -55 l-248 0 l0 407 ZM385 201 l0 451 l290 0 q148 0 224 -57 q77 -57 77 -167 q0 -111 -74 -169 q-74 -58 -217 -58 l-300 0 Z" /><glyph glyph-name="" unicode="&#x393;" d="M385 0 l0 1225 l642 0 l0 218 l-900 0 l0 -1443 l258 0 Z" /><glyph glyph-name="" unicode="&#x394;" d="M1306 0 l0 156 l-481 1287 l-291 0 l-481 -1287 l0 -156 l1253 0 ZM329 225 l341 972 l7 0 l340 -972 l0 -8 l-688 0 l0 8 Z" /><glyph glyph-name="" unicode="&#x395;" d="M1061 218 l-676 0 l0 412 l639 0 l0 205 l-639 0 l0 390 l676 0 l0 218 l-934 0 l0 -1443 l934 0 l0 218 Z" /><glyph glyph-name="" unicode="&#x396;" d="M92 0 l1097 0 l0 218 l-781 0 l0 7 l762 1046 l0 172 l-1057 0 l0 -218 l745 0 l0 -7 l-766 -1046 l0 -172 Z" /><glyph glyph-name="" unicode="&#x397;" d="M1344 0 l0 1443 l-257 0 l0 -600 l-702 0 l0 600 l-258 0 l0 -1443 l258 0 l0 626 l702 0 l0 -626 l257 0 Z" /><glyph glyph-name="" unicode="&#x398;" d="M1051 616 l0 204 l-545 0 l0 -204 l545 0 ZM779 1467 q-333 -4 -516 -202 q-183 -198 -185 -544 q3 -346 186 -543 q184 -198 515 -202 q331 4 514 202 q183 197 186 543 q-2 346 -184 544 q-182 198 -516 202 l0 0 ZM779 1247 q209 -2 323 -141 q114 -139 116 -385 q-2 -245 -116 -384 q-114 -139 -323 -141 q-208 2 -323 141 q-114 139 -116 384 q2 246 116 385 q115 139 323 141 l0 0 Z" /><glyph glyph-name="" unicode="&#x399;" d="M385 0 l0 1443 l-258 0 l0 -1443 l258 0 Z" /><glyph glyph-name="" unicode="&#x39a;" d="M385 0 l0 464 l142 166 l469 -630 l314 0 l-599 803 l556 640 l-297 0 l-576 -675 l-9 0 l0 675 l-258 0 l0 -1443 l258 0 Z" /><glyph glyph-name="" unicode="&#x39b;" d="M1030 0 l278 0 l-495 1443 l-291 0 l-495 -1443 l272 0 l363 1175 l6 0 l362 -1175 Z" /><glyph glyph-name="" unicode="&#x39c;" d="M1616 0 l0 1443 l-298 0 l-442 -1089 l-8 0 l-442 1089 l-299 0 l0 -1443 l233 0 l0 1024 l7 0 l417 -1012 l176 0 l417 1012 l7 0 l0 -1024 l232 0 Z" /><glyph glyph-name="" unicode="&#x39d;" d="M376 0 l0 1012 l9 0 l717 -1012 l222 0 l0 1443 l-248 0 l0 -1011 l-9 0 l-716 1011 l-224 0 l0 -1443 l249 0 Z" /><glyph glyph-name="" unicode="&#x39e;" d="M97 1443 l0 -222 l1077 0 l0 222 l-1077 0 ZM1087 625 l0 210 l-903 0 l0 -210 l903 0 ZM97 222 l0 -222 l1077 0 l0 222 l-1077 0 Z" /><glyph glyph-name="" unicode="&#x39f;" d="M763 1467 q-319 -4 -500 -201 q-182 -197 -185 -545 q3 -348 185 -545 q181 -196 500 -200 q318 4 500 200 q181 197 184 545 q-3 348 -184 545 q-182 197 -500 201 l0 0 ZM763 1247 q195 -3 307 -142 q112 -140 114 -384 q-2 -243 -114 -383 q-112 -139 -307 -142 q-196 3 -307 142 q-112 140 -114 383 q2 244 114 384 q111 139 307 142 l0 0 Z" /><glyph glyph-name="" unicode="&#x3a0;" d="M1324 0 l0 1443 l-1197 0 l0 -1443 l258 0 l0 1226 l682 0 l0 -1226 l257 0 Z" /><glyph glyph-name="" unicode="&#x3a1;" d="M127 1443 l0 -1443 l258 0 l0 477 l313 0 q223 3 358 134 q134 130 138 349 q-3 219 -135 350 q-132 130 -350 133 l-582 0 ZM385 1232 l256 0 q140 -1 215 -71 q75 -70 76 -201 q-1 -132 -77 -203 q-75 -71 -215 -72 l-255 0 l0 547 Z" /><glyph glyph-name="" unicode="&#x3a3;" d="M407 225 l359 507 l0 7 l-333 479 l0 7 l703 0 l0 218 l-1024 0 l0 -187 l376 -532 l-396 -561 l0 -163 l1070 0 l0 218 l-755 0 l0 7 Z" /><glyph glyph-name="" unicode="&#x3a4;" d="M744 0 l0 1225 l438 0 l0 218 l-1134 0 l0 -218 l438 0 l0 -1225 l258 0 Z" /><glyph glyph-name="" unicode="&#x3a5;" d="M790 0 l0 569 l506 874 l-281 0 l-349 -628 l-6 0 l-350 628 l-283 0 l506 -874 l0 -569 l257 0 Z" /><glyph glyph-name="" unicode="&#x3a6;" d="M1408 715 q-2 -200 -112 -315 q-111 -116 -311 -130 l0 891 q200 -14 311 -130 q110 -116 112 -316 l0 0 ZM322 715 q2 200 112 316 q110 116 310 130 l0 -891 q-200 14 -310 130 q-110 115 -112 315 l0 0 ZM985 -88 l0 148 q310 18 492 193 q182 175 186 462 q-4 288 -186 463 q-182 175 -492 193 l0 150 l-241 0 l0 -150 q-310 -18 -492 -193 q-182 -175 -186 -463 q4 -287 186 -462 q182 -175 492 -193 l0 -148 l241 0 Z" /><glyph glyph-name="" unicode="&#x3a7;" d="M44 0 l281 0 l344 530 l8 0 l340 -530 l297 0 l-473 717 l0 7 l481 719 l-289 0 l-338 -542 l-8 0 l-334 542 l-305 0 l466 -713 l0 -7 l-470 -723 Z" /><glyph glyph-name="" unicode="&#x3a8;" d="M947 0 l0 320 q274 6 431 161 q157 155 160 420 l0 542 l-248 0 l0 -541 q0 -170 -87 -263 q-88 -93 -256 -103 l0 907 l-248 0 l0 -907 q-169 10 -256 103 q-88 93 -88 263 l0 541 l-248 0 l0 -542 q3 -265 160 -420 q157 -155 432 -161 l0 -320 l248 0 Z" /><glyph glyph-name="" unicode="&#x3a9;" d="M1200 790 q0 -177 -74 -306 q-75 -129 -224 -224 l0 -260 l559 0 l0 211 l-299 0 l0 7 q139 91 219 242 q79 151 80 345 q-5 299 -189 478 q-185 179 -496 184 q-310 -5 -495 -184 q-184 -179 -189 -478 q1 -194 80 -345 q79 -151 219 -242 l0 -7 l-299 0 l0 -211 l558 0 l0 260 q-149 95 -224 224 q-74 129 -74 306 q2 214 115 335 q113 120 309 122 q196 -2 309 -122 q113 -121 115 -335 l0 0 Z" /><glyph glyph-name="" unicode="&#x386;" d="M1126 0 l272 0 l-512 1443 l-291 0 l-512 -1443 l266 0 l123 373 l531 0 l123 -373 ZM734 1188 l7 0 l201 -616 l-410 0 l202 616 ZM94 1123 l194 0 l158 320 l-275 0 l-77 -320 Z" /><glyph glyph-name="" unicode="&#x388;" d="M47 1123 l194 0 l158 320 l-275 0 l-77 -320 ZM1457 218 l-676 0 l0 412 l639 0 l0 205 l-639 0 l0 390 l676 0 l0 218 l-934 0 l0 -1443 l934 0 l0 218 Z" /><glyph glyph-name="" unicode="&#x389;" d="M47 1123 l194 0 l158 320 l-275 0 l-77 -320 ZM1740 0 l0 1443 l-257 0 l0 -600 l-702 0 l0 600 l-258 0 l0 -1443 l258 0 l0 626 l702 0 l0 -626 l257 0 Z" /><glyph glyph-name="" unicode="&#x38a;" d="M781 0 l0 1443 l-258 0 l0 -1443 l258 0 ZM47 1123 l194 0 l158 320 l-275 0 l-77 -320 Z" /><glyph glyph-name="" unicode="&#x3aa;" d="M385 0 l0 1443 l-258 0 l0 -1443 l258 0 ZM51 1569 q55 1 90 37 q36 35 37 87 q-1 53 -37 88 q-35 36 -90 37 q-55 -1 -90 -37 q-36 -35 -37 -88 q1 -52 37 -87 q35 -36 90 -37 l0 0 ZM461 1569 q54 1 90 37 q35 35 36 87 q-1 53 -36 88 q-36 36 -90 37 q-55 -1 -90 -37 q-36 -35 -37 -88 q1 -52 37 -87 q35 -36 90 -37 l0 0 Z" /><glyph glyph-name="" unicode="&#x38c;" d="M990 1467 q-319 -4 -500 -201 q-182 -197 -185 -545 q3 -348 185 -545 q181 -196 500 -200 q318 4 500 200 q181 197 184 545 q-3 348 -184 545 q-182 197 -500 201 l0 0 ZM990 1247 q195 -3 307 -142 q112 -140 114 -384 q-2 -243 -114 -383 q-112 -139 -307 -142 q-196 3 -307 142 q-112 140 -114 383 q2 244 114 384 q111 139 307 142 l0 0 ZM31 1123 l194 0 l158 320 l-275 0 l-77 -320 Z" /><glyph glyph-name="" unicode="&#x38e;" d="M33 1123 l194 0 l158 320 l-275 0 l-77 -320 ZM1210 0 l0 569 l506 874 l-281 0 l-349 -628 l-6 0 l-350 628 l-283 0 l506 -874 l0 -569 l257 0 Z" /><glyph glyph-name="" unicode="&#x3ab;" d="M790 0 l0 569 l506 874 l-281 0 l-349 -628 l-6 0 l-350 628 l-283 0 l506 -874 l0 -569 l257 0 ZM456 1569 q55 1 90 37 q36 35 37 87 q-1 53 -37 88 q-35 36 -90 37 q-55 -1 -90 -37 q-36 -35 -37 -88 q1 -52 37 -87 q35 -36 90 -37 l0 0 ZM866 1569 q54 1 90 37 q35 35 36 87 q-1 53 -36 88 q-36 36 -90 37 q-55 -1 -90 -37 q-36 -35 -37 -88 q1 -52 37 -87 q35 -36 90 -37 l0 0 Z" /><glyph glyph-name="" unicode="&#x38f;" d="M1434 790 q0 -177 -74 -306 q-75 -129 -224 -224 l0 -260 l559 0 l0 211 l-299 0 l0 7 q139 91 219 242 q79 151 80 345 q-5 299 -189 478 q-185 179 -496 184 q-310 -5 -495 -184 q-184 -179 -189 -478 q1 -194 80 -345 q79 -151 219 -242 l0 -7 l-299 0 l0 -211 l558 0 l0 260 q-149 95 -224 224 q-74 129 -74 306 q2 214 115 335 q113 120 309 122 q196 -2 309 -122 q113 -121 115 -335 l0 0 ZM51 1123 l194 0 l158 320 l-275 0 l-77 -320 Z" /><glyph glyph-name="" unicode="&#x410;" d="M1080 0 l272 0 l-512 1443 l-291 0 l-512 -1443 l266 0 l123 373 l531 0 l123 -373 ZM688 1188 l7 0 l201 -616 l-410 0 l202 616 Z" /><glyph glyph-name="" unicode="&#x4d0;" d="M1080 0 l272 0 l-512 1443 l-291 0 l-512 -1443 l266 0 l123 373 l531 0 l123 -373 ZM688 1188 l7 0 l201 -616 l-410 0 l202 616 ZM351 1858 q2 -140 93 -222 q90 -82 240 -84 q150 2 240 84 q91 82 93 222 l-156 0 q-3 -80 -51 -129 q-48 -50 -126 -51 q-78 1 -126 51 q-48 49 -51 129 l-156 0 Z" /><glyph glyph-name="" unicode="&#x4d2;" d="M1080 0 l272 0 l-512 1443 l-291 0 l-512 -1443 l266 0 l123 373 l531 0 l123 -373 ZM688 1188 l7 0 l201 -616 l-410 0 l202 616 ZM489 1569 q55 1 90 37 q36 35 37 87 q-1 53 -37 88 q-35 36 -90 37 q-55 -1 -90 -37 q-36 -35 -37 -88 q1 -52 37 -87 q35 -36 90 -37 l0 0 ZM899 1569 q54 1 90 37 q35 35 36 87 q-1 53 -36 88 q-36 36 -90 37 q-55 -1 -90 -37 q-36 -35 -37 -88 q1 -52 37 -87 q35 -36 90 -37 l0 0 Z" /><glyph glyph-name="" unicode="&#x411;" d="M1191 447 q-4 200 -138 320 q-134 119 -356 122 l-302 0 l0 337 l659 0 l0 217 l-917 0 l0 -1443 l568 0 q219 3 351 123 q132 121 135 324 l0 0 ZM395 212 l0 471 l244 0 q138 0 213 -61 q74 -60 75 -175 q-1 -114 -75 -174 q-75 -61 -212 -61 l-245 0 Z" /><glyph glyph-name="" unicode="&#x412;" d="M754 0 q233 2 364 110 q130 108 132 300 q-2 146 -93 240 q-91 95 -241 111 l0 8 q114 21 187 108 q73 87 76 206 q-2 166 -117 262 q-115 96 -314 98 l-611 0 l0 -1443 l617 0 ZM395 1242 l289 0 q115 0 177 -51 q62 -51 63 -146 q-1 -101 -73 -155 q-72 -54 -208 -55 l-248 0 l0 407 ZM395 201 l0 451 l290 0 q148 0 224 -57 q77 -57 77 -167 q0 -111 -74 -169 q-74 -58 -217 -58 l-300 0 Z" /><glyph glyph-name="" unicode="&#x413;" d="M396 0 l0 1224 l644 0 l0 219 l-903 0 l0 -1443 l259 0 Z" /><glyph glyph-name="" unicode="&#x403;" d="M702 1542 l279 306 l-246 0 l-231 -306 l198 0 ZM396 0 l0 1224 l644 0 l0 219 l-903 0 l0 -1443 l259 0 Z" /><glyph glyph-name="" unicode="&#x490;" d="M396 1224 l644 0 l0 504 l-241 0 l0 -285 l-662 0 l0 -1443 l259 0 l0 1224 Z" /><glyph glyph-name="" unicode="&#x4f6;" d="M1040 1224 l0 219 l-903 0 l0 -1443 l30 0 l204 0 l0 -285 l235 0 l0 502 l-210 0 l0 1007 l644 0 Z" /><glyph glyph-name="" unicode="&#x492;" d="M1055 1224 l0 219 l-903 0 l0 -647 l-109 0 l0 -185 l109 0 l0 -611 l259 0 l0 611 l475 0 l0 185 l-475 0 l0 428 l644 0 Z" /><glyph glyph-name="" unicode="&#x4fa;" d="M1055 1224 l0 219 l-903 0 l0 -647 l-106 0 l0 -185 l106 0 l0 -278 l0 -333 l0 -30 q1 -75 -33 -109 q-34 -35 -115 -34 q-6 0 -17 1 q-12 0 -16 0 l0 -194 q8 -1 28 -1 q20 -1 32 -1 q188 0 284 82 q95 82 95 252 l0 34 l1 0 l0 611 l520 0 l0 185 l-520 0 l0 428 l644 0 Z" /><glyph glyph-name="" unicode="&#x414;" d="M515 578 l41 648 l491 0 l0 -1008 l-630 0 l0 8 q49 59 70 145 q21 86 28 207 l0 0 ZM262 0 l988 0 l0 -285 l234 0 l0 503 l-180 0 l0 1225 l-976 0 l-52 -849 q-7 -144 -39 -236 q-32 -93 -107 -140 l-103 0 l0 -503 l235 0 l0 285 Z" /><glyph glyph-name="" unicode="&#x415;" d="M1071 218 l-676 0 l0 412 l639 0 l0 205 l-639 0 l0 390 l676 0 l0 218 l-934 0 l0 -1443 l934 0 l0 218 Z" /><glyph glyph-name="" unicode="&#x401;" d="M399 1569 q55 1 90 37 q36 35 37 87 q-1 53 -37 88 q-35 36 -90 37 q-55 -1 -90 -37 q-36 -35 -37 -88 q1 -52 37 -87 q35 -36 90 -37 l0 0 ZM809 1569 q54 1 90 37 q35 35 36 87 q-1 53 -36 88 q-36 36 -90 37 q-55 -1 -90 -37 q-36 -35 -37 -88 q1 -52 37 -87 q35 -36 90 -37 l0 0 ZM1071 218 l-676 0 l0 412 l639 0 l0 205 l-639 0 l0 390 l676 0 l0 218 l-934 0 l0 -1443 l934 0 l0 218 Z" /><glyph glyph-name="" unicode="&#x4d6;" d="M272 1858 q2 -140 93 -222 q90 -82 240 -84 q150 2 240 84 q91 82 93 222 l-156 0 q-3 -80 -51 -129 q-48 -50 -126 -51 q-78 1 -126 51 q-48 49 -51 129 l-156 0 ZM1071 218 l-676 0 l0 412 l639 0 l0 205 l-639 0 l0 390 l676 0 l0 218 l-934 0 l0 -1443 l934 0 l0 218 Z" /><glyph glyph-name="" unicode="&#x400;" d="M507 1555 l198 0 l-231 306 l-246 0 l279 -306 ZM1071 218 l-676 0 l0 412 l639 0 l0 205 l-639 0 l0 390 l676 0 l0 218 l-934 0 l0 -1443 l934 0 l0 218 Z" /><glyph glyph-name="" unicode="&#x416;" d="M1384 756 l575 687 l-295 0 l-518 -631 l-8 0 l0 631 l-252 0 l0 -631 l-8 0 l-517 631 l-300 0 l578 -690 l-621 -753 l315 0 l545 658 l8 0 l0 -658 l252 0 l0 658 l8 0 l541 -658 l323 0 l-626 756 Z" /><glyph glyph-name="" unicode="&#x4c1;" d="M1195 1856 q-2 -79 -51 -129 q-50 -50 -130 -52 q-80 2 -129 52 q-50 50 -52 129 l-156 0 q3 -136 92 -222 q90 -85 245 -88 q155 3 245 88 q89 86 92 222 l-156 0 ZM1384 756 l575 687 l-295 0 l-518 -631 l-8 0 l0 631 l-252 0 l0 -631 l-8 0 l-517 631 l-300 0 l578 -690 l-621 -753 l315 0 l545 658 l8 0 l0 -658 l252 0 l0 658 l8 0 l541 -658 l323 0 l-626 756 Z" /><glyph glyph-name="" unicode="&#x4dc;" d="M1220 1569 q54 1 90 37 q35 35 36 87 q-1 53 -36 88 q-36 36 -90 37 q-55 -1 -90 -37 q-36 -35 -37 -88 q1 -52 37 -87 q35 -36 90 -37 l0 0 ZM810 1569 q55 1 90 37 q36 35 37 87 q-1 53 -37 88 q-35 36 -90 37 q-55 -1 -90 -37 q-36 -35 -37 -88 q1 -52 37 -87 q35 -36 90 -37 l0 0 ZM1384 756 l575 687 l-295 0 l-518 -631 l-8 0 l0 631 l-252 0 l0 -631 l-8 0 l-517 631 l-300 0 l578 -690 l-621 -753 l315 0 l545 658 l8 0 l0 -658 l252 0 l0 658 l8 0 l541 -658 l323 0 l-626 756 Z" /><glyph glyph-name="" unicode="&#x496;" d="M1830 217 l-446 539 l575 687 l-295 0 l-518 -631 l-8 0 l0 631 l-252 0 l0 -631 l-8 0 l-517 631 l-300 0 l578 -690 l-621 -753 l315 0 l545 658 l8 0 l0 -658 l252 0 l0 658 l8 0 l541 -658 l5 0 l99 0 l0 -285 l234 0 l0 502 l-195 0 Z" /><glyph glyph-name="" unicode="&#x417;" d="M425 633 l197 0 q137 -1 212 -59 q76 -58 77 -164 q-2 -105 -78 -168 q-76 -62 -205 -64 q-134 1 -215 59 q-82 59 -92 161 l-248 0 q13 -199 162 -315 q148 -116 392 -119 q241 4 393 123 q151 119 156 308 q-1 147 -85 242 q-83 94 -230 113 l0 8 q122 29 195 119 q73 89 75 213 q-4 175 -139 280 q-135 106 -360 109 q-235 -2 -373 -115 q-139 -114 -151 -313 l241 0 q9 103 82 161 q73 58 194 59 q120 -1 187 -56 q68 -56 69 -154 q-2 -99 -73 -159 q-71 -59 -191 -61 l-192 0 l0 -208 Z" /><glyph glyph-name="" unicode="&#x4de;" d="M420 1569 q55 1 90 37 q36 35 37 87 q-1 53 -37 88 q-35 36 -90 37 q-55 -1 -90 -37 q-36 -35 -37 -88 q1 -52 37 -87 q35 -36 90 -37 l0 0 ZM830 1569 q54 1 90 37 q35 35 36 87 q-1 53 -36 88 q-36 36 -90 37 q-55 -1 -90 -37 q-36 -35 -37 -88 q1 -52 37 -87 q35 -36 90 -37 l0 0 ZM425 633 l197 0 q137 -1 212 -59 q76 -58 77 -164 q-2 -105 -78 -168 q-76 -62 -205 -64 q-134 1 -215 59 q-82 59 -92 161 l-248 0 q13 -199 162 -315 q148 -116 392 -119 q241 4 393 123 q151 119 156 308 q-1 147 -85 242 q-83 94 -230 113 l0 8 q122 29 195 119 q73 89 75 213 q-4 175 -139 280 q-135 106 -360 109 q-235 -2 -373 -115 q-139 -114 -151 -313 l241 0 q9 103 82 161 q73 58 194 59 q120 -1 187 -56 q68 -56 69 -154 q-2 -99 -73 -159 q-71 -59 -191 -61 l-192 0 l0 -208 Z" /><glyph glyph-name="" unicode="&#x498;" d="M861 758 q122 29 195 119 q73 89 75 213 q-4 175 -139 280 q-135 106 -360 109 q-235 -2 -373 -115 q-139 -114 -151 -313 l241 0 q9 103 82 161 q73 58 194 59 q120 -1 187 -56 q68 -56 69 -154 q-2 -99 -73 -159 q-71 -59 -191 -61 l-192 0 l0 -208 l197 0 q137 -1 212 -59 q76 -58 77 -164 q-2 -105 -78 -168 q-76 -62 -205 -64 q-134 1 -215 59 q-82 59 -92 161 l-248 0 q11 -175 129 -287 q119 -113 317 -140 l0 -256 l234 0 l0 259 q190 34 305 146 q115 113 118 275 q-1 147 -85 242 q-83 94 -230 113 l0 8 Z" /><glyph glyph-name="" unicode="&#x418;" d="M1101 0 l256 0 l0 1443 l-250 0 l-700 -1041 l-13 0 l0 1041 l-257 0 l0 -1443 l250 0 l701 1038 l13 0 l0 -1038 Z" /><glyph glyph-name="" unicode="&#x419;" d="M414 1842 q2 -140 93 -222 q90 -82 240 -84 q150 2 240 84 q91 82 93 222 l-156 0 q-3 -80 -51 -129 q-48 -50 -126 -51 q-78 1 -126 51 q-48 49 -51 129 l-156 0 ZM1101 0 l256 0 l0 1443 l-250 0 l-700 -1041 l-13 0 l0 1041 l-257 0 l0 -1443 l250 0 l701 1038 l13 0 l0 -1038 Z" /><glyph glyph-name="" unicode="&#x40d;" d="M676 1552 l198 0 l-231 306 l-246 0 l279 -306 ZM1101 0 l256 0 l0 1443 l-250 0 l-700 -1041 l-13 0 l0 1041 l-257 0 l0 -1443 l250 0 l701 1038 l13 0 l0 -1038 Z" /><glyph glyph-name="" unicode="&#x4e2;" d="M1101 0 l256 0 l0 1443 l-250 0 l-700 -1041 l-13 0 l0 1041 l-257 0 l0 -1443 l250 0 l701 1038 l13 0 l0 -1038 ZM1083 1760 l-670 0 l0 -129 l670 0 l0 129 Z" /><glyph glyph-name="" unicode="&#x4e4;" d="M535 1569 q55 1 90 37 q36 35 37 87 q-1 53 -37 88 q-35 36 -90 37 q-55 -1 -90 -37 q-36 -35 -37 -88 q1 -52 37 -87 q35 -36 90 -37 l0 0 ZM945 1569 q54 1 90 37 q35 35 36 87 q-1 53 -36 88 q-36 36 -90 37 q-55 -1 -90 -37 q-36 -35 -37 -88 q1 -52 37 -87 q35 -36 90 -37 l0 0 ZM1101 0 l256 0 l0 1443 l-250 0 l-700 -1041 l-13 0 l0 1041 l-257 0 l0 -1443 l250 0 l701 1038 l13 0 l0 -1038 Z" /><glyph glyph-name="" unicode="&#x48a;" d="M924 1842 q-3 -80 -51 -129 q-48 -50 -126 -51 q-78 1 -126 51 q-48 49 -51 129 l-156 0 q2 -140 93 -222 q90 -82 240 -84 q150 2 240 84 q91 82 93 222 l-156 0 ZM1357 217 l0 1226 l-250 0 l-700 -1041 l-13 0 l0 1041 l-257 0 l0 -1443 l250 0 l701 1038 l13 0 l0 -821 l0 -217 l169 0 l-79 -285 l230 0 l116 444 l0 58 l-180 0 Z" /><glyph glyph-name="" unicode="&#x41a;" d="M648 757 l618 686 l-298 0 l-565 -631 l-8 0 l0 631 l-258 0 l0 -1443 l258 0 l0 658 l8 0 l588 -658 l330 0 l-673 757 Z" /><glyph glyph-name="" unicode="&#x40c;" d="M1036 1848 l-246 0 l-231 -306 l198 0 l279 306 ZM648 757 l618 686 l-298 0 l-565 -631 l-8 0 l0 631 l-258 0 l0 -1443 l258 0 l0 658 l8 0 l588 -658 l330 0 l-673 757 Z" /><glyph glyph-name="" unicode="&#x49a;" d="M1128 217 l-480 540 l618 686 l-298 0 l-565 -631 l-8 0 l0 631 l-258 0 l0 -1443 l258 0 l0 658 l8 0 l588 -658 l5 0 l102 0 l0 -285 l235 0 l0 502 l-205 0 Z" /><glyph glyph-name="" unicode="&#x49c;" d="M935 742 l453 701 l-277 0 l-406 -625 l-29 0 l0 302 l-171 0 l0 -302 l-110 0 l0 625 l-258 0 l0 -1443 l258 0 l0 625 l110 0 l0 -309 l171 0 l0 309 l30 0 l428 -625 l306 0 l-505 742 Z" /><glyph glyph-name="" unicode="&#x49e;" d="M699 754 l639 689 l-299 0 l-561 -610 l-31 0 l0 289 l222 0 l0 189 l-222 0 l0 132 l-258 0 l0 -132 l-165 0 l0 -189 l165 0 l0 -1122 l258 0 l0 634 l31 0 l585 -634 l323 0 l-687 754 Z" /><glyph glyph-name="" unicode="&#x4a0;" d="M1194 757 l618 686 l-298 0 l-565 -631 l-8 0 l0 631 l-1 0 l-257 0 l-625 0 l0 -217 l625 0 l0 -1226 l258 0 l0 658 l8 0 l588 -658 l330 0 l-673 757 Z" /><glyph glyph-name="" unicode="&#x4c3;" d="M1298 1443 l-296 0 l-575 -622 l-11 0 l0 622 l-258 0 l0 -1443 l258 0 l0 605 l29 0 q242 -3 381 -117 q139 -114 142 -307 q-2 -171 -92 -275 q-90 -105 -248 -108 q-24 0 -43 1 q-19 1 -35 3 l0 -210 q18 -4 45 -6 q27 -2 58 -2 q262 5 417 169 q155 165 159 436 q-2 223 -144 385 q-142 161 -395 217 l608 652 Z" /><glyph glyph-name="" unicode="&#x41b;" d="M1303 0 l0 1443 l-948 0 l-47 -869 q-8 -179 -54 -267 q-45 -87 -145 -87 q-17 0 -34 2 q-18 3 -28 5 l0 -226 q15 -5 39 -8 q25 -4 55 -4 q199 0 295 144 q96 143 111 426 l39 667 l459 0 l0 -1226 l258 0 Z" /><glyph glyph-name="" unicode="&#x4c5;" d="M1303 217 l0 1226 l-948 0 l-47 -869 q-8 -179 -54 -267 q-45 -87 -145 -87 q-17 0 -34 2 q-18 3 -28 5 l0 -226 q15 -5 39 -8 q25 -4 55 -4 q199 0 295 144 q96 143 111 426 l39 667 l459 0 l0 -1009 l0 -217 l169 0 l-78 -285 l230 0 l115 444 l0 58 l-178 0 Z" /><glyph glyph-name="" unicode="&#x52e;" d="M1303 217 l0 1226 l-948 0 l-47 -869 q-8 -179 -54 -267 q-45 -87 -145 -87 q-17 0 -34 2 q-18 3 -28 5 l0 -226 q15 -5 39 -8 q25 -4 55 -4 q199 0 295 144 q96 143 111 426 l39 667 l459 0 l0 -1009 l0 -217 l203 0 l0 -285 l235 0 l0 502 l-180 0 Z" /><glyph glyph-name="" unicode="&#x512;" d="M355 1443 l-47 -869 q-8 -179 -54 -267 q-45 -87 -145 -87 q-17 0 -34 2 q-18 3 -28 5 l0 -226 q15 -5 39 -8 q25 -4 55 -4 q199 0 295 144 q96 143 111 426 l39 667 l459 0 l0 -889 l0 -337 l0 -30 q1 -75 -33 -109 q-34 -35 -115 -34 q-5 0 -17 1 q-12 0 -16 0 l0 -194 q8 -1 29 -1 q20 -1 32 -1 q190 0 284 82 q94 82 94 252 l0 34 l0 337 l0 1106 l-948 0 Z" /><glyph glyph-name="" unicode="&#x41c;" d="M1626 0 l0 1443 l-298 0 l-442 -1089 l-8 0 l-442 1089 l-299 0 l0 -1443 l233 0 l0 1024 l7 0 l417 -1012 l176 0 l417 1012 l7 0 l0 -1024 l232 0 Z" /><glyph glyph-name="" unicode="&#x4cd;" d="M1626 217 l0 1226 l-298 0 l-442 -1089 l-8 0 l-442 1089 l-299 0 l0 -1443 l233 0 l0 1024 l7 0 l417 -1012 l176 0 l417 1012 l7 0 l0 -807 l0 -217 l169 0 l-79 -285 l231 0 l115 444 l0 58 l-204 0 Z" /><glyph glyph-name="" unicode="&#x41d;" d="M1354 0 l0 1443 l-257 0 l0 -600 l-702 0 l0 600 l-258 0 l0 -1443 l258 0 l0 626 l702 0 l0 -626 l257 0 Z" /><glyph glyph-name="" unicode="&#x4c7;" d="M1097 1443 l0 -600 l-702 0 l0 600 l-258 0 l0 -1443 l258 0 l0 626 l702 0 l0 -293 l0 -333 l0 -30 q1 -75 -33 -109 q-34 -35 -116 -34 q-5 0 -17 1 q-11 0 -15 0 l0 -194 q7 -1 28 -1 q20 -1 32 -1 q190 0 284 82 q94 82 94 252 l0 34 l0 333 l0 1110 l-257 0 Z" /><glyph glyph-name="" unicode="&#x4a2;" d="M1354 217 l0 1226 l-257 0 l0 -600 l-702 0 l0 600 l-258 0 l0 -1443 l258 0 l0 626 l702 0 l0 -409 l0 -217 l202 0 l0 -285 l235 0 l0 502 l-180 0 Z" /><glyph glyph-name="" unicode="&#x4c9;" d="M1354 217 l0 1226 l-257 0 l0 -600 l-702 0 l0 600 l-258 0 l0 -1443 l258 0 l0 626 l702 0 l0 -409 l0 -217 l169 0 l-79 -285 l230 0 l115 444 l0 58 l-178 0 Z" /><glyph glyph-name="" unicode="&#x4a4;" d="M2000 1443 l-646 0 l-257 0 l0 -217 l0 -383 l-702 0 l0 600 l-258 0 l0 -1443 l258 0 l0 626 l702 0 l0 -626 l257 0 l0 1226 l646 0 l0 217 Z" /><glyph glyph-name="" unicode="&#x41e;" d="M773 1467 q-319 -4 -500 -201 q-182 -197 -185 -545 q3 -348 185 -545 q181 -196 500 -200 q318 4 500 200 q181 197 184 545 q-3 348 -184 545 q-182 197 -500 201 l0 0 ZM773 1247 q195 -3 307 -142 q112 -140 114 -384 q-2 -243 -114 -383 q-112 -139 -307 -142 q-196 3 -307 142 q-112 140 -114 383 q2 244 114 384 q111 139 307 142 l0 0 Z" /><glyph glyph-name="" unicode="&#x4e6;" d="M568 1569 q55 1 90 37 q36 35 37 87 q-1 53 -37 88 q-35 36 -90 37 q-55 -1 -90 -37 q-36 -35 -37 -88 q1 -52 37 -87 q35 -36 90 -37 l0 0 ZM978 1569 q54 1 90 37 q35 35 36 87 q-1 53 -36 88 q-36 36 -90 37 q-55 -1 -90 -37 q-36 -35 -37 -88 q1 -52 37 -87 q35 -36 90 -37 l0 0 ZM773 1467 q-319 -4 -500 -201 q-182 -197 -185 -545 q3 -348 185 -545 q181 -196 500 -200 q318 4 500 200 q181 197 184 545 q-3 348 -184 545 q-182 197 -500 201 l0 0 ZM773 1247 q195 -3 307 -142 q112 -140 114 -384 q-2 -243 -114 -383 q-112 -139 -307 -142 q-196 3 -307 142 q-112 140 -114 383 q2 244 114 384 q111 139 307 142 l0 0 Z" /><glyph glyph-name="" unicode="&#x4e8;" d="M1186 636 q-21 -209 -129 -328 q-108 -120 -286 -122 q-179 2 -288 122 q-108 119 -129 328 l832 0 ZM357 834 q26 198 135 310 q108 111 279 113 q172 -2 279 -113 q107 -112 133 -310 l-826 0 ZM771 1479 q-317 -4 -498 -204 q-181 -200 -185 -553 q3 -353 183 -553 q180 -201 500 -205 q320 4 499 205 q179 200 182 553 q-3 353 -183 553 q-180 200 -498 204 l0 0 Z" /><glyph glyph-name="" unicode="&#x4ea;" d="M979 1569 q54 1 90 37 q35 35 36 87 q-1 53 -36 88 q-36 36 -90 37 q-55 -1 -90 -37 q-36 -35 -37 -88 q1 -52 37 -87 q35 -36 90 -37 l0 0 ZM569 1569 q55 1 90 37 q36 35 37 87 q-1 53 -37 88 q-35 36 -90 37 q-55 -1 -90 -37 q-36 -35 -37 -88 q1 -52 37 -87 q35 -36 90 -37 l0 0 ZM1186 636 q-21 -209 -129 -328 q-108 -120 -286 -122 q-179 2 -288 122 q-108 119 -129 328 l832 0 ZM357 834 q26 198 135 310 q108 111 279 113 q172 -2 279 -113 q107 -112 133 -310 l-826 0 ZM771 1479 q-317 -4 -498 -204 q-181 -200 -185 -553 q3 -353 183 -553 q180 -201 500 -205 q320 4 499 205 q179 200 182 553 q-3 353 -183 553 q-180 200 -498 204 l0 0 Z" /><glyph glyph-name="" unicode="&#x472;" d="M771 186 q-175 2 -283 116 q-107 113 -132 314 q23 27 65 45 q43 17 111 18 q113 -6 214 -51 q101 -44 249 -51 q58 0 106 16 q48 16 85 46 q-20 -211 -129 -331 q-108 -120 -286 -122 l0 0 ZM771 1257 q171 -2 278 -112 q107 -110 134 -307 q-23 -28 -67 -46 q-43 -18 -112 -19 q-119 6 -219 51 q-101 45 -247 51 q-56 0 -102 -16 q-46 -15 -81 -43 q23 207 132 323 q108 116 284 118 l0 0 ZM771 1479 q-317 -4 -498 -204 q-181 -200 -185 -553 q3 -353 183 -553 q180 -201 500 -205 q320 4 499 205 q179 200 182 553 q-3 353 -183 553 q-180 200 -498 204 l0 0 Z" /><glyph glyph-name="" unicode="&#x41f;" d="M1337 0 l0 1443 l-1200 0 l0 -1443 l259 0 l0 1224 l684 0 l0 -1224 l257 0 Z" /><glyph glyph-name="" unicode="&#x524;" d="M1337 217 l0 1226 l-1200 0 l0 -1443 l259 0 l0 1224 l684 0 l0 -1007 l0 -217 l202 0 l0 -285 l235 0 l0 502 l-180 0 Z" /><glyph glyph-name="" unicode="&#x40f;" d="M616 0 l0 -285 l242 0 l0 285 l479 0 l0 1443 l-258 0 l0 -1226 l-684 0 l0 1226 l-258 0 l0 -1443 l479 0 Z" /><glyph glyph-name="" unicode="&#x420;" d="M137 1443 l0 -1443 l258 0 l0 477 l313 0 q223 3 358 134 q134 130 138 349 q-3 219 -135 350 q-132 130 -350 133 l-582 0 ZM395 1232 l256 0 q140 -1 215 -71 q75 -70 76 -201 q-1 -132 -77 -203 q-75 -71 -215 -72 l-255 0 l0 547 Z" /><glyph glyph-name="" unicode="&#x48e;" d="M388 683 l0 549 l256 0 q141 0 217 -70 q75 -70 76 -205 q0 -68 -21 -120 q-20 -53 -61 -88 l-139 212 l-137 -89 l118 -186 q-25 -3 -54 -3 l-255 0 ZM130 1443 l0 -1443 l258 0 l0 477 l272 0 q77 0 143 14 l159 -249 l170 116 l-139 209 q97 65 151 164 q53 100 54 226 q-3 221 -135 352 q-132 131 -351 134 l-582 0 Z" /><glyph glyph-name="" unicode="&#x421;" d="M759 -29 q251 2 413 127 q162 125 206 349 l-256 0 q-36 -120 -130 -186 q-94 -65 -232 -66 q-190 3 -298 142 q-108 139 -110 385 q2 244 111 384 q108 139 296 142 q135 -1 232 -74 q97 -73 131 -199 l255 0 q-36 225 -203 360 q-166 134 -415 137 q-311 -4 -489 -202 q-178 -199 -182 -548 q3 -351 181 -549 q178 -198 490 -202 l0 0 Z" /><glyph glyph-name="" unicode="&#x4aa;" d="M1381 948 q-28 236 -197 376 q-169 140 -425 143 q-311 -3 -489 -200 q-178 -197 -182 -545 q3 -330 161 -524 q159 -194 440 -219 l-49 -117 l0 -90 l55 0 q71 0 103 -14 q32 -15 31 -46 q0 -62 -111 -62 q-32 0 -65 4 q-33 4 -50 10 l0 -111 q29 -9 65 -13 q36 -4 77 -4 q108 2 170 51 q62 48 63 132 q0 75 -50 116 q-50 40 -144 40 l41 103 q231 19 377 147 q145 129 179 347 l-253 0 q-31 -131 -127 -204 q-96 -72 -241 -73 q-190 3 -298 142 q-108 139 -110 385 q2 244 111 384 q108 139 296 142 q143 -2 241 -82 q99 -80 127 -218 l254 0 Z" /><glyph glyph-name="" unicode="&#x422;" d="M754 0 l0 1225 l438 0 l0 218 l-1134 0 l0 -218 l438 0 l0 -1225 l258 0 Z" /><glyph glyph-name="" unicode="&#x4ac;" d="M1192 1225 l0 218 l-1134 0 l0 -218 l438 0 l0 -1008 l0 -217 l203 0 l0 -285 l235 0 l0 502 l-180 0 l0 1008 l438 0 Z" /><glyph glyph-name="" unicode="&#x423;" d="M329 -12 q176 -2 288 99 q111 101 205 326 l442 1030 l-271 0 l-328 -850 l-13 0 l-342 850 l-273 0 l484 -1112 q-39 -66 -92 -94 q-52 -29 -124 -28 q-33 0 -54 3 q-21 3 -31 5 l0 -215 q9 -4 39 -9 q30 -5 70 -5 l0 0 Z" /><glyph glyph-name="" unicode="&#x40e;" d="M325 1843 q2 -140 93 -222 q90 -82 240 -84 q150 2 240 84 q91 82 93 222 l-156 0 q-3 -80 -51 -129 q-48 -50 -126 -51 q-78 1 -126 51 q-48 49 -51 129 l-156 0 ZM329 -12 q176 -2 288 99 q111 101 205 326 l442 1030 l-271 0 l-328 -850 l-13 0 l-342 850 l-273 0 l484 -1112 q-39 -66 -92 -94 q-52 -29 -124 -28 q-33 0 -54 3 q-21 3 -31 5 l0 -215 q9 -4 39 -9 q30 -5 70 -5 l0 0 Z" /><glyph glyph-name="" unicode="&#x4ee;" d="M329 -12 q176 -2 288 99 q111 101 205 326 l442 1030 l-271 0 l-328 -850 l-13 0 l-342 850 l-273 0 l484 -1112 q-39 -66 -92 -94 q-52 -29 -124 -28 q-33 0 -54 3 q-21 3 -31 5 l0 -215 q9 -4 39 -9 q30 -5 70 -5 l0 0 ZM994 1761 l-670 0 l0 -129 l670 0 l0 129 Z" /><glyph glyph-name="" unicode="&#x4f0;" d="M454 1569 q55 1 90 37 q36 35 37 87 q-1 53 -37 88 q-35 36 -90 37 q-55 -1 -90 -37 q-36 -35 -37 -88 q1 -52 37 -87 q35 -36 90 -37 l0 0 ZM864 1569 q54 1 90 37 q35 35 36 87 q-1 53 -36 88 q-36 36 -90 37 q-55 -1 -90 -37 q-36 -35 -37 -88 q1 -52 37 -87 q35 -36 90 -37 l0 0 ZM329 -12 q176 -2 288 99 q111 101 205 326 l442 1030 l-271 0 l-328 -850 l-13 0 l-342 850 l-273 0 l484 -1112 q-39 -66 -92 -94 q-52 -29 -124 -28 q-33 0 -54 3 q-21 3 -31 5 l0 -215 q9 -4 39 -9 q30 -5 70 -5 l0 0 Z" /><glyph glyph-name="" unicode="&#x4f2;" d="M329 -12 q176 -2 288 99 q111 101 205 326 l442 1030 l-271 0 l-328 -850 l-13 0 l-342 850 l-273 0 l484 -1112 q-39 -66 -92 -94 q-52 -29 -124 -28 q-33 0 -54 3 q-21 3 -31 5 l0 -215 q9 -4 39 -9 q30 -5 70 -5 l0 0 ZM941 1552 l278 306 l-239 0 l-231 -306 l192 0 ZM576 1552 l279 306 l-239 0 l-231 -306 l191 0 Z" /><glyph glyph-name="" unicode="&#x424;" d="M733 339 q-185 9 -290 110 q-106 101 -108 276 q2 173 108 275 q105 101 290 110 l0 -771 ZM1379 724 q-2 -173 -107 -274 q-106 -101 -290 -111 l0 771 q184 -8 290 -110 q105 -101 107 -276 l0 0 ZM730 127 l0 -153 l254 0 l0 153 q301 11 476 168 q174 157 178 429 q-4 275 -178 432 q-175 156 -476 167 l0 146 l-254 0 l0 -146 q-301 -11 -476 -168 q-175 -157 -179 -430 q4 -274 179 -431 q175 -157 476 -167 l0 0 Z" /><glyph glyph-name="" unicode="&#x425;" d="M54 0 l281 0 l344 530 l8 0 l340 -530 l297 0 l-473 717 l0 7 l481 719 l-289 0 l-338 -542 l-8 0 l-334 542 l-305 0 l466 -713 l0 -7 l-470 -723 Z" /><glyph glyph-name="" unicode="&#x4b2;" d="M1181 217 l-330 500 l0 7 l481 719 l-289 0 l-338 -542 l-8 0 l-334 542 l-305 0 l466 -713 l0 -7 l-470 -723 l281 0 l344 530 l8 0 l340 -530 l124 0 l0 -285 l235 0 l0 502 l-205 0 Z" /><glyph glyph-name="" unicode="&#x4fe;" d="M1229 640 l0 172 l-319 0 l422 631 l-289 0 l-338 -542 l-8 0 l-334 542 l-305 0 l412 -631 l-316 0 l0 -172 l316 0 l-416 -640 l281 0 l344 530 l8 0 l340 -530 l297 0 l-422 640 l327 0 Z" /><glyph glyph-name="" unicode="&#x4fc;" d="M58 1443 l468 -716 l-472 -727 l281 0 l340 523 l17 0 l199 -312 q32 -49 56 -91 q24 -42 43 -79 q17 -35 25 -65 q7 -29 7 -59 q-1 -53 -38 -83 q-36 -30 -96 -31 q-20 0 -36 1 q-15 1 -28 4 l0 -201 q16 -3 42 -5 q27 -2 63 -2 q158 2 253 88 q95 86 97 229 q0 53 -13 105 q-14 53 -45 113 q-25 49 -55 100 q-30 50 -69 109 l-248 377 l484 722 l-290 0 l-334 -534 l-17 0 l-329 534 l-305 0 Z" /><glyph glyph-name="" unicode="&#x426;" d="M1517 -285 l0 502 l-180 0 l0 1226 l-257 0 l0 -1226 l-685 0 l0 1226 l-258 0 l0 -1443 l1146 0 l0 -285 l234 0 Z" /><glyph glyph-name="" unicode="&#x4b4;" d="M1700 217 l0 1226 l-258 0 l0 -1226 l-691 0 l0 1009 l432 0 l0 217 l-432 0 l-258 0 l-435 0 l0 -217 l435 0 l0 -1226 l1152 0 l0 -285 l235 0 l0 502 l-180 0 Z" /><glyph glyph-name="" unicode="&#x427;" d="M1274 0 l0 1443 l-258 0 l0 -593 q-39 -41 -118 -76 q-79 -35 -198 -37 q-160 1 -244 86 q-84 85 -85 236 l0 384 l-257 0 l0 -398 q1 -233 141 -380 q141 -148 410 -153 q124 2 210 34 q86 32 128 67 l13 0 l0 -613 l258 0 Z" /><glyph glyph-name="" unicode="&#x4f4;" d="M1274 0 l0 1443 l-258 0 l0 -593 q-39 -41 -118 -76 q-79 -35 -198 -37 q-160 1 -244 86 q-84 85 -85 236 l0 384 l-257 0 l0 -398 q1 -233 141 -380 q141 -148 410 -153 q124 2 210 34 q86 32 128 67 l13 0 l0 -613 l258 0 ZM507 1569 q55 1 90 37 q36 35 37 87 q-1 53 -37 88 q-35 36 -90 37 q-55 -1 -90 -37 q-36 -35 -37 -88 q1 -52 37 -87 q35 -36 90 -37 l0 0 ZM917 1569 q54 1 90 37 q35 35 36 87 q-1 53 -36 88 q-36 36 -90 37 q-55 -1 -90 -37 q-36 -35 -37 -88 q1 -52 37 -87 q35 -36 90 -37 l0 0 Z" /><glyph glyph-name="" unicode="&#x4b6;" d="M1274 217 l0 1226 l-258 0 l0 -593 q-39 -41 -118 -76 q-79 -35 -198 -37 q-160 1 -244 86 q-84 85 -85 236 l0 384 l-257 0 l0 -398 q1 -233 141 -380 q141 -148 410 -153 q124 2 210 34 q86 32 128 67 l13 0 l0 -396 l0 -217 l203 0 l0 -285 l235 0 l0 502 l-180 0 Z" /><glyph glyph-name="" unicode="&#x4cb;" d="M1016 1443 l0 -593 q-39 -41 -118 -76 q-79 -35 -198 -37 q-160 1 -244 86 q-84 85 -85 236 l0 384 l-257 0 l0 -398 q1 -233 141 -380 q141 -148 410 -153 q124 2 210 34 q86 32 128 67 l13 0 l0 -396 l-180 0 l0 -502 l235 0 l0 285 l203 0 l0 217 l0 1226 l-258 0 Z" /><glyph glyph-name="" unicode="&#x4b8;" d="M1029 1443 l0 -586 q-38 -39 -96 -69 q-58 -29 -133 -43 l0 305 l-181 0 l0 -307 q-123 22 -185 104 q-63 81 -63 212 l0 384 l-257 0 l0 -398 q1 -223 132 -368 q130 -145 373 -164 l0 -246 l181 0 l0 257 q65 12 120 35 q55 24 97 56 l12 0 l0 -615 l258 0 l0 1443 l-258 0 Z" /><glyph glyph-name="" unicode="&#x4ba;" d="M137 1443 l0 -1443 l258 0 l0 597 q49 59 131 93 q81 35 188 36 q159 -1 242 -85 q83 -85 84 -236 l0 -405 l257 0 l0 419 q-1 234 -142 381 q-140 147 -403 152 q-106 -1 -192 -30 q-87 -30 -148 -78 l-17 0 l0 599 l-258 0 Z" /><glyph glyph-name="" unicode="&#x526;" d="M1297 217 l0 202 q-1 234 -142 381 q-140 147 -403 152 q-106 -1 -192 -30 q-87 -30 -148 -78 l-17 0 l0 599 l-258 0 l0 -1443 l258 0 l0 597 q49 59 131 93 q81 35 188 36 q159 -1 242 -85 q83 -85 84 -236 l0 -188 l0 -217 l203 0 l0 -285 l234 0 l0 502 l-180 0 Z" /><glyph glyph-name="" unicode="&#x40b;" d="M1064 684 q133 -1 205 -80 q71 -80 72 -226 l0 -378 l258 0 l0 394 q-2 234 -129 372 q-127 138 -360 141 q-108 0 -196 -34 q-89 -33 -152 -95 l-8 0 l0 448 l439 0 l0 217 l-1135 0 l0 -217 l439 0 l0 -1226 l257 0 l0 504 q40 79 123 129 q83 49 187 51 l0 0 Z" /><glyph glyph-name="" unicode="&#x428;" d="M137 0 l1675 0 l0 1443 l-258 0 l0 -1226 l-451 0 l0 1226 l-257 0 l0 -1226 l-451 0 l0 1226 l-258 0 l0 -1443 Z" /><glyph glyph-name="" unicode="&#x429;" d="M1992 -285 l0 502 l-180 0 l0 1226 l-258 0 l0 -1226 l-451 0 l0 1226 l-257 0 l0 -1226 l-451 0 l0 1226 l-258 0 l0 -1443 l1620 0 l0 -285 l235 0 Z" /><glyph glyph-name="" unicode="&#x42a;" d="M966 0 q219 3 351 130 q132 126 135 340 q-4 213 -139 340 q-135 127 -358 130 l-306 0 l0 503 l-591 0 l0 -217 l334 0 l0 -1226 l574 0 ZM649 212 l0 518 l248 0 q139 -1 215 -67 q75 -67 76 -193 q-1 -125 -76 -191 q-75 -66 -214 -67 l-249 0 Z" /><glyph glyph-name="" unicode="&#x42b;" d="M1626 0 l0 1443 l-258 0 l0 -1443 l258 0 ZM137 0 l575 0 q219 3 351 130 q132 127 135 340 q-4 212 -139 340 q-135 127 -358 130 l-306 0 l0 503 l-258 0 l0 -1443 ZM395 212 l0 518 l248 0 q139 -1 215 -67 q75 -67 76 -193 q-1 -125 -76 -191 q-75 -66 -214 -67 l-249 0 Z" /><glyph glyph-name="" unicode="&#x4f8;" d="M1626 0 l0 1443 l-258 0 l0 -1443 l258 0 ZM137 0 l575 0 q219 3 351 130 q132 127 135 340 q-4 212 -139 340 q-135 127 -358 130 l-306 0 l0 503 l-258 0 l0 -1443 ZM395 212 l0 518 l248 0 q139 -1 215 -67 q75 -67 76 -193 q-1 -125 -76 -191 q-75 -66 -214 -67 l-249 0 ZM676 1569 q55 1 90 37 q36 35 37 87 q-1 53 -37 88 q-35 36 -90 37 q-55 -1 -90 -37 q-36 -35 -37 -88 q1 -52 37 -87 q35 -36 90 -37 l0 0 ZM1086 1569 q54 1 90 37 q35 35 36 87 q-1 53 -36 88 q-36 36 -90 37 q-55 -1 -90 -37 q-36 -35 -37 -88 q1 -52 37 -87 q35 -36 90 -37 l0 0 Z" /><glyph glyph-name="" unicode="&#x48c;" d="M601 212 l0 505 l251 0 q137 -1 212 -65 q75 -65 76 -188 q-1 -122 -75 -187 q-75 -64 -212 -65 l-252 0 ZM601 927 l0 218 l393 0 l0 193 l-393 0 l0 178 l-258 0 l0 -178 l-330 0 l0 -193 l330 0 l0 -1145 l578 0 q217 3 348 128 q131 125 134 335 q-4 211 -138 336 q-134 125 -355 128 l-309 0 Z" /><glyph glyph-name="" unicode="&#x462;" d="M601 212 l0 505 l251 0 q137 -1 212 -65 q75 -65 76 -188 q-1 -122 -75 -187 q-75 -64 -212 -65 l-252 0 ZM601 927 l0 218 l393 0 l0 193 l-393 0 l0 178 l-258 0 l0 -178 l-330 0 l0 -193 l330 0 l0 -1145 l578 0 q217 3 348 128 q131 125 134 335 q-4 211 -138 336 q-134 125 -355 128 l-309 0 Z" /><glyph glyph-name="" unicode="&#x42c;" d="M137 0 l575 0 q219 3 351 130 q132 127 135 340 q-4 212 -139 340 q-135 127 -358 130 l-306 0 l0 503 l-258 0 l0 -1443 ZM395 212 l0 518 l248 0 q139 -1 215 -67 q75 -67 76 -193 q-1 -125 -76 -191 q-75 -66 -214 -67 l-249 0 Z" /><glyph glyph-name="" unicode="&#x409;" d="M547 559 l39 667 l459 0 l0 -1226 l575 0 q219 3 351 130 q132 126 135 340 q-4 213 -139 340 q-135 127 -358 130 l-306 0 l0 503 l-948 0 l-47 -869 q-5 -155 -46 -253 q-41 -98 -153 -101 q-17 0 -34 2 q-18 3 -28 5 l0 -226 q14 -5 38 -8 q25 -4 56 -4 q209 3 302 153 q92 150 104 417 l0 0 ZM1303 212 l0 518 l248 0 q139 -1 215 -67 q75 -67 76 -193 q-1 -125 -76 -191 q-75 -66 -214 -67 l-249 0 Z" /><glyph glyph-name="" unicode="&#x40a;" d="M395 635 l668 0 l0 -635 l574 0 q220 3 351 120 q132 116 135 312 q-4 189 -138 302 q-135 113 -358 116 l-306 0 l0 593 l-258 0 l0 -593 l-668 0 l0 593 l-258 0 l0 -1443 l258 0 l0 635 ZM1321 212 l0 429 l257 0 q137 -1 210 -54 q73 -54 74 -154 q-1 -106 -74 -163 q-73 -57 -209 -58 l-258 0 Z" /><glyph glyph-name="" unicode="&#x42d;" d="M703 -29 q311 4 486 202 q176 198 179 549 q-3 349 -179 548 q-177 198 -486 202 q-250 -3 -418 -137 q-169 -135 -206 -360 l256 0 q34 126 133 199 q99 73 235 74 q164 -2 270 -110 q106 -108 125 -300 l-593 0 l0 -208 l596 0 q-14 -204 -121 -318 q-107 -115 -278 -117 q-139 1 -235 66 q-96 66 -133 186 l-256 0 q45 -224 209 -349 q164 -125 416 -127 l0 0 Z" /><glyph glyph-name="" unicode="&#x4ec;" d="M703 -29 q311 4 486 202 q176 198 179 549 q-3 349 -179 548 q-177 198 -486 202 q-250 -3 -418 -137 q-169 -135 -206 -360 l256 0 q34 126 133 199 q99 73 235 74 q164 -2 270 -110 q106 -108 125 -300 l-593 0 l0 -208 l596 0 q-14 -204 -121 -318 q-107 -115 -278 -117 q-139 1 -235 66 q-96 66 -133 186 l-256 0 q45 -224 209 -349 q164 -125 416 -127 l0 0 ZM499 1569 q55 1 90 37 q36 35 37 87 q-1 53 -37 88 q-35 36 -90 37 q-55 -1 -90 -37 q-36 -35 -37 -88 q1 -52 37 -87 q35 -36 90 -37 l0 0 ZM909 1569 q54 1 90 37 q35 35 36 87 q-1 53 -36 88 q-36 36 -90 37 q-55 -1 -90 -37 q-36 -35 -37 -88 q1 -52 37 -87 q35 -36 90 -37 l0 0 Z" /><glyph glyph-name="" unicode="&#x42e;" d="M1294 -36 q314 4 491 205 q177 200 180 553 q-3 353 -180 553 q-177 200 -491 204 q-284 -3 -458 -170 q-174 -167 -208 -466 l-233 0 l0 600 l-258 0 l0 -1443 l258 0 l0 626 l231 0 q27 -310 201 -484 q174 -175 467 -178 l0 0 ZM1293 1256 q190 -3 299 -144 q108 -142 110 -390 q-2 -247 -110 -389 q-108 -143 -299 -146 q-192 3 -300 146 q-108 142 -110 389 q2 248 111 390 q109 141 299 144 l0 0 Z" /><glyph glyph-name="" unicode="&#x42f;" d="M946 735 l-275 0 q-134 1 -208 65 q-73 65 -74 184 q1 119 75 183 q73 65 207 66 l275 0 l0 -498 ZM708 533 l238 0 l0 -533 l256 0 l0 1443 l-575 0 q-230 -3 -364 -127 q-134 -124 -137 -331 q2 -157 89 -266 q86 -109 232 -151 l-392 -568 l290 0 l363 533 Z" /><glyph glyph-name="" unicode="&#x494;" d="M1006 1443 l-869 0 l0 -1443 l258 0 l0 504 q40 80 127 129 q86 50 193 51 q128 -1 201 -71 q74 -70 75 -191 q-1 -122 -65 -190 q-65 -67 -180 -68 q-43 0 -76 5 q-33 4 -46 9 l0 -209 q13 -6 51 -11 q37 -6 89 -6 q227 3 355 132 q128 129 130 350 q-2 211 -131 340 q-129 129 -361 133 q-105 0 -194 -35 q-89 -34 -151 -96 l-17 0 l0 450 l611 0 l0 217 Z" /><glyph glyph-name="" unicode="&#x4a6;" d="M137 1443 l0 -1443 l259 0 l0 1224 l628 0 l0 -1224 l256 0 l0 504 q40 81 127 130 q88 49 193 50 q128 -1 201 -71 q74 -70 75 -191 q-1 -122 -65 -189 q-64 -68 -180 -69 q-37 0 -70 4 q-34 5 -52 10 l0 -209 q21 -8 60 -12 q38 -5 80 -5 q224 3 353 131 q129 128 132 351 q-3 217 -135 344 q-131 126 -357 129 q-103 0 -192 -34 q-90 -34 -154 -97 l-16 0 l0 667 l-1143 0 Z" /><glyph glyph-name="" unicode="&#x404;" d="M1378 447 l-256 0 q-36 -120 -130 -186 q-94 -65 -232 -66 q-172 2 -281 117 q-109 114 -124 318 l596 0 l0 208 l-593 0 q20 192 128 300 q108 108 273 110 q135 -1 232 -74 q97 -73 131 -199 l255 0 q-36 225 -203 360 q-166 134 -415 137 q-311 -4 -489 -202 q-178 -199 -182 -548 q3 -351 181 -549 q178 -198 490 -202 q251 2 413 127 q162 125 206 349 l0 0 Z" /><glyph glyph-name="" unicode="&#x4c0;" d="M395 0 l0 1443 l-258 0 l0 -1443 l258 0 Z" /><glyph glyph-name="" unicode="&#x406;" d="M395 0 l0 1443 l-258 0 l0 -1443 l258 0 Z" /><glyph glyph-name="" unicode="&#x407;" d="M395 0 l0 1443 l-258 0 l0 -1443 l258 0 ZM61 1569 q55 1 90 37 q36 35 37 87 q-1 53 -37 88 q-35 36 -90 37 q-55 -1 -90 -37 q-36 -35 -37 -88 q1 -52 37 -87 q35 -36 90 -37 l0 0 ZM471 1569 q54 1 90 37 q35 35 36 87 q-1 53 -36 88 q-36 36 -90 37 q-55 -1 -90 -37 q-36 -35 -37 -88 q1 -52 37 -87 q35 -36 90 -37 l0 0 Z" /><glyph glyph-name="" unicode="&#x4a8;" d="M1286 1083 q111 -3 176 -85 q65 -82 66 -213 q-1 -153 -67 -284 q-66 -130 -182 -213 q-115 88 -175 216 q-60 129 -60 271 q0 135 61 220 q60 85 181 88 l0 0 ZM1849 243 q-49 -31 -110 -49 q-60 -18 -120 -18 q-32 0 -63 4 q-31 3 -61 10 q127 103 206 259 q78 156 80 339 q-3 235 -135 372 q-133 138 -361 141 q-226 -5 -359 -153 q-132 -149 -135 -381 q1 -172 69 -318 q68 -146 195 -251 q-34 -6 -70 -9 q-37 -4 -78 -4 q-243 4 -397 157 q-154 152 -159 408 q1 189 103 325 q102 136 293 179 l0 233 q-298 -35 -476 -237 q-178 -202 -183 -496 q5 -353 224 -568 q219 -215 594 -221 q101 0 192 22 q91 22 174 65 q78 -44 163 -66 q85 -22 181 -22 q85 0 165 22 q80 23 152 69 l-84 188 Z" /><glyph glyph-name="" unicode="&#x4ae;" d="M793 0 l0 569 l506 874 l-281 0 l-349 -628 l-6 0 l-350 628 l-283 0 l506 -874 l0 -569 l257 0 Z" /><glyph glyph-name="" unicode="&#x4b0;" d="M1299 1443 l-281 0 l-349 -628 l-6 0 l-350 628 l-283 0 l445 -769 l-294 0 l0 -178 l355 0 l0 -496 l257 0 l0 496 l355 0 l0 178 l-294 0 l445 769 Z" /><glyph glyph-name="" unicode="&#x4bc;" d="M653 877 q23 177 122 278 q99 101 247 103 q159 -1 256 -101 q97 -100 110 -280 l-735 0 ZM648 679 l1014 0 q0 5 1 42 q0 37 0 53 q-3 332 -170 517 q-168 185 -467 188 q-260 -3 -427 -161 q-167 -158 -211 -435 q-77 2 -115 39 q-37 38 -37 105 q2 55 15 96 q13 41 13 43 l-213 0 q-2 -1 -17 -45 q-15 -45 -17 -122 q1 -138 93 -226 q92 -87 267 -94 q13 -336 190 -524 q177 -188 482 -191 q235 3 395 119 q159 116 202 313 l-259 0 q-37 -104 -123 -157 q-86 -54 -213 -54 q-185 3 -294 125 q-108 123 -109 332 l0 37 Z" /><glyph glyph-name="" unicode="&#x4be;" d="M1230 1569 q54 1 90 37 q35 35 36 87 q-1 53 -36 88 q-36 36 -90 37 q-55 -1 -90 -37 q-36 -35 -37 -88 q1 -52 37 -87 q35 -36 90 -37 l0 0 ZM820 1569 q55 1 90 37 q36 35 37 87 q-1 53 -37 88 q-35 36 -90 37 q-55 -1 -90 -37 q-36 -35 -37 -88 q1 -52 37 -87 q35 -36 90 -37 l0 0 ZM653 877 q23 177 122 278 q99 101 247 103 q159 -1 256 -101 q97 -100 110 -280 l-735 0 ZM648 679 l1014 0 q0 5 1 42 q0 37 0 53 q-3 332 -170 517 q-168 185 -467 188 q-260 -3 -427 -161 q-167 -158 -211 -435 q-77 2 -115 39 q-37 38 -37 105 q2 55 15 96 q13 41 13 43 l-213 0 q-2 -1 -17 -45 q-15 -45 -17 -122 q1 -138 93 -226 q92 -87 267 -94 q11 -300 155 -483 q144 -183 395 -223 l0 -258 l235 0 l0 257 q191 30 320 141 q128 112 164 283 l-259 0 q-37 -104 -123 -157 q-86 -54 -213 -54 q-185 3 -294 125 q-108 123 -109 332 l0 37 Z" /><glyph glyph-name="" unicode="&#x4d4;" d="M824 1240 l145 0 l0 -636 l-425 0 l280 636 ZM969 0 l918 0 l0 217 l-677 0 l0 406 l640 0 l0 206 l-640 0 l0 397 l677 0 l0 217 l-1223 0 l-641 -1443 l259 0 l180 404 l507 0 l0 -404 Z" /><glyph glyph-name="" unicode="&#x4d8;" d="M733 -36 q295 5 470 208 q175 203 179 548 q-4 351 -181 553 q-178 202 -487 206 q-227 -2 -387 -115 q-159 -113 -221 -317 l262 0 q43 102 127 156 q85 54 217 55 q179 -3 288 -128 q108 -125 110 -329 l0 -20 l-1020 0 q0 -3 -1 -38 q-1 -34 -1 -59 q5 -331 173 -523 q168 -193 472 -197 l0 0 ZM735 185 q-161 2 -259 106 q-98 105 -114 291 l745 0 q-22 -183 -121 -289 q-100 -106 -251 -108 l0 0 Z" /><glyph glyph-name="" unicode="&#x4da;" d="M504 1569 q55 1 90 37 q36 35 37 87 q-1 53 -37 88 q-35 36 -90 37 q-55 -1 -90 -37 q-36 -35 -37 -88 q1 -52 37 -87 q35 -36 90 -37 l0 0 ZM914 1569 q54 1 90 37 q35 35 36 87 q-1 53 -36 88 q-36 36 -90 37 q-55 -1 -90 -37 q-36 -35 -37 -88 q1 -52 37 -87 q35 -36 90 -37 l0 0 ZM733 -36 q295 5 470 208 q175 203 179 548 q-4 351 -181 553 q-178 202 -487 206 q-227 -2 -387 -115 q-159 -113 -221 -317 l262 0 q43 102 127 156 q85 54 217 55 q179 -3 288 -128 q108 -125 110 -329 l0 -20 l-1020 0 q0 -3 -1 -38 q-1 -34 -1 -59 q5 -331 173 -523 q168 -193 472 -197 l0 0 ZM735 185 q-161 2 -259 106 q-98 105 -114 291 l745 0 q-22 -183 -121 -289 q-100 -106 -251 -108 l0 0 Z" /><glyph glyph-name="" unicode="&#x4e0;" d="M607 -36 q247 3 395 127 q147 124 151 331 q-3 204 -128 315 q-125 111 -341 124 l0 18 l424 392 l0 172 l-983 0 l0 -217 l637 0 l0 -18 l-366 -336 l0 -191 l144 0 q170 0 259 -64 q89 -65 90 -196 q-2 -114 -76 -179 q-75 -65 -205 -66 q-126 1 -203 60 q-77 59 -88 162 l-247 0 q13 -199 157 -315 q144 -116 380 -119 l0 0 Z" /><glyph glyph-name="" unicode="&#x510;" d="M831 630 l0 208 l-192 0 q-120 2 -191 62 q-71 60 -73 160 q1 97 67 154 q67 56 189 57 q121 -1 194 -59 q72 -58 82 -161 l241 0 q-13 199 -151 312 q-138 114 -375 116 q-223 -3 -358 -109 q-135 -106 -139 -286 q2 -122 76 -208 q73 -87 194 -116 l0 -17 q-143 -16 -231 -107 q-88 -91 -91 -242 q5 -190 160 -308 q154 -118 396 -122 q244 3 393 119 q148 116 161 315 l-247 0 q-12 -102 -93 -160 q-81 -59 -215 -60 q-133 2 -211 64 q-77 62 -79 164 q1 106 78 165 q76 58 218 59 l197 0 Z" /><glyph glyph-name="" unicode="&#x474;" d="M838 0 l373 1065 q18 50 34 82 q17 31 33 47 q14 14 33 21 q18 7 40 7 q21 0 45 -5 q25 -6 48 -14 l71 205 q-43 24 -98 39 q-56 14 -108 14 q-57 0 -101 -13 q-45 -13 -81 -40 q-51 -38 -89 -107 q-38 -69 -70 -181 l-266 -825 l-17 0 l-363 1148 l-285 0 l504 -1443 l297 0 Z" /><glyph glyph-name="" unicode="&#x51c;" d="M964 1044 l10 0 l295 -1044 l243 0 l387 1443 l-268 0 l-250 -1093 l-8 0 l-290 1093 l-228 0 l-290 -1093 l-8 0 l-250 1093 l-268 0 l387 -1443 l243 0 l295 1044 Z" /><glyph glyph-name="" unicode="&#x402;" d="M1124 -48 q227 3 355 132 q128 129 130 350 q-2 211 -131 340 q-129 129 -361 133 q-110 0 -200 -34 q-90 -33 -155 -97 l-8 0 l0 450 l439 0 l0 217 l-1135 0 l0 -217 l439 0 l0 -1226 l257 0 l0 504 q40 80 127 129 q87 50 194 51 q127 -1 201 -71 q73 -70 74 -191 q-1 -122 -65 -190 q-65 -67 -180 -68 q-43 0 -76 5 q-33 4 -46 9 l0 -209 q14 -6 51 -11 q38 -6 90 -6 l0 0 Z" /><glyph glyph-name="" unicode="&#x405;" d="M77 406 q11 -201 160 -315 q149 -113 401 -115 q265 2 415 120 q151 118 154 326 q1 160 -99 257 q-100 97 -318 146 l-166 38 q-132 31 -191 77 q-60 46 -59 117 q2 91 75 145 q74 54 198 55 q125 -1 202 -57 q77 -57 88 -159 l246 0 q-7 193 -150 308 q-142 115 -384 118 q-240 -3 -386 -118 q-147 -116 -151 -311 q0 -154 96 -252 q97 -98 296 -143 l187 -44 q135 -31 196 -81 q61 -49 60 -126 q-2 -92 -82 -148 q-80 -56 -213 -58 q-134 1 -222 60 q-89 59 -103 160 l-250 0 Z" /><glyph glyph-name="" unicode="&#x408;" d="M45 394 q3 -195 126 -308 q124 -114 333 -117 q221 1 343 122 q122 120 124 342 l0 1010 l-257 0 l0 -1008 q0 -117 -55 -178 q-54 -62 -158 -62 q-91 1 -146 55 q-55 53 -59 144 l-251 0 Z" /><glyph glyph-name="" unicode="a" d="M501 179 q-88 1 -139 39 q-52 38 -53 105 q0 67 53 105 q53 38 155 45 l250 16 l0 -83 q-2 -101 -76 -163 q-74 -62 -190 -64 l0 0 ZM428 -12 q111 1 202 50 q91 49 138 138 l6 0 l0 -176 l239 0 l0 749 q-3 165 -123 261 q-120 96 -327 98 q-196 -3 -319 -96 q-122 -94 -130 -247 l230 0 q14 67 70 107 q55 39 141 40 q101 0 156 -46 q55 -46 56 -133 l0 -80 l-284 -17 q-207 -13 -315 -95 q-108 -81 -109 -228 q3 -148 104 -235 q101 -88 265 -90 l0 0 Z" /><glyph glyph-name="" unicode="à" d="M501 179 q-88 1 -139 39 q-52 38 -53 105 q0 67 53 105 q53 38 155 45 l250 16 l0 -83 q-2 -101 -76 -163 q-74 -62 -190 -64 l0 0 ZM428 -12 q111 1 202 50 q91 49 138 138 l6 0 l0 -176 l239 0 l0 749 q-3 165 -123 261 q-120 96 -327 98 q-196 -3 -319 -96 q-122 -94 -130 -247 l230 0 q14 67 70 107 q55 39 141 40 q101 0 156 -46 q55 -46 56 -133 l0 -80 l-284 -17 q-207 -13 -315 -95 q-108 -81 -109 -228 q3 -148 104 -235 q101 -88 265 -90 l0 0 ZM658 1258 l-217 307 l-246 0 l262 -307 l201 0 Z" /><glyph glyph-name="" unicode="á" d="M501 179 q-88 1 -139 39 q-52 38 -53 105 q0 67 53 105 q53 38 155 45 l250 16 l0 -83 q-2 -101 -76 -163 q-74 -62 -190 -64 l0 0 ZM428 -12 q111 1 202 50 q91 49 138 138 l6 0 l0 -176 l239 0 l0 749 q-3 165 -123 261 q-120 96 -327 98 q-196 -3 -319 -96 q-122 -94 -130 -247 l230 0 q14 67 70 107 q55 39 141 40 q101 0 156 -46 q55 -46 56 -133 l0 -80 l-284 -17 q-207 -13 -315 -95 q-108 -81 -109 -228 q3 -148 104 -235 q101 -88 265 -90 l0 0 ZM657 1258 l262 307 l-245 0 l-218 -307 l201 0 Z" /><glyph glyph-name="" unicode="ä" d="M501 179 q-88 1 -139 39 q-52 38 -53 105 q0 67 53 105 q53 38 155 45 l250 16 l0 -83 q-2 -101 -76 -163 q-74 -62 -190 -64 l0 0 ZM428 -12 q111 1 202 50 q91 49 138 138 l6 0 l0 -176 l239 0 l0 749 q-3 165 -123 261 q-120 96 -327 98 q-196 -3 -319 -96 q-122 -94 -130 -247 l230 0 q14 67 70 107 q55 39 141 40 q101 0 156 -46 q55 -46 56 -133 l0 -80 l-284 -17 q-207 -13 -315 -95 q-108 -81 -109 -228 q3 -148 104 -235 q101 -88 265 -90 l0 0 ZM354 1259 q55 1 90 37 q36 35 37 87 q-1 53 -37 88 q-35 36 -90 37 q-55 -1 -90 -37 q-36 -35 -37 -88 q1 -52 37 -87 q35 -36 90 -37 l0 0 ZM764 1259 q54 1 90 37 q35 35 36 87 q-1 53 -36 88 q-36 36 -90 37 q-55 -1 -90 -37 q-36 -35 -37 -88 q1 -52 37 -87 q35 -36 90 -37 l0 0 Z" /><glyph glyph-name="" unicode="&#x1df;" d="M501 179 q-88 1 -139 39 q-52 38 -53 105 q0 67 53 105 q53 38 155 45 l250 16 l0 -83 q-2 -101 -76 -163 q-74 -62 -190 -64 l0 0 ZM428 -12 q111 1 202 50 q91 49 138 138 l6 0 l0 -176 l239 0 l0 749 q-3 165 -123 261 q-120 96 -327 98 q-196 -3 -319 -96 q-122 -94 -130 -247 l230 0 q14 67 70 107 q55 39 141 40 q101 0 156 -46 q55 -46 56 -133 l0 -80 l-284 -17 q-207 -13 -315 -95 q-108 -81 -109 -228 q3 -148 104 -235 q101 -88 265 -90 l0 0 ZM358 1259 q52 1 86 35 q34 33 35 83 q-1 51 -35 84 q-34 33 -86 34 q-51 -1 -85 -34 q-34 -33 -35 -84 q1 -50 35 -83 q34 -34 85 -35 l0 0 ZM760 1259 q52 1 86 35 q33 33 34 83 q-1 51 -34 84 q-34 33 -86 34 q-52 -1 -86 -34 q-34 -33 -35 -84 q1 -50 35 -83 q34 -34 86 -35 l0 0 ZM887 1789 l-656 0 l0 -130 l656 0 l0 130 Z" /><glyph glyph-name="" unicode="å" d="M501 179 q-88 1 -139 39 q-52 38 -53 105 q0 67 53 105 q53 38 155 45 l250 16 l0 -83 q-2 -101 -76 -163 q-74 -62 -190 -64 l0 0 ZM428 -12 q111 1 202 50 q91 49 138 138 l6 0 l0 -176 l239 0 l0 749 q-3 165 -123 261 q-120 96 -327 98 q-196 -3 -319 -96 q-122 -94 -130 -247 l230 0 q14 67 70 107 q55 39 141 40 q101 0 156 -46 q55 -46 56 -133 l0 -80 l-284 -17 q-207 -13 -315 -95 q-108 -81 -109 -228 q3 -148 104 -235 q101 -88 265 -90 l0 0 ZM559 1201 q89 2 150 62 q61 59 63 148 q-2 89 -63 149 q-61 60 -150 62 q-89 -2 -150 -62 q-61 -60 -63 -149 q2 -89 63 -148 q61 -60 150 -62 l0 0 ZM559 1305 q-45 1 -76 31 q-30 30 -31 75 q1 45 31 75 q31 30 76 31 q45 -1 76 -31 q30 -30 31 -75 q-1 -45 -31 -75 q-31 -30 -76 -31 l0 0 Z" /><glyph glyph-name="" unicode="&#x1fb;" d="M501 179 q-88 1 -139 39 q-52 38 -53 105 q0 67 53 105 q53 38 155 45 l250 16 l0 -83 q-2 -101 -76 -163 q-74 -62 -190 -64 l0 0 ZM428 -12 q111 1 202 50 q91 49 138 138 l6 0 l0 -176 l239 0 l0 749 q-3 165 -123 261 q-120 96 -327 98 q-196 -3 -319 -96 q-122 -94 -130 -247 l230 0 q14 67 70 107 q55 39 141 40 q101 0 156 -46 q55 -46 56 -133 l0 -80 l-284 -17 q-207 -13 -315 -95 q-108 -81 -109 -228 q3 -148 104 -235 q101 -88 265 -90 l0 0 ZM560 1201 q91 2 150 60 q59 58 61 147 q-2 90 -61 148 q-59 59 -150 61 q-91 -2 -150 -61 q-59 -58 -61 -148 q2 -89 61 -147 q59 -58 150 -60 l0 0 ZM456 1408 q1 45 30 74 q29 29 74 30 q45 -1 74 -30 q29 -29 30 -74 q-1 -44 -30 -73 q-29 -29 -74 -30 q-45 1 -74 30 q-29 29 -30 73 l0 0 ZM478 1690 l167 0 l169 207 l-208 0 l-128 -207 Z" /><glyph glyph-name="" unicode="ã" d="M501 179 q-88 1 -139 39 q-52 38 -53 105 q0 67 53 105 q53 38 155 45 l250 16 l0 -83 q-2 -101 -76 -163 q-74 -62 -190 -64 l0 0 ZM428 -12 q111 1 202 50 q91 49 138 138 l6 0 l0 -176 l239 0 l0 749 q-3 165 -123 261 q-120 96 -327 98 q-196 -3 -319 -96 q-122 -94 -130 -247 l230 0 q14 67 70 107 q55 39 141 40 q101 0 156 -46 q55 -46 56 -133 l0 -80 l-284 -17 q-207 -13 -315 -95 q-108 -81 -109 -228 q3 -148 104 -235 q101 -88 265 -90 l0 0 ZM697 1258 q89 1 144 72 q54 70 56 194 l-141 0 q-1 -62 -17 -95 q-16 -33 -48 -33 q-50 9 -103 71 q-54 62 -155 71 q-91 -1 -145 -70 q-55 -69 -56 -194 l141 0 q1 58 18 92 q18 33 51 34 q53 -9 106 -71 q52 -62 149 -71 l0 0 Z" /><glyph glyph-name="" unicode="&#x1eb1;" d="M501 179 q-88 1 -139 39 q-52 38 -53 105 q0 67 53 105 q53 38 155 45 l250 16 l0 -83 q-2 -101 -76 -163 q-74 -62 -190 -64 l0 0 ZM428 -12 q111 1 202 50 q91 49 138 138 l6 0 l0 -176 l239 0 l0 749 q-3 165 -123 261 q-120 96 -327 98 q-196 -3 -319 -96 q-122 -94 -130 -247 l230 0 q14 67 70 107 q55 39 141 40 q101 0 156 -46 q55 -46 56 -133 l0 -80 l-284 -17 q-207 -13 -315 -95 q-108 -81 -109 -228 q3 -148 104 -235 q101 -88 265 -90 l0 0 ZM669 1579 l-174 289 l-214 0 l223 -289 l165 0 ZM898 1563 l-155 0 q-2 -84 -51 -133 q-48 -50 -133 -51 q-85 1 -133 51 q-49 49 -51 133 l-155 0 q3 -139 92 -224 q88 -85 247 -87 q159 2 248 87 q88 85 91 224 l0 0 Z" /><glyph glyph-name="" unicode="&#x1e1;" d="M501 179 q-88 1 -139 39 q-52 38 -53 105 q0 67 53 105 q53 38 155 45 l250 16 l0 -83 q-2 -101 -76 -163 q-74 -62 -190 -64 l0 0 ZM428 -12 q111 1 202 50 q91 49 138 138 l6 0 l0 -176 l239 0 l0 749 q-3 165 -123 261 q-120 96 -327 98 q-196 -3 -319 -96 q-122 -94 -130 -247 l230 0 q14 67 70 107 q55 39 141 40 q101 0 156 -46 q55 -46 56 -133 l0 -80 l-284 -17 q-207 -13 -315 -95 q-108 -81 -109 -228 q3 -148 104 -235 q101 -88 265 -90 l0 0 ZM559 1255 q59 2 98 41 q40 39 41 97 q-1 58 -41 97 q-39 39 -98 41 q-59 -2 -98 -41 q-40 -39 -41 -97 q1 -58 41 -97 q39 -39 98 -41 l0 0 ZM887 1792 l-656 0 l0 -130 l656 0 l0 130 Z" /><glyph glyph-name="" unicode="&#x1e01;" d="M501 179 q-88 1 -139 39 q-52 38 -53 105 q0 67 53 105 q53 38 155 45 l250 16 l0 -83 q-2 -101 -76 -163 q-74 -62 -190 -64 l0 0 ZM428 -12 q111 1 202 50 q91 49 138 138 l6 0 l0 -176 l239 0 l0 749 q-3 165 -123 261 q-120 96 -327 98 q-196 -3 -319 -96 q-122 -94 -130 -247 l230 0 q14 67 70 107 q55 39 141 40 q101 0 156 -46 q55 -46 56 -133 l0 -80 l-284 -17 q-207 -13 -315 -95 q-108 -81 -109 -228 q3 -148 104 -235 q101 -88 265 -90 l0 0 ZM547 -572 q89 2 150 62 q61 59 63 148 q-2 89 -63 149 q-61 60 -150 62 q-89 -2 -150 -62 q-61 -60 -63 -149 q2 -89 63 -148 q61 -60 150 -62 l0 0 ZM547 -468 q-45 1 -76 31 q-30 30 -31 75 q1 45 31 75 q31 30 76 31 q45 -1 76 -31 q30 -30 31 -75 q-1 -45 -31 -75 q-31 -30 -76 -31 l0 0 Z" /><glyph glyph-name="" unicode="â" d="M501 179 q-88 1 -139 39 q-52 38 -53 105 q0 67 53 105 q53 38 155 45 l250 16 l0 -83 q-2 -101 -76 -163 q-74 -62 -190 -64 l0 0 ZM428 -12 q111 1 202 50 q91 49 138 138 l6 0 l0 -176 l239 0 l0 749 q-3 165 -123 261 q-120 96 -327 98 q-196 -3 -319 -96 q-122 -94 -130 -247 l230 0 q14 67 70 107 q55 39 141 40 q101 0 156 -46 q55 -46 56 -133 l0 -80 l-284 -17 q-207 -13 -315 -95 q-108 -81 -109 -228 q3 -148 104 -235 q101 -88 265 -90 l0 0 ZM651 1563 l-185 0 l-270 -311 l202 0 l157 192 l7 0 l157 -192 l202 0 l-270 311 Z" /><glyph glyph-name="" unicode="&#x1ead;" d="M501 179 q-88 1 -139 39 q-52 38 -53 105 q0 67 53 105 q53 38 155 45 l250 16 l0 -83 q-2 -101 -76 -163 q-74 -62 -190 -64 l0 0 ZM428 -12 q111 1 202 50 q91 49 138 138 l6 0 l0 -176 l239 0 l0 749 q-3 165 -123 261 q-120 96 -327 98 q-196 -3 -319 -96 q-122 -94 -130 -247 l230 0 q14 67 70 107 q55 39 141 40 q101 0 156 -46 q55 -46 56 -133 l0 -80 l-284 -17 q-207 -13 -315 -95 q-108 -81 -109 -228 q3 -148 104 -235 q101 -88 265 -90 l0 0 ZM651 1563 l-185 0 l-270 -311 l202 0 l157 192 l7 0 l157 -192 l202 0 l-270 311 ZM547 -434 q59 2 98 41 q40 39 41 98 q-1 59 -41 98 q-39 40 -98 41 q-59 -1 -98 -41 q-40 -39 -41 -98 q1 -59 41 -98 q39 -39 98 -41 l0 0 Z" /><glyph glyph-name="" unicode="&#x1ea5;" d="M501 179 q-88 1 -139 39 q-52 38 -53 105 q0 67 53 105 q53 38 155 45 l250 16 l0 -83 q-2 -101 -76 -163 q-74 -62 -190 -64 l0 0 ZM428 -12 q111 1 202 50 q91 49 138 138 l6 0 l0 -176 l239 0 l0 749 q-3 165 -123 261 q-120 96 -327 98 q-196 -3 -319 -96 q-122 -94 -130 -247 l230 0 q14 67 70 107 q55 39 141 40 q101 0 156 -46 q55 -46 56 -133 l0 -80 l-284 -17 q-207 -13 -315 -95 q-108 -81 -109 -228 q3 -148 104 -235 q101 -88 265 -90 l0 0 ZM667 1534 l-216 0 l-259 -282 l200 0 l164 180 l6 0 l164 -180 l200 0 l-259 282 ZM718 1582 l179 0 l222 293 l-217 0 l-184 -293 Z" /><glyph glyph-name="" unicode="&#x1eab;" d="M501 179 q-88 1 -139 39 q-52 38 -53 105 q0 67 53 105 q53 38 155 45 l250 16 l0 -83 q-2 -101 -76 -163 q-74 -62 -190 -64 l0 0 ZM428 -12 q111 1 202 50 q91 49 138 138 l6 0 l0 -176 l239 0 l0 749 q-3 165 -123 261 q-120 96 -327 98 q-196 -3 -319 -96 q-122 -94 -130 -247 l230 0 q14 67 70 107 q55 39 141 40 q101 0 156 -46 q55 -46 56 -133 l0 -80 l-284 -17 q-207 -13 -315 -95 q-108 -81 -109 -228 q3 -148 104 -235 q101 -88 265 -90 l0 0 ZM667 1528 l-216 0 l-259 -276 l200 0 l164 175 l6 0 l164 -175 l200 0 l-259 276 ZM692 1611 q88 1 143 72 q55 70 57 194 l-142 0 q-1 -62 -17 -95 q-16 -33 -47 -33 q-51 9 -104 71 q-53 62 -154 71 q-91 -1 -146 -69 q-55 -69 -56 -195 l142 0 q1 58 18 92 q17 33 51 34 q53 -9 105 -71 q53 -62 150 -71 l0 0 Z" /><glyph glyph-name="" unicode="&#x1ea7;" d="M501 179 q-88 1 -139 39 q-52 38 -53 105 q0 67 53 105 q53 38 155 45 l250 16 l0 -83 q-2 -101 -76 -163 q-74 -62 -190 -64 l0 0 ZM428 -12 q111 1 202 50 q91 49 138 138 l6 0 l0 -176 l239 0 l0 749 q-3 165 -123 261 q-120 96 -327 98 q-196 -3 -319 -96 q-122 -94 -130 -247 l230 0 q14 67 70 107 q55 39 141 40 q101 0 156 -46 q55 -46 56 -133 l0 -80 l-284 -17 q-207 -13 -315 -95 q-108 -81 -109 -228 q3 -148 104 -235 q101 -88 265 -90 l0 0 ZM667 1534 l-216 0 l-259 -282 l200 0 l164 180 l6 0 l164 -180 l200 0 l-259 282 ZM963 1582 l-184 293 l-217 0 l221 -293 l180 0 Z" /><glyph glyph-name="" unicode="&#x1ea9;" d="M501 179 q-88 1 -139 39 q-52 38 -53 105 q0 67 53 105 q53 38 155 45 l250 16 l0 -83 q-2 -101 -76 -163 q-74 -62 -190 -64 l0 0 ZM428 -12 q111 1 202 50 q91 49 138 138 l6 0 l0 -176 l239 0 l0 749 q-3 165 -123 261 q-120 96 -327 98 q-196 -3 -319 -96 q-122 -94 -130 -247 l230 0 q14 67 70 107 q55 39 141 40 q101 0 156 -46 q55 -46 56 -133 l0 -80 l-284 -17 q-207 -13 -315 -95 q-108 -81 -109 -228 q3 -148 104 -235 q101 -88 265 -90 l0 0 ZM665 1743 q22 8 46 13 q24 4 49 4 q40 0 65 -20 q25 -19 26 -52 q0 -32 -23 -59 q-23 -27 -66 -44 l81 -86 q76 27 115 79 q40 52 40 125 q-1 83 -58 131 q-58 48 -158 49 q-32 0 -64 -6 q-32 -6 -53 -16 l0 -118 ZM667 1534 l-216 0 l-259 -282 l200 0 l164 180 l6 0 l164 -180 l200 0 l-259 282 Z" /><glyph glyph-name="" unicode="&#x103;" d="M501 179 q-88 1 -139 39 q-52 38 -53 105 q0 67 53 105 q53 38 155 45 l250 16 l0 -83 q-2 -101 -76 -163 q-74 -62 -190 -64 l0 0 ZM428 -12 q111 1 202 50 q91 49 138 138 l6 0 l0 -176 l239 0 l0 749 q-3 165 -123 261 q-120 96 -327 98 q-196 -3 -319 -96 q-122 -94 -130 -247 l230 0 q14 67 70 107 q55 39 141 40 q101 0 156 -46 q55 -46 56 -133 l0 -80 l-284 -17 q-207 -13 -315 -95 q-108 -81 -109 -228 q3 -148 104 -235 q101 -88 265 -90 l0 0 ZM213 1563 q3 -140 95 -228 q91 -87 250 -90 q159 3 251 90 q91 88 94 228 l-159 0 q-2 -81 -53 -132 q-51 -52 -133 -54 q-82 2 -133 54 q-51 51 -53 132 l-159 0 Z" /><glyph glyph-name="" unicode="&#x1eaf;" d="M501 179 q-88 1 -139 39 q-52 38 -53 105 q0 67 53 105 q53 38 155 45 l250 16 l0 -83 q-2 -101 -76 -163 q-74 -62 -190 -64 l0 0 ZM428 -12 q111 1 202 50 q91 49 138 138 l6 0 l0 -176 l239 0 l0 749 q-3 165 -123 261 q-120 96 -327 98 q-196 -3 -319 -96 q-122 -94 -130 -247 l230 0 q14 67 70 107 q55 39 141 40 q101 0 156 -46 q55 -46 56 -133 l0 -80 l-284 -17 q-207 -13 -315 -95 q-108 -81 -109 -228 q3 -148 104 -235 q101 -88 265 -90 l0 0 ZM444 1582 l180 0 l222 293 l-217 0 l-185 -293 ZM898 1563 l-155 0 q-2 -84 -51 -133 q-48 -50 -133 -51 q-85 1 -133 51 q-49 49 -51 133 l-155 0 q3 -139 92 -224 q88 -85 247 -87 q159 2 248 87 q88 85 91 224 l0 0 Z" /><glyph glyph-name="" unicode="&#x1eb5;" d="M501 179 q-88 1 -139 39 q-52 38 -53 105 q0 67 53 105 q53 38 155 45 l250 16 l0 -83 q-2 -101 -76 -163 q-74 -62 -190 -64 l0 0 ZM428 -12 q111 1 202 50 q91 49 138 138 l6 0 l0 -176 l239 0 l0 749 q-3 165 -123 261 q-120 96 -327 98 q-196 -3 -319 -96 q-122 -94 -130 -247 l230 0 q14 67 70 107 q55 39 141 40 q101 0 156 -46 q55 -46 56 -133 l0 -80 l-284 -17 q-207 -13 -315 -95 q-108 -81 -109 -228 q3 -148 104 -235 q101 -88 265 -90 l0 0 ZM898 1563 l-155 0 q-2 -84 -51 -133 q-48 -50 -133 -51 q-85 1 -133 51 q-49 49 -51 133 l-155 0 q3 -139 92 -224 q88 -85 247 -87 q159 2 248 87 q88 85 91 224 l0 0 ZM692 1611 q88 1 143 72 q55 70 57 194 l-142 0 q-1 -62 -17 -95 q-16 -33 -47 -33 q-51 9 -104 71 q-53 62 -154 71 q-91 -1 -146 -69 q-55 -68 -56 -192 l142 0 q1 56 18 89 q17 33 51 34 q53 -9 105 -71 q53 -62 150 -71 l0 0 Z" /><glyph glyph-name="" unicode="&#x1eb3;" d="M501 179 q-88 1 -139 39 q-52 38 -53 105 q0 67 53 105 q53 38 155 45 l250 16 l0 -83 q-2 -101 -76 -163 q-74 -62 -190 -64 l0 0 ZM428 -12 q111 1 202 50 q91 49 138 138 l6 0 l0 -176 l239 0 l0 749 q-3 165 -123 261 q-120 96 -327 98 q-196 -3 -319 -96 q-122 -94 -130 -247 l230 0 q14 67 70 107 q55 39 141 40 q101 0 156 -46 q55 -46 56 -133 l0 -80 l-284 -17 q-207 -13 -315 -95 q-108 -81 -109 -228 q3 -148 104 -235 q101 -88 265 -90 l0 0 ZM898 1563 l-155 0 q-2 -84 -51 -133 q-48 -50 -133 -51 q-85 1 -133 51 q-49 49 -51 133 l-155 0 q3 -139 92 -224 q88 -85 247 -87 q159 2 248 87 q88 85 91 224 l0 0 ZM390 1760 q22 8 45 13 q23 4 47 4 q40 -1 64 -20 q23 -19 24 -50 q0 -30 -21 -55 q-21 -25 -64 -44 l78 -83 q74 26 112 76 q38 49 38 119 q-1 81 -57 128 q-55 46 -153 47 q-32 0 -62 -6 q-31 -6 -51 -16 l0 -113 Z" /><glyph glyph-name="" unicode="&#x1eb7;" d="M501 179 q-88 1 -139 39 q-52 38 -53 105 q0 67 53 105 q53 38 155 45 l250 16 l0 -83 q-2 -101 -76 -163 q-74 -62 -190 -64 l0 0 ZM428 -12 q111 1 202 50 q91 49 138 138 l6 0 l0 -176 l239 0 l0 749 q-3 165 -123 261 q-120 96 -327 98 q-196 -3 -319 -96 q-122 -94 -130 -247 l230 0 q14 67 70 107 q55 39 141 40 q101 0 156 -46 q55 -46 56 -133 l0 -80 l-284 -17 q-207 -13 -315 -95 q-108 -81 -109 -228 q3 -148 104 -235 q101 -88 265 -90 l0 0 ZM547 -434 q59 2 98 41 q40 39 41 98 q-1 59 -41 98 q-39 40 -98 41 q-59 -1 -98 -41 q-40 -39 -41 -98 q1 -59 41 -98 q39 -39 98 -41 l0 0 ZM213 1563 q3 -140 95 -228 q91 -87 250 -90 q159 3 251 90 q91 88 94 228 l-159 0 q-2 -81 -53 -132 q-51 -52 -133 -54 q-82 2 -133 54 q-51 51 -53 132 l-159 0 Z" /><glyph glyph-name="" unicode="&#x203;" d="M501 179 q-88 1 -139 39 q-52 38 -53 105 q0 67 53 105 q53 38 155 45 l250 16 l0 -83 q-2 -101 -76 -163 q-74 -62 -190 -64 l0 0 ZM428 -12 q111 1 202 50 q91 49 138 138 l6 0 l0 -176 l239 0 l0 749 q-3 165 -123 261 q-120 96 -327 98 q-196 -3 -319 -96 q-122 -94 -130 -247 l230 0 q14 67 70 107 q55 39 141 40 q101 0 156 -46 q55 -46 56 -133 l0 -80 l-284 -17 q-207 -13 -315 -95 q-108 -81 -109 -228 q3 -148 104 -235 q101 -88 265 -90 l0 0 ZM214 1252 l159 0 q2 80 53 132 q51 51 133 53 q82 -2 133 -53 q51 -52 53 -132 l159 0 q-3 140 -94 228 q-92 87 -251 90 q-159 -3 -250 -90 q-92 -88 -95 -228 l0 0 Z" /><glyph glyph-name="" unicode="&#x1ce;" d="M501 179 q-88 1 -139 39 q-52 38 -53 105 q0 67 53 105 q53 38 155 45 l250 16 l0 -83 q-2 -101 -76 -163 q-74 -62 -190 -64 l0 0 ZM428 -12 q111 1 202 50 q91 49 138 138 l6 0 l0 -176 l239 0 l0 749 q-3 165 -123 261 q-120 96 -327 98 q-196 -3 -319 -96 q-122 -94 -130 -247 l230 0 q14 67 70 107 q55 39 141 40 q101 0 156 -46 q55 -46 56 -133 l0 -80 l-284 -17 q-207 -13 -315 -95 q-108 -81 -109 -228 q3 -148 104 -235 q101 -88 265 -90 l0 0 ZM651 1252 l270 311 l-202 0 l-157 -191 l-7 0 l-157 191 l-202 0 l270 -311 l185 0 Z" /><glyph glyph-name="" unicode="&#x227;" d="M501 179 q-88 1 -139 39 q-52 38 -53 105 q0 67 53 105 q53 38 155 45 l250 16 l0 -83 q-2 -101 -76 -163 q-74 -62 -190 -64 l0 0 ZM428 -12 q111 1 202 50 q91 49 138 138 l6 0 l0 -176 l239 0 l0 749 q-3 165 -123 261 q-120 96 -327 98 q-196 -3 -319 -96 q-122 -94 -130 -247 l230 0 q14 67 70 107 q55 39 141 40 q101 0 156 -46 q55 -46 56 -133 l0 -80 l-284 -17 q-207 -13 -315 -95 q-108 -81 -109 -228 q3 -148 104 -235 q101 -88 265 -90 l0 0 ZM559 1262 q60 2 99 41 q40 40 41 99 q-1 59 -41 98 q-39 39 -99 41 q-61 -2 -100 -41 q-40 -39 -41 -98 q1 -59 41 -99 q39 -39 100 -41 l0 0 Z" /><glyph glyph-name="" unicode="&#x1ea1;" d="M501 179 q-88 1 -139 39 q-52 38 -53 105 q0 67 53 105 q53 38 155 45 l250 16 l0 -83 q-2 -101 -76 -163 q-74 -62 -190 -64 l0 0 ZM428 -12 q111 1 202 50 q91 49 138 138 l6 0 l0 -176 l239 0 l0 749 q-3 165 -123 261 q-120 96 -327 98 q-196 -3 -319 -96 q-122 -94 -130 -247 l230 0 q14 67 70 107 q55 39 141 40 q101 0 156 -46 q55 -46 56 -133 l0 -80 l-284 -17 q-207 -13 -315 -95 q-108 -81 -109 -228 q3 -148 104 -235 q101 -88 265 -90 l0 0 ZM547 -434 q59 2 98 41 q40 39 41 98 q-1 59 -41 98 q-39 40 -98 41 q-59 -1 -98 -41 q-40 -39 -41 -98 q1 -59 41 -98 q39 -39 98 -41 l0 0 Z" /><glyph glyph-name="" unicode="&#x1ea3;" d="M501 179 q-88 1 -139 39 q-52 38 -53 105 q0 67 53 105 q53 38 155 45 l250 16 l0 -83 q-2 -101 -76 -163 q-74 -62 -190 -64 l0 0 ZM428 -12 q111 1 202 50 q91 49 138 138 l6 0 l0 -176 l239 0 l0 749 q-3 165 -123 261 q-120 96 -327 98 q-196 -3 -319 -96 q-122 -94 -130 -247 l230 0 q14 67 70 107 q55 39 141 40 q101 0 156 -46 q55 -46 56 -133 l0 -80 l-284 -17 q-207 -13 -315 -95 q-108 -81 -109 -228 q3 -148 104 -235 q101 -88 265 -90 l0 0 ZM421 1464 q29 13 52 17 q24 5 50 5 q43 -1 70 -22 q26 -22 27 -56 q0 -38 -22 -64 q-23 -27 -72 -46 l76 -97 q83 35 131 92 q47 58 48 127 q-1 90 -59 142 q-58 52 -157 53 q-40 0 -76 -7 q-37 -7 -68 -20 l0 -124 Z" /><glyph glyph-name="" unicode="&#x201;" d="M501 179 q-88 1 -139 39 q-52 38 -53 105 q0 67 53 105 q53 38 155 45 l250 16 l0 -83 q-2 -101 -76 -163 q-74 -62 -190 -64 l0 0 ZM428 -12 q111 1 202 50 q91 49 138 138 l6 0 l0 -176 l239 0 l0 749 q-3 165 -123 261 q-120 96 -327 98 q-196 -3 -319 -96 q-122 -94 -130 -247 l230 0 q14 67 70 107 q55 39 141 40 q101 0 156 -46 q55 -46 56 -133 l0 -80 l-284 -17 q-207 -13 -315 -95 q-108 -81 -109 -228 q3 -148 104 -235 q101 -88 265 -90 l0 0 ZM479 1258 l-192 307 l-231 0 l241 -307 l182 0 ZM830 1258 l-192 307 l-231 0 l241 -307 l182 0 Z" /><glyph glyph-name="" unicode="&#x101;" d="M501 179 q-88 1 -139 39 q-52 38 -53 105 q0 67 53 105 q53 38 155 45 l250 16 l0 -83 q-2 -101 -76 -163 q-74 -62 -190 -64 l0 0 ZM428 -12 q111 1 202 50 q91 49 138 138 l6 0 l0 -176 l239 0 l0 749 q-3 165 -123 261 q-120 96 -327 98 q-196 -3 -319 -96 q-122 -94 -130 -247 l230 0 q14 67 70 107 q55 39 141 40 q101 0 156 -46 q55 -46 56 -133 l0 -80 l-284 -17 q-207 -13 -315 -95 q-108 -81 -109 -228 q3 -148 104 -235 q101 -88 265 -90 l0 0 ZM887 1436 l-656 0 l0 -130 l656 0 l0 130 Z" /><glyph glyph-name="" unicode="&#x105;" d="M501 179 q-88 1 -139 39 q-52 38 -53 105 q0 67 53 105 q53 38 155 45 l250 16 l0 -83 q-2 -101 -76 -163 q-74 -62 -190 -64 l0 0 ZM987 -433 l0 153 q-9 -3 -27 -5 q-18 -2 -40 -2 q-55 1 -85 27 q-31 27 -31 70 q1 59 51 108 q49 49 131 76 l27 6 l0 749 q-3 165 -123 261 q-120 96 -327 98 q-196 -3 -319 -96 q-122 -94 -130 -247 l230 0 q14 67 70 107 q55 39 141 40 q101 0 156 -46 q55 -46 56 -133 l0 -80 l-284 -17 q-207 -13 -315 -95 q-108 -81 -109 -228 q3 -148 104 -235 q101 -88 265 -90 q111 1 202 50 q91 49 138 138 l6 0 l0 -174 q-79 -34 -126 -98 q-48 -64 -49 -140 q2 -96 73 -155 q72 -59 190 -61 q45 0 75 6 q30 5 50 13 l0 0 Z" /><glyph glyph-name="" unicode="b" d="M710 -12 q210 3 330 151 q121 148 123 407 q-2 260 -123 408 q-120 148 -329 151 q-117 -1 -205 -51 q-89 -51 -137 -145 l-6 0 l0 601 l-249 0 l0 -1510 l243 0 l0 186 l6 0 q49 -95 138 -146 q88 -51 209 -52 l0 0 ZM636 898 q125 -2 198 -96 q72 -94 74 -256 q-2 -162 -74 -256 q-73 -93 -198 -95 q-125 2 -198 96 q-74 95 -76 255 q2 160 76 255 q73 95 198 97 l0 0 Z" /><glyph glyph-name="" unicode="&#x1e07;" d="M968 -226 l-670 0 l0 -129 l670 0 l0 129 ZM710 -12 q210 3 330 151 q121 148 123 407 q-2 260 -123 408 q-120 148 -329 151 q-117 -1 -205 -51 q-89 -51 -137 -145 l-6 0 l0 601 l-249 0 l0 -1510 l243 0 l0 186 l6 0 q49 -95 138 -146 q88 -51 209 -52 l0 0 ZM636 898 q125 -2 198 -96 q72 -94 74 -256 q-2 -162 -74 -256 q-73 -93 -198 -95 q-125 2 -198 96 q-74 95 -76 255 q2 160 76 255 q73 95 198 97 l0 0 Z" /><glyph glyph-name="" unicode="&#x1e05;" d="M633 -434 q59 2 98 41 q40 39 41 98 q-1 59 -41 98 q-39 40 -98 41 q-59 -1 -98 -41 q-40 -39 -41 -98 q1 -59 41 -98 q39 -39 98 -41 l0 0 ZM710 -12 q210 3 330 151 q121 148 123 407 q-2 260 -123 408 q-120 148 -329 151 q-117 -1 -205 -51 q-89 -51 -137 -145 l-6 0 l0 601 l-249 0 l0 -1510 l243 0 l0 186 l6 0 q49 -95 138 -146 q88 -51 209 -52 l0 0 ZM636 898 q125 -2 198 -96 q72 -94 74 -256 q-2 -162 -74 -256 q-73 -93 -198 -95 q-125 2 -198 96 q-74 95 -76 255 q2 160 76 255 q73 95 198 97 l0 0 Z" /><glyph glyph-name="" unicode="&#x1e03;" d="M239 1636 q59 2 98 41 q40 39 41 98 q-1 59 -41 98 q-39 40 -98 41 q-59 -1 -98 -41 q-40 -39 -41 -98 q1 -59 41 -98 q39 -39 98 -41 l0 0 ZM710 -12 q210 3 330 151 q121 148 123 407 q-2 260 -123 408 q-120 148 -329 151 q-117 -1 -205 -51 q-89 -51 -137 -145 l-6 0 l0 601 l-249 0 l0 -1510 l243 0 l0 186 l6 0 q49 -95 138 -146 q88 -51 209 -52 l0 0 ZM636 898 q125 -2 198 -96 q72 -94 74 -256 q-2 -162 -74 -256 q-73 -93 -198 -95 q-125 2 -198 96 q-74 95 -76 255 q2 160 76 255 q73 95 198 97 l0 0 Z" /><glyph glyph-name="" unicode="c" d="M1063 706 q-14 173 -140 285 q-126 113 -342 117 q-240 -3 -379 -152 q-139 -149 -142 -409 q3 -264 143 -412 q139 -149 380 -151 q207 2 335 108 q128 106 146 288 l-235 0 q-18 -93 -81 -143 q-63 -50 -163 -50 q-125 1 -197 95 q-73 94 -75 265 q2 167 74 262 q72 94 197 96 q105 -2 168 -56 q62 -55 76 -143 l235 0 Z" /><glyph glyph-name="" unicode="&#x107;" d="M1063 706 q-14 173 -140 285 q-126 113 -342 117 q-240 -3 -379 -152 q-139 -149 -142 -409 q3 -264 143 -412 q139 -149 380 -151 q207 2 335 108 q128 106 146 288 l-235 0 q-18 -93 -81 -143 q-63 -50 -163 -50 q-125 1 -197 95 q-73 94 -75 265 q2 167 74 262 q72 94 197 96 q105 -2 168 -56 q62 -55 76 -143 l235 0 ZM671 1258 l262 307 l-245 0 l-218 -307 l201 0 Z" /><glyph glyph-name="" unicode="&#x10d;" d="M665 1252 l270 311 l-202 0 l-157 -191 l-7 0 l-157 191 l-202 0 l270 -311 l185 0 ZM1063 706 q-14 173 -140 285 q-126 113 -342 117 q-240 -3 -379 -152 q-139 -149 -142 -409 q3 -264 143 -412 q139 -149 380 -151 q207 2 335 108 q128 106 146 288 l-235 0 q-18 -93 -81 -143 q-63 -50 -163 -50 q-125 1 -197 95 q-73 94 -75 265 q2 167 74 262 q72 94 197 96 q105 -2 168 -56 q62 -55 76 -143 l235 0 Z" /><glyph glyph-name="" unicode="&#x109;" d="M665 1563 l-185 0 l-270 -311 l202 0 l157 192 l7 0 l157 -192 l202 0 l-270 311 ZM1063 706 q-14 173 -140 285 q-126 113 -342 117 q-240 -3 -379 -152 q-139 -149 -142 -409 q3 -264 143 -412 q139 -149 380 -151 q207 2 335 108 q128 106 146 288 l-235 0 q-18 -93 -81 -143 q-63 -50 -163 -50 q-125 1 -197 95 q-73 94 -75 265 q2 167 74 262 q72 94 197 96 q105 -2 168 -56 q62 -55 76 -143 l235 0 Z" /><glyph glyph-name="" unicode="&#x10b;" d="M1063 706 q-14 173 -140 285 q-126 113 -342 117 q-240 -3 -379 -152 q-139 -149 -142 -409 q3 -264 143 -412 q139 -149 380 -151 q207 2 335 108 q128 106 146 288 l-235 0 q-18 -93 -81 -143 q-63 -50 -163 -50 q-125 1 -197 95 q-73 94 -75 265 q2 167 74 262 q72 94 197 96 q105 -2 168 -56 q62 -55 76 -143 l235 0 ZM573 1262 q60 2 99 41 q40 40 41 99 q-1 59 -41 98 q-39 39 -99 41 q-61 -2 -100 -41 q-40 -39 -41 -98 q1 -59 41 -99 q39 -39 100 -41 l0 0 Z" /><glyph glyph-name="" unicode="ç" d="M829 380 q-18 -93 -81 -143 q-63 -50 -163 -50 q-125 1 -197 95 q-73 94 -75 265 q2 167 74 262 q72 94 197 96 q105 -2 168 -56 q62 -55 76 -143 l235 0 q-14 173 -140 285 q-126 113 -342 117 q-240 -3 -379 -152 q-139 -149 -142 -409 q2 -245 123 -391 q121 -145 333 -169 l-53 -125 l0 -90 l55 0 q71 0 103 -14 q32 -15 31 -46 q0 -62 -111 -62 q-32 0 -65 4 q-33 4 -50 10 l0 -111 q29 -9 65 -13 q36 -4 77 -4 q108 2 170 51 q62 48 63 132 q0 75 -50 116 q-50 40 -144 40 l45 112 q178 21 287 124 q109 104 125 269 l-235 0 Z" /><glyph glyph-name="" unicode="&#x1e09;" d="M933 1565 l-245 0 l-218 -307 l201 0 l262 307 ZM829 380 q-18 -93 -81 -143 q-63 -50 -163 -50 q-125 1 -197 95 q-73 94 -75 265 q2 167 74 262 q72 94 197 96 q105 -2 168 -56 q62 -55 76 -143 l235 0 q-14 173 -140 285 q-126 113 -342 117 q-240 -3 -379 -152 q-139 -149 -142 -409 q2 -245 123 -391 q121 -145 333 -169 l-53 -125 l0 -90 l55 0 q71 0 103 -14 q32 -15 31 -46 q0 -62 -111 -62 q-32 0 -65 4 q-33 4 -50 10 l0 -111 q29 -9 65 -13 q36 -4 77 -4 q108 2 170 51 q62 48 63 132 q0 75 -50 116 q-50 40 -144 40 l45 112 q178 21 287 124 q109 104 125 269 l-235 0 Z" /><glyph glyph-name="" unicode="d" d="M515 -12 q121 1 210 53 q90 53 135 145 l5 0 l0 -186 l244 0 l0 1510 l-249 0 l0 -601 l-6 0 q-45 92 -133 143 q-88 52 -207 53 q-206 -3 -329 -152 q-122 -149 -125 -406 q3 -258 125 -407 q122 -149 330 -152 l0 0 ZM588 898 q125 -2 198 -97 q73 -95 75 -255 q-2 -161 -75 -255 q-73 -94 -198 -96 q-125 2 -198 95 q-73 93 -75 256 q2 162 75 256 q73 94 198 96 l0 0 Z" /><glyph glyph-name="" unicode="&#x1e0b;" d="M988 1636 q59 2 98 41 q40 39 41 98 q-1 59 -41 98 q-39 40 -98 41 q-59 -1 -98 -41 q-40 -39 -41 -98 q1 -59 41 -98 q39 -39 98 -41 l0 0 ZM515 -12 q121 1 210 53 q90 53 135 145 l5 0 l0 -186 l244 0 l0 1510 l-249 0 l0 -601 l-6 0 q-45 92 -133 143 q-88 52 -207 53 q-206 -3 -329 -152 q-122 -149 -125 -406 q3 -258 125 -407 q122 -149 330 -152 l0 0 ZM588 898 q125 -2 198 -97 q73 -95 75 -255 q-2 -161 -75 -255 q-73 -94 -198 -96 q-125 2 -198 95 q-73 93 -75 256 q2 162 75 256 q73 94 198 96 l0 0 Z" /><glyph glyph-name="" unicode="&#x1e13;" d="M515 -12 q121 1 210 53 q90 53 135 145 l5 0 l0 -186 l244 0 l0 1510 l-249 0 l0 -601 l-6 0 q-45 92 -133 143 q-88 52 -207 53 q-206 -3 -329 -152 q-122 -149 -125 -406 q3 -258 125 -407 q122 -149 330 -152 l0 0 ZM588 898 q125 -2 198 -97 q73 -95 75 -255 q-2 -161 -75 -255 q-73 -94 -198 -96 q-125 2 -198 95 q-73 93 -75 256 q2 162 75 256 q73 94 198 96 l0 0 ZM472 -162 l-281 -310 l203 0 l174 198 l4 0 l174 -198 l203 0 l-281 310 l-196 0 Z" /><glyph glyph-name="" unicode="&#x1e11;" d="M550 -515 l146 354 l-219 0 l-110 -354 l183 0 ZM515 -12 q121 1 210 53 q90 53 135 145 l5 0 l0 -186 l244 0 l0 1510 l-249 0 l0 -601 l-6 0 q-45 92 -133 143 q-88 52 -207 53 q-206 -3 -329 -152 q-122 -149 -125 -406 q3 -258 125 -407 q122 -149 330 -152 l0 0 ZM588 898 q125 -2 198 -97 q73 -95 75 -255 q-2 -161 -75 -255 q-73 -94 -198 -96 q-125 2 -198 95 q-73 93 -75 256 q2 162 75 256 q73 94 198 96 l0 0 Z" /><glyph glyph-name="" unicode="&#x1e0f;" d="M905 -226 l-670 0 l0 -129 l670 0 l0 129 ZM515 -12 q121 1 210 53 q90 53 135 145 l5 0 l0 -186 l244 0 l0 1510 l-249 0 l0 -601 l-6 0 q-45 92 -133 143 q-88 52 -207 53 q-206 -3 -329 -152 q-122 -149 -125 -406 q3 -258 125 -407 q122 -149 330 -152 l0 0 ZM588 898 q125 -2 198 -97 q73 -95 75 -255 q-2 -161 -75 -255 q-73 -94 -198 -96 q-125 2 -198 95 q-73 93 -75 256 q2 162 75 256 q73 94 198 96 l0 0 Z" /><glyph glyph-name="" unicode="&#x10f;" d="M1260 1507 l0 -498 l153 0 l36 498 l-189 0 ZM515 -12 q121 1 210 53 q90 53 135 145 l5 0 l0 -186 l244 0 l0 1510 l-249 0 l0 -601 l-6 0 q-45 92 -133 143 q-88 52 -207 53 q-206 -3 -329 -152 q-122 -149 -125 -406 q3 -258 125 -407 q122 -149 330 -152 l0 0 ZM588 898 q125 -2 198 -97 q73 -95 75 -255 q-2 -161 -75 -255 q-73 -94 -198 -96 q-125 2 -198 95 q-73 93 -75 256 q2 162 75 256 q73 94 198 96 l0 0 Z" /><glyph glyph-name="" unicode="&#x1e0d;" d="M570 -434 q59 2 98 41 q40 39 41 98 q-1 59 -41 98 q-39 40 -98 41 q-59 -1 -98 -41 q-40 -39 -41 -98 q1 -59 41 -98 q39 -39 98 -41 l0 0 ZM515 -12 q121 1 210 53 q90 53 135 145 l5 0 l0 -186 l244 0 l0 1510 l-249 0 l0 -601 l-6 0 q-45 92 -133 143 q-88 52 -207 53 q-206 -3 -329 -152 q-122 -149 -125 -406 q3 -258 125 -407 q122 -149 330 -152 l0 0 ZM588 898 q125 -2 198 -97 q73 -95 75 -255 q-2 -161 -75 -255 q-73 -94 -198 -96 q-125 2 -198 95 q-73 93 -75 256 q2 162 75 256 q73 94 198 96 l0 0 Z" /><glyph glyph-name="" unicode="&#x111;" d="M588 195 q-125 2 -198 95 q-73 93 -75 256 q2 162 75 256 q73 94 198 96 q125 -2 198 -97 q73 -95 75 -255 q-2 -161 -75 -255 q-73 -94 -198 -96 l0 0 ZM1222 1398 l-113 0 l0 112 l-249 0 l0 -112 l-227 0 l0 -141 l227 0 l0 -348 l-6 0 q-45 92 -133 143 q-88 52 -207 53 q-206 -3 -329 -152 q-122 -149 -125 -406 q3 -258 125 -407 q122 -149 330 -152 q121 1 210 53 q90 53 135 145 l5 0 l0 -186 l244 0 l0 1257 l113 0 l0 141 Z" /><glyph glyph-name="" unicode="e" d="M574 914 q113 -2 181 -72 q69 -70 74 -190 l-518 0 q10 119 81 190 q71 70 182 72 l0 0 ZM830 325 q-23 -68 -87 -107 q-64 -39 -155 -40 q-127 2 -202 81 q-75 78 -77 212 l0 15 l765 0 l0 82 q-3 251 -135 394 q-133 143 -365 146 q-238 -3 -374 -154 q-137 -151 -140 -412 q2 -261 140 -408 q138 -147 383 -150 q194 2 324 95 q130 92 157 246 l-234 0 Z" /><glyph glyph-name="" unicode="è" d="M672 1258 l-217 307 l-246 0 l262 -307 l201 0 ZM574 914 q113 -2 181 -72 q69 -70 74 -190 l-518 0 q10 119 81 190 q71 70 182 72 l0 0 ZM830 325 q-23 -68 -87 -107 q-64 -39 -155 -40 q-127 2 -202 81 q-75 78 -77 212 l0 15 l765 0 l0 82 q-3 251 -135 394 q-133 143 -365 146 q-238 -3 -374 -154 q-137 -151 -140 -412 q2 -261 140 -408 q138 -147 383 -150 q194 2 324 95 q130 92 157 246 l-234 0 Z" /><glyph glyph-name="" unicode="&#x205;" d="M574 914 q113 -2 181 -72 q69 -70 74 -190 l-518 0 q10 119 81 190 q71 70 182 72 l0 0 ZM830 325 q-23 -68 -87 -107 q-64 -39 -155 -40 q-127 2 -202 81 q-75 78 -77 212 l0 15 l765 0 l0 82 q-3 251 -135 394 q-133 143 -365 146 q-238 -3 -374 -154 q-137 -151 -140 -412 q2 -261 140 -408 q138 -147 383 -150 q194 2 324 95 q130 92 157 246 l-234 0 ZM493 1258 l-192 307 l-231 0 l241 -307 l182 0 ZM844 1258 l-192 307 l-231 0 l241 -307 l182 0 Z" /><glyph glyph-name="" unicode="é" d="M671 1258 l262 307 l-245 0 l-218 -307 l201 0 ZM574 914 q113 -2 181 -72 q69 -70 74 -190 l-518 0 q10 119 81 190 q71 70 182 72 l0 0 ZM830 325 q-23 -68 -87 -107 q-64 -39 -155 -40 q-127 2 -202 81 q-75 78 -77 212 l0 15 l765 0 l0 82 q-3 251 -135 394 q-133 143 -365 146 q-238 -3 -374 -154 q-137 -151 -140 -412 q2 -261 140 -408 q138 -147 383 -150 q194 2 324 95 q130 92 157 246 l-234 0 Z" /><glyph glyph-name="" unicode="ê" d="M665 1563 l-185 0 l-270 -311 l202 0 l157 192 l7 0 l157 -192 l202 0 l-270 311 ZM574 914 q113 -2 181 -72 q69 -70 74 -190 l-518 0 q10 119 81 190 q71 70 182 72 l0 0 ZM830 325 q-23 -68 -87 -107 q-64 -39 -155 -40 q-127 2 -202 81 q-75 78 -77 212 l0 15 l765 0 l0 82 q-3 251 -135 394 q-133 143 -365 146 q-238 -3 -374 -154 q-137 -151 -140 -412 q2 -261 140 -408 q138 -147 383 -150 q194 2 324 95 q130 92 157 246 l-234 0 Z" /><glyph glyph-name="" unicode="&#x1ec3;" d="M679 1743 q22 8 46 13 q24 4 49 4 q40 0 65 -20 q25 -19 26 -52 q0 -32 -23 -59 q-23 -27 -66 -44 l81 -86 q76 27 115 79 q40 52 40 125 q-1 83 -58 131 q-58 48 -158 49 q-32 0 -64 -6 q-32 -6 -53 -16 l0 -118 ZM681 1534 l-216 0 l-259 -282 l200 0 l164 180 l6 0 l164 -180 l200 0 l-259 282 ZM574 914 q113 -2 181 -72 q69 -70 74 -190 l-518 0 q10 119 81 190 q71 70 182 72 l0 0 ZM830 325 q-23 -68 -87 -107 q-64 -39 -155 -40 q-127 2 -202 81 q-75 78 -77 212 l0 15 l765 0 l0 82 q-3 251 -135 394 q-133 143 -365 146 q-238 -3 -374 -154 q-137 -151 -140 -412 q2 -261 140 -408 q138 -147 383 -150 q194 2 324 95 q130 92 157 246 l-234 0 Z" /><glyph glyph-name="" unicode="&#x1ec1;" d="M681 1534 l-216 0 l-259 -282 l200 0 l164 180 l6 0 l164 -180 l200 0 l-259 282 ZM977 1582 l-184 293 l-217 0 l221 -293 l180 0 ZM574 914 q113 -2 181 -72 q69 -70 74 -190 l-518 0 q10 119 81 190 q71 70 182 72 l0 0 ZM830 325 q-23 -68 -87 -107 q-64 -39 -155 -40 q-127 2 -202 81 q-75 78 -77 212 l0 15 l765 0 l0 82 q-3 251 -135 394 q-133 143 -365 146 q-238 -3 -374 -154 q-137 -151 -140 -412 q2 -261 140 -408 q138 -147 383 -150 q194 2 324 95 q130 92 157 246 l-234 0 Z" /><glyph glyph-name="" unicode="&#x1ec5;" d="M574 914 q113 -2 181 -72 q69 -70 74 -190 l-518 0 q10 119 81 190 q71 70 182 72 l0 0 ZM830 325 q-23 -68 -87 -107 q-64 -39 -155 -40 q-127 2 -202 81 q-75 78 -77 212 l0 15 l765 0 l0 82 q-3 251 -135 394 q-133 143 -365 146 q-238 -3 -374 -154 q-137 -151 -140 -412 q2 -261 140 -408 q138 -147 383 -150 q194 2 324 95 q130 92 157 246 l-234 0 ZM681 1528 l-216 0 l-259 -276 l200 0 l164 175 l6 0 l164 -175 l200 0 l-259 276 ZM706 1611 q88 1 143 72 q55 70 57 194 l-142 0 q-1 -62 -17 -95 q-16 -33 -47 -33 q-51 9 -104 71 q-53 62 -154 71 q-91 -1 -146 -69 q-55 -69 -56 -195 l142 0 q1 58 18 92 q17 33 51 34 q53 -9 105 -71 q53 -62 150 -71 l0 0 Z" /><glyph glyph-name="" unicode="&#x1ec7;" d="M665 1563 l-185 0 l-270 -311 l202 0 l157 192 l7 0 l157 -192 l202 0 l-270 311 ZM574 914 q113 -2 181 -72 q69 -70 74 -190 l-518 0 q10 119 81 190 q71 70 182 72 l0 0 ZM830 325 q-23 -68 -87 -107 q-64 -39 -155 -40 q-127 2 -202 81 q-75 78 -77 212 l0 15 l765 0 l0 82 q-3 251 -135 394 q-133 143 -365 146 q-238 -3 -374 -154 q-137 -151 -140 -412 q2 -261 140 -408 q138 -147 383 -150 q194 2 324 95 q130 92 157 246 l-234 0 ZM579 -434 q59 2 98 41 q40 39 41 98 q-1 59 -41 98 q-39 40 -98 41 q-59 -1 -98 -41 q-40 -39 -41 -98 q1 -59 41 -98 q39 -39 98 -41 l0 0 Z" /><glyph glyph-name="" unicode="&#x1ebf;" d="M681 1534 l-216 0 l-259 -282 l200 0 l164 180 l6 0 l164 -180 l200 0 l-259 282 ZM732 1582 l179 0 l222 293 l-217 0 l-184 -293 ZM574 914 q113 -2 181 -72 q69 -70 74 -190 l-518 0 q10 119 81 190 q71 70 182 72 l0 0 ZM830 325 q-23 -68 -87 -107 q-64 -39 -155 -40 q-127 2 -202 81 q-75 78 -77 212 l0 15 l765 0 l0 82 q-3 251 -135 394 q-133 143 -365 146 q-238 -3 -374 -154 q-137 -151 -140 -412 q2 -261 140 -408 q138 -147 383 -150 q194 2 324 95 q130 92 157 246 l-234 0 Z" /><glyph glyph-name="" unicode="ë" d="M574 914 q113 -2 181 -72 q69 -70 74 -190 l-518 0 q10 119 81 190 q71 70 182 72 l0 0 ZM830 325 q-23 -68 -87 -107 q-64 -39 -155 -40 q-127 2 -202 81 q-75 78 -77 212 l0 15 l765 0 l0 82 q-3 251 -135 394 q-133 143 -365 146 q-238 -3 -374 -154 q-137 -151 -140 -412 q2 -261 140 -408 q138 -147 383 -150 q194 2 324 95 q130 92 157 246 l-234 0 ZM368 1259 q55 1 90 37 q36 35 37 87 q-1 53 -37 88 q-35 36 -90 37 q-55 -1 -90 -37 q-36 -35 -37 -88 q1 -52 37 -87 q35 -36 90 -37 l0 0 ZM778 1259 q54 1 90 37 q35 35 36 87 q-1 53 -36 88 q-36 36 -90 37 q-55 -1 -90 -37 q-36 -35 -37 -88 q1 -52 37 -87 q35 -36 90 -37 l0 0 Z" /><glyph glyph-name="" unicode="&#x1eb9;" d="M579 -434 q59 2 98 41 q40 39 41 98 q-1 59 -41 98 q-39 40 -98 41 q-59 -1 -98 -41 q-40 -39 -41 -98 q1 -59 41 -98 q39 -39 98 -41 l0 0 ZM574 914 q113 -2 181 -72 q69 -70 74 -190 l-518 0 q10 119 81 190 q71 70 182 72 l0 0 ZM830 325 q-23 -68 -87 -107 q-64 -39 -155 -40 q-127 2 -202 81 q-75 78 -77 212 l0 15 l765 0 l0 82 q-3 251 -135 394 q-133 143 -365 146 q-238 -3 -374 -154 q-137 -151 -140 -412 q2 -261 140 -408 q138 -147 383 -150 q194 2 324 95 q130 92 157 246 l-234 0 Z" /><glyph glyph-name="" unicode="&#x207;" d="M574 914 q113 -2 181 -72 q69 -70 74 -190 l-518 0 q10 119 81 190 q71 70 182 72 l0 0 ZM830 325 q-23 -68 -87 -107 q-64 -39 -155 -40 q-127 2 -202 81 q-75 78 -77 212 l0 15 l765 0 l0 82 q-3 251 -135 394 q-133 143 -365 146 q-238 -3 -374 -154 q-137 -151 -140 -412 q2 -261 140 -408 q138 -147 383 -150 q194 2 324 95 q130 92 157 246 l-234 0 ZM228 1252 l159 0 q2 80 53 132 q51 51 133 53 q82 -2 133 -53 q51 -52 53 -132 l159 0 q-3 140 -94 228 q-92 87 -251 90 q-159 -3 -250 -90 q-92 -88 -95 -228 l0 0 Z" /><glyph glyph-name="" unicode="&#x1ebb;" d="M574 914 q113 -2 181 -72 q69 -70 74 -190 l-518 0 q10 119 81 190 q71 70 182 72 l0 0 ZM830 325 q-23 -68 -87 -107 q-64 -39 -155 -40 q-127 2 -202 81 q-75 78 -77 212 l0 15 l765 0 l0 82 q-3 251 -135 394 q-133 143 -365 146 q-238 -3 -374 -154 q-137 -151 -140 -412 q2 -261 140 -408 q138 -147 383 -150 q194 2 324 95 q130 92 157 246 l-234 0 ZM435 1464 q29 13 52 17 q24 5 50 5 q43 -1 70 -22 q26 -22 27 -56 q0 -38 -22 -64 q-23 -27 -72 -46 l76 -97 q83 35 131 92 q47 58 48 127 q-1 90 -59 142 q-58 52 -157 53 q-40 0 -76 -7 q-37 -7 -68 -20 l0 -124 Z" /><glyph glyph-name="" unicode="&#x11b;" d="M665 1252 l270 311 l-202 0 l-157 -191 l-7 0 l-157 191 l-202 0 l270 -311 l185 0 ZM574 914 q113 -2 181 -72 q69 -70 74 -190 l-518 0 q10 119 81 190 q71 70 182 72 l0 0 ZM830 325 q-23 -68 -87 -107 q-64 -39 -155 -40 q-127 2 -202 81 q-75 78 -77 212 l0 15 l765 0 l0 82 q-3 251 -135 394 q-133 143 -365 146 q-238 -3 -374 -154 q-137 -151 -140 -412 q2 -261 140 -408 q138 -147 383 -150 q194 2 324 95 q130 92 157 246 l-234 0 Z" /><glyph glyph-name="" unicode="&#x113;" d="M574 914 q113 -2 181 -72 q69 -70 74 -190 l-518 0 q10 119 81 190 q71 70 182 72 l0 0 ZM830 325 q-23 -68 -87 -107 q-64 -39 -155 -40 q-127 2 -202 81 q-75 78 -77 212 l0 15 l765 0 l0 82 q-3 251 -135 394 q-133 143 -365 146 q-238 -3 -374 -154 q-137 -151 -140 -412 q2 -261 140 -408 q138 -147 383 -150 q194 2 324 95 q130 92 157 246 l-234 0 ZM901 1436 l-656 0 l0 -130 l656 0 l0 130 Z" /><glyph glyph-name="" unicode="&#x1e15;" d="M574 914 q113 -2 181 -72 q69 -70 74 -190 l-518 0 q10 119 81 190 q71 70 182 72 l0 0 ZM830 325 q-23 -68 -87 -107 q-64 -39 -155 -40 q-127 2 -202 81 q-75 78 -77 212 l0 15 l765 0 l0 82 q-3 251 -135 394 q-133 143 -365 146 q-238 -3 -374 -154 q-137 -151 -140 -412 q2 -261 140 -408 q138 -147 383 -150 q194 2 324 95 q130 92 157 246 l-234 0 ZM667 1609 l-164 266 l-231 0 l210 -266 l185 0 ZM901 1436 l-656 0 l0 -130 l656 0 l0 130 Z" /><glyph glyph-name="" unicode="&#x1e17;" d="M574 914 q113 -2 181 -72 q69 -70 74 -190 l-518 0 q10 119 81 190 q71 70 182 72 l0 0 ZM830 325 q-23 -68 -87 -107 q-64 -39 -155 -40 q-127 2 -202 81 q-75 78 -77 212 l0 15 l765 0 l0 82 q-3 251 -135 394 q-133 143 -365 146 q-238 -3 -374 -154 q-137 -151 -140 -412 q2 -261 140 -408 q138 -147 383 -150 q194 2 324 95 q130 92 157 246 l-234 0 ZM477 1611 l193 0 l211 264 l-230 0 l-174 -264 ZM901 1436 l-656 0 l0 -130 l656 0 l0 130 Z" /><glyph glyph-name="" unicode="&#x1ebd;" d="M574 914 q113 -2 181 -72 q69 -70 74 -190 l-518 0 q10 119 81 190 q71 70 182 72 l0 0 ZM830 325 q-23 -68 -87 -107 q-64 -39 -155 -40 q-127 2 -202 81 q-75 78 -77 212 l0 15 l765 0 l0 82 q-3 251 -135 394 q-133 143 -365 146 q-238 -3 -374 -154 q-137 -151 -140 -412 q2 -261 140 -408 q138 -147 383 -150 q194 2 324 95 q130 92 157 246 l-234 0 ZM711 1258 q89 1 144 72 q54 70 56 194 l-141 0 q-1 -62 -17 -95 q-16 -33 -48 -33 q-50 9 -103 71 q-54 62 -155 71 q-91 -1 -145 -70 q-55 -69 -56 -194 l141 0 q1 58 18 92 q18 33 51 34 q53 -9 106 -71 q52 -62 149 -71 l0 0 Z" /><glyph glyph-name="" unicode="&#x1e19;" d="M574 914 q113 -2 181 -72 q69 -70 74 -190 l-518 0 q10 119 81 190 q71 70 182 72 l0 0 ZM830 325 q-23 -68 -87 -107 q-64 -39 -155 -40 q-127 2 -202 81 q-75 78 -77 212 l0 15 l765 0 l0 82 q-3 251 -135 394 q-133 143 -365 146 q-238 -3 -374 -154 q-137 -151 -140 -412 q2 -261 140 -408 q138 -147 383 -150 q194 2 324 95 q130 92 157 246 l-234 0 ZM481 -162 l-281 -310 l203 0 l174 198 l4 0 l174 -198 l203 0 l-281 310 l-196 0 Z" /><glyph glyph-name="" unicode="&#x115;" d="M574 914 q113 -2 181 -72 q69 -70 74 -190 l-518 0 q10 119 81 190 q71 70 182 72 l0 0 ZM830 325 q-23 -68 -87 -107 q-64 -39 -155 -40 q-127 2 -202 81 q-75 78 -77 212 l0 15 l765 0 l0 82 q-3 251 -135 394 q-133 143 -365 146 q-238 -3 -374 -154 q-137 -151 -140 -412 q2 -261 140 -408 q138 -147 383 -150 q194 2 324 95 q130 92 157 246 l-234 0 ZM227 1563 q3 -140 95 -228 q91 -87 250 -90 q159 3 251 90 q91 88 94 228 l-159 0 q-2 -81 -53 -132 q-51 -52 -133 -54 q-82 2 -133 54 q-51 51 -53 132 l-159 0 Z" /><glyph glyph-name="" unicode="&#x1e1b;" d="M714 -429 q89 1 144 72 q54 70 56 194 l-141 0 q-1 -62 -17 -95 q-16 -33 -48 -33 q-50 9 -103 71 q-54 62 -155 71 q-91 -1 -145 -70 q-55 -69 -56 -194 l141 0 q1 58 18 92 q18 33 51 34 q53 -9 106 -71 q52 -62 149 -71 l0 0 ZM574 914 q113 -2 181 -72 q69 -70 74 -190 l-518 0 q10 119 81 190 q71 70 182 72 l0 0 ZM830 325 q-23 -68 -87 -107 q-64 -39 -155 -40 q-127 2 -202 81 q-75 78 -77 212 l0 15 l765 0 l0 82 q-3 251 -135 394 q-133 143 -365 146 q-238 -3 -374 -154 q-137 -151 -140 -412 q2 -261 140 -408 q138 -147 383 -150 q194 2 324 95 q130 92 157 246 l-234 0 Z" /><glyph glyph-name="" unicode="&#x117;" d="M573 1262 q60 2 99 41 q40 40 41 99 q-1 59 -41 98 q-39 39 -99 41 q-61 -2 -100 -41 q-40 -39 -41 -98 q1 -59 41 -99 q39 -39 100 -41 l0 0 ZM574 914 q113 -2 181 -72 q69 -70 74 -190 l-518 0 q10 119 81 190 q71 70 182 72 l0 0 ZM830 325 q-23 -68 -87 -107 q-64 -39 -155 -40 q-127 2 -202 81 q-75 78 -77 212 l0 15 l765 0 l0 82 q-3 251 -135 394 q-133 143 -365 146 q-238 -3 -374 -154 q-137 -151 -140 -412 q2 -261 140 -408 q138 -147 383 -150 q194 2 324 95 q130 92 157 246 l-234 0 Z" /><glyph glyph-name="" unicode="&#x229;" d="M311 652 q10 119 81 190 q71 70 182 72 q113 -2 181 -72 q69 -70 74 -190 l-518 0 ZM1074 486 l0 82 q-3 251 -135 394 q-133 143 -365 146 q-238 -3 -374 -154 q-137 -151 -140 -412 q2 -243 123 -388 q122 -145 338 -167 l-53 -125 l0 -90 l55 0 q71 0 103 -14 q32 -15 31 -46 q0 -62 -111 -62 q-32 0 -65 4 q-33 4 -50 10 l0 -111 q29 -9 65 -13 q36 -4 77 -4 q108 2 170 51 q62 48 63 132 q0 75 -50 116 q-50 40 -144 40 l45 113 q166 20 274 109 q109 90 133 228 l-234 0 q-23 -68 -87 -107 q-64 -39 -155 -40 q-127 2 -202 81 q-75 78 -77 212 l0 15 l765 0 Z" /><glyph glyph-name="" unicode="&#x1e1d;" d="M758 1563 q-2 -81 -53 -132 q-51 -52 -133 -54 q-82 2 -133 54 q-51 51 -53 132 l-159 0 q3 -140 95 -228 q91 -87 250 -90 q159 3 251 90 q91 88 94 228 l-159 0 ZM311 652 q10 119 81 190 q71 70 182 72 q113 -2 181 -72 q69 -70 74 -190 l-518 0 ZM1074 486 l0 82 q-3 251 -135 394 q-133 143 -365 146 q-238 -3 -374 -154 q-137 -151 -140 -412 q2 -243 123 -388 q122 -145 338 -167 l-53 -125 l0 -90 l55 0 q71 0 103 -14 q32 -15 31 -46 q0 -62 -111 -62 q-32 0 -65 4 q-33 4 -50 10 l0 -111 q29 -9 65 -13 q36 -4 77 -4 q108 2 170 51 q62 48 63 132 q0 75 -50 116 q-50 40 -144 40 l45 113 q166 20 274 109 q109 90 133 228 l-234 0 q-23 -68 -87 -107 q-64 -39 -155 -40 q-127 2 -202 81 q-75 78 -77 212 l0 15 l765 0 Z" /><glyph glyph-name="" unicode="&#x119;" d="M780 -452 q77 1 126 19 l0 153 q-10 -3 -28 -5 q-18 -2 -40 -2 q-54 1 -85 27 q-30 27 -31 73 q0 57 39 115 q39 58 120 123 q78 62 125 132 q46 70 58 142 l-234 0 q-23 -68 -87 -107 q-64 -39 -155 -40 q-127 2 -202 81 q-75 78 -77 212 l0 15 l765 0 l0 82 q-3 251 -135 394 q-133 143 -365 146 q-238 -3 -374 -154 q-137 -151 -140 -412 q2 -261 140 -408 q138 -147 383 -150 q20 0 39 2 q19 1 31 3 l0 -5 q-68 -45 -102 -101 q-34 -55 -34 -119 q2 -97 74 -156 q72 -58 189 -60 l0 0 ZM574 914 q113 -2 181 -72 q69 -70 74 -190 l-518 0 q10 119 81 190 q71 70 182 72 l0 0 Z" /><glyph glyph-name="" unicode="f" d="M176 0 l249 0 l0 900 l204 0 l0 193 l-207 0 l0 87 q0 64 30 94 q30 29 96 29 q23 0 43 -2 q20 -2 37 -6 l0 181 q-55 10 -121 10 q-175 1 -254 -70 q-78 -71 -77 -225 l0 -98 l-149 0 l0 -193 l149 0 l0 -900 Z" /><glyph glyph-name="" unicode="&#x1e1f;" d="M412 1608 q59 2 98 41 q40 39 41 98 q-1 59 -41 98 q-39 40 -98 41 q-59 -1 -98 -41 q-40 -39 -41 -98 q1 -59 41 -98 q39 -39 98 -41 l0 0 ZM176 0 l249 0 l0 900 l204 0 l0 193 l-207 0 l0 87 q0 64 30 94 q30 29 96 29 q23 0 43 -2 q20 -2 37 -6 l0 181 q-55 10 -121 10 q-175 1 -254 -70 q-78 -71 -77 -225 l0 -98 l-149 0 l0 -193 l149 0 l0 -900 Z" /><glyph glyph-name="" unicode="g" d="M585 205 q-124 2 -196 93 q-72 90 -74 251 q2 162 74 254 q72 93 196 95 q126 -2 200 -96 q73 -93 75 -253 q-2 -159 -75 -251 q-74 -91 -200 -93 l0 0 ZM585 -412 q240 3 381 118 q140 115 143 312 l0 1075 l-244 0 l0 -184 l-5 0 q-48 92 -137 143 q-89 52 -207 53 q-211 -3 -332 -150 q-122 -148 -124 -405 q3 -253 124 -398 q122 -145 327 -148 q119 1 209 51 q89 50 134 139 l6 0 l0 -183 q-1 -108 -70 -172 q-70 -63 -197 -65 q-94 1 -159 39 q-66 39 -88 104 l-248 0 q22 -146 153 -236 q131 -90 334 -93 l0 0 Z" /><glyph glyph-name="" unicode="&#x1f5;" d="M687 1258 l262 307 l-245 0 l-218 -307 l201 0 ZM585 205 q-124 2 -196 93 q-72 90 -74 251 q2 162 74 254 q72 93 196 95 q126 -2 200 -96 q73 -93 75 -253 q-2 -159 -75 -251 q-74 -91 -200 -93 l0 0 ZM585 -412 q240 3 381 118 q140 115 143 312 l0 1075 l-244 0 l0 -184 l-5 0 q-48 92 -137 143 q-89 52 -207 53 q-211 -3 -332 -150 q-122 -148 -124 -405 q3 -253 124 -398 q122 -145 327 -148 q119 1 209 51 q89 50 134 139 l6 0 l0 -183 q-1 -108 -70 -172 q-70 -63 -197 -65 q-94 1 -159 39 q-66 39 -88 104 l-248 0 q22 -146 153 -236 q131 -90 334 -93 l0 0 Z" /><glyph glyph-name="" unicode="&#x1e7;" d="M681 1252 l270 311 l-202 0 l-157 -191 l-7 0 l-157 191 l-202 0 l270 -311 l185 0 ZM585 205 q-124 2 -196 93 q-72 90 -74 251 q2 162 74 254 q72 93 196 95 q126 -2 200 -96 q73 -93 75 -253 q-2 -159 -75 -251 q-74 -91 -200 -93 l0 0 ZM585 -412 q240 3 381 118 q140 115 143 312 l0 1075 l-244 0 l0 -184 l-5 0 q-48 92 -137 143 q-89 52 -207 53 q-211 -3 -332 -150 q-122 -148 -124 -405 q3 -253 124 -398 q122 -145 327 -148 q119 1 209 51 q89 50 134 139 l6 0 l0 -183 q-1 -108 -70 -172 q-70 -63 -197 -65 q-94 1 -159 39 q-66 39 -88 104 l-248 0 q22 -146 153 -236 q131 -90 334 -93 l0 0 Z" /><glyph glyph-name="" unicode="&#x11d;" d="M681 1563 l-185 0 l-270 -311 l202 0 l157 192 l7 0 l157 -192 l202 0 l-270 311 ZM585 205 q-124 2 -196 93 q-72 90 -74 251 q2 162 74 254 q72 93 196 95 q126 -2 200 -96 q73 -93 75 -253 q-2 -159 -75 -251 q-74 -91 -200 -93 l0 0 ZM585 -412 q240 3 381 118 q140 115 143 312 l0 1075 l-244 0 l0 -184 l-5 0 q-48 92 -137 143 q-89 52 -207 53 q-211 -3 -332 -150 q-122 -148 -124 -405 q3 -253 124 -398 q122 -145 327 -148 q119 1 209 51 q89 50 134 139 l6 0 l0 -183 q-1 -108 -70 -172 q-70 -63 -197 -65 q-94 1 -159 39 q-66 39 -88 104 l-248 0 q22 -146 153 -236 q131 -90 334 -93 l0 0 Z" /><glyph glyph-name="" unicode="&#x11f;" d="M243 1563 q3 -140 95 -228 q91 -87 250 -90 q159 3 251 90 q91 88 94 228 l-159 0 q-2 -81 -53 -132 q-51 -52 -133 -54 q-82 2 -133 54 q-51 51 -53 132 l-159 0 ZM585 205 q-124 2 -196 93 q-72 90 -74 251 q2 162 74 254 q72 93 196 95 q126 -2 200 -96 q73 -93 75 -253 q-2 -159 -75 -251 q-74 -91 -200 -93 l0 0 ZM585 -412 q240 3 381 118 q140 115 143 312 l0 1075 l-244 0 l0 -184 l-5 0 q-48 92 -137 143 q-89 52 -207 53 q-211 -3 -332 -150 q-122 -148 -124 -405 q3 -253 124 -398 q122 -145 327 -148 q119 1 209 51 q89 50 134 139 l6 0 l0 -183 q-1 -108 -70 -172 q-70 -63 -197 -65 q-94 1 -159 39 q-66 39 -88 104 l-248 0 q22 -146 153 -236 q131 -90 334 -93 l0 0 Z" /><glyph glyph-name="" unicode="&#x1e21;" d="M917 1436 l-656 0 l0 -130 l656 0 l0 130 ZM585 205 q-124 2 -196 93 q-72 90 -74 251 q2 162 74 254 q72 93 196 95 q126 -2 200 -96 q73 -93 75 -253 q-2 -159 -75 -251 q-74 -91 -200 -93 l0 0 ZM585 -412 q240 3 381 118 q140 115 143 312 l0 1075 l-244 0 l0 -184 l-5 0 q-48 92 -137 143 q-89 52 -207 53 q-211 -3 -332 -150 q-122 -148 -124 -405 q3 -253 124 -398 q122 -145 327 -148 q119 1 209 51 q89 50 134 139 l6 0 l0 -183 q-1 -108 -70 -172 q-70 -63 -197 -65 q-94 1 -159 39 q-66 39 -88 104 l-248 0 q22 -146 153 -236 q131 -90 334 -93 l0 0 Z" /><glyph glyph-name="" unicode="&#x121;" d="M589 1262 q60 2 99 41 q40 40 41 99 q-1 59 -41 98 q-39 39 -99 41 q-61 -2 -100 -41 q-40 -39 -41 -98 q1 -59 41 -99 q39 -39 100 -41 l0 0 ZM585 205 q-124 2 -196 93 q-72 90 -74 251 q2 162 74 254 q72 93 196 95 q126 -2 200 -96 q73 -93 75 -253 q-2 -159 -75 -251 q-74 -91 -200 -93 l0 0 ZM585 -412 q240 3 381 118 q140 115 143 312 l0 1075 l-244 0 l0 -184 l-5 0 q-48 92 -137 143 q-89 52 -207 53 q-211 -3 -332 -150 q-122 -148 -124 -405 q3 -253 124 -398 q122 -145 327 -148 q119 1 209 51 q89 50 134 139 l6 0 l0 -183 q-1 -108 -70 -172 q-70 -63 -197 -65 q-94 1 -159 39 q-66 39 -88 104 l-248 0 q22 -146 153 -236 q131 -90 334 -93 l0 0 Z" /><glyph glyph-name="" unicode="&#x123;" d="M648 1612 l-146 -354 l219 0 l110 354 l-183 0 ZM585 205 q-124 2 -196 93 q-72 90 -74 251 q2 162 74 254 q72 93 196 95 q126 -2 200 -96 q73 -93 75 -253 q-2 -159 -75 -251 q-74 -91 -200 -93 l0 0 ZM585 -412 q240 3 381 118 q140 115 143 312 l0 1075 l-244 0 l0 -184 l-5 0 q-48 92 -137 143 q-89 52 -207 53 q-211 -3 -332 -150 q-122 -148 -124 -405 q3 -253 124 -398 q122 -145 327 -148 q119 1 209 51 q89 50 134 139 l6 0 l0 -183 q-1 -108 -70 -172 q-70 -63 -197 -65 q-94 1 -159 39 q-66 39 -88 104 l-248 0 q22 -146 153 -236 q131 -90 334 -93 l0 0 Z" /><glyph glyph-name="" unicode="h" d="M114 0 l249 0 l0 623 q1 124 67 197 q67 73 186 75 q113 -1 171 -66 q57 -64 57 -181 l0 -648 l249 0 l0 698 q-1 189 -101 297 q-100 109 -282 111 q-125 0 -211 -52 q-86 -51 -134 -151 l-5 0 l0 607 l-246 0 l0 -1510 Z" /><glyph glyph-name="" unicode="&#x1e27;" d="M114 0 l249 0 l0 623 q1 124 67 197 q67 73 186 75 q113 -1 171 -66 q57 -64 57 -181 l0 -648 l249 0 l0 698 q-1 189 -101 297 q-100 109 -282 111 q-125 0 -211 -52 q-86 -51 -134 -151 l-5 0 l0 607 l-246 0 l0 -1510 ZM34 1636 q55 1 90 37 q36 35 37 87 q-1 53 -37 88 q-35 36 -90 37 q-55 -1 -90 -37 q-36 -35 -37 -88 q1 -52 37 -87 q35 -36 90 -37 l0 0 ZM444 1636 q54 1 90 37 q35 35 36 87 q-1 53 -36 88 q-36 36 -90 37 q-55 -1 -90 -37 q-36 -35 -37 -88 q1 -52 37 -87 q35 -36 90 -37 l0 0 Z" /><glyph glyph-name="" unicode="&#x21f;" d="M114 0 l249 0 l0 623 q1 124 67 197 q67 73 186 75 q113 -1 171 -66 q57 -64 57 -181 l0 -648 l249 0 l0 698 q-1 189 -101 297 q-100 109 -282 111 q-125 0 -211 -52 q-86 -51 -134 -151 l-5 0 l0 607 l-246 0 l0 -1510 ZM141 1613 l196 0 l281 310 l-203 0 l-174 -198 l-4 0 l-174 198 l-203 0 l281 -310 Z" /><glyph glyph-name="" unicode="&#x125;" d="M114 0 l249 0 l0 623 q1 124 67 197 q67 73 186 75 q113 -1 171 -66 q57 -64 57 -181 l0 -648 l249 0 l0 698 q-1 189 -101 297 q-100 109 -282 111 q-125 0 -211 -52 q-86 -51 -134 -151 l-5 0 l0 607 l-246 0 l0 -1510 ZM141 1923 l-281 -310 l203 0 l174 198 l4 0 l174 -198 l203 0 l-281 310 l-196 0 Z" /><glyph glyph-name="" unicode="&#x1e25;" d="M114 0 l249 0 l0 623 q1 124 67 197 q67 73 186 75 q113 -1 171 -66 q57 -64 57 -181 l0 -648 l249 0 l0 698 q-1 189 -101 297 q-100 109 -282 111 q-125 0 -211 -52 q-86 -51 -134 -151 l-5 0 l0 607 l-246 0 l0 -1510 ZM604 -434 q59 2 98 41 q40 39 41 98 q-1 59 -41 98 q-39 40 -98 41 q-59 -1 -98 -41 q-40 -39 -41 -98 q1 -59 41 -98 q39 -39 98 -41 l0 0 Z" /><glyph glyph-name="" unicode="&#x1e23;" d="M114 0 l249 0 l0 623 q1 124 67 197 q67 73 186 75 q113 -1 171 -66 q57 -64 57 -181 l0 -648 l249 0 l0 698 q-1 189 -101 297 q-100 109 -282 111 q-125 0 -211 -52 q-86 -51 -134 -151 l-5 0 l0 607 l-246 0 l0 -1510 ZM239 1636 q59 2 98 41 q40 39 41 98 q-1 59 -41 98 q-39 40 -98 41 q-59 -1 -98 -41 q-40 -39 -41 -98 q1 -59 41 -98 q39 -39 98 -41 l0 0 Z" /><glyph glyph-name="" unicode="&#x1e2b;" d="M267 -183 q3 -136 92 -222 q90 -85 245 -88 q155 3 245 88 q89 86 92 222 l-156 0 q-2 -79 -51 -129 q-50 -50 -130 -52 q-80 2 -129 52 q-50 50 -52 129 l-156 0 ZM114 0 l249 0 l0 623 q1 124 67 197 q67 73 186 75 q113 -1 171 -66 q57 -64 57 -181 l0 -648 l249 0 l0 698 q-1 189 -101 297 q-100 109 -282 111 q-125 0 -211 -52 q-86 -51 -134 -151 l-5 0 l0 607 l-246 0 l0 -1510 Z" /><glyph glyph-name="" unicode="&#x1e29;" d="M360 903 l0 607 l-246 0 l0 -1510 l113 0 l-58 -138 l0 -90 l55 0 q71 0 103 -14 q32 -15 31 -46 q0 -62 -111 -62 q-32 0 -65 4 q-33 4 -50 10 l0 -111 q29 -9 65 -13 q36 -4 77 -4 q108 2 170 51 q62 48 63 132 q0 75 -50 116 q-50 40 -144 40 l50 125 l0 11 l0 612 q1 124 67 197 q67 73 186 75 q113 -1 171 -66 q57 -64 57 -181 l0 -648 l249 0 l0 698 q-1 189 -101 297 q-100 109 -282 111 q-125 0 -211 -52 q-86 -51 -134 -151 l-5 0 Z" /><glyph glyph-name="" unicode="&#x127;" d="M360 903 l0 354 l247 0 l0 141 l-247 0 l0 112 l-246 0 l0 -112 l-93 0 l0 -141 l93 0 l0 -1257 l249 0 l0 623 q1 124 67 197 q67 73 186 75 q113 -1 171 -66 q57 -64 57 -181 l0 -648 l249 0 l0 698 q-1 189 -101 297 q-100 109 -282 111 q-125 0 -211 -52 q-86 -51 -134 -151 l-5 0 Z" /><glyph glyph-name="" unicode="&#x1e96;" d="M114 0 l249 0 l0 623 q1 124 67 197 q67 73 186 75 q113 -1 171 -66 q57 -64 57 -181 l0 -648 l249 0 l0 698 q-1 189 -101 297 q-100 109 -282 111 q-125 0 -211 -52 q-86 -51 -134 -151 l-5 0 l0 607 l-246 0 l0 -1510 ZM939 -226 l-670 0 l0 -129 l670 0 l0 129 Z" /><glyph glyph-name="" unicode="i" d="M113 0 l249 0 l0 1093 l-249 0 l0 -1093 ZM237 1232 q60 1 99 40 q40 38 41 97 q-1 60 -41 98 q-39 38 -99 39 q-59 -1 -99 -39 q-39 -38 -41 -98 q2 -59 41 -97 q40 -39 99 -40 l0 0 Z" /><glyph glyph-name="" unicode="ì" d="M336 1258 l-217 307 l-246 0 l262 -307 l201 0 ZM113 0 l249 0 l0 1093 l-249 0 l0 -1093 Z" /><glyph glyph-name="" unicode="&#x209;" d="M113 0 l249 0 l0 1093 l-249 0 l0 -1093 ZM157 1258 l-192 307 l-231 0 l241 -307 l182 0 ZM508 1258 l-192 307 l-231 0 l241 -307 l182 0 Z" /><glyph glyph-name="" unicode="í" d="M335 1258 l262 307 l-245 0 l-218 -307 l201 0 ZM113 0 l249 0 l0 1093 l-249 0 l0 -1093 Z" /><glyph glyph-name="" unicode="î" d="M329 1563 l-185 0 l-270 -311 l202 0 l157 192 l7 0 l157 -192 l202 0 l-270 311 ZM113 0 l249 0 l0 1093 l-249 0 l0 -1093 Z" /><glyph glyph-name="" unicode="&#x1d0;" d="M329 1252 l270 311 l-202 0 l-157 -191 l-7 0 l-157 191 l-202 0 l270 -311 l185 0 ZM113 0 l249 0 l0 1093 l-249 0 l0 -1093 Z" /><glyph glyph-name="" unicode="ï" d="M113 0 l249 0 l0 1093 l-249 0 l0 -1093 ZM32 1259 q55 1 90 37 q36 35 37 87 q-1 53 -37 88 q-35 36 -90 37 q-55 -1 -90 -37 q-36 -35 -37 -88 q1 -52 37 -87 q35 -36 90 -37 l0 0 ZM442 1259 q54 1 90 37 q35 35 36 87 q-1 53 -36 88 q-36 36 -90 37 q-55 -1 -90 -37 q-36 -35 -37 -88 q1 -52 37 -87 q35 -36 90 -37 l0 0 Z" /><glyph glyph-name="" unicode="&#x1e2f;" d="M141 1611 l193 0 l211 264 l-230 0 l-174 -264 ZM32 1259 q55 1 90 37 q36 35 37 87 q-1 53 -37 88 q-35 36 -90 37 q-55 -1 -90 -37 q-36 -35 -37 -88 q1 -52 37 -87 q35 -36 90 -37 l0 0 ZM442 1259 q54 1 90 37 q35 35 36 87 q-1 53 -36 88 q-36 36 -90 37 q-55 -1 -90 -37 q-36 -35 -37 -88 q1 -52 37 -87 q35 -36 90 -37 l0 0 ZM113 0 l249 0 l0 1093 l-249 0 l0 -1093 Z" /><glyph glyph-name="" unicode="&#x12d;" d="M113 0 l249 0 l0 1093 l-249 0 l0 -1093 ZM-109 1563 q3 -140 95 -228 q91 -87 250 -90 q159 3 251 90 q91 88 94 228 l-159 0 q-2 -81 -53 -132 q-51 -52 -133 -54 q-82 2 -133 54 q-51 51 -53 132 l-159 0 Z" /><glyph glyph-name="" unicode="&#x1ecb;" d="M113 0 l249 0 l0 1093 l-249 0 l0 -1093 ZM237 1232 q60 1 99 40 q40 38 41 97 q-1 60 -41 98 q-39 38 -99 39 q-59 -1 -99 -39 q-39 -38 -41 -98 q2 -59 41 -97 q40 -39 99 -40 l0 0 ZM237 -434 q59 2 98 41 q40 39 41 98 q-1 59 -41 98 q-39 40 -98 41 q-59 -1 -98 -41 q-40 -39 -41 -98 q1 -59 41 -98 q39 -39 98 -41 l0 0 Z" /><glyph glyph-name="" unicode="&#x20b;" d="M113 0 l249 0 l0 1093 l-249 0 l0 -1093 ZM-108 1252 l159 0 q2 80 53 132 q51 51 133 53 q82 -2 133 -53 q51 -52 53 -132 l159 0 q-3 140 -94 228 q-92 87 -251 90 q-159 -3 -250 -90 q-92 -88 -95 -228 l0 0 Z" /><glyph glyph-name="" unicode="&#x12b;" d="M113 0 l249 0 l0 1093 l-249 0 l0 -1093 ZM565 1436 l-656 0 l0 -130 l656 0 l0 130 Z" /><glyph glyph-name="" unicode="&#x1e2d;" d="M113 0 l249 0 l0 1093 l-249 0 l0 -1093 ZM237 1232 q60 1 99 40 q40 38 41 97 q-1 60 -41 98 q-39 38 -99 39 q-59 -1 -99 -39 q-39 -38 -41 -98 q2 -59 41 -97 q40 -39 99 -40 l0 0 ZM372 -429 q89 1 144 72 q54 70 56 194 l-141 0 q-1 -62 -17 -95 q-16 -33 -48 -33 q-50 9 -103 71 q-54 62 -155 71 q-91 -1 -145 -70 q-55 -69 -56 -194 l141 0 q1 58 18 92 q18 33 51 34 q53 -9 106 -71 q52 -62 149 -71 l0 0 Z" /><glyph glyph-name="" unicode="&#x1ec9;" d="M113 0 l249 0 l0 1093 l-249 0 l0 -1093 ZM99 1464 q29 13 52 17 q24 5 50 5 q43 -1 70 -22 q26 -22 27 -56 q0 -38 -22 -64 q-23 -27 -72 -46 l76 -97 q83 35 131 92 q47 58 48 127 q-1 90 -59 142 q-58 52 -157 53 q-40 0 -76 -7 q-37 -7 -68 -20 l0 -124 Z" /><glyph glyph-name="" unicode="&#x129;" d="M113 0 l249 0 l0 1093 l-249 0 l0 -1093 ZM375 1258 q89 1 144 72 q54 70 56 194 l-141 0 q-1 -62 -17 -95 q-16 -33 -48 -33 q-50 9 -103 71 q-54 62 -155 71 q-91 -1 -145 -70 q-55 -69 -56 -194 l141 0 q1 58 18 92 q18 33 51 34 q53 -9 106 -71 q52 -62 149 -71 l0 0 Z" /></font>
</defs>
</svg>
