<?xml version="1.0" standalone="no"?><!DOCTYPE svg PUBLIC "-//W3C//DTD SVG 1.1//EN" "http://www.w3.org/Graphics/SVG/1.1/DTD/svg11.dtd" ><svg xmlns="http://www.w3.org/2000/svg"><metadata></metadata><defs><font id="SF UI Display Thin; 12.0d0e2; 2016-05-11" horiz-adv-x="2505"><font-face font-family="SF UI Display" font-weight="200" font-stretch="normal" units-per-em="2048" panose-1="0 0 3 0 0 0 0 0 0 0" ascent="1950" descent="-494" x-height="0" bbox="-477 -494 2434 2153" underline-thickness="61" underline-position="-339" unicode-range="U+0020-f189" /><missing-glyph horiz-adv-x="2048" d="M100 -494 l1848 0 l0 339 l-1848 0 l0 -339 ZM100 -73 l1848 0 l0 339 l-1848 0 l0 -339 ZM100 348 l1848 0 l0 339 l-1848 0 l0 -339 ZM100 769 l1848 0 l0 339 l-1848 0 l0 -339 ZM100 1190 l1848 0 l0 339 l-1848 0 l0 -339 ZM100 1611 l1848 0 l0 339 l-1848 0 l0 -339 Z" /><glyph glyph-name="" unicode=" " d="" /><glyph glyph-name="" unicode="a" d="M1115 0 l85 0 l-549 1443 l-80 0 l-550 -1443 l86 0 l179 481 l649 0 l180 -481 ZM608 1340 l5 0 l297 -788 l-598 0 l296 788 Z" /><glyph glyph-name="" unicode="à" d="M1115 0 l85 0 l-549 1443 l-80 0 l-550 -1443 l86 0 l179 481 l649 0 l180 -481 ZM608 1340 l5 0 l297 -788 l-598 0 l296 788 ZM580 1553 l78 0 l-280 290 l-95 0 l297 -290 Z" /><glyph glyph-name="" unicode="á" d="M1115 0 l85 0 l-549 1443 l-80 0 l-550 -1443 l86 0 l179 481 l649 0 l180 -481 ZM608 1340 l5 0 l297 -788 l-598 0 l296 788 ZM643 1553 l297 290 l-96 0 l-279 -290 l78 0 Z" /><glyph glyph-name="" unicode="ä" d="M1115 0 l85 0 l-549 1443 l-80 0 l-550 -1443 l86 0 l179 481 l649 0 l180 -481 ZM608 1340 l5 0 l297 -788 l-598 0 l296 788 ZM459 1563 q28 1 47 20 q19 19 20 47 q-1 28 -20 47 q-19 18 -47 19 q-29 -1 -48 -19 q-19 -19 -20 -47 q1 -28 20 -47 q19 -19 48 -20 l0 0 ZM763 1563 q29 1 48 20 q19 19 20 47 q-1 28 -20 47 q-19 18 -48 19 q-28 -1 -47 -19 q-19 -19 -20 -47 q1 -28 20 -47 q19 -19 47 -20 l0 0 Z" /><glyph glyph-name="" unicode="&#x1de;" d="M1115 0 l85 0 l-549 1443 l-80 0 l-550 -1443 l86 0 l179 481 l649 0 l180 -481 ZM608 1340 l5 0 l297 -788 l-598 0 l296 788 ZM462 1691 q-27 -1 -45 -19 q-18 -18 -19 -44 q1 -27 19 -45 q18 -17 45 -18 q26 1 44 18 q18 18 19 45 q-1 26 -19 44 q-18 18 -44 19 l0 0 ZM321 1919 l0 -57 l580 0 l0 57 l-580 0 ZM760 1691 q-26 -1 -44 -19 q-18 -18 -19 -44 q1 -27 19 -45 q18 -17 44 -18 q27 1 45 18 q18 18 19 45 q-1 26 -19 44 q-18 18 -45 19 l0 0 Z" /><glyph glyph-name="" unicode="å" d="M1115 0 l85 0 l-549 1443 l-80 0 l-550 -1443 l86 0 l179 481 l649 0 l180 -481 ZM608 1340 l5 0 l297 -788 l-598 0 l296 788 ZM611 1506 q73 2 122 51 q48 50 50 122 q-2 73 -50 122 q-49 49 -122 51 q-73 -2 -122 -51 q-48 -49 -50 -122 q2 -72 50 -122 q49 -49 122 -51 l0 0 ZM611 1555 q-54 1 -88 36 q-35 35 -36 88 q1 53 36 88 q34 36 88 37 q54 -1 88 -37 q35 -35 36 -88 q-1 -53 -36 -88 q-34 -35 -88 -36 l0 0 Z" /><glyph glyph-name="" unicode="&#x1fa;" d="M1115 0 l85 0 l-549 1443 l-80 0 l-550 -1443 l86 0 l179 481 l649 0 l180 -481 ZM608 1340 l5 0 l297 -788 l-598 0 l296 788 ZM611 1498 q73 2 122 51 q48 49 50 122 q-2 73 -50 122 q-49 49 -122 51 q-73 -2 -122 -51 q-48 -49 -50 -122 q2 -73 50 -122 q49 -49 122 -51 l0 0 ZM611 1546 q-54 1 -88 36 q-35 35 -36 89 q1 53 36 88 q34 36 88 37 q54 -1 88 -37 q35 -35 36 -88 q-1 -54 -36 -89 q-34 -35 -88 -36 l0 0 ZM719 2086 l-146 -169 l67 0 l167 169 l-88 0 Z" /><glyph glyph-name="" unicode="ã" d="M1115 0 l85 0 l-549 1443 l-80 0 l-550 -1443 l86 0 l179 481 l649 0 l180 -481 ZM608 1340 l5 0 l297 -788 l-598 0 l296 788 ZM746 1549 q74 2 112 59 q38 58 38 154 l-61 0 q0 -70 -21 -111 q-21 -42 -68 -43 q-68 10 -121 82 q-54 72 -148 82 q-75 -1 -112 -58 q-38 -57 -38 -154 l60 0 q0 69 22 111 q21 41 69 42 q70 -10 122 -82 q53 -72 146 -82 l0 0 Z" /><glyph glyph-name="" unicode="&#x1eb0;" d="M1115 0 l85 0 l-549 1443 l-80 0 l-550 -1443 l86 0 l179 481 l649 0 l180 -481 ZM608 1340 l5 0 l297 -788 l-598 0 l296 788 ZM882 1789 l-65 0 q-1 -75 -57 -123 q-55 -47 -149 -49 q-94 2 -149 49 q-56 48 -57 123 l-65 0 q2 -107 76 -167 q74 -61 195 -62 q121 1 195 62 q74 60 76 167 l0 0 ZM680 1776 l-207 203 l-92 0 l225 -203 l74 0 Z" /><glyph glyph-name="" unicode="&#x1e0;" d="M1115 0 l85 0 l-549 1443 l-80 0 l-550 -1443 l86 0 l179 481 l649 0 l180 -481 ZM608 1340 l5 0 l297 -788 l-598 0 l296 788 ZM611 1560 q32 1 53 22 q22 21 23 53 q-1 32 -23 53 q-21 21 -53 22 q-32 -1 -53 -22 q-22 -21 -23 -53 q1 -32 23 -53 q21 -21 53 -22 l0 0 ZM901 1919 l-580 0 l0 -57 l580 0 l0 57 Z" /><glyph glyph-name="" unicode="&#x1e00;" d="M1115 0 l85 0 l-549 1443 l-80 0 l-550 -1443 l86 0 l179 481 l649 0 l180 -481 ZM608 1340 l5 0 l297 -788 l-598 0 l296 788 ZM611 -492 q73 2 122 51 q48 49 50 122 q-2 73 -50 122 q-49 49 -122 51 q-73 -2 -122 -51 q-48 -49 -50 -122 q2 -73 50 -122 q49 -49 122 -51 l0 0 ZM611 -444 q-54 1 -88 37 q-35 35 -36 88 q1 53 36 88 q34 36 88 37 q54 -1 88 -37 q35 -35 36 -88 q-1 -53 -36 -88 q-34 -36 -88 -37 l0 0 Z" /><glyph glyph-name="" unicode="â" d="M1115 0 l85 0 l-549 1443 l-80 0 l-550 -1443 l86 0 l179 481 l649 0 l180 -481 ZM608 1340 l5 0 l297 -788 l-598 0 l296 788 ZM577 1843 l-271 -290 l83 0 l221 238 l2 0 l221 -238 l83 0 l-271 290 l-68 0 Z" /><glyph glyph-name="" unicode="&#x1eac;" d="M1115 0 l85 0 l-549 1443 l-80 0 l-550 -1443 l86 0 l179 481 l649 0 l180 -481 ZM608 1340 l5 0 l297 -788 l-598 0 l296 788 ZM611 -295 q32 1 54 22 q22 22 23 54 q-1 32 -23 54 q-22 21 -54 22 q-32 -1 -54 -22 q-22 -22 -23 -54 q1 -32 23 -54 q22 -21 54 -22 l0 0 ZM577 1843 l-271 -290 l83 0 l221 238 l2 0 l221 -238 l83 0 l-271 290 l-68 0 Z" /><glyph glyph-name="" unicode="&#x1ea4;" d="M1115 0 l85 0 l-549 1443 l-80 0 l-550 -1443 l86 0 l179 481 l649 0 l180 -481 ZM608 1340 l5 0 l297 -788 l-598 0 l296 788 ZM577 1768 l-266 -208 l93 0 l205 160 l6 0 l205 -160 l93 0 l-266 208 l-70 0 ZM777 1776 l74 0 l224 203 l-91 0 l-207 -203 Z" /><glyph glyph-name="" unicode="&#x1eaa;" d="M1115 0 l85 0 l-549 1443 l-80 0 l-550 -1443 l86 0 l179 481 l649 0 l180 -481 ZM608 1340 l5 0 l297 -788 l-598 0 l296 788 ZM730 1824 q70 1 108 51 q39 50 39 132 l-59 0 q0 -58 -22 -92 q-21 -34 -67 -35 q-62 9 -103 73 q-41 63 -131 72 q-72 -1 -110 -51 q-38 -49 -38 -131 l59 0 q0 58 22 92 q22 33 68 34 q65 -9 105 -72 q40 -64 129 -73 l0 0 ZM576 1762 l-266 -202 l93 0 l205 155 l6 0 l205 -155 l93 0 l-266 202 l-70 0 Z" /><glyph glyph-name="" unicode="&#x1ea6;" d="M1115 0 l85 0 l-549 1443 l-80 0 l-550 -1443 l86 0 l179 481 l649 0 l180 -481 ZM608 1340 l5 0 l297 -788 l-598 0 l296 788 ZM576 1768 l-266 -208 l93 0 l205 160 l6 0 l205 -160 l93 0 l-266 208 l-70 0 ZM950 1776 l-207 203 l-91 0 l224 -203 l74 0 Z" /><glyph glyph-name="" unicode="&#x1ea8;" d="M1115 0 l85 0 l-549 1443 l-80 0 l-550 -1443 l86 0 l179 481 l649 0 l180 -481 ZM608 1340 l5 0 l297 -788 l-598 0 l296 788 ZM576 1768 l-265 -208 l93 0 l205 160 l6 0 l204 -160 l93 0 l-265 208 l-71 0 ZM734 1903 q15 10 41 16 q25 7 50 7 q41 -1 66 -21 q24 -20 25 -54 q0 -29 -19 -53 q-20 -24 -55 -40 l39 -38 q45 20 71 55 q25 35 25 79 q-1 56 -40 90 q-39 34 -104 35 q-28 0 -55 -7 q-26 -7 -44 -19 l0 -50 Z" /><glyph glyph-name="" unicode="&#x102;" d="M1115 0 l85 0 l-549 1443 l-80 0 l-550 -1443 l86 0 l179 481 l649 0 l180 -481 ZM608 1340 l5 0 l297 -788 l-598 0 l296 788 ZM342 1789 q2 -109 76 -172 q74 -63 193 -64 q119 1 193 64 q74 63 76 172 l-61 0 q-1 -78 -57 -128 q-57 -50 -151 -52 q-94 2 -150 52 q-57 50 -58 128 l-61 0 Z" /><glyph glyph-name="" unicode="&#x1eae;" d="M1115 0 l85 0 l-549 1443 l-80 0 l-550 -1443 l86 0 l179 481 l649 0 l180 -481 ZM608 1340 l5 0 l297 -788 l-598 0 l296 788 ZM340 1789 q2 -107 76 -167 q74 -61 195 -62 q121 1 195 62 q74 60 76 167 l-65 0 q-1 -75 -57 -123 q-55 -47 -149 -49 q-94 2 -149 49 q-56 48 -57 123 l-65 0 ZM542 1776 l74 0 l225 203 l-92 0 l-207 -203 Z" /><glyph glyph-name="" unicode="&#x1eb4;" d="M1115 0 l85 0 l-549 1443 l-80 0 l-550 -1443 l86 0 l179 481 l649 0 l180 -481 ZM608 1340 l5 0 l297 -788 l-598 0 l296 788 ZM342 1774 q4 -100 77 -156 q73 -57 192 -58 q119 1 192 58 q74 56 77 156 l-63 0 q-3 -69 -58 -112 q-55 -44 -148 -45 q-93 1 -148 45 q-55 43 -58 112 l-63 0 ZM729 1825 q72 2 111 52 q39 50 40 130 l-64 0 q-1 -57 -22 -91 q-22 -34 -65 -35 q-60 9 -102 72 q-42 63 -132 72 q-73 -2 -113 -52 q-40 -50 -40 -130 l64 0 q1 56 22 91 q22 34 67 35 q64 -9 105 -72 q40 -63 129 -72 l0 0 Z" /><glyph glyph-name="" unicode="&#x1eb2;" d="M1115 0 l85 0 l-549 1443 l-80 0 l-550 -1443 l86 0 l179 481 l649 0 l180 -481 ZM608 1340 l5 0 l297 -788 l-598 0 l296 788 ZM484 1940 q16 10 41 17 q24 8 53 8 q42 -1 68 -22 q25 -21 26 -56 q0 -30 -20 -56 q-21 -26 -57 -42 l34 -43 q50 22 78 60 q28 38 28 84 q-1 59 -42 95 q-40 35 -108 36 q-31 0 -58 -7 q-27 -8 -43 -20 l0 -54 ZM342 1774 q4 -100 77 -156 q73 -57 192 -58 q119 1 192 58 q74 56 78 156 l-64 0 q-3 -69 -58 -112 q-55 -44 -148 -45 q-93 1 -147 45 q-55 43 -58 112 l-64 0 Z" /><glyph glyph-name="" unicode="&#x1eb6;" d="M1115 0 l85 0 l-549 1443 l-80 0 l-550 -1443 l86 0 l179 481 l649 0 l180 -481 ZM608 1340 l5 0 l297 -788 l-598 0 l296 788 ZM611 -295 q32 1 54 22 q22 22 23 54 q-1 32 -23 54 q-22 21 -54 22 q-32 -1 -54 -22 q-22 -22 -23 -54 q1 -32 23 -54 q22 -21 54 -22 l0 0 ZM342 1789 q2 -109 76 -172 q74 -63 193 -64 q119 1 193 64 q74 63 76 172 l-61 0 q-1 -78 -57 -128 q-57 -50 -151 -52 q-94 2 -150 52 q-57 50 -58 128 l-61 0 Z" /><glyph glyph-name="" unicode="&#x202;" d="M1115 0 l85 0 l-549 1443 l-80 0 l-550 -1443 l86 0 l179 481 l649 0 l180 -481 ZM608 1340 l5 0 l297 -788 l-598 0 l296 788 ZM342 1553 l61 0 q1 77 58 127 q56 50 150 52 q94 -2 151 -52 q56 -50 57 -127 l61 0 q-2 109 -76 172 q-74 63 -193 64 q-119 -1 -193 -64 q-74 -63 -76 -172 l0 0 Z" /><glyph glyph-name="" unicode="&#x1cd;" d="M1115 0 l85 0 l-549 1443 l-80 0 l-550 -1443 l86 0 l179 481 l649 0 l180 -481 ZM608 1340 l5 0 l297 -788 l-598 0 l296 788 ZM577 1553 l68 0 l271 290 l-83 0 l-221 -239 l-2 0 l-221 239 l-83 0 l271 -290 Z" /><glyph glyph-name="" unicode="&#x226;" d="M1115 0 l85 0 l-549 1443 l-80 0 l-550 -1443 l86 0 l179 481 l649 0 l180 -481 ZM608 1340 l5 0 l297 -788 l-598 0 l296 788 ZM611 1563 q32 1 54 22 q22 22 23 54 q-1 32 -23 54 q-22 21 -54 22 q-32 -1 -54 -22 q-22 -22 -23 -54 q1 -32 23 -54 q22 -21 54 -22 l0 0 Z" /><glyph glyph-name="" unicode="&#x1ea0;" d="M1115 0 l85 0 l-549 1443 l-80 0 l-550 -1443 l86 0 l179 481 l649 0 l180 -481 ZM608 1340 l5 0 l297 -788 l-598 0 l296 788 ZM611 -295 q32 1 54 22 q22 22 23 54 q-1 32 -23 54 q-22 21 -54 22 q-32 -1 -54 -22 q-22 -22 -23 -54 q1 -32 23 -54 q22 -21 54 -22 l0 0 Z" /><glyph glyph-name="" unicode="&#x1ea2;" d="M1115 0 l85 0 l-549 1443 l-80 0 l-550 -1443 l86 0 l179 481 l649 0 l180 -481 ZM608 1340 l5 0 l297 -788 l-598 0 l296 788 ZM469 1750 q18 11 47 18 q30 8 59 8 q46 -1 74 -23 q28 -23 29 -61 q-1 -33 -23 -61 q-22 -28 -59 -44 l34 -42 q53 23 83 62 q30 39 30 88 q-1 62 -44 99 q-43 36 -115 37 q-34 0 -65 -8 q-31 -8 -50 -19 l0 -54 Z" /><glyph glyph-name="" unicode="&#x200;" d="M1115 0 l85 0 l-549 1443 l-80 0 l-550 -1443 l86 0 l179 481 l649 0 l180 -481 ZM608 1340 l5 0 l297 -788 l-598 0 l296 788 ZM700 1553 l75 0 l-280 290 l-93 0 l298 -290 ZM433 1553 l75 0 l-280 290 l-92 0 l297 -290 Z" /><glyph glyph-name="" unicode="&#x100;" d="M1115 0 l85 0 l-549 1443 l-80 0 l-550 -1443 l86 0 l179 481 l649 0 l180 -481 ZM608 1340 l5 0 l297 -788 l-598 0 l296 788 ZM901 1679 l-580 0 l0 -57 l580 0 l0 57 Z" /><glyph glyph-name="" unicode="&#x104;" d="M608 1340 l5 0 l297 -788 l-598 0 l296 788 ZM1183 -384 l0 64 q-10 -3 -28 -5 q-19 -2 -41 -2 q-62 1 -100 34 q-38 33 -39 87 q1 63 57 116 q56 52 162 88 l6 2 l-549 1443 l-80 0 l-550 -1443 l86 0 l179 481 l649 0 l174 -466 q-104 -41 -157 -101 q-53 -61 -53 -131 q2 -79 58 -128 q56 -49 146 -50 q24 0 45 3 q21 3 35 8 l0 0 Z" /><glyph glyph-name="" unicode="b" d="M625 0 q229 2 356 104 q128 102 130 281 q-3 158 -103 252 q-101 93 -257 111 l0 6 q131 27 207 117 q75 90 77 221 q-3 159 -116 254 q-114 95 -305 97 l-486 0 l0 -1443 l497 0 ZM207 1371 l395 0 q163 -1 257 -77 q94 -76 96 -208 q-2 -144 -101 -225 q-99 -82 -271 -83 l-376 0 l0 593 ZM207 72 l0 635 l389 0 q207 -1 320 -85 q114 -84 115 -235 q-1 -147 -109 -230 q-108 -83 -305 -85 l-410 0 Z" /><glyph glyph-name="" unicode="&#x1e06;" d="M625 0 q229 2 356 104 q128 102 130 281 q-3 158 -103 252 q-101 93 -257 111 l0 6 q131 27 207 117 q75 90 77 221 q-3 159 -116 254 q-114 95 -305 97 l-486 0 l0 -1443 l497 0 ZM207 1371 l395 0 q163 -1 257 -77 q94 -76 96 -208 q-2 -144 -101 -225 q-99 -82 -271 -83 l-376 0 l0 593 ZM207 72 l0 635 l389 0 q207 -1 320 -85 q114 -84 115 -235 q-1 -147 -109 -230 q-108 -83 -305 -85 l-410 0 ZM806 -205 l-580 0 l0 -57 l580 0 l0 57 Z" /><glyph glyph-name="" unicode="&#x1e04;" d="M516 -295 q32 1 54 22 q22 22 23 54 q-1 32 -23 54 q-22 21 -54 22 q-32 -1 -54 -22 q-22 -22 -23 -54 q1 -32 23 -54 q22 -21 54 -22 l0 0 ZM625 0 q229 2 356 104 q128 102 130 281 q-3 158 -103 252 q-101 93 -257 111 l0 6 q131 27 207 117 q75 90 77 221 q-3 159 -116 254 q-114 95 -305 97 l-486 0 l0 -1443 l497 0 ZM207 1371 l395 0 q163 -1 257 -77 q94 -76 96 -208 q-2 -144 -101 -225 q-99 -82 -271 -83 l-376 0 l0 593 ZM207 72 l0 635 l389 0 q207 -1 320 -85 q114 -84 115 -235 q-1 -147 -109 -230 q-108 -83 -305 -85 l-410 0 Z" /><glyph glyph-name="" unicode="&#x1e02;" d="M516 1563 q32 1 54 22 q22 22 23 54 q-1 32 -23 54 q-22 21 -54 22 q-32 -1 -54 -22 q-22 -22 -23 -54 q1 -32 23 -54 q22 -21 54 -22 l0 0 ZM625 0 q229 2 356 104 q128 102 130 281 q-3 158 -103 252 q-101 93 -257 111 l0 6 q131 27 207 117 q75 90 77 221 q-3 159 -116 254 q-114 95 -305 97 l-486 0 l0 -1443 l497 0 ZM207 1371 l395 0 q163 -1 257 -77 q94 -76 96 -208 q-2 -144 -101 -225 q-99 -82 -271 -83 l-376 0 l0 593 ZM207 72 l0 635 l389 0 q207 -1 320 -85 q114 -84 115 -235 q-1 -147 -109 -230 q-108 -83 -305 -85 l-410 0 Z" /><glyph glyph-name="" unicode="c" d="M702 -21 q233 3 386 126 q153 123 181 331 l-79 0 q-27 -176 -160 -278 q-134 -103 -328 -105 q-255 3 -403 183 q-148 179 -151 494 q3 307 150 482 q147 175 404 178 q190 -4 325 -117 q135 -114 163 -292 l79 0 q-28 211 -185 345 q-157 134 -382 138 q-294 -4 -463 -199 q-169 -194 -172 -535 q3 -348 172 -548 q169 -199 463 -203 l0 0 Z" /><glyph glyph-name="" unicode="&#x106;" d="M734 1554 l297 290 l-96 0 l-279 -290 l78 0 ZM702 -21 q233 3 386 126 q153 123 181 331 l-79 0 q-27 -176 -160 -278 q-134 -103 -328 -105 q-255 3 -403 183 q-148 179 -151 494 q3 307 150 482 q147 175 404 178 q190 -4 325 -117 q135 -114 163 -292 l79 0 q-28 211 -185 345 q-157 134 -382 138 q-294 -4 -463 -199 q-169 -194 -172 -535 q3 -348 172 -548 q169 -199 463 -203 l0 0 Z" /><glyph glyph-name="" unicode="&#x10c;" d="M702 -21 q233 3 386 126 q153 123 181 331 l-79 0 q-27 -176 -160 -278 q-134 -103 -328 -105 q-255 3 -403 183 q-148 179 -151 494 q3 307 150 482 q147 175 404 178 q190 -4 325 -117 q135 -114 163 -292 l79 0 q-28 211 -185 345 q-157 134 -382 138 q-294 -4 -463 -199 q-169 -194 -172 -535 q3 -348 172 -548 q169 -199 463 -203 l0 0 ZM668 1554 l68 0 l271 290 l-83 0 l-221 -239 l-2 0 l-221 239 l-83 0 l271 -290 Z" /><glyph glyph-name="" unicode="&#x108;" d="M702 -21 q233 3 386 126 q153 123 181 331 l-79 0 q-27 -176 -160 -278 q-134 -103 -328 -105 q-255 3 -403 183 q-148 179 -151 494 q3 307 150 482 q147 175 404 178 q190 -4 325 -117 q135 -114 163 -292 l79 0 q-28 211 -185 345 q-157 134 -382 138 q-294 -4 -463 -199 q-169 -194 -172 -535 q3 -348 172 -548 q169 -199 463 -203 l0 0 ZM668 1844 l-271 -290 l83 0 l221 238 l2 0 l221 -238 l83 0 l-271 290 l-68 0 Z" /><glyph glyph-name="" unicode="&#x10a;" d="M702 1564 q32 1 54 22 q22 22 23 54 q-1 32 -23 54 q-22 21 -54 22 q-32 -1 -54 -22 q-22 -22 -23 -54 q1 -32 23 -54 q22 -21 54 -22 l0 0 ZM702 -21 q233 3 386 126 q153 123 181 331 l-79 0 q-27 -176 -160 -278 q-134 -103 -328 -105 q-255 3 -403 183 q-148 179 -151 494 q3 307 150 482 q147 175 404 178 q190 -4 325 -117 q135 -114 163 -292 l79 0 q-28 211 -185 345 q-157 134 -382 138 q-294 -4 -463 -199 q-169 -194 -172 -535 q3 -348 172 -548 q169 -199 463 -203 l0 0 Z" /><glyph glyph-name="" unicode="ç" d="M1269 981 q-28 211 -185 345 q-157 134 -382 138 q-294 -4 -463 -199 q-169 -194 -172 -535 q3 -337 162 -535 q158 -198 436 -215 l-53 -130 l0 -43 l49 0 q78 0 119 -26 q41 -26 41 -76 q-1 -50 -45 -81 q-44 -31 -114 -32 q-35 0 -67 4 q-33 5 -55 13 l0 -56 q25 -8 59 -12 q34 -5 69 -4 q98 1 157 48 q58 46 60 122 q-1 73 -54 112 q-53 40 -153 40 l50 120 q222 10 368 133 q146 122 173 324 l-79 0 q-27 -176 -160 -278 q-134 -103 -328 -105 q-255 3 -403 183 q-148 179 -151 494 q3 307 150 482 q147 175 404 178 q190 -4 325 -117 q135 -114 163 -292 l79 0 Z" /><glyph glyph-name="" unicode="&#x1e08;" d="M1031 1844 l-96 0 l-279 -290 l78 0 l297 290 ZM1269 981 q-28 211 -185 345 q-157 134 -382 138 q-294 -4 -463 -199 q-169 -194 -172 -535 q3 -337 162 -535 q158 -198 436 -215 l-53 -130 l0 -43 l49 0 q78 0 119 -26 q41 -26 41 -76 q-1 -50 -45 -81 q-44 -31 -114 -32 q-35 0 -67 4 q-33 5 -55 13 l0 -56 q25 -8 59 -12 q34 -5 69 -4 q98 1 157 48 q58 46 60 122 q-1 73 -54 112 q-53 40 -153 40 l50 120 q222 10 368 133 q146 122 173 324 l-79 0 q-27 -176 -160 -278 q-134 -103 -328 -105 q-255 3 -403 183 q-148 179 -151 494 q3 307 150 482 q147 175 404 178 q190 -4 325 -117 q135 -114 163 -292 l79 0 Z" /><glyph glyph-name="" unicode="d" d="M128 1443 l0 -1443 l449 0 q330 2 508 189 q178 187 180 533 q-2 346 -180 532 q-178 187 -508 189 l-449 0 ZM208 1370 l365 0 q296 -1 453 -168 q158 -167 159 -481 q-1 -313 -159 -480 q-157 -166 -453 -168 l-365 0 l0 1297 Z" /><glyph glyph-name="" unicode="&#x1e0a;" d="M552 1563 q32 1 54 22 q22 22 23 54 q-1 32 -23 54 q-22 21 -54 22 q-32 -1 -54 -22 q-22 -22 -23 -54 q1 -32 23 -54 q22 -21 54 -22 l0 0 ZM128 1443 l0 -1443 l449 0 q330 2 508 189 q178 187 180 533 q-2 346 -180 532 q-178 187 -508 189 l-449 0 ZM208 1370 l365 0 q296 -1 453 -168 q158 -167 159 -481 q-1 -313 -159 -480 q-157 -166 -453 -168 l-365 0 l0 1297 Z" /><glyph glyph-name="" unicode="&#x1e12;" d="M128 1443 l0 -1443 l449 0 q330 2 508 189 q178 187 180 533 q-2 346 -180 532 q-178 187 -508 189 l-449 0 ZM208 1370 l365 0 q296 -1 453 -168 q158 -167 159 -481 q-1 -313 -159 -480 q-157 -166 -453 -168 l-365 0 l0 1297 ZM518 -147 l-271 -290 l83 0 l221 238 l2 0 l221 -238 l83 0 l-271 290 l-68 0 Z" /><glyph glyph-name="" unicode="&#x1e10;" d="M495 -493 l114 344 l-78 0 l-99 -344 l63 0 ZM128 1443 l0 -1443 l449 0 q330 2 508 189 q178 187 180 533 q-2 346 -180 532 q-178 187 -508 189 l-449 0 ZM208 1370 l365 0 q296 -1 453 -168 q158 -167 159 -481 q-1 -313 -159 -480 q-157 -166 -453 -168 l-365 0 l0 1297 Z" /><glyph glyph-name="" unicode="&#x1e0e;" d="M842 -205 l-580 0 l0 -57 l580 0 l0 57 ZM128 1443 l0 -1443 l449 0 q330 2 508 189 q178 187 180 533 q-2 346 -180 532 q-178 187 -508 189 l-449 0 ZM208 1370 l365 0 q296 -1 453 -168 q158 -167 159 -481 q-1 -313 -159 -480 q-157 -166 -453 -168 l-365 0 l0 1297 Z" /><glyph glyph-name="" unicode="&#x10e;" d="M518 1553 l68 0 l271 290 l-83 0 l-221 -239 l-2 0 l-221 239 l-83 0 l271 -290 ZM128 1443 l0 -1443 l449 0 q330 2 508 189 q178 187 180 533 q-2 346 -180 532 q-178 187 -508 189 l-449 0 ZM208 1370 l365 0 q296 -1 453 -168 q158 -167 159 -481 q-1 -313 -159 -480 q-157 -166 -453 -168 l-365 0 l0 1297 Z" /><glyph glyph-name="" unicode="&#x1e0c;" d="M552 -295 q32 1 54 22 q22 22 23 54 q-1 32 -23 54 q-22 21 -54 22 q-32 -1 -54 -22 q-22 -22 -23 -54 q1 -32 23 -54 q22 -21 54 -22 l0 0 ZM128 1443 l0 -1443 l449 0 q330 2 508 189 q178 187 180 533 q-2 346 -180 532 q-178 187 -508 189 l-449 0 ZM208 1370 l365 0 q296 -1 453 -168 q158 -167 159 -481 q-1 -313 -159 -480 q-157 -166 -453 -168 l-365 0 l0 1297 Z" /><glyph glyph-name="" unicode="&#x110;" d="M226 73 l0 632 l358 0 l0 73 l-358 0 l0 592 l365 0 q296 -1 453 -168 q158 -167 159 -481 q-1 -313 -159 -480 q-157 -166 -453 -168 l-365 0 ZM146 1443 l0 -665 l-123 0 l0 -73 l123 0 l0 -705 l449 0 q330 2 508 189 q178 187 180 533 q-2 346 -180 532 q-178 187 -508 189 l-449 0 Z" /><glyph glyph-name="" unicode="e" d="M969 73 l-762 0 l0 631 l726 0 l0 72 l-726 0 l0 594 l762 0 l0 73 l-841 0 l0 -1443 l841 0 l0 73 Z" /><glyph glyph-name="" unicode="è" d="M517 1553 l78 0 l-280 290 l-95 0 l297 -290 ZM969 73 l-762 0 l0 631 l726 0 l0 72 l-726 0 l0 594 l762 0 l0 73 l-841 0 l0 -1443 l841 0 l0 73 Z" /><glyph glyph-name="" unicode="&#x204;" d="M637 1553 l75 0 l-280 290 l-93 0 l298 -290 ZM370 1553 l75 0 l-280 290 l-92 0 l297 -290 ZM969 73 l-762 0 l0 631 l726 0 l0 72 l-726 0 l0 594 l762 0 l0 73 l-841 0 l0 -1443 l841 0 l0 73 Z" /><glyph glyph-name="" unicode="é" d="M580 1553 l297 290 l-96 0 l-279 -290 l78 0 ZM969 73 l-762 0 l0 631 l726 0 l0 72 l-726 0 l0 594 l762 0 l0 73 l-841 0 l0 -1443 l841 0 l0 73 Z" /><glyph glyph-name="" unicode="ê" d="M514 1843 l-271 -290 l83 0 l221 238 l2 0 l221 -238 l83 0 l-271 290 l-68 0 ZM969 73 l-762 0 l0 631 l726 0 l0 72 l-726 0 l0 594 l762 0 l0 73 l-841 0 l0 -1443 l841 0 l0 73 Z" /><glyph glyph-name="" unicode="&#x1ec2;" d="M969 73 l-762 0 l0 631 l726 0 l0 72 l-726 0 l0 594 l762 0 l0 73 l-841 0 l0 -1443 l841 0 l0 73 ZM513 1768 l-265 -208 l93 0 l205 160 l6 0 l204 -160 l93 0 l-265 208 l-71 0 ZM671 1903 q15 10 41 16 q25 7 50 7 q41 -1 66 -21 q24 -20 25 -54 q0 -29 -19 -53 q-20 -24 -55 -40 l39 -38 q45 20 71 55 q25 35 25 79 q-1 56 -40 90 q-39 34 -104 35 q-28 0 -55 -7 q-26 -7 -44 -19 l0 -50 Z" /><glyph glyph-name="" unicode="&#x1ec0;" d="M969 73 l-762 0 l0 631 l726 0 l0 72 l-726 0 l0 594 l762 0 l0 73 l-841 0 l0 -1443 l841 0 l0 73 ZM513 1768 l-266 -208 l93 0 l205 160 l6 0 l205 -160 l93 0 l-266 208 l-70 0 ZM887 1776 l-207 203 l-91 0 l224 -203 l74 0 Z" /><glyph glyph-name="" unicode="&#x1ec4;" d="M667 1824 q70 1 108 51 q39 50 39 132 l-59 0 q0 -58 -22 -92 q-21 -34 -67 -35 q-62 9 -103 73 q-41 63 -131 72 q-72 -1 -110 -51 q-38 -49 -38 -131 l59 0 q0 58 22 92 q22 33 68 34 q65 -9 105 -72 q40 -64 129 -73 l0 0 ZM513 1762 l-266 -202 l93 0 l205 155 l6 0 l205 -155 l93 0 l-266 202 l-70 0 ZM969 73 l-762 0 l0 631 l726 0 l0 72 l-726 0 l0 594 l762 0 l0 73 l-841 0 l0 -1443 l841 0 l0 73 Z" /><glyph glyph-name="" unicode="&#x1ec6;" d="M548 -295 q32 1 54 22 q22 22 23 54 q-1 32 -23 54 q-22 21 -54 22 q-32 -1 -54 -22 q-22 -22 -23 -54 q1 -32 23 -54 q22 -21 54 -22 l0 0 ZM514 1843 l-271 -290 l83 0 l221 238 l2 0 l221 -238 l83 0 l-271 290 l-68 0 ZM969 73 l-762 0 l0 631 l726 0 l0 72 l-726 0 l0 594 l762 0 l0 73 l-841 0 l0 -1443 l841 0 l0 73 Z" /><glyph glyph-name="" unicode="&#x1ebe;" d="M969 73 l-762 0 l0 631 l726 0 l0 72 l-726 0 l0 594 l762 0 l0 73 l-841 0 l0 -1443 l841 0 l0 73 ZM514 1768 l-266 -208 l93 0 l205 160 l6 0 l205 -160 l93 0 l-266 208 l-70 0 ZM714 1776 l74 0 l224 203 l-91 0 l-207 -203 Z" /><glyph glyph-name="" unicode="ë" d="M396 1563 q28 1 47 20 q19 19 20 47 q-1 28 -20 47 q-19 18 -47 19 q-29 -1 -48 -19 q-19 -19 -20 -47 q1 -28 20 -47 q19 -19 48 -20 l0 0 ZM700 1563 q29 1 48 20 q19 19 20 47 q-1 28 -20 47 q-19 18 -48 19 q-28 -1 -47 -19 q-19 -19 -20 -47 q1 -28 20 -47 q19 -19 47 -20 l0 0 ZM969 73 l-762 0 l0 631 l726 0 l0 72 l-726 0 l0 594 l762 0 l0 73 l-841 0 l0 -1443 l841 0 l0 73 Z" /><glyph glyph-name="" unicode="&#x1eb8;" d="M548 -295 q32 1 54 22 q22 22 23 54 q-1 32 -23 54 q-22 21 -54 22 q-32 -1 -54 -22 q-22 -22 -23 -54 q1 -32 23 -54 q22 -21 54 -22 l0 0 ZM969 73 l-762 0 l0 631 l726 0 l0 72 l-726 0 l0 594 l762 0 l0 73 l-841 0 l0 -1443 l841 0 l0 73 Z" /><glyph glyph-name="" unicode="&#x206;" d="M969 73 l-762 0 l0 631 l726 0 l0 72 l-726 0 l0 594 l762 0 l0 73 l-841 0 l0 -1443 l841 0 l0 73 ZM279 1553 l61 0 q1 77 58 127 q56 50 150 52 q94 -2 151 -52 q56 -50 57 -127 l61 0 q-2 109 -76 172 q-74 63 -193 64 q-119 -1 -193 -64 q-74 -63 -76 -172 l0 0 Z" /><glyph glyph-name="" unicode="&#x1eba;" d="M969 73 l-762 0 l0 631 l726 0 l0 72 l-726 0 l0 594 l762 0 l0 73 l-841 0 l0 -1443 l841 0 l0 73 ZM406 1750 q18 11 47 18 q30 8 59 8 q46 -1 74 -23 q28 -23 29 -61 q-1 -33 -23 -61 q-22 -28 -59 -44 l34 -42 q53 23 83 62 q30 39 30 88 q-1 62 -44 99 q-43 36 -115 37 q-34 0 -65 -8 q-31 -8 -50 -19 l0 -54 Z" /><glyph glyph-name="" unicode="&#x11a;" d="M514 1553 l68 0 l271 290 l-83 0 l-221 -239 l-2 0 l-221 239 l-83 0 l271 -290 ZM969 73 l-762 0 l0 631 l726 0 l0 72 l-726 0 l0 594 l762 0 l0 73 l-841 0 l0 -1443 l841 0 l0 73 Z" /><glyph glyph-name="" unicode="&#x112;" d="M969 73 l-762 0 l0 631 l726 0 l0 72 l-726 0 l0 594 l762 0 l0 73 l-841 0 l0 -1443 l841 0 l0 73 ZM838 1679 l-580 0 l0 -57 l580 0 l0 57 Z" /><glyph glyph-name="" unicode="&#x1e14;" d="M258 1622 l580 0 l0 57 l-580 0 l0 -57 ZM597 1776 l-207 203 l-91 0 l224 -203 l74 0 ZM969 73 l-762 0 l0 631 l726 0 l0 72 l-726 0 l0 594 l762 0 l0 73 l-841 0 l0 -1443 l841 0 l0 73 Z" /><glyph glyph-name="" unicode="&#x1e16;" d="M838 1622 l0 57 l-580 0 l0 -57 l580 0 ZM499 1776 l74 0 l224 203 l-91 0 l-207 -203 ZM969 73 l-762 0 l0 631 l726 0 l0 72 l-726 0 l0 594 l762 0 l0 73 l-841 0 l0 -1443 l841 0 l0 73 Z" /><glyph glyph-name="" unicode="&#x1ebc;" d="M969 73 l-762 0 l0 631 l726 0 l0 72 l-726 0 l0 594 l762 0 l0 73 l-841 0 l0 -1443 l841 0 l0 73 ZM683 1549 q74 2 112 59 q38 58 38 154 l-61 0 q0 -70 -21 -111 q-21 -42 -68 -43 q-68 10 -121 82 q-54 72 -148 82 q-75 -1 -112 -58 q-38 -57 -38 -154 l60 0 q0 69 22 111 q21 41 69 42 q70 -10 122 -82 q53 -72 146 -82 l0 0 Z" /><glyph glyph-name="" unicode="&#x1e18;" d="M969 73 l-762 0 l0 631 l726 0 l0 72 l-726 0 l0 594 l762 0 l0 73 l-841 0 l0 -1443 l841 0 l0 73 ZM514 -147 l-271 -290 l83 0 l221 238 l2 0 l221 -238 l83 0 l-271 290 l-68 0 Z" /><glyph glyph-name="" unicode="&#x114;" d="M969 73 l-762 0 l0 631 l726 0 l0 72 l-726 0 l0 594 l762 0 l0 73 l-841 0 l0 -1443 l841 0 l0 73 ZM279 1789 q2 -109 76 -172 q74 -63 193 -64 q119 1 193 64 q74 63 76 172 l-61 0 q-1 -78 -57 -128 q-57 -50 -151 -52 q-94 2 -150 52 q-57 50 -58 128 l-61 0 Z" /><glyph glyph-name="" unicode="&#x1e1a;" d="M683 -366 q74 2 112 59 q38 58 38 154 l-61 0 q0 -70 -21 -111 q-21 -42 -68 -43 q-68 10 -121 82 q-54 72 -148 82 q-75 -1 -112 -58 q-38 -57 -38 -154 l60 0 q0 69 22 111 q21 41 69 42 q70 -10 122 -82 q53 -72 146 -82 l0 0 ZM969 73 l-762 0 l0 631 l726 0 l0 72 l-726 0 l0 594 l762 0 l0 73 l-841 0 l0 -1443 l841 0 l0 73 Z" /><glyph glyph-name="" unicode="&#x116;" d="M548 1563 q32 1 54 22 q22 22 23 54 q-1 32 -23 54 q-22 21 -54 22 q-32 -1 -54 -22 q-22 -22 -23 -54 q1 -32 23 -54 q22 -21 54 -22 l0 0 ZM969 73 l-762 0 l0 631 l726 0 l0 72 l-726 0 l0 594 l762 0 l0 73 l-841 0 l0 -1443 l841 0 l0 73 Z" /><glyph glyph-name="" unicode="&#x228;" d="M969 1370 l0 73 l-841 0 l0 -1443 l391 0 l-61 -150 l0 -43 l49 0 q78 0 119 -26 q41 -26 41 -76 q-1 -50 -45 -81 q-44 -31 -114 -32 q-35 0 -67 4 q-33 5 -55 13 l0 -56 q25 -8 59 -12 q34 -5 69 -4 q98 1 157 48 q58 46 60 122 q-1 73 -54 112 q-53 40 -153 40 l58 141 l387 0 l0 73 l-762 0 l0 631 l726 0 l0 72 l-726 0 l0 594 l762 0 Z" /><glyph glyph-name="" unicode="&#x1e1c;" d="M756 1789 q-1 -78 -57 -128 q-57 -50 -151 -52 q-94 2 -150 52 q-57 50 -58 128 l-61 0 q2 -109 76 -172 q74 -63 193 -64 q119 1 193 64 q74 63 76 172 l-61 0 ZM969 1370 l0 73 l-841 0 l0 -1443 l391 0 l-61 -150 l0 -43 l49 0 q78 0 119 -26 q41 -26 41 -76 q-1 -50 -45 -81 q-44 -31 -114 -32 q-35 0 -67 4 q-33 5 -55 13 l0 -56 q25 -8 59 -12 q34 -5 69 -4 q98 1 157 48 q58 46 60 122 q-1 73 -54 112 q-53 40 -153 40 l58 141 l387 0 l0 73 l-762 0 l0 631 l726 0 l0 72 l-726 0 l0 594 l762 0 Z" /><glyph glyph-name="" unicode="&#x118;" d="M858 -395 q24 0 45 3 q20 3 34 8 l0 64 q-9 -3 -28 -5 q-18 -2 -40 -2 q-62 1 -100 34 q-38 33 -39 87 q1 65 60 118 q59 53 159 86 l20 7 l0 68 l-762 0 l0 631 l726 0 l0 72 l-726 0 l0 594 l762 0 l0 73 l-841 0 l0 -1443 l697 0 l0 -4 q-79 -35 -124 -91 q-46 -56 -47 -122 q2 -79 57 -128 q56 -49 147 -50 l0 0 Z" /><glyph glyph-name="" unicode="f" d="M207 0 l0 695 l691 0 l0 72 l-691 0 l0 603 l751 0 l0 73 l-830 0 l0 -1443 l79 0 Z" /><glyph glyph-name="" unicode="&#x1e1e;" d="M543 1563 q32 1 54 22 q22 22 23 54 q-1 32 -23 54 q-22 21 -54 22 q-32 -1 -54 -22 q-22 -22 -23 -54 q1 -32 23 -54 q22 -21 54 -22 l0 0 ZM207 0 l0 695 l691 0 l0 72 l-691 0 l0 603 l751 0 l0 73 l-830 0 l0 -1443 l79 0 Z" /><glyph glyph-name="" unicode="g" d="M1281 571 l0 143 l-582 0 l0 -72 l503 0 l0 -83 q-2 -236 -135 -370 q-133 -134 -368 -136 q-250 4 -399 187 q-148 182 -152 491 q3 303 150 479 q147 176 401 180 q185 -2 316 -99 q131 -96 176 -264 l81 0 q-44 199 -198 317 q-154 117 -375 120 q-289 -4 -458 -201 q-170 -197 -174 -533 q4 -341 175 -543 q171 -203 457 -208 q274 3 427 158 q153 156 155 434 l0 0 Z" /><glyph glyph-name="" unicode="&#x1f4;" d="M731 1553 l297 290 l-96 0 l-279 -290 l78 0 ZM1281 571 l0 143 l-582 0 l0 -72 l503 0 l0 -83 q-2 -236 -135 -370 q-133 -134 -368 -136 q-250 4 -399 187 q-148 182 -152 491 q3 303 150 479 q147 176 401 180 q185 -2 316 -99 q131 -96 176 -264 l81 0 q-44 199 -198 317 q-154 117 -375 120 q-289 -4 -458 -201 q-170 -197 -174 -533 q4 -341 175 -543 q171 -203 457 -208 q274 3 427 158 q153 156 155 434 l0 0 Z" /><glyph glyph-name="" unicode="&#x1e6;" d="M665 1553 l68 0 l271 290 l-83 0 l-221 -239 l-2 0 l-221 239 l-83 0 l271 -290 ZM1281 571 l0 143 l-582 0 l0 -72 l503 0 l0 -83 q-2 -236 -135 -370 q-133 -134 -368 -136 q-250 4 -399 187 q-148 182 -152 491 q3 303 150 479 q147 176 401 180 q185 -2 316 -99 q131 -96 176 -264 l81 0 q-44 199 -198 317 q-154 117 -375 120 q-289 -4 -458 -201 q-170 -197 -174 -533 q4 -341 175 -543 q171 -203 457 -208 q274 3 427 158 q153 156 155 434 l0 0 Z" /><glyph glyph-name="" unicode="&#x11c;" d="M665 1843 l-271 -290 l83 0 l221 238 l2 0 l221 -238 l83 0 l-271 290 l-68 0 ZM1281 571 l0 143 l-582 0 l0 -72 l503 0 l0 -83 q-2 -236 -135 -370 q-133 -134 -368 -136 q-250 4 -399 187 q-148 182 -152 491 q3 303 150 479 q147 176 401 180 q185 -2 316 -99 q131 -96 176 -264 l81 0 q-44 199 -198 317 q-154 117 -375 120 q-289 -4 -458 -201 q-170 -197 -174 -533 q4 -341 175 -543 q171 -203 457 -208 q274 3 427 158 q153 156 155 434 l0 0 Z" /><glyph glyph-name="" unicode="&#x11e;" d="M1281 571 l0 143 l-582 0 l0 -72 l503 0 l0 -83 q-2 -236 -135 -370 q-133 -134 -368 -136 q-250 4 -399 187 q-148 182 -152 491 q3 303 150 479 q147 176 401 180 q185 -2 316 -99 q131 -96 176 -264 l81 0 q-44 199 -198 317 q-154 117 -375 120 q-289 -4 -458 -201 q-170 -197 -174 -533 q4 -341 175 -543 q171 -203 457 -208 q274 3 427 158 q153 156 155 434 l0 0 ZM430 1789 q2 -109 76 -172 q74 -63 193 -64 q119 1 193 64 q74 63 76 172 l-61 0 q-1 -78 -57 -128 q-57 -50 -151 -52 q-94 2 -150 52 q-57 50 -58 128 l-61 0 Z" /><glyph glyph-name="" unicode="&#x1e20;" d="M1281 571 l0 143 l-582 0 l0 -72 l503 0 l0 -83 q-2 -236 -135 -370 q-133 -134 -368 -136 q-250 4 -399 187 q-148 182 -152 491 q3 303 150 479 q147 176 401 180 q185 -2 316 -99 q131 -96 176 -264 l81 0 q-44 199 -198 317 q-154 117 -375 120 q-289 -4 -458 -201 q-170 -197 -174 -533 q4 -341 175 -543 q171 -203 457 -208 q274 3 427 158 q153 156 155 434 l0 0 ZM989 1679 l-580 0 l0 -57 l580 0 l0 57 Z" /><glyph glyph-name="" unicode="&#x120;" d="M699 1563 q32 1 54 22 q22 22 23 54 q-1 32 -23 54 q-22 21 -54 22 q-32 -1 -54 -22 q-22 -22 -23 -54 q1 -32 23 -54 q22 -21 54 -22 l0 0 ZM1281 571 l0 143 l-582 0 l0 -72 l503 0 l0 -83 q-2 -236 -135 -370 q-133 -134 -368 -136 q-250 4 -399 187 q-148 182 -152 491 q3 303 150 479 q147 176 401 180 q185 -2 316 -99 q131 -96 176 -264 l81 0 q-44 199 -198 317 q-154 117 -375 120 q-289 -4 -458 -201 q-170 -197 -174 -533 q4 -341 175 -543 q171 -203 457 -208 q274 3 427 158 q153 156 155 434 l0 0 Z" /><glyph glyph-name="" unicode="&#x122;" d="M642 -493 l114 344 l-78 0 l-99 -344 l63 0 ZM1281 571 l0 143 l-582 0 l0 -72 l503 0 l0 -83 q-2 -236 -135 -370 q-133 -134 -368 -136 q-250 4 -399 187 q-148 182 -152 491 q3 303 150 479 q147 176 401 180 q185 -2 316 -99 q131 -96 176 -264 l81 0 q-44 199 -198 317 q-154 117 -375 120 q-289 -4 -458 -201 q-170 -197 -174 -533 q4 -341 175 -543 q171 -203 457 -208 q274 3 427 158 q153 156 155 434 l0 0 Z" /><glyph glyph-name="" unicode="h" d="M1199 0 l0 1443 l-79 0 l0 -666 l-913 0 l0 666 l-79 0 l0 -1443 l79 0 l0 705 l913 0 l0 -705 l79 0 Z" /><glyph glyph-name="" unicode="&#x1e26;" d="M1199 0 l0 1443 l-79 0 l0 -666 l-913 0 l0 666 l-79 0 l0 -1443 l79 0 l0 705 l913 0 l0 -705 l79 0 ZM511 1563 q28 1 47 20 q19 19 20 47 q-1 28 -20 47 q-19 18 -47 19 q-29 -1 -48 -19 q-19 -19 -20 -47 q1 -28 20 -47 q19 -19 48 -20 l0 0 ZM815 1563 q29 1 48 20 q19 19 20 47 q-1 28 -20 47 q-19 18 -48 19 q-28 -1 -47 -19 q-19 -19 -20 -47 q1 -28 20 -47 q19 -19 47 -20 l0 0 Z" /><glyph glyph-name="" unicode="&#x21e;" d="M1199 0 l0 1443 l-79 0 l0 -666 l-913 0 l0 666 l-79 0 l0 -1443 l79 0 l0 705 l913 0 l0 -705 l79 0 ZM629 1553 l68 0 l271 290 l-83 0 l-221 -239 l-2 0 l-221 239 l-83 0 l271 -290 Z" /><glyph glyph-name="" unicode="&#x124;" d="M1199 0 l0 1443 l-79 0 l0 -666 l-913 0 l0 666 l-79 0 l0 -1443 l79 0 l0 705 l913 0 l0 -705 l79 0 ZM629 1843 l-271 -290 l83 0 l221 238 l2 0 l221 -238 l83 0 l-271 290 l-68 0 Z" /><glyph glyph-name="" unicode="&#x1e24;" d="M1199 0 l0 1443 l-79 0 l0 -666 l-913 0 l0 666 l-79 0 l0 -1443 l79 0 l0 705 l913 0 l0 -705 l79 0 ZM663 -295 q32 1 54 22 q22 22 23 54 q-1 32 -23 54 q-22 21 -54 22 q-32 -1 -54 -22 q-22 -22 -23 -54 q1 -32 23 -54 q22 -21 54 -22 l0 0 Z" /><glyph glyph-name="" unicode="&#x1e22;" d="M1199 0 l0 1443 l-79 0 l0 -666 l-913 0 l0 666 l-79 0 l0 -1443 l79 0 l0 705 l913 0 l0 -705 l79 0 ZM663 1563 q32 1 54 22 q22 22 23 54 q-1 32 -23 54 q-22 21 -54 22 q-32 -1 -54 -22 q-22 -22 -23 -54 q1 -32 23 -54 q22 -21 54 -22 l0 0 Z" /><glyph glyph-name="" unicode="&#x1e2a;" d="M394 -155 q2 -109 76 -172 q74 -63 193 -64 q119 1 193 64 q74 63 76 172 l-61 0 q-1 -78 -57 -128 q-57 -50 -151 -52 q-94 2 -150 52 q-57 50 -58 128 l-61 0 ZM1199 0 l0 1443 l-79 0 l0 -666 l-913 0 l0 666 l-79 0 l0 -1443 l79 0 l0 705 l913 0 l0 -705 l79 0 Z" /><glyph glyph-name="" unicode="&#x1e28;" d="M1120 1443 l0 -666 l-913 0 l0 666 l-79 0 l0 -1443 l17 0 l-61 -150 l0 -43 l49 0 q78 0 119 -26 q41 -26 41 -76 q-1 -50 -45 -81 q-44 -31 -114 -32 q-35 0 -67 4 q-33 5 -55 13 l0 -56 q25 -8 59 -12 q34 -5 69 -4 q98 1 157 48 q58 46 60 122 q-1 73 -54 112 q-53 40 -153 40 l58 141 l0 7 l-1 0 l0 698 l913 0 l0 -705 l79 0 l0 1443 l-79 0 Z" /><glyph glyph-name="" unicode="&#x126;" d="M1137 777 l-913 0 l0 345 l913 0 l0 -345 ZM1342 1189 l-126 0 l0 254 l-79 0 l0 -254 l-913 0 l0 254 l-79 0 l0 -254 l-127 0 l0 -67 l127 0 l0 -1122 l79 0 l0 705 l913 0 l0 -705 l79 0 l0 1122 l126 0 l0 67 Z" /><glyph glyph-name="" unicode="i" d="M207 0 l0 1443 l-79 0 l0 -1443 l79 0 Z" /><glyph glyph-name="" unicode="&#x130;" d="M207 0 l0 1443 l-79 0 l0 -1443 l79 0 ZM167 1563 q32 1 54 22 q22 22 23 54 q-1 32 -23 54 q-22 21 -54 22 q-32 -1 -54 -22 q-22 -22 -23 -54 q1 -32 23 -54 q22 -21 54 -22 l0 0 Z" /><glyph glyph-name="" unicode="ì" d="M207 0 l0 1443 l-79 0 l0 -1443 l79 0 ZM136 1553 l78 0 l-280 290 l-95 0 l297 -290 Z" /><glyph glyph-name="" unicode="&#x208;" d="M207 0 l0 1443 l-79 0 l0 -1443 l79 0 ZM256 1553 l75 0 l-280 290 l-93 0 l298 -290 ZM-11 1553 l75 0 l-280 290 l-92 0 l297 -290 Z" /><glyph glyph-name="" unicode="í" d="M207 0 l0 1443 l-79 0 l0 -1443 l79 0 ZM199 1553 l297 290 l-96 0 l-279 -290 l78 0 Z" /><glyph glyph-name="" unicode="î" d="M207 0 l0 1443 l-79 0 l0 -1443 l79 0 ZM133 1843 l-271 -290 l83 0 l221 238 l2 0 l221 -238 l83 0 l-271 290 l-68 0 Z" /><glyph glyph-name="" unicode="&#x1cf;" d="M207 0 l0 1443 l-79 0 l0 -1443 l79 0 ZM133 1553 l68 0 l271 290 l-83 0 l-221 -239 l-2 0 l-221 239 l-83 0 l271 -290 Z" /><glyph glyph-name="" unicode="ï" d="M207 0 l0 1443 l-79 0 l0 -1443 l79 0 ZM15 1563 q28 1 47 20 q19 19 20 47 q-1 28 -20 47 q-19 18 -47 19 q-29 -1 -48 -19 q-19 -19 -20 -47 q1 -28 20 -47 q19 -19 48 -20 l0 0 ZM319 1563 q29 1 48 20 q19 19 20 47 q-1 28 -20 47 q-19 18 -48 19 q-28 -1 -47 -19 q-19 -19 -20 -47 q1 -28 20 -47 q19 -19 47 -20 l0 0 Z" /><glyph glyph-name="" unicode="&#x1e2e;" d="M207 0 l0 1443 l-79 0 l0 -1443 l79 0 ZM118 1776 l74 0 l224 203 l-91 0 l-207 -203 ZM18 1565 q26 1 44 18 q18 18 19 45 q-1 26 -19 44 q-18 18 -44 19 q-27 -1 -45 -19 q-18 -18 -19 -44 q1 -27 19 -45 q18 -17 45 -18 l0 0 ZM316 1565 q27 1 45 18 q18 18 19 45 q-1 26 -19 44 q-18 18 -45 19 q-26 -1 -44 -19 q-18 -18 -19 -44 q1 -27 19 -45 q18 -17 44 -18 l0 0 Z" /><glyph glyph-name="" unicode="&#x12c;" d="M207 0 l0 1443 l-79 0 l0 -1443 l79 0 ZM-102 1789 q2 -109 76 -172 q74 -63 193 -64 q119 1 193 64 q74 63 76 172 l-61 0 q-1 -78 -57 -128 q-57 -50 -151 -52 q-94 2 -150 52 q-57 50 -58 128 l-61 0 Z" /><glyph glyph-name="" unicode="&#x1eca;" d="M207 0 l0 1443 l-79 0 l0 -1443 l79 0 ZM167 -295 q32 1 54 22 q22 22 23 54 q-1 32 -23 54 q-22 21 -54 22 q-32 -1 -54 -22 q-22 -22 -23 -54 q1 -32 23 -54 q22 -21 54 -22 l0 0 Z" /><glyph glyph-name="" unicode="&#x20a;" d="M207 0 l0 1443 l-79 0 l0 -1443 l79 0 ZM-102 1553 l61 0 q1 77 58 127 q56 50 150 52 q94 -2 151 -52 q56 -50 57 -127 l61 0 q-2 109 -76 172 q-74 63 -193 64 q-119 -1 -193 -64 q-74 -63 -76 -172 l0 0 Z" /><glyph glyph-name="" unicode="&#x12a;" d="M207 0 l0 1443 l-79 0 l0 -1443 l79 0 ZM457 1679 l-580 0 l0 -57 l580 0 l0 57 Z" /><glyph glyph-name="" unicode="&#x1e2c;" d="M207 0 l0 1443 l-79 0 l0 -1443 l79 0 ZM302 -366 q74 2 112 59 q38 58 38 154 l-61 0 q0 -70 -21 -111 q-21 -42 -68 -43 q-68 10 -121 82 q-54 72 -148 82 q-75 -1 -112 -58 q-38 -57 -38 -154 l60 0 q0 69 22 111 q21 41 69 42 q70 -10 122 -82 q53 -72 146 -82 l0 0 Z" /><glyph glyph-name="" unicode="&#x1ec8;" d="M207 0 l0 1443 l-79 0 l0 -1443 l79 0 ZM25 1750 q18 11 47 18 q30 8 59 8 q46 -1 74 -23 q28 -23 29 -61 q-1 -33 -23 -61 q-22 -28 -59 -44 l34 -42 q53 23 83 62 q30 39 30 88 q-1 62 -44 99 q-43 36 -115 37 q-34 0 -65 -8 q-31 -8 -50 -19 l0 -54 Z" /><glyph glyph-name="" unicode="&#x128;" d="M207 0 l0 1443 l-79 0 l0 -1443 l79 0 ZM302 1549 q74 2 112 59 q38 58 38 154 l-61 0 q0 -70 -21 -111 q-21 -42 -68 -43 q-68 10 -121 82 q-54 72 -148 82 q-75 -1 -112 -58 q-38 -57 -38 -154 l60 0 q0 69 22 111 q21 41 69 42 q70 -10 122 -82 q53 -72 146 -82 l0 0 Z" /><glyph glyph-name="" unicode="&#x12e;" d="M128 13 q-78 -40 -120 -100 q-42 -60 -43 -131 q2 -79 57 -127 q56 -49 147 -50 q23 0 44 3 q21 3 36 8 l0 64 q-10 -3 -29 -5 q-19 -2 -40 -2 q-62 1 -100 34 q-38 33 -39 87 q0 59 41 111 q41 51 119 92 l6 3 l0 1443 l-79 0 l0 -1430 Z" /><glyph glyph-name="" unicode="j" d="M41 320 q7 -153 112 -247 q105 -94 273 -97 q188 2 292 110 q104 109 106 299 l0 1058 l-80 0 l0 -1054 q-1 -162 -84 -250 q-84 -88 -235 -89 q-131 2 -214 75 q-83 74 -92 195 l-78 0 Z" /><glyph glyph-name="" unicode="&#x134;" d="M41 320 q7 -153 112 -247 q105 -94 273 -97 q188 2 292 110 q104 109 106 299 l0 1058 l-80 0 l0 -1054 q-1 -162 -84 -250 q-84 -88 -235 -89 q-131 2 -214 75 q-83 74 -92 195 l-78 0 ZM750 1843 l-271 -290 l83 0 l221 238 l2 0 l221 -238 l83 0 l-271 290 l-68 0 Z" /><glyph glyph-name="" unicode="k" d="M207 0 l0 528 l207 223 l615 -751 l101 0 l-660 807 l594 636 l-101 0 l-750 -806 l-6 0 l0 806 l-79 0 l0 -1443 l79 0 Z" /><glyph glyph-name="" unicode="&#x1e30;" d="M576 1553 l297 290 l-96 0 l-279 -290 l78 0 ZM207 0 l0 528 l207 223 l615 -751 l101 0 l-660 807 l594 636 l-101 0 l-750 -806 l-6 0 l0 806 l-79 0 l0 -1443 l79 0 Z" /><glyph glyph-name="" unicode="&#x1e8;" d="M207 0 l0 528 l207 223 l615 -751 l101 0 l-660 807 l594 636 l-101 0 l-750 -806 l-6 0 l0 806 l-79 0 l0 -1443 l79 0 ZM510 1553 l68 0 l271 290 l-83 0 l-221 -239 l-2 0 l-221 239 l-83 0 l271 -290 Z" /><glyph glyph-name="" unicode="&#x1e32;" d="M544 -295 q32 1 54 22 q22 22 23 54 q-1 32 -23 54 q-22 21 -54 22 q-32 -1 -54 -22 q-22 -22 -23 -54 q1 -32 23 -54 q22 -21 54 -22 l0 0 ZM207 0 l0 528 l207 223 l615 -751 l101 0 l-660 807 l594 636 l-101 0 l-750 -806 l-6 0 l0 806 l-79 0 l0 -1443 l79 0 Z" /><glyph glyph-name="" unicode="&#x1e34;" d="M207 0 l0 528 l207 223 l615 -751 l101 0 l-660 807 l594 636 l-101 0 l-750 -806 l-6 0 l0 806 l-79 0 l0 -1443 l79 0 ZM834 -205 l-580 0 l0 -57 l580 0 l0 57 Z" /><glyph glyph-name="" unicode="&#x136;" d="M207 0 l0 528 l207 223 l615 -751 l101 0 l-660 807 l594 636 l-101 0 l-750 -806 l-6 0 l0 806 l-79 0 l0 -1443 l79 0 ZM487 -493 l114 344 l-78 0 l-99 -344 l63 0 Z" /><glyph glyph-name="" unicode="l" d="M964 73 l-757 0 l0 1370 l-79 0 l0 -1443 l836 0 l0 73 Z" /><glyph glyph-name="" unicode="&#x139;" d="M199 1553 l297 290 l-96 0 l-279 -290 l78 0 ZM964 73 l-757 0 l0 1370 l-79 0 l0 -1443 l836 0 l0 73 Z" /><glyph glyph-name="" unicode="&#x1e3c;" d="M964 73 l-757 0 l0 1370 l-79 0 l0 -1443 l836 0 l0 73 ZM512 -147 l-271 -290 l83 0 l221 238 l2 0 l221 -238 l83 0 l-271 290 l-68 0 Z" /><glyph glyph-name="" unicode="&#x1e36;" d="M546 -295 q32 1 54 22 q22 22 23 54 q-1 32 -23 54 q-22 21 -54 22 q-32 -1 -54 -22 q-22 -22 -23 -54 q1 -32 23 -54 q22 -21 54 -22 l0 0 ZM964 73 l-757 0 l0 1370 l-79 0 l0 -1443 l836 0 l0 73 Z" /><glyph glyph-name="" unicode="&#x1e38;" d="M546 -295 q32 1 54 22 q22 22 23 54 q-1 32 -23 54 q-22 21 -54 22 q-32 -1 -54 -22 q-22 -22 -23 -54 q1 -32 23 -54 q22 -21 54 -22 l0 0 ZM964 73 l-757 0 l0 1370 l-79 0 l0 -1443 l836 0 l0 73 ZM457 1679 l-580 0 l0 -57 l580 0 l0 57 Z" /><glyph glyph-name="" unicode="&#x1e3a;" d="M836 -205 l-580 0 l0 -57 l580 0 l0 57 ZM964 73 l-757 0 l0 1370 l-79 0 l0 -1443 l836 0 l0 73 Z" /><glyph glyph-name="" unicode="&#x13b;" d="M489 -493 l114 344 l-78 0 l-99 -344 l63 0 ZM964 73 l-757 0 l0 1370 l-79 0 l0 -1443 l836 0 l0 73 Z" /><glyph glyph-name="" unicode="&#x13d;" d="M449 1443 l0 -385 l56 0 l20 385 l-76 0 ZM964 73 l-757 0 l0 1370 l-79 0 l0 -1443 l836 0 l0 73 Z" /><glyph glyph-name="" unicode="&#x141;" d="M228 73 l0 684 l390 207 l0 68 l-390 -206 l0 617 l-79 0 l0 -659 l-127 -67 l0 -69 l127 67 l0 -715 l836 0 l0 73 l-757 0 Z" /><glyph glyph-name="" unicode="m" d="M1476 0 l0 1443 l-90 0 l-581 -1340 l-6 0 l-583 1340 l-88 0 l0 -1443 l76 0 l0 1279 l4 0 l556 -1276 l76 0 l556 1276 l4 0 l0 -1279 l76 0 Z" /><glyph glyph-name="" unicode="&#x1e3e;" d="M835 1553 l297 290 l-96 0 l-279 -290 l78 0 ZM1476 0 l0 1443 l-90 0 l-581 -1340 l-6 0 l-583 1340 l-88 0 l0 -1443 l76 0 l0 1279 l4 0 l556 -1276 l76 0 l556 1276 l4 0 l0 -1279 l76 0 Z" /><glyph glyph-name="" unicode="&#x1e40;" d="M803 1563 q32 1 54 22 q22 22 23 54 q-1 32 -23 54 q-22 21 -54 22 q-32 -1 -54 -22 q-22 -22 -23 -54 q1 -32 23 -54 q22 -21 54 -22 l0 0 ZM1476 0 l0 1443 l-90 0 l-581 -1340 l-6 0 l-583 1340 l-88 0 l0 -1443 l76 0 l0 1279 l4 0 l556 -1276 l76 0 l556 1276 l4 0 l0 -1279 l76 0 Z" /><glyph glyph-name="" unicode="&#x1e42;" d="M803 -295 q32 1 54 22 q22 22 23 54 q-1 32 -23 54 q-22 21 -54 22 q-32 -1 -54 -22 q-22 -22 -23 -54 q1 -32 23 -54 q22 -21 54 -22 l0 0 ZM1476 0 l0 1443 l-90 0 l-581 -1340 l-6 0 l-583 1340 l-88 0 l0 -1443 l76 0 l0 1279 l4 0 l556 -1276 l76 0 l556 1276 l4 0 l0 -1279 l76 0 Z" /><glyph glyph-name="" unicode="n" d="M206 0 l0 1307 l6 0 l927 -1307 l75 0 l0 1443 l-79 0 l0 -1299 l-6 0 l-919 1299 l-82 0 l0 -1443 l78 0 Z" /><glyph glyph-name="" unicode="&#x1f8;" d="M640 1553 l78 0 l-280 290 l-95 0 l297 -290 ZM206 0 l0 1307 l6 0 l927 -1307 l75 0 l0 1443 l-79 0 l0 -1299 l-6 0 l-919 1299 l-82 0 l0 -1443 l78 0 Z" /><glyph glyph-name="" unicode="&#x143;" d="M703 1553 l297 290 l-96 0 l-279 -290 l78 0 ZM206 0 l0 1307 l6 0 l927 -1307 l75 0 l0 1443 l-79 0 l0 -1299 l-6 0 l-919 1299 l-82 0 l0 -1443 l78 0 Z" /><glyph glyph-name="" unicode="ñ" d="M806 1549 q74 2 112 59 q38 58 38 154 l-61 0 q0 -70 -21 -111 q-21 -42 -68 -43 q-68 10 -121 82 q-54 72 -148 82 q-75 -1 -112 -58 q-38 -57 -38 -154 l60 0 q0 69 22 111 q21 41 69 42 q70 -10 122 -82 q53 -72 146 -82 l0 0 ZM206 0 l0 1307 l6 0 l927 -1307 l75 0 l0 1443 l-79 0 l0 -1299 l-6 0 l-919 1299 l-82 0 l0 -1443 l78 0 Z" /><glyph glyph-name="" unicode="&#x1e46;" d="M671 -295 q32 1 54 22 q22 22 23 54 q-1 32 -23 54 q-22 21 -54 22 q-32 -1 -54 -22 q-22 -22 -23 -54 q1 -32 23 -54 q22 -21 54 -22 l0 0 ZM206 0 l0 1307 l6 0 l927 -1307 l75 0 l0 1443 l-79 0 l0 -1299 l-6 0 l-919 1299 l-82 0 l0 -1443 l78 0 Z" /><glyph glyph-name="" unicode="&#x1e44;" d="M671 1563 q32 1 54 22 q22 22 23 54 q-1 32 -23 54 q-22 21 -54 22 q-32 -1 -54 -22 q-22 -22 -23 -54 q1 -32 23 -54 q22 -21 54 -22 l0 0 ZM206 0 l0 1307 l6 0 l927 -1307 l75 0 l0 1443 l-79 0 l0 -1299 l-6 0 l-919 1299 l-82 0 l0 -1443 l78 0 Z" /><glyph glyph-name="" unicode="&#x147;" d="M637 1553 l68 0 l271 290 l-83 0 l-221 -239 l-2 0 l-221 239 l-83 0 l271 -290 ZM206 0 l0 1307 l6 0 l927 -1307 l75 0 l0 1443 l-79 0 l0 -1299 l-6 0 l-919 1299 l-82 0 l0 -1443 l78 0 Z" /><glyph glyph-name="" unicode="&#x1e4a;" d="M206 0 l0 1307 l6 0 l927 -1307 l75 0 l0 1443 l-79 0 l0 -1299 l-6 0 l-919 1299 l-82 0 l0 -1443 l78 0 ZM637 -147 l-271 -290 l83 0 l221 238 l2 0 l221 -238 l83 0 l-271 290 l-68 0 Z" /><glyph glyph-name="" unicode="&#x1e48;" d="M961 -205 l-580 0 l0 -57 l580 0 l0 57 ZM206 0 l0 1307 l6 0 l927 -1307 l75 0 l0 1443 l-79 0 l0 -1299 l-6 0 l-919 1299 l-82 0 l0 -1443 l78 0 Z" /><glyph glyph-name="" unicode="&#x145;" d="M614 -493 l114 344 l-78 0 l-99 -344 l63 0 ZM206 0 l0 1307 l6 0 l927 -1307 l75 0 l0 1443 l-79 0 l0 -1299 l-6 0 l-919 1299 l-82 0 l0 -1443 l78 0 Z" /><glyph glyph-name="" unicode="o" d="M710 1464 q-298 -4 -469 -201 q-171 -197 -174 -541 q3 -346 174 -542 q170 -197 469 -201 q299 4 469 201 q171 196 174 542 q-3 344 -174 541 q-171 197 -469 201 l0 0 ZM710 1390 q260 -3 410 -181 q149 -177 152 -487 q-3 -310 -152 -488 q-150 -178 -410 -181 q-260 3 -410 181 q-149 178 -152 488 q3 310 152 487 q149 178 410 181 l0 0 Z" /><glyph glyph-name="" unicode="ö" d="M558 1563 q28 1 47 20 q19 19 20 47 q-1 28 -20 47 q-19 18 -47 19 q-29 -1 -48 -19 q-19 -19 -20 -47 q1 -28 20 -47 q19 -19 48 -20 l0 0 ZM862 1563 q29 1 48 20 q19 19 20 47 q-1 28 -20 47 q-19 18 -48 19 q-28 -1 -47 -19 q-19 -19 -20 -47 q1 -28 20 -47 q19 -19 47 -20 l0 0 ZM710 1464 q-298 -4 -469 -201 q-171 -197 -174 -541 q3 -346 174 -542 q170 -197 469 -201 q299 4 469 201 q171 196 174 542 q-3 344 -174 541 q-171 197 -469 201 l0 0 ZM710 1390 q260 -3 410 -181 q149 -177 152 -487 q-3 -310 -152 -488 q-150 -178 -410 -181 q-260 3 -410 181 q-149 178 -152 488 q3 310 152 487 q149 178 410 181 l0 0 Z" /><glyph glyph-name="" unicode="ø" d="M1136 1189 q66 -87 101 -205 q35 -118 35 -262 q-3 -310 -152 -488 q-150 -178 -410 -181 q-107 0 -198 33 q-90 33 -160 95 l784 1008 ZM308 226 q-78 88 -119 213 q-41 126 -41 283 q3 310 152 487 q149 178 410 181 q119 0 216 -40 q97 -39 169 -114 l-787 -1010 ZM1338 1449 l-50 35 l-144 -184 q-82 80 -191 122 q-110 42 -243 42 q-298 -4 -469 -201 q-171 -197 -174 -541 q0 -180 49 -322 q49 -142 141 -239 l-162 -208 l51 -37 l157 202 q80 -68 182 -103 q103 -36 225 -36 q299 4 469 201 q171 196 174 542 q0 167 -43 301 q-43 135 -123 231 l151 195 Z" /><glyph glyph-name="" unicode="õ" d="M710 1464 q-298 -4 -469 -201 q-171 -197 -174 -541 q3 -346 174 -542 q170 -197 469 -201 q299 4 469 201 q171 196 174 542 q-3 344 -174 541 q-171 197 -469 201 l0 0 ZM710 1390 q260 -3 410 -181 q149 -177 152 -487 q-3 -310 -152 -488 q-150 -178 -410 -181 q-260 3 -410 181 q-149 178 -152 488 q3 310 152 487 q149 178 410 181 l0 0 ZM845 1549 q74 2 112 59 q38 58 38 154 l-61 0 q0 -70 -21 -111 q-21 -42 -68 -43 q-68 10 -121 82 q-54 72 -148 82 q-75 -1 -112 -58 q-38 -57 -38 -154 l60 0 q0 69 22 111 q21 41 69 42 q70 -10 122 -82 q53 -72 146 -82 l0 0 Z" /><glyph glyph-name="" unicode="ó" d="M742 1553 l297 290 l-96 0 l-279 -290 l78 0 ZM710 1464 q-298 -4 -469 -201 q-171 -197 -174 -541 q3 -346 174 -542 q170 -197 469 -201 q299 4 469 201 q171 196 174 542 q-3 344 -174 541 q-171 197 -469 201 l0 0 ZM710 1390 q260 -3 410 -181 q149 -177 152 -487 q-3 -310 -152 -488 q-150 -178 -410 -181 q-260 3 -410 181 q-149 178 -152 488 q3 310 152 487 q149 178 410 181 l0 0 Z" /><glyph glyph-name="" unicode="ô" d="M676 1843 l-271 -290 l83 0 l221 238 l2 0 l221 -238 l83 0 l-271 290 l-68 0 ZM710 1464 q-298 -4 -469 -201 q-171 -197 -174 -541 q3 -346 174 -542 q170 -197 469 -201 q299 4 469 201 q171 196 174 542 q-3 344 -174 541 q-171 197 -469 201 l0 0 ZM710 1390 q260 -3 410 -181 q149 -177 152 -487 q-3 -310 -152 -488 q-150 -178 -410 -181 q-260 3 -410 181 q-149 178 -152 488 q3 310 152 487 q149 178 410 181 l0 0 Z" /><glyph glyph-name="" unicode="ò" d="M679 1553 l78 0 l-280 290 l-95 0 l297 -290 ZM710 1464 q-298 -4 -469 -201 q-171 -197 -174 -541 q3 -346 174 -542 q170 -197 469 -201 q299 4 469 201 q171 196 174 542 q-3 344 -174 541 q-171 197 -469 201 l0 0 ZM710 1390 q260 -3 410 -181 q149 -177 152 -487 q-3 -310 -152 -488 q-150 -178 -410 -181 q-260 3 -410 181 q-149 178 -152 488 q3 310 152 487 q149 178 410 181 l0 0 Z" /><glyph glyph-name="" unicode="&#x1ed4;" d="M675 1768 l-265 -208 l93 0 l205 160 l6 0 l204 -160 l93 0 l-265 208 l-71 0 ZM833 1903 q15 10 41 16 q25 7 50 7 q41 -1 66 -21 q24 -20 25 -54 q0 -29 -19 -53 q-20 -24 -55 -40 l39 -38 q45 20 71 55 q25 35 25 79 q-1 56 -40 90 q-39 34 -104 35 q-28 0 -55 -7 q-26 -7 -44 -19 l0 -50 ZM710 1464 q-298 -4 -469 -201 q-171 -197 -174 -541 q3 -346 174 -542 q170 -197 469 -201 q299 4 469 201 q171 196 174 542 q-3 344 -174 541 q-171 197 -469 201 l0 0 ZM710 1390 q260 -3 410 -181 q149 -177 152 -487 q-3 -310 -152 -488 q-150 -178 -410 -181 q-260 3 -410 181 q-149 178 -152 488 q3 310 152 487 q149 178 410 181 l0 0 Z" /><glyph glyph-name="" unicode="&#x1ed2;" d="M675 1768 l-266 -208 l93 0 l205 160 l6 0 l205 -160 l93 0 l-266 208 l-70 0 ZM1049 1776 l-207 203 l-91 0 l224 -203 l74 0 ZM710 1464 q-298 -4 -469 -201 q-171 -197 -174 -541 q3 -346 174 -542 q170 -197 469 -201 q299 4 469 201 q171 196 174 542 q-3 344 -174 541 q-171 197 -469 201 l0 0 ZM710 1390 q260 -3 410 -181 q149 -177 152 -487 q-3 -310 -152 -488 q-150 -178 -410 -181 q-260 3 -410 181 q-149 178 -152 488 q3 310 152 487 q149 178 410 181 l0 0 Z" /><glyph glyph-name="" unicode="&#x1ecc;" d="M710 -295 q32 1 54 22 q22 22 23 54 q-1 32 -23 54 q-22 21 -54 22 q-32 -1 -54 -22 q-22 -22 -23 -54 q1 -32 23 -54 q22 -21 54 -22 l0 0 ZM710 1464 q-298 -4 -469 -201 q-171 -197 -174 -541 q3 -346 174 -542 q170 -197 469 -201 q299 4 469 201 q171 196 174 542 q-3 344 -174 541 q-171 197 -469 201 l0 0 ZM710 1390 q260 -3 410 -181 q149 -177 152 -487 q-3 -310 -152 -488 q-150 -178 -410 -181 q-260 3 -410 181 q-149 178 -152 488 q3 310 152 487 q149 178 410 181 l0 0 Z" /><glyph glyph-name="" unicode="&#x20c;" d="M799 1553 l75 0 l-280 290 l-93 0 l298 -290 ZM532 1553 l75 0 l-280 290 l-92 0 l297 -290 ZM710 1464 q-298 -4 -469 -201 q-171 -197 -174 -541 q3 -346 174 -542 q170 -197 469 -201 q299 4 469 201 q171 196 174 542 q-3 344 -174 541 q-171 197 -469 201 l0 0 ZM710 1390 q260 -3 410 -181 q149 -177 152 -487 q-3 -310 -152 -488 q-150 -178 -410 -181 q-260 3 -410 181 q-149 178 -152 488 q3 310 152 487 q149 178 410 181 l0 0 Z" /><glyph glyph-name="" unicode="&#x1e4c;" d="M710 1464 q-298 -4 -469 -201 q-171 -197 -174 -541 q3 -346 174 -542 q170 -197 469 -201 q299 4 469 201 q171 196 174 542 q-3 344 -174 541 q-171 197 -469 201 l0 0 ZM710 1390 q260 -3 410 -181 q149 -177 152 -487 q-3 -310 -152 -488 q-150 -178 -410 -181 q-260 3 -410 181 q-149 178 -152 488 q3 310 152 487 q149 178 410 181 l0 0 ZM830 1548 q71 1 109 54 q38 52 38 137 l-61 0 q0 -60 -21 -96 q-21 -35 -65 -36 q-63 9 -107 75 q-44 66 -134 75 q-72 -1 -109 -53 q-38 -52 -38 -138 l61 0 q0 59 22 95 q21 36 66 37 q64 -9 108 -75 q43 -66 131 -75 l0 0 ZM704 1805 l73 0 l183 174 l-91 0 l-165 -174 Z" /><glyph glyph-name="" unicode="&#x1e52;" d="M1000 1622 l0 57 l-580 0 l0 -57 l580 0 ZM661 1776 l74 0 l224 203 l-91 0 l-207 -203 ZM710 1464 q-298 -4 -469 -201 q-171 -197 -174 -541 q3 -346 174 -542 q170 -197 469 -201 q299 4 469 201 q171 196 174 542 q-3 344 -174 541 q-171 197 -469 201 l0 0 ZM710 1390 q260 -3 410 -181 q149 -177 152 -487 q-3 -310 -152 -488 q-150 -178 -410 -181 q-260 3 -410 181 q-149 178 -152 488 q3 310 152 487 q149 178 410 181 l0 0 Z" /><glyph glyph-name="" unicode="&#x1ed6;" d="M829 1824 q70 1 108 51 q39 50 39 132 l-59 0 q0 -58 -22 -92 q-21 -34 -67 -35 q-62 9 -103 73 q-41 63 -131 72 q-72 -1 -110 -51 q-38 -49 -38 -131 l59 0 q0 58 22 92 q22 33 68 34 q65 -9 105 -72 q40 -64 129 -73 l0 0 ZM675 1762 l-266 -202 l93 0 l205 155 l6 0 l205 -155 l93 0 l-266 202 l-70 0 ZM710 1464 q-298 -4 -469 -201 q-171 -197 -174 -541 q3 -346 174 -542 q170 -197 469 -201 q299 4 469 201 q171 196 174 542 q-3 344 -174 541 q-171 197 -469 201 l0 0 ZM710 1390 q260 -3 410 -181 q149 -177 152 -487 q-3 -310 -152 -488 q-150 -178 -410 -181 q-260 3 -410 181 q-149 178 -152 488 q3 310 152 487 q149 178 410 181 l0 0 Z" /><glyph glyph-name="" unicode="&#x230;" d="M710 1560 q32 1 53 22 q22 21 23 53 q-1 32 -23 53 q-21 21 -53 22 q-32 -1 -53 -22 q-22 -21 -23 -53 q1 -32 23 -53 q21 -21 53 -22 l0 0 ZM1000 1919 l-580 0 l0 -57 l580 0 l0 57 ZM710 1464 q-298 -4 -469 -201 q-171 -197 -174 -541 q3 -346 174 -542 q170 -197 469 -201 q299 4 469 201 q171 196 174 542 q-3 344 -174 541 q-171 197 -469 201 l0 0 ZM710 1390 q260 -3 410 -181 q149 -177 152 -487 q-3 -310 -152 -488 q-150 -178 -410 -181 q-260 3 -410 181 q-149 178 -152 488 q3 310 152 487 q149 178 410 181 l0 0 Z" /><glyph glyph-name="" unicode="&#x1e50;" d="M420 1622 l580 0 l0 57 l-580 0 l0 -57 ZM759 1776 l-207 203 l-91 0 l224 -203 l74 0 ZM710 1464 q-298 -4 -469 -201 q-171 -197 -174 -541 q3 -346 174 -542 q170 -197 469 -201 q299 4 469 201 q171 196 174 542 q-3 344 -174 541 q-171 197 -469 201 l0 0 ZM710 1390 q260 -3 410 -181 q149 -177 152 -487 q-3 -310 -152 -488 q-150 -178 -410 -181 q-260 3 -410 181 q-149 178 -152 488 q3 310 152 487 q149 178 410 181 l0 0 Z" /><glyph glyph-name="" unicode="&#x1d1;" d="M676 1553 l68 0 l271 290 l-83 0 l-221 -239 l-2 0 l-221 239 l-83 0 l271 -290 ZM710 1464 q-298 -4 -469 -201 q-171 -197 -174 -541 q3 -346 174 -542 q170 -197 469 -201 q299 4 469 201 q171 196 174 542 q-3 344 -174 541 q-171 197 -469 201 l0 0 ZM710 1390 q260 -3 410 -181 q149 -177 152 -487 q-3 -310 -152 -488 q-150 -178 -410 -181 q-260 3 -410 181 q-149 178 -152 488 q3 310 152 487 q149 178 410 181 l0 0 Z" /><glyph glyph-name="" unicode="&#x1fe;" d="M1081 1843 l-96 0 l-279 -290 l78 0 l297 290 ZM1136 1189 q66 -87 101 -205 q35 -118 35 -262 q-3 -310 -152 -488 q-150 -178 -410 -181 q-107 0 -198 33 q-90 33 -160 95 l784 1008 ZM308 226 q-78 88 -119 213 q-41 126 -41 283 q3 310 152 487 q149 178 410 181 q119 0 216 -40 q97 -39 169 -114 l-787 -1010 ZM1338 1449 l-50 35 l-144 -184 q-82 80 -191 122 q-110 42 -243 42 q-298 -4 -469 -201 q-171 -197 -174 -541 q0 -180 49 -322 q49 -142 141 -239 l-162 -208 l51 -37 l157 202 q80 -68 182 -103 q103 -36 225 -36 q299 4 469 201 q171 196 174 542 q0 167 -43 301 q-43 135 -123 231 l151 195 Z" /><glyph glyph-name="" unicode="&#x150;" d="M888 1553 l297 290 l-92 0 l-280 -290 l75 0 ZM621 1553 l298 290 l-93 0 l-280 -290 l75 0 ZM710 1464 q-298 -4 -469 -201 q-171 -197 -174 -541 q3 -346 174 -542 q170 -197 469 -201 q299 4 469 201 q171 196 174 542 q-3 344 -174 541 q-171 197 -469 201 l0 0 ZM710 1390 q260 -3 410 -181 q149 -177 152 -487 q-3 -310 -152 -488 q-150 -178 -410 -181 q-260 3 -410 181 q-149 178 -152 488 q3 310 152 487 q149 178 410 181 l0 0 Z" /><glyph glyph-name="" unicode="&#x14e;" d="M710 1464 q-298 -4 -469 -201 q-171 -197 -174 -541 q3 -346 174 -542 q170 -197 469 -201 q299 4 469 201 q171 196 174 542 q-3 344 -174 541 q-171 197 -469 201 l0 0 ZM710 1390 q260 -3 410 -181 q149 -177 152 -487 q-3 -310 -152 -488 q-150 -178 -410 -181 q-260 3 -410 181 q-149 178 -152 488 q3 310 152 487 q149 178 410 181 l0 0 ZM441 1789 q2 -109 76 -172 q74 -63 193 -64 q119 1 193 64 q74 63 76 172 l-61 0 q-1 -78 -57 -128 q-57 -50 -151 -52 q-94 2 -150 52 q-57 50 -58 128 l-61 0 Z" /><glyph glyph-name="" unicode="&#x20e;" d="M441 1553 l61 0 q1 77 58 127 q56 50 150 52 q94 -2 151 -52 q56 -50 57 -127 l61 0 q-2 109 -76 172 q-74 63 -193 64 q-119 -1 -193 -64 q-74 -63 -76 -172 l0 0 ZM710 1464 q-298 -4 -469 -201 q-171 -197 -174 -541 q3 -346 174 -542 q170 -197 469 -201 q299 4 469 201 q171 196 174 542 q-3 344 -174 541 q-171 197 -469 201 l0 0 ZM710 1390 q260 -3 410 -181 q149 -177 152 -487 q-3 -310 -152 -488 q-150 -178 -410 -181 q-260 3 -410 181 q-149 178 -152 488 q3 310 152 487 q149 178 410 181 l0 0 Z" /><glyph glyph-name="" unicode="&#x1ece;" d="M568 1750 q18 11 47 18 q30 8 59 8 q46 -1 74 -23 q28 -23 29 -61 q-1 -33 -23 -61 q-22 -28 -59 -44 l34 -42 q53 23 83 62 q30 39 30 88 q-1 62 -44 99 q-43 36 -115 37 q-34 0 -65 -8 q-31 -8 -50 -19 l0 -54 ZM710 1464 q-298 -4 -469 -201 q-171 -197 -174 -541 q3 -346 174 -542 q170 -197 469 -201 q299 4 469 201 q171 196 174 542 q-3 344 -174 541 q-171 197 -469 201 l0 0 ZM710 1390 q260 -3 410 -181 q149 -177 152 -487 q-3 -310 -152 -488 q-150 -178 -410 -181 q-260 3 -410 181 q-149 178 -152 488 q3 310 152 487 q149 178 410 181 l0 0 Z" /><glyph glyph-name="" unicode="&#x22a;" d="M710 1464 q-298 -4 -469 -201 q-171 -197 -174 -541 q3 -346 174 -542 q170 -197 469 -201 q299 4 469 201 q171 196 174 542 q-3 344 -174 541 q-171 197 -469 201 l0 0 ZM710 1390 q260 -3 410 -181 q149 -177 152 -487 q-3 -310 -152 -488 q-150 -178 -410 -181 q-260 3 -410 181 q-149 178 -152 488 q3 310 152 487 q149 178 410 181 l0 0 ZM561 1691 q-27 -1 -45 -19 q-18 -18 -19 -44 q1 -27 19 -45 q18 -17 45 -18 q26 1 44 18 q18 18 19 45 q-1 26 -19 44 q-18 18 -44 19 l0 0 ZM420 1919 l0 -57 l580 0 l0 57 l-580 0 ZM859 1691 q-26 -1 -44 -19 q-18 -18 -19 -44 q1 -27 19 -45 q18 -17 44 -18 q27 1 45 18 q18 18 19 45 q-1 26 -19 44 q-18 18 -45 19 l0 0 Z" /><glyph glyph-name="" unicode="&#x22c;" d="M830 1548 q70 1 108 54 q38 52 38 137 l-61 0 q0 -60 -20 -96 q-21 -35 -65 -36 q-64 9 -108 75 q-44 66 -133 75 q-72 -1 -109 -53 q-38 -52 -38 -138 l60 0 q0 59 22 95 q21 36 66 37 q64 -9 108 -75 q44 -66 132 -75 l0 0 ZM1000 1919 l-580 0 l0 -57 l580 0 l0 57 ZM710 1464 q-298 -4 -469 -201 q-171 -197 -174 -541 q3 -346 174 -542 q170 -197 469 -201 q299 4 469 201 q171 196 174 542 q-3 344 -174 541 q-171 197 -469 201 l0 0 ZM710 1390 q260 -3 410 -181 q149 -177 152 -487 q-3 -310 -152 -488 q-150 -178 -410 -181 q-260 3 -410 181 q-149 178 -152 488 q3 310 152 487 q149 178 410 181 l0 0 Z" /><glyph glyph-name="" unicode="&#x22e;" d="M710 1563 q32 1 54 22 q22 22 23 54 q-1 32 -23 54 q-22 21 -54 22 q-32 -1 -54 -22 q-22 -22 -23 -54 q1 -32 23 -54 q22 -21 54 -22 l0 0 ZM710 1464 q-298 -4 -469 -201 q-171 -197 -174 -541 q3 -346 174 -542 q170 -197 469 -201 q299 4 469 201 q171 196 174 542 q-3 344 -174 541 q-171 197 -469 201 l0 0 ZM710 1390 q260 -3 410 -181 q149 -177 152 -487 q-3 -310 -152 -488 q-150 -178 -410 -181 q-260 3 -410 181 q-149 178 -152 488 q3 310 152 487 q149 178 410 181 l0 0 Z" /><glyph glyph-name="" unicode="&#x1ed8;" d="M710 -295 q32 1 54 22 q22 22 23 54 q-1 32 -23 54 q-22 21 -54 22 q-32 -1 -54 -22 q-22 -22 -23 -54 q1 -32 23 -54 q22 -21 54 -22 l0 0 ZM676 1843 l-271 -290 l83 0 l221 238 l2 0 l221 -238 l83 0 l-271 290 l-68 0 ZM710 1464 q-298 -4 -469 -201 q-171 -197 -174 -541 q3 -346 174 -542 q170 -197 469 -201 q299 4 469 201 q171 196 174 542 q-3 344 -174 541 q-171 197 -469 201 l0 0 ZM710 1390 q260 -3 410 -181 q149 -177 152 -487 q-3 -310 -152 -488 q-150 -178 -410 -181 q-260 3 -410 181 q-149 178 -152 488 q3 310 152 487 q149 178 410 181 l0 0 Z" /><glyph glyph-name="" unicode="&#x1ed0;" d="M676 1768 l-266 -208 l93 0 l205 160 l6 0 l205 -160 l93 0 l-266 208 l-70 0 ZM876 1776 l74 0 l224 203 l-91 0 l-207 -203 ZM710 1464 q-298 -4 -469 -201 q-171 -197 -174 -541 q3 -346 174 -542 q170 -197 469 -201 q299 4 469 201 q171 196 174 542 q-3 344 -174 541 q-171 197 -469 201 l0 0 ZM710 1390 q260 -3 410 -181 q149 -177 152 -487 q-3 -310 -152 -488 q-150 -178 -410 -181 q-260 3 -410 181 q-149 178 -152 488 q3 310 152 487 q149 178 410 181 l0 0 Z" /><glyph glyph-name="" unicode="&#x1e4e;" d="M831 1548 q70 1 108 54 q38 52 38 137 l-60 0 q0 -60 -21 -96 q-21 -35 -65 -36 q-63 9 -107 75 q-45 66 -134 75 q-72 -1 -109 -53 q-38 -52 -38 -138 l60 0 q0 59 22 95 q21 36 66 37 q64 -9 108 -75 q44 -66 132 -75 l0 0 ZM561 1982 q-27 -1 -45 -18 q-18 -18 -19 -45 q1 -27 19 -45 q18 -17 45 -18 q26 1 44 18 q18 18 19 45 q-1 27 -19 45 q-18 17 -44 18 l0 0 ZM859 1982 q-26 -1 -44 -18 q-18 -18 -19 -45 q1 -27 19 -45 q18 -17 44 -18 q27 1 45 18 q18 18 19 45 q-1 27 -19 45 q-18 17 -45 18 l0 0 ZM710 1464 q-298 -4 -469 -201 q-171 -197 -174 -541 q3 -346 174 -542 q170 -197 469 -201 q299 4 469 201 q171 196 174 542 q-3 344 -174 541 q-171 197 -469 201 l0 0 ZM710 1390 q260 -3 410 -181 q149 -177 152 -487 q-3 -310 -152 -488 q-150 -178 -410 -181 q-260 3 -410 181 q-149 178 -152 488 q3 310 152 487 q149 178 410 181 l0 0 Z" /><glyph glyph-name="" unicode="&#x14c;" d="M710 1464 q-298 -4 -469 -201 q-171 -197 -174 -541 q3 -346 174 -542 q170 -197 469 -201 q299 4 469 201 q171 196 174 542 q-3 344 -174 541 q-171 197 -469 201 l0 0 ZM710 1390 q260 -3 410 -181 q149 -177 152 -487 q-3 -310 -152 -488 q-150 -178 -410 -181 q-260 3 -410 181 q-149 178 -152 488 q3 310 152 487 q149 178 410 181 l0 0 ZM1000 1679 l-580 0 l0 -57 l580 0 l0 57 Z" /><glyph glyph-name="" unicode="&#x1ea;" d="M953 -395 q23 0 44 3 q20 3 35 8 l0 64 q-9 -3 -28 -5 q-19 -2 -41 -2 q-62 1 -99 34 q-38 33 -39 87 q-1 63 48 123 q48 61 162 135 q158 109 238 278 q80 168 80 392 q-3 344 -174 541 q-171 197 -469 201 q-298 -4 -469 -201 q-171 -197 -174 -541 q3 -346 174 -542 q170 -197 469 -201 q52 0 99 8 q47 9 88 25 l0 -4 q-74 -50 -112 -106 q-37 -57 -37 -120 q2 -79 58 -127 q56 -49 147 -50 l0 0 ZM710 1390 q260 -3 410 -181 q149 -177 152 -487 q-3 -310 -152 -488 q-150 -178 -410 -181 q-260 3 -410 181 q-149 178 -152 488 q3 310 152 487 q149 178 410 181 l0 0 Z" /><glyph glyph-name="" unicode="&#x1ec;" d="M953 -395 q23 0 44 3 q20 3 35 8 l0 64 q-9 -3 -28 -5 q-19 -2 -41 -2 q-62 1 -99 34 q-38 33 -39 87 q-1 63 48 123 q48 61 162 135 q158 109 238 278 q80 168 80 392 q-3 344 -174 541 q-171 197 -469 201 q-298 -4 -469 -201 q-171 -197 -174 -541 q3 -346 174 -542 q170 -197 469 -201 q52 0 99 8 q47 9 88 25 l0 -4 q-74 -50 -112 -106 q-37 -57 -37 -120 q2 -79 58 -127 q56 -49 147 -50 l0 0 ZM710 1390 q260 -3 410 -181 q149 -177 152 -487 q-3 -310 -152 -488 q-150 -178 -410 -181 q-260 3 -410 181 q-149 178 -152 488 q3 310 152 487 q149 178 410 181 l0 0 ZM1000 1679 l-580 0 l0 -57 l580 0 l0 57 Z" /><glyph glyph-name="" unicode="&#x1a0;" d="M710 -21 q299 4 469 201 q171 196 174 542 q-1 227 -84 396 q-83 170 -235 252 l0 5 l89 0 q119 0 174 40 q55 41 54 128 l0 136 l-73 0 l0 -116 q2 -70 -38 -98 q-40 -27 -143 -26 q-130 2 -210 13 q-81 10 -177 12 q-298 -4 -469 -201 q-171 -197 -174 -541 q3 -346 174 -542 q170 -197 469 -201 l0 0 ZM710 53 q-260 3 -410 181 q-149 178 -152 488 q3 310 152 487 q149 178 410 181 q260 -3 410 -181 q149 -177 152 -487 q-3 -310 -152 -488 q-150 -178 -410 -181 l0 0 Z" /><glyph glyph-name="" unicode="&#x1ee2;" d="M710 -295 q32 1 54 22 q22 22 23 54 q-1 32 -23 54 q-22 21 -54 22 q-32 -1 -54 -22 q-22 -22 -23 -54 q1 -32 23 -54 q22 -21 54 -22 l0 0 ZM710 -21 q299 4 469 201 q171 196 174 542 q-1 227 -84 396 q-83 170 -235 252 l0 5 l89 0 q119 0 174 40 q55 41 54 128 l0 136 l-73 0 l0 -116 q2 -70 -38 -98 q-40 -27 -143 -26 q-130 2 -210 13 q-81 10 -177 12 q-298 -4 -469 -201 q-171 -197 -174 -541 q3 -346 174 -542 q170 -197 469 -201 l0 0 ZM710 53 q-260 3 -410 181 q-149 178 -152 488 q3 310 152 487 q149 178 410 181 q260 -3 410 -181 q149 -177 152 -487 q-3 -310 -152 -488 q-150 -178 -410 -181 l0 0 Z" /><glyph glyph-name="" unicode="&#x1ede;" d="M568 1750 q18 11 47 18 q30 8 59 8 q46 -1 74 -23 q28 -23 29 -61 q-1 -33 -23 -61 q-22 -28 -59 -44 l34 -42 q53 23 83 62 q30 39 30 88 q-1 62 -44 99 q-43 36 -115 37 q-34 0 -65 -8 q-31 -8 -50 -19 l0 -54 ZM710 -21 q299 4 469 201 q171 196 174 542 q-1 227 -84 396 q-83 170 -235 252 l0 5 l89 0 q119 0 174 40 q55 41 54 128 l0 136 l-73 0 l0 -116 q2 -70 -38 -98 q-40 -27 -143 -26 q-130 2 -210 13 q-81 10 -177 12 q-298 -4 -469 -201 q-171 -197 -174 -541 q3 -346 174 -542 q170 -197 469 -201 l0 0 ZM710 53 q-260 3 -410 181 q-149 178 -152 488 q3 310 152 487 q149 178 410 181 q260 -3 410 -181 q149 -177 152 -487 q-3 -310 -152 -488 q-150 -178 -410 -181 l0 0 Z" /><glyph glyph-name="" unicode="&#x1ee0;" d="M710 -21 q299 4 469 201 q171 196 174 542 q-1 227 -84 396 q-83 170 -235 252 l0 5 l89 0 q119 0 174 40 q55 41 54 128 l0 136 l-73 0 l0 -116 q2 -70 -38 -98 q-40 -27 -143 -26 q-130 2 -210 13 q-81 10 -177 12 q-298 -4 -469 -201 q-171 -197 -174 -541 q3 -346 174 -542 q170 -197 469 -201 l0 0 ZM710 53 q-260 3 -410 181 q-149 178 -152 488 q3 310 152 487 q149 178 410 181 q260 -3 410 -181 q149 -177 152 -487 q-3 -310 -152 -488 q-150 -178 -410 -181 l0 0 ZM845 1549 q74 2 112 59 q38 58 38 154 l-61 0 q0 -70 -21 -111 q-21 -42 -68 -43 q-68 10 -121 82 q-54 72 -148 82 q-75 -1 -112 -58 q-38 -57 -38 -154 l60 0 q0 69 22 111 q21 41 69 42 q70 -10 122 -82 q53 -72 146 -82 l0 0 Z" /><glyph glyph-name="" unicode="&#x1edc;" d="M679 1553 l78 0 l-280 290 l-95 0 l297 -290 ZM710 -21 q299 4 469 201 q171 196 174 542 q-1 227 -84 396 q-83 170 -235 252 l0 5 l89 0 q119 0 174 40 q55 41 54 128 l0 136 l-73 0 l0 -116 q2 -70 -38 -98 q-40 -27 -143 -26 q-130 2 -210 13 q-81 10 -177 12 q-298 -4 -469 -201 q-171 -197 -174 -541 q3 -346 174 -542 q170 -197 469 -201 l0 0 ZM710 53 q-260 3 -410 181 q-149 178 -152 488 q3 310 152 487 q149 178 410 181 q260 -3 410 -181 q149 -177 152 -487 q-3 -310 -152 -488 q-150 -178 -410 -181 l0 0 Z" /><glyph glyph-name="" unicode="&#x1eda;" d="M742 1553 l297 290 l-96 0 l-279 -290 l78 0 ZM710 -21 q299 4 469 201 q171 196 174 542 q-1 227 -84 396 q-83 170 -235 252 l0 5 l89 0 q119 0 174 40 q55 41 54 128 l0 136 l-73 0 l0 -116 q2 -70 -38 -98 q-40 -27 -143 -26 q-130 2 -210 13 q-81 10 -177 12 q-298 -4 -469 -201 q-171 -197 -174 -541 q3 -346 174 -542 q170 -197 469 -201 l0 0 ZM710 53 q-260 3 -410 181 q-149 178 -152 488 q3 310 152 487 q149 178 410 181 q260 -3 410 -181 q149 -177 152 -487 q-3 -310 -152 -488 q-150 -178 -410 -181 l0 0 Z" /><glyph glyph-name="" unicode="p" d="M128 1443 l0 -1443 l79 0 l0 582 l390 0 q213 2 337 117 q124 115 127 313 q-3 198 -127 313 q-124 116 -337 118 l-469 0 ZM207 1371 l377 0 q185 -2 290 -96 q104 -94 106 -263 q-2 -168 -107 -262 q-105 -94 -289 -96 l-377 0 l0 717 Z" /><glyph glyph-name="" unicode="&#x1e56;" d="M128 1443 l0 -1443 l79 0 l0 582 l390 0 q213 2 337 117 q124 115 127 313 q-3 198 -127 313 q-124 116 -337 118 l-469 0 ZM207 1371 l377 0 q185 -2 290 -96 q104 -94 106 -263 q-2 -168 -107 -262 q-105 -94 -289 -96 l-377 0 l0 717 ZM493 1563 q32 1 54 22 q22 22 23 54 q-1 32 -23 54 q-22 21 -54 22 q-32 -1 -54 -22 q-22 -22 -23 -54 q1 -32 23 -54 q22 -21 54 -22 l0 0 Z" /><glyph glyph-name="" unicode="&#x1e54;" d="M525 1553 l297 290 l-96 0 l-279 -290 l78 0 ZM128 1443 l0 -1443 l79 0 l0 582 l390 0 q213 2 337 117 q124 115 127 313 q-3 198 -127 313 q-124 116 -337 118 l-469 0 ZM207 1371 l377 0 q185 -2 290 -96 q104 -94 106 -263 q-2 -168 -107 -262 q-105 -94 -289 -96 l-377 0 l0 717 Z" /><glyph glyph-name="" unicode="q" d="M1244 -177 l-185 253 q141 92 217 257 q76 166 77 389 q-3 344 -174 541 q-171 197 -469 201 q-298 -4 -469 -201 q-171 -197 -174 -541 q3 -346 174 -542 q170 -197 469 -201 q79 0 150 16 q71 15 134 45 l159 -217 l91 0 ZM710 53 q-260 3 -409 181 q-150 178 -153 488 q3 310 152 487 q150 178 410 181 q260 -3 409 -181 q149 -177 152 -487 q0 -201 -66 -351 q-66 -149 -192 -232 l-170 233 l-91 0 l196 -269 q-53 -25 -113 -37 q-60 -13 -125 -13 l0 0 Z" /><glyph glyph-name="" unicode="r" d="M207 1371 l385 0 q183 -1 285 -90 q102 -90 104 -252 q-1 -160 -103 -250 q-101 -90 -284 -91 l-387 0 l0 683 ZM207 616 l387 0 q12 0 26 1 q15 1 25 2 l361 -619 l93 0 l-371 631 q159 33 246 138 q87 104 88 262 q-2 192 -124 301 q-122 109 -339 111 l-471 0 l0 -1443 l79 0 l0 616 Z" /><glyph glyph-name="" unicode="&#x158;" d="M207 1371 l385 0 q183 -1 285 -90 q102 -90 104 -252 q-1 -160 -103 -250 q-101 -90 -284 -91 l-387 0 l0 683 ZM207 616 l387 0 q12 0 26 1 q15 1 25 2 l361 -619 l93 0 l-371 631 q159 33 246 138 q87 104 88 262 q-2 192 -124 301 q-122 109 -339 111 l-471 0 l0 -1443 l79 0 l0 616 ZM461 1553 l68 0 l271 290 l-83 0 l-221 -239 l-2 0 l-221 239 l-83 0 l271 -290 Z" /><glyph glyph-name="" unicode="&#x1e5e;" d="M207 1371 l385 0 q183 -1 285 -90 q102 -90 104 -252 q-1 -160 -103 -250 q-101 -90 -284 -91 l-387 0 l0 683 ZM207 616 l387 0 q12 0 26 1 q15 1 25 2 l361 -619 l93 0 l-371 631 q159 33 246 138 q87 104 88 262 q-2 192 -124 301 q-122 109 -339 111 l-471 0 l0 -1443 l79 0 l0 616 ZM785 -205 l-580 0 l0 -57 l580 0 l0 57 Z" /><glyph glyph-name="" unicode="&#x1e5c;" d="M495 -295 q32 1 54 22 q22 22 23 54 q-1 32 -23 54 q-22 21 -54 22 q-32 -1 -54 -22 q-22 -22 -23 -54 q1 -32 23 -54 q22 -21 54 -22 l0 0 ZM207 1371 l385 0 q183 -1 285 -90 q102 -90 104 -252 q-1 -160 -103 -250 q-101 -90 -284 -91 l-387 0 l0 683 ZM207 616 l387 0 q12 0 26 1 q15 1 25 2 l361 -619 l93 0 l-371 631 q159 33 246 138 q87 104 88 262 q-2 192 -124 301 q-122 109 -339 111 l-471 0 l0 -1443 l79 0 l0 616 ZM785 1679 l-580 0 l0 -57 l580 0 l0 57 Z" /><glyph glyph-name="" unicode="&#x210;" d="M584 1553 l75 0 l-280 290 l-93 0 l298 -290 ZM317 1553 l75 0 l-280 290 l-92 0 l297 -290 ZM207 1371 l385 0 q183 -1 285 -90 q102 -90 104 -252 q-1 -160 -103 -250 q-101 -90 -284 -91 l-387 0 l0 683 ZM207 616 l387 0 q12 0 26 1 q15 1 25 2 l361 -619 l93 0 l-371 631 q159 33 246 138 q87 104 88 262 q-2 192 -124 301 q-122 109 -339 111 l-471 0 l0 -1443 l79 0 l0 616 Z" /><glyph glyph-name="" unicode="&#x212;" d="M207 1371 l385 0 q183 -1 285 -90 q102 -90 104 -252 q-1 -160 -103 -250 q-101 -90 -284 -91 l-387 0 l0 683 ZM207 616 l387 0 q12 0 26 1 q15 1 25 2 l361 -619 l93 0 l-371 631 q159 33 246 138 q87 104 88 262 q-2 192 -124 301 q-122 109 -339 111 l-471 0 l0 -1443 l79 0 l0 616 ZM226 1553 l61 0 q1 77 58 127 q56 50 150 52 q94 -2 151 -52 q56 -50 57 -127 l61 0 q-2 109 -76 172 q-74 63 -193 64 q-119 -1 -193 -64 q-74 -63 -76 -172 l0 0 Z" /><glyph glyph-name="" unicode="&#x154;" d="M527 1553 l297 290 l-96 0 l-279 -290 l78 0 ZM207 1371 l385 0 q183 -1 285 -90 q102 -90 104 -252 q-1 -160 -103 -250 q-101 -90 -284 -91 l-387 0 l0 683 ZM207 616 l387 0 q12 0 26 1 q15 1 25 2 l361 -619 l93 0 l-371 631 q159 33 246 138 q87 104 88 262 q-2 192 -124 301 q-122 109 -339 111 l-471 0 l0 -1443 l79 0 l0 616 Z" /><glyph glyph-name="" unicode="&#x1e5a;" d="M495 -295 q32 1 54 22 q22 22 23 54 q-1 32 -23 54 q-22 21 -54 22 q-32 -1 -54 -22 q-22 -22 -23 -54 q1 -32 23 -54 q22 -21 54 -22 l0 0 ZM207 1371 l385 0 q183 -1 285 -90 q102 -90 104 -252 q-1 -160 -103 -250 q-101 -90 -284 -91 l-387 0 l0 683 ZM207 616 l387 0 q12 0 26 1 q15 1 25 2 l361 -619 l93 0 l-371 631 q159 33 246 138 q87 104 88 262 q-2 192 -124 301 q-122 109 -339 111 l-471 0 l0 -1443 l79 0 l0 616 Z" /><glyph glyph-name="" unicode="&#x1e58;" d="M495 1563 q32 1 54 22 q22 22 23 54 q-1 32 -23 54 q-22 21 -54 22 q-32 -1 -54 -22 q-22 -22 -23 -54 q1 -32 23 -54 q22 -21 54 -22 l0 0 ZM207 1371 l385 0 q183 -1 285 -90 q102 -90 104 -252 q-1 -160 -103 -250 q-101 -90 -284 -91 l-387 0 l0 683 ZM207 616 l387 0 q12 0 26 1 q15 1 25 2 l361 -619 l93 0 l-371 631 q159 33 246 138 q87 104 88 262 q-2 192 -124 301 q-122 109 -339 111 l-471 0 l0 -1443 l79 0 l0 616 Z" /><glyph glyph-name="" unicode="&#x156;" d="M207 1371 l385 0 q183 -1 285 -90 q102 -90 104 -252 q-1 -160 -103 -250 q-101 -90 -284 -91 l-387 0 l0 683 ZM207 616 l387 0 q12 0 26 1 q15 1 25 2 l361 -619 l93 0 l-371 631 q159 33 246 138 q87 104 88 262 q-2 192 -124 301 q-122 109 -339 111 l-471 0 l0 -1443 l79 0 l0 616 ZM438 -493 l114 344 l-78 0 l-99 -344 l63 0 Z" /><glyph glyph-name="" unicode="s" d="M57 385 q13 -182 154 -293 q140 -110 366 -113 q230 3 365 113 q135 111 138 293 q1 143 -97 230 q-99 88 -307 138 l-161 41 q-173 42 -256 110 q-83 68 -82 175 q4 139 114 224 q109 86 276 88 q173 -2 285 -85 q111 -82 122 -214 l79 0 q-11 162 -143 266 q-133 103 -341 106 q-202 -3 -335 -109 q-133 -106 -138 -278 q-1 -135 94 -221 q95 -86 294 -136 l171 -42 q180 -45 263 -116 q82 -71 81 -183 q-3 -144 -116 -234 q-113 -90 -300 -93 q-192 2 -313 93 q-122 91 -134 240 l-79 0 Z" /><glyph glyph-name="" unicode="&#x160;" d="M57 385 q13 -182 154 -293 q140 -110 366 -113 q230 3 365 113 q135 111 138 293 q1 143 -97 230 q-99 88 -307 138 l-161 41 q-173 42 -256 110 q-83 68 -82 175 q4 139 114 224 q109 86 276 88 q173 -2 285 -85 q111 -82 122 -214 l79 0 q-11 162 -143 266 q-133 103 -341 106 q-202 -3 -335 -109 q-133 -106 -138 -278 q-1 -135 94 -221 q95 -86 294 -136 l171 -42 q180 -45 263 -116 q82 -71 81 -183 q-3 -144 -116 -234 q-113 -90 -300 -93 q-192 2 -313 93 q-122 91 -134 240 l-79 0 ZM535 1553 l68 0 l271 290 l-83 0 l-221 -239 l-2 0 l-221 239 l-83 0 l271 -290 Z" /><glyph glyph-name="" unicode="&#x15e;" d="M515 794 q-173 42 -256 110 q-83 68 -82 175 q4 139 114 224 q109 86 276 88 q173 -2 285 -85 q111 -82 122 -214 l79 0 q-11 162 -143 266 q-133 103 -341 106 q-202 -3 -335 -109 q-133 -106 -138 -278 q-1 -135 94 -221 q95 -86 294 -136 l171 -42 q180 -45 263 -116 q82 -71 81 -183 q-3 -144 -116 -234 q-113 -90 -300 -93 q-192 2 -313 93 q-122 91 -134 240 l-79 0 q12 -174 143 -283 q130 -110 341 -122 l-53 -130 l0 -43 l49 0 q78 0 119 -26 q41 -26 41 -76 q-1 -50 -45 -81 q-44 -31 -114 -32 q-35 0 -67 4 q-33 5 -55 13 l0 -56 q25 -8 59 -12 q34 -5 69 -4 q98 1 157 48 q58 46 60 122 q-1 73 -54 112 q-53 40 -153 40 l50 120 q218 10 346 120 q127 109 130 286 q1 143 -97 230 q-99 88 -307 138 l-161 41 Z" /><glyph glyph-name="" unicode="&#x1e60;" d="M569 1563 q32 1 54 22 q22 22 23 54 q-1 32 -23 54 q-22 21 -54 22 q-32 -1 -54 -22 q-22 -22 -23 -54 q1 -32 23 -54 q22 -21 54 -22 l0 0 ZM57 385 q13 -182 154 -293 q140 -110 366 -113 q230 3 365 113 q135 111 138 293 q1 143 -97 230 q-99 88 -307 138 l-161 41 q-173 42 -256 110 q-83 68 -82 175 q4 139 114 224 q109 86 276 88 q173 -2 285 -85 q111 -82 122 -214 l79 0 q-11 162 -143 266 q-133 103 -341 106 q-202 -3 -335 -109 q-133 -106 -138 -278 q-1 -135 94 -221 q95 -86 294 -136 l171 -42 q180 -45 263 -116 q82 -71 81 -183 q-3 -144 -116 -234 q-113 -90 -300 -93 q-192 2 -313 93 q-122 91 -134 240 l-79 0 Z" /><glyph glyph-name="" unicode="&#x1e62;" d="M578 -295 q32 1 54 22 q22 22 23 54 q-1 32 -23 54 q-22 21 -54 22 q-32 -1 -54 -22 q-22 -22 -23 -54 q1 -32 23 -54 q22 -21 54 -22 l0 0 ZM57 385 q13 -182 154 -293 q140 -110 366 -113 q230 3 365 113 q135 111 138 293 q1 143 -97 230 q-99 88 -307 138 l-161 41 q-173 42 -256 110 q-83 68 -82 175 q4 139 114 224 q109 86 276 88 q173 -2 285 -85 q111 -82 122 -214 l79 0 q-11 162 -143 266 q-133 103 -341 106 q-202 -3 -335 -109 q-133 -106 -138 -278 q-1 -135 94 -221 q95 -86 294 -136 l171 -42 q180 -45 263 -116 q82 -71 81 -183 q-3 -144 -116 -234 q-113 -90 -300 -93 q-192 2 -313 93 q-122 91 -134 240 l-79 0 Z" /><glyph glyph-name="" unicode="&#x218;" d="M57 385 q13 -182 154 -293 q140 -110 366 -113 q230 3 365 113 q135 111 138 293 q1 143 -97 230 q-99 88 -307 138 l-161 41 q-173 42 -256 110 q-83 68 -82 175 q4 139 114 224 q109 86 276 88 q173 -2 285 -85 q111 -82 122 -214 l79 0 q-11 162 -143 266 q-133 103 -341 106 q-202 -3 -335 -109 q-133 -106 -138 -278 q-1 -135 94 -221 q95 -86 294 -136 l171 -42 q180 -45 263 -116 q82 -71 81 -183 q-3 -144 -116 -234 q-113 -90 -300 -93 q-192 2 -313 93 q-122 91 -134 240 l-79 0 ZM521 -493 l114 344 l-78 0 l-99 -344 l63 0 Z" /><glyph glyph-name="" unicode="&#x1e68;" d="M578 -295 q32 1 54 22 q22 22 23 54 q-1 32 -23 54 q-22 21 -54 22 q-32 -1 -54 -22 q-22 -22 -23 -54 q1 -32 23 -54 q22 -21 54 -22 l0 0 ZM57 385 q13 -182 154 -293 q140 -110 366 -113 q230 3 365 113 q135 111 138 293 q1 143 -97 230 q-99 88 -307 138 l-161 41 q-173 42 -256 110 q-83 68 -82 175 q4 139 114 224 q109 86 276 88 q173 -2 285 -85 q111 -82 122 -214 l79 0 q-11 162 -143 266 q-133 103 -341 106 q-202 -3 -335 -109 q-133 -106 -138 -278 q-1 -135 94 -221 q95 -86 294 -136 l171 -42 q180 -45 263 -116 q82 -71 81 -183 q-3 -144 -116 -234 q-113 -90 -300 -93 q-192 2 -313 93 q-122 91 -134 240 l-79 0 ZM569 1563 q32 1 54 22 q22 22 23 54 q-1 32 -23 54 q-22 21 -54 22 q-32 -1 -54 -22 q-22 -22 -23 -54 q1 -32 23 -54 q22 -21 54 -22 l0 0 Z" /><glyph glyph-name="" unicode="&#x1e66;" d="M534 1560 l70 0 l266 208 l-93 0 l-205 -161 l-6 0 l-205 161 l-93 0 l266 -208 ZM569 1833 q31 1 52 22 q21 20 22 51 q-1 31 -22 52 q-21 20 -52 21 q-31 -1 -52 -21 q-21 -21 -22 -52 q1 -31 22 -51 q21 -21 52 -22 l0 0 ZM57 385 q13 -182 154 -293 q140 -110 366 -113 q230 3 365 113 q135 111 138 293 q1 143 -97 230 q-99 88 -307 138 l-161 41 q-173 42 -256 110 q-83 68 -82 175 q4 139 114 224 q109 86 276 88 q173 -2 285 -85 q111 -82 122 -214 l79 0 q-11 162 -143 266 q-133 103 -341 106 q-202 -3 -335 -109 q-133 -106 -138 -278 q-1 -135 94 -221 q95 -86 294 -136 l171 -42 q180 -45 263 -116 q82 -71 81 -183 q-3 -144 -116 -234 q-113 -90 -300 -93 q-192 2 -313 93 q-122 91 -134 240 l-79 0 Z" /><glyph glyph-name="" unicode="&#x15c;" d="M57 385 q13 -182 154 -293 q140 -110 366 -113 q230 3 365 113 q135 111 138 293 q1 143 -97 230 q-99 88 -307 138 l-161 41 q-173 42 -256 110 q-83 68 -82 175 q4 139 114 224 q109 86 276 88 q173 -2 285 -85 q111 -82 122 -214 l79 0 q-11 162 -143 266 q-133 103 -341 106 q-202 -3 -335 -109 q-133 -106 -138 -278 q-1 -135 94 -221 q95 -86 294 -136 l171 -42 q180 -45 263 -116 q82 -71 81 -183 q-3 -144 -116 -234 q-113 -90 -300 -93 q-192 2 -313 93 q-122 91 -134 240 l-79 0 ZM535 1843 l-271 -290 l83 0 l221 238 l2 0 l221 -238 l83 0 l-271 290 l-68 0 Z" /><glyph glyph-name="" unicode="&#x1e64;" d="M649 1553 l297 290 l-96 0 l-279 -290 l78 0 ZM434 1622 q32 1 54 22 q22 22 23 54 q-1 32 -23 54 q-22 21 -54 22 q-32 -1 -54 -22 q-22 -22 -23 -54 q1 -32 23 -54 q22 -21 54 -22 l0 0 ZM57 385 q13 -182 154 -293 q140 -110 366 -113 q230 3 365 113 q135 111 138 293 q1 143 -97 230 q-99 88 -307 138 l-161 41 q-173 42 -256 110 q-83 68 -82 175 q4 139 114 224 q109 86 276 88 q173 -2 285 -85 q111 -82 122 -214 l79 0 q-11 162 -143 266 q-133 103 -341 106 q-202 -3 -335 -109 q-133 -106 -138 -278 q-1 -135 94 -221 q95 -86 294 -136 l171 -42 q180 -45 263 -116 q82 -71 81 -183 q-3 -144 -116 -234 q-113 -90 -300 -93 q-192 2 -313 93 q-122 91 -134 240 l-79 0 Z" /><glyph glyph-name="" unicode="&#x15a;" d="M601 1553 l297 290 l-96 0 l-279 -290 l78 0 ZM57 385 q13 -182 154 -293 q140 -110 366 -113 q230 3 365 113 q135 111 138 293 q1 143 -97 230 q-99 88 -307 138 l-161 41 q-173 42 -256 110 q-83 68 -82 175 q4 139 114 224 q109 86 276 88 q173 -2 285 -85 q111 -82 122 -214 l79 0 q-11 162 -143 266 q-133 103 -341 106 q-202 -3 -335 -109 q-133 -106 -138 -278 q-1 -135 94 -221 q95 -86 294 -136 l171 -42 q180 -45 263 -116 q82 -71 81 -183 q-3 -144 -116 -234 q-113 -90 -300 -93 q-192 2 -313 93 q-122 91 -134 240 l-79 0 Z" /><glyph glyph-name="" unicode="t" d="M609 0 l0 1370 l508 0 l0 73 l-1096 0 l0 -73 l508 0 l0 -1370 l80 0 Z" /><glyph glyph-name="" unicode="&#x1e70;" d="M609 0 l0 1370 l508 0 l0 73 l-1096 0 l0 -73 l508 0 l0 -1370 l80 0 ZM535 -147 l-271 -290 l83 0 l221 238 l2 0 l221 -238 l83 0 l-271 290 l-68 0 Z" /><glyph glyph-name="" unicode="&#x1e6c;" d="M569 -295 q32 1 54 22 q22 22 23 54 q-1 32 -23 54 q-22 21 -54 22 q-32 -1 -54 -22 q-22 -22 -23 -54 q1 -32 23 -54 q22 -21 54 -22 l0 0 ZM609 0 l0 1370 l508 0 l0 73 l-1096 0 l0 -73 l508 0 l0 -1370 l80 0 Z" /><glyph glyph-name="" unicode="&#x21a;" d="M512 -493 l114 344 l-78 0 l-99 -344 l63 0 ZM609 0 l0 1370 l508 0 l0 73 l-1096 0 l0 -73 l508 0 l0 -1370 l80 0 Z" /><glyph glyph-name="" unicode="&#x1e6a;" d="M569 1563 q32 1 54 22 q22 22 23 54 q-1 32 -23 54 q-22 21 -54 22 q-32 -1 -54 -22 q-22 -22 -23 -54 q1 -32 23 -54 q22 -21 54 -22 l0 0 ZM609 0 l0 1370 l508 0 l0 73 l-1096 0 l0 -73 l508 0 l0 -1370 l80 0 Z" /><glyph glyph-name="" unicode="&#x162;" d="M609 7 l0 1363 l508 0 l0 73 l-1096 0 l0 -73 l508 0 l0 -1370 l17 0 l-61 -150 l0 -43 l49 0 q78 0 119 -26 q41 -26 41 -76 q-1 -50 -45 -81 q-44 -31 -114 -32 q-35 0 -67 4 q-33 5 -55 13 l0 -56 q25 -8 59 -12 q34 -5 69 -4 q98 1 157 48 q58 46 60 122 q-1 73 -54 112 q-53 40 -153 40 l58 141 l0 7 Z" /><glyph glyph-name="" unicode="&#x1e6e;" d="M859 -205 l-580 0 l0 -57 l580 0 l0 57 ZM609 0 l0 1370 l508 0 l0 73 l-1096 0 l0 -73 l508 0 l0 -1370 l80 0 Z" /><glyph glyph-name="" unicode="&#x164;" d="M535 1553 l68 0 l271 290 l-83 0 l-221 -239 l-2 0 l-221 239 l-83 0 l271 -290 ZM609 0 l0 1370 l508 0 l0 73 l-1096 0 l0 -73 l508 0 l0 -1370 l80 0 Z" /><glyph glyph-name="" unicode="&#x166;" d="M1117 1370 l0 73 l-1096 0 l0 -73 l508 0 l0 -588 l-295 0 l0 -67 l295 0 l0 -715 l80 0 l0 715 l307 0 l0 67 l-307 0 l0 588 l508 0 Z" /><glyph glyph-name="" unicode="u" d="M207 1443 l-79 0 l0 -942 q3 -239 145 -379 q142 -140 394 -143 q252 3 394 143 q142 140 145 379 l0 942 l-79 0 l0 -939 q-2 -209 -123 -329 q-122 -120 -337 -122 q-215 2 -336 122 q-122 120 -124 329 l0 939 Z" /><glyph glyph-name="" unicode="ù" d="M635 1553 l78 0 l-280 290 l-95 0 l297 -290 ZM207 1443 l-79 0 l0 -942 q3 -239 145 -379 q142 -140 394 -143 q252 3 394 143 q142 140 145 379 l0 942 l-79 0 l0 -939 q-2 -209 -123 -329 q-122 -120 -337 -122 q-215 2 -336 122 q-122 120 -124 329 l0 939 Z" /><glyph glyph-name="" unicode="&#x214;" d="M755 1553 l75 0 l-280 290 l-93 0 l298 -290 ZM488 1553 l75 0 l-280 290 l-92 0 l297 -290 ZM207 1443 l-79 0 l0 -942 q3 -239 145 -379 q142 -140 394 -143 q252 3 394 143 q142 140 145 379 l0 942 l-79 0 l0 -939 q-2 -209 -123 -329 q-122 -120 -337 -122 q-215 2 -336 122 q-122 120 -124 329 l0 939 Z" /><glyph glyph-name="" unicode="ú" d="M698 1553 l297 290 l-96 0 l-279 -290 l78 0 ZM207 1443 l-79 0 l0 -942 q3 -239 145 -379 q142 -140 394 -143 q252 3 394 143 q142 140 145 379 l0 942 l-79 0 l0 -939 q-2 -209 -123 -329 q-122 -120 -337 -122 q-215 2 -336 122 q-122 120 -124 329 l0 939 Z" /><glyph glyph-name="" unicode="&#x170;" d="M207 1443 l-79 0 l0 -942 q3 -239 145 -379 q142 -140 394 -143 q252 3 394 143 q142 140 145 379 l0 942 l-79 0 l0 -939 q-2 -209 -123 -329 q-122 -120 -337 -122 q-215 2 -336 122 q-122 120 -124 329 l0 939 ZM844 1553 l297 290 l-92 0 l-280 -290 l75 0 ZM577 1553 l298 290 l-93 0 l-280 -290 l75 0 Z" /><glyph glyph-name="" unicode="û" d="M632 1843 l-271 -290 l83 0 l221 238 l2 0 l221 -238 l83 0 l-271 290 l-68 0 ZM207 1443 l-79 0 l0 -942 q3 -239 145 -379 q142 -140 394 -143 q252 3 394 143 q142 140 145 379 l0 942 l-79 0 l0 -939 q-2 -209 -123 -329 q-122 -120 -337 -122 q-215 2 -336 122 q-122 120 -124 329 l0 939 Z" /><glyph glyph-name="" unicode="&#x1d3;" d="M632 1553 l68 0 l271 290 l-83 0 l-221 -239 l-2 0 l-221 239 l-83 0 l271 -290 ZM207 1443 l-79 0 l0 -942 q3 -239 145 -379 q142 -140 394 -143 q252 3 394 143 q142 140 145 379 l0 942 l-79 0 l0 -939 q-2 -209 -123 -329 q-122 -120 -337 -122 q-215 2 -336 122 q-122 120 -124 329 l0 939 Z" /><glyph glyph-name="" unicode="&#x1e76;" d="M207 1443 l-79 0 l0 -942 q3 -239 145 -379 q142 -140 394 -143 q252 3 394 143 q142 140 145 379 l0 942 l-79 0 l0 -939 q-2 -209 -123 -329 q-122 -120 -337 -122 q-215 2 -336 122 q-122 120 -124 329 l0 939 ZM632 -147 l-271 -290 l83 0 l221 238 l2 0 l221 -238 l83 0 l-271 290 l-68 0 Z" /><glyph glyph-name="" unicode="ü" d="M514 1563 q28 1 47 20 q19 19 20 47 q-1 28 -20 47 q-19 18 -47 19 q-29 -1 -48 -19 q-19 -19 -20 -47 q1 -28 20 -47 q19 -19 48 -20 l0 0 ZM818 1563 q29 1 48 20 q19 19 20 47 q-1 28 -20 47 q-19 18 -48 19 q-28 -1 -47 -19 q-19 -19 -20 -47 q1 -28 20 -47 q19 -19 47 -20 l0 0 ZM207 1443 l-79 0 l0 -942 q3 -239 145 -379 q142 -140 394 -143 q252 3 394 143 q142 140 145 379 l0 942 l-79 0 l0 -939 q-2 -209 -123 -329 q-122 -120 -337 -122 q-215 2 -336 122 q-122 120 -124 329 l0 939 Z" /><glyph glyph-name="" unicode="&#x1db;" d="M715 1776 l-207 203 l-91 0 l224 -203 l74 0 ZM517 1565 q26 1 44 18 q18 18 19 45 q-1 26 -19 44 q-18 18 -44 19 q-27 -1 -45 -19 q-18 -18 -19 -44 q1 -27 19 -45 q18 -17 45 -18 l0 0 ZM815 1565 q27 1 45 18 q18 18 19 45 q-1 26 -19 44 q-18 18 -45 19 q-26 -1 -44 -19 q-18 -18 -19 -44 q1 -27 19 -45 q18 -17 44 -18 l0 0 ZM207 1443 l-79 0 l0 -942 q3 -239 145 -379 q142 -140 394 -143 q252 3 394 143 q142 140 145 379 l0 942 l-79 0 l0 -939 q-2 -209 -123 -329 q-122 -120 -337 -122 q-215 2 -336 122 q-122 120 -124 329 l0 939 Z" /><glyph glyph-name="" unicode="&#x1d7;" d="M617 1776 l74 0 l224 203 l-91 0 l-207 -203 ZM517 1565 q26 1 44 18 q18 18 19 45 q-1 26 -19 44 q-18 18 -44 19 q-27 -1 -45 -19 q-18 -18 -19 -44 q1 -27 19 -45 q18 -17 45 -18 l0 0 ZM815 1565 q27 1 45 18 q18 18 19 45 q-1 26 -19 44 q-18 18 -45 19 q-26 -1 -44 -19 q-18 -18 -19 -44 q1 -27 19 -45 q18 -17 44 -18 l0 0 ZM207 1443 l-79 0 l0 -942 q3 -239 145 -379 q142 -140 394 -143 q252 3 394 143 q142 140 145 379 l0 942 l-79 0 l0 -939 q-2 -209 -123 -329 q-122 -120 -337 -122 q-215 2 -336 122 q-122 120 -124 329 l0 939 Z" /><glyph glyph-name="" unicode="&#x1d5;" d="M207 1443 l-79 0 l0 -942 q3 -239 145 -379 q142 -140 394 -143 q252 3 394 143 q142 140 145 379 l0 942 l-79 0 l0 -939 q-2 -209 -123 -329 q-122 -120 -337 -122 q-215 2 -336 122 q-122 120 -124 329 l0 939 ZM517 1691 q-27 -1 -45 -19 q-18 -18 -19 -44 q1 -27 19 -45 q18 -17 45 -18 q26 1 44 18 q18 18 19 45 q-1 26 -19 44 q-18 18 -44 19 l0 0 ZM376 1919 l0 -57 l580 0 l0 57 l-580 0 ZM815 1691 q-26 -1 -44 -19 q-18 -18 -19 -44 q1 -27 19 -45 q18 -17 44 -18 q27 1 45 18 q18 18 19 45 q-1 26 -19 44 q-18 18 -45 19 l0 0 Z" /><glyph glyph-name="" unicode="&#x1d9;" d="M631 1776 l70 0 l266 203 l-93 0 l-205 -157 l-6 0 l-205 157 l-93 0 l266 -203 ZM517 1691 q-27 -1 -45 -19 q-18 -18 -19 -44 q1 -27 19 -45 q18 -17 45 -18 q26 1 44 18 q18 18 19 45 q-1 26 -19 44 q-18 18 -44 19 l0 0 ZM815 1691 q-26 -1 -44 -19 q-18 -18 -19 -44 q1 -27 19 -45 q18 -17 44 -18 q27 1 45 18 q18 18 19 45 q-1 26 -19 44 q-18 18 -45 19 l0 0 ZM207 1443 l-79 0 l0 -942 q3 -239 145 -379 q142 -140 394 -143 q252 3 394 143 q142 140 145 379 l0 942 l-79 0 l0 -939 q-2 -209 -123 -329 q-122 -120 -337 -122 q-215 2 -336 122 q-122 120 -124 329 l0 939 Z" /><glyph glyph-name="" unicode="&#x1e72;" d="M207 1443 l-79 0 l0 -942 q3 -239 145 -379 q142 -140 394 -143 q252 3 394 143 q142 140 145 379 l0 942 l-79 0 l0 -939 q-2 -209 -123 -329 q-122 -120 -337 -122 q-215 2 -336 122 q-122 120 -124 329 l0 939 ZM514 -279 q28 1 47 20 q19 19 20 47 q-1 28 -20 47 q-19 18 -47 19 q-29 -1 -48 -19 q-19 -19 -20 -47 q1 -28 20 -47 q19 -19 48 -20 l0 0 ZM818 -279 q29 1 48 20 q19 19 20 47 q-1 28 -20 47 q-19 18 -48 19 q-28 -1 -47 -19 q-19 -19 -20 -47 q1 -28 20 -47 q19 -19 47 -20 l0 0 Z" /><glyph glyph-name="" unicode="&#x1e74;" d="M801 -366 q74 2 112 59 q38 58 38 154 l-61 0 q0 -70 -21 -111 q-21 -42 -68 -43 q-68 10 -121 82 q-54 72 -148 82 q-75 -1 -112 -58 q-38 -57 -38 -154 l60 0 q0 69 22 111 q21 41 69 42 q70 -10 122 -82 q53 -72 146 -82 l0 0 ZM207 1443 l-79 0 l0 -942 q3 -239 145 -379 q142 -140 394 -143 q252 3 394 143 q142 140 145 379 l0 942 l-79 0 l0 -939 q-2 -209 -123 -329 q-122 -120 -337 -122 q-215 2 -336 122 q-122 120 -124 329 l0 939 Z" /><glyph glyph-name="" unicode="&#x1ee6;" d="M207 1443 l-79 0 l0 -942 q3 -239 145 -379 q142 -140 394 -143 q252 3 394 143 q142 140 145 379 l0 942 l-79 0 l0 -939 q-2 -209 -123 -329 q-122 -120 -337 -122 q-215 2 -336 122 q-122 120 -124 329 l0 939 ZM524 1750 q18 11 47 18 q30 8 59 8 q46 -1 74 -23 q28 -23 29 -61 q-1 -33 -23 -61 q-22 -28 -59 -44 l34 -42 q53 23 83 62 q30 39 30 88 q-1 62 -44 99 q-43 36 -115 37 q-34 0 -65 -8 q-31 -8 -50 -19 l0 -54 Z" /><glyph glyph-name="" unicode="&#x16c;" d="M207 1443 l-79 0 l0 -942 q3 -239 145 -379 q142 -140 394 -143 q252 3 394 143 q142 140 145 379 l0 942 l-79 0 l0 -939 q-2 -209 -123 -329 q-122 -120 -337 -122 q-215 2 -336 122 q-122 120 -124 329 l0 939 ZM397 1789 q2 -109 76 -172 q74 -63 193 -64 q119 1 193 64 q74 63 76 172 l-61 0 q-1 -78 -57 -128 q-57 -50 -151 -52 q-94 2 -150 52 q-57 50 -58 128 l-61 0 Z" /><glyph glyph-name="" unicode="&#x216;" d="M207 1443 l-79 0 l0 -942 q3 -239 145 -379 q142 -140 394 -143 q252 3 394 143 q142 140 145 379 l0 942 l-79 0 l0 -939 q-2 -209 -123 -329 q-122 -120 -337 -122 q-215 2 -336 122 q-122 120 -124 329 l0 939 ZM397 1553 l61 0 q1 77 58 127 q56 50 150 52 q94 -2 151 -52 q56 -50 57 -127 l61 0 q-2 109 -76 172 q-74 63 -193 64 q-119 -1 -193 -64 q-74 -63 -76 -172 l0 0 Z" /><glyph glyph-name="" unicode="&#x1e78;" d="M207 1443 l-79 0 l0 -942 q3 -239 145 -379 q142 -140 394 -143 q252 3 394 143 q142 140 145 379 l0 942 l-79 0 l0 -939 q-2 -209 -123 -329 q-122 -120 -337 -122 q-215 2 -336 122 q-122 120 -124 329 l0 939 ZM786 1548 q71 1 109 54 q38 52 38 137 l-61 0 q0 -60 -21 -96 q-21 -35 -65 -36 q-63 9 -107 75 q-44 66 -134 75 q-72 -1 -109 -53 q-38 -52 -38 -138 l61 0 q0 59 22 95 q21 36 66 37 q64 -9 108 -75 q43 -66 131 -75 l0 0 ZM660 1805 l73 0 l183 174 l-91 0 l-165 -174 Z" /><glyph glyph-name="" unicode="&#x1ee4;" d="M666 -295 q32 1 54 22 q22 22 23 54 q-1 32 -23 54 q-22 21 -54 22 q-32 -1 -54 -22 q-22 -22 -23 -54 q1 -32 23 -54 q22 -21 54 -22 l0 0 ZM207 1443 l-79 0 l0 -942 q3 -239 145 -379 q142 -140 394 -143 q252 3 394 143 q142 140 145 379 l0 942 l-79 0 l0 -939 q-2 -209 -123 -329 q-122 -120 -337 -122 q-215 2 -336 122 q-122 120 -124 329 l0 939 Z" /><glyph glyph-name="" unicode="&#x168;" d="M207 1443 l-79 0 l0 -942 q3 -239 145 -379 q142 -140 394 -143 q252 3 394 143 q142 140 145 379 l0 942 l-79 0 l0 -939 q-2 -209 -123 -329 q-122 -120 -337 -122 q-215 2 -336 122 q-122 120 -124 329 l0 939 ZM801 1549 q74 2 112 59 q38 58 38 154 l-61 0 q0 -70 -21 -111 q-21 -42 -68 -43 q-68 10 -121 82 q-54 72 -148 82 q-75 -1 -112 -58 q-38 -57 -38 -154 l60 0 q0 69 22 111 q21 41 69 42 q70 -10 122 -82 q53 -72 146 -82 l0 0 Z" /><glyph glyph-name="" unicode="&#x16a;" d="M207 1443 l-79 0 l0 -942 q3 -239 145 -379 q142 -140 394 -143 q252 3 394 143 q142 140 145 379 l0 942 l-79 0 l0 -939 q-2 -209 -123 -329 q-122 -120 -337 -122 q-215 2 -336 122 q-122 120 -124 329 l0 939 ZM956 1679 l-580 0 l0 -57 l580 0 l0 57 Z" /><glyph glyph-name="" unicode="&#x1e7a;" d="M956 1623 l0 57 l-580 0 l0 -57 l580 0 ZM517 1822 q26 1 44 18 q18 18 19 45 q-1 26 -19 44 q-18 18 -44 19 q-27 -1 -45 -19 q-18 -18 -19 -44 q1 -27 19 -45 q18 -17 45 -18 l0 0 ZM815 1822 q27 1 45 18 q18 18 19 45 q-1 26 -19 44 q-18 18 -45 19 q-26 -1 -44 -19 q-18 -18 -19 -44 q1 -27 19 -45 q18 -17 44 -18 l0 0 ZM207 1443 l-79 0 l0 -942 q3 -239 145 -379 q142 -140 394 -143 q252 3 394 143 q142 140 145 379 l0 942 l-79 0 l0 -939 q-2 -209 -123 -329 q-122 -120 -337 -122 q-215 2 -336 122 q-122 120 -124 329 l0 939 Z" /><glyph glyph-name="" unicode="&#x16e;" d="M666 1506 q73 2 122 51 q48 50 50 122 q-2 73 -50 122 q-49 49 -122 51 q-73 -2 -122 -51 q-48 -49 -50 -122 q2 -72 50 -122 q49 -49 122 -51 l0 0 ZM666 1555 q-54 1 -88 36 q-35 35 -36 88 q1 53 36 88 q34 36 88 37 q54 -1 88 -37 q35 -35 36 -88 q-1 -53 -36 -88 q-34 -35 -88 -36 l0 0 ZM207 1443 l-79 0 l0 -942 q3 -239 145 -379 q142 -140 394 -143 q252 3 394 143 q142 140 145 379 l0 942 l-79 0 l0 -939 q-2 -209 -123 -329 q-122 -120 -337 -122 q-215 2 -336 122 q-122 120 -124 329 l0 939 Z" /><glyph glyph-name="" unicode="&#x172;" d="M898 -395 q23 0 44 3 q20 3 35 8 l0 64 q-9 -3 -28 -5 q-18 -2 -40 -2 q-62 1 -100 34 q-38 33 -39 87 q0 62 50 124 q50 61 150 127 q113 78 174 189 q61 111 62 267 l0 942 l-79 0 l0 -939 q-2 -211 -125 -330 q-122 -119 -335 -121 q-213 2 -335 121 q-123 119 -125 330 l0 939 l-79 0 l0 -942 q3 -241 146 -380 q143 -139 393 -142 q46 0 91 8 q44 9 84 25 l0 -4 q-74 -50 -111 -106 q-37 -57 -37 -120 q2 -79 57 -127 q56 -49 147 -50 l0 0 Z" /><glyph glyph-name="" unicode="&#x1af;" d="M667 -21 q249 3 393 141 q143 139 146 381 l0 879 l74 0 q82 1 127 39 q44 39 45 110 l0 173 l-74 0 l0 -157 q0 -52 -28 -77 q-28 -25 -86 -25 l-137 0 l0 -939 q-3 -207 -126 -327 q-123 -121 -334 -124 q-211 3 -334 124 q-123 120 -126 327 l0 939 l-79 0 l0 -942 q3 -242 146 -381 q143 -138 393 -141 l0 0 Z" /><glyph glyph-name="" unicode="&#x1eea;" d="M635 1553 l78 0 l-280 290 l-95 0 l297 -290 ZM667 -21 q249 3 393 141 q143 139 146 381 l0 879 l74 0 q82 1 127 39 q44 39 45 110 l0 173 l-74 0 l0 -157 q0 -52 -28 -77 q-28 -25 -86 -25 l-137 0 l0 -939 q-3 -207 -126 -327 q-123 -121 -334 -124 q-211 3 -334 124 q-123 120 -126 327 l0 939 l-79 0 l0 -942 q3 -242 146 -381 q143 -138 393 -141 l0 0 Z" /><glyph glyph-name="" unicode="&#x1ee8;" d="M698 1553 l297 290 l-96 0 l-279 -290 l78 0 ZM667 -21 q249 3 393 141 q143 139 146 381 l0 879 l74 0 q82 1 127 39 q44 39 45 110 l0 173 l-74 0 l0 -157 q0 -52 -28 -77 q-28 -25 -86 -25 l-137 0 l0 -939 q-3 -207 -126 -327 q-123 -121 -334 -124 q-211 3 -334 124 q-123 120 -126 327 l0 939 l-79 0 l0 -942 q3 -242 146 -381 q143 -138 393 -141 l0 0 Z" /><glyph glyph-name="" unicode="&#x1ef0;" d="M666 -295 q32 1 54 22 q22 22 23 54 q-1 32 -23 54 q-22 21 -54 22 q-32 -1 -54 -22 q-22 -22 -23 -54 q1 -32 23 -54 q22 -21 54 -22 l0 0 ZM667 -21 q249 3 393 141 q143 139 146 381 l0 879 l74 0 q82 1 127 39 q44 39 45 110 l0 173 l-74 0 l0 -157 q0 -52 -28 -77 q-28 -25 -86 -25 l-137 0 l0 -939 q-3 -207 -126 -327 q-123 -121 -334 -124 q-211 3 -334 124 q-123 120 -126 327 l0 939 l-79 0 l0 -942 q3 -242 146 -381 q143 -138 393 -141 l0 0 Z" /><glyph glyph-name="" unicode="&#x1eec;" d="M524 1750 q18 11 47 18 q30 8 59 8 q46 -1 74 -23 q28 -23 29 -61 q-1 -33 -23 -61 q-22 -28 -59 -44 l34 -42 q53 23 83 62 q30 39 30 88 q-1 62 -44 99 q-43 36 -115 37 q-34 0 -65 -8 q-31 -8 -50 -19 l0 -54 ZM667 -21 q249 3 393 141 q143 139 146 381 l0 879 l74 0 q82 1 127 39 q44 39 45 110 l0 173 l-74 0 l0 -157 q0 -52 -28 -77 q-28 -25 -86 -25 l-137 0 l0 -939 q-3 -207 -126 -327 q-123 -121 -334 -124 q-211 3 -334 124 q-123 120 -126 327 l0 939 l-79 0 l0 -942 q3 -242 146 -381 q143 -138 393 -141 l0 0 Z" /><glyph glyph-name="" unicode="&#x1eee;" d="M801 1549 q74 2 112 59 q38 58 38 154 l-61 0 q0 -70 -21 -111 q-21 -42 -68 -43 q-68 10 -121 82 q-54 72 -148 82 q-75 -1 -112 -58 q-38 -57 -38 -154 l60 0 q0 69 22 111 q21 41 69 42 q70 -10 122 -82 q53 -72 146 -82 l0 0 ZM667 -21 q249 3 393 141 q143 139 146 381 l0 879 l74 0 q82 1 127 39 q44 39 45 110 l0 173 l-74 0 l0 -157 q0 -52 -28 -77 q-28 -25 -86 -25 l-137 0 l0 -939 q-3 -207 -126 -327 q-123 -121 -334 -124 q-211 3 -334 124 q-123 120 -126 327 l0 939 l-79 0 l0 -942 q3 -242 146 -381 q143 -138 393 -141 l0 0 Z" /><glyph glyph-name="" unicode="v" d="M651 0 l550 1443 l-84 0 l-503 -1338 l-5 0 l-503 1338 l-85 0 l550 -1443 l80 0 Z" /><glyph glyph-name="" unicode="&#x1e7c;" d="M746 1549 q74 2 112 59 q38 58 38 154 l-61 0 q0 -70 -21 -111 q-21 -42 -68 -43 q-68 10 -121 82 q-54 72 -148 82 q-75 -1 -112 -58 q-38 -57 -38 -154 l60 0 q0 69 22 111 q21 41 69 42 q70 -10 122 -82 q53 -72 146 -82 l0 0 ZM651 0 l550 1443 l-84 0 l-503 -1338 l-5 0 l-503 1338 l-85 0 l550 -1443 l80 0 Z" /><glyph glyph-name="" unicode="&#x1e7e;" d="M611 -295 q32 1 54 22 q22 22 23 54 q-1 32 -23 54 q-22 21 -54 22 q-32 -1 -54 -22 q-22 -22 -23 -54 q1 -32 23 -54 q22 -21 54 -22 l0 0 ZM651 0 l550 1443 l-84 0 l-503 -1338 l-5 0 l-503 1338 l-85 0 l550 -1443 l80 0 Z" /><glyph glyph-name="" unicode="w" d="M899 1295 l5 0 l384 -1295 l70 0 l403 1443 l-83 0 l-355 -1306 l-5 0 l-380 1306 l-74 0 l-379 -1306 l-5 0 l-356 1306 l-82 0 l403 -1443 l70 0 l384 1295 Z" /><glyph glyph-name="" unicode="&#x1e80;" d="M870 1553 l78 0 l-280 290 l-95 0 l297 -290 ZM899 1295 l5 0 l384 -1295 l70 0 l403 1443 l-83 0 l-355 -1306 l-5 0 l-380 1306 l-74 0 l-379 -1306 l-5 0 l-356 1306 l-82 0 l403 -1443 l70 0 l384 1295 Z" /><glyph glyph-name="" unicode="&#x1e82;" d="M933 1553 l297 290 l-96 0 l-279 -290 l78 0 ZM899 1295 l5 0 l384 -1295 l70 0 l403 1443 l-83 0 l-355 -1306 l-5 0 l-380 1306 l-74 0 l-379 -1306 l-5 0 l-356 1306 l-82 0 l403 -1443 l70 0 l384 1295 Z" /><glyph glyph-name="" unicode="&#x1e86;" d="M901 1563 q32 1 54 22 q22 22 23 54 q-1 32 -23 54 q-22 21 -54 22 q-32 -1 -54 -22 q-22 -22 -23 -54 q1 -32 23 -54 q22 -21 54 -22 l0 0 ZM899 1295 l5 0 l384 -1295 l70 0 l403 1443 l-83 0 l-355 -1306 l-5 0 l-380 1306 l-74 0 l-379 -1306 l-5 0 l-356 1306 l-82 0 l403 -1443 l70 0 l384 1295 Z" /><glyph glyph-name="" unicode="&#x1e88;" d="M901 -295 q32 1 54 22 q22 22 23 54 q-1 32 -23 54 q-22 21 -54 22 q-32 -1 -54 -22 q-22 -22 -23 -54 q1 -32 23 -54 q22 -21 54 -22 l0 0 ZM899 1295 l5 0 l384 -1295 l70 0 l403 1443 l-83 0 l-355 -1306 l-5 0 l-380 1306 l-74 0 l-379 -1306 l-5 0 l-356 1306 l-82 0 l403 -1443 l70 0 l384 1295 Z" /><glyph glyph-name="" unicode="&#x1e84;" d="M749 1563 q28 1 47 20 q19 19 20 47 q-1 28 -20 47 q-19 18 -47 19 q-29 -1 -48 -19 q-19 -19 -20 -47 q1 -28 20 -47 q19 -19 48 -20 l0 0 ZM1053 1563 q29 1 48 20 q19 19 20 47 q-1 28 -20 47 q-19 18 -48 19 q-28 -1 -47 -19 q-19 -19 -20 -47 q1 -28 20 -47 q19 -19 47 -20 l0 0 ZM899 1295 l5 0 l384 -1295 l70 0 l403 1443 l-83 0 l-355 -1306 l-5 0 l-380 1306 l-74 0 l-379 -1306 l-5 0 l-356 1306 l-82 0 l403 -1443 l70 0 l384 1295 Z" /><glyph glyph-name="" unicode="&#x174;" d="M867 1843 l-271 -290 l83 0 l221 238 l2 0 l221 -238 l83 0 l-271 290 l-68 0 ZM899 1295 l5 0 l384 -1295 l70 0 l403 1443 l-83 0 l-355 -1306 l-5 0 l-380 1306 l-74 0 l-379 -1306 l-5 0 l-356 1306 l-82 0 l403 -1443 l70 0 l384 1295 Z" /><glyph glyph-name="" unicode="x" d="M42 0 l92 0 l471 656 l2 0 l468 -656 l95 0 l-515 720 l0 2 l518 721 l-92 0 l-471 -658 l-2 0 l-469 658 l-95 0 l514 -719 l0 -2 l-516 -722 Z" /><glyph glyph-name="" unicode="&#x1e8a;" d="M42 0 l92 0 l471 656 l2 0 l468 -656 l95 0 l-515 720 l0 2 l518 721 l-92 0 l-471 -658 l-2 0 l-469 658 l-95 0 l514 -719 l0 -2 l-516 -722 ZM608 1563 q32 1 54 22 q22 22 23 54 q-1 32 -23 54 q-22 21 -54 22 q-32 -1 -54 -22 q-22 -22 -23 -54 q1 -32 23 -54 q22 -21 54 -22 l0 0 Z" /><glyph glyph-name="" unicode="&#x1e8c;" d="M42 0 l92 0 l471 656 l2 0 l468 -656 l95 0 l-515 720 l0 2 l518 721 l-92 0 l-471 -658 l-2 0 l-469 658 l-95 0 l514 -719 l0 -2 l-516 -722 ZM456 1563 q28 1 47 20 q19 19 20 47 q-1 28 -20 47 q-19 18 -47 19 q-29 -1 -48 -19 q-19 -19 -20 -47 q1 -28 20 -47 q19 -19 48 -20 l0 0 ZM760 1563 q29 1 48 20 q19 19 20 47 q-1 28 -20 47 q-19 18 -48 19 q-28 -1 -47 -19 q-19 -19 -20 -47 q1 -28 20 -47 q19 -19 47 -20 l0 0 Z" /><glyph glyph-name="" unicode="y" d="M626 0 l0 629 l524 814 l-92 0 l-469 -733 l-5 0 l-469 733 l-93 0 l525 -814 l0 -629 l79 0 Z" /><glyph glyph-name="" unicode="&#x1ef2;" d="M626 0 l0 629 l524 814 l-92 0 l-469 -733 l-5 0 l-469 733 l-93 0 l525 -814 l0 -629 l79 0 ZM555 1553 l78 0 l-280 290 l-95 0 l297 -290 Z" /><glyph glyph-name="" unicode="ý" d="M626 0 l0 629 l524 814 l-92 0 l-469 -733 l-5 0 l-469 733 l-93 0 l525 -814 l0 -629 l79 0 ZM618 1553 l297 290 l-96 0 l-279 -290 l78 0 Z" /><glyph glyph-name="" unicode="&#x1e8e;" d="M626 0 l0 629 l524 814 l-92 0 l-469 -733 l-5 0 l-469 733 l-93 0 l525 -814 l0 -629 l79 0 ZM586 1563 q32 1 54 22 q22 22 23 54 q-1 32 -23 54 q-22 21 -54 22 q-32 -1 -54 -22 q-22 -22 -23 -54 q1 -32 23 -54 q22 -21 54 -22 l0 0 Z" /><glyph glyph-name="" unicode="&#x1ef4;" d="M626 0 l0 629 l524 814 l-92 0 l-469 -733 l-5 0 l-469 733 l-93 0 l525 -814 l0 -629 l79 0 ZM586 -295 q32 1 54 22 q22 22 23 54 q-1 32 -23 54 q-22 21 -54 22 q-32 -1 -54 -22 q-22 -22 -23 -54 q1 -32 23 -54 q22 -21 54 -22 l0 0 Z" /><glyph glyph-name="" unicode="&#x178;" d="M626 0 l0 629 l524 814 l-92 0 l-469 -733 l-5 0 l-469 733 l-93 0 l525 -814 l0 -629 l79 0 ZM434 1563 q28 1 47 20 q19 19 20 47 q-1 28 -20 47 q-19 18 -47 19 q-29 -1 -48 -19 q-19 -19 -20 -47 q1 -28 20 -47 q19 -19 48 -20 l0 0 ZM738 1563 q29 1 48 20 q19 19 20 47 q-1 28 -20 47 q-19 18 -48 19 q-28 -1 -47 -19 q-19 -19 -20 -47 q1 -28 20 -47 q19 -19 47 -20 l0 0 Z" /><glyph glyph-name="" unicode="&#x1ef8;" d="M626 0 l0 629 l524 814 l-92 0 l-469 -733 l-5 0 l-469 733 l-93 0 l525 -814 l0 -629 l79 0 ZM721 1549 q74 2 112 59 q38 58 38 154 l-61 0 q0 -70 -21 -111 q-21 -42 -68 -43 q-68 10 -121 82 q-54 72 -148 82 q-75 -1 -112 -58 q-38 -57 -38 -154 l60 0 q0 69 22 111 q21 41 69 42 q70 -10 122 -82 q53 -72 146 -82 l0 0 Z" /><glyph glyph-name="" unicode="&#x176;" d="M626 0 l0 629 l524 814 l-92 0 l-469 -733 l-5 0 l-469 733 l-93 0 l525 -814 l0 -629 l79 0 ZM552 1843 l-271 -290 l83 0 l221 238 l2 0 l221 -238 l83 0 l-271 290 l-68 0 Z" /><glyph glyph-name="" unicode="&#x232;" d="M626 0 l0 629 l524 814 l-92 0 l-469 -733 l-5 0 l-469 733 l-93 0 l525 -814 l0 -629 l79 0 ZM876 1679 l-580 0 l0 -57 l580 0 l0 57 Z" /><glyph glyph-name="" unicode="&#x1ef6;" d="M626 0 l0 629 l524 814 l-92 0 l-469 -733 l-5 0 l-469 733 l-93 0 l525 -814 l0 -629 l79 0 ZM444 1750 q18 11 47 18 q30 8 59 8 q46 -1 74 -23 q28 -23 29 -61 q-1 -33 -23 -61 q-22 -28 -59 -44 l34 -42 q53 23 83 62 q30 39 30 88 q-1 62 -44 99 q-43 36 -115 37 q-34 0 -65 -8 q-31 -8 -50 -19 l0 -54 Z" /><glyph glyph-name="" unicode="z" d="M71 0 l1031 0 l0 73 l-928 0 l0 5 l923 1303 l0 62 l-997 0 l0 -73 l896 0 l0 -5 l-925 -1303 l0 -62 Z" /><glyph glyph-name="" unicode="&#x179;" d="M619 1553 l297 290 l-96 0 l-279 -290 l78 0 ZM71 0 l1031 0 l0 73 l-928 0 l0 5 l923 1303 l0 62 l-997 0 l0 -73 l896 0 l0 -5 l-925 -1303 l0 -62 Z" /><glyph glyph-name="" unicode="&#x17d;" d="M71 0 l1031 0 l0 73 l-928 0 l0 5 l923 1303 l0 62 l-997 0 l0 -73 l896 0 l0 -5 l-925 -1303 l0 -62 ZM553 1553 l68 0 l271 290 l-83 0 l-221 -239 l-2 0 l-221 239 l-83 0 l271 -290 Z" /><glyph glyph-name="" unicode="&#x1e90;" d="M71 0 l1031 0 l0 73 l-928 0 l0 5 l923 1303 l0 62 l-997 0 l0 -73 l896 0 l0 -5 l-925 -1303 l0 -62 ZM553 1843 l-271 -290 l83 0 l221 238 l2 0 l221 -238 l83 0 l-271 290 l-68 0 Z" /><glyph glyph-name="" unicode="&#x1e94;" d="M71 0 l1031 0 l0 73 l-928 0 l0 5 l923 1303 l0 62 l-997 0 l0 -73 l896 0 l0 -5 l-925 -1303 l0 -62 ZM877 -205 l-580 0 l0 -57 l580 0 l0 57 Z" /><glyph glyph-name="" unicode="&#x1e92;" d="M587 -295 q32 1 54 22 q22 22 23 54 q-1 32 -23 54 q-22 21 -54 22 q-32 -1 -54 -22 q-22 -22 -23 -54 q1 -32 23 -54 q22 -21 54 -22 l0 0 ZM71 0 l1031 0 l0 73 l-928 0 l0 5 l923 1303 l0 62 l-997 0 l0 -73 l896 0 l0 -5 l-925 -1303 l0 -62 Z" /><glyph glyph-name="" unicode="&#x17b;" d="M587 1563 q32 1 54 22 q22 22 23 54 q-1 32 -23 54 q-22 21 -54 22 q-32 -1 -54 -22 q-22 -22 -23 -54 q1 -32 23 -54 q22 -21 54 -22 l0 0 ZM71 0 l1031 0 l0 73 l-928 0 l0 5 l923 1303 l0 62 l-997 0 l0 -73 l896 0 l0 -5 l-925 -1303 l0 -62 Z" /><glyph glyph-name="" unicode="æ" d="M815 1373 l184 0 l0 -881 l-625 0 l441 881 ZM999 0 l790 0 l0 73 l-712 0 l0 628 l676 0 l0 72 l-676 0 l0 597 l712 0 l0 73 l-1021 0 l-722 -1443 l84 0 l210 422 l659 0 l0 -422 Z" /><glyph glyph-name="" unicode="&#x1e2;" d="M815 1373 l184 0 l0 -881 l-625 0 l441 881 ZM999 0 l790 0 l0 73 l-712 0 l0 628 l676 0 l0 72 l-676 0 l0 597 l712 0 l0 73 l-1021 0 l-722 -1443 l84 0 l210 422 l659 0 l0 -422 ZM1621 1679 l-580 0 l0 -57 l580 0 l0 57 Z" /><glyph glyph-name="" unicode="&#x1fc;" d="M1221 1553 l297 290 l-96 0 l-279 -290 l78 0 ZM815 1373 l184 0 l0 -881 l-625 0 l441 881 ZM999 0 l790 0 l0 73 l-712 0 l0 628 l676 0 l0 72 l-676 0 l0 597 l712 0 l0 73 l-1021 0 l-722 -1443 l84 0 l210 422 l659 0 l0 -422 Z" /><glyph glyph-name="" unicode="&#x152;" d="M716 1390 q263 -4 414 -181 q151 -178 154 -487 q-3 -310 -154 -488 q-151 -178 -414 -181 q-263 4 -414 182 q-151 177 -154 487 q3 310 154 487 q151 178 414 181 l0 0 ZM1285 0 l815 0 l0 73 l-735 0 l0 631 l698 0 l0 72 l-698 0 l0 594 l735 0 l0 73 l-815 0 l0 -370 q-69 189 -215 289 q-147 101 -354 102 q-303 -3 -474 -199 q-172 -196 -175 -543 q3 -347 175 -543 q171 -196 474 -200 q206 1 353 102 q147 102 216 291 l0 -372 Z" /><glyph glyph-name="" unicode="ð" d="M226 73 l0 632 l358 0 l0 73 l-358 0 l0 592 l365 0 q296 -1 453 -168 q158 -167 159 -481 q-1 -313 -159 -480 q-157 -166 -453 -168 l-365 0 ZM146 1443 l0 -665 l-123 0 l0 -73 l123 0 l0 -705 l449 0 q330 2 508 189 q178 187 180 533 q-2 346 -180 532 q-178 187 -508 189 l-449 0 Z" /><glyph glyph-name="" unicode="þ" d="M163 1443 l0 -1443 l80 0 l0 352 l403 0 q200 2 319 107 q119 105 122 295 q-3 191 -123 297 q-120 105 -317 107 l-404 0 l0 285 l-80 0 ZM243 1085 l390 0 q176 -2 275 -89 q98 -87 100 -242 q-2 -155 -100 -242 q-99 -87 -275 -88 l-390 0 l0 661 Z" /><glyph glyph-name="" unicode="&#x391;" d="M1115 0 l85 0 l-549 1443 l-80 0 l-550 -1443 l86 0 l179 481 l649 0 l180 -481 ZM608 1340 l5 0 l297 -788 l-598 0 l296 788 Z" /><glyph glyph-name="" unicode="&#x392;" d="M625 0 q229 2 356 104 q128 102 130 281 q-3 158 -103 252 q-101 93 -257 111 l0 6 q131 27 207 117 q75 90 77 221 q-3 159 -116 254 q-114 95 -305 97 l-486 0 l0 -1443 l497 0 ZM207 1371 l395 0 q163 -1 257 -77 q94 -76 96 -208 q-2 -144 -101 -225 q-99 -82 -271 -83 l-376 0 l0 593 ZM207 72 l0 635 l389 0 q207 -1 320 -85 q114 -84 115 -235 q-1 -147 -109 -230 q-108 -83 -305 -85 l-410 0 Z" /><glyph glyph-name="" unicode="&#x393;" d="M207 0 l0 1370 l731 0 l0 73 l-810 0 l0 -1443 l79 0 Z" /><glyph glyph-name="" unicode="&#x394;" d="M1220 0 l0 57 l-548 1386 l-80 0 l-548 -1386 l0 -57 l1176 0 ZM136 78 l493 1265 l5 0 l493 -1265 l0 -5 l-991 0 l0 5 Z" /><glyph glyph-name="" unicode="&#x395;" d="M969 73 l-762 0 l0 631 l726 0 l0 72 l-726 0 l0 594 l762 0 l0 73 l-841 0 l0 -1443 l841 0 l0 73 Z" /><glyph glyph-name="" unicode="&#x396;" d="M71 0 l1031 0 l0 73 l-928 0 l0 5 l923 1303 l0 62 l-997 0 l0 -73 l896 0 l0 -5 l-925 -1303 l0 -62 Z" /><glyph glyph-name="" unicode="&#x397;" d="M1199 0 l0 1443 l-79 0 l0 -666 l-913 0 l0 666 l-79 0 l0 -1443 l79 0 l0 705 l913 0 l0 -705 l79 0 Z" /><glyph glyph-name="" unicode="&#x398;" d="M1053 691 l0 73 l-683 0 l0 -73 l683 0 ZM712 1464 q-300 -4 -471 -201 q-171 -197 -174 -541 q3 -346 174 -542 q171 -197 471 -201 q300 4 471 201 q170 196 173 542 q-3 344 -174 541 q-171 197 -470 201 l0 0 ZM712 1390 q262 -3 411 -181 q149 -177 152 -487 q-3 -310 -152 -488 q-150 -178 -411 -181 q-262 3 -411 181 q-150 178 -153 488 q3 310 153 487 q149 178 411 181 l0 0 Z" /><glyph glyph-name="" unicode="&#x399;" d="M207 0 l0 1443 l-79 0 l0 -1443 l79 0 Z" /><glyph glyph-name="" unicode="&#x39a;" d="M207 0 l0 528 l207 223 l615 -751 l101 0 l-660 807 l594 636 l-101 0 l-750 -806 l-6 0 l0 806 l-79 0 l0 -1443 l79 0 Z" /><glyph glyph-name="" unicode="&#x39b;" d="M1075 0 l85 0 l-529 1443 l-80 0 l-530 -1443 l86 0 l481 1334 l5 0 l482 -1334 Z" /><glyph glyph-name="" unicode="&#x39c;" d="M1476 0 l0 1443 l-90 0 l-581 -1340 l-6 0 l-583 1340 l-88 0 l0 -1443 l76 0 l0 1279 l4 0 l556 -1276 l76 0 l556 1276 l4 0 l0 -1279 l76 0 Z" /><glyph glyph-name="" unicode="&#x39d;" d="M206 0 l0 1307 l6 0 l927 -1307 l75 0 l0 1443 l-79 0 l0 -1299 l-6 0 l-919 1299 l-82 0 l0 -1443 l78 0 Z" /><glyph glyph-name="" unicode="&#x39e;" d="M78 1443 l0 -75 l1020 0 l0 75 l-1020 0 ZM1034 704 l0 75 l-891 0 l0 -75 l891 0 ZM78 75 l0 -75 l1020 0 l0 75 l-1020 0 Z" /><glyph glyph-name="" unicode="&#x39f;" d="M710 1464 q-298 -4 -469 -201 q-171 -197 -174 -541 q3 -346 174 -542 q170 -197 469 -201 q299 4 469 201 q171 196 174 542 q-3 344 -174 541 q-171 197 -469 201 l0 0 ZM710 1390 q260 -3 410 -181 q149 -177 152 -487 q-3 -310 -152 -488 q-150 -178 -410 -181 q-260 3 -410 181 q-149 178 -152 488 q3 310 152 487 q149 178 410 181 l0 0 Z" /><glyph glyph-name="" unicode="&#x3a0;" d="M1179 0 l0 1443 l-1051 0 l0 -1443 l79 0 l0 1370 l893 0 l0 -1370 l79 0 Z" /><glyph glyph-name="" unicode="&#x3a1;" d="M128 1443 l0 -1443 l79 0 l0 582 l390 0 q213 2 337 117 q124 115 127 313 q-3 198 -127 313 q-124 116 -337 118 l-469 0 ZM207 1371 l377 0 q185 -2 290 -96 q104 -94 106 -263 q-2 -168 -107 -262 q-105 -94 -289 -96 l-377 0 l0 717 Z" /><glyph glyph-name="" unicode="&#x3a3;" d="M171 78 l458 660 l0 5 l-438 622 l0 5 l880 0 l0 73 l-981 0 l0 -66 l450 -640 l-469 -675 l0 -62 l1008 0 l0 73 l-908 0 l0 5 Z" /><glyph glyph-name="" unicode="&#x3a4;" d="M609 0 l0 1370 l508 0 l0 73 l-1096 0 l0 -73 l508 0 l0 -1370 l80 0 Z" /><glyph glyph-name="" unicode="&#x3a5;" d="M626 0 l0 629 l524 814 l-92 0 l-469 -733 l-5 0 l-469 733 l-93 0 l525 -814 l0 -629 l79 0 Z" /><glyph glyph-name="" unicode="&#x3a6;" d="M1414 722 q-2 -272 -159 -424 q-156 -152 -440 -157 l0 1163 q284 -6 441 -157 q156 -152 158 -425 l0 0 ZM138 722 q2 273 158 425 q157 151 440 157 l0 -1163 q-283 5 -439 157 q-157 152 -159 424 l0 0 ZM815 -59 l0 127 q321 6 500 177 q178 171 181 477 q-3 306 -181 477 q-179 171 -500 177 l0 116 l-79 0 l0 -116 q-321 -6 -498 -177 q-178 -171 -181 -477 q3 -306 181 -477 q177 -171 498 -177 l0 -127 l79 0 Z" /><glyph glyph-name="" unicode="&#x3a7;" d="M42 0 l92 0 l471 656 l2 0 l468 -656 l95 0 l-515 720 l0 2 l518 721 l-92 0 l-471 -658 l-2 0 l-469 658 l-95 0 l514 -719 l0 -2 l-516 -722 Z" /><glyph glyph-name="" unicode="&#x3a8;" d="M760 0 l0 353 q278 1 425 145 q147 143 148 414 l0 531 l-79 0 l0 -530 q-1 -236 -126 -360 q-126 -124 -368 -126 l0 1016 l-79 0 l0 -1016 q-242 2 -368 126 q-125 124 -126 360 l0 530 l-79 0 l0 -531 q1 -271 148 -414 q147 -144 425 -145 l0 -353 l79 0 Z" /><glyph glyph-name="" unicode="&#x3a9;" d="M1322 771 q1 -226 -108 -390 q-109 -165 -337 -279 l0 -102 l520 0 l0 73 l-431 0 l0 5 q216 112 326 286 q110 173 110 409 q-4 309 -179 497 q-175 189 -470 194 q-295 -5 -471 -192 q-176 -188 -180 -499 q1 -236 111 -410 q111 -174 325 -285 l0 -5 l-431 0 l0 -73 l520 0 l0 102 q-228 114 -337 279 q-109 164 -108 390 q4 280 158 447 q154 168 413 172 q259 -5 412 -173 q153 -169 157 -446 l0 0 Z" /><glyph glyph-name="" unicode="&#x386;" d="M1114 0 l85 0 l-549 1443 l-80 0 l-550 -1443 l86 0 l179 481 l649 0 l180 -481 ZM607 1340 l5 0 l297 -788 l-598 0 l296 788 ZM135 1109 l67 0 l126 334 l-99 0 l-94 -334 Z" /><glyph glyph-name="" unicode="&#x388;" d="M48 1109 l67 0 l126 334 l-99 0 l-94 -334 ZM1204 73 l-762 0 l0 631 l726 0 l0 72 l-726 0 l0 594 l762 0 l0 73 l-841 0 l0 -1443 l841 0 l0 73 Z" /><glyph glyph-name="" unicode="&#x389;" d="M48 1109 l67 0 l126 334 l-99 0 l-94 -334 ZM1434 0 l0 1443 l-79 0 l0 -666 l-913 0 l0 666 l-79 0 l0 -1443 l79 0 l0 705 l913 0 l0 -705 l79 0 Z" /><glyph glyph-name="" unicode="&#x38a;" d="M442 0 l0 1443 l-79 0 l0 -1443 l79 0 ZM48 1109 l67 0 l126 334 l-99 0 l-94 -334 Z" /><glyph glyph-name="" unicode="&#x3aa;" d="M245 0 l0 1443 l-79 0 l0 -1443 l79 0 ZM53 1563 q28 1 47 20 q19 19 20 47 q-1 28 -20 47 q-19 18 -47 19 q-29 -1 -48 -19 q-19 -19 -20 -47 q1 -28 20 -47 q19 -19 48 -20 l0 0 ZM357 1563 q29 1 48 20 q19 19 20 47 q-1 28 -20 47 q-19 18 -48 19 q-28 -1 -47 -19 q-19 -19 -20 -47 q1 -28 20 -47 q19 -19 47 -20 l0 0 Z" /><glyph glyph-name="" unicode="&#x38c;" d="M843 1464 q-298 -4 -469 -201 q-171 -197 -174 -541 q3 -346 174 -542 q170 -197 469 -201 q299 4 469 201 q171 196 174 542 q-3 344 -174 541 q-171 197 -469 201 l0 0 ZM843 1390 q260 -3 410 -181 q149 -177 152 -487 q-3 -310 -152 -488 q-150 -178 -410 -181 q-260 3 -410 181 q-149 178 -152 488 q3 310 152 487 q149 178 410 181 l0 0 ZM41 1109 l67 0 l126 334 l-99 0 l-94 -334 Z" /><glyph glyph-name="" unicode="&#x38e;" d="M42 1110 l67 0 l126 334 l-99 0 l-94 -334 ZM931 0 l0 629 l524 814 l-92 0 l-469 -733 l-5 0 l-469 733 l-93 0 l525 -814 l0 -629 l79 0 Z" /><glyph glyph-name="" unicode="&#x3ab;" d="M673 0 l0 629 l524 814 l-92 0 l-469 -733 l-5 0 l-469 733 l-93 0 l525 -814 l0 -629 l79 0 ZM481 1563 q28 1 47 20 q19 19 20 47 q-1 28 -20 47 q-19 18 -47 19 q-29 -1 -48 -19 q-19 -19 -20 -47 q1 -28 20 -47 q19 -19 48 -20 l0 0 ZM785 1563 q29 1 48 20 q19 19 20 47 q-1 28 -20 47 q-19 18 -48 19 q-28 -1 -47 -19 q-19 -19 -20 -47 q1 -28 20 -47 q19 -19 47 -20 l0 0 Z" /><glyph glyph-name="" unicode="&#x38f;" d="M1427 771 q1 -226 -108 -390 q-109 -165 -337 -279 l0 -102 l520 0 l0 73 l-431 0 l0 5 q216 112 326 286 q110 173 110 409 q-4 309 -179 497 q-175 189 -470 194 q-295 -5 -471 -192 q-176 -188 -180 -499 q1 -236 111 -410 q111 -174 325 -285 l0 -5 l-431 0 l0 -73 l520 0 l0 102 q-228 114 -337 279 q-109 164 -108 390 q4 280 158 447 q154 168 413 172 q259 -5 412 -173 q153 -169 157 -446 l0 0 ZM50 1109 l67 0 l126 334 l-99 0 l-94 -334 Z" /><glyph glyph-name="" unicode="&#x410;" d="M1125 0 l85 0 l-549 1443 l-80 0 l-550 -1443 l86 0 l179 481 l649 0 l180 -481 ZM618 1340 l5 0 l297 -788 l-598 0 l296 788 Z" /><glyph glyph-name="" unicode="&#x4d0;" d="M1125 0 l85 0 l-549 1443 l-80 0 l-550 -1443 l86 0 l179 481 l649 0 l180 -481 ZM618 1340 l5 0 l297 -788 l-598 0 l296 788 ZM352 1789 q2 -112 75 -173 q74 -62 195 -63 q121 1 195 63 q73 61 75 173 l-64 0 q-2 -86 -58 -133 q-56 -48 -148 -49 q-92 1 -148 49 q-56 47 -58 133 l-64 0 Z" /><glyph glyph-name="" unicode="&#x4d2;" d="M1125 0 l85 0 l-549 1443 l-80 0 l-550 -1443 l86 0 l179 481 l649 0 l180 -481 ZM618 1340 l5 0 l297 -788 l-598 0 l296 788 ZM469 1563 q28 1 47 20 q19 19 20 47 q-1 28 -20 47 q-19 18 -47 19 q-29 -1 -48 -19 q-19 -19 -20 -47 q1 -28 20 -47 q19 -19 48 -20 l0 0 ZM773 1563 q29 1 48 20 q19 19 20 47 q-1 28 -20 47 q-19 18 -48 19 q-28 -1 -47 -19 q-19 -19 -20 -47 q1 -28 20 -47 q19 -19 47 -20 l0 0 Z" /><glyph glyph-name="" unicode="&#x411;" d="M1072 415 q-3 191 -127 302 q-124 111 -337 113 l-391 0 l0 540 l732 0 l0 73 l-811 0 l0 -1443 l471 0 q213 2 337 113 q123 111 126 302 l0 0 ZM217 73 l0 684 l379 0 q184 -2 289 -92 q105 -91 107 -250 q-2 -160 -106 -250 q-105 -90 -290 -92 l-379 0 Z" /><glyph glyph-name="" unicode="&#x412;" d="M635 0 q229 2 356 104 q128 102 130 281 q-3 158 -103 252 q-101 93 -257 111 l0 6 q131 27 207 117 q75 90 77 221 q-3 159 -116 254 q-114 95 -305 97 l-486 0 l0 -1443 l497 0 ZM217 1371 l395 0 q163 -1 257 -77 q94 -76 96 -208 q-2 -144 -101 -225 q-99 -82 -271 -83 l-376 0 l0 593 ZM217 72 l0 635 l389 0 q207 -1 320 -85 q114 -84 115 -235 q-1 -147 -109 -230 q-108 -83 -305 -85 l-410 0 Z" /><glyph glyph-name="" unicode="&#x413;" d="M217 0 l0 1370 l745 0 l0 73 l-824 0 l0 -1443 l79 0 Z" /><glyph glyph-name="" unicode="&#x403;" d="M557 1553 l297 290 l-96 0 l-279 -290 l78 0 ZM217 0 l0 1370 l745 0 l0 73 l-824 0 l0 -1443 l79 0 Z" /><glyph glyph-name="" unicode="&#x490;" d="M217 1370 l745 0 l0 331 l-75 0 l0 -258 l-749 0 l0 -1443 l79 0 l0 1370 Z" /><glyph glyph-name="" unicode="&#x4f6;" d="M962 1370 l0 73 l-824 0 l0 -1443 l12 0 l67 0 l124 0 l0 -285 l76 0 l0 358 l-200 0 l0 1297 l745 0 Z" /><glyph glyph-name="" unicode="&#x492;" d="M1010 1370 l0 73 l-824 0 l0 -679 l-122 0 l0 -66 l122 0 l0 -698 l79 0 l0 698 l638 0 l0 66 l-638 0 l0 606 l745 0 Z" /><glyph glyph-name="" unicode="&#x4fa;" d="M1010 1370 l0 73 l-824 0 l0 -679 l-122 0 l0 -66 l122 0 l0 -401 l0 -297 l0 -92 q0 -106 -46 -154 q-46 -49 -145 -48 l-16 0 l0 -70 l18 0 q132 -1 200 64 q69 65 69 212 l0 385 l-1 0 l0 401 l609 0 l0 66 l-609 0 l0 606 l745 0 Z" /><glyph glyph-name="" unicode="&#x414;" d="M347 467 l54 903 l681 0 l0 -1297 l-854 0 l0 6 q60 59 86 159 q26 99 33 229 l0 0 ZM91 0 l1181 0 l0 -286 l76 0 l0 359 l-187 0 l0 1370 l-833 0 l-59 -971 q-8 -150 -44 -255 q-37 -104 -113 -144 l-96 0 l0 -359 l75 0 l0 286 Z" /><glyph glyph-name="" unicode="&#x415;" d="M979 73 l-762 0 l0 631 l726 0 l0 72 l-726 0 l0 594 l762 0 l0 73 l-841 0 l0 -1443 l841 0 l0 73 Z" /><glyph glyph-name="" unicode="&#x401;" d="M406 1563 q28 1 47 20 q19 19 20 47 q-1 28 -20 47 q-19 18 -47 19 q-29 -1 -48 -19 q-19 -19 -20 -47 q1 -28 20 -47 q19 -19 48 -20 l0 0 ZM710 1563 q29 1 48 20 q19 19 20 47 q-1 28 -20 47 q-19 18 -48 19 q-28 -1 -47 -19 q-19 -19 -20 -47 q1 -28 20 -47 q19 -19 47 -20 l0 0 ZM979 73 l-762 0 l0 631 l726 0 l0 72 l-726 0 l0 594 l762 0 l0 73 l-841 0 l0 -1443 l841 0 l0 73 Z" /><glyph glyph-name="" unicode="&#x4d6;" d="M295 1789 q2 -112 75 -173 q74 -62 195 -63 q121 1 195 63 q73 61 75 173 l-64 0 q-2 -86 -58 -133 q-56 -48 -148 -49 q-92 1 -148 49 q-56 47 -58 133 l-64 0 ZM979 73 l-762 0 l0 631 l726 0 l0 72 l-726 0 l0 594 l762 0 l0 73 l-841 0 l0 -1443 l841 0 l0 73 Z" /><glyph glyph-name="" unicode="&#x400;" d="M527 1553 l78 0 l-280 290 l-95 0 l297 -290 ZM979 73 l-762 0 l0 631 l726 0 l0 72 l-726 0 l0 594 l762 0 l0 73 l-841 0 l0 -1443 l841 0 l0 73 Z" /><glyph glyph-name="" unicode="&#x416;" d="M1027 747 l700 696 l-104 0 l-677 -679 l-5 0 l0 679 l-80 0 l0 -679 l-5 0 l-676 679 l-107 0 l702 -698 l-756 -745 l109 0 l728 718 l5 0 l0 -718 l80 0 l0 718 l5 0 l727 -718 l111 0 l-757 747 Z" /><glyph glyph-name="" unicode="&#x4c1;" d="M1107 1789 q-1 -78 -57 -128 q-57 -50 -151 -52 q-94 2 -150 52 q-57 50 -58 128 l-61 0 q2 -109 76 -172 q74 -63 193 -64 q119 1 193 64 q74 63 76 172 l-61 0 ZM1027 747 l700 696 l-104 0 l-677 -679 l-5 0 l0 679 l-80 0 l0 -679 l-5 0 l-676 679 l-107 0 l702 -698 l-756 -745 l109 0 l728 718 l5 0 l0 -718 l80 0 l0 718 l5 0 l727 -718 l111 0 l-757 747 Z" /><glyph glyph-name="" unicode="&#x4dc;" d="M1060 1563 q29 1 48 20 q19 19 20 47 q-1 28 -20 47 q-19 18 -48 19 q-28 -1 -47 -19 q-19 -19 -20 -47 q1 -28 20 -47 q19 -19 47 -20 l0 0 ZM756 1563 q28 1 47 20 q19 19 20 47 q-1 28 -20 47 q-19 18 -47 19 q-29 -1 -48 -19 q-19 -19 -20 -47 q1 -28 20 -47 q19 -19 48 -20 l0 0 ZM1027 747 l700 696 l-104 0 l-677 -679 l-5 0 l0 679 l-80 0 l0 -679 l-5 0 l-676 679 l-107 0 l702 -698 l-756 -745 l109 0 l728 718 l5 0 l0 -718 l80 0 l0 718 l5 0 l727 -718 l111 0 l-757 747 Z" /><glyph glyph-name="" unicode="&#x496;" d="M1710 73 l-683 674 l700 696 l-104 0 l-677 -679 l-5 0 l0 679 l-80 0 l0 -679 l-5 0 l-676 679 l-107 0 l702 -698 l-756 -745 l109 0 l728 718 l5 0 l0 -718 l80 0 l0 718 l5 0 l727 -718 l111 0 l17 0 l0 -285 l75 0 l0 358 l-166 0 Z" /><glyph glyph-name="" unicode="&#x417;" d="M366 712 l174 0 q218 -1 327 -84 q109 -83 109 -236 q-2 -150 -113 -245 q-111 -96 -304 -99 q-177 3 -290 92 q-113 89 -126 221 l-78 0 q13 -164 146 -273 q134 -108 347 -112 q229 4 362 120 q134 115 137 294 q-1 155 -94 250 q-93 96 -264 111 l0 5 q145 30 225 120 q80 90 81 221 q-3 160 -121 264 q-119 103 -320 107 q-196 -3 -316 -104 q-120 -101 -139 -267 l77 0 q19 132 118 214 q100 82 258 84 q169 -3 265 -88 q96 -84 98 -214 q-2 -139 -103 -223 q-102 -84 -284 -86 l-172 0 l0 -72 Z" /><glyph glyph-name="" unicode="&#x4de;" d="M405 1563 q28 1 47 20 q19 19 20 47 q-1 28 -20 47 q-19 18 -47 19 q-29 -1 -48 -19 q-19 -19 -20 -47 q1 -28 20 -47 q19 -19 48 -20 l0 0 ZM709 1563 q29 1 48 20 q19 19 20 47 q-1 28 -20 47 q-19 18 -48 19 q-28 -1 -47 -19 q-19 -19 -20 -47 q1 -28 20 -47 q19 -19 47 -20 l0 0 ZM366 712 l174 0 q218 -1 327 -84 q109 -83 109 -236 q-2 -150 -113 -245 q-111 -96 -304 -99 q-177 3 -290 92 q-113 89 -126 221 l-78 0 q13 -164 146 -273 q134 -108 347 -112 q229 4 362 120 q134 115 137 294 q-1 155 -94 250 q-93 96 -264 111 l0 5 q145 30 225 120 q80 90 81 221 q-3 160 -121 264 q-119 103 -320 107 q-196 -3 -316 -104 q-120 -101 -139 -267 l77 0 q19 132 118 214 q100 82 258 84 q169 -3 265 -88 q96 -84 98 -214 q-2 -139 -103 -223 q-102 -84 -284 -86 l-172 0 l0 -72 Z" /><glyph glyph-name="" unicode="&#x498;" d="M699 756 q145 30 225 120 q80 90 81 221 q-3 160 -121 264 q-119 103 -320 107 q-196 -3 -316 -104 q-120 -101 -139 -267 l77 0 q19 132 118 214 q100 82 258 84 q169 -3 265 -88 q96 -84 98 -214 q-2 -139 -103 -223 q-102 -84 -284 -86 l-172 0 l0 -72 l174 0 q218 -1 327 -84 q109 -83 109 -236 q-2 -150 -113 -245 q-111 -96 -304 -99 q-177 3 -290 92 q-113 89 -126 221 l-78 0 q13 -158 137 -265 q124 -106 325 -119 l0 -263 l76 0 l0 263 q210 16 331 130 q121 114 123 283 q-1 155 -94 250 q-93 96 -264 111 l0 5 Z" /><glyph glyph-name="" unicode="&#x418;" d="M1145 0 l79 0 l0 1443 l-79 0 l-921 -1312 l-8 0 l0 1312 l-78 0 l0 -1443 l78 0 l922 1311 l7 0 l0 -1311 Z" /><glyph glyph-name="" unicode="&#x419;" d="M411 1789 q2 -112 75 -173 q74 -62 195 -63 q121 1 195 63 q73 61 75 173 l-64 0 q-2 -86 -58 -133 q-56 -48 -148 -49 q-92 1 -148 49 q-56 47 -58 133 l-64 0 ZM1145 0 l79 0 l0 1443 l-79 0 l-921 -1312 l-8 0 l0 1312 l-78 0 l0 -1443 l78 0 l922 1311 l7 0 l0 -1311 Z" /><glyph glyph-name="" unicode="&#x40d;" d="M660 1553 l78 0 l-280 290 l-95 0 l297 -290 ZM1145 0 l79 0 l0 1443 l-79 0 l-921 -1312 l-8 0 l0 1312 l-78 0 l0 -1443 l78 0 l922 1311 l7 0 l0 -1311 Z" /><glyph glyph-name="" unicode="&#x4e2;" d="M1145 0 l79 0 l0 1443 l-79 0 l-921 -1312 l-8 0 l0 1312 l-78 0 l0 -1443 l78 0 l922 1311 l7 0 l0 -1311 ZM973 1679 l-580 0 l0 -57 l580 0 l0 57 Z" /><glyph glyph-name="" unicode="&#x4e4;" d="M527 1563 q28 1 47 20 q19 19 20 47 q-1 28 -20 47 q-19 18 -47 19 q-29 -1 -48 -19 q-19 -19 -20 -47 q1 -28 20 -47 q19 -19 48 -20 l0 0 ZM831 1563 q29 1 48 20 q19 19 20 47 q-1 28 -20 47 q-19 18 -48 19 q-28 -1 -47 -19 q-19 -19 -20 -47 q1 -28 20 -47 q19 -19 47 -20 l0 0 ZM1145 0 l79 0 l0 1443 l-79 0 l-921 -1312 l-8 0 l0 1312 l-78 0 l0 -1443 l78 0 l922 1311 l7 0 l0 -1311 Z" /><glyph glyph-name="" unicode="&#x48a;" d="M887 1789 q-2 -86 -58 -133 q-56 -48 -148 -49 q-92 1 -148 49 q-56 47 -58 133 l-64 0 q2 -112 75 -173 q74 -62 195 -63 q121 1 195 63 q73 61 75 173 l-64 0 ZM1224 73 l0 1370 l-79 0 l-921 -1312 l-8 0 l0 1312 l-78 0 l0 -1443 l78 0 l922 1311 l7 0 l0 -1238 l0 -73 l79 0 l88 0 l-89 -285 l76 0 l104 337 l0 21 l-179 0 Z" /><glyph glyph-name="" unicode="&#x41a;" d="M304 746 l778 697 l-107 0 l-753 -679 l-5 0 l0 679 l-79 0 l0 -1443 l79 0 l0 718 l5 0 l803 -718 l114 0 l-835 746 Z" /><glyph glyph-name="" unicode="&#x40c;" d="M882 1843 l-96 0 l-279 -290 l78 0 l297 290 ZM304 746 l778 697 l-107 0 l-753 -679 l-5 0 l0 679 l-79 0 l0 -1443 l79 0 l0 718 l5 0 l803 -718 l114 0 l-835 746 Z" /><glyph glyph-name="" unicode="&#x49a;" d="M1057 73 l-753 673 l778 697 l-107 0 l-753 -679 l-5 0 l0 679 l-79 0 l0 -1443 l79 0 l0 718 l5 0 l803 -718 l114 0 l14 0 l0 -285 l76 0 l0 358 l-172 0 Z" /><glyph glyph-name="" unicode="&#x49c;" d="M606 745 l493 698 l-95 0 l-474 -671 l-92 0 l0 342 l-69 0 l0 -342 l-152 0 l0 671 l-79 0 l0 -1443 l79 0 l0 708 l152 0 l0 -361 l69 0 l0 361 l92 0 l537 -708 l103 0 l-564 745 Z" /><glyph glyph-name="" unicode="&#x49e;" d="M362 745 l786 698 l-107 0 l-749 -671 l-15 0 l0 450 l286 0 l0 70 l-286 0 l0 151 l-79 0 l0 -151 l-183 0 l0 -70 l183 0 l0 -1222 l79 0 l0 708 l15 0 l799 -708 l112 0 l-841 745 Z" /><glyph glyph-name="" unicode="&#x4a0;" d="M896 746 l778 697 l-107 0 l-753 -679 l-5 0 l0 606 l0 73 l-79 0 l-699 0 l0 -73 l699 0 l0 -1370 l79 0 l0 718 l5 0 l803 -718 l114 0 l-835 746 Z" /><glyph glyph-name="" unicode="&#x4c3;" d="M1079 1443 l-105 0 l-727 -671 l-30 0 l0 671 l-79 0 l0 -1443 l79 0 l0 703 l34 0 q324 -3 511 -156 q186 -153 190 -417 q-3 -198 -110 -318 q-107 -121 -282 -124 q-14 0 -26 1 q-12 1 -26 3 l0 -72 q12 -2 26 -3 q13 -1 31 -1 q209 4 336 145 q128 140 131 372 q-3 274 -187 443 q-183 168 -505 190 l739 677 Z" /><glyph glyph-name="" unicode="&#x41b;" d="M1150 0 l0 1443 l-798 0 l-58 -966 q-9 -188 -58 -299 q-50 -110 -157 -113 q-21 0 -36 4 q-15 3 -18 4 l0 -73 q4 -1 20 -5 q15 -4 38 -4 q150 4 214 135 q65 131 75 344 l55 900 l644 0 l0 -1370 l79 0 Z" /><glyph glyph-name="" unicode="&#x4c5;" d="M1150 73 l0 1370 l-798 0 l-58 -966 q-9 -188 -58 -299 q-50 -110 -157 -113 q-21 0 -36 4 q-15 3 -18 4 l0 -73 q4 -1 20 -5 q15 -4 38 -4 q150 4 214 135 q65 131 75 344 l55 900 l644 0 l0 -1297 l0 -73 l79 0 l88 0 l-88 -285 l75 0 l104 337 l0 21 l-179 0 Z" /><glyph glyph-name="" unicode="&#x52e;" d="M1150 73 l0 1370 l-798 0 l-58 -966 q-9 -188 -58 -299 q-50 -110 -157 -113 q-21 0 -36 4 q-15 3 -18 4 l0 -73 q4 -1 20 -5 q15 -4 38 -4 q150 4 214 135 q65 131 75 344 l55 900 l644 0 l0 -1297 l0 -73 l79 0 l112 0 l0 -285 l75 0 l0 358 l-187 0 Z" /><glyph glyph-name="" unicode="&#x512;" d="M352 1443 l-58 -966 q-9 -188 -58 -299 q-50 -110 -157 -113 q-21 0 -36 4 q-15 3 -18 4 l0 -73 q4 -1 20 -5 q15 -4 38 -4 q150 4 214 135 q65 131 75 344 l55 900 l644 0 l0 -1073 l0 -297 l0 -92 q0 -106 -46 -154 q-46 -49 -145 -48 l-16 0 l0 -70 l18 0 q131 -1 199 64 q69 65 69 212 l0 88 l0 297 l0 1146 l-798 0 Z" /><glyph glyph-name="" unicode="&#x41c;" d="M1486 0 l0 1443 l-90 0 l-581 -1340 l-6 0 l-583 1340 l-88 0 l0 -1443 l76 0 l0 1279 l4 0 l556 -1276 l76 0 l556 1276 l4 0 l0 -1279 l76 0 Z" /><glyph glyph-name="" unicode="&#x4cd;" d="M1486 73 l0 1370 l-90 0 l-581 -1340 l-6 0 l-583 1340 l-88 0 l0 -1443 l76 0 l0 1279 l4 0 l556 -1276 l76 0 l556 1276 l4 0 l0 -1206 l0 -73 l76 0 l92 0 l-89 -285 l76 0 l103 337 l0 21 l-182 0 Z" /><glyph glyph-name="" unicode="&#x41d;" d="M1209 0 l0 1443 l-79 0 l0 -666 l-913 0 l0 666 l-79 0 l0 -1443 l79 0 l0 705 l913 0 l0 -705 l79 0 Z" /><glyph glyph-name="" unicode="&#x4c7;" d="M1130 1443 l0 -666 l-913 0 l0 666 l-79 0 l0 -1443 l79 0 l0 705 l913 0 l0 -408 l0 -297 l0 -92 q0 -106 -46 -154 q-47 -49 -146 -48 l-15 0 l0 -70 l18 0 q131 -1 199 64 q69 65 69 212 l0 88 l0 297 l0 1146 l-79 0 Z" /><glyph glyph-name="" unicode="&#x4a2;" d="M1209 73 l0 1370 l-79 0 l0 -666 l-913 0 l0 666 l-79 0 l0 -1443 l79 0 l0 705 l913 0 l0 -632 l0 -73 l79 0 l112 0 l0 -285 l75 0 l0 358 l-187 0 Z" /><glyph glyph-name="" unicode="&#x4c9;" d="M1209 73 l0 1370 l-79 0 l0 -666 l-913 0 l0 666 l-79 0 l0 -1443 l79 0 l0 705 l913 0 l0 -632 l0 -73 l79 0 l88 0 l-89 -285 l76 0 l104 337 l0 21 l-179 0 Z" /><glyph glyph-name="" unicode="&#x4a4;" d="M1954 1443 l-745 0 l-79 0 l0 -73 l0 -593 l-913 0 l0 666 l-79 0 l0 -1443 l79 0 l0 705 l913 0 l0 -705 l79 0 l0 1370 l745 0 l0 73 Z" /><glyph glyph-name="" unicode="&#x41e;" d="M720 1464 q-298 -4 -469 -201 q-171 -197 -174 -541 q3 -346 174 -542 q170 -197 469 -201 q299 4 469 201 q171 196 174 542 q-3 344 -174 541 q-171 197 -469 201 l0 0 ZM720 1390 q260 -3 410 -181 q149 -177 152 -487 q-3 -310 -152 -488 q-150 -178 -410 -181 q-260 3 -410 181 q-149 178 -152 488 q3 310 152 487 q149 178 410 181 l0 0 Z" /><glyph glyph-name="" unicode="&#x4e6;" d="M568 1563 q28 1 47 20 q19 19 20 47 q-1 28 -20 47 q-19 18 -47 19 q-29 -1 -48 -19 q-19 -19 -20 -47 q1 -28 20 -47 q19 -19 48 -20 l0 0 ZM872 1563 q29 1 48 20 q19 19 20 47 q-1 28 -20 47 q-19 18 -48 19 q-28 -1 -47 -19 q-19 -19 -20 -47 q1 -28 20 -47 q19 -19 47 -20 l0 0 ZM720 1464 q-298 -4 -469 -201 q-171 -197 -174 -541 q3 -346 174 -542 q170 -197 469 -201 q299 4 469 201 q171 196 174 542 q-3 344 -174 541 q-171 197 -469 201 l0 0 ZM720 1390 q260 -3 410 -181 q149 -177 152 -487 q-3 -310 -152 -488 q-150 -178 -410 -181 q-260 3 -410 181 q-149 178 -152 488 q3 310 152 487 q149 178 410 181 l0 0 Z" /><glyph glyph-name="" unicode="&#x4e8;" d="M1280 707 q-7 -303 -155 -478 q-149 -175 -405 -179 q-258 4 -407 179 q-148 175 -155 478 l1122 0 ZM159 775 q16 287 164 451 q148 164 397 167 q248 -3 395 -167 q148 -164 164 -451 l-1120 0 ZM720 1467 q-300 -4 -470 -200 q-170 -197 -173 -545 q3 -348 172 -545 q169 -197 471 -201 q301 4 469 201 q169 197 172 545 q-3 348 -172 545 q-169 196 -469 200 l0 0 Z" /><glyph glyph-name="" unicode="&#x4ea;" d="M871 1563 q29 1 48 20 q19 19 20 47 q-1 28 -20 47 q-19 18 -48 19 q-28 -1 -47 -19 q-19 -19 -20 -47 q1 -28 20 -47 q19 -19 47 -20 l0 0 ZM567 1563 q28 1 47 20 q19 19 20 47 q-1 28 -20 47 q-19 18 -47 19 q-29 -1 -48 -19 q-19 -19 -20 -47 q1 -28 20 -47 q19 -19 48 -20 l0 0 ZM1280 707 q-7 -303 -155 -478 q-149 -175 -405 -179 q-258 4 -407 179 q-148 175 -155 478 l1122 0 ZM159 775 q16 287 164 451 q148 164 397 167 q248 -3 395 -167 q148 -164 164 -451 l-1120 0 ZM720 1467 q-300 -4 -470 -200 q-170 -197 -173 -545 q3 -348 172 -545 q169 -197 471 -201 q301 4 469 201 q169 197 172 545 q-3 348 -172 545 q-169 196 -469 200 l0 0 Z" /><glyph glyph-name="" unicode="&#x472;" d="M720 50 q-246 3 -394 164 q-147 162 -166 443 q51 52 120 83 q68 31 152 32 q144 -10 274 -78 q130 -69 298 -79 q83 1 155 30 q71 29 121 79 q0 -1 0 -2 q-3 -310 -152 -489 q-149 -179 -408 -183 l0 0 ZM720 1393 q242 -3 389 -160 q146 -157 168 -434 q-42 -50 -114 -82 q-71 -32 -157 -33 q-146 10 -279 79 q-133 68 -292 78 q-86 0 -155 -29 q-70 -29 -122 -82 q5 307 154 483 q149 176 408 180 l0 0 ZM720 1467 q-300 -4 -470 -200 q-170 -197 -173 -545 q3 -348 172 -545 q169 -197 471 -201 q301 4 469 201 q169 197 172 545 q-3 348 -172 545 q-169 196 -469 200 l0 0 Z" /><glyph glyph-name="" unicode="&#x41f;" d="M1196 0 l0 1443 l-1058 0 l0 -1443 l79 0 l0 1370 l900 0 l0 -1370 l79 0 Z" /><glyph glyph-name="" unicode="&#x524;" d="M1196 73 l0 1370 l-1058 0 l0 -1443 l79 0 l0 1370 l900 0 l0 -1297 l0 -73 l79 0 l112 0 l0 -285 l75 0 l0 358 l-187 0 Z" /><glyph glyph-name="" unicode="&#x40f;" d="M629 0 l0 -285 l76 0 l0 285 l491 0 l0 1443 l-79 0 l0 -1370 l-900 0 l0 1370 l-79 0 l0 -1443 l491 0 Z" /><glyph glyph-name="" unicode="&#x420;" d="M138 1443 l0 -1443 l79 0 l0 582 l390 0 q213 2 337 117 q124 115 127 313 q-3 198 -127 313 q-124 116 -337 118 l-469 0 ZM217 1371 l377 0 q185 -2 290 -96 q104 -94 106 -263 q-2 -168 -107 -262 q-105 -94 -289 -96 l-377 0 l0 717 Z" /><glyph glyph-name="" unicode="&#x48e;" d="M214 654 l0 717 l377 0 q186 -1 290 -96 q104 -94 106 -264 q-1 -115 -52 -197 q-51 -82 -146 -123 l-181 283 l-56 -38 l166 -268 q-58 -14 -127 -14 l-377 0 ZM135 1443 l0 -1443 l79 0 l0 582 l376 0 q91 0 166 21 l183 -296 l66 45 l-175 277 q113 52 175 149 q62 98 63 233 q-3 199 -127 314 q-124 116 -337 118 l-469 0 Z" /><glyph glyph-name="" unicode="&#x421;" d="M712 -21 q230 3 383 122 q153 119 182 321 l-80 0 q-27 -169 -160 -268 q-132 -99 -325 -101 q-255 3 -403 183 q-148 179 -151 494 q3 307 150 482 q147 175 404 178 q189 -4 323 -113 q135 -110 163 -282 l80 0 q-29 205 -186 335 q-157 130 -380 134 q-294 -4 -463 -199 q-169 -194 -172 -535 q3 -348 172 -548 q169 -199 463 -203 l0 0 Z" /><glyph glyph-name="" unicode="&#x4aa;" d="M1279 981 q-28 211 -185 345 q-157 134 -382 138 q-294 -4 -463 -199 q-169 -194 -172 -535 q3 -337 162 -535 q158 -198 436 -215 l-53 -130 l0 -43 l49 0 q78 0 119 -26 q41 -26 41 -76 q-1 -50 -45 -81 q-44 -31 -114 -32 q-35 0 -67 4 q-33 5 -55 13 l0 -56 q25 -8 59 -12 q34 -5 69 -4 q98 1 157 48 q58 46 60 122 q-1 73 -54 112 q-53 40 -153 40 l50 120 q222 10 368 133 q146 122 173 324 l-79 0 q-27 -176 -160 -278 q-134 -103 -328 -105 q-255 3 -403 183 q-148 179 -151 494 q3 307 150 482 q147 175 404 178 q190 -4 325 -117 q135 -114 163 -292 l79 0 Z" /><glyph glyph-name="" unicode="&#x422;" d="M619 0 l0 1370 l508 0 l0 73 l-1096 0 l0 -73 l508 0 l0 -1370 l80 0 Z" /><glyph glyph-name="" unicode="&#x4ac;" d="M1127 1370 l0 73 l-1096 0 l0 -73 l508 0 l0 -1297 l0 -73 l80 0 l111 0 l0 -285 l76 0 l0 358 l-187 0 l0 1297 l508 0 Z" /><glyph glyph-name="" unicode="&#x423;" d="M265 -9 q136 2 219 105 q83 104 157 285 l468 1062 l-84 0 l-436 -1005 l-8 0 l-462 1005 l-87 0 l511 -1098 q-54 -124 -119 -201 q-64 -77 -159 -79 q-29 0 -46 4 q-18 3 -23 5 l0 -73 q4 -2 21 -6 q18 -4 48 -4 l0 0 Z" /><glyph glyph-name="" unicode="&#x40e;" d="M316 1789 q2 -112 75 -173 q74 -62 195 -63 q121 1 195 63 q73 61 75 173 l-64 0 q-2 -86 -58 -133 q-56 -48 -148 -49 q-92 1 -148 49 q-56 47 -58 133 l-64 0 ZM265 -9 q136 2 219 105 q83 104 157 285 l468 1062 l-84 0 l-436 -1005 l-8 0 l-462 1005 l-87 0 l511 -1098 q-54 -124 -119 -201 q-64 -77 -159 -79 q-29 0 -46 4 q-18 3 -23 5 l0 -73 q4 -2 21 -6 q18 -4 48 -4 l0 0 Z" /><glyph glyph-name="" unicode="&#x4ee;" d="M265 -9 q136 2 219 105 q83 104 157 285 l468 1062 l-84 0 l-436 -1005 l-8 0 l-462 1005 l-87 0 l511 -1098 q-54 -124 -119 -201 q-64 -77 -159 -79 q-29 0 -46 4 q-18 3 -23 5 l0 -73 q4 -2 21 -6 q18 -4 48 -4 l0 0 ZM879 1679 l-580 0 l0 -57 l580 0 l0 57 Z" /><glyph glyph-name="" unicode="&#x4f0;" d="M435 1563 q28 1 47 20 q19 19 20 47 q-1 28 -20 47 q-19 18 -47 19 q-29 -1 -48 -19 q-19 -19 -20 -47 q1 -28 20 -47 q19 -19 48 -20 l0 0 ZM739 1563 q29 1 48 20 q19 19 20 47 q-1 28 -20 47 q-19 18 -48 19 q-28 -1 -47 -19 q-19 -19 -20 -47 q1 -28 20 -47 q19 -19 47 -20 l0 0 ZM265 -9 q136 2 219 105 q83 104 157 285 l468 1062 l-84 0 l-436 -1005 l-8 0 l-462 1005 l-87 0 l511 -1098 q-54 -124 -119 -201 q-64 -77 -159 -79 q-29 0 -46 4 q-18 3 -23 5 l0 -73 q4 -2 21 -6 q18 -4 48 -4 l0 0 Z" /><glyph glyph-name="" unicode="&#x4f2;" d="M265 -9 q136 2 219 105 q83 104 157 285 l468 1062 l-84 0 l-436 -1005 l-8 0 l-462 1005 l-87 0 l511 -1098 q-54 -124 -119 -201 q-64 -77 -159 -79 q-29 0 -46 4 q-18 3 -23 5 l0 -73 q4 -2 21 -6 q18 -4 48 -4 l0 0 ZM745 1553 l297 290 l-92 0 l-280 -290 l75 0 ZM478 1553 l298 290 l-93 0 l-280 -290 l75 0 Z" /><glyph glyph-name="" unicode="&#x424;" d="M724 217 q-266 5 -420 139 q-154 135 -157 367 q3 232 157 367 q153 134 420 139 l0 -1012 ZM1379 723 q-3 -232 -156 -367 q-154 -134 -420 -139 l0 1012 q267 -5 420 -139 q153 -135 156 -367 l0 0 ZM724 145 l0 -158 l79 0 l0 158 q306 5 480 157 q173 153 176 421 q-3 268 -177 421 q-174 153 -479 157 l0 155 l-79 0 l0 -155 q-306 -5 -479 -157 q-174 -153 -177 -421 q3 -268 177 -421 q173 -153 479 -157 l0 0 Z" /><glyph glyph-name="" unicode="&#x425;" d="M52 0 l92 0 l471 656 l2 0 l468 -656 l95 0 l-515 720 l0 2 l518 721 l-92 0 l-471 -658 l-2 0 l-469 658 l-95 0 l514 -719 l0 -2 l-516 -722 Z" /><glyph glyph-name="" unicode="&#x4b2;" d="M1128 73 l-463 647 l0 2 l518 721 l-92 0 l-471 -658 l-2 0 l-469 658 l-95 0 l514 -719 l0 -2 l-516 -722 l92 0 l471 656 l2 0 l468 -656 l95 0 l45 0 l0 -285 l75 0 l0 358 l-172 0 Z" /><glyph glyph-name="" unicode="&#x4fe;" d="M1069 692 l0 68 l-377 0 l491 683 l-92 0 l-471 -658 l-2 0 l-469 658 l-95 0 l488 -683 l-377 0 l0 -68 l382 0 l-495 -692 l92 0 l471 656 l2 0 l468 -656 l95 0 l-495 692 l384 0 Z" /><glyph glyph-name="" unicode="&#x4fc;" d="M54 1443 l515 -721 l-517 -722 l92 0 l470 655 l4 0 l308 -432 q31 -43 61 -91 q30 -47 56 -92 q36 -58 50 -105 q15 -47 14 -89 q0 -68 -43 -104 q-43 -36 -122 -36 q-23 0 -41 2 q-19 2 -30 5 l0 -74 q31 -6 76 -6 q113 1 177 59 q65 57 66 159 q0 53 -18 108 q-18 54 -60 122 q-24 40 -52 85 q-28 44 -64 93 l-331 462 l518 722 l-92 0 l-470 -656 l-4 0 l-468 656 l-95 0 Z" /><glyph glyph-name="" unicode="&#x426;" d="M1376 -285 l0 358 l-187 0 l0 1370 l-79 0 l0 -1370 l-893 0 l0 1370 l-79 0 l0 -1443 l1163 0 l0 -285 l75 0 Z" /><glyph glyph-name="" unicode="&#x4b4;" d="M1562 73 l0 1370 l-79 0 l0 -1370 l-893 0 l0 1297 l479 0 l0 73 l-479 0 l-79 0 l-480 0 l0 -73 l480 0 l0 -1370 l1163 0 l0 -285 l75 0 l0 358 l-187 0 Z" /><glyph glyph-name="" unicode="&#x427;" d="M1088 0 l0 1443 l-79 0 l0 -639 q-32 -40 -134 -94 q-101 -55 -264 -60 q-192 1 -306 108 q-114 106 -117 301 l0 384 l-79 0 l0 -389 q2 -217 134 -346 q131 -129 368 -132 q144 3 243 46 q100 43 149 91 l6 0 l0 -713 l79 0 Z" /><glyph glyph-name="" unicode="&#x4f4;" d="M1088 0 l0 1443 l-79 0 l0 -639 q-32 -40 -134 -94 q-101 -55 -264 -60 q-192 1 -306 108 q-114 106 -117 301 l0 384 l-79 0 l0 -389 q2 -217 134 -346 q131 -129 368 -132 q144 3 243 46 q100 43 149 91 l6 0 l0 -713 l79 0 ZM447 1563 q28 1 47 20 q19 19 20 47 q-1 28 -20 47 q-19 18 -47 19 q-29 -1 -48 -19 q-19 -19 -20 -47 q1 -28 20 -47 q19 -19 48 -20 l0 0 ZM751 1563 q29 1 48 20 q19 19 20 47 q-1 28 -20 47 q-19 18 -48 19 q-28 -1 -47 -19 q-19 -19 -20 -47 q1 -28 20 -47 q19 -19 47 -20 l0 0 Z" /><glyph glyph-name="" unicode="&#x4b6;" d="M1088 73 l0 1370 l-79 0 l0 -639 q-32 -40 -134 -94 q-101 -55 -264 -60 q-192 1 -306 108 q-114 106 -117 301 l0 384 l-79 0 l0 -389 q2 -217 134 -346 q131 -129 368 -132 q144 3 243 46 q100 43 149 91 l6 0 l0 -640 l0 -73 l79 0 l112 0 l0 -285 l75 0 l0 358 l-187 0 Z" /><glyph glyph-name="" unicode="&#x4cb;" d="M1009 1443 l0 -639 q-32 -40 -134 -94 q-101 -55 -264 -60 q-192 1 -306 108 q-114 106 -117 301 l0 384 l-79 0 l0 -389 q2 -217 134 -346 q131 -129 368 -132 q144 3 243 46 q100 43 149 91 l6 0 l0 -640 l-187 0 l0 -358 l75 0 l0 285 l112 0 l79 0 l0 73 l0 1370 l-79 0 Z" /><glyph glyph-name="" unicode="&#x4b8;" d="M1009 1443 l0 -639 q-31 -37 -124 -89 q-93 -52 -242 -64 l0 387 l-69 0 l0 -387 q-176 12 -280 117 q-104 106 -106 291 l0 384 l-79 0 l0 -389 q2 -208 123 -336 q122 -127 342 -141 l0 -327 l69 0 l0 327 q132 8 224 50 q92 41 138 86 l4 0 l0 -713 l79 0 l0 1443 l-79 0 Z" /><glyph glyph-name="" unicode="&#x4ba;" d="M138 1443 l0 -1443 l79 0 l0 654 q32 41 136 102 q104 61 278 67 q182 -1 293 -108 q111 -106 114 -301 l0 -414 l79 0 l0 419 q-3 216 -132 345 q-129 130 -354 133 q-155 -4 -258 -53 q-102 -49 -150 -98 l-6 0 l0 697 l-79 0 Z" /><glyph glyph-name="" unicode="&#x526;" d="M1117 73 l0 346 q-3 216 -132 345 q-129 130 -354 133 q-155 -4 -258 -53 q-102 -49 -150 -98 l-6 0 l0 697 l-79 0 l0 -1443 l79 0 l0 654 q32 41 136 102 q104 61 278 67 q182 -1 293 -108 q111 -106 114 -301 l0 -341 l0 -73 l79 0 l111 0 l0 -285 l76 0 l0 358 l-187 0 Z" /><glyph glyph-name="" unicode="&#x40b;" d="M1003 795 q171 -2 269 -111 q99 -108 101 -295 l0 -389 l80 0 l0 398 q-3 215 -122 341 q-119 125 -323 128 q-113 0 -213 -39 q-99 -39 -172 -112 l-5 0 l0 654 l509 0 l0 73 l-1096 0 l0 -73 l508 0 l0 -1370 l79 0 l0 611 q63 83 167 133 q103 50 218 51 l0 0 Z" /><glyph glyph-name="" unicode="&#x428;" d="M138 0 l1494 0 l0 1443 l-79 0 l0 -1370 l-628 0 l0 1370 l-79 0 l0 -1370 l-629 0 l0 1370 l-79 0 l0 -1443 Z" /><glyph glyph-name="" unicode="&#x429;" d="M1820 -285 l0 358 l-188 0 l0 1370 l-79 0 l0 -1370 l-628 0 l0 1370 l-79 0 l0 -1370 l-629 0 l0 1370 l-79 0 l0 -1443 l1606 0 l0 -285 l76 0 Z" /><glyph glyph-name="" unicode="&#x42a;" d="M849 0 q213 2 337 117 q124 114 127 311 q-3 197 -127 311 q-124 114 -337 116 l-387 0 l0 588 l-431 0 l0 -73 l352 0 l0 -1370 l466 0 ZM462 73 l0 710 l374 0 q185 -2 290 -96 q105 -94 107 -259 q-2 -166 -107 -260 q-104 -93 -290 -95 l-374 0 Z" /><glyph glyph-name="" unicode="&#x42b;" d="M1371 0 l0 1443 l-79 0 l0 -1443 l79 0 ZM138 0 l466 0 q213 2 337 117 q124 114 127 311 q-3 197 -127 311 q-124 114 -337 116 l-387 0 l0 588 l-79 0 l0 -1443 ZM217 73 l0 710 l374 0 q185 -2 290 -96 q105 -94 107 -259 q-2 -166 -107 -260 q-104 -93 -290 -95 l-374 0 Z" /><glyph glyph-name="" unicode="&#x4f8;" d="M1371 0 l0 1443 l-79 0 l0 -1443 l79 0 ZM138 0 l466 0 q213 2 337 117 q124 114 127 311 q-3 197 -127 311 q-124 114 -337 116 l-387 0 l0 588 l-79 0 l0 -1443 ZM217 73 l0 710 l374 0 q185 -2 290 -96 q105 -94 107 -259 q-2 -166 -107 -260 q-104 -93 -290 -95 l-374 0 ZM602 1563 q28 1 47 20 q19 19 20 47 q-1 28 -20 47 q-19 18 -47 19 q-29 -1 -48 -19 q-19 -19 -20 -47 q1 -28 20 -47 q19 -19 48 -20 l0 0 ZM906 1563 q29 1 48 20 q19 19 20 47 q-1 28 -20 47 q-19 18 -48 19 q-28 -1 -47 -19 q-19 -19 -20 -47 q1 -28 20 -47 q19 -19 47 -20 l0 0 Z" /><glyph glyph-name="" unicode="&#x48c;" d="M424 73 l0 710 l375 0 q184 -2 289 -96 q105 -94 107 -259 q-2 -166 -106 -260 q-105 -93 -290 -95 l-375 0 ZM424 855 l0 353 l466 0 l0 70 l-466 0 l0 228 l-79 0 l0 -228 l-330 0 l0 -70 l330 0 l0 -1208 l467 0 q213 2 337 117 q123 114 126 311 q-3 197 -127 311 q-124 114 -337 116 l-387 0 Z" /><glyph glyph-name="" unicode="&#x462;" d="M424 73 l0 710 l375 0 q184 -2 289 -96 q105 -94 107 -259 q-2 -166 -106 -260 q-105 -93 -290 -95 l-375 0 ZM424 855 l0 353 l466 0 l0 70 l-466 0 l0 228 l-79 0 l0 -228 l-330 0 l0 -70 l330 0 l0 -1208 l467 0 q213 2 337 117 q123 114 126 311 q-3 197 -127 311 q-124 114 -337 116 l-387 0 Z" /><glyph glyph-name="" unicode="&#x42c;" d="M138 0 l466 0 q213 2 337 117 q124 114 127 311 q-3 197 -127 311 q-124 114 -337 116 l-387 0 l0 588 l-79 0 l0 -1443 ZM217 73 l0 710 l374 0 q185 -2 290 -96 q105 -94 107 -259 q-2 -166 -107 -260 q-104 -93 -290 -95 l-374 0 Z" /><glyph glyph-name="" unicode="&#x409;" d="M372 470 l55 900 l637 0 l0 -1370 l466 0 q213 2 337 117 q124 114 127 311 q-3 197 -127 311 q-124 114 -337 116 l-387 0 l0 588 l-791 0 l-58 -966 q-8 -178 -55 -293 q-47 -115 -160 -119 q-21 0 -36 4 q-15 3 -18 4 l0 -73 q4 -1 20 -5 q15 -4 38 -4 q154 5 217 139 q63 134 72 340 l0 0 ZM1143 73 l0 710 l374 0 q185 -2 290 -96 q105 -94 107 -259 q-2 -166 -107 -260 q-104 -93 -290 -95 l-374 0 Z" /><glyph glyph-name="" unicode="&#x40a;" d="M217 705 l887 0 l0 -705 l467 0 q213 2 337 109 q123 106 126 288 q-3 175 -127 277 q-124 101 -337 103 l-386 0 l0 666 l-80 0 l0 -666 l-887 0 l0 666 l-79 0 l0 -1443 l79 0 l0 705 ZM1184 73 l0 632 l374 0 q184 -2 289 -83 q105 -82 107 -225 q-2 -151 -106 -237 q-105 -85 -290 -87 l-374 0 Z" /><glyph glyph-name="" unicode="&#x42d;" d="M649 -21 q295 4 460 200 q164 196 167 543 q-3 344 -168 541 q-166 197 -459 201 q-226 -4 -388 -134 q-162 -130 -194 -335 l80 0 q32 172 172 282 q141 109 330 113 q242 -3 386 -166 q144 -163 158 -447 l-734 0 l0 -72 l736 0 q-6 -301 -150 -475 q-145 -173 -396 -177 q-198 3 -335 103 q-137 100 -167 266 l-80 0 q32 -203 189 -322 q156 -118 393 -121 l0 0 Z" /><glyph glyph-name="" unicode="&#x4ec;" d="M649 -21 q295 4 460 200 q164 196 167 543 q-3 344 -168 541 q-166 197 -459 201 q-226 -4 -388 -134 q-162 -130 -194 -335 l80 0 q32 172 172 282 q141 109 330 113 q242 -3 386 -166 q144 -163 158 -447 l-734 0 l0 -72 l736 0 q-6 -301 -150 -475 q-145 -173 -396 -177 q-198 3 -335 103 q-137 100 -167 266 l-80 0 q32 -203 189 -322 q156 -118 393 -121 l0 0 ZM499 1563 q28 1 47 20 q19 19 20 47 q-1 28 -20 47 q-19 18 -47 19 q-29 -1 -48 -19 q-19 -19 -20 -47 q1 -28 20 -47 q19 -19 48 -20 l0 0 ZM803 1563 q29 1 48 20 q19 19 20 47 q-1 28 -20 47 q-19 18 -48 19 q-28 -1 -47 -19 q-19 -19 -20 -47 q1 -28 20 -47 q19 -19 47 -20 l0 0 Z" /><glyph glyph-name="" unicode="&#x42e;" d="M1152 -24 q293 4 457 201 q164 197 167 545 q-3 348 -167 545 q-165 196 -457 200 q-279 -3 -443 -185 q-164 -182 -180 -505 l-312 0 l0 666 l-79 0 l0 -1443 l79 0 l0 705 l311 0 q7 -341 171 -533 q163 -193 453 -196 l0 0 ZM1152 1393 q252 -4 396 -182 q144 -179 147 -489 q-3 -310 -147 -489 q-144 -179 -396 -183 q-253 4 -397 183 q-144 179 -147 489 q3 310 147 489 q144 178 397 182 l0 0 Z" /><glyph glyph-name="" unicode="&#x42f;" d="M940 685 l-374 0 q-187 1 -291 91 q-103 90 -105 251 q2 162 105 252 q104 90 291 91 l374 0 l0 -685 ZM545 612 l395 0 l0 -612 l79 0 l0 1443 l-466 0 q-215 -2 -338 -112 q-123 -111 -125 -304 q3 -172 104 -276 q100 -104 266 -129 l-423 -622 l92 0 l416 612 Z" /><glyph glyph-name="" unicode="&#x494;" d="M871 1443 l-733 0 l0 -1443 l79 0 l0 611 q33 54 133 116 q99 63 255 68 q175 -2 274 -102 q99 -100 101 -272 q-3 -165 -89 -261 q-86 -95 -226 -97 q-46 0 -73 4 q-27 3 -33 6 l0 -72 q5 -3 33 -8 q28 -4 75 -5 q183 4 287 123 q103 119 105 311 q-2 202 -119 322 q-118 120 -332 123 q-141 -3 -237 -51 q-96 -47 -144 -100 l-10 0 l0 654 l654 0 l0 73 Z" /><glyph glyph-name="" unicode="&#x4a6;" d="M138 1443 l0 -1443 l79 0 l0 1370 l826 0 l0 -1370 l79 0 l0 611 q32 54 132 116 q100 63 256 68 q175 -2 274 -102 q98 -100 100 -272 q-2 -165 -88 -261 q-86 -95 -226 -97 q-46 0 -73 4 q-27 3 -33 6 l0 -72 q5 -3 33 -8 q27 -4 75 -5 q183 4 287 123 q103 119 105 311 q-2 202 -119 322 q-118 120 -332 123 q-142 -3 -238 -51 q-96 -47 -143 -100 l-10 0 l0 727 l-984 0 Z" /><glyph glyph-name="" unicode="&#x404;" d="M1277 422 l-80 0 q-27 -169 -160 -268 q-132 -99 -325 -101 q-250 3 -398 176 q-147 172 -155 476 l743 0 l0 72 l-743 0 q13 286 160 448 q146 162 393 165 q189 -4 323 -113 q135 -110 163 -282 l80 0 q-29 205 -186 335 q-157 130 -380 134 q-294 -4 -463 -199 q-169 -194 -172 -535 q3 -348 172 -548 q169 -199 463 -203 q230 3 383 122 q153 119 182 321 l0 0 Z" /><glyph glyph-name="" unicode="&#x4c0;" d="M217 0 l0 1443 l-79 0 l0 -1443 l79 0 Z" /><glyph glyph-name="" unicode="&#x406;" d="M217 0 l0 1443 l-79 0 l0 -1443 l79 0 Z" /><glyph glyph-name="" unicode="&#x407;" d="M217 0 l0 1443 l-79 0 l0 -1443 l79 0 ZM25 1563 q28 1 47 20 q19 19 20 47 q-1 28 -20 47 q-19 18 -47 19 q-29 -1 -48 -19 q-19 -19 -20 -47 q1 -28 20 -47 q19 -19 48 -20 l0 0 ZM329 1563 q29 1 48 20 q19 19 20 47 q-1 28 -20 47 q-19 18 -48 19 q-28 -1 -47 -19 q-19 -19 -20 -47 q1 -28 20 -47 q19 -19 47 -20 l0 0 Z" /><glyph glyph-name="" unicode="&#x4a8;" d="M879 771 q3 201 105 327 q103 125 272 129 q168 -4 271 -124 q103 -121 106 -314 q-3 -207 -109 -381 q-106 -175 -286 -271 q-164 100 -260 268 q-97 167 -99 366 l0 0 ZM1846 116 q-56 -34 -123 -52 q-66 -18 -144 -18 q-78 0 -143 13 q-66 14 -124 40 q181 105 289 288 q109 183 112 402 q-3 232 -127 370 q-124 139 -330 142 q-206 -4 -330 -148 q-124 -145 -127 -384 q3 -219 102 -389 q99 -170 260 -276 q-71 -26 -149 -40 q-78 -14 -157 -14 q-320 4 -509 187 q-189 184 -194 499 q3 259 147 437 q145 178 393 222 l0 75 q-282 -41 -450 -241 q-168 -201 -172 -497 q4 -345 213 -548 q208 -203 572 -208 q101 0 198 21 q96 20 182 61 q74 -41 157 -62 q84 -21 185 -21 q86 0 159 19 q73 19 139 57 l-29 65 Z" /><glyph glyph-name="" unicode="&#x4ae;" d="M626 0 l0 629 l524 814 l-92 0 l-469 -733 l-5 0 l-469 733 l-93 0 l525 -814 l0 -629 l79 0 Z" /><glyph glyph-name="" unicode="&#x4b0;" d="M1150 1443 l-92 0 l-469 -733 l-5 0 l-469 733 l-93 0 l499 -773 l-361 0 l0 -68 l387 0 l0 -602 l79 0 l0 602 l387 0 l0 68 l-361 0 l498 773 Z" /><glyph glyph-name="" unicode="&#x4bc;" d="M407 815 q25 269 167 422 q142 152 367 155 q236 -3 375 -157 q138 -154 145 -420 l-1054 0 ZM1546 743 l0 50 q-3 310 -165 490 q-161 180 -439 184 q-263 -3 -426 -177 q-163 -173 -191 -475 l-4 0 q-108 1 -160 48 q-52 47 -52 133 q3 73 21 123 q18 51 21 53 l-73 0 q-3 -2 -22 -51 q-19 -50 -22 -130 q0 -115 72 -181 q72 -66 212 -67 l3 0 q0 -14 0 -29 q3 -343 176 -539 q173 -195 477 -199 q199 2 343 97 q144 95 199 258 l-80 0 q-57 -131 -178 -205 q-121 -74 -283 -75 q-262 4 -415 177 q-153 174 -156 470 l0 45 l1142 0 Z" /><glyph glyph-name="" unicode="&#x4be;" d="M1101 1563 q29 1 48 20 q19 19 20 47 q-1 28 -20 47 q-19 18 -48 19 q-28 -1 -47 -19 q-19 -19 -20 -47 q1 -28 20 -47 q19 -19 47 -20 l0 0 ZM797 1563 q28 1 47 20 q19 19 20 47 q-1 28 -20 47 q-19 18 -47 19 q-29 -1 -48 -19 q-19 -19 -20 -47 q1 -28 20 -47 q19 -19 48 -20 l0 0 ZM407 815 q25 269 167 422 q142 152 367 155 q236 -3 375 -157 q138 -154 145 -420 l-1054 0 ZM1546 743 l0 50 q-3 310 -165 490 q-161 180 -439 184 q-263 -3 -426 -177 q-163 -173 -191 -475 l-4 0 q-108 1 -160 48 q-52 47 -52 133 q3 73 21 123 q18 51 21 53 l-73 0 q-3 -2 -22 -51 q-19 -50 -22 -130 q0 -115 72 -181 q72 -66 212 -67 l3 0 q0 -14 0 -29 q3 -330 163 -524 q161 -194 444 -213 l0 -263 l75 0 l0 263 q189 9 325 103 q136 94 188 251 l-80 0 q-57 -131 -178 -205 q-121 -74 -283 -75 q-262 4 -415 177 q-153 174 -156 470 l0 45 l1142 0 Z" /><glyph glyph-name="" unicode="&#x4d4;" d="M795 1373 l184 0 l0 -881 l-625 0 l441 881 ZM979 0 l790 0 l0 73 l-712 0 l0 628 l676 0 l0 72 l-676 0 l0 597 l712 0 l0 73 l-1021 0 l-722 -1443 l84 0 l210 422 l659 0 l0 -422 Z" /><glyph glyph-name="" unicode="&#x4d8;" d="M675 -24 q286 4 452 205 q166 200 170 546 q-3 344 -173 540 q-170 196 -471 200 q-197 -2 -345 -98 q-148 -96 -209 -264 l81 0 q60 139 185 213 q125 73 288 74 q263 -4 411 -178 q148 -174 150 -469 l0 -18 l-1144 0 l0 -49 q4 -330 163 -514 q159 -185 442 -188 l0 0 ZM676 51 q-237 3 -375 163 q-138 160 -146 441 l1057 0 q-19 -276 -163 -438 q-143 -162 -373 -166 l0 0 Z" /><glyph glyph-name="" unicode="&#x4da;" d="M501 1563 q28 1 47 20 q19 19 20 47 q-1 28 -20 47 q-19 18 -47 19 q-29 -1 -48 -19 q-19 -19 -20 -47 q1 -28 20 -47 q19 -19 48 -20 l0 0 ZM805 1563 q29 1 48 20 q19 19 20 47 q-1 28 -20 47 q-19 18 -48 19 q-28 -1 -47 -19 q-19 -19 -20 -47 q1 -28 20 -47 q19 -19 47 -20 l0 0 ZM675 -24 q286 4 452 205 q166 200 170 546 q-3 344 -173 540 q-170 196 -471 200 q-197 -2 -345 -98 q-148 -96 -209 -264 l81 0 q60 139 185 213 q125 73 288 74 q263 -4 411 -178 q148 -174 150 -469 l0 -18 l-1144 0 l0 -49 q4 -330 163 -514 q159 -185 442 -188 l0 0 ZM676 51 q-237 3 -375 163 q-138 160 -146 441 l1057 0 q-19 -276 -163 -438 q-143 -162 -373 -166 l0 0 Z" /><glyph glyph-name="" unicode="&#x4e0;" d="M555 -24 q212 3 343 118 q130 116 134 310 q-1 210 -141 321 q-140 111 -414 114 l0 7 l504 535 l0 62 l-850 0 l0 -73 l733 0 l0 -7 l-492 -521 l0 -71 l81 0 q246 -1 372 -94 q126 -94 126 -273 q-3 -161 -113 -258 q-109 -96 -284 -99 q-174 3 -289 92 q-115 89 -123 222 l-77 0 q8 -166 143 -273 q135 -108 347 -112 l0 0 Z" /><glyph glyph-name="" unicode="&#x510;" d="M747 712 l0 72 l-168 0 q-173 1 -276 81 q-103 79 -106 228 q3 138 102 219 q98 81 251 83 q152 -2 251 -84 q99 -81 111 -214 l78 0 q-12 166 -132 266 q-121 101 -310 104 q-185 -2 -306 -101 q-121 -99 -125 -269 q2 -146 85 -230 q82 -84 222 -111 l0 -7 q-165 -15 -261 -112 q-97 -96 -99 -261 q5 -179 143 -288 q139 -109 352 -112 q204 4 338 112 q135 107 143 273 l-78 0 q-9 -132 -122 -221 q-114 -89 -281 -92 q-183 3 -297 93 q-114 91 -117 236 q2 161 114 248 q113 86 318 87 l170 0 Z" /><glyph glyph-name="" unicode="&#x474;" d="M661 0 l458 1199 q23 59 40 92 q18 33 37 49 q18 16 40 23 q21 8 48 8 q26 0 51 -6 q25 -6 55 -19 l25 69 q-30 17 -65 26 q-34 9 -69 9 q-38 0 -67 -8 q-29 -8 -52 -25 q-32 -22 -60 -68 q-27 -45 -58 -128 l-419 -1113 l-7 0 l-502 1335 l-85 0 l550 -1443 l80 0 Z" /><glyph glyph-name="" unicode="&#x51c;" d="M888 1295 l5 0 l384 -1295 l70 0 l403 1443 l-83 0 l-355 -1306 l-5 0 l-380 1306 l-74 0 l-379 -1306 l-5 0 l-356 1306 l-82 0 l403 -1443 l70 0 l384 1295 Z" /><glyph glyph-name="" unicode="&#x402;" d="M1068 -12 q178 3 284 120 q105 117 108 314 q-2 204 -122 323 q-120 119 -329 122 q-117 -1 -216 -41 q-100 -40 -170 -110 l-5 0 l0 654 l509 0 l0 73 l-1096 0 l0 -73 l508 0 l0 -1370 l79 0 l0 611 q61 82 164 132 q103 51 224 52 q174 -2 273 -101 q100 -99 102 -273 q-2 -163 -85 -259 q-84 -97 -230 -99 q-32 0 -61 3 q-29 2 -45 7 l0 -72 q16 -6 46 -9 q30 -4 62 -4 l0 0 Z" /><glyph glyph-name="" unicode="&#x405;" d="M67 385 q13 -182 154 -293 q140 -110 366 -113 q230 3 365 113 q135 111 138 293 q1 143 -97 230 q-99 88 -307 138 l-161 41 q-173 42 -256 110 q-83 68 -82 175 q4 139 114 224 q109 86 276 88 q173 -2 285 -85 q111 -82 122 -214 l79 0 q-11 162 -143 266 q-133 103 -341 106 q-202 -3 -335 -109 q-133 -106 -138 -278 q-1 -135 94 -221 q95 -86 294 -136 l171 -42 q180 -45 263 -116 q82 -71 81 -183 q-3 -144 -116 -234 q-113 -90 -300 -93 q-192 2 -313 93 q-122 91 -134 240 l-79 0 Z" /><glyph glyph-name="" unicode="&#x408;" d="M51 320 q7 -153 112 -247 q105 -94 273 -97 q188 2 292 110 q104 109 106 299 l0 1058 l-80 0 l0 -1054 q-1 -162 -84 -250 q-84 -88 -235 -89 q-131 2 -214 75 q-83 74 -92 195 l-78 0 Z" /><glyph glyph-name="" unicode="a" d="M453 55 q-128 2 -207 66 q-80 64 -82 169 q1 108 81 170 q81 61 236 73 l359 27 l0 -161 q-4 -147 -113 -244 q-109 -96 -274 -100 l0 0 ZM443 -14 q140 2 247 68 q108 67 150 178 l2 0 l0 -232 l75 0 l0 726 q-2 170 -103 267 q-102 96 -281 98 q-173 -2 -281 -89 q-108 -87 -125 -238 l75 0 q21 123 106 189 q86 66 224 67 q147 -1 227 -79 q80 -78 81 -220 l0 -96 l-369 -27 q-190 -14 -287 -92 q-98 -78 -98 -216 q3 -137 99 -219 q97 -83 258 -85 l0 0 Z" /><glyph glyph-name="" unicode="à" d="M453 55 q-128 2 -207 66 q-80 64 -82 169 q1 108 81 170 q81 61 236 73 l359 27 l0 -161 q-4 -147 -113 -244 q-109 -96 -274 -100 l0 0 ZM443 -14 q140 2 247 68 q108 67 150 178 l2 0 l0 -232 l75 0 l0 726 q-2 170 -103 267 q-102 96 -281 98 q-173 -2 -281 -89 q-108 -87 -125 -238 l75 0 q21 123 106 189 q86 66 224 67 q147 -1 227 -79 q80 -78 81 -220 l0 -96 l-369 -27 q-190 -14 -287 -92 q-98 -78 -98 -216 q3 -137 99 -219 q97 -83 258 -85 l0 0 ZM583 1253 l-230 303 l-93 0 l249 -303 l74 0 Z" /><glyph glyph-name="" unicode="á" d="M453 55 q-128 2 -207 66 q-80 64 -82 169 q1 108 81 170 q81 61 236 73 l359 27 l0 -161 q-4 -147 -113 -244 q-109 -96 -274 -100 l0 0 ZM443 -14 q140 2 247 68 q108 67 150 178 l2 0 l0 -232 l75 0 l0 726 q-2 170 -103 267 q-102 96 -281 98 q-173 -2 -281 -89 q-108 -87 -125 -238 l75 0 q21 123 106 189 q86 66 224 67 q147 -1 227 -79 q80 -78 81 -220 l0 -96 l-369 -27 q-190 -14 -287 -92 q-98 -78 -98 -216 q3 -137 99 -219 q97 -83 258 -85 l0 0 ZM552 1253 l249 303 l-93 0 l-230 -303 l74 0 Z" /><glyph glyph-name="" unicode="ä" d="M453 55 q-128 2 -207 66 q-80 64 -82 169 q1 108 81 170 q81 61 236 73 l359 27 l0 -161 q-4 -147 -113 -244 q-109 -96 -274 -100 l0 0 ZM443 -14 q140 2 247 68 q108 67 150 178 l2 0 l0 -232 l75 0 l0 726 q-2 170 -103 267 q-102 96 -281 98 q-173 -2 -281 -89 q-108 -87 -125 -238 l75 0 q21 123 106 189 q86 66 224 67 q147 -1 227 -79 q80 -78 81 -220 l0 -96 l-369 -27 q-190 -14 -287 -92 q-98 -78 -98 -216 q3 -137 99 -219 q97 -83 258 -85 l0 0 ZM380 1256 q28 1 47 20 q19 19 20 47 q-1 28 -20 47 q-19 18 -47 19 q-29 -1 -48 -19 q-19 -19 -20 -47 q1 -28 20 -47 q19 -19 48 -20 l0 0 ZM684 1256 q29 1 48 20 q19 19 20 47 q-1 28 -20 47 q-19 18 -48 19 q-28 -1 -47 -19 q-19 -19 -20 -47 q1 -28 20 -47 q19 -19 47 -20 l0 0 Z" /><glyph glyph-name="" unicode="&#x1df;" d="M453 55 q-128 2 -207 66 q-80 64 -82 169 q1 108 81 170 q81 61 236 73 l359 27 l0 -161 q-4 -147 -113 -244 q-109 -96 -274 -100 l0 0 ZM443 -14 q140 2 247 68 q108 67 150 178 l2 0 l0 -232 l75 0 l0 726 q-2 170 -103 267 q-102 96 -281 98 q-173 -2 -281 -89 q-108 -87 -125 -238 l75 0 q21 123 106 189 q86 66 224 67 q147 -1 227 -79 q80 -78 81 -220 l0 -96 l-369 -27 q-190 -14 -287 -92 q-98 -78 -98 -216 q3 -137 99 -219 q97 -83 258 -85 l0 0 ZM380 1256 q28 1 47 19 q18 18 19 46 q-1 28 -19 46 q-19 18 -47 19 q-28 -1 -46 -19 q-19 -18 -20 -46 q1 -28 20 -46 q18 -18 46 -19 l0 0 ZM684 1256 q28 1 47 19 q18 18 19 46 q-1 28 -19 46 q-19 18 -47 19 q-28 -1 -46 -19 q-19 -18 -20 -46 q1 -28 20 -46 q18 -18 46 -19 l0 0 ZM825 1659 l-596 0 l0 -58 l596 0 l0 58 Z" /><glyph glyph-name="" unicode="å" d="M453 55 q-128 2 -207 66 q-80 64 -82 169 q1 108 81 170 q81 61 236 73 l359 27 l0 -161 q-4 -147 -113 -244 q-109 -96 -274 -100 l0 0 ZM443 -14 q140 2 247 68 q108 67 150 178 l2 0 l0 -232 l75 0 l0 726 q-2 170 -103 267 q-102 96 -281 98 q-173 -2 -281 -89 q-108 -87 -125 -238 l75 0 q21 123 106 189 q86 66 224 67 q147 -1 227 -79 q80 -78 81 -220 l0 -96 l-369 -27 q-190 -14 -287 -92 q-98 -78 -98 -216 q3 -137 99 -219 q97 -83 258 -85 l0 0 ZM532 1234 q73 2 122 51 q48 49 50 122 q-2 73 -50 122 q-49 49 -122 51 q-73 -2 -122 -51 q-48 -49 -50 -122 q2 -73 50 -122 q49 -49 122 -51 l0 0 ZM532 1282 q-54 1 -88 37 q-35 35 -36 88 q1 53 36 88 q34 36 88 37 q54 -1 88 -37 q35 -35 36 -88 q-1 -53 -36 -88 q-34 -36 -88 -37 l0 0 Z" /><glyph glyph-name="" unicode="&#x1fb;" d="M453 55 q-128 2 -207 66 q-80 64 -82 169 q1 108 81 170 q81 61 236 73 l359 27 l0 -161 q-4 -147 -113 -244 q-109 -96 -274 -100 l0 0 ZM443 -14 q140 2 247 68 q108 67 150 178 l2 0 l0 -232 l75 0 l0 726 q-2 170 -103 267 q-102 96 -281 98 q-173 -2 -281 -89 q-108 -87 -125 -238 l75 0 q21 123 106 189 q86 66 224 67 q147 -1 227 -79 q80 -78 81 -220 l0 -96 l-369 -27 q-190 -14 -287 -92 q-98 -78 -98 -216 q3 -137 99 -219 q97 -83 258 -85 l0 0 ZM532 1220 q73 2 122 51 q48 49 50 122 q-2 73 -50 122 q-49 49 -122 51 q-73 -2 -122 -51 q-48 -49 -50 -122 q2 -73 50 -122 q49 -49 122 -51 l0 0 ZM408 1393 q1 53 36 88 q34 36 88 37 q54 -1 88 -37 q35 -35 36 -88 q-1 -53 -36 -88 q-34 -36 -88 -37 q-54 1 -88 37 q-35 35 -36 88 l0 0 ZM492 1649 l67 0 l161 172 l-82 0 l-146 -172 Z" /><glyph glyph-name="" unicode="ã" d="M453 55 q-128 2 -207 66 q-80 64 -82 169 q1 108 81 170 q81 61 236 73 l359 27 l0 -161 q-4 -147 -113 -244 q-109 -96 -274 -100 l0 0 ZM443 -14 q140 2 247 68 q108 67 150 178 l2 0 l0 -232 l75 0 l0 726 q-2 170 -103 267 q-102 96 -281 98 q-173 -2 -281 -89 q-108 -87 -125 -238 l75 0 q21 123 106 189 q86 66 224 67 q147 -1 227 -79 q80 -78 81 -220 l0 -96 l-369 -27 q-190 -14 -287 -92 q-98 -78 -98 -216 q3 -137 99 -219 q97 -83 258 -85 l0 0 ZM667 1255 q74 2 112 59 q38 58 38 154 l-61 0 q0 -70 -21 -111 q-21 -42 -68 -43 q-68 10 -121 82 q-54 72 -148 82 q-75 -1 -112 -58 q-38 -57 -38 -154 l60 0 q0 69 22 111 q21 41 69 42 q70 -10 122 -82 q53 -72 146 -82 l0 0 Z" /><glyph glyph-name="" unicode="&#x1eb1;" d="M453 55 q-128 2 -207 66 q-80 64 -82 169 q1 108 81 170 q81 61 236 73 l359 27 l0 -161 q-4 -147 -113 -244 q-109 -96 -274 -100 l0 0 ZM443 -14 q140 2 247 68 q108 67 150 178 l2 0 l0 -232 l75 0 l0 726 q-2 170 -103 267 q-102 96 -281 98 q-173 -2 -281 -89 q-108 -87 -125 -238 l75 0 q21 123 106 189 q86 66 224 67 q147 -1 227 -79 q80 -78 81 -220 l0 -96 l-369 -27 q-190 -14 -287 -92 q-98 -78 -98 -216 q3 -137 99 -219 q97 -83 258 -85 l0 0 ZM590 1518 l-226 296 l-88 0 l245 -296 l69 0 ZM802 1503 l-61 0 q-1 -90 -57 -142 q-56 -52 -152 -53 q-96 1 -152 53 q-56 52 -57 142 l-61 0 q2 -120 76 -185 q73 -64 194 -65 q121 1 194 65 q74 65 76 185 l0 0 Z" /><glyph glyph-name="" unicode="&#x1e1;" d="M453 55 q-128 2 -207 66 q-80 64 -82 169 q1 108 81 170 q81 61 236 73 l359 27 l0 -161 q-4 -147 -113 -244 q-109 -96 -274 -100 l0 0 ZM443 -14 q140 2 247 68 q108 67 150 178 l2 0 l0 -232 l75 0 l0 726 q-2 170 -103 267 q-102 96 -281 98 q-173 -2 -281 -89 q-108 -87 -125 -238 l75 0 q21 123 106 189 q86 66 224 67 q147 -1 227 -79 q80 -78 81 -220 l0 -96 l-369 -27 q-190 -14 -287 -92 q-98 -78 -98 -216 q3 -137 99 -219 q97 -83 258 -85 l0 0 ZM532 1256 q32 1 54 23 q22 22 23 54 q-1 32 -23 53 q-22 22 -54 23 q-32 -1 -54 -23 q-22 -21 -23 -53 q1 -32 23 -54 q22 -22 54 -23 l0 0 ZM825 1659 l-596 0 l0 -58 l596 0 l0 58 Z" /><glyph glyph-name="" unicode="&#x1e01;" d="M453 55 q-128 2 -207 66 q-80 64 -82 169 q1 108 81 170 q81 61 236 73 l359 27 l0 -161 q-4 -147 -113 -244 q-109 -96 -274 -100 l0 0 ZM443 -14 q140 2 247 68 q108 67 150 178 l2 0 l0 -232 l75 0 l0 726 q-2 170 -103 267 q-102 96 -281 98 q-173 -2 -281 -89 q-108 -87 -125 -238 l75 0 q21 123 106 189 q86 66 224 67 q147 -1 227 -79 q80 -78 81 -220 l0 -96 l-369 -27 q-190 -14 -287 -92 q-98 -78 -98 -216 q3 -137 99 -219 q97 -83 258 -85 l0 0 ZM518 -492 q73 2 122 51 q48 49 50 122 q-2 73 -50 122 q-49 49 -122 51 q-73 -2 -122 -51 q-48 -49 -50 -122 q2 -73 50 -122 q49 -49 122 -51 l0 0 ZM518 -444 q-54 1 -88 37 q-35 35 -36 88 q1 53 36 88 q34 36 88 37 q54 -1 88 -37 q35 -35 36 -88 q-1 -53 -36 -88 q-34 -36 -88 -37 l0 0 Z" /><glyph glyph-name="" unicode="â" d="M453 55 q-128 2 -207 66 q-80 64 -82 169 q1 108 81 170 q81 61 236 73 l359 27 l0 -161 q-4 -147 -113 -244 q-109 -96 -274 -100 l0 0 ZM443 -14 q140 2 247 68 q108 67 150 178 l2 0 l0 -232 l75 0 l0 726 q-2 170 -103 267 q-102 96 -281 98 q-173 -2 -281 -89 q-108 -87 -125 -238 l75 0 q21 123 106 189 q86 66 224 67 q147 -1 227 -79 q80 -78 81 -220 l0 -96 l-369 -27 q-190 -14 -287 -92 q-98 -78 -98 -216 q3 -137 99 -219 q97 -83 258 -85 l0 0 ZM563 1556 l-62 0 l-268 -303 l81 0 l217 249 l3 0 l217 -249 l80 0 l-268 303 Z" /><glyph glyph-name="" unicode="&#x1ead;" d="M453 55 q-128 2 -207 66 q-80 64 -82 169 q1 108 81 170 q81 61 236 73 l359 27 l0 -161 q-4 -147 -113 -244 q-109 -96 -274 -100 l0 0 ZM443 -14 q140 2 247 68 q108 67 150 178 l2 0 l0 -232 l75 0 l0 726 q-2 170 -103 267 q-102 96 -281 98 q-173 -2 -281 -89 q-108 -87 -125 -238 l75 0 q21 123 106 189 q86 66 224 67 q147 -1 227 -79 q80 -78 81 -220 l0 -96 l-369 -27 q-190 -14 -287 -92 q-98 -78 -98 -216 q3 -137 99 -219 q97 -83 258 -85 l0 0 ZM563 1556 l-62 0 l-268 -303 l81 0 l217 249 l3 0 l217 -249 l80 0 l-268 303 ZM518 -295 q32 1 54 22 q22 22 23 54 q-1 32 -23 54 q-22 21 -54 22 q-32 -1 -54 -22 q-22 -22 -23 -54 q1 -32 23 -54 q22 -21 54 -22 l0 0 Z" /><glyph glyph-name="" unicode="&#x1ea5;" d="M453 55 q-128 2 -207 66 q-80 64 -82 169 q1 108 81 170 q81 61 236 73 l359 27 l0 -161 q-4 -147 -113 -244 q-109 -96 -274 -100 l0 0 ZM443 -14 q140 2 247 68 q108 67 150 178 l2 0 l0 -232 l75 0 l0 726 q-2 170 -103 267 q-102 96 -281 98 q-173 -2 -281 -89 q-108 -87 -125 -238 l75 0 q21 123 106 189 q86 66 224 67 q147 -1 227 -79 q80 -78 81 -220 l0 -96 l-369 -27 q-190 -14 -287 -92 q-98 -78 -98 -216 q3 -137 99 -219 q97 -83 258 -85 l0 0 ZM569 1537 l-74 0 l-264 -284 l80 0 l219 237 l4 0 l219 -237 l80 0 l-264 284 ZM732 1518 l69 0 l244 296 l-87 0 l-226 -296 Z" /><glyph glyph-name="" unicode="&#x1eab;" d="M453 55 q-128 2 -207 66 q-80 64 -82 169 q1 108 81 170 q81 61 236 73 l359 27 l0 -161 q-4 -147 -113 -244 q-109 -96 -274 -100 l0 0 ZM443 -14 q140 2 247 68 q108 67 150 178 l2 0 l0 -232 l75 0 l0 726 q-2 170 -103 267 q-102 96 -281 98 q-173 -2 -281 -89 q-108 -87 -125 -238 l75 0 q21 123 106 189 q86 66 224 67 q147 -1 227 -79 q80 -78 81 -220 l0 -96 l-369 -27 q-190 -14 -287 -92 q-98 -78 -98 -216 q3 -137 99 -219 q97 -83 258 -85 l0 0 ZM569 1537 l-74 0 l-264 -284 l80 0 l219 237 l4 0 l219 -237 l80 0 l-264 284 ZM653 1609 q70 1 108 54 q38 52 38 137 l-60 0 q0 -60 -21 -96 q-21 -35 -65 -36 q-63 9 -107 75 q-45 66 -134 75 q-72 -1 -109 -53 q-38 -52 -38 -138 l60 0 q0 59 22 95 q21 36 66 37 q64 -9 108 -75 q44 -66 132 -75 l0 0 Z" /><glyph glyph-name="" unicode="&#x1ea7;" d="M453 55 q-128 2 -207 66 q-80 64 -82 169 q1 108 81 170 q81 61 236 73 l359 27 l0 -161 q-4 -147 -113 -244 q-109 -96 -274 -100 l0 0 ZM443 -14 q140 2 247 68 q108 67 150 178 l2 0 l0 -232 l75 0 l0 726 q-2 170 -103 267 q-102 96 -281 98 q-173 -2 -281 -89 q-108 -87 -125 -238 l75 0 q21 123 106 189 q86 66 224 67 q147 -1 227 -79 q80 -78 81 -220 l0 -96 l-369 -27 q-190 -14 -287 -92 q-98 -78 -98 -216 q3 -137 99 -219 q97 -83 258 -85 l0 0 ZM569 1537 l-74 0 l-264 -284 l80 0 l219 237 l4 0 l219 -237 l80 0 l-264 284 ZM905 1518 l-226 296 l-88 0 l244 -296 l70 0 Z" /><glyph glyph-name="" unicode="&#x1ea9;" d="M453 55 q-128 2 -207 66 q-80 64 -82 169 q1 108 81 170 q81 61 236 73 l359 27 l0 -161 q-4 -147 -113 -244 q-109 -96 -274 -100 l0 0 ZM443 -14 q140 2 247 68 q108 67 150 178 l2 0 l0 -232 l75 0 l0 726 q-2 170 -103 267 q-102 96 -281 98 q-173 -2 -281 -89 q-108 -87 -125 -238 l75 0 q21 123 106 189 q86 66 224 67 q147 -1 227 -79 q80 -78 81 -220 l0 -96 l-369 -27 q-190 -14 -287 -92 q-98 -78 -98 -216 q3 -137 99 -219 q97 -83 258 -85 l0 0 ZM631 1710 q19 11 47 19 q28 7 59 7 q46 -1 73 -23 q27 -23 28 -62 q0 -33 -22 -60 q-21 -28 -59 -45 l37 -40 q51 22 79 61 q27 39 27 88 q-1 62 -43 99 q-42 37 -114 38 q-34 0 -65 -9 q-30 -8 -47 -18 l0 -55 ZM569 1537 l-74 0 l-264 -284 l80 0 l219 237 l4 0 l219 -237 l80 0 l-264 284 Z" /><glyph glyph-name="" unicode="&#x103;" d="M453 55 q-128 2 -207 66 q-80 64 -82 169 q1 108 81 170 q81 61 236 73 l359 27 l0 -161 q-4 -147 -113 -244 q-109 -96 -274 -100 l0 0 ZM443 -14 q140 2 247 68 q108 67 150 178 l2 0 l0 -232 l75 0 l0 726 q-2 170 -103 267 q-102 96 -281 98 q-173 -2 -281 -89 q-108 -87 -125 -238 l75 0 q21 123 106 189 q86 66 224 67 q147 -1 227 -79 q80 -78 81 -220 l0 -96 l-369 -27 q-190 -14 -287 -92 q-98 -78 -98 -216 q3 -137 99 -219 q97 -83 258 -85 l0 0 ZM260 1503 q2 -120 77 -186 q74 -66 195 -67 q121 1 195 67 q75 66 77 186 l-62 0 q-1 -89 -58 -142 q-57 -53 -152 -54 q-95 1 -152 54 q-57 53 -58 142 l-62 0 Z" /><glyph glyph-name="" unicode="&#x1eaf;" d="M453 55 q-128 2 -207 66 q-80 64 -82 169 q1 108 81 170 q81 61 236 73 l359 27 l0 -161 q-4 -147 -113 -244 q-109 -96 -274 -100 l0 0 ZM443 -14 q140 2 247 68 q108 67 150 178 l2 0 l0 -232 l75 0 l0 726 q-2 170 -103 267 q-102 96 -281 98 q-173 -2 -281 -89 q-108 -87 -125 -238 l75 0 q21 123 106 189 q86 66 224 67 q147 -1 227 -79 q80 -78 81 -220 l0 -96 l-369 -27 q-190 -14 -287 -92 q-98 -78 -98 -216 q3 -137 99 -219 q97 -83 258 -85 l0 0 ZM474 1518 l69 0 l245 296 l-88 0 l-226 -296 ZM802 1503 l-61 0 q-1 -90 -57 -142 q-56 -52 -152 -53 q-96 1 -152 53 q-56 52 -57 142 l-61 0 q2 -120 76 -185 q73 -64 194 -65 q121 1 194 65 q74 65 76 185 l0 0 Z" /><glyph glyph-name="" unicode="&#x1eb5;" d="M453 55 q-128 2 -207 66 q-80 64 -82 169 q1 108 81 170 q81 61 236 73 l359 27 l0 -161 q-4 -147 -113 -244 q-109 -96 -274 -100 l0 0 ZM443 -14 q140 2 247 68 q108 67 150 178 l2 0 l0 -232 l75 0 l0 726 q-2 170 -103 267 q-102 96 -281 98 q-173 -2 -281 -89 q-108 -87 -125 -238 l75 0 q21 123 106 189 q86 66 224 67 q147 -1 227 -79 q80 -78 81 -220 l0 -96 l-369 -27 q-190 -14 -287 -92 q-98 -78 -98 -216 q3 -137 99 -219 q97 -83 258 -85 l0 0 ZM802 1503 l-61 0 q-1 -90 -57 -142 q-56 -52 -152 -53 q-96 1 -152 53 q-56 52 -57 142 l-61 0 q2 -120 76 -185 q73 -64 194 -65 q121 1 194 65 q74 65 76 185 l0 0 ZM653 1609 q70 1 108 54 q38 52 38 137 l-60 0 q0 -60 -21 -96 q-21 -35 -65 -36 q-63 9 -107 75 q-45 66 -134 75 q-72 -1 -109 -53 q-38 -52 -38 -138 l60 0 q0 59 22 95 q21 36 66 37 q64 -9 108 -75 q44 -66 132 -75 l0 0 Z" /><glyph glyph-name="" unicode="&#x1eb3;" d="M453 55 q-128 2 -207 66 q-80 64 -82 169 q1 108 81 170 q81 61 236 73 l359 27 l0 -161 q-4 -147 -113 -244 q-109 -96 -274 -100 l0 0 ZM443 -14 q140 2 247 68 q108 67 150 178 l2 0 l0 -232 l75 0 l0 726 q-2 170 -103 267 q-102 96 -281 98 q-173 -2 -281 -89 q-108 -87 -125 -238 l75 0 q21 123 106 189 q86 66 224 67 q147 -1 227 -79 q80 -78 81 -220 l0 -96 l-369 -27 q-190 -14 -287 -92 q-98 -78 -98 -216 q3 -137 99 -219 q97 -83 258 -85 l0 0 ZM802 1503 l-61 0 q-1 -90 -57 -142 q-56 -52 -152 -53 q-96 1 -152 53 q-56 52 -57 142 l-61 0 q2 -120 76 -185 q73 -64 194 -65 q121 1 194 65 q74 65 76 185 l0 0 ZM376 1710 q19 11 47 19 q28 7 59 7 q46 -1 73 -23 q27 -23 28 -62 q0 -33 -22 -60 q-21 -28 -59 -45 l37 -40 q51 22 79 61 q27 39 27 88 q-1 62 -43 99 q-42 37 -114 38 q-34 0 -65 -9 q-30 -8 -47 -18 l0 -55 Z" /><glyph glyph-name="" unicode="&#x1eb7;" d="M453 55 q-128 2 -207 66 q-80 64 -82 169 q1 108 81 170 q81 61 236 73 l359 27 l0 -161 q-4 -147 -113 -244 q-109 -96 -274 -100 l0 0 ZM443 -14 q140 2 247 68 q108 67 150 178 l2 0 l0 -232 l75 0 l0 726 q-2 170 -103 267 q-102 96 -281 98 q-173 -2 -281 -89 q-108 -87 -125 -238 l75 0 q21 123 106 189 q86 66 224 67 q147 -1 227 -79 q80 -78 81 -220 l0 -96 l-369 -27 q-190 -14 -287 -92 q-98 -78 -98 -216 q3 -137 99 -219 q97 -83 258 -85 l0 0 ZM518 -295 q32 1 54 22 q22 22 23 54 q-1 32 -23 54 q-22 21 -54 22 q-32 -1 -54 -22 q-22 -22 -23 -54 q1 -32 23 -54 q22 -21 54 -22 l0 0 ZM260 1503 q2 -120 77 -186 q74 -66 195 -67 q121 1 195 67 q75 66 77 186 l-62 0 q-1 -89 -58 -142 q-57 -53 -152 -54 q-95 1 -152 54 q-57 53 -58 142 l-62 0 Z" /><glyph glyph-name="" unicode="&#x203;" d="M453 55 q-128 2 -207 66 q-80 64 -82 169 q1 108 81 170 q81 61 236 73 l359 27 l0 -161 q-4 -147 -113 -244 q-109 -96 -274 -100 l0 0 ZM443 -14 q140 2 247 68 q108 67 150 178 l2 0 l0 -232 l75 0 l0 726 q-2 170 -103 267 q-102 96 -281 98 q-173 -2 -281 -89 q-108 -87 -125 -238 l75 0 q21 123 106 189 q86 66 224 67 q147 -1 227 -79 q80 -78 81 -220 l0 -96 l-369 -27 q-190 -14 -287 -92 q-98 -78 -98 -216 q3 -137 99 -219 q97 -83 258 -85 l0 0 ZM260 1253 l62 0 q1 89 58 142 q57 53 152 54 q95 -1 152 -54 q57 -53 58 -142 l62 0 q-2 120 -77 186 q-74 66 -195 67 q-121 -1 -195 -67 q-75 -66 -77 -186 l0 0 Z" /><glyph glyph-name="" unicode="&#x1ce;" d="M453 55 q-128 2 -207 66 q-80 64 -82 169 q1 108 81 170 q81 61 236 73 l359 27 l0 -161 q-4 -147 -113 -244 q-109 -96 -274 -100 l0 0 ZM443 -14 q140 2 247 68 q108 67 150 178 l2 0 l0 -232 l75 0 l0 726 q-2 170 -103 267 q-102 96 -281 98 q-173 -2 -281 -89 q-108 -87 -125 -238 l75 0 q21 123 106 189 q86 66 224 67 q147 -1 227 -79 q80 -78 81 -220 l0 -96 l-369 -27 q-190 -14 -287 -92 q-98 -78 -98 -216 q3 -137 99 -219 q97 -83 258 -85 l0 0 ZM563 1253 l268 303 l-80 0 l-217 -249 l-3 0 l-217 249 l-81 0 l268 -303 l62 0 Z" /><glyph glyph-name="" unicode="&#x227;" d="M453 55 q-128 2 -207 66 q-80 64 -82 169 q1 108 81 170 q81 61 236 73 l359 27 l0 -161 q-4 -147 -113 -244 q-109 -96 -274 -100 l0 0 ZM443 -14 q140 2 247 68 q108 67 150 178 l2 0 l0 -232 l75 0 l0 726 q-2 170 -103 267 q-102 96 -281 98 q-173 -2 -281 -89 q-108 -87 -125 -238 l75 0 q21 123 106 189 q86 66 224 67 q147 -1 227 -79 q80 -78 81 -220 l0 -96 l-369 -27 q-190 -14 -287 -92 q-98 -78 -98 -216 q3 -137 99 -219 q97 -83 258 -85 l0 0 ZM532 1256 q32 1 55 23 q22 22 23 54 q-1 32 -23 54 q-23 22 -55 23 q-32 -1 -55 -23 q-22 -22 -23 -54 q1 -32 23 -54 q23 -22 55 -23 l0 0 Z" /><glyph glyph-name="" unicode="&#x1ea1;" d="M453 55 q-128 2 -207 66 q-80 64 -82 169 q1 108 81 170 q81 61 236 73 l359 27 l0 -161 q-4 -147 -113 -244 q-109 -96 -274 -100 l0 0 ZM443 -14 q140 2 247 68 q108 67 150 178 l2 0 l0 -232 l75 0 l0 726 q-2 170 -103 267 q-102 96 -281 98 q-173 -2 -281 -89 q-108 -87 -125 -238 l75 0 q21 123 106 189 q86 66 224 67 q147 -1 227 -79 q80 -78 81 -220 l0 -96 l-369 -27 q-190 -14 -287 -92 q-98 -78 -98 -216 q3 -137 99 -219 q97 -83 258 -85 l0 0 ZM518 -295 q32 1 54 22 q22 22 23 54 q-1 32 -23 54 q-22 21 -54 22 q-32 -1 -54 -22 q-22 -22 -23 -54 q1 -32 23 -54 q22 -21 54 -22 l0 0 Z" /><glyph glyph-name="" unicode="&#x1ea3;" d="M453 55 q-128 2 -207 66 q-80 64 -82 169 q1 108 81 170 q81 61 236 73 l359 27 l0 -161 q-4 -147 -113 -244 q-109 -96 -274 -100 l0 0 ZM443 -14 q140 2 247 68 q108 67 150 178 l2 0 l0 -232 l75 0 l0 726 q-2 170 -103 267 q-102 96 -281 98 q-173 -2 -281 -89 q-108 -87 -125 -238 l75 0 q21 123 106 189 q86 66 224 67 q147 -1 227 -79 q80 -78 81 -220 l0 -96 l-369 -27 q-190 -14 -287 -92 q-98 -78 -98 -216 q3 -137 99 -219 q97 -83 258 -85 l0 0 ZM417 1438 q22 14 48 22 q26 7 52 7 q46 -1 74 -24 q28 -23 29 -63 q0 -37 -22 -63 q-22 -27 -61 -43 l35 -44 q50 22 81 62 q31 41 32 92 q-1 63 -43 101 q-42 38 -113 39 q-33 0 -62 -8 q-28 -7 -50 -20 l0 -58 Z" /><glyph glyph-name="" unicode="&#x201;" d="M453 55 q-128 2 -207 66 q-80 64 -82 169 q1 108 81 170 q81 61 236 73 l359 27 l0 -161 q-4 -147 -113 -244 q-109 -96 -274 -100 l0 0 ZM443 -14 q140 2 247 68 q108 67 150 178 l2 0 l0 -232 l75 0 l0 726 q-2 170 -103 267 q-102 96 -281 98 q-173 -2 -281 -89 q-108 -87 -125 -238 l75 0 q21 123 106 189 q86 66 224 67 q147 -1 227 -79 q80 -78 81 -220 l0 -96 l-369 -27 q-190 -14 -287 -92 q-98 -78 -98 -216 q3 -137 99 -219 q97 -83 258 -85 l0 0 ZM447 1253 l-227 303 l-92 0 l247 -303 l72 0 ZM691 1253 l-227 303 l-92 0 l247 -303 l72 0 Z" /><glyph glyph-name="" unicode="&#x101;" d="M453 55 q-128 2 -207 66 q-80 64 -82 169 q1 108 81 170 q81 61 236 73 l359 27 l0 -161 q-4 -147 -113 -244 q-109 -96 -274 -100 l0 0 ZM443 -14 q140 2 247 68 q108 67 150 178 l2 0 l0 -232 l75 0 l0 726 q-2 170 -103 267 q-102 96 -281 98 q-173 -2 -281 -89 q-108 -87 -125 -238 l75 0 q21 123 106 189 q86 66 224 67 q147 -1 227 -79 q80 -78 81 -220 l0 -96 l-369 -27 q-190 -14 -287 -92 q-98 -78 -98 -216 q3 -137 99 -219 q97 -83 258 -85 l0 0 ZM825 1366 l-596 0 l0 -58 l596 0 l0 58 Z" /><glyph glyph-name="" unicode="&#x105;" d="M453 55 q-128 2 -207 66 q-80 64 -82 169 q1 108 81 170 q81 61 236 73 l359 27 l0 -161 q-4 -147 -113 -244 q-109 -96 -274 -100 l0 0 ZM915 -384 l0 64 q-9 -3 -28 -5 q-19 -2 -41 -2 q-62 1 -99 34 q-38 33 -39 87 q0 61 51 110 q50 50 150 92 l8 4 l0 726 q-2 170 -103 267 q-102 96 -281 98 q-173 -2 -281 -89 q-108 -87 -125 -238 l75 0 q21 123 106 189 q86 66 224 67 q147 -1 227 -79 q80 -78 81 -220 l0 -96 l-369 -27 q-190 -14 -287 -92 q-98 -78 -98 -216 q3 -137 99 -219 q97 -83 258 -85 q140 2 247 68 q108 67 150 178 l2 0 l0 -216 q-100 -40 -155 -100 q-55 -59 -56 -134 q2 -79 58 -127 q56 -49 147 -50 q23 0 44 3 q21 3 35 8 l0 0 Z" /><glyph glyph-name="" unicode="b" d="M611 -14 q204 4 327 153 q123 150 126 400 q-3 250 -126 399 q-123 149 -327 153 q-147 -2 -253 -81 q-106 -80 -148 -217 l-3 0 l0 713 l-78 0 l0 -1506 l75 0 l0 288 l3 0 q44 -141 151 -221 q108 -80 253 -81 l0 0 ZM600 1020 q174 -3 278 -133 q104 -130 107 -348 q-3 -219 -107 -349 q-104 -131 -279 -134 q-175 4 -282 135 q-107 131 -110 347 q3 215 110 347 q107 131 283 135 l0 0 Z" /><glyph glyph-name="" unicode="&#x1e07;" d="M890 -205 l-580 0 l0 -57 l580 0 l0 57 ZM611 -14 q204 4 327 153 q123 150 126 400 q-3 250 -126 399 q-123 149 -327 153 q-147 -2 -253 -81 q-106 -80 -148 -217 l-3 0 l0 713 l-78 0 l0 -1506 l75 0 l0 288 l3 0 q44 -141 151 -221 q108 -80 253 -81 l0 0 ZM600 1020 q174 -3 278 -133 q104 -130 107 -348 q-3 -219 -107 -349 q-104 -131 -279 -134 q-175 4 -282 135 q-107 131 -110 347 q3 215 110 347 q107 131 283 135 l0 0 Z" /><glyph glyph-name="" unicode="&#x1e05;" d="M600 -295 q32 1 54 22 q22 22 23 54 q-1 32 -23 54 q-22 21 -54 22 q-32 -1 -54 -22 q-22 -22 -23 -54 q1 -32 23 -54 q22 -21 54 -22 l0 0 ZM611 -14 q204 4 327 153 q123 150 126 400 q-3 250 -126 399 q-123 149 -327 153 q-147 -2 -253 -81 q-106 -80 -148 -217 l-3 0 l0 713 l-78 0 l0 -1506 l75 0 l0 288 l3 0 q44 -141 151 -221 q108 -80 253 -81 l0 0 ZM600 1020 q174 -3 278 -133 q104 -130 107 -348 q-3 -219 -107 -349 q-104 -131 -279 -134 q-175 4 -282 135 q-107 131 -110 347 q3 215 110 347 q107 131 283 135 l0 0 Z" /><glyph glyph-name="" unicode="&#x1e03;" d="M168 1626 q32 1 54 22 q22 22 23 54 q-1 32 -23 54 q-22 21 -54 22 q-32 -1 -54 -22 q-22 -22 -23 -54 q1 -32 23 -54 q22 -21 54 -22 l0 0 ZM611 -14 q204 4 327 153 q123 150 126 400 q-3 250 -126 399 q-123 149 -327 153 q-147 -2 -253 -81 q-106 -80 -148 -217 l-3 0 l0 713 l-78 0 l0 -1506 l75 0 l0 288 l3 0 q44 -141 151 -221 q108 -80 253 -81 l0 0 ZM600 1020 q174 -3 278 -133 q104 -130 107 -348 q-3 -219 -107 -349 q-104 -131 -279 -134 q-175 4 -282 135 q-107 131 -110 347 q3 215 110 347 q107 131 283 135 l0 0 Z" /><glyph glyph-name="" unicode="c" d="M969 753 q-26 146 -140 240 q-115 95 -290 98 q-219 -3 -345 -150 q-126 -147 -129 -403 q3 -257 129 -403 q127 -146 346 -149 q173 2 288 92 q114 89 141 237 l-78 0 q-26 -118 -118 -188 q-93 -69 -233 -71 q-184 2 -290 130 q-105 128 -107 352 q2 223 107 351 q105 128 289 131 q142 -2 235 -76 q93 -73 118 -191 l77 0 Z" /><glyph glyph-name="" unicode="&#x107;" d="M969 753 q-26 146 -140 240 q-115 95 -290 98 q-219 -3 -345 -150 q-126 -147 -129 -403 q3 -257 129 -403 q127 -146 346 -149 q173 2 288 92 q114 89 141 237 l-78 0 q-26 -118 -118 -188 q-93 -69 -233 -71 q-184 2 -290 130 q-105 128 -107 352 q2 223 107 351 q105 128 289 131 q142 -2 235 -76 q93 -73 118 -191 l77 0 ZM559 1253 l249 303 l-93 0 l-230 -303 l74 0 Z" /><glyph glyph-name="" unicode="&#x10d;" d="M570 1253 l268 303 l-80 0 l-217 -249 l-3 0 l-217 249 l-81 0 l268 -303 l62 0 ZM969 753 q-26 146 -140 240 q-115 95 -290 98 q-219 -3 -345 -150 q-126 -147 -129 -403 q3 -257 129 -403 q127 -146 346 -149 q173 2 288 92 q114 89 141 237 l-78 0 q-26 -118 -118 -188 q-93 -69 -233 -71 q-184 2 -290 130 q-105 128 -107 352 q2 223 107 351 q105 128 289 131 q142 -2 235 -76 q93 -73 118 -191 l77 0 Z" /><glyph glyph-name="" unicode="&#x109;" d="M570 1556 l-62 0 l-268 -303 l81 0 l217 249 l3 0 l217 -249 l80 0 l-268 303 ZM969 753 q-26 146 -140 240 q-115 95 -290 98 q-219 -3 -345 -150 q-126 -147 -129 -403 q3 -257 129 -403 q127 -146 346 -149 q173 2 288 92 q114 89 141 237 l-78 0 q-26 -118 -118 -188 q-93 -69 -233 -71 q-184 2 -290 130 q-105 128 -107 352 q2 223 107 351 q105 128 289 131 q142 -2 235 -76 q93 -73 118 -191 l77 0 Z" /><glyph glyph-name="" unicode="&#x10b;" d="M969 753 q-26 146 -140 240 q-115 95 -290 98 q-219 -3 -345 -150 q-126 -147 -129 -403 q3 -257 129 -403 q127 -146 346 -149 q173 2 288 92 q114 89 141 237 l-78 0 q-26 -118 -118 -188 q-93 -69 -233 -71 q-184 2 -290 130 q-105 128 -107 352 q2 223 107 351 q105 128 289 131 q142 -2 235 -76 q93 -73 118 -191 l77 0 ZM539 1256 q32 1 55 23 q22 22 23 54 q-1 32 -23 54 q-23 22 -55 23 q-32 -1 -55 -23 q-22 -22 -23 -54 q1 -32 23 -54 q23 -22 55 -23 l0 0 Z" /><glyph glyph-name="" unicode="ç" d="M969 753 q-26 146 -140 240 q-115 95 -290 98 q-219 -3 -345 -150 q-126 -147 -129 -403 q2 -246 119 -391 q117 -146 322 -160 l-56 -137 l0 -43 l49 0 q78 0 119 -26 q41 -26 41 -76 q-1 -50 -45 -81 q-44 -31 -114 -32 q-35 0 -67 4 q-33 5 -55 13 l0 -56 q25 -8 59 -12 q34 -5 69 -4 q98 1 157 48 q58 46 60 122 q-1 73 -54 112 q-53 40 -153 40 l53 128 q162 10 268 98 q106 88 132 230 l-78 0 q-26 -118 -118 -188 q-93 -69 -233 -71 q-184 2 -290 130 q-105 128 -107 352 q2 223 107 351 q105 128 289 131 q142 -2 235 -76 q93 -73 118 -191 l77 0 Z" /><glyph glyph-name="" unicode="&#x1e09;" d="M808 1556 l-93 0 l-230 -303 l74 0 l249 303 ZM969 753 q-26 146 -140 240 q-115 95 -290 98 q-219 -3 -345 -150 q-126 -147 -129 -403 q2 -246 119 -391 q117 -146 322 -160 l-56 -137 l0 -43 l49 0 q78 0 119 -26 q41 -26 41 -76 q-1 -50 -45 -81 q-44 -31 -114 -32 q-35 0 -67 4 q-33 5 -55 13 l0 -56 q25 -8 59 -12 q34 -5 69 -4 q98 1 157 48 q58 46 60 122 q-1 73 -54 112 q-53 40 -153 40 l53 128 q162 10 268 98 q106 88 132 230 l-78 0 q-26 -118 -118 -188 q-93 -69 -233 -71 q-184 2 -290 130 q-105 128 -107 352 q2 223 107 351 q105 128 289 131 q142 -2 235 -76 q93 -73 118 -191 l77 0 Z" /><glyph glyph-name="" unicode="d" d="M525 -14 q152 3 259 87 q108 84 147 217 l3 0 l0 -290 l73 0 l0 1506 l-78 0 l0 -713 l-2 0 q-38 129 -145 212 q-107 83 -258 86 q-205 -4 -330 -153 q-126 -150 -129 -400 q4 -250 129 -399 q126 -149 331 -153 l0 0 ZM534 1020 q176 -3 285 -134 q108 -131 111 -348 q-3 -216 -111 -347 q-109 -131 -285 -135 q-175 3 -281 134 q-106 130 -109 349 q3 218 109 348 q106 130 281 133 l0 0 Z" /><glyph glyph-name="" unicode="&#x1e0b;" d="M968 1626 q32 1 54 22 q22 22 23 54 q-1 32 -23 54 q-22 21 -54 22 q-32 -1 -54 -22 q-22 -22 -23 -54 q1 -32 23 -54 q22 -21 54 -22 l0 0 ZM525 -14 q152 3 259 87 q108 84 147 217 l3 0 l0 -290 l73 0 l0 1506 l-78 0 l0 -713 l-2 0 q-38 129 -145 212 q-107 83 -258 86 q-205 -4 -330 -153 q-126 -150 -129 -400 q4 -250 129 -399 q126 -149 331 -153 l0 0 ZM534 1020 q176 -3 285 -134 q108 -131 111 -348 q-3 -216 -111 -347 q-109 -131 -285 -135 q-175 3 -281 134 q-106 130 -109 349 q3 218 109 348 q106 130 281 133 l0 0 Z" /><glyph glyph-name="" unicode="&#x1e13;" d="M525 -14 q152 3 259 87 q108 84 147 217 l3 0 l0 -290 l73 0 l0 1506 l-78 0 l0 -713 l-2 0 q-38 129 -145 212 q-107 83 -258 86 q-205 -4 -330 -153 q-126 -150 -129 -400 q4 -250 129 -399 q126 -149 331 -153 l0 0 ZM534 1020 q176 -3 285 -134 q108 -131 111 -348 q-3 -216 -111 -347 q-109 -131 -285 -135 q-175 3 -281 134 q-106 130 -109 349 q3 218 109 348 q106 130 281 133 l0 0 ZM512 -147 l-271 -290 l83 0 l221 238 l2 0 l221 -238 l83 0 l-271 290 l-68 0 Z" /><glyph glyph-name="" unicode="&#x1e11;" d="M489 -493 l114 344 l-78 0 l-99 -344 l63 0 ZM525 -14 q152 3 259 87 q108 84 147 217 l3 0 l0 -290 l73 0 l0 1506 l-78 0 l0 -713 l-2 0 q-38 129 -145 212 q-107 83 -258 86 q-205 -4 -330 -153 q-126 -150 -129 -400 q4 -250 129 -399 q126 -149 331 -153 l0 0 ZM534 1020 q176 -3 285 -134 q108 -131 111 -348 q-3 -216 -111 -347 q-109 -131 -285 -135 q-175 3 -281 134 q-106 130 -109 349 q3 218 109 348 q106 130 281 133 l0 0 Z" /><glyph glyph-name="" unicode="&#x1e0f;" d="M836 -205 l-580 0 l0 -57 l580 0 l0 57 ZM525 -14 q152 3 259 87 q108 84 147 217 l3 0 l0 -290 l73 0 l0 1506 l-78 0 l0 -713 l-2 0 q-38 129 -145 212 q-107 83 -258 86 q-205 -4 -330 -153 q-126 -150 -129 -400 q4 -250 129 -399 q126 -149 331 -153 l0 0 ZM534 1020 q176 -3 285 -134 q108 -131 111 -348 q-3 -216 -111 -347 q-109 -131 -285 -135 q-175 3 -281 134 q-106 130 -109 349 q3 218 109 348 q106 130 281 133 l0 0 Z" /><glyph glyph-name="" unicode="&#x10f;" d="M1193 1483 l0 -385 l53 0 l15 385 l-68 0 ZM525 -14 q152 3 259 87 q108 84 147 217 l3 0 l0 -290 l73 0 l0 1506 l-78 0 l0 -713 l-2 0 q-38 129 -145 212 q-107 83 -258 86 q-205 -4 -330 -153 q-126 -150 -129 -400 q4 -250 129 -399 q126 -149 331 -153 l0 0 ZM534 1020 q176 -3 285 -134 q108 -131 111 -348 q-3 -216 -111 -347 q-109 -131 -285 -135 q-175 3 -281 134 q-106 130 -109 349 q3 218 109 348 q106 130 281 133 l0 0 Z" /><glyph glyph-name="" unicode="&#x1e0d;" d="M546 -295 q32 1 54 22 q22 22 23 54 q-1 32 -23 54 q-22 21 -54 22 q-32 -1 -54 -22 q-22 -22 -23 -54 q1 -32 23 -54 q22 -21 54 -22 l0 0 ZM525 -14 q152 3 259 87 q108 84 147 217 l3 0 l0 -290 l73 0 l0 1506 l-78 0 l0 -713 l-2 0 q-38 129 -145 212 q-107 83 -258 86 q-205 -4 -330 -153 q-126 -150 -129 -400 q4 -250 129 -399 q126 -149 331 -153 l0 0 ZM534 1020 q176 -3 285 -134 q108 -131 111 -348 q-3 -216 -111 -347 q-109 -131 -285 -135 q-175 3 -281 134 q-106 130 -109 349 q3 218 109 348 q106 130 281 133 l0 0 Z" /><glyph glyph-name="" unicode="&#x111;" d="M534 56 q-175 3 -281 134 q-106 130 -109 349 q3 218 109 348 q106 130 281 133 q176 -3 285 -134 q108 -131 111 -348 q-3 -216 -111 -347 q-109 -131 -285 -135 l0 0 ZM1145 1340 l-138 0 l0 166 l-78 0 l0 -166 l-278 0 l0 -62 l278 0 l0 -485 l-2 0 q-38 129 -145 212 q-107 83 -258 86 q-205 -4 -330 -153 q-126 -150 -129 -400 q4 -250 129 -399 q126 -149 331 -153 q152 3 259 87 q108 84 147 217 l3 0 l0 -290 l73 0 l0 1278 l138 0 l0 62 Z" /><glyph glyph-name="" unicode="e" d="M536 1021 q173 -3 276 -119 q103 -116 106 -310 l-773 0 q11 195 116 311 q105 115 275 118 l0 0 ZM905 301 q-24 -108 -117 -175 q-93 -68 -242 -70 q-184 2 -292 123 q-108 121 -110 343 l0 4 l853 0 l0 45 q-3 238 -126 377 q-123 140 -334 143 q-216 -3 -342 -152 q-127 -148 -130 -402 q3 -261 131 -405 q127 -144 349 -146 q180 3 296 89 q115 87 143 226 l-79 0 Z" /><glyph glyph-name="" unicode="è" d="M588 1253 l-230 303 l-93 0 l249 -303 l74 0 ZM536 1021 q173 -3 276 -119 q103 -116 106 -310 l-773 0 q11 195 116 311 q105 115 275 118 l0 0 ZM905 301 q-24 -108 -117 -175 q-93 -68 -242 -70 q-184 2 -292 123 q-108 121 -110 343 l0 4 l853 0 l0 45 q-3 238 -126 377 q-123 140 -334 143 q-216 -3 -342 -152 q-127 -148 -130 -402 q3 -261 131 -405 q127 -144 349 -146 q180 3 296 89 q115 87 143 226 l-79 0 Z" /><glyph glyph-name="" unicode="&#x205;" d="M536 1021 q173 -3 276 -119 q103 -116 106 -310 l-773 0 q11 195 116 311 q105 115 275 118 l0 0 ZM905 301 q-24 -108 -117 -175 q-93 -68 -242 -70 q-184 2 -292 123 q-108 121 -110 343 l0 4 l853 0 l0 45 q-3 238 -126 377 q-123 140 -334 143 q-216 -3 -342 -152 q-127 -148 -130 -402 q3 -261 131 -405 q127 -144 349 -146 q180 3 296 89 q115 87 143 226 l-79 0 ZM452 1253 l-227 303 l-92 0 l247 -303 l72 0 ZM696 1253 l-227 303 l-92 0 l247 -303 l72 0 Z" /><glyph glyph-name="" unicode="é" d="M557 1253 l249 303 l-93 0 l-230 -303 l74 0 ZM536 1021 q173 -3 276 -119 q103 -116 106 -310 l-773 0 q11 195 116 311 q105 115 275 118 l0 0 ZM905 301 q-24 -108 -117 -175 q-93 -68 -242 -70 q-184 2 -292 123 q-108 121 -110 343 l0 4 l853 0 l0 45 q-3 238 -126 377 q-123 140 -334 143 q-216 -3 -342 -152 q-127 -148 -130 -402 q3 -261 131 -405 q127 -144 349 -146 q180 3 296 89 q115 87 143 226 l-79 0 Z" /><glyph glyph-name="" unicode="ê" d="M568 1556 l-62 0 l-268 -303 l81 0 l217 249 l3 0 l217 -249 l80 0 l-268 303 ZM536 1021 q173 -3 276 -119 q103 -116 106 -310 l-773 0 q11 195 116 311 q105 115 275 118 l0 0 ZM905 301 q-24 -108 -117 -175 q-93 -68 -242 -70 q-184 2 -292 123 q-108 121 -110 343 l0 4 l853 0 l0 45 q-3 238 -126 377 q-123 140 -334 143 q-216 -3 -342 -152 q-127 -148 -130 -402 q3 -261 131 -405 q127 -144 349 -146 q180 3 296 89 q115 87 143 226 l-79 0 Z" /><glyph glyph-name="" unicode="&#x1ec3;" d="M636 1710 q19 11 47 19 q28 7 59 7 q46 -1 73 -23 q27 -23 28 -62 q0 -33 -22 -60 q-21 -28 -59 -45 l37 -40 q51 22 79 61 q27 39 27 88 q-1 62 -43 99 q-42 37 -114 38 q-34 0 -65 -9 q-30 -8 -47 -18 l0 -55 ZM574 1537 l-74 0 l-264 -284 l80 0 l219 237 l4 0 l219 -237 l80 0 l-264 284 ZM536 1021 q173 -3 276 -119 q103 -116 106 -310 l-773 0 q11 195 116 311 q105 115 275 118 l0 0 ZM905 301 q-24 -108 -117 -175 q-93 -68 -242 -70 q-184 2 -292 123 q-108 121 -110 343 l0 4 l853 0 l0 45 q-3 238 -126 377 q-123 140 -334 143 q-216 -3 -342 -152 q-127 -148 -130 -402 q3 -261 131 -405 q127 -144 349 -146 q180 3 296 89 q115 87 143 226 l-79 0 Z" /><glyph glyph-name="" unicode="&#x1ec1;" d="M574 1537 l-74 0 l-264 -284 l80 0 l219 237 l4 0 l219 -237 l80 0 l-264 284 ZM910 1518 l-226 296 l-88 0 l244 -296 l70 0 ZM536 1021 q173 -3 276 -119 q103 -116 106 -310 l-773 0 q11 195 116 311 q105 115 275 118 l0 0 ZM905 301 q-24 -108 -117 -175 q-93 -68 -242 -70 q-184 2 -292 123 q-108 121 -110 343 l0 4 l853 0 l0 45 q-3 238 -126 377 q-123 140 -334 143 q-216 -3 -342 -152 q-127 -148 -130 -402 q3 -261 131 -405 q127 -144 349 -146 q180 3 296 89 q115 87 143 226 l-79 0 Z" /><glyph glyph-name="" unicode="&#x1ec5;" d="M536 1021 q173 -3 276 -119 q103 -116 106 -310 l-773 0 q11 195 116 311 q105 115 275 118 l0 0 ZM905 301 q-24 -108 -117 -175 q-93 -68 -242 -70 q-184 2 -292 123 q-108 121 -110 343 l0 4 l853 0 l0 45 q-3 238 -126 377 q-123 140 -334 143 q-216 -3 -342 -152 q-127 -148 -130 -402 q3 -261 131 -405 q127 -144 349 -146 q180 3 296 89 q115 87 143 226 l-79 0 ZM574 1537 l-74 0 l-264 -284 l80 0 l219 237 l4 0 l219 -237 l80 0 l-264 284 ZM658 1609 q70 1 108 54 q38 52 38 137 l-60 0 q0 -60 -21 -96 q-21 -35 -65 -36 q-63 9 -107 75 q-45 66 -134 75 q-72 -1 -109 -53 q-38 -52 -38 -138 l60 0 q0 59 22 95 q21 36 66 37 q64 -9 108 -75 q44 -66 132 -75 l0 0 Z" /><glyph glyph-name="" unicode="&#x1ec7;" d="M568 1556 l-62 0 l-268 -303 l81 0 l217 249 l3 0 l217 -249 l80 0 l-268 303 ZM536 1021 q173 -3 276 -119 q103 -116 106 -310 l-773 0 q11 195 116 311 q105 115 275 118 l0 0 ZM905 301 q-24 -108 -117 -175 q-93 -68 -242 -70 q-184 2 -292 123 q-108 121 -110 343 l0 4 l853 0 l0 45 q-3 238 -126 377 q-123 140 -334 143 q-216 -3 -342 -152 q-127 -148 -130 -402 q3 -261 131 -405 q127 -144 349 -146 q180 3 296 89 q115 87 143 226 l-79 0 ZM545 -295 q32 1 54 22 q22 22 23 54 q-1 32 -23 54 q-22 21 -54 22 q-32 -1 -54 -22 q-22 -22 -23 -54 q1 -32 23 -54 q22 -21 54 -22 l0 0 Z" /><glyph glyph-name="" unicode="&#x1ebf;" d="M574 1537 l-74 0 l-264 -284 l80 0 l219 237 l4 0 l219 -237 l80 0 l-264 284 ZM737 1518 l69 0 l244 296 l-87 0 l-226 -296 ZM536 1021 q173 -3 276 -119 q103 -116 106 -310 l-773 0 q11 195 116 311 q105 115 275 118 l0 0 ZM905 301 q-24 -108 -117 -175 q-93 -68 -242 -70 q-184 2 -292 123 q-108 121 -110 343 l0 4 l853 0 l0 45 q-3 238 -126 377 q-123 140 -334 143 q-216 -3 -342 -152 q-127 -148 -130 -402 q3 -261 131 -405 q127 -144 349 -146 q180 3 296 89 q115 87 143 226 l-79 0 Z" /><glyph glyph-name="" unicode="ë" d="M536 1021 q173 -3 276 -119 q103 -116 106 -310 l-773 0 q11 195 116 311 q105 115 275 118 l0 0 ZM905 301 q-24 -108 -117 -175 q-93 -68 -242 -70 q-184 2 -292 123 q-108 121 -110 343 l0 4 l853 0 l0 45 q-3 238 -126 377 q-123 140 -334 143 q-216 -3 -342 -152 q-127 -148 -130 -402 q3 -261 131 -405 q127 -144 349 -146 q180 3 296 89 q115 87 143 226 l-79 0 ZM385 1256 q28 1 47 20 q19 19 20 47 q-1 28 -20 47 q-19 18 -47 19 q-29 -1 -48 -19 q-19 -19 -20 -47 q1 -28 20 -47 q19 -19 48 -20 l0 0 ZM689 1256 q29 1 48 20 q19 19 20 47 q-1 28 -20 47 q-19 18 -48 19 q-28 -1 -47 -19 q-19 -19 -20 -47 q1 -28 20 -47 q19 -19 47 -20 l0 0 Z" /><glyph glyph-name="" unicode="&#x1eb9;" d="M545 -295 q32 1 54 22 q22 22 23 54 q-1 32 -23 54 q-22 21 -54 22 q-32 -1 -54 -22 q-22 -22 -23 -54 q1 -32 23 -54 q22 -21 54 -22 l0 0 ZM536 1021 q173 -3 276 -119 q103 -116 106 -310 l-773 0 q11 195 116 311 q105 115 275 118 l0 0 ZM905 301 q-24 -108 -117 -175 q-93 -68 -242 -70 q-184 2 -292 123 q-108 121 -110 343 l0 4 l853 0 l0 45 q-3 238 -126 377 q-123 140 -334 143 q-216 -3 -342 -152 q-127 -148 -130 -402 q3 -261 131 -405 q127 -144 349 -146 q180 3 296 89 q115 87 143 226 l-79 0 Z" /><glyph glyph-name="" unicode="&#x207;" d="M536 1021 q173 -3 276 -119 q103 -116 106 -310 l-773 0 q11 195 116 311 q105 115 275 118 l0 0 ZM905 301 q-24 -108 -117 -175 q-93 -68 -242 -70 q-184 2 -292 123 q-108 121 -110 343 l0 4 l853 0 l0 45 q-3 238 -126 377 q-123 140 -334 143 q-216 -3 -342 -152 q-127 -148 -130 -402 q3 -261 131 -405 q127 -144 349 -146 q180 3 296 89 q115 87 143 226 l-79 0 ZM265 1253 l62 0 q1 89 58 142 q57 53 152 54 q95 -1 152 -54 q57 -53 58 -142 l62 0 q-2 120 -77 186 q-74 66 -195 67 q-121 -1 -195 -67 q-75 -66 -77 -186 l0 0 Z" /><glyph glyph-name="" unicode="&#x1ebb;" d="M536 1021 q173 -3 276 -119 q103 -116 106 -310 l-773 0 q11 195 116 311 q105 115 275 118 l0 0 ZM905 301 q-24 -108 -117 -175 q-93 -68 -242 -70 q-184 2 -292 123 q-108 121 -110 343 l0 4 l853 0 l0 45 q-3 238 -126 377 q-123 140 -334 143 q-216 -3 -342 -152 q-127 -148 -130 -402 q3 -261 131 -405 q127 -144 349 -146 q180 3 296 89 q115 87 143 226 l-79 0 ZM422 1438 q22 14 48 22 q26 7 52 7 q46 -1 74 -24 q28 -23 29 -63 q0 -37 -22 -63 q-22 -27 -61 -43 l35 -44 q50 22 81 62 q31 41 32 92 q-1 63 -43 101 q-42 38 -113 39 q-33 0 -62 -8 q-28 -7 -50 -20 l0 -58 Z" /><glyph glyph-name="" unicode="&#x11b;" d="M568 1253 l268 303 l-80 0 l-217 -249 l-3 0 l-217 249 l-81 0 l268 -303 l62 0 ZM536 1021 q173 -3 276 -119 q103 -116 106 -310 l-773 0 q11 195 116 311 q105 115 275 118 l0 0 ZM905 301 q-24 -108 -117 -175 q-93 -68 -242 -70 q-184 2 -292 123 q-108 121 -110 343 l0 4 l853 0 l0 45 q-3 238 -126 377 q-123 140 -334 143 q-216 -3 -342 -152 q-127 -148 -130 -402 q3 -261 131 -405 q127 -144 349 -146 q180 3 296 89 q115 87 143 226 l-79 0 Z" /><glyph glyph-name="" unicode="&#x113;" d="M536 1021 q173 -3 276 -119 q103 -116 106 -310 l-773 0 q11 195 116 311 q105 115 275 118 l0 0 ZM905 301 q-24 -108 -117 -175 q-93 -68 -242 -70 q-184 2 -292 123 q-108 121 -110 343 l0 4 l853 0 l0 45 q-3 238 -126 377 q-123 140 -334 143 q-216 -3 -342 -152 q-127 -148 -130 -402 q3 -261 131 -405 q127 -144 349 -146 q180 3 296 89 q115 87 143 226 l-79 0 ZM830 1366 l-596 0 l0 -58 l596 0 l0 58 Z" /><glyph glyph-name="" unicode="&#x1e15;" d="M536 1021 q173 -3 276 -119 q103 -116 106 -310 l-773 0 q11 195 116 311 q105 115 275 118 l0 0 ZM905 301 q-24 -108 -117 -175 q-93 -68 -242 -70 q-184 2 -292 123 q-108 121 -110 343 l0 4 l853 0 l0 45 q-3 238 -126 377 q-123 140 -334 143 q-216 -3 -342 -152 q-127 -148 -130 -402 q3 -261 131 -405 q127 -144 349 -146 q180 3 296 89 q115 87 143 226 l-79 0 ZM594 1526 l-229 295 l-89 0 l244 -295 l74 0 ZM830 1366 l-596 0 l0 -58 l596 0 l0 58 Z" /><glyph glyph-name="" unicode="&#x1e17;" d="M536 1021 q173 -3 276 -119 q103 -116 106 -310 l-773 0 q11 195 116 311 q105 115 275 118 l0 0 ZM905 301 q-24 -108 -117 -175 q-93 -68 -242 -70 q-184 2 -292 123 q-108 121 -110 343 l0 4 l853 0 l0 45 q-3 238 -126 377 q-123 140 -334 143 q-216 -3 -342 -152 q-127 -148 -130 -402 q3 -261 131 -405 q127 -144 349 -146 q180 3 296 89 q115 87 143 226 l-79 0 ZM480 1526 l74 0 l244 295 l-89 0 l-229 -295 ZM830 1366 l-596 0 l0 -58 l596 0 l0 58 Z" /><glyph glyph-name="" unicode="&#x1ebd;" d="M536 1021 q173 -3 276 -119 q103 -116 106 -310 l-773 0 q11 195 116 311 q105 115 275 118 l0 0 ZM905 301 q-24 -108 -117 -175 q-93 -68 -242 -70 q-184 2 -292 123 q-108 121 -110 343 l0 4 l853 0 l0 45 q-3 238 -126 377 q-123 140 -334 143 q-216 -3 -342 -152 q-127 -148 -130 -402 q3 -261 131 -405 q127 -144 349 -146 q180 3 296 89 q115 87 143 226 l-79 0 ZM673 1255 q74 2 112 59 q38 58 38 154 l-61 0 q0 -70 -21 -111 q-21 -42 -68 -43 q-68 10 -121 82 q-54 72 -148 82 q-75 -1 -112 -58 q-38 -57 -38 -154 l60 0 q0 69 22 111 q21 41 69 42 q70 -10 122 -82 q53 -72 146 -82 l0 0 Z" /><glyph glyph-name="" unicode="&#x1e19;" d="M536 1021 q173 -3 276 -119 q103 -116 106 -310 l-773 0 q11 195 116 311 q105 115 275 118 l0 0 ZM905 301 q-24 -108 -117 -175 q-93 -68 -242 -70 q-184 2 -292 123 q-108 121 -110 343 l0 4 l853 0 l0 45 q-3 238 -126 377 q-123 140 -334 143 q-216 -3 -342 -152 q-127 -148 -130 -402 q3 -261 131 -405 q127 -144 349 -146 q180 3 296 89 q115 87 143 226 l-79 0 ZM511 -147 l-271 -290 l83 0 l221 238 l2 0 l221 -238 l83 0 l-271 290 l-68 0 Z" /><glyph glyph-name="" unicode="&#x115;" d="M536 1021 q173 -3 276 -119 q103 -116 106 -310 l-773 0 q11 195 116 311 q105 115 275 118 l0 0 ZM905 301 q-24 -108 -117 -175 q-93 -68 -242 -70 q-184 2 -292 123 q-108 121 -110 343 l0 4 l853 0 l0 45 q-3 238 -126 377 q-123 140 -334 143 q-216 -3 -342 -152 q-127 -148 -130 -402 q3 -261 131 -405 q127 -144 349 -146 q180 3 296 89 q115 87 143 226 l-79 0 ZM265 1503 q2 -120 77 -186 q74 -66 195 -67 q121 1 195 67 q75 66 77 186 l-62 0 q-1 -89 -58 -142 q-57 -53 -152 -54 q-95 1 -152 54 q-57 53 -58 142 l-62 0 Z" /><glyph glyph-name="" unicode="&#x1e1b;" d="M680 -366 q74 2 112 59 q38 58 38 154 l-61 0 q0 -70 -21 -111 q-21 -42 -68 -43 q-68 10 -121 82 q-54 72 -148 82 q-75 -1 -112 -58 q-38 -57 -38 -154 l60 0 q0 69 22 111 q21 41 69 42 q70 -10 122 -82 q53 -72 146 -82 l0 0 ZM536 1021 q173 -3 276 -119 q103 -116 106 -310 l-773 0 q11 195 116 311 q105 115 275 118 l0 0 ZM905 301 q-24 -108 -117 -175 q-93 -68 -242 -70 q-184 2 -292 123 q-108 121 -110 343 l0 4 l853 0 l0 45 q-3 238 -126 377 q-123 140 -334 143 q-216 -3 -342 -152 q-127 -148 -130 -402 q3 -261 131 -405 q127 -144 349 -146 q180 3 296 89 q115 87 143 226 l-79 0 Z" /><glyph glyph-name="" unicode="&#x117;" d="M537 1256 q32 1 55 23 q22 22 23 54 q-1 32 -23 54 q-23 22 -55 23 q-32 -1 -55 -23 q-22 -22 -23 -54 q1 -32 23 -54 q23 -22 55 -23 l0 0 ZM536 1021 q173 -3 276 -119 q103 -116 106 -310 l-773 0 q11 195 116 311 q105 115 275 118 l0 0 ZM905 301 q-24 -108 -117 -175 q-93 -68 -242 -70 q-184 2 -292 123 q-108 121 -110 343 l0 4 l853 0 l0 45 q-3 238 -126 377 q-123 140 -334 143 q-216 -3 -342 -152 q-127 -148 -130 -402 q3 -261 131 -405 q127 -144 349 -146 q180 3 296 89 q115 87 143 226 l-79 0 Z" /><glyph glyph-name="" unicode="&#x229;" d="M145 592 q11 195 116 311 q105 115 275 118 q173 -3 276 -119 q103 -116 106 -310 l-773 0 ZM997 526 l0 45 q-3 238 -126 377 q-123 140 -334 143 q-216 -3 -342 -152 q-127 -148 -130 -402 q2 -251 121 -394 q118 -143 325 -156 l-56 -137 l0 -43 l49 0 q78 0 119 -26 q41 -26 41 -76 q-1 -50 -45 -81 q-44 -31 -114 -32 q-35 0 -67 4 q-33 5 -55 13 l0 -56 q25 -8 59 -12 q34 -5 69 -4 q98 1 157 48 q58 46 60 122 q-1 73 -54 112 q-53 40 -153 40 l53 128 q168 10 276 95 q107 85 134 219 l-79 0 q-24 -108 -117 -175 q-93 -68 -242 -70 q-184 2 -292 123 q-108 121 -110 343 l0 4 l853 0 Z" /><glyph glyph-name="" unicode="&#x1e1d;" d="M747 1503 q-1 -89 -58 -142 q-57 -53 -152 -54 q-95 1 -152 54 q-57 53 -58 142 l-62 0 q2 -120 77 -186 q74 -66 195 -67 q121 1 195 67 q75 66 77 186 l-62 0 ZM145 592 q11 195 116 311 q105 115 275 118 q173 -3 276 -119 q103 -116 106 -310 l-773 0 ZM997 526 l0 45 q-3 238 -126 377 q-123 140 -334 143 q-216 -3 -342 -152 q-127 -148 -130 -402 q2 -251 121 -394 q118 -143 325 -156 l-56 -137 l0 -43 l49 0 q78 0 119 -26 q41 -26 41 -76 q-1 -50 -45 -81 q-44 -31 -114 -32 q-35 0 -67 4 q-33 5 -55 13 l0 -56 q25 -8 59 -12 q34 -5 69 -4 q98 1 157 48 q58 46 60 122 q-1 73 -54 112 q-53 40 -153 40 l53 128 q168 10 276 95 q107 85 134 219 l-79 0 q-24 -108 -117 -175 q-93 -68 -242 -70 q-184 2 -292 123 q-108 121 -110 343 l0 4 l853 0 Z" /><glyph glyph-name="" unicode="&#x119;" d="M726 -395 q23 0 44 3 q21 3 36 8 l0 64 q-10 -3 -28 -5 q-19 -2 -41 -2 q-62 1 -100 34 q-38 33 -39 87 q-1 62 46 121 q46 59 147 121 q79 51 128 119 q50 68 65 146 l-79 0 q-24 -108 -117 -175 q-93 -68 -242 -70 q-184 2 -292 123 q-108 121 -110 343 l0 4 l853 0 l0 45 q-3 238 -126 377 q-123 140 -334 143 q-216 -3 -342 -152 q-127 -148 -130 -402 q3 -261 131 -405 q127 -144 349 -146 q28 0 63 6 q36 6 59 15 l0 -4 q-69 -46 -107 -102 q-38 -56 -38 -119 q2 -79 57 -127 q56 -49 147 -50 l0 0 ZM536 1021 q173 -3 276 -119 q103 -116 106 -310 l-773 0 q11 195 116 311 q105 115 275 118 l0 0 Z" /><glyph glyph-name="" unicode="f" d="M171 0 l78 0 l0 1009 l231 0 l0 68 l-231 0 l0 148 q1 101 43 145 q43 43 121 42 q20 0 39 -2 q19 -2 36 -7 l0 68 q-15 5 -35 7 q-21 2 -44 2 q-114 1 -176 -59 q-61 -60 -62 -191 l0 -153 l-150 0 l0 -68 l150 0 l0 -1009 Z" /><glyph glyph-name="" unicode="&#x1e1f;" d="M319 1589 q32 1 54 22 q22 22 23 54 q-1 32 -23 54 q-22 21 -54 22 q-32 -1 -54 -22 q-22 -22 -23 -54 q1 -32 23 -54 q22 -21 54 -22 l0 0 ZM171 0 l78 0 l0 1009 l231 0 l0 68 l-231 0 l0 148 q1 101 43 145 q43 43 121 42 q20 0 39 -2 q19 -2 36 -7 l0 68 q-15 5 -35 7 q-21 2 -44 2 q-114 1 -176 -59 q-61 -60 -62 -191 l0 -153 l-150 0 l0 -68 l150 0 l0 -1009 Z" /><glyph glyph-name="" unicode="g" d="M529 59 q-174 3 -278 133 q-104 129 -107 347 q3 218 107 348 q104 130 278 133 q177 -3 284 -134 q106 -131 109 -347 q-3 -216 -109 -346 q-107 -131 -284 -134 l0 0 ZM551 -389 q209 2 328 110 q119 108 121 291 l0 1065 l-73 0 l0 -288 l-3 0 q-40 132 -146 216 q-107 83 -257 86 q-206 -4 -330 -153 q-123 -149 -126 -399 q3 -250 126 -398 q123 -149 329 -153 q150 3 256 86 q106 83 144 213 l2 0 l0 -278 q-2 -150 -99 -238 q-97 -88 -268 -90 q-140 2 -230 59 q-90 57 -118 146 l-80 0 q25 -117 137 -194 q112 -78 287 -81 l0 0 Z" /><glyph glyph-name="" unicode="&#x1f5;" d="M578 1253 l249 303 l-93 0 l-230 -303 l74 0 ZM529 59 q-174 3 -278 133 q-104 129 -107 347 q3 218 107 348 q104 130 278 133 q177 -3 284 -134 q106 -131 109 -347 q-3 -216 -109 -346 q-107 -131 -284 -134 l0 0 ZM551 -389 q209 2 328 110 q119 108 121 291 l0 1065 l-73 0 l0 -288 l-3 0 q-40 132 -146 216 q-107 83 -257 86 q-206 -4 -330 -153 q-123 -149 -126 -399 q3 -250 126 -398 q123 -149 329 -153 q150 3 256 86 q106 83 144 213 l2 0 l0 -278 q-2 -150 -99 -238 q-97 -88 -268 -90 q-140 2 -230 59 q-90 57 -118 146 l-80 0 q25 -117 137 -194 q112 -78 287 -81 l0 0 Z" /><glyph glyph-name="" unicode="&#x1e7;" d="M589 1253 l268 303 l-80 0 l-217 -249 l-3 0 l-217 249 l-81 0 l268 -303 l62 0 ZM529 59 q-174 3 -278 133 q-104 129 -107 347 q3 218 107 348 q104 130 278 133 q177 -3 284 -134 q106 -131 109 -347 q-3 -216 -109 -346 q-107 -131 -284 -134 l0 0 ZM551 -389 q209 2 328 110 q119 108 121 291 l0 1065 l-73 0 l0 -288 l-3 0 q-40 132 -146 216 q-107 83 -257 86 q-206 -4 -330 -153 q-123 -149 -126 -399 q3 -250 126 -398 q123 -149 329 -153 q150 3 256 86 q106 83 144 213 l2 0 l0 -278 q-2 -150 -99 -238 q-97 -88 -268 -90 q-140 2 -230 59 q-90 57 -118 146 l-80 0 q25 -117 137 -194 q112 -78 287 -81 l0 0 Z" /><glyph glyph-name="" unicode="&#x11d;" d="M589 1556 l-62 0 l-268 -303 l81 0 l217 249 l3 0 l217 -249 l80 0 l-268 303 ZM529 59 q-174 3 -278 133 q-104 129 -107 347 q3 218 107 348 q104 130 278 133 q177 -3 284 -134 q106 -131 109 -347 q-3 -216 -109 -346 q-107 -131 -284 -134 l0 0 ZM551 -389 q209 2 328 110 q119 108 121 291 l0 1065 l-73 0 l0 -288 l-3 0 q-40 132 -146 216 q-107 83 -257 86 q-206 -4 -330 -153 q-123 -149 -126 -399 q3 -250 126 -398 q123 -149 329 -153 q150 3 256 86 q106 83 144 213 l2 0 l0 -278 q-2 -150 -99 -238 q-97 -88 -268 -90 q-140 2 -230 59 q-90 57 -118 146 l-80 0 q25 -117 137 -194 q112 -78 287 -81 l0 0 Z" /><glyph glyph-name="" unicode="&#x11f;" d="M286 1503 q2 -120 77 -186 q74 -66 195 -67 q121 1 195 67 q75 66 77 186 l-62 0 q-1 -89 -58 -142 q-57 -53 -152 -54 q-95 1 -152 54 q-57 53 -58 142 l-62 0 ZM529 59 q-174 3 -278 133 q-104 129 -107 347 q3 218 107 348 q104 130 278 133 q177 -3 284 -134 q106 -131 109 -347 q-3 -216 -109 -346 q-107 -131 -284 -134 l0 0 ZM551 -389 q209 2 328 110 q119 108 121 291 l0 1065 l-73 0 l0 -288 l-3 0 q-40 132 -146 216 q-107 83 -257 86 q-206 -4 -330 -153 q-123 -149 -126 -399 q3 -250 126 -398 q123 -149 329 -153 q150 3 256 86 q106 83 144 213 l2 0 l0 -278 q-2 -150 -99 -238 q-97 -88 -268 -90 q-140 2 -230 59 q-90 57 -118 146 l-80 0 q25 -117 137 -194 q112 -78 287 -81 l0 0 Z" /><glyph glyph-name="" unicode="&#x1e21;" d="M851 1366 l-596 0 l0 -58 l596 0 l0 58 ZM529 59 q-174 3 -278 133 q-104 129 -107 347 q3 218 107 348 q104 130 278 133 q177 -3 284 -134 q106 -131 109 -347 q-3 -216 -109 -346 q-107 -131 -284 -134 l0 0 ZM551 -389 q209 2 328 110 q119 108 121 291 l0 1065 l-73 0 l0 -288 l-3 0 q-40 132 -146 216 q-107 83 -257 86 q-206 -4 -330 -153 q-123 -149 -126 -399 q3 -250 126 -398 q123 -149 329 -153 q150 3 256 86 q106 83 144 213 l2 0 l0 -278 q-2 -150 -99 -238 q-97 -88 -268 -90 q-140 2 -230 59 q-90 57 -118 146 l-80 0 q25 -117 137 -194 q112 -78 287 -81 l0 0 Z" /><glyph glyph-name="" unicode="&#x121;" d="M558 1256 q32 1 55 23 q22 22 23 54 q-1 32 -23 54 q-23 22 -55 23 q-32 -1 -55 -23 q-22 -22 -23 -54 q1 -32 23 -54 q23 -22 55 -23 l0 0 ZM529 59 q-174 3 -278 133 q-104 129 -107 347 q3 218 107 348 q104 130 278 133 q177 -3 284 -134 q106 -131 109 -347 q-3 -216 -109 -346 q-107 -131 -284 -134 l0 0 ZM551 -389 q209 2 328 110 q119 108 121 291 l0 1065 l-73 0 l0 -288 l-3 0 q-40 132 -146 216 q-107 83 -257 86 q-206 -4 -330 -153 q-123 -149 -126 -399 q3 -250 126 -398 q123 -149 329 -153 q150 3 256 86 q106 83 144 213 l2 0 l0 -278 q-2 -150 -99 -238 q-97 -88 -268 -90 q-140 2 -230 59 q-90 57 -118 146 l-80 0 q25 -117 137 -194 q112 -78 287 -81 l0 0 Z" /><glyph glyph-name="" unicode="&#x123;" d="M634 1597 l-114 -344 l78 0 l99 344 l-63 0 ZM529 59 q-174 3 -278 133 q-104 129 -107 347 q3 218 107 348 q104 130 278 133 q177 -3 284 -134 q106 -131 109 -347 q-3 -216 -109 -346 q-107 -131 -284 -134 l0 0 ZM551 -389 q209 2 328 110 q119 108 121 291 l0 1065 l-73 0 l0 -288 l-3 0 q-40 132 -146 216 q-107 83 -257 86 q-206 -4 -330 -153 q-123 -149 -126 -399 q3 -250 126 -398 q123 -149 329 -153 q150 3 256 86 q106 83 144 213 l2 0 l0 -278 q-2 -150 -99 -238 q-97 -88 -268 -90 q-140 2 -230 59 q-90 57 -118 146 l-80 0 q25 -117 137 -194 q112 -78 287 -81 l0 0 Z" /><glyph glyph-name="" unicode="h" d="M129 0 l78 0 l0 639 q3 171 100 275 q97 103 259 106 q153 -1 241 -89 q89 -89 91 -246 l0 -685 l77 0 l0 694 q-2 182 -108 289 q-106 106 -285 108 q-138 -2 -235 -69 q-98 -67 -137 -182 l-3 0 l0 666 l-78 0 l0 -1506 Z" /><glyph glyph-name="" unicode="&#x1e27;" d="M129 0 l78 0 l0 639 q3 171 100 275 q97 103 259 106 q153 -1 241 -89 q89 -89 91 -246 l0 -685 l77 0 l0 694 q-2 182 -108 289 q-106 106 -285 108 q-138 -2 -235 -69 q-98 -67 -137 -182 l-3 0 l0 666 l-78 0 l0 -1506 ZM16 1626 q28 1 47 20 q19 19 20 47 q-1 28 -20 47 q-19 18 -47 19 q-29 -1 -48 -19 q-19 -19 -20 -47 q1 -28 20 -47 q19 -19 48 -20 l0 0 ZM320 1626 q29 1 48 20 q19 19 20 47 q-1 28 -20 47 q-19 18 -48 19 q-28 -1 -47 -19 q-19 -19 -20 -47 q1 -28 20 -47 q19 -19 47 -20 l0 0 Z" /><glyph glyph-name="" unicode="&#x21f;" d="M129 0 l78 0 l0 639 q3 171 100 275 q97 103 259 106 q153 -1 241 -89 q89 -89 91 -246 l0 -685 l77 0 l0 694 q-2 182 -108 289 q-106 106 -285 108 q-138 -2 -235 -69 q-98 -67 -137 -182 l-3 0 l0 666 l-78 0 l0 -1506 ZM134 1616 l68 0 l271 290 l-83 0 l-221 -239 l-2 0 l-221 239 l-83 0 l271 -290 Z" /><glyph glyph-name="" unicode="&#x125;" d="M129 0 l78 0 l0 639 q3 171 100 275 q97 103 259 106 q153 -1 241 -89 q89 -89 91 -246 l0 -685 l77 0 l0 694 q-2 182 -108 289 q-106 106 -285 108 q-138 -2 -235 -69 q-98 -67 -137 -182 l-3 0 l0 666 l-78 0 l0 -1506 ZM134 1906 l-271 -290 l83 0 l221 238 l2 0 l221 -238 l83 0 l-271 290 l-68 0 Z" /><glyph glyph-name="" unicode="&#x1e25;" d="M129 0 l78 0 l0 639 q3 171 100 275 q97 103 259 106 q153 -1 241 -89 q89 -89 91 -246 l0 -685 l77 0 l0 694 q-2 182 -108 289 q-106 106 -285 108 q-138 -2 -235 -69 q-98 -67 -137 -182 l-3 0 l0 666 l-78 0 l0 -1506 ZM551 -295 q32 1 54 22 q22 22 23 54 q-1 32 -23 54 q-22 21 -54 22 q-32 -1 -54 -22 q-22 -22 -23 -54 q1 -32 23 -54 q22 -21 54 -22 l0 0 Z" /><glyph glyph-name="" unicode="&#x1e23;" d="M129 0 l78 0 l0 639 q3 171 100 275 q97 103 259 106 q153 -1 241 -89 q89 -89 91 -246 l0 -685 l77 0 l0 694 q-2 182 -108 289 q-106 106 -285 108 q-138 -2 -235 -69 q-98 -67 -137 -182 l-3 0 l0 666 l-78 0 l0 -1506 ZM168 1626 q32 1 54 22 q22 22 23 54 q-1 32 -23 54 q-22 21 -54 22 q-32 -1 -54 -22 q-22 -22 -23 -54 q1 -32 23 -54 q22 -21 54 -22 l0 0 Z" /><glyph glyph-name="" unicode="&#x1e2b;" d="M282 -155 q2 -109 76 -172 q74 -63 193 -64 q119 1 193 64 q74 63 76 172 l-61 0 q-1 -78 -57 -128 q-57 -50 -151 -52 q-94 2 -150 52 q-57 50 -58 128 l-61 0 ZM129 0 l78 0 l0 639 q3 171 100 275 q97 103 259 106 q153 -1 241 -89 q89 -89 91 -246 l0 -685 l77 0 l0 694 q-2 182 -108 289 q-106 106 -285 108 q-138 -2 -235 -69 q-98 -67 -137 -182 l-3 0 l0 666 l-78 0 l0 -1506 Z" /><glyph glyph-name="" unicode="&#x1e29;" d="M207 840 l0 666 l-78 0 l0 -1506 l16 0 l-61 -150 l0 -43 l49 0 q78 0 119 -26 q41 -26 41 -76 q-1 -50 -45 -81 q-44 -31 -114 -32 q-35 0 -67 4 q-33 5 -55 13 l0 -56 q25 -8 59 -12 q34 -5 69 -4 q98 1 157 48 q58 46 60 122 q-1 73 -54 112 q-53 40 -153 40 l58 141 l0 7 l-1 0 l0 632 q3 171 100 275 q97 103 259 106 q153 -1 241 -89 q89 -89 91 -246 l0 -685 l77 0 l0 694 q-2 182 -108 289 q-106 106 -285 108 q-138 -2 -235 -69 q-98 -67 -137 -182 l-3 0 Z" /><glyph glyph-name="" unicode="&#x127;" d="M224 840 l0 438 l283 0 l0 62 l-283 0 l0 166 l-78 0 l0 -166 l-133 0 l0 -62 l133 0 l0 -1278 l78 0 l0 639 q3 171 100 275 q97 103 258 106 q153 -1 242 -89 q88 -89 90 -246 l0 -685 l78 0 l0 694 q-2 182 -108 289 q-106 106 -285 108 q-138 -2 -236 -69 q-97 -67 -137 -182 l-2 0 Z" /><glyph glyph-name="" unicode="&#x1e96;" d="M129 0 l78 0 l0 639 q3 171 100 275 q97 103 259 106 q153 -1 241 -89 q89 -89 91 -246 l0 -685 l77 0 l0 694 q-2 182 -108 289 q-106 106 -285 108 q-138 -2 -235 -69 q-98 -67 -137 -182 l-3 0 l0 666 l-78 0 l0 -1506 ZM841 -205 l-580 0 l0 -57 l580 0 l0 57 Z" /><glyph glyph-name="" unicode="i" d="M129 0 l78 0 l0 1077 l-78 0 l0 -1077 ZM168 1341 q27 1 45 18 q17 17 18 43 q-1 27 -18 44 q-18 17 -45 18 q-26 -1 -44 -18 q-17 -17 -18 -44 q1 -26 18 -43 q18 -17 44 -18 l0 0 Z" /><glyph glyph-name="" unicode="ì" d="M219 1253 l-230 303 l-93 0 l249 -303 l74 0 ZM129 0 l78 0 l0 1077 l-78 0 l0 -1077 Z" /><glyph glyph-name="" unicode="&#x209;" d="M129 0 l78 0 l0 1077 l-78 0 l0 -1077 ZM83 1253 l-227 303 l-92 0 l247 -303 l72 0 ZM327 1253 l-227 303 l-92 0 l247 -303 l72 0 Z" /><glyph glyph-name="" unicode="í" d="M188 1253 l249 303 l-93 0 l-230 -303 l74 0 ZM129 0 l78 0 l0 1077 l-78 0 l0 -1077 Z" /><glyph glyph-name="" unicode="î" d="M199 1556 l-62 0 l-268 -303 l81 0 l217 249 l3 0 l217 -249 l80 0 l-268 303 ZM129 0 l78 0 l0 1077 l-78 0 l0 -1077 Z" /><glyph glyph-name="" unicode="&#x1d0;" d="M199 1253 l268 303 l-80 0 l-217 -249 l-3 0 l-217 249 l-81 0 l268 -303 l62 0 ZM129 0 l78 0 l0 1077 l-78 0 l0 -1077 Z" /><glyph glyph-name="" unicode="ï" d="M129 0 l78 0 l0 1077 l-78 0 l0 -1077 ZM16 1256 q28 1 47 20 q19 19 20 47 q-1 28 -20 47 q-19 18 -47 19 q-29 -1 -48 -19 q-19 -19 -20 -47 q1 -28 20 -47 q19 -19 48 -20 l0 0 ZM320 1256 q29 1 48 20 q19 19 20 47 q-1 28 -20 47 q-19 18 -48 19 q-28 -1 -47 -19 q-19 -19 -20 -47 q1 -28 20 -47 q19 -19 47 -20 l0 0 Z" /><glyph glyph-name="" unicode="&#x1e2f;" d="M121 1530 l75 0 l240 284 l-93 0 l-222 -284 ZM16 1256 q28 1 47 20 q19 19 20 47 q-1 28 -20 47 q-19 18 -47 19 q-29 -1 -48 -19 q-19 -19 -20 -47 q1 -28 20 -47 q19 -19 48 -20 l0 0 ZM320 1256 q29 1 48 20 q19 19 20 47 q-1 28 -20 47 q-19 18 -48 19 q-28 -1 -47 -19 q-19 -19 -20 -47 q1 -28 20 -47 q19 -19 47 -20 l0 0 ZM129 0 l78 0 l0 1077 l-78 0 l0 -1077 Z" /><glyph glyph-name="" unicode="&#x12d;" d="M129 0 l78 0 l0 1077 l-78 0 l0 -1077 ZM-104 1503 q2 -120 77 -186 q74 -66 195 -67 q121 1 195 67 q75 66 77 186 l-62 0 q-1 -89 -58 -142 q-57 -53 -152 -54 q-95 1 -152 54 q-57 53 -58 142 l-62 0 Z" /><glyph glyph-name="" unicode="&#x1ecb;" d="M129 0 l78 0 l0 1077 l-78 0 l0 -1077 ZM168 1341 q27 1 45 18 q17 17 18 43 q-1 27 -18 44 q-18 17 -45 18 q-26 -1 -44 -18 q-17 -17 -18 -44 q1 -26 18 -43 q18 -17 44 -18 l0 0 ZM168 -295 q32 1 54 22 q22 22 23 54 q-1 32 -23 54 q-22 21 -54 22 q-32 -1 -54 -22 q-22 -22 -23 -54 q1 -32 23 -54 q22 -21 54 -22 l0 0 Z" /><glyph glyph-name="" unicode="&#x20b;" d="M129 0 l78 0 l0 1077 l-78 0 l0 -1077 ZM-104 1253 l62 0 q1 89 58 142 q57 53 152 54 q95 -1 152 -54 q57 -53 58 -142 l62 0 q-2 120 -77 186 q-74 66 -195 67 q-121 -1 -195 -67 q-75 -66 -77 -186 l0 0 Z" /><glyph glyph-name="" unicode="&#x12b;" d="M129 0 l78 0 l0 1077 l-78 0 l0 -1077 ZM461 1366 l-596 0 l0 -58 l596 0 l0 58 Z" /><glyph glyph-name="" unicode="&#x1e2d;" d="M129 0 l78 0 l0 1077 l-78 0 l0 -1077 ZM168 1341 q27 1 45 18 q17 17 18 43 q-1 27 -18 44 q-18 17 -45 18 q-26 -1 -44 -18 q-17 -17 -18 -44 q1 -26 18 -43 q18 -17 44 -18 l0 0 ZM303 -366 q74 2 112 59 q38 58 38 154 l-61 0 q0 -70 -21 -111 q-21 -42 -68 -43 q-68 10 -121 82 q-54 72 -148 82 q-75 -1 -112 -58 q-38 -57 -38 -154 l60 0 q0 69 22 111 q21 41 69 42 q70 -10 122 -82 q53 -72 146 -82 l0 0 Z" /><glyph glyph-name="" unicode="&#x1ec9;" d="M129 0 l78 0 l0 1077 l-78 0 l0 -1077 ZM53 1438 q22 14 48 22 q26 7 52 7 q46 -1 74 -24 q28 -23 29 -63 q0 -37 -22 -63 q-22 -27 -61 -43 l35 -44 q50 22 81 62 q31 41 32 92 q-1 63 -43 101 q-42 38 -113 39 q-33 0 -62 -8 q-28 -7 -50 -20 l0 -58 Z" /><glyph glyph-name="" unicode="&#x129;" d="M129 0 l78 0 l0 1077 l-78 0 l0 -1077 ZM303 1255 q74 2 112 59 q38 58 38 154 l-61 0 q0 -70 -21 -111 q-21 -42 -68 -43 q-68 10 -121 82 q-54 72 -148 82 q-75 -1 -112 -58 q-38 -57 -38 -154 l60 0 q0 69 22 111 q21 41 69 42 q70 -10 122 -82 q53 -72 146 -82 l0 0 Z" /></font>
</defs>
</svg>
